<?xml version="1.0" encoding="utf-8"?>
<!-- Generator: Adobe Illustrator 27.0.0, SVG Export Plug-In . SVG Version: 6.00 Build 0)  -->
<svg version="1.1" id="Layer_1" xmlns="http://www.w3.org/2000/svg" xmlns:xlink="http://www.w3.org/1999/xlink" x="0px" y="0px"
	 viewBox="0 0 3840 3548" style="enable-background:new 0 0 3840 3548;" xml:space="preserve">
<style type="text/css">
	.st0{fill:none;stroke:#000000;stroke-width:9.3448;stroke-miterlimit:10;}
	.st1{fill:#00F6FF;}
	.st2{fill:#98E891;}
	.st3{fill:none;stroke:#000000;stroke-width:11.0206;stroke-miterlimit:10;}
	.st4{fill:none;}
</style>
<g>
	<path class="st1" d="M2380,1853.5c-79.1,31.1-166.3,54.5-255.4,68c-20,3.1-40.3,6.5-60.3,8.4c-1.2,0.4-2.3,0.4-3.1,0.4
		c-4.2,0.4-8.4,0.8-13.1,1.2c-6.5,0.8-12.7,1.2-19.2,1.9c-11.1,0.8-22.3,1.5-33.4,2.3c-23.8,1.2-47.2,1.9-70.7,1.9
		c-11.1,0-22.3,0-33.4-0.4c-8.8-0.4-17.7-0.4-26.5-0.8c-3.8,0-7.3-0.4-10.8-0.4c-10.4-0.4-20.7-1.2-31.1-2.3
		c-6.9-0.4-13.8-1.2-20.7-1.9c-13.1-1.2-26.1-2.7-38.8-4.6c-6.1-0.8-11.9-1.9-17.7-2.7c0,0-0.4,0-0.4-0.4c-1.2-0.4-2.3-0.8-3.5-1.2
		c-9.2-1.2-18.4-3.1-27.6-4.6c-5.8-1.2-11.9-2.3-17.7-3.5l-0.8,0.8c-99.1-20-190.8-54.5-265.3-104.8l-25.7,14.6l-1.2-1.2l-318,178.6
		l164-343.3c-50.3-56.8-83.7-124.8-80.3-202.7c5.8-147.4,100.6-249.2,226.9-317.2c16.1-8.4,32.6-16.5,49.5-24.2
		c19.6-8.8,39.6-16.9,59.9-24.6c54.5-20,111.4-35.7,166.3-46.8c28.8-5.4,56.1-10,83.7-14.2v-0.4c56.8-7.7,110.2-12.3,156.3-13.4
		c42.2-1.2,91.4-1.2,144.8,1.2c32.3,1.2,68,3.5,103.7,6.5c44.5,4.6,90.2,10,134.8,18.8c17.3,3.5,34.6,7.3,51.8,11.5
		c30.7,7.7,61.1,16.5,90.6,27.3c153.6,55.3,279.6,155.1,299.1,332.5C2759,1613.9,2600.8,1766.7,2380,1853.5z"/>
	

	<g>
		<g>
			<g>
				<path class="st2" d="M2412.7,1428c22.7,23,22.7,59.9-0.4,82.6c-11.1,11.1-25.7,16.9-41.1,16.9c-15.7,0-30.3-6.1-41.5-17.3
					c-102.9-103.7-235.4-160.9-372.9-160.9c-137.9,0-270.3,57.2-372.9,160.9c-11.1,11.1-25.7,17.3-41.5,17.3
					c-15.4,0-30.3-6.1-41.1-16.9c-11.1-11.1-17.3-25.7-17.3-41.5s5.8-30.3,16.9-41.5c124.8-125.9,286.8-195.4,456.2-195.4
					C2125.8,1232.6,2287.9,1302.1,2412.7,1428z"/>
				<path class="st2" d="M2048.3,1931.4c-6.5,0.8-12.7,1.2-19.2,1.9c-11.1,0.8-22.3,1.5-33.4,2.3c-23.8,1.2-47.2,1.9-70.7,1.9
					c-11.1,0-22.3,0-33.4-0.4c-8.8-0.4-17.7-0.4-26.5-0.8c0-1.5,0-3.1,0-4.2c0-50.7,41.1-91.8,91.8-91.8
					C2007.2,1840.4,2048.3,1881.1,2048.3,1931.4z"/>
				<path class="st2" d="M2596.6,1300.9c-10.8,10-25,15.7-39.9,15.7c-16.1,0-31.9-6.9-42.6-18.8
					c-146.3-156.7-344.1-243.4-557.2-243.4s-411.3,86.8-557.6,243.4c-11.1,11.9-26.5,18.8-42.6,18.8c-15,0-29.2-5.8-39.9-15.7
					c-23.8-21.9-25-59.1-3.1-82.6c26.1-28,53.8-54.5,82.9-78.7c16.1-8.4,32.6-16.5,49.5-24.2c19.6-8.8,39.6-16.9,59.9-24.6
					c54.5-20,111.4-35.7,166.3-46.8c28.8-5.4,56.1-10,83.7-14.2v-0.4c56.8-7.7,110.2-12.3,156.3-13.4c42.2-1.2,91.4-1.2,144.8,1.2
					c32.3,1.2,68,3.5,103.7,6.5c44.5,4.6,90.2,10,134.8,18.8c17.3,3.5,34.6,7.3,51.8,11.5c30.7,7.7,61.1,16.5,90.6,27.3
					c58.4,38.4,112.5,84.5,161.7,137.1C2621.6,1241.8,2620.4,1279,2596.6,1300.9z"/>
				<path class="st2" d="M2211.5,1638.8c11.1,11.1,17.3,25.7,17.3,41.5c0,15.7-5.8,30.3-16.9,41.5c-11.1,11.1-25.7,17.3-41.5,17.3
					c-15.4,0-30-6.1-41.1-16.9c-46.1-45.7-112.9-74.9-170.9-74.9h-3.8c-58,0-124.8,29.2-170.5,74.5c-11.1,10.8-25.7,16.9-41.1,16.9
					c-15.7,0-30.3-6.1-41.5-17.3c-22.7-23-22.7-60.3,0.4-82.9c67.6-66.8,164.4-108.7,253.1-108.7h3.8
					C2047.1,1530.2,2143.9,1571.6,2211.5,1638.8z"/>
			</g>
		</g>
	</g>
	<g>
		<g>
			<g>
				<path class="st3" d="M2412.7,1428c22.7,23,22.7,59.9-0.4,82.6c-11.1,11.1-25.7,16.9-41.1,16.9c-15.7,0-30.3-6.1-41.5-17.3
					c-102.9-103.7-235.4-160.9-372.9-160.9c-137.9,0-270.3,57.2-372.9,160.9c-11.1,11.1-25.7,17.3-41.5,17.3
					c-15.4,0-30.3-6.1-41.1-16.9c-11.1-11.1-17.3-25.7-17.3-41.5s5.8-30.3,16.9-41.5c124.8-125.9,286.8-195.4,456.2-195.4
					C2125.8,1232.6,2287.9,1302.1,2412.7,1428z"/>
				<path class="st3" d="M2048.3,1932.2c0,50.3-41.1,91.4-91.4,91.4c-50.7,0-91.8-41.1-91.8-91.4c0-50.7,41.1-91.8,91.8-91.8
					C2007.2,1840.4,2048.3,1881.5,2048.3,1932.2z"/>
				<path class="st3" d="M2596.6,1300.9c-10.8,10-25,15.7-39.9,15.7c-16.1,0-31.9-6.9-42.6-18.8
					c-146.3-156.7-344.1-243.4-557.2-243.4s-411.3,86.8-557.6,243.4c-11.1,11.9-26.5,18.8-42.6,18.8c-15,0-29.2-5.8-39.9-15.7
					c-23.8-21.9-25-59.1-3.1-82.6c168.6-180.9,397.1-280.3,642.8-280.7c246.1,0,474.2,99.8,642.8,280.7
					C2621.6,1241.8,2620.4,1279,2596.6,1300.9z"/>
				<path class="st3" d="M2211.5,1638.8c11.1,11.1,17.3,25.7,17.3,41.5c0,15.7-5.8,30.3-16.9,41.5c-11.1,11.1-25.7,17.3-41.5,17.3
					c-15.4,0-30-6.1-41.1-16.9c-46.1-45.7-112.9-74.9-170.9-74.9h-3.8c-58,0-124.8,29.2-170.5,74.5c-11.1,10.8-25.7,16.9-41.1,16.9
					c-15.7,0-30.3-6.1-41.5-17.3c-22.7-23-22.7-60.3,0.4-82.9c67.6-66.8,164.4-108.7,253.1-108.7h3.8
					C2047.1,1530.2,2143.9,1571.6,2211.5,1638.8z"/>
			</g>
		</g>
	</g>
	<rect class="st4" width="3840" height="3548"/>
</g>
</svg>
