<?xml version="1.0" encoding="utf-8"?>
<!-- Generator: Adobe Illustrator 27.0.0, SVG Export Plug-In . SVG Version: 6.00 Build 0)  -->
<svg version="1.1" id="Layer_1" xmlns="http://www.w3.org/2000/svg" xmlns:xlink="http://www.w3.org/1999/xlink" x="0px" y="0px"
	 viewBox="0 0 640 591" style="enable-background:new 0 0 640 591;" xml:space="preserve">
<style type="text/css">
	.st0{display:none;fill:#FF4B00;}
	.st1{display:none;}
	.st2{display:inline;fill:#D2B6DE;}
	.st3{display:inline;}
	.st4{fill:none;stroke:#000000;stroke-width:1.557;stroke-miterlimit:10;}
	.st5{fill:#FF4B00;}
	.st6{fill:#EAEAEA;}
	.st7{fill:#D2B6DE;}
	.st8{fill:none;stroke:#000000;stroke-width:1.9194;stroke-miterlimit:10;}
	.st9{fill:none;}
</style>
<g>
	<path class="st0" d="M-429,244.3c-9,20-21.6,40.6-36.5,61.1c-19.6,26.8-43.5,53.1-68.9,77h0.3c-21.3,19.9-43.2,37.8-64.9,52.8
		c-9.4-16.8-19.7-33.2-30.6-49.1c0,0,0-0.1-0.1-0.1c-0.8-1.2-1.6-2.4-2.5-3.6h-0.3c-16.2-23.7-33.7-46.6-50.2-68.1
		c-2-2.5-3.9-5-5.8-7.5v-1.1l0,0c-0.1,0-0.2,0.1-0.3,0.2c-0.1,0-0.1,0.1-0.2,0.1c-20.2-26.8-38.9-51.6-51.9-74.4l0,0
		c-4.7-8.4-8.8-16.5-11.9-24.4c-11.9-30.1-10.1-56.2,15.9-77.7c36-30,81.6-24,114.8,17.9c0.2,0.5,0.4,0.9,0.6,1.3
		c-0.2-0.5-0.4-0.9-0.5-1.4c17.3,22.3,31.5,54.3,38.9,96.5c0.7,4.3,1.4,8.6,2,13.1c0-4.6,0.3-9.7,0.8-15
		c3.1-32.6,15.7-75.9,38.1-104.4l3.7-4.2l0.3-0.4l0.6-0.7c20.1-22.6,47.6-32.8,82.4-14.3c10.1,5.4,18.2,11.7,24.4,18.9
		C-407.2,163.9-410.2,202.6-429,244.3z"/>
	<path class="st0" d="M-688.5,305.7v1.1c-0.3-0.3-0.3-0.6-0.6-0.9c0.1,0,0.1,0,0.2-0.1C-688.6,305.9-688.5,305.8-688.5,305.7
		L-688.5,305.7z"/>
	<g class="st1">
		<path class="st2" d="M-629.5,385.9C-629.6,385.9-629.6,386-629.5,385.9c-0.9-1.1-1.7-2.3-2.6-3.5h-0.3
			c-16.2-23.7-33.7-46.6-50.2-68.1c-2-2.5-3.9-5-5.8-7.5v-1.1l0,0c-0.1,0-0.2,0.1-0.3,0.2c-0.1,0-0.1,0.1-0.2,0.1
			c-20.2-26.8-38.9-51.6-51.9-74.4l0,0c-4.7-8.4-8.8-16.5-11.9-24.4c7.3-4.6,15.5-6.8,23.6-6.8c14,0,27.8,6.6,36.5,18.9l48.1,68.1
			l25.7,36.4C-604.6,343.8-609.4,371.6-629.5,385.9z"/>
		<path class="st2" d="M-429,244.3l-200.4,141.6c-0.1,0.1-0.2,0.1-0.3,0.2c0,0,0-0.1-0.1-0.1c-0.8-1.2-1.6-2.4-2.5-3.6h-0.3
			c-16.2-23.7-33.7-46.6-50.2-68.1c0.6-0.5,1.1-0.9,1.7-1.3l36.4-25.7l61.4-43.4l2.8-2L-437,140.5c2-1.4,4-2.6,6.2-3.6
			C-407.2,163.9-410.2,202.6-429,244.3z"/>
	</g>
	<g class="st1">
		<g class="st3">
			<path d="M-411,132.2v2.9c13.6,0,26.3,6.6,34.1,17.6c5,7.1,7.7,15.4,7.7,24c0,13.6-6.6,26.3-17.7,34.1l-244,172.5
				c-7.1,5-15.4,7.6-24,7.6c-0.9,0-1.8,0-2.8-0.1c-1.6-0.1-3.2-0.3-4.6-0.5l-0.3-0.1c-0.7-0.1-1.4-0.3-2.1-0.5
				c-10-2.3-18.7-8.2-24.6-16.5l-73.8-104.4c-6.4-9.1-8.9-20.2-7-31.2s7.9-20.6,17-27c7.1-5,15.4-7.7,24.1-7.7
				c13.6,0,26.3,6.6,34.1,17.6l48.1,68.1l1.7,2.4l2.4-1.7L-435,142.5c7.1-5,15.4-7.6,24-7.6V132.2 M-411,132.2
				c-8.9,0-17.9,2.7-25.7,8.2l-207.8,146.9l-48.1-68.1c-8.7-12.3-22.5-18.9-36.5-18.9c-8.9,0-17.9,2.7-25.8,8.2
				c-20.1,14.2-24.9,42.1-10.7,62.2l73.9,104.5c6.6,9.3,16,15.3,26.3,17.7c0.9,0.2,1.7,0.4,2.6,0.6c1.6,0.3,3.3,0.5,5,0.6
				c1,0.1,1.9,0.1,2.9,0.1c8.9,0,17.9-2.7,25.7-8.2l244-172.5c12.3-8.7,18.9-22.5,18.9-36.5c0-8.9-2.7-17.9-8.2-25.7
				C-383.2,138.8-397,132.2-411,132.2L-411,132.2z"/>
		</g>
	</g>
</g>
<g>
	<path class="st5" d="M255.4,276.9C255.4,277,255.4,277,255.4,276.9c-0.1,0.1-0.1,0.1-0.2,0.1c0,0,0-0.1-0.1-0.1
		c0.1,0,0.1,0,0.1-0.1C255.4,276.9,255.4,276.9,255.4,276.9z"/>
	<path class="st5" d="M255.6,276.8v0.7c-0.2-0.2-0.2-0.3-0.3-0.5l-0.1-0.1l0,0c0.1,0,0.1,0,0.1-0.1c0.1,0,0.1,0,0.1,0
		C255.5,276.9,255.6,276.9,255.6,276.8z"/>
	<path class="st5" d="M255.4,276.9C255.4,277,255.4,277,255.4,276.9c-0.1,0.1-0.1,0.1-0.2,0.1c0,0,0-0.1-0.1-0.1
		c0.1,0,0.1,0,0.1-0.1C255.4,276.9,255.4,276.9,255.4,276.9z"/>
	<path class="st5" d="M421.6,237.6c-5.8,12.8-13.8,26-23.4,39.1c-2.4,3.3-4.9,6.5-7.4,9.7c-10.9,13.8-23.5,27.2-36.7,39.5h0.2
		c-0.3,0.3-0.5,0.5-0.8,0.7c-13.4,12.5-27.1,23.7-40.8,33.1c-6-10.7-12.6-21.2-19.6-31.4c0,0,0,0,0-0.1c0,0,0,0-0.1,0
		c-0.3-0.5-0.7-1-1.1-1.6c-0.2-0.3-0.3-0.5-0.5-0.7h-0.3c-10.4-15.2-21.6-29.8-32.1-43.6c0,0,0,0,0.1-0.1c-0.8-1-1.6-2-2.4-3.1
		c-0.4-0.6-0.8-1.2-1.3-1.7v-0.7l-0.1,0.1c0,0-0.1,0-0.1,0.1l0,0c0,0-0.1,0-0.1,0c-0.1,0.1-0.1,0.1-0.1,0.1c-0.8-1-1.6-2.1-2.4-3.1
		c-0.8-1.1-1.6-2.2-2.4-3.2c-0.8-1-1.5-2-2.3-3.1c-3.1-4.2-6.1-8.3-9.1-12.3c-0.7-1-1.4-2-2.1-2.9c-1.1-1.5-2.1-3-3.1-4.5
		c-0.6-1-1.3-1.9-1.9-2.8c-0.7-1-1.3-2-2-3c-0.6-1-1.2-1.9-1.9-2.8c-0.9-1.4-1.8-2.8-2.7-4.2c-0.6-1-1.2-1.9-1.7-2.8
		c-0.1-0.2-0.2-0.3-0.3-0.5c-0.4-0.8-0.9-1.5-1.3-2.2c-1.5-2.7-2.9-5.3-4.2-7.9c-1.3-2.6-2.4-5.2-3.4-7.7
		c-7.6-19.3-6.5-35.9,10.2-49.7c20.3-16.9,45.4-15.9,65.5,2.9c2.8,2.6,5.4,5.4,7.9,8.6c0.1,0.3,0.3,0.6,0.4,0.8
		c-0.1-0.3-0.3-0.6-0.3-0.9c1.6,2,3.2,4.3,4.7,6.7c6.9,10.6,12.8,24,17,40.2c1.2,4.7,2.3,9.7,3.2,14.9l0,0c0.4,2.8,0.9,5.5,1.3,8.4
		c0-2.9,0.2-6.2,0.5-9.6c0,0,0-0.1,0-0.1c0.4-4.3,1.1-8.9,2-13.6c2.8-14.3,8-29.9,15.6-43c2-3.6,4.4-7,6.8-10.1l2.4-2.7l0.2-0.3
		l0.4-0.4c0.6-0.7,1.3-1.4,2-2.1c12.7-12.9,29.6-18.3,50.8-7c6.5,3.5,11.6,7.5,15.6,12.1c3.4,3.9,6,8.2,7.7,12.8
		c0.1,0.3,0.3,0.6,0.3,1c0.3,0.7,0.5,1.4,0.7,2.2c0.1,0.4,0.3,0.9,0.4,1.3c0.3,0.9,0.4,1.8,0.6,2.8
		C433.2,203.1,429.6,219.9,421.6,237.6z"/>
	<path class="st5" d="M293.2,328.2C293.2,328.2,293.2,328.2,293.2,328.2c-0.1,0.1-0.1,0-0.1,0c-0.3-0.5-0.7-1-1.1-1.6
		c-0.2-0.3-0.3-0.5-0.5-0.7h0.1c0.2,0.3,0.4,0.5,0.5,0.7C292.5,327.2,292.8,327.7,293.2,328.2C293.2,328.2,293.2,328.2,293.2,328.2z
		"/>

	<path class="st6" d="M298.1,175.5c1.6,2,3.2,4.3,4.7,6.7c-0.6,0.7-1.1,1.5-1.6,2.3c-3,4.9-3.8,22.7-3.9,36l0,0
		c-0.5-0.1-1-0.1-1.5-0.1c-0.4-0.1-0.8-0.1-1.3-0.1c-2.2-0.3-4.4-0.5-6.5-0.8c-0.7-0.1-1.4-0.2-2.1-0.3c-1.4-0.2-2.8-0.4-4-0.7
		c-1.3-0.3-2.6-0.5-3.9-0.8l0,0c0-10.4,0-22.5,0.2-24.6c0.8-9.3,5.2-18.7,12-25.9C292.9,169.5,295.5,172.4,298.1,175.5
		c0.1,0.4,0.2,0.6,0.3,0.9C298.3,176.1,298.2,175.8,298.1,175.5z"/>
	<path class="st6" d="M369.5,217.6L369.5,217.6c-0.8,0.2-1.5,0.3-2.3,0.5c-0.8,0.1-1.5,0.3-2.2,0.4c-2.9,0.6-5.8,1-8.6,1.4
		c-2.1,0.3-4.2,0.5-6.1,0.7c-0.1-13.9-0.8-31.2-4-36.4c-1.2-1.8-2.4-3.5-3.8-4.9c2-3.6,4.4-7,6.8-10.1l2.4-2.7l0.2-0.3l0.4-0.4
		c0.6-0.7,1.3-1.4,2-2.1c8.8,7.5,14.8,18.2,15.6,29.8C369.8,195.9,369.7,207.4,369.5,217.6z"/>
	<path class="st7" d="M297.3,220.4v0.6c7.2,0.8,14.7,1.2,22.5,1.3c1.2,4.7,2.3,9.7,3.2,14.9l0,0c0.4,2.8,0.9,5.5,1.3,8.4
		c0-2.9,0.2-6.2,0.5-9.6c0,0,0-0.1,0-0.1c0.4-4.3,1.1-8.9,2-13.6c8.1-0.1,16-0.5,23.4-1.3v-0.4c0.4-0.1,0.8-0.1,1.2-0.1
		c0.4,0,0.7-0.1,1.1-0.1h0.1h0.1c0.1,0,0.1,0,0.1,0c0.5-0.1,1-0.1,1.6-0.2c0.7-0.1,1.4-0.2,2-0.3c0.7-0.1,1.4-0.2,2.1-0.3
		s1.4-0.2,2.1-0.3c0.7-0.1,1.4-0.3,2.2-0.4s1.5-0.3,2.2-0.4c0.8-0.1,1.5-0.3,2.2-0.4c0.8-0.2,1.5-0.3,2.3-0.5c0,0.1,0,0.3,0,0.4
		c3.7-0.8,6.9-1.5,10.2-2.6c0.8-0.3,1.7-0.4,2.5-0.4c1.9,0,3.6,0.6,5.1,1.6c2.2,1.5,3.5,4,3.5,6.7v62.9
		c-10.9,13.8-23.5,27.2-36.7,39.5h0.2c-0.3,0.3-0.5,0.5-0.8,0.7H292c-0.2-0.3-0.3-0.5-0.5-0.7h-0.2c-10.4-15.2-21.6-29.8-32.1-43.6
		c0,0,0,0,0.1-0.1c-0.8-1-1.6-2-2.4-3.1v-55.8c0-2.6,1.3-5.1,3.5-6.7c1.5-1.1,3.3-1.6,5.1-1.6c0.8,0,1.7,0.1,2.5,0.4
		c3.1,0.9,6.5,1.7,10,2.5v-0.3"/>
	<path class="st8" d="M297.3,220.4c0.2-13.3,0.9-31.1,3.9-36c4.9-7.9,12.9-12.5,21.9-12.7c0.3,0,0.6,0,1,0
		c9.2,0.1,17.3,4.7,22.1,12.5c3.3,5.2,4,22.5,4,36.4c5.3-0.5,11-1.3,17-2.5c0.8-0.2,1.5-0.3,2.3-0.5c0.1-10.2,0.3-21.7,0.1-24
		c-1.3-20.9-19.4-38.7-41.1-40.4c-1.3-0.1-2.8-0.2-4-0.2c-11.8-0.1-22.3,3.6-31,11c-8.7,7.4-14.4,18.2-15.3,29
		C278,195,278,207,278,217.5c5.1,1.1,10.6,2,16.6,2.7C295.5,220.3,296.4,220.3,297.3,220.4z"/>
	<path class="st8" d="M390.8,223.4v94.9c0,4.6-3.8,8.3-8.6,8.3H265.5c-4.7,0-8.6-3.7-8.6-8.3v-94.9c0-2.6,1.3-5.1,3.5-6.7
		c1.5-1.1,3.3-1.6,5.1-1.6c0.8,0,1.7,0.1,2.5,0.4c3.3,1,6.5,1.8,10,2.5l0,0c5.1,1.1,10.6,2.1,16.6,2.7c1,0.1,1.9,0.2,2.8,0.3l0,0
		c8.4,0.9,17.3,1.3,26.5,1.3c9.2,0,18-0.4,26.4-1.3l0,0c5.3-0.5,11-1.2,17-2.4c0.8-0.2,1.5-0.3,2.3-0.5c0,0.1,0-0.1,0,0
		c3.7-0.8,6.9-1.5,10.2-2.6c0.8-0.3,1.7-0.4,2.5-0.4c1.8,0,3.6,0.6,5.1,1.6C389.6,218.4,390.8,220.8,390.8,223.4z"/>
	<rect class="st9" width="640" height="591"/>
</g>
</svg>
