<?xml version="1.0" encoding="utf-8"?>
<!-- Generator: Adobe Illustrator 27.0.0, SVG Export Plug-In . SVG Version: 6.00 Build 0)  -->
<svg version="1.1" id="Layer_1" xmlns="http://www.w3.org/2000/svg" xmlns:xlink="http://www.w3.org/1999/xlink" x="0px" y="0px"
	 viewBox="0 0 1920 1774" style="enable-background:new 0 0 1920 1774;" xml:space="preserve">
<style type="text/css">
	.st0{display:none;fill:#FF4B00;}
	.st1{display:none;}
	.st2{display:inline;fill:#D2B6DE;}
	.st3{display:inline;}
	.st4{fill:none;stroke:#000000;stroke-width:4.6724;stroke-miterlimit:10;}
	.st5{fill:#FF4B00;}
	.st6{fill:#EAEAEA;}
	.st7{fill:#D2B6DE;}
	.st8{fill:none;stroke:#000000;stroke-width:5.7599;stroke-miterlimit:10;}
	.st9{fill:none;}
</style>
<g>
	<path class="st0" d="M212,835.8c-9,20-21.6,40.6-36.5,61.1c-19.6,26.8-43.5,53.1-68.9,77h0.3c-21.3,19.9-43.2,37.8-64.9,52.8
		c-9.4-16.8-19.7-33.2-30.6-49.1c0,0,0-0.1-0.1-0.1c-0.8-1.2-1.6-2.4-2.5-3.6H8.5c-16.2-23.7-33.7-46.6-50.2-68.1
		c-2-2.5-3.9-5-5.8-7.5v-1.1l0,0c-0.1,0-0.2,0.1-0.3,0.2c-0.1,0-0.1,0.1-0.2,0.1c-20.2-26.8-38.9-51.6-51.9-74.4l0,0
		c-4.7-8.4-8.8-16.5-11.9-24.4c-11.9-30.1-10.1-56.2,15.9-77.7c36-30,81.6-24,114.8,17.9c0.2,0.5,0.4,0.9,0.6,1.3
		c-0.2-0.5-0.4-0.9-0.5-1.4c17.3,22.3,31.5,54.3,38.9,96.5c0.7,4.3,1.4,8.6,2,13.1c0-4.6,0.3-9.7,0.8-15
		c3.1-32.6,15.7-75.9,38.1-104.4l3.7-4.2l0.3-0.4l0.6-0.7c20.1-22.6,47.6-32.8,82.4-14.3c10.1,5.4,18.2,11.7,24.4,18.9
		C233.8,755.4,230.8,794.1,212,835.8z"/>
	<path class="st0" d="M-47.5,897.2v1.1c-0.3-0.3-0.3-0.6-0.6-0.9c0.1,0,0.1,0,0.2-0.1C-47.6,897.4-47.5,897.3-47.5,897.2
		L-47.5,897.2z"/>
	<g class="st1">
		<path class="st2" d="M11.5,977.4c-0.1,0-0.1,0.1-0.1,0.1c-0.8-1.2-1.6-2.4-2.5-3.6H8.6c-16.2-23.7-33.7-46.6-50.2-68.1
			c-2-2.5-3.9-5-5.8-7.5v-1.1l0,0c-0.1,0-0.2,0.1-0.3,0.2c-0.1,0-0.1,0.1-0.2,0.1c-20.2-26.8-38.9-51.6-51.9-74.4l0,0
			c-4.7-8.4-8.8-16.5-11.9-24.4c7.3-4.6,15.5-6.8,23.6-6.8c14,0,27.8,6.6,36.5,18.9l48.1,68.1l25.7,36.4
			C36.4,935.3,31.6,963.1,11.5,977.4z"/>
		<path class="st2" d="M212,835.8L11.6,977.4c-0.1,0.1-0.2,0.1-0.3,0.2c0,0,0-0.1-0.1-0.1c-0.8-1.2-1.6-2.4-2.5-3.6H8.4
			c-16.2-23.7-33.7-46.6-50.2-68.1c0.6-0.5,1.1-0.9,1.7-1.3l36.4-25.7l61.4-43.4l2.8-2L204,732c2-1.4,4-2.6,6.2-3.6
			C233.8,755.4,230.8,794.1,212,835.8z"/>
	</g>
	<g class="st1">
		<g class="st3">
			<path d="M230,723.7v2.9c13.6,0,26.3,6.6,34.1,17.6c5,7.1,7.7,15.4,7.7,24c0,13.6-6.6,26.3-17.7,34.1l-244,172.5
				c-7.1,5-15.4,7.6-24,7.6c-0.9,0-1.8,0-2.8-0.1c-1.6-0.1-3.2-0.3-4.6-0.5l-0.3-0.1c-0.7-0.1-1.4-0.3-2.1-0.5
				c-10-2.3-18.7-8.2-24.6-16.5l-73.8-104.4c-6.4-9.1-8.9-20.2-7-31.2s7.9-20.6,17-27c7.1-5,15.4-7.7,24.1-7.7
				c13.6,0,26.3,6.6,34.1,17.6l48.1,68.1l1.7,2.4l2.4-1.7L206,734c7.1-5,15.4-7.6,24-7.6V723.7 M230,723.7c-8.9,0-17.9,2.7-25.7,8.2
				L-3.5,878.8l-48.1-68.1c-8.7-12.3-22.5-18.9-36.5-18.9c-8.9,0-17.9,2.7-25.8,8.2c-20.1,14.2-24.9,42.1-10.7,62.2l73.9,104.5
				c6.6,9.3,16,15.3,26.3,17.7c0.9,0.2,1.7,0.4,2.6,0.6c1.6,0.3,3.3,0.5,5,0.6c1,0.1,1.9,0.1,2.9,0.1c8.9,0,17.9-2.7,25.7-8.2
				l244-172.5c12.3-8.7,18.9-22.5,18.9-36.5c0-8.9-2.7-17.9-8.2-25.7C257.8,730.3,244,723.7,230,723.7L230,723.7z"/>
		</g>
	</g>
</g>
<g>

	<path class="st5" d="M766.3,831.1C766.1,831.3,766.1,831.3,766.3,831.1c-0.4,0.2-0.4,0.4-0.6,0.4c0,0,0-0.2-0.2-0.2
		c0.2,0,0.2,0,0.4-0.2C766.1,831.1,766.1,831.1,766.3,831.1z"/>
	<path class="st5" d="M766.7,830.9v2.1c-0.6-0.6-0.6-1-1-1.5l-0.2-0.2l0,0c0.2,0,0.2,0,0.4-0.2c0.2,0,0.2,0,0.4,0
		S766.7,831.1,766.7,830.9z"/>
	<path class="st5" d="M766.3,831.1C766.1,831.3,766.1,831.3,766.3,831.1c-0.4,0.2-0.4,0.4-0.6,0.4c0,0,0-0.2-0.2-0.2
		c0.2,0,0.2,0,0.4-0.2C766.1,831.1,766.1,831.1,766.3,831.1z"/>
	<path class="st5" d="M1264.9,713.1c-17.3,38.4-41.5,77.9-70.1,117.3c-7.1,9.8-14.6,19.6-22.3,29.2c-32.8,41.3-70.5,81.6-110,118.7
		h0.6c-0.8,0.8-1.5,1.5-2.3,2.1c-40.1,37.4-81.4,71-122.3,99.3c-18-32.3-37.8-63.7-58.8-94.3c0,0,0,0,0-0.2c0,0,0,0-0.2,0
		c-1-1.5-2.1-3.1-3.3-4.8c-0.6-0.8-1-1.5-1.5-2.1H874c-31.1-45.5-64.7-89.5-96.4-130.7c0,0,0,0,0.2-0.2c-2.5-3.1-4.8-6.1-7.3-9.2
		c-1.3-1.7-2.5-3.5-3.8-5v-2.1l-0.2,0.2c0,0-0.2,0-0.2,0.2l0,0c0,0-0.2,0-0.4,0c-0.2,0.2-0.2,0.2-0.4,0.2c-2.3-3.1-4.8-6.3-7.1-9.4
		c-2.5-3.3-4.8-6.5-7.3-9.6c-2.3-3.1-4.6-6.1-6.9-9.2c-9.4-12.5-18.4-24.8-27.3-36.9c-2.1-3.1-4.2-6-6.3-8.8
		c-3.3-4.4-6.3-9-9.4-13.4c-1.9-2.9-3.8-5.8-5.8-8.4c-2.1-3.1-4-6-6-9c-1.9-2.9-3.6-5.8-5.6-8.4c-2.7-4.2-5.4-8.4-8.1-12.7
		c-1.7-2.9-3.5-5.6-5-8.3c-0.4-0.6-0.6-1-1-1.5c-1.3-2.3-2.7-4.4-3.8-6.7c-4.6-8.1-8.8-15.9-12.7-23.8c-3.8-7.9-7.3-15.6-10.2-23
		c-22.8-57.8-19.4-107.9,30.5-149.2c60.9-50.7,136.1-47.8,196.6,8.6c8.3,7.7,16.1,16.1,23.8,25.7c0.4,1,0.8,1.7,1.2,2.5
		c-0.4-1-0.8-1.7-1-2.7c4.8,6.1,9.6,12.9,14,20c20.7,31.9,38.4,72,50.9,120.6c3.6,14.2,6.9,29.2,9.6,44.7l0,0
		c1.3,8.3,2.7,16.5,3.8,25.2c0-8.8,0.6-18.6,1.5-28.8c0,0,0-0.2,0-0.4c1.2-12.9,3.3-26.7,6-40.9c8.4-42.8,24-89.9,46.7-129
		c6.1-10.8,13.1-20.9,20.4-30.3l7.1-8.1l0.6-0.8l1.2-1.3c1.9-2.1,3.8-4.2,6-6.3c38-38.8,88.9-54.9,152.3-21.1
		c19.4,10.4,34.9,22.5,46.8,36.3c10.2,11.7,17.9,24.6,23,38.4c0.4,1,0.8,1.9,1,2.9c0.8,2.1,1.5,4.2,2.1,6.5c0.4,1.3,0.8,2.7,1.2,4
		c0.8,2.7,1.3,5.4,1.9,8.3C1299.5,609.8,1288.7,660.1,1264.9,713.1z"/>
	<path class="st5" d="M879.7,985.1C879.7,985.3,879.6,985.3,879.7,985.1c-0.2,0.2-0.2,0-0.4,0c-1-1.5-2.1-3.1-3.3-4.8
		c-0.6-0.8-1-1.5-1.5-2.1h0.2c0.6,0.8,1.2,1.5,1.5,2.1C877.4,982,878.4,983.6,879.7,985.1C879.6,985.1,879.7,985.1,879.7,985.1z"/>

	<path class="st6" d="M894.3,526.8c4.8,6.1,9.6,12.9,14,20c-1.7,2.1-3.3,4.4-4.8,6.9c-9,14.6-11.3,68.2-11.7,108.1l0,0
		c-1.5-0.2-3.1-0.2-4.6-0.4c-1.3-0.2-2.5-0.2-3.8-0.4c-6.7-0.8-13.2-1.5-19.6-2.5c-2.1-0.4-4.2-0.6-6.3-1c-4.2-0.6-8.3-1.3-12.1-2.1
		c-4-0.8-7.9-1.5-11.7-2.3l0,0c0-31.3,0-67.4,0.6-73.9c2.3-28,15.6-56.3,35.9-77.8C878.6,508.8,886.5,517.4,894.3,526.8
		c0.2,1.2,0.6,1.9,1,2.7C894.9,528.6,894.5,527.8,894.3,526.8z"/>
	<path class="st6" d="M1108.6,653.2L1108.6,653.2c-2.3,0.6-4.6,1-6.9,1.5c-2.3,0.4-4.4,1-6.7,1.3c-8.8,1.7-17.5,3.1-25.9,4.2
		c-6.3,0.8-12.5,1.5-18.4,2.1c-0.2-41.7-2.3-93.7-12.1-109.2c-3.5-5.4-7.3-10.4-11.5-14.6c6.1-10.8,13.1-20.9,20.4-30.3l7.1-8.1
		l0.6-0.8l1.2-1.3c1.9-2.1,3.8-4.2,6-6.3c26.5,22.5,44.4,54.5,46.7,89.5C1109.4,588.1,1109,622.4,1108.6,653.2z"/>
	<path class="st7" d="M892,661.6v1.7c21.5,2.3,44.2,3.5,67.4,3.8c3.6,14.2,6.9,29.2,9.6,44.7l0,0c1.3,8.3,2.7,16.5,3.8,25.2
		c0-8.8,0.6-18.6,1.5-28.8c0,0,0-0.2,0-0.4c1.2-12.9,3.3-26.7,6-40.9c24.4-0.2,48-1.5,70.3-3.8V662c1.2-0.2,2.3-0.2,3.5-0.4
		c1.2,0,2.1-0.2,3.3-0.4h0.2h0.2c0.2,0,0.2,0,0.4,0c1.5-0.2,3.1-0.4,4.8-0.6c2.1-0.2,4.2-0.6,6.1-0.8c2.1-0.2,4.2-0.6,6.3-1
		c2.1-0.4,4.2-0.6,6.3-1c2.1-0.4,4.2-0.8,6.5-1.2c2.3-0.4,4.4-0.8,6.5-1.2c2.3-0.4,4.4-1,6.7-1.3c2.3-0.6,4.6-1,6.9-1.5
		c0,0.4,0,1,0,1.3c11.1-2.3,20.7-4.6,30.5-7.7c2.5-0.8,5-1.2,7.5-1.2c5.6,0,10.9,1.7,15.4,4.8c6.5,4.6,10.6,12.1,10.6,20v188.7
		c-32.8,41.3-70.5,81.6-110,118.7h0.6c-0.8,0.8-1.5,1.5-2.3,2.1H875.9c-0.6-0.8-1-1.5-1.5-2.1h-0.6c-31.1-45.5-64.7-89.5-96.4-130.7
		c0,0,0,0,0.2-0.2c-2.5-3.1-4.8-6.1-7.3-9.2V669.9c0-7.9,3.8-15.4,10.6-20c4.4-3.3,9.8-4.8,15.4-4.8c2.5,0,5,0.4,7.5,1.2
		c9.4,2.7,19.4,5.2,30.1,7.5v-1"/>
	<path class="st8" d="M892,661.6c0.6-39.9,2.7-93.3,11.7-108.1c14.6-23.6,38.6-37.6,65.7-38.2c1,0,1.9,0,2.9,0
		c27.6,0.2,51.8,14,66.4,37.4c9.8,15.7,11.9,67.6,12.1,109.2c15.9-1.5,33-3.8,50.9-7.5c2.3-0.6,4.6-1,6.9-1.5
		c0.4-30.7,0.8-65.1,0.2-72.2c-4-62.8-58.2-116.2-123.3-121.3c-4-0.4-8.3-0.6-12.1-0.6c-35.5-0.4-66.8,10.8-93.1,33
		c-26.1,22.1-43.2,54.5-45.9,87c-0.6,6.5-0.6,42.6-0.6,73.9c15.4,3.3,31.9,6.1,49.7,8.1C886.5,661.2,889.2,661.4,892,661.6z"/>
	<path class="st8" d="M1172.5,670.6v284.7c0,13.8-11.5,25-25.9,25H796.4c-14.2,0-25.9-11.1-25.9-25V670.6c0-7.9,3.8-15.4,10.6-20
		c4.4-3.3,9.8-4.8,15.4-4.8c2.5,0,5,0.4,7.5,1.2c10,2.9,19.6,5.4,30,7.5l0,0c15.4,3.3,31.9,6.3,49.7,8.1c2.9,0.4,5.6,0.6,8.3,0.8
		l0,0c25.2,2.7,52,4,79.5,4s54.1-1.3,79.3-4l0,0c15.9-1.5,33-3.6,50.9-7.3c2.3-0.6,4.6-1,6.9-1.5c0,0.4,0-0.4,0,0
		c11.1-2.3,20.7-4.6,30.5-7.7c2.5-0.8,5-1.2,7.5-1.2c5.4,0,10.9,1.7,15.4,4.8C1168.7,655.5,1172.5,662.8,1172.5,670.6z"/>
	<rect class="st9" width="1920" height="1774"/>
</g>
</svg>
