<?xml version="1.0" encoding="utf-8"?>
<!-- Generator: Adobe Illustrator 27.0.0, SVG Export Plug-In . SVG Version: 6.00 Build 0)  -->
<svg version="1.1" id="Layer_1" xmlns="http://www.w3.org/2000/svg" xmlns:xlink="http://www.w3.org/1999/xlink" x="0px" y="0px"
	 viewBox="0 0 3840 3542" style="enable-background:new 0 0 3840 3542;" xml:space="preserve">
<style type="text/css">
	.st0{fill:none;stroke:#000000;stroke-width:9.3369;stroke-miterlimit:10;}
	.st1{enable-background:new    ;}
	.st2{fill:#FA0CF7;}
	.st3{fill:#E5BDBE;}
	.st4{fill:none;stroke:#000000;stroke-width:13.8991;stroke-miterlimit:10;}
	.st5{fill:none;}
</style>
<g>

	<g>
		<g>
			<path class="st2" d="M2561.3,1675.9c-3.1,1.5-5.8,2.7-8.8,3.8c-115.2,41.8-176.6,46.8-192,47.1l-0.8,0.4c-1.9,0.4-3.8,0-5.8,0.4
				l-1.2,0.4c-3.8,0-7.7,0.4-11.1,0.4c0,0-1.5-0.8-2.7-0.4c-2.7-0.4-5,0.4-7.7,0.4c-1.2,0.4-1.5-0.8-2.7-0.4
				c-2.7-0.4-5.4-0.8-8.1-0.8c-27.6-5.4-68.4-56.4-98.7-131.5c-4.6-11.5-8.8-23.8-13.1-36.4c-5.4-16.9-10.4-34.9-14.2-53.7
				c-6.5-30.7-4.2-63.6-3.5-97.8c0-5.4,0.4-10.7,0.4-15.7c0-1.2,0-2.3,0-3.4c0-0.4-9.6-0.4,0,0c0,0-0.4,1.1-0.8,3.4
				c-0.8,3.1-2.7,8.4-5,15.7c-16.9,51.8-73.3,200.5-201.6,335.4c-38,40.2-82.6,79-134.4,113.9c-76.4,51.4-145.5,92.8-205.8,126.1
				c-170.1,93.5-273,122.3-280.7,125c-39.2,13.4-184.7-299.8-192.8-363.8c-2.7-20.3,273.8,2.7,506.5-134.2c7.7-4.2,15-8.8,22.3-13
				c14.2-8.8,28-18,41.1-27.6c179.3-129.6,236.9-300.9,256.9-319.3c-33.4,13.8-68.7,26.8-104.1,38.3c-1.5,0.4-3.1,1.1-4.6,1.5
				c-5.4,1.9-10.4,3.4-15.7,5c-39.6,12.6-78.7,23.4-116.4,31.8c-71,16.5-135.9,26.1-181.6,24.5c-32.3-0.4-56.1-7.3-65.3-18.8
				c-1.5-0.8-2.3-3.1-3.5-5.4c-0.4-1.1-0.4-1.1-0.4-1.1l-3.5-9.2c-15.4-55.2-7.7-225.4,9.6-315.9c15.4-78.2,890.5-114.2,933.5-84.3
				c57.6,38.7,223.1,665.9,225.8,699.2C2672.3,1638,2624.3,1654.1,2561.3,1675.9z"/>
		</g>
		<path class="st3" d="M2190.3,1391.9c-0.8,3.1-2.7,8.4-5,15.7c-16.9,51.8-73.3,200.5-201.6,335.4l-16.5-11.9
			c-0.4-0.4-0.8-0.4-1.2,0l-291.8,207.4c-0.8,0.4-1.9-0.4-1.5-1.2l111.4-335.4c0-0.4,0-0.8-0.4-1.1l-44.2-31.4
			c179.3-129.6,236.9-300.9,256.9-319.3c-33.4,13.8-68.7,26.8-104.1,38.3c-1.5,0.4-3.1,1.2-4.6,1.5l78-234.6c0.4-0.8,1.5-0.8,1.9,0
			l111.4,335.4c0,0.4,0.4,0.8,0.8,0.8h110.6V1391.9z"/>
		<path class="st3" d="M2441.5,1393.4l-232.7,165.2c-5.4-16.9-10.4-34.9-14.2-53.7c-6.5-30.7-4.2-63.6-3.5-97.8
			c0-5.4,0.4-10.7,0.4-15.7h249.6C2441.9,1391.9,2442.2,1393,2441.5,1393.4z"/>
		<path class="st4" d="M1967.6,1055.3l111.4,335.4c0,0.4,0.4,0.8,0.8,0.8h361c1.2,0,1.5,1.1,0.8,1.9l-291.8,207.4
			c-0.4,0.4-0.4,0.8-0.4,1.1l111.4,335.4c0.4,0.8-0.8,1.5-1.5,1.1l-291.8-207.4c-0.4-0.4-0.8-0.4-1.2,0l-291.8,207.4
			c-0.8,0.4-1.9-0.4-1.5-1.1l111.4-335.4c0-0.4,0-0.8-0.4-1.1l-291.8-207.4c-0.8-0.4-0.4-1.9,0.8-1.9h361c0.4,0,0.8-0.4,0.8-0.8
			l111.4-335.4C1966.1,1054.6,1967.2,1054.6,1967.6,1055.3z"/>
	</g>
	<rect class="st5" width="3840" height="3542"/>
</g>
</svg>
