<?xml version="1.0" encoding="utf-8"?>
<!-- Generator: Adobe Illustrator 27.0.0, SVG Export Plug-In . SVG Version: 6.00 Build 0)  -->
<svg version="1.1" id="Layer_1" xmlns="http://www.w3.org/2000/svg" xmlns:xlink="http://www.w3.org/1999/xlink" x="0px" y="0px"
	 viewBox="0 0 750 693" style="enable-background:new 0 0 750 693;" xml:space="preserve">
<style type="text/css">
	.st0{display:none;fill:#FF4B00;}
	.st1{display:none;}
	.st2{display:inline;fill:#D2B6DE;}
	.st3{display:inline;}
	.st4{fill:none;stroke:#000000;stroke-width:1.8252;stroke-miterlimit:10;}
	.st5{fill:#FF4B00;}
	.st6{fill:#EAEAEA;}
	.st7{fill:#D2B6DE;}
	.st8{fill:none;stroke:#000000;stroke-width:2.25;stroke-miterlimit:10;}
	.st9{fill:none;}
</style>
<g>
	<path class="st0" d="M-374,295.3c-9,20-21.6,40.6-36.5,61.1c-19.6,26.8-43.5,53.1-68.9,77h0.3c-21.3,19.9-43.2,37.8-64.9,52.8
		c-9.4-16.8-19.7-33.2-30.6-49.1c0,0,0-0.1-0.1-0.1c-0.8-1.2-1.6-2.4-2.5-3.6h-0.3c-16.2-23.7-33.7-46.6-50.2-68.1
		c-2-2.5-3.9-5-5.8-7.5v-1.1l0,0c-0.1,0-0.2,0.1-0.3,0.2c-0.1,0-0.1,0.1-0.2,0.1c-20.2-26.8-38.9-51.6-51.9-74.4l0,0
		c-4.7-8.4-8.8-16.5-11.9-24.4c-11.9-30.1-10.1-56.2,15.9-77.7c36-30,81.6-24,114.8,17.9c0.2,0.5,0.4,0.9,0.6,1.3
		c-0.2-0.5-0.4-0.9-0.5-1.4c17.3,22.3,31.5,54.3,38.9,96.5c0.7,4.3,1.4,8.6,2,13.1c0-4.6,0.3-9.7,0.8-15
		c3.1-32.6,15.7-75.9,38.1-104.4l3.7-4.2l0.3-0.4l0.6-0.7c20.1-22.6,47.6-32.8,82.4-14.3c10.1,5.4,18.2,11.7,24.4,18.9
		C-352.2,214.9-355.2,253.6-374,295.3z"/>
	<path class="st0" d="M-633.5,356.7v1.1c-0.3-0.3-0.3-0.6-0.6-0.9c0.1,0,0.1,0,0.2-0.1C-633.6,356.9-633.5,356.8-633.5,356.7
		L-633.5,356.7z"/>
	<g class="st1">
		<path class="st2" d="M-574.5,436.9C-574.6,436.9-574.6,437-574.5,436.9c-0.9-1.1-1.7-2.3-2.6-3.5h-0.3
			c-16.2-23.7-33.7-46.6-50.2-68.1c-2-2.5-3.9-5-5.8-7.5v-1.1l0,0c-0.1,0-0.2,0.1-0.3,0.2c-0.1,0-0.1,0.1-0.2,0.1
			c-20.2-26.8-38.9-51.6-51.9-74.4l0,0c-4.7-8.4-8.8-16.5-11.9-24.4c7.3-4.6,15.5-6.8,23.6-6.8c14,0,27.8,6.6,36.5,18.9l48.1,68.1
			l25.7,36.4C-549.6,394.8-554.4,422.6-574.5,436.9z"/>
		<path class="st2" d="M-374,295.3l-200.4,141.6c-0.1,0.1-0.2,0.1-0.3,0.2c0,0,0-0.1-0.1-0.1c-0.8-1.2-1.6-2.4-2.5-3.6h-0.3
			c-16.2-23.7-33.7-46.6-50.2-68.1c0.6-0.5,1.1-0.9,1.7-1.3l36.4-25.7l61.4-43.4l2.8-2L-382,191.5c2-1.4,4-2.6,6.2-3.6
			C-352.2,214.9-355.2,253.6-374,295.3z"/>
	</g>
	<g class="st1">
		<g class="st3">
			<path d="M-356,183.2v2.9c13.6,0,26.3,6.6,34.1,17.6c5,7.1,7.7,15.4,7.7,24c0,13.6-6.6,26.3-17.7,34.1l-244,172.5
				c-7.1,5-15.4,7.6-24,7.6c-0.9,0-1.8,0-2.8-0.1c-1.6-0.1-3.2-0.3-4.6-0.5l-0.3-0.1c-0.7-0.1-1.4-0.3-2.1-0.5
				c-10-2.3-18.7-8.2-24.6-16.5l-73.8-104.4c-6.4-9.1-8.9-20.2-7-31.2s7.9-20.6,17-27c7.1-5,15.4-7.7,24.1-7.7
				c13.6,0,26.3,6.6,34.1,17.6l48.1,68.1l1.7,2.4l2.4-1.7L-380,193.5c7.1-5,15.4-7.6,24-7.6V183.2 M-356,183.2
				c-8.9,0-17.9,2.7-25.7,8.2l-207.8,146.9l-48.1-68.1c-8.7-12.3-22.5-18.9-36.5-18.9c-8.9,0-17.9,2.7-25.8,8.2
				c-20.1,14.2-24.9,42.1-10.7,62.2l73.9,104.5c6.6,9.3,16,15.3,26.3,17.7c0.9,0.2,1.7,0.4,2.6,0.6c1.6,0.3,3.3,0.5,5,0.6
				c1,0.1,1.9,0.1,2.9,0.1c8.9,0,17.9-2.7,25.7-8.2l244-172.5c12.3-8.7,18.9-22.5,18.9-36.5c0-8.9-2.7-17.9-8.2-25.7
				C-328.2,189.8-342,183.2-356,183.2L-356,183.2z"/>
		</g>
	</g>
</g>
<g>

	<path class="st5" d="M299.3,324.7C299.2,324.8,299.2,324.8,299.3,324.7c-0.2,0.1-0.2,0.2-0.2,0.2c0,0,0-0.1-0.1-0.1
		c0.1,0,0.1,0,0.1-0.1C299.2,324.7,299.2,324.7,299.3,324.7z"/>
	<path class="st5" d="M299.5,324.6v0.8c-0.2-0.2-0.2-0.4-0.4-0.6l-0.1-0.1l0,0c0.1,0,0.1,0,0.1-0.1c0.1,0,0.1,0,0.2,0
		S299.5,324.7,299.5,324.6z"/>
	<path class="st5" d="M299.3,324.7C299.2,324.8,299.2,324.8,299.3,324.7c-0.2,0.1-0.2,0.2-0.2,0.2c0,0,0-0.1-0.1-0.1
		c0.1,0,0.1,0,0.1-0.1C299.2,324.7,299.2,324.7,299.3,324.7z"/>
	<path class="st5" d="M494.1,278.5c-6.8,15-16.2,30.5-27.4,45.8c-2.8,3.8-5.7,7.7-8.7,11.4c-12.8,16.1-27.5,31.9-43,46.3h0.2
		c-0.3,0.3-0.6,0.6-0.9,0.8c-15.7,14.6-31.8,27.7-47.8,38.8c-7-12.6-14.8-24.9-22.9-36.8c0,0,0,0,0-0.1c0,0,0,0-0.1,0
		c-0.4-0.6-0.8-1.2-1.3-1.9c-0.2-0.3-0.4-0.6-0.6-0.8h-0.3c-12.2-17.8-25.3-35-37.7-51.1c0,0,0,0,0.1-0.1c-1-1.2-1.9-2.4-2.9-3.6
		c-0.5-0.7-1-1.4-1.5-2v-0.8l-0.1,0.1c0,0-0.1,0-0.1,0.1l0,0c0,0-0.1,0-0.1,0c-0.1,0.1-0.1,0.1-0.2,0.1c-0.9-1.2-1.9-2.5-2.8-3.7
		c-1-1.3-1.9-2.5-2.8-3.8c-0.9-1.2-1.8-2.4-2.7-3.6c-3.7-4.9-7.2-9.7-10.6-14.4c-0.8-1.2-1.7-2.3-2.5-3.5c-1.3-1.7-2.5-3.5-3.7-5.2
		c-0.8-1.1-1.5-2.2-2.2-3.3c-0.8-1.2-1.6-2.3-2.3-3.5c-0.8-1.1-1.4-2.2-2.2-3.3c-1-1.6-2.1-3.3-3.2-4.9c-0.7-1.1-1.3-2.2-1.9-3.2
		c-0.2-0.2-0.2-0.4-0.4-0.6c-0.5-0.9-1.1-1.7-1.5-2.6c-1.8-3.2-3.5-6.2-5-9.3c-1.5-3.1-2.8-6.1-4-9c-8.9-22.6-7.6-42.2,11.9-58.3
		c23.8-19.8,53.2-18.7,76.8,3.4c3.2,3,6.3,6.3,9.3,10c0.2,0.4,0.3,0.7,0.5,1c-0.1-0.4-0.3-0.7-0.4-1c1.9,2.4,3.8,5,5.5,7.8
		c8.1,12.4,15,28.1,19.9,47.1c1.4,5.6,2.7,11.4,3.8,17.5l0,0c0.5,3.2,1,6.5,1.5,9.8c0-3.5,0.2-7.3,0.6-11.3c0,0,0-0.1,0-0.1
		c0.5-5,1.3-10.4,2.3-16c3.3-16.7,9.4-35.1,18.2-50.4c2.4-4.2,5.1-8.2,7.9-11.8l2.8-3.2l0.2-0.3l0.4-0.5c0.8-0.8,1.5-1.6,2.3-2.5
		c14.8-15.2,34.7-21.5,59.5-8.3c7.6,4.1,13.7,8.8,18.3,14.2c4,4.6,7,9.6,9,15c0.1,0.4,0.3,0.8,0.4,1.1c0.3,0.8,0.6,1.7,0.8,2.5
		c0.2,0.5,0.3,1.1,0.5,1.6c0.3,1.1,0.5,2.1,0.8,3.2C507.6,238.2,503.4,257.8,494.1,278.5z"/>
	<path class="st5" d="M343.7,384.8C343.7,384.9,343.6,384.9,343.7,384.8c-0.1,0.1-0.1,0-0.2,0c-0.4-0.6-0.8-1.2-1.3-1.9
		c-0.2-0.3-0.4-0.6-0.6-0.8h0.1c0.2,0.3,0.5,0.6,0.6,0.8C342.8,383.6,343.1,384.2,343.7,384.8C343.6,384.8,343.7,384.8,343.7,384.8z
		"/>
	
	<path class="st6" d="M349.3,205.8c1.9,2.4,3.8,5,5.5,7.8c-0.7,0.8-1.3,1.7-1.9,2.7c-3.5,5.7-4.4,26.6-4.6,42.2l0,0
		c-0.6-0.1-1.2-0.1-1.8-0.2c-0.5-0.1-1-0.1-1.5-0.1c-2.6-0.3-5.2-0.6-7.6-1c-0.8-0.1-1.7-0.2-2.5-0.4c-1.6-0.2-3.2-0.5-4.7-0.8
		c-1.6-0.3-3.1-0.6-4.6-0.9l0,0c0-12.2,0-26.3,0.2-28.9c0.9-11,6.1-22,14-30.4C343.2,198.8,346.3,202.1,349.3,205.8
		c0.1,0.5,0.2,0.8,0.4,1.1C349.6,206.5,349.4,206.2,349.3,205.8z"/>
	<path class="st6" d="M433.1,255.2L433.1,255.2c-0.9,0.2-1.8,0.4-2.7,0.6c-0.9,0.2-1.7,0.4-2.6,0.5c-3.4,0.7-6.8,1.2-10.1,1.6
		c-2.5,0.3-4.9,0.6-7.2,0.8c-0.1-16.3-0.9-36.6-4.7-42.7c-1.3-2.1-2.8-4.1-4.5-5.7c2.4-4.2,5.1-8.2,8-11.8l2.8-3.2l0.2-0.3l0.4-0.5
		c0.8-0.8,1.5-1.7,2.3-2.5c10.3,8.8,17.3,21.3,18.2,34.9C433.3,229.7,433.2,243.2,433.1,255.2z"/>
	<path class="st7" d="M348.5,258.5v0.7c8.4,0.9,17.2,1.3,26.3,1.5c1.4,5.5,2.7,11.4,3.8,17.5l0,0c0.5,3.2,1,6.5,1.5,9.8
		c0-3.5,0.2-7.3,0.6-11.2c0,0,0-0.1,0-0.1c0.5-5,1.3-10.4,2.3-16c9.5-0.1,18.7-0.6,27.5-1.5v-0.5c0.4-0.1,0.9-0.1,1.3-0.1
		c0.4,0,0.8-0.1,1.3-0.1h0.1h0.1c0.1,0,0.1,0,0.1,0c0.6-0.1,1.2-0.2,1.9-0.2c0.8-0.1,1.6-0.2,2.4-0.3c0.8-0.1,1.7-0.2,2.5-0.4
		c0.8-0.2,1.6-0.2,2.5-0.4c0.8-0.2,1.6-0.3,2.5-0.5c0.9-0.1,1.7-0.3,2.6-0.5c0.9-0.1,1.7-0.4,2.6-0.5c0.9-0.2,1.8-0.4,2.7-0.6
		c0,0.2,0,0.4,0,0.5c4.4-0.9,8.1-1.8,11.9-3c1-0.3,1.9-0.5,2.9-0.5c2.2,0,4.3,0.7,6,1.9c2.6,1.8,4.1,4.7,4.1,7.8v73.7
		c-12.8,16.1-27.5,31.9-43,46.4h0.2c-0.3,0.3-0.6,0.6-0.9,0.8h-72.1c-0.2-0.3-0.4-0.6-0.6-0.8h-0.2c-12.1-17.8-25.3-35-37.6-51.1
		c0,0,0,0,0.1-0.1c-1-1.2-1.9-2.4-2.9-3.6v-65.4c0-3.1,1.5-6,4.1-7.8c1.7-1.3,3.8-1.9,6-1.9c1,0,2,0.2,2.9,0.5c3.7,1,7.6,2,11.8,2.9
		V255"/>
	<path class="st8" d="M348.5,258.5c0.2-15.6,1-36.5,4.6-42.2c5.7-9.2,15.1-14.7,25.6-14.9c0.4,0,0.8,0,1.1,0
		c10.8,0.1,20.2,5.5,25.9,14.6c3.8,6.2,4.7,26.4,4.7,42.7c6.2-0.6,12.9-1.5,19.9-2.9c0.9-0.2,1.8-0.4,2.7-0.6
		c0.1-12,0.3-25.4,0.1-28.2c-1.6-24.5-22.7-45.4-48.1-47.4c-1.6-0.1-3.2-0.2-4.7-0.2c-13.9-0.2-26.1,4.2-36.4,12.9
		c-10.2,8.6-16.9,21.3-17.9,34c-0.2,2.5-0.2,16.7-0.2,28.9c6,1.3,12.5,2.4,19.4,3.1C346.3,258.3,347.3,258.4,348.5,258.5z"/>
	<path class="st8" d="M458,262v111.2c0,5.4-4.5,9.8-10.1,9.8H311.1c-5.5,0-10.1-4.4-10.1-9.8V262c0-3.1,1.5-6,4.1-7.8
		c1.7-1.3,3.8-1.9,6-1.9c1,0,2,0.2,2.9,0.4c3.9,1.1,7.6,2.1,11.7,2.9l0,0c6,1.3,12.5,2.5,19.4,3.2c1.1,0.1,2.2,0.2,3.2,0.3l0,0
		c9.8,1,20.3,1.6,31.1,1.6c10.7,0,21.1-0.5,31-1.6l0,0c6.2-0.6,12.9-1.4,19.9-2.8c0.9-0.2,1.8-0.4,2.7-0.6c0,0.2,0-0.2,0,0
		c4.4-0.9,8.1-1.8,11.9-3c1-0.3,1.9-0.5,2.9-0.5c2.1,0,4.3,0.7,6,1.9C456.5,256,458,258.9,458,262z"/>
	<rect class="st9" width="750" height="693"/>
</g>
</svg>
