<?xml version="1.0" encoding="utf-8"?>
<!-- Generator: Adobe Illustrator 27.0.0, SVG Export Plug-In . SVG Version: 6.00 Build 0)  -->
<svg version="1.1" id="Layer_1" xmlns="http://www.w3.org/2000/svg" xmlns:xlink="http://www.w3.org/1999/xlink" x="0px" y="0px"
	 viewBox="0 0 2048 1892" style="enable-background:new 0 0 2048 1892;" xml:space="preserve">
<style type="text/css">
	.st0{display:none;fill:#FF4B00;}
	.st1{display:none;}
	.st2{display:inline;fill:#D2B6DE;}
	.st3{display:inline;}
	.st4{fill:none;stroke:#000000;stroke-width:4.9835;stroke-miterlimit:10;}
	.st5{fill:#FF4B00;}
	.st6{fill:#EAEAEA;}
	.st7{fill:#D2B6DE;}
	.st8{fill:none;stroke:#000000;stroke-width:6.1434;stroke-miterlimit:10;}
	.st9{fill:none;}
</style>
<g>
	<path class="st0" d="M276,894.8c-9,20-21.6,40.6-36.5,61.1c-19.6,26.8-43.5,53.1-68.9,77h0.3c-21.3,19.9-43.2,37.8-64.9,52.8
		c-9.4-16.8-19.7-33.2-30.6-49.1c0,0,0-0.1-0.1-0.1c-0.8-1.2-1.6-2.4-2.5-3.6h-0.3c-16.2-23.7-33.7-46.6-50.2-68.1
		c-2-2.5-3.9-5-5.8-7.5v-1.1l0,0c-0.1,0-0.2,0.1-0.3,0.2c-0.1,0-0.1,0.1-0.2,0.1c-20.2-26.8-38.9-51.6-51.9-74.4l0,0
		c-4.7-8.4-8.8-16.5-11.9-24.4c-11.9-30.1-10.1-56.2,15.9-77.7c36-30,81.6-24,114.8,17.9c0.2,0.5,0.4,0.9,0.6,1.3
		c-0.2-0.5-0.4-0.9-0.5-1.4c17.3,22.3,31.5,54.3,38.9,96.5c0.7,4.3,1.4,8.6,2,13.1c0-4.6,0.3-9.7,0.8-15
		c3.1-32.6,15.7-75.9,38.1-104.4l3.7-4.2l0.3-0.4l0.6-0.7c20.1-22.6,47.6-32.8,82.4-14.3c10.1,5.4,18.2,11.7,24.4,18.9
		C297.8,814.4,294.8,853.1,276,894.8z"/>
	<path class="st0" d="M16.5,956.2v1.1c-0.3-0.3-0.3-0.6-0.6-0.9c0.1,0,0.1,0,0.2-0.1C16.4,956.4,16.5,956.3,16.5,956.2L16.5,956.2z"
		/>
	<g class="st1">
		<path class="st2" d="M75.5,1036.4c-0.1,0-0.1,0.1-0.1,0.1c-0.8-1.2-1.6-2.4-2.5-3.6h-0.3c-16.2-23.7-33.7-46.6-50.2-68.1
			c-2-2.5-3.9-5-5.8-7.5v-1.1l0,0c-0.1,0-0.2,0.1-0.3,0.2c-0.1,0-0.1,0.1-0.2,0.1c-20.2-26.8-38.9-51.6-51.9-74.4l0,0
			c-4.7-8.4-8.8-16.5-11.9-24.4c7.3-4.6,15.5-6.8,23.6-6.8c14,0,27.8,6.6,36.5,18.9l48.1,68.1l25.7,36.4
			C100.4,994.3,95.6,1022.1,75.5,1036.4z"/>
		<path class="st2" d="M276,894.8L75.6,1036.4c-0.1,0.1-0.2,0.1-0.3,0.2c0,0,0-0.1-0.1-0.1c-0.8-1.2-1.6-2.4-2.5-3.6h-0.3
			c-16.2-23.7-33.7-46.6-50.2-68.1c0.6-0.5,1.1-0.9,1.7-1.3l36.4-25.7l61.4-43.4l2.8-2L268,791c2-1.4,4-2.6,6.2-3.6
			C297.8,814.4,294.8,853.1,276,894.8z"/>
	</g>
	<g class="st1">
		<g class="st3">
			<path d="M294,782.7v2.9c13.6,0,26.3,6.6,34.1,17.6c5,7.1,7.7,15.4,7.7,24c0,13.6-6.6,26.3-17.7,34.1l-244,172.5
				c-7.1,5-15.4,7.6-24,7.6c-0.9,0-1.8,0-2.8-0.1c-1.6-0.1-3.2-0.3-4.6-0.5l-0.3-0.1c-0.7-0.1-1.4-0.3-2.1-0.5
				c-10-2.3-18.7-8.2-24.6-16.5l-73.8-104.4c-6.4-9.1-8.9-20.2-7-31.2s7.9-20.6,17-27c7.1-5,15.4-7.7,24.1-7.7
				c13.6,0,26.3,6.6,34.1,17.6l48.1,68.1l1.7,2.4l2.4-1.7L270,793c7.1-5,15.4-7.6,24-7.6V782.7 M294,782.7c-8.9,0-17.9,2.7-25.7,8.2
				L60.5,937.8l-48.1-68.1c-8.7-12.3-22.5-18.9-36.5-18.9c-8.9,0-17.9,2.7-25.8,8.2c-20.1,14.2-24.9,42.1-10.7,62.2l73.9,104.5
				c6.6,9.3,16,15.3,26.3,17.7c0.9,0.2,1.7,0.4,2.6,0.6c1.6,0.3,3.3,0.5,5,0.6c1,0.1,1.9,0.1,2.9,0.1c8.9,0,17.9-2.7,25.7-8.2
				l244-172.5c12.3-8.7,18.9-22.5,18.9-36.5c0-8.9-2.7-17.9-8.2-25.7C321.8,789.3,308,782.7,294,782.7L294,782.7z"/>
		</g>
	</g>
</g>
<g>
	
	<path class="st5" d="M817.4,886.4C817.2,886.6,817.2,886.6,817.4,886.4c-0.4,0.2-0.4,0.4-0.6,0.4c0,0,0-0.2-0.2-0.2
		c0.2,0,0.2,0,0.4-0.2C817.2,886.4,817.2,886.4,817.4,886.4z"/>
	<path class="st5" d="M817.8,886.2v2.3c-0.6-0.6-0.6-1-1-1.6l-0.2-0.2l0,0c0.2,0,0.2,0,0.4-0.2c0.2,0,0.2,0,0.4,0
		S817.8,886.4,817.8,886.2z"/>
	<path class="st5" d="M817.4,886.4C817.2,886.6,817.2,886.6,817.4,886.4c-0.4,0.2-0.4,0.4-0.6,0.4c0,0,0-0.2-0.2-0.2
		c0.2,0,0.2,0,0.4-0.2C817.2,886.4,817.2,886.4,817.4,886.4z"/>
	<path class="st5" d="M1349.2,760.5c-18.4,41-44.2,83.1-74.8,125.1c-7.6,10.4-15.6,20.9-23.8,31.1c-35,44-75.2,87-117.4,126.5h0.6
		c-0.8,0.8-1.6,1.6-2.5,2.3c-42.8,39.9-86.8,75.8-130.5,105.9c-19.3-34.4-40.3-68-62.7-100.5c0,0,0,0,0-0.2c0,0,0,0-0.2,0
		c-1-1.6-2.3-3.3-3.5-5.1c-0.6-0.8-1-1.6-1.6-2.3h-0.8c-33.2-48.5-69-95.4-102.8-139.4c0,0,0,0,0.2-0.2c-2.7-3.3-5.1-6.6-7.8-9.8
		c-1.4-1.8-2.7-3.7-4.1-5.3v-2.3l-0.2,0.2c0,0-0.2,0-0.2,0.2l0,0c0,0-0.2,0-0.4,0c-0.2,0.2-0.2,0.2-0.4,0.2c-2.5-3.3-5.1-6.8-7.6-10
		c-2.7-3.5-5.1-7-7.8-10.2c-2.5-3.3-4.9-6.6-7.4-9.8c-10-13.3-19.7-26.4-29.1-39.3c-2.3-3.3-4.5-6.3-6.8-9.4
		c-3.5-4.7-6.8-9.6-10-14.3c-2-3.1-4.1-6.1-6.1-9c-2.3-3.3-4.3-6.3-6.3-9.6c-2-3.1-3.9-6.1-5.9-9c-2.9-4.5-5.7-9-8.6-13.5
		c-1.8-3.1-3.7-5.9-5.3-8.8c-0.4-0.6-0.6-1-1-1.6c-1.4-2.5-2.9-4.7-4.1-7.2c-4.9-8.6-9.4-17-13.5-25.4s-7.8-16.6-10.9-24.6
		c-24.4-61.6-20.7-115.1,32.6-159.1c64.9-54.1,145.2-51,209.7,9.2c8.8,8.2,17.2,17.2,25.4,27.4c0.4,1,0.8,1.8,1.2,2.7
		c-0.4-1-0.8-1.8-1-2.9c5.1,6.6,10.2,13.7,15,21.3c22.1,34,41,76.8,54.3,128.6c3.9,15.2,7.4,31.1,10.2,47.7l0,0
		c1.4,8.8,2.9,17.6,4.1,26.8c0-9.4,0.6-19.9,1.6-30.7c0,0,0-0.2,0-0.4c1.2-13.7,3.5-28.5,6.3-43.6c9-45.7,25.6-95.8,49.8-137.6
		c6.6-11.5,13.9-22.3,21.7-32.4l7.6-8.6l0.6-0.8l1.2-1.4c2-2.3,4.1-4.5,6.3-6.8c40.6-41.4,94.8-58.6,162.4-22.5
		c20.7,11.1,37.3,24,50,38.7c10.9,12.5,19,26.2,24.6,41c0.4,1,0.8,2,1,3.1c0.8,2.3,1.6,4.5,2.3,7c0.4,1.4,0.8,2.9,1.2,4.3
		c0.8,2.9,1.4,5.7,2,8.8C1386.1,650.3,1374.6,704,1349.2,760.5z"/>
	<path class="st5" d="M938.4,1050.6C938.4,1050.8,938.2,1050.8,938.4,1050.6c-0.2,0.2-0.2,0-0.4,0c-1-1.6-2.3-3.3-3.5-5.1
		c-0.6-0.8-1-1.6-1.6-2.3h0.2c0.6,0.8,1.2,1.6,1.6,2.3C935.9,1047.4,937,1049,938.4,1050.6C938.2,1050.6,938.4,1050.6,938.4,1050.6z
		"/>

	<path class="st6" d="M954,561.9c5.1,6.6,10.2,13.7,15,21.3c-1.8,2.3-3.5,4.7-5.1,7.4c-9.6,15.6-12.1,72.7-12.5,115.3l0,0
		c-1.6-0.2-3.3-0.2-4.9-0.4c-1.4-0.2-2.7-0.2-4.1-0.4c-7.2-0.8-14.1-1.6-20.9-2.7c-2.3-0.4-4.5-0.6-6.8-1c-4.5-0.6-8.8-1.4-12.9-2.3
		c-4.3-0.8-8.4-1.6-12.5-2.5l0,0c0-33.4,0-71.9,0.6-78.8c2.5-29.9,16.6-60,38.3-82.9C937.2,542.6,945.6,551.8,954,561.9
		c0.2,1.2,0.6,2,1,2.9C954.6,563.7,954.2,562.9,954,561.9z"/>
	<path class="st6" d="M1182.5,696.6L1182.5,696.6c-2.5,0.6-4.9,1-7.4,1.6c-2.5,0.4-4.7,1-7.2,1.4c-9.4,1.8-18.6,3.3-27.6,4.5
		c-6.8,0.8-13.3,1.6-19.7,2.3c-0.2-44.4-2.5-99.9-12.9-116.5c-3.7-5.7-7.8-11.1-12.3-15.6c6.6-11.5,13.9-22.3,21.7-32.4l7.6-8.6
		l0.6-0.8l1.2-1.4c2-2.3,4.1-4.5,6.3-6.8c28.3,24,47.3,58.2,49.8,95.4C1183.3,627.2,1182.9,663.8,1182.5,696.6z"/>
	<path class="st7" d="M951.5,705.6v1.8c22.9,2.5,47.1,3.7,71.9,4.1c3.9,15.2,7.4,31.1,10.2,47.7l0,0c1.4,8.8,2.9,17.6,4.1,26.8
		c0-9.4,0.6-19.9,1.6-30.7c0,0,0-0.2,0-0.4c1.2-13.7,3.5-28.5,6.3-43.6c26-0.2,51.2-1.6,75-4.1V706c1.2-0.2,2.5-0.2,3.7-0.4
		c1.2,0,2.3-0.2,3.5-0.4h0.2h0.2c0.2,0,0.2,0,0.4,0c1.6-0.2,3.3-0.4,5.1-0.6c2.3-0.2,4.5-0.6,6.6-0.8c2.3-0.2,4.5-0.6,6.8-1
		c2.3-0.4,4.5-0.6,6.8-1c2.3-0.4,4.5-0.8,7-1.2s4.7-0.8,7-1.2c2.5-0.4,4.7-1,7.2-1.4c2.5-0.6,4.9-1,7.4-1.6c0,0.4,0,1,0,1.4
		c11.9-2.5,22.1-4.9,32.6-8.2c2.7-0.8,5.3-1.2,8-1.2c5.9,0,11.7,1.8,16.4,5.1c7,4.9,11.3,12.9,11.3,21.3v201.3
		c-35,44-75.2,87-117.4,126.5h0.6c-0.8,0.8-1.6,1.6-2.5,2.3h-197c-0.6-0.8-1-1.6-1.6-2.3H932C898.9,993.9,863,947,829.2,903
		c0,0,0,0,0.2-0.2c-2.7-3.3-5.1-6.6-7.8-9.8V714.4c0-8.4,4.1-16.4,11.3-21.3c4.7-3.5,10.4-5.1,16.4-5.1c2.7,0,5.3,0.4,8,1.2
		c10,2.9,20.7,5.5,32.2,8v-1"/>
	<path class="st8" d="M951.5,705.6c0.6-42.6,2.9-99.5,12.5-115.3c15.6-25.2,41.2-40.1,70-40.7c1,0,2,0,3.1,0
		c29.5,0.2,55.3,14.9,70.9,39.9c10.4,16.8,12.7,72.1,12.9,116.5c17-1.6,35.2-4.1,54.3-8c2.5-0.6,4.9-1,7.4-1.6
		c0.4-32.8,0.8-69.4,0.2-77c-4.3-67-62.1-123.9-131.5-129.4c-4.3-0.4-8.8-0.6-12.9-0.6c-37.9-0.4-71.3,11.5-99.3,35.2
		c-27.9,23.5-46.1,58.2-48.9,92.8c-0.6,7-0.6,45.5-0.6,78.8c16.4,3.5,34,6.6,53,8.6C945.6,705.2,948.4,705.4,951.5,705.6z"/>
	<path class="st8" d="M1250.7,715.2v303.7c0,14.7-12.3,26.6-27.6,26.6H849.5c-15.2,0-27.6-11.9-27.6-26.6V715.2
		c0-8.4,4.1-16.4,11.3-21.3c4.7-3.5,10.4-5.1,16.4-5.1c2.7,0,5.3,0.4,8,1.2c10.6,3.1,20.9,5.7,31.9,8l0,0c16.4,3.5,34,6.8,53,8.6
		c3.1,0.4,5.9,0.6,8.8,0.8l0,0c26.8,2.9,55.5,4.3,84.8,4.3s57.8-1.4,84.6-4.3l0,0c17-1.6,35.2-3.9,54.3-7.8c2.5-0.6,4.9-1,7.4-1.6
		c0,0.4,0-0.4,0,0c11.9-2.5,22.1-4.9,32.6-8.2c2.7-0.8,5.3-1.2,8-1.2c5.7,0,11.7,1.8,16.4,5.1
		C1246.6,699.1,1250.7,706.8,1250.7,715.2z"/>
	<rect class="st9" width="2048" height="1892"/>
</g>
</svg>
