<?xml version="1.0" encoding="utf-8"?>
<!-- Generator: Adobe Illustrator 27.0.0, SVG Export Plug-In . SVG Version: 6.00 Build 0)  -->
<svg version="1.1" id="Layer_1" xmlns="http://www.w3.org/2000/svg" xmlns:xlink="http://www.w3.org/1999/xlink" x="0px" y="0px"
	 viewBox="0 0 750 693" style="enable-background:new 0 0 750 693;" xml:space="preserve">
<style type="text/css">
	.st0{fill:none;stroke:#000000;stroke-width:1.8252;stroke-miterlimit:10;}
	.st1{fill:#00F6FF;}
	.st2{fill:#98E891;}
	.st3{fill:none;stroke:#000000;stroke-width:2.1525;stroke-miterlimit:10;}
	.st4{fill:none;}
</style>
<g>
	<path class="st1" d="M464.8,362c-15.4,6.1-32.5,10.6-49.9,13.3c-3.9,0.6-7.9,1.3-11.8,1.7c-0.2,0.1-0.4,0.1-0.6,0.1
		c-0.8,0.1-1.6,0.2-2.5,0.2c-1.3,0.1-2.5,0.2-3.8,0.4c-2.2,0.1-4.4,0.3-6.5,0.5c-4.7,0.2-9.2,0.4-13.8,0.4c-2.2,0-4.4,0-6.5-0.1
		c-1.7-0.1-3.4-0.1-5.2-0.2c-0.8,0-1.4-0.1-2.1-0.1c-2-0.1-4-0.2-6.1-0.4c-1.4-0.1-2.7-0.2-4.1-0.4c-2.5-0.2-5.1-0.5-7.6-0.9
		c-1.2-0.1-2.3-0.4-3.5-0.5c0,0-0.1,0-0.1-0.1c-0.2-0.1-0.5-0.2-0.7-0.2c-1.8-0.2-3.6-0.6-5.4-0.9c-1.1-0.2-2.3-0.5-3.4-0.7
		l-0.2,0.1c-19.3-3.9-37.3-10.6-51.8-20.5l-5,2.8l-0.2-0.2l-62.1,34.9l32-67c-9.8-11.1-16.3-24.4-15.7-39.6
		c1.1-28.8,19.7-48.7,44.3-61.9c3.1-1.7,6.4-3.2,9.7-4.7c3.8-1.7,7.7-3.3,11.7-4.8c10.7-3.9,21.8-7,32.5-9.1
		c5.6-1.1,10.9-2,16.3-2.8v-0.1c11.1-1.5,21.5-2.4,30.5-2.6c8.2-0.2,17.8-0.2,28.3,0.2c6.3,0.2,13.3,0.7,20.2,1.3
		c8.7,0.9,17.6,1.9,26.3,3.7c3.4,0.7,6.8,1.4,10.1,2.2c6,1.5,11.9,3.2,17.7,5.3c30,10.8,54.6,30.3,58.4,65
		C538.9,315.2,508,345.1,464.8,362z"/>

	<g>
		<g>
			<g>
				<path class="st2" d="M471.2,278.9c4.4,4.5,4.4,11.7-0.1,16.1c-2.2,2.2-5,3.3-8,3.3c-3.1,0-5.9-1.2-8.1-3.4
					c-20.1-20.2-46-31.4-72.8-31.4c-26.9,0-52.8,11.2-72.8,31.4c-2.2,2.2-5,3.4-8.1,3.4c-3,0-5.9-1.2-8-3.3c-2.2-2.2-3.4-5-3.4-8.1
					s1.1-5.9,3.3-8.1c24.4-24.6,56-38.2,89.1-38.2C415.2,240.8,446.9,254.3,471.2,278.9z"/>
				<path class="st2" d="M400.1,377.2c-1.3,0.2-2.5,0.2-3.8,0.4c-2.2,0.2-4.3,0.3-6.5,0.5c-4.7,0.2-9.2,0.4-13.8,0.4
					c-2.2,0-4.3,0-6.5-0.1c-1.7-0.1-3.5-0.1-5.2-0.1c0-0.3,0-0.6,0-0.8c0-9.9,8-17.9,17.9-17.9C392,359.5,400.1,367.4,400.1,377.2z"
					/>
				<path class="st2" d="M507.1,254.1c-2.1,1.9-4.9,3.1-7.8,3.1c-3.2,0-6.2-1.3-8.3-3.7c-28.6-30.6-67.2-47.5-108.8-47.5
					s-80.3,16.9-108.9,47.5c-2.2,2.3-5.2,3.7-8.3,3.7c-2.9,0-5.7-1.1-7.8-3.1c-4.6-4.3-4.9-11.6-0.6-16.1
					c5.1-5.5,10.5-10.7,16.2-15.4c3.1-1.7,6.4-3.2,9.7-4.7c3.8-1.7,7.7-3.3,11.7-4.8c10.6-3.9,21.8-7,32.5-9.1
					c5.6-1.1,11-2,16.3-2.8v-0.1c11.1-1.5,21.5-2.4,30.5-2.6c8.2-0.2,17.8-0.2,28.3,0.2c6.3,0.2,13.3,0.7,20.2,1.3
					c8.7,0.9,17.6,1.9,26.3,3.7c3.4,0.7,6.8,1.4,10.1,2.2c6,1.5,11.9,3.2,17.7,5.3c11.4,7.5,22,16.5,31.6,26.8
					C512,242.5,511.8,249.8,507.1,254.1z"/>
				<path class="st2" d="M431.9,320.1c2.2,2.2,3.4,5,3.4,8.1c0,3.1-1.1,5.9-3.3,8.1c-2.2,2.2-5,3.4-8.1,3.4c-3,0-5.9-1.2-8-3.3
					c-9-8.9-22.1-14.6-33.4-14.6h-0.8c-11.3,0-24.4,5.7-33.3,14.5c-2.2,2.1-5,3.3-8,3.3c-3.1,0-5.9-1.2-8.1-3.4
					c-4.4-4.5-4.4-11.8,0.1-16.2c13.2-13,32.1-21.2,49.4-21.2h0.8C399.8,298.9,418.7,307,431.9,320.1z"/>
			</g>
		</g>
	</g>
	<g>
		<g>
			<g>
				<path class="st3" d="M471.2,278.9c4.4,4.5,4.4,11.7-0.1,16.1c-2.2,2.2-5,3.3-8,3.3c-3.1,0-5.9-1.2-8.1-3.4
					c-20.1-20.2-46-31.4-72.8-31.4c-26.9,0-52.8,11.2-72.8,31.4c-2.2,2.2-5,3.4-8.1,3.4c-3,0-5.9-1.2-8-3.3c-2.2-2.2-3.4-5-3.4-8.1
					s1.1-5.9,3.3-8.1c24.4-24.6,56-38.2,89.1-38.2C415.2,240.8,446.9,254.3,471.2,278.9z"/>
				<path class="st3" d="M400.1,377.4c0,9.8-8,17.8-17.8,17.8c-9.9,0-17.9-8-17.9-17.8c0-9.9,8-17.9,17.9-17.9
					C392,359.5,400.1,367.5,400.1,377.4z"/>
				<path class="st3" d="M507.1,254.1c-2.1,1.9-4.9,3.1-7.8,3.1c-3.2,0-6.2-1.3-8.3-3.7c-28.6-30.6-67.2-47.5-108.8-47.5
					s-80.3,16.9-108.9,47.5c-2.2,2.3-5.2,3.7-8.3,3.7c-2.9,0-5.7-1.1-7.8-3.1c-4.6-4.3-4.9-11.6-0.6-16.1
					c32.9-35.3,77.5-54.8,125.5-54.8c48.1,0,92.6,19.5,125.6,54.8C512,242.5,511.8,249.8,507.1,254.1z"/>
				<path class="st3" d="M431.9,320.1c2.2,2.2,3.4,5,3.4,8.1c0,3.1-1.1,5.9-3.3,8.1c-2.2,2.2-5,3.4-8.1,3.4c-3,0-5.9-1.2-8-3.3
					c-9-8.9-22.1-14.6-33.4-14.6h-0.8c-11.3,0-24.4,5.7-33.3,14.5c-2.2,2.1-5,3.3-8,3.3c-3.1,0-5.9-1.2-8.1-3.4
					c-4.4-4.5-4.4-11.8,0.1-16.2c13.2-13,32.1-21.2,49.4-21.2h0.8C399.8,298.9,418.7,307,431.9,320.1z"/>
			</g>
		</g>
	</g>
	<rect class="st4" width="750" height="693"/>
</g>
</svg>
