<?xml version="1.0" encoding="utf-8"?>
<!-- Generator: Adobe Illustrator 27.0.0, SVG Export Plug-In . SVG Version: 6.00 Build 0)  -->
<svg version="1.1" id="Layer_1" xmlns="http://www.w3.org/2000/svg" xmlns:xlink="http://www.w3.org/1999/xlink" x="0px" y="0px"
	 viewBox="0 0 2048 1889" style="enable-background:new 0 0 2048 1889;" xml:space="preserve">
<style type="text/css">
	.st0{fill:none;stroke:#000000;stroke-width:4.9796;stroke-miterlimit:10;}
	.st1{enable-background:new    ;}
	.st2{fill:#FA0CF7;}
	.st3{fill:#E5BDBE;}
	.st4{fill:none;stroke:#000000;stroke-width:7.4127;stroke-miterlimit:10;}
	.st5{fill:none;}
</style>
<g>

	<g>
		<g>
			<path class="st2" d="M1366,893.8c-1.6,0.8-3.1,1.4-4.7,2c-61.4,22.3-94.2,24.9-102.4,25.1l-0.4,0.2c-1,0.2-2,0-3.1,0.2l-0.6,0.2
				c-2,0-4.1,0.2-5.9,0.2c0,0-0.8-0.4-1.4-0.2c-1.4-0.2-2.7,0.2-4.1,0.2c-0.6,0.2-0.8-0.4-1.4-0.2c-1.4-0.2-2.9-0.4-4.3-0.4
				c-14.7-2.9-36.5-30.1-52.6-70.1c-2.5-6.1-4.7-12.7-7-19.4c-2.9-9-5.5-18.6-7.6-28.6c-3.5-16.4-2.3-33.9-1.8-52.1
				c0-2.9,0.2-5.7,0.2-8.4c0-0.6,0-1.2,0-1.8c0-0.2-5.1-0.2,0,0c0,0-0.2,0.6-0.4,1.8c-0.4,1.6-1.4,4.5-2.7,8.4
				c-9,27.6-39.1,106.9-107.5,178.9c-20.3,21.5-44,42.1-71.7,60.7c-40.8,27.4-77.6,49.5-109.8,67.3
				c-90.7,49.9-145.6,65.2-149.7,66.6c-20.9,7.2-98.5-159.9-102.8-194c-1.4-10.8,146,1.4,270.1-71.6c4.1-2.2,8-4.7,11.9-7
				c7.6-4.7,15-9.6,21.9-14.7c95.6-69.1,126.4-160.5,137-170.3c-17.8,7.4-36.7,14.3-55.5,20.4c-0.8,0.2-1.6,0.6-2.5,0.8
				c-2.9,1-5.5,1.8-8.4,2.7c-21.1,6.7-42,12.5-62.1,17c-37.9,8.8-72.5,13.9-96.9,13.1c-17.2-0.2-29.9-3.9-34.8-10
				c-0.8-0.4-1.2-1.6-1.8-2.9c-0.2-0.6-0.2-0.6-0.2-0.6l-1.8-4.9c-8.2-29.4-4.1-120.2,5.1-168.5c8.2-41.7,474.9-60.9,497.9-45
				c30.7,20.6,119,355.1,120.4,372.9C1425.2,873.6,1399.6,882.1,1366,893.8z"/>
		</g>
		<path class="st3" d="M1168.2,742.3c-0.4,1.6-1.4,4.5-2.7,8.4c-9,27.6-39.1,106.9-107.5,178.9l-8.8-6.3c-0.2-0.2-0.4-0.2-0.6,0
			l-155.6,110.6c-0.4,0.2-1-0.2-0.8-0.6l59.4-178.9c0-0.2,0-0.4-0.2-0.6L927.7,837c95.6-69.1,126.4-160.5,137-170.3
			c-17.8,7.4-36.7,14.3-55.5,20.4c-0.8,0.2-1.6,0.6-2.5,0.8l41.6-125.1c0.2-0.4,0.8-0.4,1,0l59.4,178.9c0,0.2,0.2,0.4,0.4,0.4h59
			V742.3z"/>
		<path class="st3" d="M1302.1,743.1L1178,831.2c-2.9-9-5.5-18.6-7.6-28.6c-3.5-16.4-2.3-33.9-1.8-52.1c0-2.9,0.2-5.7,0.2-8.4h133.1
			C1302.3,742.3,1302.5,742.9,1302.1,743.1z"/>
		<path class="st4" d="M1049.4,562.8l59.4,178.9c0,0.2,0.2,0.4,0.4,0.4h192.5c0.6,0,0.8,0.6,0.4,1l-155.6,110.6
			c-0.2,0.2-0.2,0.4-0.2,0.6l59.4,178.9c0.2,0.4-0.4,0.8-0.8,0.6l-155.6-110.6c-0.2-0.2-0.4-0.2-0.6,0l-155.6,110.6
			c-0.4,0.2-1-0.2-0.8-0.6l59.4-178.9c0-0.2,0-0.4-0.2-0.6L795.6,743.1c-0.4-0.2-0.2-1,0.4-1h192.5c0.2,0,0.4-0.2,0.4-0.4
			l59.4-178.9C1048.6,562.4,1049.2,562.4,1049.4,562.8z"/>
	</g>
	<rect class="st5" width="2048" height="1889"/>
</g>
</svg>
