<?xml version="1.0" encoding="utf-8"?>
<!-- Generator: Adobe Illustrator 27.0.0, SVG Export Plug-In . SVG Version: 6.00 Build 0)  -->
<svg version="1.1" id="Layer_1" xmlns="http://www.w3.org/2000/svg" xmlns:xlink="http://www.w3.org/1999/xlink" x="0px" y="0px"
	 viewBox="0 0 1920 1771" style="enable-background:new 0 0 1920 1771;" xml:space="preserve">
<style type="text/css">
	.st0{fill:none;stroke:#000000;stroke-width:4.6685;stroke-miterlimit:10;}
	.st1{enable-background:new    ;}
	.st2{fill:#FA0CF7;}
	.st3{fill:#E5BDBE;}
	.st4{fill:none;stroke:#000000;stroke-width:6.9495;stroke-miterlimit:10;}
	.st5{fill:none;}
</style>
<g>
	
	<g>
		<g>
			<path class="st2" d="M1280.6,838c-1.5,0.8-2.9,1.3-4.4,1.9c-57.6,20.9-88.3,23.4-96,23.6l-0.4,0.2c-1,0.2-1.9,0-2.9,0.2l-0.6,0.2
				c-1.9,0-3.8,0.2-5.6,0.2c0,0-0.8-0.4-1.3-0.2c-1.3-0.2-2.5,0.2-3.8,0.2c-0.6,0.2-0.8-0.4-1.3-0.2c-1.3-0.2-2.7-0.4-4-0.4
				c-13.8-2.7-34.2-28.2-49.3-65.7c-2.3-5.8-4.4-11.9-6.5-18.2c-2.7-8.4-5.2-17.4-7.1-26.8c-3.3-15.3-2.1-31.8-1.7-48.9
				c0-2.7,0.2-5.4,0.2-7.9c0-0.6,0-1.2,0-1.7c0-0.2-4.8-0.2,0,0c0,0-0.2,0.6-0.4,1.7c-0.4,1.5-1.3,4.2-2.5,7.9
				c-8.4,25.9-36.7,100.2-100.8,167.7c-19,20.1-41.3,39.5-67.2,56.9c-38.2,25.7-72.8,46.4-102.9,63.1
				c-85.1,46.8-136.5,61.1-140.4,62.5c-19.6,6.7-92.4-149.9-96.4-181.9c-1.3-10.2,136.9,1.3,253.2-67.1c3.8-2.1,7.5-4.4,11.1-6.5
				c7.1-4.4,14-9,20.5-13.8c89.7-64.8,118.5-150.5,128.4-159.7c-16.7,6.9-34.4,13.4-52,19.2c-0.8,0.2-1.5,0.6-2.3,0.8
				c-2.7,1-5.2,1.7-7.9,2.5c-19.8,6.3-39.4,11.7-58.2,15.9c-35.5,8.2-68,13-90.8,12.3c-16.1-0.2-28-3.6-32.6-9.4
				c-0.8-0.4-1.2-1.5-1.7-2.7c-0.2-0.6-0.2-0.6-0.2-0.6l-1.7-4.6c-7.7-27.6-3.8-112.7,4.8-157.9c7.7-39.1,445.2-57.1,466.8-42.2
				c28.8,19.4,111.6,332.9,112.9,349.6C1336.1,819,1312.1,827,1280.6,838z"/>
		</g>
		<path class="st3" d="M1095.2,695.9c-0.4,1.5-1.3,4.2-2.5,7.9c-8.4,25.9-36.7,100.2-100.8,167.7l-8.3-5.9c-0.2-0.2-0.4-0.2-0.6,0
			L837.1,969.3c-0.4,0.2-1-0.2-0.8-0.6L892,801c0-0.2,0-0.4-0.2-0.6l-22.1-15.7c89.7-64.8,118.5-150.5,128.4-159.7
			c-16.7,6.9-34.4,13.4-52,19.2c-0.8,0.2-1.5,0.6-2.3,0.8l39-117.3c0.2-0.4,0.8-0.4,1,0l55.7,167.7c0,0.2,0.2,0.4,0.4,0.4h55.3
			V695.9z"/>
		<path class="st3" d="M1220.7,696.7l-116.4,82.6c-2.7-8.4-5.2-17.4-7.1-26.8c-3.3-15.3-2.1-31.8-1.7-48.9c0-2.7,0.2-5.4,0.2-7.9
			h124.8C1220.9,695.9,1221.1,696.5,1220.7,696.7z"/>
		<path class="st4" d="M983.8,527.7l55.7,167.7c0,0.2,0.2,0.4,0.4,0.4h180.5c0.6,0,0.8,0.6,0.4,1l-145.9,103.7
			c-0.2,0.2-0.2,0.4-0.2,0.6l55.7,167.7c0.2,0.4-0.4,0.8-0.8,0.6L983.6,865.6c-0.2-0.2-0.4-0.2-0.6,0L837.1,969.3
			c-0.4,0.2-1-0.2-0.8-0.6L892,801c0-0.2,0-0.4-0.2-0.6L745.9,696.7c-0.4-0.2-0.2-1,0.4-1h180.5c0.2,0,0.4-0.2,0.4-0.4l55.7-167.7
			C983,527.3,983.6,527.3,983.8,527.7z"/>
	</g>
	<rect class="st5" width="1920" height="1771"/>
</g>
</svg>
