<?xml version="1.0" encoding="utf-8"?>
<!-- Generator: Adobe Illustrator 27.0.0, SVG Export Plug-In . SVG Version: 6.00 Build 0)  -->
<svg version="1.1" id="Layer_1" xmlns="http://www.w3.org/2000/svg" xmlns:xlink="http://www.w3.org/1999/xlink" x="0px" y="0px"
	 viewBox="0 0 828 765" style="enable-background:new 0 0 828 765;" xml:space="preserve">
<style type="text/css">
	.st0{display:none;fill:#FF4B00;}
	.st1{display:none;}
	.st2{display:inline;fill:#D2B6DE;}
	.st3{display:inline;}
	.st4{fill:none;stroke:#000000;stroke-width:2.0149;stroke-miterlimit:10;}
	.st5{fill:#FF4B00;}
	.st6{fill:#EAEAEA;}
	.st7{fill:#D2B6DE;}
	.st8{fill:none;stroke:#000000;stroke-width:2.4839;stroke-miterlimit:10;}
	.st9{fill:none;}
</style>
<g>
	<path class="st0" d="M-335,331.3c-9,20-21.6,40.6-36.5,61.1c-19.6,26.8-43.5,53.1-68.9,77h0.3c-21.3,19.9-43.2,37.8-64.9,52.8
		c-9.4-16.8-19.7-33.2-30.6-49.1c0,0,0-0.1-0.1-0.1c-0.8-1.2-1.6-2.4-2.5-3.6h-0.3c-16.2-23.7-33.7-46.6-50.2-68.1
		c-2-2.5-3.9-5-5.8-7.5v-1.1l0,0c-0.1,0-0.2,0.1-0.3,0.2c-0.1,0-0.1,0.1-0.2,0.1c-20.2-26.8-38.9-51.6-51.9-74.4l0,0
		c-4.7-8.4-8.8-16.5-11.9-24.4c-11.9-30.1-10.1-56.2,15.9-77.7c36-30,81.6-24,114.8,17.9c0.2,0.5,0.4,0.9,0.6,1.3
		c-0.2-0.5-0.4-0.9-0.5-1.4c17.3,22.3,31.5,54.3,38.9,96.5c0.7,4.3,1.4,8.6,2,13.1c0-4.6,0.3-9.7,0.8-15
		c3.1-32.6,15.7-75.9,38.1-104.4l3.7-4.2l0.3-0.4l0.6-0.7c20.1-22.6,47.6-32.8,82.4-14.3c10.1,5.4,18.2,11.7,24.4,18.9
		C-313.2,250.9-316.2,289.6-335,331.3z"/>
	<path class="st0" d="M-594.5,392.7v1.1c-0.3-0.3-0.3-0.6-0.6-0.9c0.1,0,0.1,0,0.2-0.1C-594.6,392.9-594.5,392.8-594.5,392.7
		L-594.5,392.7z"/>
	<g class="st1">
		<path class="st2" d="M-535.5,472.9C-535.6,472.9-535.6,473-535.5,472.9c-0.9-1.1-1.7-2.3-2.6-3.5h-0.3
			c-16.2-23.7-33.7-46.6-50.2-68.1c-2-2.5-3.9-5-5.8-7.5v-1.1l0,0c-0.1,0-0.2,0.1-0.3,0.2c-0.1,0-0.1,0.1-0.2,0.1
			c-20.2-26.8-38.9-51.6-51.9-74.4l0,0c-4.7-8.4-8.8-16.5-11.9-24.4c7.3-4.6,15.5-6.8,23.6-6.8c14,0,27.8,6.6,36.5,18.9l48.1,68.1
			l25.7,36.4C-510.6,430.8-515.4,458.6-535.5,472.9z"/>
		<path class="st2" d="M-335,331.3l-200.4,141.6c-0.1,0.1-0.2,0.1-0.3,0.2c0,0,0-0.1-0.1-0.1c-0.8-1.2-1.6-2.4-2.5-3.6h-0.3
			c-16.2-23.7-33.7-46.6-50.2-68.1c0.6-0.5,1.1-0.9,1.7-1.3l36.4-25.7l61.4-43.4l2.8-2L-343,227.5c2-1.4,4-2.6,6.2-3.6
			C-313.2,250.9-316.2,289.6-335,331.3z"/>
	</g>
	<g class="st1">
		<g class="st3">
			<path d="M-317,219.2v2.9c13.6,0,26.3,6.6,34.1,17.6c5,7.1,7.7,15.4,7.7,24c0,13.6-6.6,26.3-17.7,34.1l-244,172.5
				c-7.1,5-15.4,7.6-24,7.6c-0.9,0-1.8,0-2.8-0.1c-1.6-0.1-3.2-0.3-4.6-0.5l-0.3-0.1c-0.7-0.1-1.4-0.3-2.1-0.5
				c-10-2.3-18.7-8.2-24.6-16.5l-73.8-104.4c-6.4-9.1-8.9-20.2-7-31.2s7.9-20.6,17-27c7.1-5,15.4-7.7,24.1-7.7
				c13.6,0,26.3,6.6,34.1,17.6l48.1,68.1l1.7,2.4l2.4-1.7L-341,229.5c7.1-5,15.4-7.6,24-7.6V219.2 M-317,219.2
				c-8.9,0-17.9,2.7-25.7,8.2l-207.8,146.9l-48.1-68.1c-8.7-12.3-22.5-18.9-36.5-18.9c-8.9,0-17.9,2.7-25.8,8.2
				c-20.1,14.2-24.9,42.1-10.7,62.2l73.9,104.5c6.6,9.3,16,15.3,26.3,17.7c0.9,0.2,1.7,0.4,2.6,0.6c1.6,0.3,3.3,0.5,5,0.6
				c1,0.1,1.9,0.1,2.9,0.1c8.9,0,17.9-2.7,25.7-8.2l244-172.5c12.3-8.7,18.9-22.5,18.9-36.5c0-8.9-2.7-17.9-8.2-25.7
				C-289.2,225.8-303,219.2-317,219.2L-317,219.2z"/>
		</g>
	</g>
</g>
<g>
	
	<path class="st5" d="M330.5,358.4C330.4,358.5,330.4,358.5,330.5,358.4c-0.2,0.1-0.2,0.2-0.2,0.2c0,0,0-0.1-0.1-0.1
		c0.1,0,0.1,0,0.2-0.1C330.4,358.4,330.4,358.4,330.5,358.4z"/>
	<path class="st5" d="M330.6,358.3v0.9c-0.2-0.2-0.2-0.4-0.4-0.7l-0.1-0.1l0,0c0.1,0,0.1,0,0.2-0.1c0.1,0,0.1,0,0.2,0
		S330.6,358.4,330.6,358.3z"/>
	<path class="st5" d="M330.5,358.4C330.4,358.5,330.4,358.5,330.5,358.4c-0.2,0.1-0.2,0.2-0.2,0.2c0,0,0-0.1-0.1-0.1
		c0.1,0,0.1,0,0.2-0.1C330.4,358.4,330.4,358.4,330.5,358.4z"/>
	<path class="st5" d="M545.5,307.5c-7.5,16.6-17.9,33.6-30.2,50.6c-3.1,4.2-6.3,8.4-9.6,12.6c-14.2,17.8-30.4,35.2-47.4,51.2h0.2
		c-0.3,0.3-0.7,0.7-1,0.9c-17.3,16.1-35.1,30.6-52.7,42.8c-7.8-13.9-16.3-27.5-25.3-40.7c0,0,0,0,0-0.1c0,0,0,0-0.1,0
		c-0.4-0.7-0.9-1.3-1.4-2.1c-0.2-0.3-0.4-0.7-0.7-0.9h-0.3c-13.4-19.6-27.9-38.6-41.6-56.4c0,0,0,0,0.1-0.1c-1.1-1.3-2.1-2.6-3.1-4
		c-0.6-0.7-1.1-1.5-1.7-2.2v-0.9l-0.1,0.1c0,0-0.1,0-0.1,0.1l0,0c0,0-0.1,0-0.2,0c-0.1,0.1-0.1,0.1-0.2,0.1c-1-1.3-2.1-2.7-3.1-4.1
		c-1.1-1.4-2.1-2.8-3.1-4.1c-1-1.3-2-2.6-3-4c-4.1-5.4-7.9-10.7-11.8-15.9c-0.9-1.3-1.8-2.6-2.7-3.8c-1.4-1.9-2.7-3.9-4.1-5.8
		c-0.8-1.2-1.7-2.5-2.5-3.6c-0.9-1.3-1.7-2.6-2.6-3.9c-0.8-1.2-1.6-2.5-2.4-3.6c-1.2-1.8-2.3-3.6-3.5-5.5c-0.7-1.2-1.5-2.4-2.2-3.6
		c-0.2-0.2-0.2-0.4-0.4-0.7c-0.6-1-1.2-1.9-1.7-2.9c-2-3.5-3.8-6.9-5.5-10.3c-1.7-3.4-3.1-6.7-4.4-9.9c-9.9-24.9-8.4-46.5,13.2-64.3
		c26.2-21.9,58.7-20.6,84.8,3.7c3.6,3.3,7,7,10.3,11.1c0.2,0.4,0.3,0.7,0.5,1.1c-0.2-0.4-0.3-0.7-0.4-1.2c2.1,2.6,4.1,5.5,6,8.6
		c8.9,13.7,16.6,31,21.9,52c1.6,6.1,3,12.6,4.1,19.3l0,0c0.6,3.6,1.2,7.1,1.7,10.8c0-3.8,0.2-8,0.7-12.4c0,0,0-0.1,0-0.2
		c0.5-5.5,1.4-11.5,2.6-17.6c3.6-18.5,10.3-38.7,20.1-55.6c2.6-4.6,5.6-9,8.8-13.1l3.1-3.5l0.2-0.3l0.5-0.6c0.8-0.9,1.7-1.8,2.6-2.7
		c16.4-16.7,38.3-23.7,65.7-9.1c8.4,4.5,15.1,9.7,20.2,15.6c4.4,5.1,7.7,10.6,9.9,16.6c0.2,0.4,0.3,0.8,0.4,1.2
		c0.3,0.9,0.7,1.8,0.9,2.8c0.2,0.6,0.3,1.2,0.5,1.7c0.3,1.2,0.6,2.3,0.8,3.6C560.4,262.9,555.8,284.6,545.5,307.5z"/>
	<path class="st5" d="M379.4,424.8C379.4,424.9,379.3,424.9,379.4,424.8c-0.1,0.1-0.1,0-0.2,0c-0.4-0.7-0.9-1.3-1.4-2.1
		c-0.2-0.3-0.4-0.7-0.7-0.9h0.1c0.2,0.3,0.5,0.7,0.7,0.9C378.4,423.5,378.8,424.1,379.4,424.8C379.3,424.8,379.4,424.8,379.4,424.8z
		"/>

	<path class="st6" d="M385.7,227.2c2.1,2.6,4.1,5.5,6,8.6c-0.7,0.9-1.4,1.9-2.1,3c-3.9,6.3-4.9,29.4-5.1,46.6l0,0
		c-0.7-0.1-1.3-0.1-2-0.2c-0.6-0.1-1.1-0.1-1.7-0.2c-2.9-0.3-5.7-0.7-8.4-1.1c-0.9-0.2-1.8-0.2-2.7-0.4c-1.8-0.2-3.6-0.6-5.2-0.9
		c-1.7-0.3-3.4-0.7-5.1-1l0,0c0-13.5,0-29.1,0.2-31.9c1-12.1,6.7-24.3,15.5-33.5C378.9,219.4,382.3,223.1,385.7,227.2
		c0.1,0.5,0.2,0.8,0.4,1.2C385.9,227.9,385.8,227.6,385.7,227.2z"/>
	<path class="st6" d="M478.1,281.7L478.1,281.7c-1,0.2-2,0.4-3,0.7c-1,0.2-1.9,0.4-2.9,0.6c-3.8,0.7-7.5,1.3-11.2,1.8
		c-2.7,0.3-5.4,0.7-7.9,0.9c-0.1-18-1-40.4-5.2-47.1c-1.5-2.3-3.1-4.5-5-6.3c2.6-4.6,5.6-9,8.8-13.1l3.1-3.5l0.2-0.3l0.5-0.6
		c0.8-0.9,1.7-1.8,2.6-2.7c11.4,9.7,19.1,23.5,20.1,38.6C478.4,253.6,478.3,268.4,478.1,281.7z"/>
	<path class="st7" d="M384.7,285.3v0.7c9.3,1,19,1.5,29.1,1.7c1.6,6.1,3,12.6,4.1,19.3l0,0c0.6,3.6,1.2,7.1,1.7,10.8
		c0-3.8,0.2-8,0.7-12.4c0,0,0-0.1,0-0.2c0.5-5.5,1.4-11.5,2.6-17.6c10.5-0.1,20.7-0.7,30.3-1.7v-0.5c0.5-0.1,1-0.1,1.5-0.2
		c0.5,0,0.9-0.1,1.4-0.2h0.1h0.1c0.1,0,0.1,0,0.2,0c0.7-0.1,1.3-0.2,2.1-0.2c0.9-0.1,1.8-0.2,2.6-0.3c0.9-0.1,1.8-0.2,2.7-0.4
		c0.9-0.2,1.8-0.2,2.7-0.4c0.9-0.2,1.8-0.3,2.8-0.5c1-0.2,1.9-0.3,2.8-0.5c1-0.2,1.9-0.4,2.9-0.6c1-0.2,2-0.4,3-0.7
		c0,0.2,0,0.4,0,0.6c4.8-1,8.9-2,13.2-3.3c1.1-0.3,2.2-0.5,3.2-0.5c2.4,0,4.7,0.7,6.6,2.1c2.8,2,4.6,5.2,4.6,8.6v81.4
		c-14.2,17.8-30.4,35.2-47.4,51.2h0.2c-0.3,0.3-0.7,0.7-1,0.9h-79.7c-0.2-0.3-0.4-0.7-0.7-0.9h-0.2c-13.4-19.6-27.9-38.6-41.6-56.4
		c0,0,0,0,0.1-0.1c-1.1-1.3-2.1-2.6-3.1-4v-72.2c0-3.4,1.7-6.6,4.6-8.6c1.9-1.4,4.2-2.1,6.6-2.1c1.1,0,2.2,0.2,3.2,0.5
		c4.1,1.2,8.4,2.2,13,3.2v-0.4"/>
	<path class="st8" d="M384.7,285.3c0.2-17.2,1.2-40.2,5.1-46.6c6.3-10.2,16.6-16.2,28.3-16.5c0.4,0,0.8,0,1.2,0
		c11.9,0.1,22.4,6,28.6,16.1c4.2,6.8,5.1,29.1,5.2,47.1c6.9-0.7,14.2-1.7,21.9-3.2c1-0.2,2-0.4,3-0.7c0.2-13.2,0.3-28.1,0.1-31.1
		c-1.7-27.1-25.1-50.1-53.2-52.3c-1.7-0.2-3.6-0.2-5.2-0.2c-15.3-0.2-28.8,4.6-40.2,14.2c-11.3,9.5-18.6,23.5-19.8,37.5
		c-0.2,2.8-0.2,18.4-0.2,31.9c6.6,1.4,13.7,2.6,21.4,3.5C382.3,285.1,383.4,285.2,384.7,285.3z"/>
	<path class="st8" d="M505.7,289.2V412c0,6-5,10.8-11.2,10.8h-151c-6.1,0-11.2-4.8-11.2-10.8V289.2c0-3.4,1.7-6.6,4.6-8.6
		c1.9-1.4,4.2-2.1,6.6-2.1c1.1,0,2.2,0.2,3.2,0.5c4.3,1.2,8.4,2.3,12.9,3.2l0,0c6.6,1.4,13.7,2.7,21.4,3.5c1.2,0.2,2.4,0.2,3.6,0.3
		l0,0c10.8,1.2,22.4,1.7,34.3,1.7s23.3-0.6,34.2-1.7l0,0c6.9-0.7,14.2-1.6,21.9-3.1c1-0.2,2-0.4,3-0.7c0,0.2,0-0.2,0,0
		c4.8-1,8.9-2,13.2-3.3c1.1-0.3,2.2-0.5,3.2-0.5c2.3,0,4.7,0.7,6.6,2.1C504,282.7,505.7,285.8,505.7,289.2z"/>
	<rect class="st9" width="828" height="765"/>
</g>
</svg>
