<?xml version="1.0" encoding="utf-8"?>
<!-- Generator: Adobe Illustrator 27.0.0, SVG Export Plug-In . SVG Version: 6.00 Build 0)  -->
<svg version="1.1" id="Layer_1" xmlns="http://www.w3.org/2000/svg" xmlns:xlink="http://www.w3.org/1999/xlink" x="0px" y="0px"
	 viewBox="0 0 1000 924" style="enable-background:new 0 0 1000 924;" xml:space="preserve">
<style type="text/css">
	.st0{fill:none;stroke:#000000;stroke-width:2.4336;stroke-miterlimit:10;}
	.st1{fill:#FF4B00;}
	.st2{display:none;fill:#FF4B00;}
	.st3{display:none;}
	.st4{display:inline;fill:#D2B6DE;}
	.st5{display:inline;}
	.st6{fill:#EAEAEA;}
	.st7{fill:#D2B6DE;}
	.st8{fill:none;stroke:#000000;stroke-width:3;stroke-miterlimit:10;}
</style>

<path class="st1" d="M399.1,432.9C399,433,399,433,399.1,432.9c-0.2,0.1-0.2,0.2-0.3,0.2c0,0,0-0.1-0.1-0.1c0.1,0,0.1,0,0.2-0.1
	C399,432.9,399,432.9,399.1,432.9z"/>
<path class="st1" d="M399.3,432.8v1.1c-0.3-0.3-0.3-0.5-0.5-0.8c0,0-0.1-0.1-0.1-0.1c0,0,0,0,0,0c0.1,0,0.1,0,0.2-0.1
	c0.1,0,0.1,0,0.2,0C399.2,432.9,399.3,432.9,399.3,432.8z"/>
<path class="st1" d="M399.1,432.9C399,433,399,433,399.1,432.9c-0.2,0.1-0.2,0.2-0.3,0.2c0,0,0-0.1-0.1-0.1c0.1,0,0.1,0,0.2-0.1
	C399,432.9,399,432.9,399.1,432.9z"/>
<path class="st1" d="M658.8,371.4c-9,20-21.6,40.6-36.5,61.1c-3.7,5.1-7.6,10.2-11.6,15.2c-17.1,21.5-36.7,42.5-57.3,61.8h0.3
	c-0.4,0.4-0.8,0.8-1.2,1.1c-20.9,19.5-42.4,37-63.7,51.7c-9.4-16.8-19.7-33.2-30.6-49.1c0,0,0,0,0-0.1c0,0,0,0-0.1,0
	c-0.5-0.8-1.1-1.6-1.7-2.5c-0.3-0.4-0.5-0.8-0.8-1.1h-0.4c-16.2-23.7-33.7-46.6-50.2-68.1c0,0,0,0,0.1-0.1c-1.3-1.6-2.5-3.2-3.8-4.8
	c-0.7-0.9-1.3-1.8-2-2.6v-1.1l-0.1,0.1c0,0-0.1,0-0.1,0.1c0,0,0,0,0,0c0,0-0.1,0-0.2,0c-0.1,0.1-0.1,0.1-0.2,0.1
	c-1.2-1.6-2.5-3.3-3.7-4.9c-1.3-1.7-2.5-3.4-3.8-5c-1.2-1.6-2.4-3.2-3.6-4.8c-4.9-6.5-9.6-12.9-14.2-19.2c-1.1-1.6-2.2-3.1-3.3-4.6
	c-1.7-2.3-3.3-4.7-4.9-7c-1-1.5-2-3-3-4.4c-1.1-1.6-2.1-3.1-3.1-4.7c-1-1.5-1.9-3-2.9-4.4c-1.4-2.2-2.8-4.4-4.2-6.6
	c-0.9-1.5-1.8-2.9-2.6-4.3c-0.2-0.3-0.3-0.5-0.5-0.8c-0.7-1.2-1.4-2.3-2-3.5c-2.4-4.2-4.6-8.3-6.6-12.4c-2-4.1-3.8-8.1-5.3-12
	c-11.9-30.1-10.1-56.2,15.9-77.7c31.7-26.4,70.9-24.9,102.4,4.5c4.3,4,8.4,8.4,12.4,13.4c0.2,0.5,0.4,0.9,0.6,1.3
	c-0.2-0.5-0.4-0.9-0.5-1.4c2.5,3.2,5,6.7,7.3,10.4c10.8,16.6,20,37.5,26.5,62.8c1.9,7.4,3.6,15.2,5,23.3c0,0,0,0,0,0
	c0.7,4.3,1.4,8.6,2,13.1c0-4.6,0.3-9.7,0.8-15c0,0,0-0.1,0-0.2c0.6-6.7,1.7-13.9,3.1-21.3c4.4-22.3,12.5-46.8,24.3-67.2
	c3.2-5.6,6.8-10.9,10.6-15.8l3.7-4.2l0.3-0.4l0.6-0.7c1-1.1,2-2.2,3.1-3.3c19.8-20.2,46.3-28.6,79.3-11
	c10.1,5.4,18.2,11.7,24.4,18.9c5.3,6.1,9.3,12.8,12,20c0.2,0.5,0.4,1,0.5,1.5c0.4,1.1,0.8,2.2,1.1,3.4c0.2,0.7,0.4,1.4,0.6,2.1
	c0.4,1.4,0.7,2.8,1,4.3C676.8,317.6,671.2,343.8,658.8,371.4z"/>
<path class="st1" d="M458.2,513.1C458.2,513.2,458.1,513.2,458.2,513.1c-0.1,0.1-0.1,0-0.2,0c-0.5-0.8-1.1-1.6-1.7-2.5
	c-0.3-0.4-0.5-0.8-0.8-1.1h0.1c0.3,0.4,0.6,0.8,0.8,1.1C457,511.5,457.5,512.3,458.2,513.1C458.1,513.1,458.2,513.1,458.2,513.1z"/>
<g>
	<path class="st2" d="M-249,410.8c-9,20-21.6,40.6-36.5,61.1c-19.6,26.8-43.5,53.1-68.9,77h0.3c-21.3,19.9-43.2,37.8-64.9,52.8
		c-9.4-16.8-19.7-33.2-30.6-49.1c0,0,0-0.1-0.1-0.1c-0.8-1.2-1.6-2.4-2.5-3.6h-0.3c-16.2-23.7-33.7-46.6-50.2-68.1
		c-2-2.5-3.9-5-5.8-7.5v-1.1l0,0c-0.1,0-0.2,0.1-0.3,0.2c-0.1,0-0.1,0.1-0.2,0.1c-20.2-26.8-38.9-51.6-51.9-74.4l0,0
		c-4.7-8.4-8.8-16.5-11.9-24.4c-11.9-30.1-10.1-56.2,15.9-77.7c36-30,81.6-24,114.8,17.9c0.2,0.5,0.4,0.9,0.6,1.3
		c-0.2-0.5-0.4-0.9-0.5-1.4c17.3,22.3,31.5,54.3,38.9,96.5c0.7,4.3,1.4,8.6,2,13.1c0-4.6,0.3-9.7,0.8-15
		c3.1-32.6,15.7-75.9,38.1-104.4l3.7-4.2l0.3-0.4l0.6-0.7c20.1-22.6,47.6-32.8,82.4-14.3c10.1,5.4,18.2,11.7,24.4,18.9
		C-227.2,330.4-230.2,369.1-249,410.8z"/>
	<path class="st2" d="M-508.5,472.2v1.1c-0.3-0.3-0.3-0.6-0.6-0.9c0.1,0,0.1,0,0.2-0.1C-508.6,472.4-508.5,472.3-508.5,472.2
		L-508.5,472.2z"/>
	<g class="st3">
		<path class="st4" d="M-449.5,552.4c-0.1,0-0.1,0.1-0.1,0.1c-0.8-1.2-1.6-2.4-2.5-3.6h-0.3c-16.2-23.7-33.7-46.6-50.2-68.1
			c-2-2.5-3.9-5-5.8-7.5v-1.1l0,0c-0.1,0-0.2,0.1-0.3,0.2c-0.1,0-0.1,0.1-0.2,0.1c-20.2-26.8-38.9-51.6-51.9-74.4l0,0
			c-4.7-8.4-8.8-16.5-11.9-24.4c7.3-4.6,15.5-6.8,23.6-6.8c14,0,27.8,6.6,36.5,18.9l48.1,68.1l25.7,36.4
			C-424.6,510.3-429.4,538.1-449.5,552.4z"/>
		<path class="st4" d="M-249,410.8l-200.4,141.6c-0.1,0.1-0.2,0.1-0.3,0.2c0,0,0-0.1-0.1-0.1c-0.8-1.2-1.6-2.4-2.5-3.6h-0.3
			c-16.2-23.7-33.7-46.6-50.2-68.1c0.6-0.5,1.1-0.9,1.7-1.3l36.4-25.7l61.4-43.4l2.8-2L-257,307c2-1.4,4-2.6,6.2-3.6
			C-227.2,330.4-230.2,369.1-249,410.8z"/>
	</g>
	<g class="st3">
		<g>
			<path class="st5" d="M-231,298.7v2.9c13.6,0,26.3,6.6,34.1,17.6c5,7.1,7.7,15.4,7.7,24c0,13.6-6.6,26.3-17.7,34.1l-244,172.5
				c-7.1,5-15.4,7.6-24,7.6c-0.9,0-1.8,0-2.8-0.1c-1.6-0.1-3.2-0.3-4.6-0.5l-0.3-0.1c-0.7-0.1-1.4-0.3-2.1-0.5
				c-10-2.3-18.7-8.2-24.6-16.5l-73.8-104.4c-6.4-9.1-8.9-20.2-7-31.2s7.9-20.6,17-27c7.1-5,15.4-7.7,24.1-7.7
				c13.6,0,26.3,6.6,34.1,17.6l48.1,68.1l1.7,2.4l2.4-1.7L-255,309c7.1-5,15.4-7.6,24-7.6V298.7 M-231,298.7
				c-8.9,0-17.9,2.7-25.7,8.2l-207.8,146.9l-48.1-68.1c-8.7-12.3-22.5-18.9-36.5-18.9c-8.9,0-17.9,2.7-25.8,8.2
				c-20.1,14.2-24.9,42.1-10.7,62.2l73.9,104.5c6.6,9.3,16,15.3,26.3,17.7c0.9,0.2,1.7,0.4,2.6,0.6c1.6,0.3,3.3,0.5,5,0.6
				c1,0.1,1.9,0.1,2.9,0.1c8.9,0,17.9-2.7,25.7-8.2l244-172.5c12.3-8.7,18.9-22.5,18.9-36.5c0-8.9-2.7-17.9-8.2-25.7
				C-203.2,305.3-217,298.7-231,298.7L-231,298.7z"/>
		</g>
	</g>
</g>

<path class="st6" d="M465.8,274.4c2.5,3.2,5,6.7,7.3,10.4c-0.9,1.1-1.7,2.3-2.5,3.6c-4.7,7.6-5.9,35.5-6.1,56.3h0
	c-0.8-0.1-1.6-0.1-2.4-0.2c-0.7-0.1-1.3-0.1-2-0.2c-3.5-0.4-6.9-0.8-10.2-1.3c-1.1-0.2-2.2-0.3-3.3-0.5c-2.2-0.3-4.3-0.7-6.3-1.1
	c-2.1-0.4-4.1-0.8-6.1-1.2h0c0-16.3,0-35.1,0.3-38.5c1.2-14.6,8.1-29.3,18.7-40.5C457.6,265,461.7,269.5,465.8,274.4
	c0.1,0.6,0.3,1,0.5,1.4C466.1,275.3,465.9,274.9,465.8,274.4z"/>
<path class="st6" d="M577.4,340.2L577.4,340.2c-1.2,0.3-2.4,0.5-3.6,0.8c-1.2,0.2-2.3,0.5-3.5,0.7c-4.6,0.9-9.1,1.6-13.5,2.2
	c-3.3,0.4-6.5,0.8-9.6,1.1c-0.1-21.7-1.2-48.8-6.3-56.9c-1.8-2.8-3.8-5.4-6-7.6c3.2-5.6,6.8-10.9,10.6-15.8l3.7-4.2l0.3-0.4l0.6-0.7
	c1-1.1,2-2.2,3.1-3.3c13.8,11.7,23.1,28.4,24.3,46.6C577.8,306.3,577.6,324.2,577.4,340.2z"/>
<path class="st7" d="M464.6,344.6v0.9c11.2,1.2,23,1.8,35.1,2c1.9,7.4,3.6,15.2,5,23.3c0,0,0,0,0,0c0.7,4.3,1.4,8.6,2,13.1
	c0-4.6,0.3-9.7,0.8-15c0,0,0-0.1,0-0.2c0.6-6.7,1.7-13.9,3.1-21.3c12.7-0.1,25-0.8,36.6-2v-0.6c0.6-0.1,1.2-0.1,1.8-0.2
	c0.6,0,1.1-0.1,1.7-0.2c0,0,0.1,0,0.1,0c0,0,0.1,0,0.1,0c0.1,0,0.1,0,0.2,0c0.8-0.1,1.6-0.2,2.5-0.3c1.1-0.1,2.2-0.3,3.2-0.4
	c1.1-0.1,2.2-0.3,3.3-0.5c1.1-0.2,2.2-0.3,3.3-0.5c1.1-0.2,2.2-0.4,3.4-0.6s2.3-0.4,3.4-0.6c1.2-0.2,2.3-0.5,3.5-0.7
	c1.2-0.3,2.4-0.5,3.6-0.8c0,0.2,0,0.5,0,0.7c5.8-1.2,10.8-2.4,15.9-4c1.3-0.4,2.6-0.6,3.9-0.6c2.9,0,5.7,0.9,8,2.5
	c3.4,2.4,5.5,6.3,5.5,10.4v98.3c-17.1,21.5-36.7,42.5-57.3,61.8h0.3c-0.4,0.4-0.8,0.8-1.2,1.1h-96.2c-0.3-0.4-0.5-0.8-0.8-1.1h-0.3
	c-16.2-23.7-33.7-46.6-50.2-68.1c0,0,0,0,0.1-0.1c-1.3-1.6-2.5-3.2-3.8-4.8v-87.2c0-4.1,2-8,5.5-10.4c2.3-1.7,5.1-2.5,8-2.5
	c1.3,0,2.6,0.2,3.9,0.6c4.9,1.4,10.1,2.7,15.7,3.9V340"/>
<path class="st8" d="M464.6,344.6c0.3-20.8,1.4-48.6,6.1-56.3c7.6-12.3,20.1-19.6,34.2-19.9c0.5,0,1,0,1.5,0
	c14.4,0.1,27,7.3,34.6,19.5c5.1,8.2,6.2,35.2,6.3,56.9c8.3-0.8,17.2-2,26.5-3.9c1.2-0.3,2.4-0.5,3.6-0.8c0.2-16,0.4-33.9,0.1-37.6
	c-2.1-32.7-30.3-60.5-64.2-63.2c-2.1-0.2-4.3-0.3-6.3-0.3c-18.5-0.2-34.8,5.6-48.5,17.2c-13.6,11.5-22.5,28.4-23.9,45.3
	c-0.3,3.4-0.3,22.2-0.3,38.5c8,1.7,16.6,3.2,25.9,4.2C461.7,344.4,463.1,344.5,464.6,344.6z"/>
<path class="st8" d="M610.7,349.3v148.3c0,7.2-6,13-13.5,13H414.8c-7.4,0-13.5-5.8-13.5-13V349.3c0-4.1,2-8,5.5-10.4
	c2.3-1.7,5.1-2.5,8-2.5c1.3,0,2.6,0.2,3.9,0.6c5.2,1.5,10.2,2.8,15.6,3.9l0,0c8,1.7,16.6,3.3,25.9,4.2c1.5,0.2,2.9,0.3,4.3,0.4l0,0
	c13.1,1.4,27.1,2.1,41.4,2.1c14.3,0,28.2-0.7,41.3-2.1l0,0c8.3-0.8,17.2-1.9,26.5-3.8c1.2-0.3,2.4-0.5,3.6-0.8c0,0.2,0-0.2,0,0
	c5.8-1.2,10.8-2.4,15.9-4c1.3-0.4,2.6-0.6,3.9-0.6c2.8,0,5.7,0.9,8,2.5C608.7,341.4,610.7,345.2,610.7,349.3z"/>
</svg>
