<?xml version="1.0" encoding="utf-8"?>
<!-- Generator: Adobe Illustrator 27.0.0, SVG Export Plug-In . SVG Version: 6.00 Build 0)  -->
<svg version="1.1" id="Layer_1" xmlns="http://www.w3.org/2000/svg" xmlns:xlink="http://www.w3.org/1999/xlink" x="0px" y="0px"
	 viewBox="0 0 1200 1109" style="enable-background:new 0 0 1200 1109;" xml:space="preserve">
<style type="text/css">
	.st0{fill:none;stroke:#000000;stroke-width:2.9206;stroke-miterlimit:10;}
	.st1{fill:#00F6FF;}
	.st2{fill:#98E891;}
	.st3{fill:none;stroke:#000000;stroke-width:3.4443;stroke-miterlimit:10;}
	.st4{fill:none;}
</style>
<g>
	<path class="st1" d="M743.8,579.3c-24.7,9.7-52,17-79.8,21.2c-6.2,1-12.6,2-18.8,2.6c-0.4,0.1-0.7,0.1-1,0.1
		c-1.3,0.1-2.6,0.2-4.1,0.4c-2,0.2-4,0.4-6,0.6c-3.5,0.2-7,0.5-10.4,0.7c-7.4,0.4-14.8,0.6-22.1,0.6c-3.5,0-7,0-10.4-0.1
		c-2.8-0.1-5.5-0.1-8.3-0.2c-1.2,0-2.3-0.1-3.4-0.1c-3.2-0.1-6.5-0.4-9.7-0.7c-2.2-0.1-4.3-0.4-6.5-0.6c-4.1-0.4-8.2-0.8-12.1-1.4
		c-1.9-0.2-3.7-0.6-5.5-0.8c0,0-0.1,0-0.1-0.1c-0.4-0.1-0.7-0.2-1.1-0.4c-2.9-0.4-5.8-1-8.6-1.4c-1.8-0.4-3.7-0.7-5.5-1.1l-0.2,0.2
		c-31-6.2-59.6-17-82.9-32.8l-8,4.6l-0.4-0.4L339.4,626l51.2-107.3c-15.7-17.8-26.2-39-25.1-63.4c1.8-46.1,31.4-77.9,70.9-99.1
		c5-2.6,10.2-5.2,15.5-7.6c6.1-2.8,12.4-5.3,18.7-7.7c17-6.2,34.8-11.2,52-14.6c9-1.7,17.5-3.1,26.2-4.4v-0.1
		c17.8-2.4,34.4-3.8,48.8-4.2c13.2-0.4,28.6-0.4,45.2,0.4c10.1,0.4,21.2,1.1,32.4,2c13.9,1.4,28.2,3.1,42.1,5.9
		c5.4,1.1,10.8,2.3,16.2,3.6c9.6,2.4,19.1,5.2,28.3,8.5c48,17.3,87.4,48.5,93.5,103.9C862.2,504.5,812.8,552.2,743.8,579.3z"/>
	
	
	<g>
		<g>
			<g>
				<path class="st2" d="M754,446.4c7.1,7.2,7.1,18.7-0.1,25.8c-3.5,3.5-8,5.3-12.8,5.3c-4.9,0-9.5-1.9-13-5.4
					c-32.2-32.4-73.6-50.3-116.5-50.3c-43.1,0-84.5,17.9-116.5,50.3c-3.5,3.5-8,5.4-13,5.4c-4.8,0-9.5-1.9-12.8-5.3
					c-3.5-3.5-5.4-8-5.4-13s1.8-9.5,5.3-13c39-39.4,89.6-61.1,142.6-61.1C664.3,385.3,715,407,754,446.4z"/>
				<path class="st2" d="M640.1,603.7c-2,0.2-4,0.4-6,0.6c-3.5,0.2-7,0.5-10.4,0.7c-7.4,0.4-14.8,0.6-22.1,0.6c-3.5,0-7,0-10.4-0.1
					c-2.8-0.1-5.5-0.1-8.3-0.2c0-0.5,0-1,0-1.3c0-15.8,12.8-28.7,28.7-28.7C627.2,575.3,640.1,588,640.1,603.7z"/>
				<path class="st2" d="M811.4,406.6c-3.4,3.1-7.8,4.9-12.5,4.9c-5,0-10-2.2-13.3-5.9c-45.7-49-107.5-76.1-174.1-76.1
					S483,356.7,437.3,405.7c-3.5,3.7-8.3,5.9-13.3,5.9c-4.7,0-9.1-1.8-12.5-4.9c-7.4-6.8-7.8-18.5-1-25.8c8.2-8.8,16.8-17,25.9-24.6
					c5-2.6,10.2-5.2,15.5-7.6c6.1-2.8,12.4-5.3,18.7-7.7c17-6.2,34.8-11.2,52-14.6c9-1.7,17.5-3.1,26.2-4.4v-0.1
					c17.8-2.4,34.4-3.8,48.8-4.2c13.2-0.4,28.6-0.4,45.2,0.4c10.1,0.4,21.2,1.1,32.4,2c13.9,1.4,28.2,3.1,42.1,5.9
					c5.4,1.1,10.8,2.3,16.2,3.6c9.6,2.4,19.1,5.2,28.3,8.5c18.2,12,35.2,26.4,50.5,42.8C819.2,388.1,818.9,399.8,811.4,406.6z"/>
				<path class="st2" d="M691.1,512.3c3.5,3.5,5.4,8,5.4,13c0,4.9-1.8,9.5-5.3,13c-3.5,3.5-8,5.4-13,5.4c-4.8,0-9.4-1.9-12.8-5.3
					C651,524,630.1,514.9,612,514.9h-1.2c-18.1,0-39,9.1-53.3,23.3c-3.5,3.4-8,5.3-12.8,5.3c-4.9,0-9.5-1.9-13-5.4
					c-7.1-7.2-7.1-18.8,0.1-25.9c21.1-20.9,51.4-34,79.1-34h1.2C639.7,478.3,670,491.2,691.1,512.3z"/>
			</g>
		</g>
	</g>
	<g>
		<g>
			<g>
				<path class="st3" d="M754,446.4c7.1,7.2,7.1,18.7-0.1,25.8c-3.5,3.5-8,5.3-12.8,5.3c-4.9,0-9.5-1.9-13-5.4
					c-32.2-32.4-73.6-50.3-116.5-50.3c-43.1,0-84.5,17.9-116.5,50.3c-3.5,3.5-8,5.4-13,5.4c-4.8,0-9.5-1.9-12.8-5.3
					c-3.5-3.5-5.4-8-5.4-13s1.8-9.5,5.3-13c39-39.4,89.6-61.1,142.6-61.1C664.3,385.3,715,407,754,446.4z"/>
				<path class="st3" d="M640.1,603.9c0,15.7-12.8,28.6-28.6,28.6c-15.8,0-28.7-12.8-28.7-28.6c0-15.8,12.8-28.7,28.7-28.7
					C627.2,575.3,640.1,588.1,640.1,603.9z"/>
				<path class="st3" d="M811.4,406.6c-3.4,3.1-7.8,4.9-12.5,4.9c-5,0-10-2.2-13.3-5.9c-45.7-49-107.5-76.1-174.1-76.1
					S483,356.7,437.3,405.7c-3.5,3.7-8.3,5.9-13.3,5.9c-4.7,0-9.1-1.8-12.5-4.9c-7.4-6.8-7.8-18.5-1-25.8
					c52.7-56.5,124.1-87.6,200.9-87.7c76.9,0,148.2,31.2,200.9,87.7C819.2,388.1,818.9,399.8,811.4,406.6z"/>
				<path class="st3" d="M691.1,512.3c3.5,3.5,5.4,8,5.4,13c0,4.9-1.8,9.5-5.3,13c-3.5,3.5-8,5.4-13,5.4c-4.8,0-9.4-1.9-12.8-5.3
					C651,524,630.1,514.9,612,514.9h-1.2c-18.1,0-39,9.1-53.3,23.3c-3.5,3.4-8,5.3-12.8,5.3c-4.9,0-9.5-1.9-13-5.4
					c-7.1-7.2-7.1-18.8,0.1-25.9c21.1-20.9,51.4-34,79.1-34h1.2C639.7,478.3,670,491.2,691.1,512.3z"/>
			</g>
		</g>
	</g>
	<rect class="st4" width="1200" height="1109"/>
</g>
</svg>
