<?xml version="1.0" encoding="utf-8"?>
<!-- Generator: Adobe Illustrator 27.0.0, SVG Export Plug-In . SVG Version: 6.00 Build 0)  -->
<svg version="1.1" id="Layer_1" xmlns="http://www.w3.org/2000/svg" xmlns:xlink="http://www.w3.org/1999/xlink" x="0px" y="0px"
	 viewBox="0 0 1080 996" style="enable-background:new 0 0 1080 996;" xml:space="preserve">
<style type="text/css">
	.st0{fill:none;stroke:#000000;stroke-width:2.6258;stroke-miterlimit:10;}
	.st1{enable-background:new    ;}
	.st2{fill:#FA0CF7;}
	.st3{fill:#E5BDBE;}
	.st4{fill:none;stroke:#000000;stroke-width:3.9088;stroke-miterlimit:10;}
	.st5{fill:none;}
</style>
<g>

	<g>
		<g>
			<path class="st2" d="M720.4,471.3c-0.9,0.4-1.6,0.8-2.5,1.1c-32.4,11.7-49.7,13.2-54,13.3l-0.2,0.1c-0.5,0.1-1.1,0-1.6,0.1
				l-0.3,0.1c-1.1,0-2.2,0.1-3.1,0.1c0,0-0.4-0.2-0.8-0.1c-0.8-0.1-1.4,0.1-2.2,0.1c-0.3,0.1-0.4-0.2-0.8-0.1
				c-0.8-0.1-1.5-0.2-2.3-0.2c-7.8-1.5-19.2-15.8-27.8-37c-1.3-3.2-2.5-6.7-3.7-10.2c-1.5-4.7-2.9-9.8-4-15.1
				c-1.8-8.6-1.2-17.9-1-27.5c0-1.5,0.1-3,0.1-4.4c0-0.3,0-0.6,0-1c0-0.1-2.7-0.1,0,0c0,0-0.1,0.3-0.2,1c-0.2,0.9-0.8,2.4-1.4,4.4
				c-4.8,14.6-20.6,56.4-56.7,94.3c-10.7,11.3-23.2,22.2-37.8,32c-21.5,14.4-40.9,26.1-57.9,35.5c-47.8,26.3-76.8,34.4-78.9,35.1
				c-11,3.8-51.9-84.3-54.2-102.3c-0.8-5.7,77,0.8,142.5-37.7c2.2-1.2,4.2-2.5,6.3-3.7c4-2.5,7.9-5.1,11.6-7.8
				c50.4-36.4,66.6-84.6,72.3-89.8c-9.4,3.9-19.3,7.5-29.3,10.8c-0.4,0.1-0.9,0.3-1.3,0.4c-1.5,0.5-2.9,1-4.4,1.4
				c-11.1,3.6-22.1,6.6-32.7,8.9c-20,4.6-38.2,7.3-51.1,6.9c-9.1-0.1-15.8-2-18.4-5.3c-0.4-0.2-0.6-0.9-1-1.5
				c-0.1-0.3-0.1-0.3-0.1-0.3l-1-2.6c-4.3-15.5-2.2-63.4,2.7-88.8c4.3-22,250.5-32.1,262.5-23.7c16.2,10.9,62.7,187.2,63.5,196.6
				C751.6,460.6,738.1,465.1,720.4,471.3z"/>
		</g>
		<path class="st3" d="M616,391.4c-0.2,0.9-0.8,2.4-1.4,4.4c-4.8,14.6-20.6,56.4-56.7,94.3l-4.6-3.3c-0.1-0.1-0.2-0.1-0.3,0
			l-82.1,58.3c-0.2,0.1-0.5-0.1-0.4-0.3l31.3-94.3c0-0.1,0-0.2-0.1-0.3l-12.4-8.8c50.4-36.4,66.6-84.6,72.3-89.8
			c-9.4,3.9-19.3,7.5-29.3,10.8c-0.4,0.1-0.9,0.3-1.3,0.4l21.9-66c0.1-0.2,0.4-0.2,0.5,0l31.3,94.3c0,0.1,0.1,0.2,0.2,0.2H616V391.4
			z"/>
		<path class="st3" d="M686.7,391.8l-65.4,46.5c-1.5-4.7-2.9-9.8-4-15.1c-1.8-8.6-1.2-17.9-1-27.5c0-1.5,0.1-3,0.1-4.4h70.2
			C686.8,391.4,686.9,391.7,686.7,391.8z"/>
		<path class="st4" d="M553.4,296.8l31.3,94.3c0,0.1,0.1,0.2,0.2,0.2h101.5c0.3,0,0.4,0.3,0.2,0.5l-82.1,58.3
			c-0.1,0.1-0.1,0.2-0.1,0.3l31.3,94.3c0.1,0.2-0.2,0.4-0.4,0.3l-82.1-58.3c-0.1-0.1-0.2-0.1-0.3,0l-82.1,58.3
			c-0.2,0.1-0.5-0.1-0.4-0.3l31.3-94.3c0-0.1,0-0.2-0.1-0.3l-82.1-58.3c-0.2-0.1-0.1-0.5,0.2-0.5h101.5c0.1,0,0.2-0.1,0.2-0.2
			l31.3-94.3C553,296.5,553.3,296.5,553.4,296.8z"/>
	</g>
	<rect class="st5" width="1080" height="996"/>
</g>
</svg>
