<?xml version="1.0" encoding="utf-8"?>
<!-- Generator: Adobe Illustrator 27.0.0, SVG Export Plug-In . SVG Version: 6.00 Build 0)  -->
<svg version="1.1" id="Layer_1" xmlns="http://www.w3.org/2000/svg" xmlns:xlink="http://www.w3.org/1999/xlink" x="0px" y="0px"
	 viewBox="0 0 1920 1774" style="enable-background:new 0 0 1920 1774;" xml:space="preserve">
<style type="text/css">
	.st0{fill:none;stroke:#000000;stroke-width:4.6724;stroke-miterlimit:10;}
	.st1{fill:#00F6FF;}
	.st2{fill:#98E891;}
	.st3{fill:none;stroke:#000000;stroke-width:5.5103;stroke-miterlimit:10;}
	.st4{fill:none;}
</style>
<g>
	<path class="st1" d="M1190,926.7c-39.6,15.6-83.1,27.3-127.7,34c-10,1.5-20.2,3.3-30.1,4.2c-0.6,0.2-1.2,0.2-1.5,0.2
		c-2.1,0.2-4.2,0.4-6.5,0.6c-3.3,0.4-6.3,0.6-9.6,1c-5.6,0.4-11.1,0.8-16.7,1.2c-11.9,0.6-23.6,1-35.3,1c-5.6,0-11.1,0-16.7-0.2
		c-4.4-0.2-8.8-0.2-13.2-0.4c-1.9,0-3.6-0.2-5.4-0.2c-5.2-0.2-10.4-0.6-15.6-1.2c-3.5-0.2-6.9-0.6-10.4-1
		c-6.5-0.6-13.1-1.3-19.4-2.3c-3.1-0.4-6-1-8.8-1.3c0,0-0.2,0-0.2-0.2c-0.6-0.2-1.2-0.4-1.7-0.6c-4.6-0.6-9.2-1.5-13.8-2.3
		c-2.9-0.6-6-1.2-8.8-1.7l-0.4,0.4c-49.5-10-95.4-27.3-132.7-52.4l-12.9,7.3l-0.6-0.6l-159,89.3l82-171.6
		c-25.2-28.4-41.9-62.4-40.1-101.4c2.9-73.7,50.3-124.6,113.5-158.6c8.1-4.2,16.3-8.3,24.8-12.1c9.8-4.4,19.8-8.4,30-12.3
		c27.3-10,55.7-17.9,83.1-23.4c14.4-2.7,28-5,41.9-7.1v-0.2c28.4-3.8,55.1-6.1,78.1-6.7c21.1-0.6,45.7-0.6,72.4,0.6
		c16.1,0.6,34,1.7,51.8,3.3c22.3,2.3,45.1,5,67.4,9.4c8.6,1.7,17.3,3.6,25.9,5.8c15.4,3.8,30.5,8.3,45.3,13.6
		c76.8,27.6,139.8,77.6,149.6,166.3C1379.5,806.9,1300.4,883.4,1190,926.7z"/>
	
	
	<g>
		<g>
			<g>
				<path class="st2" d="M1206.3,714c11.3,11.5,11.3,30-0.2,41.3c-5.6,5.6-12.9,8.4-20.5,8.4c-7.9,0-15.2-3.1-20.7-8.6
					c-51.5-51.8-117.7-80.4-186.4-80.4c-68.9,0-135.2,28.6-186.4,80.4c-5.6,5.6-12.9,8.6-20.7,8.6c-7.7,0-15.2-3.1-20.5-8.4
					c-5.6-5.6-8.6-12.9-8.6-20.7s2.9-15.2,8.4-20.7c62.4-63,143.4-97.7,228.1-97.7C1062.9,616.3,1143.9,651,1206.3,714z"/>
				<path class="st2" d="M1024.1,965.7c-3.3,0.4-6.3,0.6-9.6,1c-5.6,0.4-11.1,0.8-16.7,1.2c-11.9,0.6-23.6,1-35.3,1
					c-5.6,0-11.1,0-16.7-0.2c-4.4-0.2-8.8-0.2-13.2-0.4c0-0.8,0-1.5,0-2.1c0-25.3,20.5-45.9,45.9-45.9
					C1003.6,920.2,1024.1,940.6,1024.1,965.7z"/>
				<path class="st2" d="M1298.3,650.5c-5.4,5-12.5,7.9-20,7.9c-8.1,0-15.9-3.5-21.3-9.4c-73.2-78.3-172-121.7-278.6-121.7
					s-205.6,43.4-278.8,121.7c-5.6,6-13.2,9.4-21.3,9.4c-7.5,0-14.6-2.9-20-7.9c-11.9-10.9-12.5-29.6-1.5-41.3
					c13.1-14,26.9-27.3,41.5-39.4c8.1-4.2,16.3-8.3,24.8-12.1c9.8-4.4,19.8-8.4,30-12.3c27.3-10,55.7-17.9,83.1-23.4
					c14.4-2.7,28-5,41.9-7.1v-0.2c28.4-3.8,55.1-6.1,78.1-6.7c21.1-0.6,45.7-0.6,72.4,0.6c16.1,0.6,34,1.7,51.8,3.3
					c22.3,2.3,45.1,5,67.4,9.4c8.6,1.7,17.3,3.6,25.9,5.8c15.4,3.8,30.5,8.3,45.3,13.6c29.2,19.2,56.3,42.2,80.8,68.5
					C1310.8,620.9,1310.2,639.5,1298.3,650.5z"/>
				<path class="st2" d="M1105.7,819.4c5.6,5.6,8.6,12.9,8.6,20.7c0,7.9-2.9,15.2-8.4,20.7c-5.6,5.6-12.9,8.6-20.7,8.6
					c-7.7,0-15-3.1-20.5-8.4c-23-22.8-56.4-37.4-85.4-37.4h-1.9c-29,0-62.4,14.6-85.2,37.2c-5.6,5.4-12.9,8.4-20.5,8.4
					c-7.9,0-15.2-3.1-20.7-8.6c-11.3-11.5-11.3-30.1,0.2-41.5c33.8-33.4,82.2-54.3,126.5-54.3h1.9
					C1023.6,765.1,1071.9,785.8,1105.7,819.4z"/>
			</g>
		</g>
	</g>
	<g>
		<g>
			<g>
				<path class="st3" d="M1206.3,714c11.3,11.5,11.3,30-0.2,41.3c-5.6,5.6-12.9,8.4-20.5,8.4c-7.9,0-15.2-3.1-20.7-8.6
					c-51.5-51.8-117.7-80.4-186.4-80.4c-68.9,0-135.2,28.6-186.4,80.4c-5.6,5.6-12.9,8.6-20.7,8.6c-7.7,0-15.2-3.1-20.5-8.4
					c-5.6-5.6-8.6-12.9-8.6-20.7s2.9-15.2,8.4-20.7c62.4-63,143.4-97.7,228.1-97.7C1062.9,616.3,1143.9,651,1206.3,714z"/>
				<path class="st3" d="M1024.1,966.1c0,25.2-20.5,45.7-45.7,45.7c-25.3,0-45.9-20.5-45.9-45.7c0-25.3,20.5-45.9,45.9-45.9
					C1003.6,920.2,1024.1,940.8,1024.1,966.1z"/>
				<path class="st3" d="M1298.3,650.5c-5.4,5-12.5,7.9-20,7.9c-8.1,0-15.9-3.5-21.3-9.4c-73.2-78.3-172-121.7-278.6-121.7
					s-205.6,43.4-278.8,121.7c-5.6,6-13.2,9.4-21.3,9.4c-7.5,0-14.6-2.9-20-7.9c-11.9-10.9-12.5-29.6-1.5-41.3
					c84.3-90.4,198.5-140.2,321.4-140.3c123.1,0,237.1,49.9,321.4,140.3C1310.8,620.9,1310.2,639.5,1298.3,650.5z"/>
				<path class="st3" d="M1105.7,819.4c5.6,5.6,8.6,12.9,8.6,20.7c0,7.9-2.9,15.2-8.4,20.7c-5.6,5.6-12.9,8.6-20.7,8.6
					c-7.7,0-15-3.1-20.5-8.4c-23-22.8-56.4-37.4-85.4-37.4h-1.9c-29,0-62.4,14.6-85.2,37.2c-5.6,5.4-12.9,8.4-20.5,8.4
					c-7.9,0-15.2-3.1-20.7-8.6c-11.3-11.5-11.3-30.1,0.2-41.5c33.8-33.4,82.2-54.3,126.5-54.3h1.9
					C1023.6,765.1,1071.9,785.8,1105.7,819.4z"/>
			</g>
		</g>
	</g>
	<rect class="st4" width="1920" height="1774"/>
</g>
</svg>
