<?xml version="1.0" encoding="utf-8"?>
<!-- Generator: Adobe Illustrator 27.0.0, SVG Export Plug-In . SVG Version: 6.00 Build 0)  -->
<svg version="1.1" id="Layer_1" xmlns="http://www.w3.org/2000/svg" xmlns:xlink="http://www.w3.org/1999/xlink" x="0px" y="0px"
	 viewBox="0 0 3840 3547" style="enable-background:new 0 0 3840 3547;" xml:space="preserve">
<style type="text/css">
	.st0{display:none;fill:#FF4B00;}
	.st1{display:none;}
	.st2{display:inline;fill:#D2B6DE;}
	.st3{display:inline;}
	.st4{fill:none;stroke:#000000;stroke-width:9.3435;stroke-miterlimit:10;}
	.st5{fill:#FF4B00;}
	.st6{fill:#EAEAEA;}
	.st7{fill:#D2B6DE;}
	.st8{fill:none;stroke:#000000;stroke-width:11.5181;stroke-miterlimit:10;}
	.st9{fill:none;}
</style>
<g>
	<path class="st0" d="M1172,1722.3c-9,20-21.6,40.6-36.5,61.1c-19.6,26.8-43.5,53.1-68.9,77h0.3c-21.3,19.9-43.2,37.8-64.9,52.8
		c-9.4-16.8-19.7-33.2-30.6-49.1c0,0,0-0.1-0.1-0.1c-0.8-1.2-1.6-2.4-2.5-3.6h-0.3c-16.2-23.7-33.7-46.6-50.2-68.1
		c-2-2.5-3.9-5-5.8-7.5v-1.1l0,0c-0.1,0-0.2,0.1-0.3,0.2c-0.1,0-0.1,0.1-0.2,0.1c-20.2-26.8-38.9-51.6-51.9-74.4l0,0
		c-4.7-8.4-8.8-16.5-11.9-24.4c-11.9-30.1-10.1-56.2,15.9-77.7c36-30,81.6-24,114.8,17.9c0.2,0.5,0.4,0.9,0.6,1.3
		c-0.2-0.5-0.4-0.9-0.5-1.4c17.3,22.3,31.5,54.3,38.9,96.5c0.7,4.3,1.4,8.6,2,13.1c0-4.6,0.3-9.7,0.8-15
		c3.1-32.6,15.7-75.9,38.1-104.4l3.7-4.2l0.3-0.4l0.6-0.7c20.1-22.6,47.6-32.8,82.4-14.3c10.1,5.4,18.2,11.7,24.4,18.9
		C1193.8,1641.9,1190.8,1680.6,1172,1722.3z"/>
	<path class="st0" d="M912.5,1783.7v1.1c-0.3-0.3-0.3-0.6-0.6-0.9c0.1,0,0.1,0,0.2-0.1C912.4,1783.9,912.5,1783.8,912.5,1783.7
		L912.5,1783.7z"/>
	<g class="st1">
		<path class="st2" d="M971.5,1863.9C971.4,1863.9,971.4,1864,971.5,1863.9c-0.9-1.1-1.7-2.3-2.6-3.5h-0.3
			c-16.2-23.7-33.7-46.6-50.2-68.1c-2-2.5-3.9-5-5.8-7.5v-1.1l0,0c-0.1,0-0.2,0.1-0.3,0.2c-0.1,0-0.1,0.1-0.2,0.1
			c-20.2-26.8-38.9-51.6-51.9-74.4l0,0c-4.7-8.4-8.8-16.5-11.9-24.4c7.3-4.6,15.5-6.8,23.6-6.8c14,0,27.8,6.6,36.5,18.9l48.1,68.1
			l25.7,36.4C996.4,1821.8,991.6,1849.6,971.5,1863.9z"/>
		<path class="st2" d="M1172,1722.3l-200.4,141.6c-0.1,0.1-0.2,0.1-0.3,0.2c0,0,0-0.1-0.1-0.1c-0.8-1.2-1.6-2.4-2.5-3.6h-0.3
			c-16.2-23.7-33.7-46.6-50.2-68.1c0.6-0.5,1.1-0.9,1.7-1.3l36.4-25.7l61.4-43.4l2.8-2l143.5-101.4c2-1.4,4-2.6,6.2-3.6
			C1193.8,1641.9,1190.8,1680.6,1172,1722.3z"/>
	</g>
	<g class="st1">
		<g class="st3">
			<path d="M1190,1610.2v2.9c13.6,0,26.3,6.6,34.1,17.6c5,7.1,7.7,15.4,7.7,24c0,13.6-6.6,26.3-17.7,34.1l-244,172.5
				c-7.1,5-15.4,7.6-24,7.6c-0.9,0-1.8,0-2.8-0.1c-1.6-0.1-3.2-0.3-4.6-0.5l-0.3-0.1c-0.7-0.1-1.4-0.3-2.1-0.5
				c-10-2.3-18.7-8.2-24.6-16.5l-73.8-104.4c-6.4-9.1-8.9-20.2-7-31.2s7.9-20.6,17-27c7.1-5,15.4-7.7,24.1-7.7
				c13.6,0,26.3,6.6,34.1,17.6l48.1,68.1l1.7,2.4l2.4-1.7l207.7-146.8c7.1-5,15.4-7.6,24-7.6V1610.2 M1190,1610.2
				c-8.9,0-17.9,2.7-25.7,8.2l-207.8,146.9l-48.1-68.1c-8.7-12.3-22.5-18.9-36.5-18.9c-8.9,0-17.9,2.7-25.8,8.2
				c-20.1,14.2-24.9,42.1-10.7,62.2l73.9,104.5c6.6,9.3,16,15.3,26.3,17.7c0.9,0.2,1.7,0.4,2.6,0.6c1.6,0.3,3.3,0.5,5,0.6
				c1,0.1,1.9,0.1,2.9,0.1c8.9,0,17.9-2.7,25.7-8.2l244-172.5c12.3-8.7,18.9-22.5,18.9-36.5c0-8.9-2.7-17.9-8.2-25.7
				C1217.8,1616.8,1204,1610.2,1190,1610.2L1190,1610.2z"/>
		</g>
	</g>
</g>
<g>

	<path class="st5" d="M1532.5,1661.8C1532.2,1662.2,1532.2,1662.2,1532.5,1661.8c-0.8,0.4-0.8,0.8-1.2,0.8c0,0,0-0.4-0.4-0.4
		c0.4,0,0.4,0,0.8-0.4C1532.2,1661.8,1532.2,1661.8,1532.5,1661.8z"/>
	<path class="st5" d="M1533.3,1661.4v4.2c-1.2-1.2-1.2-1.9-1.9-3.1l-0.4-0.4l0,0c0.4,0,0.4,0,0.8-0.4c0.4,0,0.4,0,0.8,0
		S1533.3,1661.8,1533.3,1661.4z"/>
	<path class="st5" d="M1532.5,1661.8C1532.2,1662.2,1532.2,1662.2,1532.5,1661.8c-0.8,0.4-0.8,0.8-1.2,0.8c0,0,0-0.4-0.4-0.4
		c0.4,0,0.4,0,0.8-0.4C1532.2,1661.8,1532.2,1661.8,1532.5,1661.8z"/>
	<path class="st5" d="M2529.8,1425.7c-34.6,76.8-82.9,155.9-140.2,234.5c-14.2,19.6-29.2,39.2-44.5,58.3
		c-65.7,82.5-140.9,163.1-220,237.2h1.2c-1.5,1.5-3.1,3.1-4.6,4.2c-80.3,74.9-162.8,142-244.6,198.5
		c-36.1-64.5-75.6-127.4-117.5-188.5c0,0,0,0,0-0.4c0,0,0,0-0.4,0c-1.9-3.1-4.2-6.1-6.5-9.6c-1.2-1.5-1.9-3.1-3.1-4.2h-1.5
		c-62.2-91-129.4-178.9-192.8-261.4c0,0,0,0,0.4-0.4c-5-6.1-9.6-12.3-14.6-18.4c-2.7-3.5-5-6.9-7.7-10v-4.2l-0.4,0.4
		c0,0-0.4,0-0.4,0.4l0,0c0,0-0.4,0-0.8,0c-0.4,0.4-0.4,0.4-0.8,0.4c-4.6-6.1-9.6-12.7-14.2-18.8c-5-6.5-9.6-13.1-14.6-19.2
		c-4.6-6.1-9.2-12.3-13.8-18.4c-18.8-25-36.9-49.5-54.5-73.7c-4.2-6.1-8.4-11.9-12.7-17.7c-6.5-8.8-12.7-18-18.8-26.9
		c-3.8-5.8-7.7-11.5-11.5-16.9c-4.2-6.1-8.1-11.9-11.9-18c-3.8-5.8-7.3-11.5-11.1-16.9c-5.4-8.4-10.8-16.9-16.1-25.3
		c-3.5-5.8-6.9-11.1-10-16.5c-0.8-1.2-1.2-1.9-1.9-3.1c-2.7-4.6-5.4-8.8-7.7-13.4c-9.2-16.1-17.7-31.9-25.3-47.6
		c-7.7-15.7-14.6-31.1-20.4-46.1c-45.7-115.5-38.8-215.7,61.1-298.3c121.7-101.3,272.3-95.6,393.2,17.3
		c16.5,15.4,32.3,32.2,47.6,51.4c0.8,1.9,1.5,3.5,2.3,5c-0.8-1.9-1.5-3.5-1.9-5.4c9.6,12.3,19.2,25.7,28,39.9
		c41.5,63.7,76.8,144,101.8,241.1c7.3,28.4,13.8,58.3,19.2,89.4l0,0c2.7,16.5,5.4,33,7.7,50.3c0-17.7,1.2-37.2,3.1-57.6
		c0,0,0-0.4,0-0.8c2.3-25.7,6.5-53.4,11.9-81.8c16.9-85.6,48-179.7,93.3-258c12.3-21.5,26.1-41.8,40.7-60.7l14.2-16.1l1.2-1.5
		l2.3-2.7c3.8-4.2,7.7-8.4,11.9-12.7c76-77.5,177.8-109.8,304.5-42.2c38.8,20.7,69.9,44.9,93.7,72.6c20.4,23.4,35.7,49.1,46.1,76.8
		c0.8,1.9,1.5,3.8,1.9,5.8c1.5,4.2,3.1,8.4,4.2,13.1c0.8,2.7,1.5,5.4,2.3,8.1c1.5,5.4,2.7,10.7,3.8,16.5
		C2598.9,1219.2,2577.4,1319.8,2529.8,1425.7z"/>
	<path class="st5" d="M1759.5,1969.7C1759.5,1970,1759.1,1970,1759.5,1969.7c-0.4,0.4-0.4,0-0.8,0c-1.9-3.1-4.2-6.1-6.5-9.6
		c-1.2-1.5-1.9-3.1-3.1-4.2h0.4c1.2,1.5,2.3,3.1,3.1,4.2C1754.9,1963.5,1756.8,1966.6,1759.5,1969.7
		C1759.1,1969.7,1759.5,1969.7,1759.5,1969.7z"/>

	<path class="st6" d="M1788.7,1053.4c9.6,12.3,19.2,25.7,28,39.9c-3.5,4.2-6.5,8.8-9.6,13.8c-18,29.2-22.7,136.3-23.4,216.1l0,0
		c-3.1-0.4-6.1-0.4-9.2-0.8c-2.7-0.4-5-0.4-7.7-0.8c-13.4-1.5-26.5-3.1-39.2-5c-4.2-0.8-8.4-1.2-12.7-1.9
		c-8.4-1.2-16.5-2.7-24.2-4.2c-8.1-1.5-15.7-3.1-23.4-4.6l0,0c0-62.6,0-134.7,1.2-147.8c4.6-56,31.1-112.5,71.8-155.5
		C1757.2,1017.3,1772.9,1034.5,1788.7,1053.4c0.4,2.3,1.2,3.8,1.9,5.4C1789.8,1056.8,1789.1,1055.3,1788.7,1053.4z"/>
	<path class="st6" d="M2217.2,1305.9L2217.2,1305.9c-4.6,1.2-9.2,1.9-13.8,3.1c-4.6,0.8-8.8,1.9-13.4,2.7
		c-17.7,3.5-34.9,6.1-51.8,8.4c-12.7,1.5-25,3.1-36.9,4.2c-0.4-83.3-4.6-187.3-24.2-218.4c-6.9-10.7-14.6-20.7-23-29.2
		c12.3-21.5,26.1-41.8,40.7-60.7l14.2-16.1l1.2-1.5l2.3-2.7c3.8-4.2,7.7-8.4,11.9-12.7c53,44.9,88.7,109,93.3,178.9
		C2218.8,1175.8,2218,1244.5,2217.2,1305.9z"/>
	<path class="st7" d="M1784.1,1322.8v3.5c43,4.6,88.3,6.9,134.8,7.7c7.3,28.4,13.8,58.3,19.2,89.4l0,0c2.7,16.5,5.4,33,7.7,50.3
		c0-17.7,1.2-37.2,3.1-57.6c0,0,0-0.4,0-0.8c2.3-25.7,6.5-53.4,11.9-81.8c48.8-0.4,96-3.1,140.5-7.7v-2.3c2.3-0.4,4.6-0.4,6.9-0.8
		c2.3,0,4.2-0.4,6.5-0.8h0.4h0.4c0.4,0,0.4,0,0.8,0c3.1-0.4,6.1-0.8,9.6-1.2c4.2-0.4,8.4-1.2,12.3-1.5c4.2-0.4,8.4-1.2,12.7-1.9
		c4.2-0.8,8.4-1.2,12.7-1.9s8.4-1.5,13.1-2.3c4.6-0.8,8.8-1.5,13.1-2.3c4.6-0.8,8.8-1.9,13.4-2.7c4.6-1.2,9.2-1.9,13.8-3.1
		c0,0.8,0,1.9,0,2.7c22.3-4.6,41.5-9.2,61.1-15.4c5-1.5,10-2.3,15-2.3c11.1,0,21.9,3.5,30.7,9.6c13.1,9.2,21.1,24.2,21.1,39.9v377.3
		c-65.7,82.5-140.9,163.1-220,237.2h1.2c-1.5,1.5-3.1,3.1-4.6,4.2h-369.4c-1.2-1.5-1.9-3.1-3.1-4.2h-1.2
		c-62.2-91-129.4-178.9-192.8-261.4c0,0,0,0,0.4-0.4c-5-6.1-9.6-12.3-14.6-18.4v-334.7c0-15.7,7.7-30.7,21.1-39.9
		c8.8-6.5,19.6-9.6,30.7-9.6c5,0,10,0.8,15,2.3c18.8,5.4,38.8,10.4,60.3,15v-1.9"/>
	<path class="st8" d="M1784.1,1322.8c1.2-79.8,5.4-186.6,23.4-216.1c29.2-47.2,77.2-75.2,131.3-76.4c1.9,0,3.8,0,5.8,0
		c55.3,0.4,103.7,28,132.9,74.9c19.6,31.5,23.8,135.1,24.2,218.4c31.9-3.1,66-7.7,101.8-15c4.6-1.2,9.2-1.9,13.8-3.1
		c0.8-61.4,1.5-130.1,0.4-144.3c-8.1-125.5-116.4-232.2-246.5-242.6c-8.1-0.8-16.5-1.2-24.2-1.2c-71-0.8-133.6,21.5-186.2,66
		c-52.2,44.1-86.4,109-91.8,173.9c-1.2,13.1-1.2,85.2-1.2,147.8c30.7,6.5,63.7,12.3,99.5,16.1
		C1772.9,1322.1,1778.3,1322.4,1784.1,1322.8z"/>
	<path class="st8" d="M2345.1,1340.9v569.3c0,27.6-23,49.9-51.8,49.9h-700.4c-28.4,0-51.8-22.3-51.8-49.9v-569.3
		c0-15.7,7.7-30.7,21.1-39.9c8.8-6.5,19.6-9.6,30.7-9.6c5,0,10,0.8,15,2.3c20,5.8,39.2,10.7,59.9,15l0,0
		c30.7,6.5,63.7,12.7,99.5,16.1c5.8,0.8,11.1,1.2,16.5,1.5l0,0c50.3,5.4,104.1,8.1,159,8.1s108.3-2.7,158.6-8.1l0,0
		c31.9-3.1,66-7.3,101.8-14.6c4.6-1.2,9.2-1.9,13.8-3.1c0,0.8,0-0.8,0,0c22.3-4.6,41.5-9.2,61.1-15.4c5-1.5,10-2.3,15-2.3
		c10.8,0,21.9,3.5,30.7,9.6C2337.4,1310.5,2345.1,1325.1,2345.1,1340.9z"/>
	<rect class="st9" width="3840" height="3547"/>
</g>
</svg>
