<?xml version="1.0" encoding="utf-8"?>
<!-- Generator: Adobe Illustrator 27.0.0, SVG Export Plug-In . SVG Version: 6.00 Build 0)  -->
<svg version="1.1" id="Layer_1" xmlns="http://www.w3.org/2000/svg" xmlns:xlink="http://www.w3.org/1999/xlink" x="0px" y="0px"
	 viewBox="0 0 1200 1109" style="enable-background:new 0 0 1200 1109;" xml:space="preserve">
<style type="text/css">
	.st0{display:none;fill:#FF4B00;}
	.st1{display:none;}
	.st2{display:inline;fill:#D2B6DE;}
	.st3{display:inline;}
	.st4{fill:none;stroke:#000000;stroke-width:2.9206;stroke-miterlimit:10;}
	.st5{fill:#FF4B00;}
	.st6{fill:#EAEAEA;}
	.st7{fill:#D2B6DE;}
	.st8{fill:none;stroke:#000000;stroke-width:3.6003;stroke-miterlimit:10;}
	.st9{fill:none;}
</style>
<g>
	<path class="st0" d="M-149,503.3c-9,20-21.6,40.6-36.5,61.1c-19.6,26.8-43.5,53.1-68.9,77h0.3c-21.3,19.9-43.2,37.8-64.9,52.8
		c-9.4-16.8-19.7-33.2-30.6-49.1c0,0,0-0.1-0.1-0.1c-0.8-1.2-1.6-2.4-2.5-3.6h-0.3c-16.2-23.7-33.7-46.6-50.2-68.1
		c-2-2.5-3.9-5-5.8-7.5v-1.1l0,0c-0.1,0-0.2,0.1-0.3,0.2c-0.1,0-0.1,0.1-0.2,0.1c-20.2-26.8-38.9-51.6-51.9-74.4l0,0
		c-4.7-8.4-8.8-16.5-11.9-24.4c-11.9-30.1-10.1-56.2,15.9-77.7c36-30,81.6-24,114.8,17.9c0.2,0.5,0.4,0.9,0.6,1.3
		c-0.2-0.5-0.4-0.9-0.5-1.4c17.3,22.3,31.5,54.3,38.9,96.5c0.7,4.3,1.4,8.6,2,13.1c0-4.6,0.3-9.7,0.8-15
		c3.1-32.6,15.7-75.9,38.1-104.4l3.7-4.2l0.3-0.4l0.6-0.7c20.1-22.6,47.6-32.8,82.4-14.3c10.1,5.4,18.2,11.7,24.4,18.9
		C-127.2,422.9-130.2,461.6-149,503.3z"/>
	<path class="st0" d="M-408.5,564.7v1.1c-0.3-0.3-0.3-0.6-0.6-0.9c0.1,0,0.1,0,0.2-0.1C-408.6,564.9-408.5,564.8-408.5,564.7
		L-408.5,564.7z"/>
	<g class="st1">
		<path class="st2" d="M-349.5,644.9c-0.1,0-0.1,0.1-0.1,0.1c-0.8-1.2-1.6-2.4-2.5-3.6h-0.3c-16.2-23.7-33.7-46.6-50.2-68.1
			c-2-2.5-3.9-5-5.8-7.5v-1.1l0,0c-0.1,0-0.2,0.1-0.3,0.2c-0.1,0-0.1,0.1-0.2,0.1c-20.2-26.8-38.9-51.6-51.9-74.4l0,0
			c-4.7-8.4-8.8-16.5-11.9-24.4c7.3-4.6,15.5-6.8,23.6-6.8c14,0,27.8,6.6,36.5,18.9l48.1,68.1l25.7,36.4
			C-324.6,602.8-329.4,630.6-349.5,644.9z"/>
		<path class="st2" d="M-149,503.3l-200.4,141.6c-0.1,0.1-0.2,0.1-0.3,0.2c0,0,0-0.1-0.1-0.1c-0.8-1.2-1.6-2.4-2.5-3.6h-0.3
			c-16.2-23.7-33.7-46.6-50.2-68.1c0.6-0.5,1.1-0.9,1.7-1.3l36.4-25.7l61.4-43.4l2.8-2L-157,399.5c2-1.4,4-2.6,6.2-3.6
			C-127.2,422.9-130.2,461.6-149,503.3z"/>
	</g>
	<g class="st1">
		<g class="st3">
			<path d="M-131,391.2v2.9c13.6,0,26.3,6.6,34.1,17.6c5,7.1,7.7,15.4,7.7,24c0,13.6-6.6,26.3-17.7,34.1l-244,172.5
				c-7.1,5-15.4,7.6-24,7.6c-0.9,0-1.8,0-2.8-0.1c-1.6-0.1-3.2-0.3-4.6-0.5l-0.3-0.1c-0.7-0.1-1.4-0.3-2.1-0.5
				c-10-2.3-18.7-8.2-24.6-16.5l-73.8-104.4c-6.4-9.1-8.9-20.2-7-31.2s7.9-20.6,17-27c7.1-5,15.4-7.7,24.1-7.7
				c13.6,0,26.3,6.6,34.1,17.6l48.1,68.1l1.7,2.4l2.4-1.7L-155,401.5c7.1-5,15.4-7.6,24-7.6V391.2 M-131,391.2
				c-8.9,0-17.9,2.7-25.7,8.2l-207.8,146.9l-48.1-68.1c-8.7-12.3-22.5-18.9-36.5-18.9c-8.9,0-17.9,2.7-25.8,8.2
				c-20.1,14.2-24.9,42.1-10.7,62.2l73.9,104.5c6.6,9.3,16,15.3,26.3,17.7c0.9,0.2,1.7,0.4,2.6,0.6c1.6,0.3,3.3,0.5,5,0.6
				c1,0.1,1.9,0.1,2.9,0.1c8.9,0,17.9-2.7,25.7-8.2l244-172.5c12.3-8.7,18.9-22.5,18.9-36.5c0-8.9-2.7-17.9-8.2-25.7
				C-103.2,397.8-117,391.2-131,391.2L-131,391.2z"/>
		</g>
	</g>
</g>
<g>
	
	<path class="st5" d="M478.9,519.6C478.8,519.7,478.8,519.7,478.9,519.6c-0.2,0.1-0.2,0.2-0.4,0.2c0,0,0-0.1-0.1-0.1
		c0.1,0,0.1,0,0.2-0.1C478.8,519.6,478.8,519.6,478.9,519.6z"/>
	<path class="st5" d="M479.2,519.5v1.3c-0.4-0.4-0.4-0.6-0.6-1l-0.1-0.1l0,0c0.1,0,0.1,0,0.2-0.1c0.1,0,0.1,0,0.2,0
		C479,519.6,479.2,519.6,479.2,519.5z"/>
	<path class="st5" d="M478.9,519.6C478.8,519.7,478.8,519.7,478.9,519.6c-0.2,0.1-0.2,0.2-0.4,0.2c0,0,0-0.1-0.1-0.1
		c0.1,0,0.1,0,0.2-0.1C478.8,519.6,478.8,519.6,478.9,519.6z"/>
	<path class="st5" d="M790.6,445.8c-10.8,24-25.9,48.7-43.8,73.3c-4.4,6.1-9.1,12.2-13.9,18.2c-20.5,25.8-44,51-68.8,74.2h0.4
		c-0.5,0.5-1,1-1.4,1.3c-25.1,23.4-50.9,44.4-76.4,62.1c-11.3-20.2-23.6-39.8-36.7-58.9c0,0,0,0,0-0.1c0,0,0,0-0.1,0
		c-0.6-1-1.3-1.9-2-3c-0.4-0.5-0.6-1-1-1.3h-0.5c-19.4-28.4-40.4-55.9-60.2-81.7c0,0,0,0,0.1-0.1c-1.6-1.9-3-3.8-4.6-5.8
		c-0.8-1.1-1.6-2.2-2.4-3.1v-1.3l-0.1,0.1c0,0-0.1,0-0.1,0.1l0,0c0,0-0.1,0-0.2,0c-0.1,0.1-0.1,0.1-0.2,0.1c-1.4-1.9-3-4-4.4-5.9
		c-1.6-2-3-4.1-4.6-6c-1.4-1.9-2.9-3.8-4.3-5.8c-5.9-7.8-11.5-15.5-17-23c-1.3-1.9-2.6-3.7-4-5.5c-2-2.8-4-5.6-5.9-8.4
		c-1.2-1.8-2.4-3.6-3.6-5.3c-1.3-1.9-2.5-3.7-3.7-5.6c-1.2-1.8-2.3-3.6-3.5-5.3c-1.7-2.6-3.4-5.3-5-7.9c-1.1-1.8-2.2-3.5-3.1-5.2
		c-0.2-0.4-0.4-0.6-0.6-1c-0.8-1.4-1.7-2.8-2.4-4.2c-2.9-5-5.5-10-7.9-14.9c-2.4-4.9-4.6-9.7-6.4-14.4
		c-14.3-36.1-12.1-67.5,19.1-93.3c38-31.7,85.1-29.9,122.9,5.4c5.2,4.8,10.1,10.1,14.9,16.1c0.2,0.6,0.5,1.1,0.7,1.6
		c-0.2-0.6-0.5-1.1-0.6-1.7c3,3.8,6,8,8.8,12.5c13,19.9,24,45,31.8,75.4c2.3,8.9,4.3,18.2,6,28l0,0c0.8,5.2,1.7,10.3,2.4,15.7
		c0-5.5,0.4-11.6,1-18c0,0,0-0.1,0-0.2c0.7-8,2-16.7,3.7-25.6c5.3-26.8,15-56.2,29.2-80.7c3.8-6.7,8.2-13.1,12.7-19l4.4-5l0.4-0.5
		l0.7-0.8c1.2-1.3,2.4-2.6,3.7-4c23.8-24.2,55.6-34.3,95.2-13.2c12.1,6.5,21.8,14,29.3,22.7c6.4,7.3,11.2,15.4,14.4,24
		c0.2,0.6,0.5,1.2,0.6,1.8c0.5,1.3,1,2.6,1.3,4.1c0.2,0.8,0.5,1.7,0.7,2.5c0.5,1.7,0.8,3.4,1.2,5.2
		C812.2,381.2,805.4,412.6,790.6,445.8z"/>
	<path class="st5" d="M549.8,615.8C549.8,616,549.7,616,549.8,615.8c-0.1,0.1-0.1,0-0.2,0c-0.6-1-1.3-1.9-2-3c-0.4-0.5-0.6-1-1-1.3
		h0.1c0.4,0.5,0.7,1,1,1.3C548.4,613.9,549,614.9,549.8,615.8C549.7,615.8,549.8,615.8,549.8,615.8z"/>
	
	<path class="st6" d="M559,329.3c3,3.8,6,8,8.8,12.5c-1.1,1.3-2,2.8-3,4.3c-5.6,9.1-7.1,42.6-7.3,67.6l0,0c-1-0.1-1.9-0.1-2.9-0.2
		c-0.8-0.1-1.6-0.1-2.4-0.2c-4.2-0.5-8.3-1-12.2-1.6c-1.3-0.2-2.6-0.4-4-0.6c-2.6-0.4-5.2-0.8-7.6-1.3c-2.5-0.5-4.9-1-7.3-1.4l0,0
		c0-19.6,0-42.1,0.4-46.2c1.4-17.5,9.7-35.2,22.4-48.6C549.1,318.1,554,323.5,559,329.3c0.1,0.7,0.4,1.2,0.6,1.7
		C559.3,330.4,559.1,329.9,559,329.3z"/>
	<path class="st6" d="M692.9,408.3L692.9,408.3c-1.4,0.4-2.9,0.6-4.3,1c-1.4,0.2-2.8,0.6-4.2,0.8c-5.5,1.1-10.9,1.9-16.2,2.6
		c-4,0.5-7.8,1-11.5,1.3c-0.1-26-1.4-58.6-7.6-68.3c-2.2-3.4-4.6-6.5-7.2-9.1c3.8-6.7,8.2-13.1,12.7-19l4.4-5l0.4-0.5l0.7-0.8
		c1.2-1.3,2.4-2.6,3.7-4c16.6,14,27.7,34.1,29.2,55.9C693.4,367.6,693.1,389.1,692.9,408.3z"/>
	<path class="st7" d="M557.5,413.6v1.1c13.4,1.4,27.6,2.2,42.1,2.4c2.3,8.9,4.3,18.2,6,28l0,0c0.8,5.2,1.7,10.3,2.4,15.7
		c0-5.5,0.4-11.6,1-18c0,0,0-0.1,0-0.2c0.7-8,2-16.7,3.7-25.6c15.2-0.1,30-1,43.9-2.4v-0.7c0.7-0.1,1.4-0.1,2.2-0.2
		c0.7,0,1.3-0.1,2-0.2h0.1h0.1c0.1,0,0.1,0,0.2,0c1-0.1,1.9-0.2,3-0.4c1.3-0.1,2.6-0.4,3.8-0.5c1.3-0.1,2.6-0.4,4-0.6
		c1.3-0.2,2.6-0.4,4-0.6s2.6-0.5,4.1-0.7s2.8-0.5,4.1-0.7c1.4-0.2,2.8-0.6,4.2-0.8c1.4-0.4,2.9-0.6,4.3-1c0,0.2,0,0.6,0,0.8
		c7-1.4,13-2.9,19.1-4.8c1.6-0.5,3.1-0.7,4.7-0.7c3.5,0,6.8,1.1,9.6,3c4.1,2.9,6.6,7.6,6.6,12.5v118c-20.5,25.8-44,51-68.8,74.2h0.4
		c-0.5,0.5-1,1-1.4,1.3H547.4c-0.4-0.5-0.6-1-1-1.3h-0.4c-19.4-28.4-40.4-55.9-60.2-81.7c0,0,0,0,0.1-0.1c-1.6-1.9-3-3.8-4.6-5.8
		V418.8c0-4.9,2.4-9.6,6.6-12.5c2.8-2,6.1-3,9.6-3c1.6,0,3.1,0.2,4.7,0.7c5.9,1.7,12.1,3.2,18.8,4.7v-0.6"/>
	<path class="st8" d="M557.5,413.6c0.4-25,1.7-58.3,7.3-67.6c9.1-14.8,24.1-23.5,41-23.9c0.6,0,1.2,0,1.8,0
		c17.3,0.1,32.4,8.8,41.5,23.4c6.1,9.8,7.4,42.2,7.6,68.3c10-1,20.6-2.4,31.8-4.7c1.4-0.4,2.9-0.6,4.3-1c0.2-19.2,0.5-40.7,0.1-45.1
		c-2.5-39.2-36.4-72.6-77-75.9c-2.5-0.2-5.2-0.4-7.6-0.4c-22.2-0.2-41.8,6.7-58.2,20.6c-16.3,13.8-27,34.1-28.7,54.4
		c-0.4,4.1-0.4,26.6-0.4,46.2c9.6,2,19.9,3.8,31.1,5C554,413.4,555.7,413.5,557.5,413.6z"/>
	<path class="st8" d="M732.8,419.2v178c0,8.6-7.2,15.6-16.2,15.6H497.8c-8.9,0-16.2-7-16.2-15.6v-178c0-4.9,2.4-9.6,6.6-12.5
		c2.8-2,6.1-3,9.6-3c1.6,0,3.1,0.2,4.7,0.7c6.2,1.8,12.2,3.4,18.7,4.7l0,0c9.6,2,19.9,4,31.1,5c1.8,0.2,3.5,0.4,5.2,0.5l0,0
		c15.7,1.7,32.5,2.5,49.7,2.5s33.8-0.8,49.6-2.5l0,0c10-1,20.6-2.3,31.8-4.6c1.4-0.4,2.9-0.6,4.3-1c0,0.2,0-0.2,0,0
		c7-1.4,13-2.9,19.1-4.8c1.6-0.5,3.1-0.7,4.7-0.7c3.4,0,6.8,1.1,9.6,3C730.4,409.8,732.8,414.3,732.8,419.2z"/>
	<rect class="st9" width="1200" height="1109"/>
</g>
</svg>
