<?xml version="1.0" encoding="utf-8"?>
<!-- Generator: Adobe Illustrator 27.0.0, SVG Export Plug-In . SVG Version: 6.00 Build 0)  -->
<svg version="1.1" id="Layer_1" xmlns="http://www.w3.org/2000/svg" xmlns:xlink="http://www.w3.org/1999/xlink" x="0px" y="0px"
	 viewBox="0 0 828 764" style="enable-background:new 0 0 828 764;" xml:space="preserve">
<style type="text/css">
	.st0{fill:none;stroke:#000000;stroke-width:2.0136;stroke-miterlimit:10;}
	.st1{enable-background:new    ;}
	.st2{fill:#FA0CF7;}
	.st3{fill:#E5BDBE;}
	.st4{fill:none;stroke:#000000;stroke-width:2.9975;stroke-miterlimit:10;}
	.st5{fill:none;}
</style>
<g>
	
	<g>
		<g>
			<path class="st2" d="M552.3,361.5c-0.7,0.3-1.2,0.6-1.9,0.8c-24.8,9-38.1,10.1-41.4,10.2l-0.2,0.1c-0.4,0.1-0.8,0-1.2,0.1
				l-0.2,0.1c-0.8,0-1.7,0.1-2.4,0.1c0,0-0.3-0.2-0.6-0.1c-0.6-0.1-1.1,0.1-1.7,0.1c-0.2,0.1-0.3-0.2-0.6-0.1
				c-0.6-0.1-1.2-0.2-1.7-0.2c-6-1.2-14.7-12.2-21.3-28.4c-1-2.5-1.9-5.1-2.8-7.9c-1.2-3.6-2.2-7.5-3.1-11.6
				c-1.4-6.6-0.9-13.7-0.7-21.1c0-1.2,0.1-2.3,0.1-3.4c0-0.2,0-0.5,0-0.7c0-0.1-2.1-0.1,0,0c0,0-0.1,0.2-0.2,0.7
				c-0.2,0.7-0.6,1.8-1.1,3.4c-3.6,11.2-15.8,43.2-43.5,72.3c-8.2,8.7-17.8,17-29,24.6c-16.5,11.1-31.4,20-44.4,27.2
				c-36.7,20.2-58.9,26.4-60.5,27c-8.4,2.9-39.8-64.7-41.6-78.5c-0.6-4.4,59,0.6,109.2-28.9c1.7-0.9,3.2-1.9,4.8-2.8
				c3.1-1.9,6-3.9,8.9-6c38.7-27.9,51.1-64.9,55.4-68.9c-7.2,3-14.8,5.8-22.4,8.3c-0.3,0.1-0.7,0.2-1,0.3c-1.2,0.4-2.2,0.7-3.4,1.1
				c-8.5,2.7-17,5-25.1,6.9c-15.3,3.6-29.3,5.6-39.2,5.3c-7-0.1-12.1-1.6-14.1-4.1c-0.3-0.2-0.5-0.7-0.7-1.2
				c-0.1-0.2-0.1-0.2-0.1-0.2l-0.7-2c-3.3-11.9-1.7-48.6,2.1-68.1c3.3-16.9,192-24.6,201.3-18.2c12.4,8.4,48.1,143.6,48.7,150.8
				C576.2,353.3,565.9,356.8,552.3,361.5z"/>
		</g>
		<path class="st3" d="M472.3,300.2c-0.2,0.7-0.6,1.8-1.1,3.4c-3.6,11.2-15.8,43.2-43.5,72.3l-3.6-2.6c-0.1-0.1-0.2-0.1-0.2,0
			L361,418.1c-0.2,0.1-0.4-0.1-0.3-0.2l24-72.3c0-0.1,0-0.2-0.1-0.2l-9.5-6.8c38.7-27.9,51.1-64.9,55.4-68.9
			c-7.2,3-14.8,5.8-22.4,8.3c-0.3,0.1-0.7,0.2-1,0.3l16.8-50.6c0.1-0.2,0.3-0.2,0.4,0l24,72.3c0,0.1,0.1,0.2,0.2,0.2L472.3,300.2
			L472.3,300.2z"/>
		<path class="st3" d="M526.4,300.6l-50.2,35.6c-1.2-3.6-2.2-7.5-3.1-11.6c-1.4-6.6-0.9-13.7-0.7-21.1c0-1.2,0.1-2.3,0.1-3.4h53.8
			C526.5,300.2,526.6,300.5,526.4,300.6z"/>
		<path class="st4" d="M424.3,227.6l24,72.3c0,0.1,0.1,0.2,0.2,0.2h77.8c0.2,0,0.3,0.2,0.2,0.4l-62.9,44.7c-0.1,0.1-0.1,0.2-0.1,0.2
			l24,72.3c0.1,0.2-0.2,0.3-0.3,0.2l-62.9-44.7c-0.1-0.1-0.2-0.1-0.2,0L361,418.1c-0.2,0.1-0.4-0.1-0.3-0.2l24-72.3
			c0-0.1,0-0.2-0.1-0.2l-62.9-44.7c-0.2-0.1-0.1-0.4,0.2-0.4h77.8c0.1,0,0.2-0.1,0.2-0.2l24-72.3
			C423.9,227.5,424.2,227.5,424.3,227.6z"/>
	</g>
	<rect class="st5" width="828" height="764"/>
</g>
</svg>
