<?xml version="1.0" encoding="utf-8"?>
<!-- Generator: Adobe Illustrator 27.0.0, SVG Export Plug-In . SVG Version: 6.00 Build 0)  -->
<svg version="1.1" id="Layer_1" xmlns="http://www.w3.org/2000/svg" xmlns:xlink="http://www.w3.org/1999/xlink" x="0px" y="0px"
	 viewBox="0 0 640 142" style="enable-background:new 0 0 640 142;" xml:space="preserve">
<style type="text/css">
	.st0{clip-path:url(#SVGID_00000075856856039609643600000016545238406601967242_);}
	.st1{fill:#FF492C;}
	.st2{enable-background:new    ;}
</style>
<g>
	<g>
		<g>
			<g>
				<g>
					<defs>
						<rect id="SVGID_1_" y="0.1" width="134" height="141.8"/>
					</defs>
					<clipPath id="SVGID_00000099659143575728626500000017233929957158392983_">
						<use xlink:href="#SVGID_1_"  style="overflow:visible;"/>
					</clipPath>
					<g style="clip-path:url(#SVGID_00000099659143575728626500000017233929957158392983_);">
						<path class="st1" d="M94.6,100.9c4.9,9.1,9.8,18.3,15.3,26.9c-22.2,17.7-56.7,19.8-82.3-0.5C-1.9,103.9-6.9,64.5,8.9,36.1
							C27.1,3.1,61.1-4,82.8,1.6C82.4,3.1,69,31,69,31s-1,0-1.5,0c-6.4,0.5-11.3,2.1-16.2,4.6c-5.4,3-10.4,7.6-14.3,12.6
							c-3.5,5.5-5.9,11.6-6.4,18.3c-1,6.6,0,13.2,2.5,19.2c2,5.1,4.9,9.6,8.8,13.7c5.9,6.1,13.3,9.6,21.7,11.1
							c7.9,1,15.3,0,22.7-3.6c2.5-1.5,4.9-3,7.4-5.1C94.1,101.8,94.1,101.4,94.6,100.9z"/>
						<path class="st1" d="M94.6,21.9c-1.5-1.5-2.5-2.5-3.5-3.6c-0.5-0.5-1.5-1.5-2-2.1c-0.5-0.5-1-1-1-1s0.5-0.5,0.5-1
							c1.5-3,3.5-5.1,5.9-6.6c2.9-1.5,6.4-2.5,9.8-2.5c4.5,0,8.4,1,11.8,4c2.5,2.1,3.9,5.1,3.9,8.1c0.5,5.5-2,10.1-6.4,13.2
							c-2.5,1.5-5.4,3-8.4,4.6c-1.5,1-2.9,1.5-4.5,3.6c-1.5,1.5-1.5,3-1.5,3h20.7v9.1H88.6c0,0,0-0.5,0-1c0-4.6,0.5-9.1,2.5-13.2
							s4.9-6.6,8.4-8.6c2.9-1.5,5.4-3,8.4-4.6c1.5-1,2.9-2.5,2.9-4.6s-1.5-3.6-3.5-4c-4.5-1-8.8,0.5-11.3,5.1
							C95.6,20.3,95.1,20.8,94.6,21.9z"/>
						<path class="st1" d="M134,91.2l-17.2-30.4h-34L65.6,91.2H100l16.8,30.4L134,91.2z"/>
					</g>
				</g>
			</g>
		</g>
	</g>
	<path d="M334.1,12.8h-12.8L304,39.1v9.6h20.7v9.1h8.8v-9.1h4.5v-8.6h-4.5L334.1,12.8L334.1,12.8z M313.4,40.1l12.3-18.7v18.7H313.4
		z"/>
	<path d="M354.8,57.8h9.8V46.7h-9.8V57.8z"/>
	<path d="M424.2,70.5h4.9l17.8-60.2H442L424.2,70.5z"/>
	<path d="M461.2,12.8l-2.5,23.8l8.4,2.5c1.5-1.5,3.9-3,6.9-3c3.9,0,6.4,2.5,6.4,6.6s-2,7.1-6.4,7.1c-3.9,0-6.4-2.1-7.4-5.5l-9.4,2.1
		c1.5,8.1,7.4,12.2,16.8,12.2c9.8,0,16.2-6.1,16.2-15.7s-5.4-14.2-13.8-14.2c-3.9,0-7.4,1-9.4,2.5l1.5-9.1h19.7v-9.2H461.2z"/>
	<path d="M193.2,119.1c1.5,8.6,6.9,12.6,15.3,12.6s14.8-4,14.8-12.6c0-6.6-2.9-10.7-9.8-12.2l-6.9-1.5c-4.9-1-6.4-3.6-6.4-7.1
		c0-4.6,2.9-7.6,8.4-7.6c5.9,0,8.4,3.6,9.4,8.1l5.4-1c-1-7.6-5.9-12.2-14.3-12.2c-7.9,0-13.8,5.1-13.8,12.6s3.9,10.7,10.4,12.2
		l6.9,1.5c4.5,1,5.9,3,5.9,7.1c0,4.6-3.5,7.6-9.4,7.6c-6.4,0-8.8-3-10.4-8.6L193.2,119.1z"/>
	<path d="M230.6,91.7h12.8v39.5h5.4V91.7h12.8v-5.1h-31.5v5.1C230.1,91.7,230.6,91.7,230.6,91.7z"/>
	<path d="M287.8,86.2h-6.9l-13.3,45h5.4l3.5-12.2h15.8l3.5,12.2h5.4L287.8,86.2z M277.4,114l6.4-22.8l6.4,22.8H277.4z"/>
	<path d="M308.5,131.2h5.4V114h9.4l8.8,17.2h5.9l-9.4-17.7c5.4-2.1,7.9-6.6,7.9-13.2c0-9.6-4.5-13.7-12.8-13.7h-15.3L308.5,131.2
		L308.5,131.2z M313.8,108.9V91.2h9.4c4.9,0,7.9,2.1,7.9,8.6c0,5.5-2.5,8.6-7.9,8.6L313.8,108.9L313.8,108.9z"/>
	<path d="M344.9,119.1c1.5,8.6,6.9,12.6,15.3,12.6s14.8-4,14.8-12.6c0-6.6-2.9-10.7-9.8-12.2l-6.9-1.5c-4.9-1-6.4-3.6-6.4-7.1
		c0-4.6,2.9-7.6,8.4-7.6c5.9,0,8.4,3.6,9.4,8.1l5.4-1c-1-7.6-5.9-12.2-14.3-12.2c-7.9,0-13.8,5.1-13.8,12.6s3.9,10.7,10.4,12.2
		l6.9,1.5c4.5,1,5.9,3,5.9,7.1c0,4.6-3.5,7.6-9.4,7.6c-6.4,0-8.8-3-10.4-8.6L344.9,119.1z"/>
	<path d="M422.3,131.2h5.4V114h9.4l8.8,17.2h5.9l-9.4-17.7c5.4-2.1,7.9-6.6,7.9-13.2c0-9.6-4.5-13.7-12.8-13.7h-15.3L422.3,131.2
		L422.3,131.2z M427.7,108.9V91.2h9.4c4.9,0,7.9,2.1,7.9,8.6c0,5.5-2.5,8.6-7.9,8.6L427.7,108.9L427.7,108.9z"/>
	<path d="M477,86.2H470l-13.3,45h5.4l3.5-12.2h15.8l3.5,12.2h5.9L477,86.2z M466.6,114l6.4-22.8l6.4,22.8H466.6z"/>
	<path d="M495.6,91.7h12.8v39.5h5.4V91.7h12.8v-5.1h-31.5v5.1C495.2,91.7,495.6,91.7,495.6,91.7z"/>
	<path d="M536.1,131.2h25.6v-5.1h-10.4V91.2h10.4v-5.1h-25.6v5.1h10.4v34.5h-10.4V131.2z"/>
	<path d="M600.6,131.2v-45h-4.9v37l-15.3-37h-6.9v45h4.9v-37l15.3,37C593.7,131.2,600.6,131.2,600.6,131.2z"/>
	<path d="M639.5,110h-13.8v5.1h8.8v1.5c0,5.5-2.9,10.1-9.4,10.1c-6.9,0-10.8-7.1-10.8-18.3s3.9-18.3,10.4-18.3
		c5.4,0,7.9,4.6,9.4,10.1l5.4-1c-1.5-9.1-6.9-14.2-14.3-14.2c-9.4,0-15.8,8.6-15.8,23.3s6.4,23.3,15.8,23.3c4.5,0,7.9-2.1,9.8-5.5
		v4.6h4.9L639.5,110L639.5,110z"/>
	<g class="st2">
		<path d="M401.6,38.6c-3.5,3.6-7.4,4-9.8,4c-7.9,0-12.8-5.1-12.8-14.2c0-8.6,5.9-15.7,16.8-15.7c10.8,0,17.2,8.1,17.2,20.8
			c0,16.2-8.4,24.8-19.7,24.8c-4.9,0-8.8-1-13.3-3.6l4.5-8.1c2.9,2.5,5.9,3,8.4,3C397.1,49.7,401.1,47.7,401.6,38.6L401.6,38.6z
			 M395.1,21.9c-3.5,0-5.4,2.5-5.4,6.6c0,3.6,2,5.5,5.4,5.5c2.5,0,4.9-1.5,6.4-4C401.6,24.9,399.6,21.9,395.1,21.9z"/>
	</g>
</g>
</svg>
