<?xml version="1.0" encoding="utf-8"?>
<!-- Generator: Adobe Illustrator 27.0.0, SVG Export Plug-In . SVG Version: 6.00 Build 0)  -->
<svg version="1.1" id="Layer_1" xmlns="http://www.w3.org/2000/svg" xmlns:xlink="http://www.w3.org/1999/xlink" x="0px" y="0px"
	 viewBox="0 0 1920 426" style="enable-background:new 0 0 1920 426;" xml:space="preserve">
<style type="text/css">
	.st0{clip-path:url(#SVGID_00000024688811496512101860000016799354418932654779_);}
	.st1{fill:#FF492C;}
	.st2{enable-background:new    ;}
</style>
<g>
	<g>
		<g>
			<g>
				<g>
					<defs>
						<rect id="SVGID_1_" y="0.3" width="402.1" height="425.3"/>
					</defs>
					<clipPath id="SVGID_00000065763671123435224700000007469260313579553723_">
						<use xlink:href="#SVGID_1_"  style="overflow:visible;"/>
					</clipPath>
					<g style="clip-path:url(#SVGID_00000065763671123435224700000007469260313579553723_);">
						<path class="st1" d="M283.8,302.6c14.8,27.3,29.5,54.8,45.9,80.6c-66.5,53.1-170,59.3-246.9-1.4
							C-5.8,311.8-20.6,193.5,26.7,108.4C81.4,9.4,183.4-12,248.5,4.8C247.1,9.4,207.1,93,207.1,93s-3,0-4.4,0
							c-19.2,1.4-33.9,6.2-48.7,13.7c-16.2,9-31.1,22.8-42.9,37.9c-10.4,16.6-17.8,34.9-19.2,54.8c-3,19.7,0,39.6,7.4,57.6
							c6,15.2,14.8,28.9,26.5,41c17.8,18.3,39.9,28.9,65.1,33.4c23.7,3.1,45.9,0,68.1-10.7c7.4-4.5,14.8-9,22.2-15.2
							C282.4,305.5,282.4,304.1,283.8,302.6z"/>
						<path class="st1" d="M283.8,65.6c-4.4-4.5-7.4-7.6-10.4-10.7c-1.4-1.4-4.4-4.5-6-6.2c-1.4-1.4-3-3.1-3-3.1s1.4-1.4,1.4-3.1
							c4.4-9,10.4-15.2,17.8-19.7c8.8-4.5,19.2-7.6,29.5-7.6c13.4,0,25.1,3.1,35.5,12.1c7.4,6.2,11.8,15.2,11.8,24.4
							c1.4,16.6-6,30.4-19.2,39.6c-7.4,4.5-16.2,9-25.1,13.7c-4.4,3.1-8.8,4.5-13.4,10.7c-4.4,4.5-4.4,9-4.4,9h62.1v27.3h-94.6
							c0,0,0-1.4,0-3.1c0-13.7,1.4-27.3,7.4-39.6c6-12.3,14.8-19.7,25.1-25.8c8.8-4.5,16.2-9,25.1-13.7c4.4-3.1,8.8-7.6,8.8-13.7
							s-4.4-10.7-10.4-12.1c-13.4-3.1-26.5,1.4-33.9,15.2C286.8,61,285.4,62.5,283.8,65.6z"/>
						<path class="st1" d="M402.1,273.7l-51.7-91.1h-102l-51.7,91.1h103.4l50.3,91.1L402.1,273.7z"/>
					</g>
				</g>
			</g>
		</g>
	</g>
	<path d="M1002.2,38.3h-38.5l-51.7,79v28.9h62.1v27.3h26.5v-27.3h13.4v-25.8h-13.4L1002.2,38.3L1002.2,38.3z M940.1,120.3l36.9-56.2
		v56.2H940.1z"/>
	<path d="M1064.3,173.4h29.5V140h-29.5V173.4z"/>
	<path d="M1272.6,211.4h14.8l53.3-180.7h-14.8L1272.6,211.4z"/>
	<path d="M1383.6,38.3l-7.4,71.4l25.1,7.6c4.4-4.5,11.8-9,20.8-9c11.8,0,19.2,7.6,19.2,19.7s-6,21.3-19.2,21.3
		c-11.8,0-19.2-6.2-22.2-16.6l-28.1,6.2c4.4,24.4,22.2,36.5,50.3,36.5c29.5,0,48.7-18.3,48.7-47.2s-16.2-42.5-41.3-42.5
		c-11.8,0-22.2,3.1-28.1,7.6l4.4-27.3h59.1V38.3H1383.6z"/>
	<path d="M579.5,357.2c4.4,25.8,20.8,37.9,45.9,37.9c25.1,0,44.3-12.1,44.3-37.9c0-19.7-8.8-32-29.5-36.5l-20.8-4.5
		c-14.8-3.1-19.2-10.7-19.2-21.3c0-13.7,8.8-22.8,25.1-22.8c17.8,0,25.1,10.7,28.1,24.4l16.2-3.1c-3-22.8-17.8-36.5-42.9-36.5
		c-23.7,0-41.3,15.2-41.3,37.9c0,22.8,11.8,32,31.1,36.5l20.8,4.5c13.4,3.1,17.8,9,17.8,21.3c0,13.7-10.4,22.8-28.1,22.8
		c-19.2,0-26.5-9-31.1-25.8L579.5,357.2z"/>
	<path d="M691.9,275.1h38.5v118.5h16.2V275.1h38.5V260h-94.6v15.2C690.3,275.1,691.9,275.1,691.9,275.1z"/>
	<path d="M863.3,258.5h-20.8l-39.9,135.1h16.2l10.4-36.5h47.3l10.4,36.5H903L863.3,258.5z M832.2,342l19.2-68.3l19.2,68.3H832.2z"/>
	<path d="M925.4,393.7h16.2V342h28.1l26.5,51.7h17.8l-28.1-53.1c16.2-6.2,23.7-19.7,23.7-39.6c0-28.9-13.4-41-38.5-41h-45.9v133.7
		H925.4z M941.5,326.8v-53.1h28.1c14.8,0,23.7,6.2,23.7,25.8c0,16.6-7.4,25.8-23.7,25.8L941.5,326.8L941.5,326.8z"/>
	<path d="M1034.7,357.2c4.4,25.8,20.8,37.9,45.9,37.9c25.1,0,44.3-12.1,44.3-37.9c0-19.7-8.8-32-29.5-36.5l-20.8-4.5
		c-14.8-3.1-19.2-10.7-19.2-21.3c0-13.7,8.8-22.8,25.1-22.8c17.8,0,25.1,10.7,28.1,24.4l16.2-3.1c-3-22.8-17.8-36.5-42.9-36.5
		c-23.7,0-41.3,15.2-41.3,37.9c0,22.8,11.8,32,31.1,36.5l20.8,4.5c13.4,3.1,17.8,9,17.8,21.3c0,13.7-10.4,22.8-28.1,22.8
		c-19.2,0-26.5-9-31.1-25.8L1034.7,357.2z"/>
	<path d="M1266.8,393.7h16.2V342h28.1l26.5,51.7h17.8l-28.1-53.1c16.2-6.2,23.7-19.7,23.7-39.6c0-28.9-13.4-41-38.5-41h-45.9v133.7
		H1266.8z M1283,326.8v-53.1h28.1c14.8,0,23.7,6.2,23.7,25.8c0,16.6-7.4,25.8-23.7,25.8L1283,326.8L1283,326.8z"/>
	<path d="M1430.9,258.5h-20.8l-39.9,135.1h16.2l10.4-36.5h47.3l10.4,36.5h17.8L1430.9,258.5z M1399.7,342l19.2-68.3l19.2,68.3
		H1399.7z"/>
	<path d="M1486.9,275.1h38.5v118.5h16.2V275.1h38.5V260h-94.6v15.2C1485.6,275.1,1486.9,275.1,1486.9,275.1z"/>
	<path d="M1608.3,393.7h76.8v-15.2H1654V273.7h31.1v-15.2h-76.8v15.2h31.1v103.4h-31.1V393.7z"/>
	<path d="M1801.9,393.7V258.5h-14.8v110.9l-45.9-110.9h-20.6v135.1h14.8V282.7l45.9,110.9C1781.1,393.7,1801.9,393.7,1801.9,393.7z"
		/>
	<path d="M1918.6,329.9h-41.3v15.2h26.5v4.5c0,16.6-8.8,30.4-28.1,30.4c-20.8,0-32.5-21.3-32.5-54.8s11.8-54.8,31.1-54.8
		c16.2,0,23.7,13.7,28.1,30.4l16.2-3.1c-4.4-27.3-20.8-42.5-42.9-42.5c-28.1,0-47.3,25.8-47.3,69.9s19.2,69.9,47.3,69.9
		c13.4,0,23.7-6.2,29.5-16.6v13.7h14.8L1918.6,329.9L1918.6,329.9z"/>
	<g class="st2">
		<path d="M1204.8,115.8c-10.4,10.7-22.2,12.1-29.5,12.1c-23.7,0-38.5-15.2-38.5-42.5c0-25.8,17.8-47.2,50.3-47.2
			s51.7,24.4,51.7,62.3c0,48.6-25.1,74.4-59.1,74.4c-14.8,0-26.5-3.1-39.9-10.7l13.4-24.4c8.8,7.6,17.8,9,25.1,9
			C1191.4,149.2,1203.2,143.1,1204.8,115.8L1204.8,115.8z M1185.4,65.6c-10.4,0-16.2,7.6-16.2,19.7c0,10.7,6,16.6,16.2,16.6
			c7.4,0,14.8-4.5,19.2-12.1C1204.8,74.8,1198.8,65.6,1185.4,65.6z"/>
	</g>
</g>
</svg>
