<?xml version="1.0" encoding="utf-8"?>
<!-- Generator: Adobe Illustrator 27.0.0, SVG Export Plug-In . SVG Version: 6.00 Build 0)  -->
<svg version="1.1" id="Layer_1" xmlns="http://www.w3.org/2000/svg" xmlns:xlink="http://www.w3.org/1999/xlink" x="0px" y="0px"
	 viewBox="0 0 828 183.7" style="enable-background:new 0 0 828 183.7;" xml:space="preserve">
<style type="text/css">
	.st0{clip-path:url(#SVGID_00000067232152451446529950000003793493495848324257_);}
	.st1{fill:#FF492C;}
	.st2{enable-background:new    ;}
</style>
<g>
	<g>
		<g>
			<g>
				<g>
					<defs>
						<rect id="SVGID_1_" y="0.1" width="173.4" height="183.4"/>
					</defs>
					<clipPath id="SVGID_00000077294312233044432820000014848442406589903037_">
						<use xlink:href="#SVGID_1_"  style="overflow:visible;"/>
					</clipPath>
					<g style="clip-path:url(#SVGID_00000077294312233044432820000014848442406589903037_);">
						<path class="st1" d="M122.4,130.5c6.4,11.8,12.7,23.6,19.8,34.8c-28.7,22.9-73.3,25.6-106.5-0.6
							C-2.5,134.5-8.9,83.5,11.5,46.8C35.1,4,79.1-5.2,107.1,2.1c-0.6,1.9-17.8,38-17.8,38s-1.3,0-1.9,0c-8.3,0.6-14.6,2.7-21,5.9
							c-7,3.9-13.4,9.8-18.5,16.4c-4.5,7.2-7.7,15-8.3,23.6c-1.3,8.5,0,17.1,3.2,24.9c2.6,6.5,6.4,12.5,11.4,17.7
							C62,136.4,71.5,141,82.4,143c10.2,1.3,19.8,0,29.3-4.6c3.2-1.9,6.4-3.9,9.6-6.5C121.8,131.7,121.8,131.1,122.4,130.5z"/>
						<path class="st1" d="M122.4,28.3c-1.9-1.9-3.2-3.3-4.5-4.6c-0.6-0.6-1.9-1.9-2.6-2.7c-0.6-0.6-1.3-1.3-1.3-1.3
							s0.6-0.6,0.6-1.3c1.9-3.9,4.5-6.5,7.7-8.5c3.8-1.9,8.3-3.3,12.7-3.3c5.8,0,10.8,1.3,15.3,5.2c3.2,2.7,5.1,6.5,5.1,10.5
							c0.6,7.2-2.6,13.1-8.3,17.1c-3.2,1.9-7,3.9-10.8,5.9c-1.9,1.3-3.8,1.9-5.8,4.6c-1.9,1.9-1.9,3.9-1.9,3.9h26.8v11.8h-40.8
							c0,0,0-0.6,0-1.3c0-5.9,0.6-11.8,3.2-17.1c2.6-5.3,6.4-8.5,10.8-11.1c3.8-1.9,7-3.9,10.8-5.9c1.9-1.3,3.8-3.3,3.8-5.9
							s-1.9-4.6-4.5-5.2c-5.8-1.3-11.4,0.6-14.6,6.5C123.7,26.3,123.1,26.9,122.4,28.3z"/>
						<path class="st1" d="M173.4,118l-22.3-39.3h-44L84.9,118h44.6l21.7,39.3L173.4,118z"/>
					</g>
				</g>
			</g>
		</g>
	</g>
	<path d="M432.2,16.5h-16.6l-22.3,34V63h26.8v11.8h11.4V63h5.8V51.9h-5.8L432.2,16.5L432.2,16.5z M405.4,51.9l15.9-24.2v24.2H405.4z
		"/>
	<path d="M459,74.8h12.7V60.4H459V74.8z"/>
	<path d="M548.8,91.1h6.4l23-77.9h-6.4L548.8,91.1z"/>
	<path d="M596.7,16.5l-3.2,30.8l10.8,3.3c1.9-1.9,5.1-3.9,9-3.9c5.1,0,8.3,3.3,8.3,8.5s-2.6,9.2-8.3,9.2c-5.1,0-8.3-2.7-9.6-7.2
		l-12.1,2.7c1.9,10.5,9.6,15.7,21.7,15.7c12.7,0,21-7.9,21-20.3s-7-18.3-17.8-18.3c-5.1,0-9.6,1.3-12.1,3.3l1.9-11.8h25.5V16.5
		H596.7z"/>
	<path d="M249.9,154c1.9,11.1,9,16.4,19.8,16.4c10.8,0,19.1-5.2,19.1-16.4c0-8.5-3.8-13.8-12.7-15.7l-9-1.9
		c-6.4-1.3-8.3-4.6-8.3-9.2c0-5.9,3.8-9.8,10.8-9.8c7.7,0,10.8,4.6,12.1,10.5l7-1.3c-1.3-9.8-7.7-15.7-18.5-15.7
		c-10.2,0-17.8,6.5-17.8,16.4s5.1,13.8,13.4,15.7l9,1.9c5.8,1.3,7.7,3.9,7.7,9.2c0,5.9-4.5,9.8-12.1,9.8c-8.3,0-11.4-3.9-13.4-11.1
		L249.9,154z"/>
	<path d="M298.4,118.7H315v51.1h7v-51.1h16.6v-6.5h-40.8v6.5C297.7,118.7,298.4,118.7,298.4,118.7z"/>
	<path d="M372.3,111.5h-9l-17.2,58.3h7l4.5-15.7H378l4.5,15.7h7L372.3,111.5z M358.9,147.5l8.3-29.5l8.3,29.5H358.9z"/>
	<path d="M399.1,169.8h7v-22.3h12.1l11.4,22.3h7.7l-12.1-22.9c7-2.7,10.2-8.5,10.2-17.1c0-12.5-5.8-17.7-16.6-17.7H399L399.1,169.8
		L399.1,169.8z M406,140.9V118h12.1c6.4,0,10.2,2.7,10.2,11.1c0,7.2-3.2,11.1-10.2,11.1L406,140.9L406,140.9z"/>
	<path d="M446.2,154c1.9,11.1,9,16.4,19.8,16.4c10.8,0,19.1-5.2,19.1-16.4c0-8.5-3.8-13.8-12.7-15.7l-9-1.9
		c-6.4-1.3-8.3-4.6-8.3-9.2c0-5.9,3.8-9.8,10.8-9.8c7.7,0,10.8,4.6,12.1,10.5l7-1.3c-1.3-9.8-7.7-15.7-18.5-15.7
		c-10.2,0-17.8,6.5-17.8,16.4s5.1,13.8,13.4,15.7l9,1.9c5.8,1.3,7.7,3.9,7.7,9.2c0,5.9-4.5,9.8-12.1,9.8c-8.3,0-11.4-3.9-13.4-11.1
		L446.2,154z"/>
	<path d="M546.3,169.8h7v-22.3h12.1l11.4,22.3h7.7l-12.1-22.9c7-2.7,10.2-8.5,10.2-17.1c0-12.5-5.8-17.7-16.6-17.7h-19.8
		L546.3,169.8L546.3,169.8z M553.3,140.9V118h12.1c6.4,0,10.2,2.7,10.2,11.1c0,7.2-3.2,11.1-10.2,11.1L553.3,140.9L553.3,140.9z"/>
	<path d="M617.1,111.5h-9l-17.2,58.3h7l4.5-15.7h20.4l4.5,15.7h7.7L617.1,111.5z M603.6,147.5l8.3-29.5l8.3,29.5H603.6z"/>
	<path d="M641.2,118.7h16.6v51.1h7v-51.1h16.6v-6.5h-40.8v6.5C640.6,118.7,641.2,118.7,641.2,118.7z"/>
	<path d="M693.6,169.8h33.1v-6.5h-13.4V118h13.4v-6.5h-33.1v6.5H707v44.6h-13.4V169.8z"/>
	<path d="M777.1,169.8v-58.3h-6.4v47.8l-19.8-47.8H742v58.3h6.4v-47.8l19.8,47.8C768.1,169.8,777.1,169.8,777.1,169.8z"/>
	<path d="M827.4,142.3h-17.8v6.5H821v1.9c0,7.2-3.8,13.1-12.1,13.1c-9,0-14-9.2-14-23.6c0-14.4,5.1-23.6,13.4-23.6
		c7,0,10.2,5.9,12.1,13.1l7-1.3c-1.9-11.8-9-18.3-18.5-18.3c-12.1,0-20.4,11.1-20.4,30.2s8.3,30.2,20.4,30.2
		c5.8,0,10.2-2.7,12.7-7.2v5.9h6.4L827.4,142.3L827.4,142.3z"/>
	<g class="st2">
		<path d="M519.6,49.9c-4.5,4.6-9.6,5.2-12.7,5.2c-10.2,0-16.6-6.5-16.6-18.3c0-11.1,7.7-20.3,21.7-20.3c14,0,22.3,10.5,22.3,26.9
			c0,21-10.8,32.1-25.5,32.1c-6.4,0-11.4-1.3-17.2-4.6l5.8-10.5c3.8,3.3,7.7,3.9,10.8,3.9C513.8,64.4,518.9,61.7,519.6,49.9
			L519.6,49.9z M511.2,28.3c-4.5,0-7,3.3-7,8.5c0,4.6,2.6,7.2,7,7.2c3.2,0,6.4-1.9,8.3-5.2C519.6,32.2,517,28.3,511.2,28.3z"/>
	</g>
</g>
</svg>
