<?xml version="1.0" encoding="utf-8"?>
<!-- Generator: Adobe Illustrator 27.0.0, SVG Export Plug-In . SVG Version: 6.00 Build 0)  -->
<svg version="1.1" id="Layer_1" xmlns="http://www.w3.org/2000/svg" xmlns:xlink="http://www.w3.org/1999/xlink" x="0px" y="0px"
	 viewBox="0 0 2048 454.4" style="enable-background:new 0 0 2048 454.4;" xml:space="preserve">
<style type="text/css">
	.st0{clip-path:url(#SVGID_00000090983472970466858390000001053169761310712998_);}
	.st1{fill:#FF492C;}
	.st2{enable-background:new    ;}
</style>
<g>
	<g>
		<g>
			<g>
				<g>
					<defs>
						<rect id="SVGID_1_" y="0.4" width="428.9" height="453.7"/>
					</defs>
					<clipPath id="SVGID_00000047027731379607490410000011803055772290558892_">
						<use xlink:href="#SVGID_1_"  style="overflow:visible;"/>
					</clipPath>
					<g style="clip-path:url(#SVGID_00000047027731379607490410000011803055772290558892_);">
						<path class="st1" d="M302.7,322.8c15.8,29.1,31.5,58.4,49,86c-70.9,56.7-181.4,63.2-263.3-1.5
							C-6.2,332.6-21.9,206.4,28.5,115.6C86.9,10,195.6-12.8,265,5.2C263.5,10,221,99.2,221,99.2s-3.2,0-4.7,0
							c-20.4,1.5-36.2,6.6-51.9,14.7c-17.2,9.6-33.2,24.3-45.8,40.5c-11.1,17.7-18.9,37.2-20.4,58.4c-3.2,21,0,42.2,7.9,61.5
							c6.4,16.2,15.8,30.8,28.3,43.7c18.9,19.5,42.6,30.8,69.4,35.7c25.3,3.3,49,0,72.6-11.4c7.9-4.8,15.8-9.6,23.6-16.2
							C301.2,325.9,301.2,324.3,302.7,322.8z"/>
						<path class="st1" d="M302.7,69.9c-4.7-4.8-7.9-8.1-11.1-11.4c-1.5-1.5-4.7-4.8-6.4-6.6c-1.5-1.5-3.2-3.3-3.2-3.3
							s1.5-1.5,1.5-3.3c4.7-9.6,11.1-16.2,18.9-21c9.4-4.8,20.4-8.1,31.5-8.1c14.3,0,26.8,3.3,37.9,12.9c7.9,6.6,12.6,16.2,12.6,26
							c1.5,17.7-6.4,32.4-20.4,42.2c-7.9,4.8-17.2,9.6-26.8,14.7c-4.7,3.3-9.4,4.8-14.3,11.4c-4.7,4.8-4.7,9.6-4.7,9.6h66.2v29.1
							H283.5c0,0,0-1.5,0-3.3c0-14.7,1.5-29.1,7.9-42.2c6.4-13.1,15.8-21,26.8-27.6c9.4-4.8,17.2-9.6,26.8-14.7
							c4.7-3.3,9.4-8.1,9.4-14.7s-4.7-11.4-11.1-12.9c-14.3-3.3-28.3,1.5-36.2,16.2C305.9,65.1,304.4,66.6,302.7,69.9z"/>
						<path class="st1" d="M428.9,291.9l-55.1-97.1H265l-55.1,97.1h110.3l53.6,97.1L428.9,291.9z"/>
					</g>
				</g>
			</g>
		</g>
	</g>
	<path d="M1069,40.8h-41.1L972.8,125v30.8h66.2V185h28.3v-29.1h14.3v-27.6h-14.3L1069,40.8L1069,40.8z M1002.8,128.3l39.4-59.9v59.9
		H1002.8z"/>
	<path d="M1135.2,185h31.5v-35.7h-31.5V185z"/>
	<path d="M1357.5,225.5h15.8L1430,32.7h-15.8L1357.5,225.5z"/>
	<path d="M1475.8,40.8l-7.9,76.1l26.8,8.1c4.7-4.8,12.6-9.6,22.1-9.6c12.6,0,20.4,8.1,20.4,21s-6.4,22.7-20.4,22.7
		c-12.6,0-20.4-6.6-23.6-17.7l-30,6.6c4.7,26,23.6,38.9,53.6,38.9c31.5,0,51.9-19.5,51.9-50.3s-17.2-45.3-44.1-45.3
		c-12.6,0-23.6,3.3-30,8.1l4.7-29.1h63V40.8H1475.8z"/>
	<path d="M618.2,381c4.7,27.6,22.1,40.5,49,40.5s47.3-12.9,47.3-40.5c0-21-9.4-34.1-31.5-38.9l-22.1-4.8
		c-15.8-3.3-20.4-11.4-20.4-22.7c0-14.7,9.4-24.3,26.8-24.3c18.9,0,26.8,11.4,30,26l17.2-3.3c-3.2-24.3-18.9-38.9-45.8-38.9
		c-25.3,0-44.1,16.2-44.1,40.5c0,24.3,12.6,34.1,33.2,38.9l22.1,4.8c14.3,3.3,18.9,9.6,18.9,22.7c0,14.7-11.1,24.3-30,24.3
		c-20.4,0-28.3-9.6-33.2-27.6L618.2,381z"/>
	<path d="M738,293.5h41.1v126.4h17.2V293.5h41.1v-16.2H736.5v16.2C736.3,293.5,738,293.5,738,293.5z"/>
	<path d="M920.9,275.8h-22.1l-42.6,144.2h17.2l11.1-38.9h50.4l11.1,38.9h17.2L920.9,275.8z M887.7,364.8l20.4-72.8l20.4,72.8H887.7z
		"/>
	<path d="M987.1,419.9h17.2v-55.1h30l28.3,55.1h18.9l-30-56.7c17.2-6.6,25.3-21,25.3-42.2c0-30.8-14.3-43.7-41.1-43.7h-49v142.6
		H987.1z M1004.3,348.6v-56.7h30c15.8,0,25.3,6.6,25.3,27.6c0,17.7-7.9,27.6-25.3,27.6L1004.3,348.6L1004.3,348.6z"/>
	<path d="M1103.7,381c4.7,27.6,22.1,40.5,49,40.5c26.8,0,47.3-12.9,47.3-40.5c0-21-9.4-34.1-31.5-38.9l-22.1-4.8
		c-15.8-3.3-20.4-11.4-20.4-22.7c0-14.7,9.4-24.3,26.8-24.3c18.9,0,26.8,11.4,30,26l17.2-3.3c-3.2-24.3-18.9-38.9-45.8-38.9
		c-25.3,0-44.1,16.2-44.1,40.5c0,24.3,12.6,34.1,33.2,38.9l22.1,4.8c14.3,3.3,18.9,9.6,18.9,22.7c0,14.7-11.1,24.3-30,24.3
		c-20.4,0-28.3-9.6-33.2-27.6L1103.7,381z"/>
	<path d="M1351.3,419.9h17.2v-55.1h30l28.3,55.1h18.9l-30-56.7c17.2-6.6,25.3-21,25.3-42.2c0-30.8-14.3-43.7-41.1-43.7h-49v142.6
		H1351.3z M1368.5,348.6v-56.7h30c15.8,0,25.3,6.6,25.3,27.6c0,17.7-7.9,27.6-25.3,27.6L1368.5,348.6L1368.5,348.6z"/>
	<path d="M1526.3,275.8h-22.1l-42.6,144.2h17.2l11.1-38.9h50.4l11.1,38.9h18.9L1526.3,275.8z M1493.1,364.8l20.4-72.8l20.4,72.8
		H1493.1z"/>
	<path d="M1586.1,293.5h41.1v126.4h17.2V293.5h41.1v-16.2h-100.9v16.2C1584.6,293.5,1586.1,293.5,1586.1,293.5z"/>
	<path d="M1715.5,419.9h82v-16.2h-33.2V291.9h33.2v-16.2h-82v16.2h33.2v110.2h-33.2V419.9z"/>
	<path d="M1922,419.9V275.8h-15.8v118.3l-49-118.3h-21.9v144.2h15.8V301.6l49,118.3C1899.8,419.9,1922,419.9,1922,419.9z"/>
	<path d="M2046.5,351.9h-44.1v16.2h28.3v4.8c0,17.7-9.4,32.4-30,32.4c-22.1,0-34.7-22.7-34.7-58.4s12.6-58.4,33.2-58.4
		c17.2,0,25.3,14.7,30,32.4l17.2-3.3c-4.7-29.1-22.1-45.3-45.8-45.3c-30,0-50.4,27.6-50.4,74.6s20.4,74.6,50.4,74.6
		c14.3,0,25.3-6.6,31.5-17.7v14.7h15.8L2046.5,351.9L2046.5,351.9z"/>
	<g class="st2">
		<path d="M1285.1,123.5c-11.1,11.4-23.6,12.9-31.5,12.9c-25.3,0-41.1-16.2-41.1-45.3c0-27.6,18.9-50.3,53.6-50.3s55.1,26,55.1,66.5
			c0,51.8-26.8,79.4-63,79.4c-15.8,0-28.3-3.3-42.6-11.4l14.3-26c9.4,8.1,18.9,9.6,26.8,9.6C1270.8,159.2,1283.4,152.6,1285.1,123.5
			L1285.1,123.5z M1264.4,69.9c-11.1,0-17.2,8.1-17.2,21c0,11.4,6.4,17.7,17.2,17.7c7.9,0,15.8-4.8,20.4-12.9
			C1285.1,79.8,1278.7,69.9,1264.4,69.9z"/>
	</g>
</g>
</svg>
