<?xml version="1.0" encoding="utf-8"?>
<!-- Generator: Adobe Illustrator 27.0.0, SVG Export Plug-In . SVG Version: 6.00 Build 0)  -->
<svg version="1.1" id="Layer_1" xmlns="http://www.w3.org/2000/svg" xmlns:xlink="http://www.w3.org/1999/xlink" x="0px" y="0px"
	 viewBox="0 0 1000 238.6" style="enable-background:new 0 0 1000 238.6;" xml:space="preserve">
<style type="text/css">
	.st0{clip-path:url(#SVGID_00000146472601741495230670000010540833572221796229_);}
	.st1{fill:#FF492C;}
	.st2{enable-background:new    ;}
</style>
<g>
	<g>
		<g>
			<defs>
				<rect id="SVGID_1_" x="22.8" y="14.6" width="201.5" height="207.4"/>
			</defs>
			<clipPath id="SVGID_00000091017242588193277010000012358429039221635756_">
				<use xlink:href="#SVGID_1_"  style="overflow:visible;"/>
			</clipPath>
			<g style="clip-path:url(#SVGID_00000091017242588193277010000012358429039221635756_);">
				<path class="st1" d="M165,162c7.4,13.3,14.8,26.7,23,39.3c-33.3,25.9-85.2,28.9-123.7-0.7c-44.4-34.1-51.8-91.8-28.1-133.3
					C63.6,19,114.7,8.6,147.3,16.8c-0.7,2.2-20.7,43-20.7,43s-1.5,0-2.2,0c-9.6,0.7-17,3-24.4,6.7c-8.1,4.4-15.6,11.1-21.5,18.5
					c-5.2,8.1-8.9,17-9.6,26.7c-1.5,9.6,0,19.3,3.7,28.1c3,7.4,7.4,14.1,13.3,20c8.9,8.9,20,14.1,32.6,16.3c11.9,1.5,23,0,34.1-5.2
					c3.7-2.2,7.4-4.4,11.1-7.4C164.3,163.4,164.3,162.7,165,162z"/>
				<path class="st1" d="M165,46.4c-2.2-2.2-3.7-3.7-5.2-5.2c-0.7-0.7-2.2-2.2-3-3c-0.7-0.7-1.5-1.5-1.5-1.5s0.7-0.7,0.7-1.5
					c2.2-4.4,5.2-7.4,8.9-9.6c4.4-2.2,9.6-3.7,14.8-3.7c6.7,0,12.6,1.5,17.8,5.9c3.7,3,5.9,7.4,5.9,11.9c0.7,8.1-3,14.8-9.6,19.3
					c-3.7,2.2-8.1,4.4-12.6,6.7c-2.2,1.5-4.4,2.2-6.7,5.2c-2.2,2.2-2.2,4.4-2.2,4.4h31.1v13.3h-47.4c0,0,0-0.7,0-1.5
					c0-6.7,0.7-13.3,3.7-19.3s7.4-9.6,12.6-12.6c4.4-2.2,8.1-4.4,12.6-6.7c2.2-1.5,4.4-3.7,4.4-6.7s-2.2-5.2-5.2-5.9
					c-6.7-1.5-13.3,0.7-17,7.4C166.5,44.2,165.8,44.9,165,46.4z"/>
				<path class="st1" d="M224.3,147.9l-25.9-44.4h-51.1l-25.9,44.4h51.8l25.2,44.4L224.3,147.9z"/>
			</g>
		</g>
	</g>
</g>
<path d="M525,33.1h-19.3l-25.9,38.5v14.1h31.1V99h13.3V85.7h6.7V73.1h-6.7L525,33.1L525,33.1z M493.9,73.1l18.5-27.4v27.4
	C512.4,73.1,493.9,73.1,493.9,73.1z"/>
<path d="M556.1,99h14.8V82.7h-14.8V99z"/>
<path d="M660.5,117.5h7.4l26.7-88.1h-7.4L660.5,117.5z"/>
<path d="M716.1,33.1l-3.7,34.8l12.6,3.7c2.2-2.2,5.9-4.4,10.4-4.4c5.9,0,9.6,3.7,9.6,9.6c0,5.9-3,10.4-9.6,10.4
	c-5.9,0-9.6-3-11.1-8.1l-14.1,3c2.2,11.9,11.1,17.8,25.2,17.8c14.8,0,24.4-8.9,24.4-23s-8.1-20.7-20.7-20.7
	c-5.9,0-11.1,1.5-14.1,3.7l2.2-13.3h29.6V33.1H716.1z"/>
<path d="M313.2,188.6c2.2,12.6,10.4,18.5,23,18.5s22.2-5.9,22.2-18.5c0-9.6-4.4-15.6-14.8-17.8l-10.4-2.2c-7.4-1.5-9.6-5.2-9.6-10.4
	c0-6.7,4.4-11.1,12.6-11.1c8.9,0,12.6,5.2,14.1,11.9l8.1-1.5c-1.5-11.1-8.9-17.8-21.5-17.8c-11.9,0-20.7,7.4-20.7,18.5
	c0,11.1,5.9,15.6,15.6,17.8l10.4,2.2c6.7,1.5,8.9,4.4,8.9,10.4c0,6.7-5.2,11.1-14.1,11.1c-9.6,0-13.3-4.4-15.6-12.6L313.2,188.6z"/>
<path d="M369.5,148.6h19.3v57.8h8.1v-57.8h19.3v-7.4h-47.4v7.4C368.7,148.6,369.5,148.6,369.5,148.6z"/>
<path d="M455.4,140.5H445l-20,65.9h8.1l5.2-17.8H462l5.2,17.8h8.1L455.4,140.5z M439.8,181.2l9.6-33.3l9.6,33.3H439.8z"/>
<path d="M486.5,206.4h8.1v-25.2h14.1l13.3,25.2h8.9l-14.1-25.9c8.1-3,11.9-9.6,11.9-19.3c0-14.1-6.7-20-19.3-20h-23V206.4z
	 M494.6,173.8v-25.9h14.1c7.4,0,11.9,3,11.9,12.6c0,8.1-3.7,12.6-11.9,12.6L494.6,173.8L494.6,173.8z"/>
<path d="M541.3,188.6c2.2,12.6,10.4,18.5,23,18.5s22.2-5.9,22.2-18.5c0-9.6-4.4-15.6-14.8-17.8l-10.4-2.2c-7.4-1.5-9.6-5.2-9.6-10.4
	c0-6.7,4.4-11.1,12.6-11.1c8.9,0,12.6,5.2,14.1,11.9l8.1-1.5c-1.5-11.1-8.9-17.8-21.5-17.8c-11.9,0-20.7,7.4-20.7,18.5
	c0,11.1,5.9,15.6,15.6,17.8l10.4,2.2c6.7,1.5,8.9,4.4,8.9,10.4c0,6.7-5.2,11.1-14.1,11.1c-9.6,0-13.3-4.4-15.6-12.6L541.3,188.6z"/>
<path d="M657.6,206.4h8.1v-25.2h14.1l13.3,25.2h8.9l-14.1-25.9c8.1-3,11.9-9.6,11.9-19.3c0-14.1-6.7-20-19.3-20h-23V206.4z
	 M665.7,173.8v-25.9h14.1c7.4,0,11.9,3,11.9,12.6c0,8.1-3.7,12.6-11.9,12.6L665.7,173.8L665.7,173.8z"/>
<path d="M739.8,140.5h-10.4l-20,65.9h8.1l5.2-17.8h23.7l5.2,17.8h8.9L739.8,140.5z M724.2,181.2l9.6-33.3l9.6,33.3H724.2z"/>
<path d="M767.9,148.6h19.3v57.8h8.1v-57.8h19.3v-7.4h-47.4v7.4C767.2,148.6,767.9,148.6,767.9,148.6z"/>
<path d="M828.7,206.4h38.5V199h-15.6v-51.1h15.6v-7.4h-38.5v7.4h15.6v50.4h-15.6V206.4z"/>
<path d="M925.7,206.4v-65.9h-7.4v54.1l-23-54.1H885v65.9h7.4v-54.1l23,54.1C915.3,206.4,925.7,206.4,925.7,206.4z"/>
<path d="M984.2,175.3h-20.7v7.4h13.3v2.2c0,8.1-4.4,14.8-14.1,14.8c-10.4,0-16.3-10.4-16.3-26.7s5.9-26.7,15.6-26.7
	c8.1,0,11.9,6.7,14.1,14.8l8.1-1.5c-2.2-13.3-10.4-20.7-21.5-20.7c-14.1,0-23.7,12.6-23.7,34.1s9.6,34.1,23.7,34.1
	c6.7,0,11.9-3,14.8-8.1v6.7h7.4L984.2,175.3L984.2,175.3z"/>
<g class="st2">
	<path d="M626.5,70.9c-5.2,5.2-11.1,5.9-14.8,5.9c-11.9,0-19.3-7.4-19.3-20.7c0-12.6,8.9-23,25.2-23c16.3,0,25.9,11.9,25.9,30.4
		c0,23.7-12.6,36.3-29.6,36.3c-7.4,0-13.3-1.5-20-5.2l6.7-11.9c4.4,3.7,8.9,4.4,12.6,4.4C619.8,87.2,625.7,84.2,626.5,70.9
		L626.5,70.9z M616.8,46.4c-5.2,0-8.1,3.7-8.1,9.6c0,5.2,3,8.1,8.1,8.1c3.7,0,7.4-2.2,9.6-5.9C626.5,50.9,623.5,46.4,616.8,46.4z"/>
</g>
</svg>
