<?xml version="1.0" encoding="utf-8"?>
<!-- Generator: Adobe Illustrator 27.0.0, SVG Export Plug-In . SVG Version: 6.00 Build 0)  -->
<svg version="1.1" id="Layer_1" xmlns="http://www.w3.org/2000/svg" xmlns:xlink="http://www.w3.org/1999/xlink" x="0px" y="0px"
	 viewBox="0 0 3840 852" style="enable-background:new 0 0 3840 852;" xml:space="preserve">
<style type="text/css">
	.st0{clip-path:url(#SVGID_00000139994571680971467480000004884171887551069601_);}
	.st1{fill:#FF492C;}
	.st2{enable-background:new    ;}
</style>
<g>
	<g>
		<g>
			<g>
				<g>
					<defs>
						<rect id="SVGID_1_" y="0.7" width="804.2" height="850.7"/>
					</defs>
					<clipPath id="SVGID_00000107548449747766040550000002207037469131062951_">
						<use xlink:href="#SVGID_1_"  style="overflow:visible;"/>
					</clipPath>
					<g style="clip-path:url(#SVGID_00000107548449747766040550000002207037469131062951_);">
						<path class="st1" d="M567.6,605.2c29.5,54.5,59.1,109.5,91.8,161.2C526.4,872.7,319.3,885,165.6,763.6
							C-11.6,623.7-41.1,387,53.5,216.8C162.8,18.7,366.8-23.9,496.9,9.7c-2.8,9-82.6,176.4-82.6,176.4s-6,0-8.8,0
							c-38.3,2.9-67.9,12.3-97.4,27.5c-32.3,18-62.3,45.5-85.8,75.9c-20.8,33.2-35.5,69.7-38.3,109.5c-6,39.4,0,79.2,14.8,115.3
							c12,30.4,29.5,57.8,53.1,82c35.5,36.5,79.8,57.8,130.1,66.9c47.5,6.2,91.8,0,136.1-21.3c14.8-9,29.5-18,44.3-30.4
							C564.8,611,564.8,608.1,567.6,605.2z"/>
						<path class="st1" d="M567.6,131.1c-8.8-9-14.8-15.2-20.8-21.3c-2.8-2.9-8.8-9-12-12.3c-2.8-2.9-6-6.2-6-6.2s2.8-2.9,2.8-6.2
							c8.8-18,20.8-30.4,35.5-39.4c17.6-9,38.3-15.2,59.1-15.2c26.7,0,50.3,6.2,71,24.2c14.8,12.3,23.5,30.4,23.5,48.8
							c2.8,33.2-12,60.7-38.3,79.2c-14.8,9-32.3,18-50.3,27.5c-8.8,6.2-17.6,9-26.7,21.3c-8.8,9-8.8,18-8.8,18h124.1v54.5H531.6
							c0,0,0-2.9,0-6.2c0-27.5,2.8-54.5,14.8-79.2c12-24.6,29.5-39.4,50.3-51.7c17.6-9,32.3-18,50.3-27.5
							c8.8-6.2,17.6-15.2,17.6-27.5s-8.8-21.3-20.8-24.2c-26.7-6.2-53.1,2.9-67.9,30.4C573.5,122.1,570.8,125,567.6,131.1z"/>
						<path class="st1" d="M804.2,547.4L700.9,365.3h-204L393.5,547.4h206.7l100.6,182.1L804.2,547.4z"/>
					</g>
				</g>
			</g>
		</g>
	</g>
	<path d="M2004.4,76.6h-77L1824,234.5v57.8h124.1v54.5h53.1v-54.5h26.7v-51.7h-26.7L2004.4,76.6L2004.4,76.6z M1880.3,240.6
		l73.8-112.4v112.4H1880.3z"/>
	<path d="M2128.5,346.8h59.1V280h-59.1V346.8z"/>
	<path d="M2545.2,422.7h29.5l106.6-361.3h-29.5L2545.2,422.7z"/>
	<path d="M2767.1,76.6l-14.8,142.7l50.3,15.2c8.8-9,23.5-18,41.5-18c23.5,0,38.3,15.2,38.3,39.4s-12,42.7-38.3,42.7
		c-23.5,0-38.3-12.3-44.3-33.2l-56.3,12.3c8.8,48.8,44.3,73,100.6,73c59.1,0,97.4-36.5,97.4-94.3s-32.3-84.9-82.6-84.9
		c-23.5,0-44.3,6.2-56.3,15.2l8.8-54.5h118.1V76.6H2767.1z"/>
	<path d="M1159.1,714.3c8.8,51.7,41.5,75.9,91.8,75.9c50.3,0,88.6-24.2,88.6-75.9c0-39.4-17.6-64-59.1-73l-41.5-9
		c-29.5-6.2-38.3-21.3-38.3-42.7c0-27.5,17.6-45.5,50.3-45.5c35.5,0,50.3,21.3,56.3,48.8l32.3-6.2c-6-45.5-35.5-73-85.8-73
		c-47.5,0-82.6,30.4-82.6,75.9c0,45.5,23.5,64,62.3,73l41.5,9c26.7,6.2,35.5,18,35.5,42.7c0,27.5-20.8,45.5-56.3,45.5
		c-38.3,0-53.1-18-62.3-51.7L1159.1,714.3z"/>
	<path d="M1383.8,550.3h77v237.1h32.3V550.3h77v-30.4H1381v30.4C1380.6,550.3,1383.8,550.3,1383.8,550.3z"/>
	<path d="M1726.6,517.1h-41.5l-79.8,270.3h32.3l20.8-73h94.6l20.8,73h32.3L1726.6,517.1z M1664.4,684l38.3-136.6L1741,684H1664.4z"
		/>
	<path d="M1850.8,787.3h32.3V684h56.3l53.1,103.4h35.5l-56.3-106.2c32.3-12.3,47.5-39.4,47.5-79.2c0-57.8-26.7-82-77-82h-91.8v267.4
		H1850.8z M1883.1,653.6V547.4h56.3c29.5,0,47.5,12.3,47.5,51.7c0,33.2-14.8,51.7-47.5,51.7L1883.1,653.6L1883.1,653.6z"/>
	<path d="M2069.5,714.3c8.8,51.7,41.5,75.9,91.8,75.9c50.3,0,88.6-24.2,88.6-75.9c0-39.4-17.6-64-59.1-73l-41.5-9
		c-29.5-6.2-38.3-21.3-38.3-42.7c0-27.5,17.6-45.5,50.3-45.5c35.5,0,50.3,21.3,56.3,48.8l32.3-6.2c-6-45.5-35.5-73-85.8-73
		c-47.5,0-82.6,30.4-82.6,75.9c0,45.5,23.5,64,62.3,73l41.5,9c26.7,6.2,35.5,18,35.5,42.7c0,27.5-20.8,45.5-56.3,45.5
		c-38.3,0-53.1-18-62.3-51.7L2069.5,714.3z"/>
	<path d="M2533.7,787.3h32.3V684h56.3l53.1,103.4h35.5l-56.3-106.2c32.3-12.3,47.5-39.4,47.5-79.2c0-57.8-26.7-82-77-82h-91.8v267.4
		H2533.7z M2566,653.6V547.4h56.3c29.5,0,47.5,12.3,47.5,51.7c0,33.2-14.8,51.7-47.5,51.7L2566,653.6L2566,653.6z"/>
	<path d="M2861.7,517.1h-41.5l-79.8,270.3h32.3l20.8-73h94.6l20.8,73h35.5L2861.7,517.1z M2799.5,684l38.3-136.6l38.3,136.6H2799.5z
		"/>
	<path d="M2973.9,550.3h77v237.1h32.3V550.3h77v-30.4h-189.2v30.4C2971.1,550.3,2973.9,550.3,2973.9,550.3z"/>
	<path d="M3216.6,787.3h153.7V757H3308V547.4h62.3v-30.4h-153.7v30.4h62.3v206.7h-62.3V787.3z"/>
	<path d="M3603.7,787.3V517.1h-29.5v221.9l-91.8-221.9h-41.1v270.3h29.5V565.5l91.8,221.9C3562.2,787.3,3603.7,787.3,3603.7,787.3z"
		/>
	<path d="M3837.2,659.8h-82.6v30.4h53.1v9c0,33.2-17.6,60.7-56.3,60.7c-41.5,0-65.1-42.7-65.1-109.5s23.5-109.5,62.3-109.5
		c32.3,0,47.5,27.5,56.3,60.7l32.3-6.2c-8.8-54.5-41.5-84.9-85.8-84.9c-56.3,0-94.6,51.7-94.6,139.9s38.3,139.9,94.6,139.9
		c26.7,0,47.5-12.3,59.1-33.2v27.5h29.5L3837.2,659.8L3837.2,659.8z"/>
	<g class="st2">
		<path d="M2409.5,231.6c-20.8,21.3-44.3,24.2-59.1,24.2c-47.5,0-77-30.4-77-84.9c0-51.7,35.5-94.3,100.6-94.3
			s103.4,48.8,103.4,124.7c0,97.2-50.3,148.9-118.1,148.9c-29.5,0-53.1-6.2-79.8-21.3l26.7-48.8c17.6,15.2,35.5,18,50.3,18
			C2382.8,298.4,2406.3,286.1,2409.5,231.6L2409.5,231.6z M2370.8,131.1c-20.8,0-32.3,15.2-32.3,39.4c0,21.3,12,33.2,32.3,33.2
			c14.8,0,29.5-9,38.3-24.2C2409.5,149.6,2397.6,131.1,2370.8,131.1z"/>
	</g>
</g>
</svg>
