<?xml version="1.0" encoding="utf-8"?>
<!-- Generator: Adobe Illustrator 27.0.0, SVG Export Plug-In . SVG Version: 6.00 Build 0)  -->
<svg version="1.1" id="Layer_1" xmlns="http://www.w3.org/2000/svg" xmlns:xlink="http://www.w3.org/1999/xlink" x="0px" y="0px"
	 viewBox="0 0 1200 266.2" style="enable-background:new 0 0 1200 266.2;" xml:space="preserve">
<style type="text/css">
	.st0{clip-path:url(#SVGID_00000003801599695363355310000009891296731045732242_);}
	.st1{fill:#FF492C;}
	.st2{enable-background:new    ;}
</style>
<g>
	<g>
		<g>
			<g>
				<g>
					<defs>
						<rect id="SVGID_1_" y="0.2" width="251.3" height="265.8"/>
					</defs>
					<clipPath id="SVGID_00000096035221959816367610000002561968252944084097_">
						<use xlink:href="#SVGID_1_"  style="overflow:visible;"/>
					</clipPath>
					<g style="clip-path:url(#SVGID_00000096035221959816367610000002561968252944084097_);">
						<path class="st1" d="M177.4,189.1c9.2,17,18.5,34.2,28.7,50.4c-41.5,33.2-106.3,37-154.3-0.9c-55.4-43.7-64.6-117.7-35-170.9
							C50.9,5.9,114.6-7.5,155.3,3c-0.9,2.8-25.8,55.1-25.8,55.1s-1.9,0-2.7,0c-12,0.9-21.2,3.8-30.4,8.6
							C86.2,72.4,76.8,81,69.5,90.4c-6.5,10.4-11.1,21.8-12,34.2c-1.9,12.3,0,24.7,4.6,36c3.7,9.5,9.2,18.1,16.6,25.6
							c11.1,11.4,24.9,18.1,40.7,20.9c14.8,1.9,28.7,0,42.5-6.7c4.6-2.8,9.2-5.6,13.8-9.5C176.5,190.9,176.5,190,177.4,189.1z"/>
						<path class="st1" d="M177.4,41c-2.7-2.8-4.6-4.7-6.5-6.7c-0.9-0.9-2.7-2.8-3.7-3.8c-0.9-0.9-1.9-1.9-1.9-1.9s0.9-0.9,0.9-1.9
							c2.7-5.6,6.5-9.5,11.1-12.3c5.5-2.8,12-4.7,18.5-4.7c8.4,0,15.7,1.9,22.2,7.6c4.6,3.8,7.4,9.5,7.4,15.3
							c0.9,10.4-3.7,19-12,24.7c-4.6,2.8-10.1,5.6-15.7,8.6c-2.7,1.9-5.5,2.8-8.4,6.7c-2.7,2.8-2.7,5.6-2.7,5.6h38.8v17h-59.1
							c0,0,0-0.9,0-1.9c0-8.6,0.9-17,4.6-24.7c3.7-7.7,9.2-12.3,15.7-16.1c5.5-2.8,10.1-5.6,15.7-8.6c2.7-1.9,5.5-4.7,5.5-8.6
							s-2.7-6.7-6.5-7.6c-8.4-1.9-16.6,0.9-21.2,9.5C179.2,38.1,178.4,39,177.4,41z"/>
						<path class="st1" d="M251.3,171.1L219,114.2h-63.7L123,171.1h64.6L219,228L251.3,171.1z"/>
					</g>
				</g>
			</g>
		</g>
	</g>
	<path d="M626.4,23.9h-24.1L570,73.3v18.1h38.8v17h16.6v-17h8.4V75.2h-8.4L626.4,23.9L626.4,23.9z M587.6,75.2l23.1-35.1v35.1H587.6
		z"/>
	<path d="M665.2,108.4h18.5V87.5h-18.5V108.4z"/>
	<path d="M795.4,132.1h9.2l33.3-112.9h-9.2L795.4,132.1z"/>
	<path d="M864.7,23.9l-4.6,44.6l15.7,4.7c2.7-2.8,7.4-5.6,13-5.6c7.4,0,12,4.7,12,12.3c0,7.6-3.7,13.3-12,13.3
		c-7.4,0-12-3.8-13.8-10.4l-17.6,3.8c2.7,15.3,13.8,22.8,31.4,22.8c18.5,0,30.4-11.4,30.4-29.5s-10.1-26.5-25.8-26.5
		c-7.4,0-13.8,1.9-17.6,4.7l2.7-17h36.9V23.9H864.7z"/>
	<path d="M362.2,223.2c2.7,16.1,13,23.7,28.7,23.7c15.7,0,27.7-7.6,27.7-23.7c0-12.3-5.5-20-18.5-22.8l-13-2.8
		c-9.2-1.9-12-6.7-12-13.3c0-8.6,5.5-14.2,15.7-14.2c11.1,0,15.7,6.7,17.6,15.3l10.1-1.9c-1.9-14.2-11.1-22.8-26.8-22.8
		c-14.8,0-25.8,9.5-25.8,23.7s7.4,20,19.5,22.8l13,2.8c8.4,1.9,11.1,5.6,11.1,13.3c0,8.6-6.5,14.2-17.6,14.2
		c-12,0-16.6-5.6-19.5-16.1L362.2,223.2z"/>
	<path d="M432.4,172h24.1V246h10.1V172h24.1v-9.5h-59.1v9.5C431.4,172,432.4,172,432.4,172z"/>
	<path d="M539.6,161.6h-13L501.7,246h10.1l6.5-22.8h29.6l6.5,22.8h10.1L539.6,161.6z M520.1,213.7l12-42.7l12,42.7H520.1z"/>
	<path d="M578.4,246h10.1v-32.3H606l16.6,32.3h11.1l-17.6-33.2c10.1-3.8,14.8-12.3,14.8-24.7c0-18.1-8.4-25.6-24.1-25.6h-28.7V246
		H578.4z M588.5,204.3v-33.2H606c9.2,0,14.8,3.8,14.8,16.1c0,10.4-4.6,16.1-14.8,16.1L588.5,204.3L588.5,204.3z"/>
	<path d="M646.7,223.2c2.7,16.1,13,23.7,28.7,23.7s27.7-7.6,27.7-23.7c0-12.3-5.5-20-18.5-22.8l-13-2.8c-9.2-1.9-12-6.7-12-13.3
		c0-8.6,5.5-14.2,15.7-14.2c11.1,0,15.7,6.7,17.6,15.3l10.1-1.9c-1.9-14.2-11.1-22.8-26.8-22.8c-14.8,0-25.8,9.5-25.8,23.7
		s7.4,20,19.5,22.8l13,2.8c8.4,1.9,11.1,5.6,11.1,13.3c0,8.6-6.5,14.2-17.6,14.2c-12,0-16.6-5.6-19.5-16.1L646.7,223.2z"/>
	<path d="M791.8,246h10.1v-32.3h17.6L836,246h11.1l-17.6-33.2c10.1-3.8,14.8-12.3,14.8-24.7c0-18.1-8.4-25.6-24.1-25.6h-28.7V246
		H791.8z M801.9,204.3v-33.2h17.6c9.2,0,14.8,3.8,14.8,16.1c0,10.4-4.6,16.1-14.8,16.1L801.9,204.3L801.9,204.3z"/>
	<path d="M894.3,161.6h-13L856.4,246h10.1l6.5-22.8h29.6L909,246h11.1L894.3,161.6z M874.8,213.7l12-42.7l12,42.7H874.8z"/>
	<path d="M929.3,172h24.1V246h10.1V172h24.1v-9.5h-59.1v9.5C928.5,172,929.3,172,929.3,172z"/>
	<path d="M1005.2,246h48v-9.5h-19.5v-65.5h19.5v-9.5h-48v9.5h19.5v64.6h-19.5V246z"/>
	<path d="M1126.2,246v-84.5h-9.2v69.3l-28.7-69.3h-12.8V246h9.2v-69.3l28.7,69.3C1113.2,246,1126.2,246,1126.2,246z"/>
	<path d="M1199.1,206.2h-25.8v9.5h16.6v2.8c0,10.4-5.5,19-17.6,19c-13,0-20.3-13.3-20.3-34.2s7.4-34.2,19.5-34.2
		c10.1,0,14.8,8.6,17.6,19l10.1-1.9c-2.7-17-13-26.5-26.8-26.5c-17.6,0-29.6,16.1-29.6,43.7s12,43.7,29.6,43.7
		c8.4,0,14.8-3.8,18.5-10.4v8.6h9.2L1199.1,206.2L1199.1,206.2z"/>
	<g class="st2">
		<path d="M753,72.4c-6.5,6.7-13.8,7.6-18.5,7.6c-14.8,0-24.1-9.5-24.1-26.5c0-16.1,11.1-29.5,31.4-29.5s32.3,15.3,32.3,39
			c0,30.4-15.7,46.5-36.9,46.5c-9.2,0-16.6-1.9-24.9-6.7l8.4-15.3c5.5,4.7,11.1,5.6,15.7,5.6C744.6,93.3,752,89.4,753,72.4L753,72.4
			z M740.9,41c-6.5,0-10.1,4.7-10.1,12.3c0,6.7,3.7,10.4,10.1,10.4c4.6,0,9.2-2.8,12-7.6C753,46.7,749.2,41,740.9,41z"/>
	</g>
</g>
</svg>
