<?xml version="1.0" encoding="utf-8"?>
<!-- Generator: Adobe Illustrator 27.0.0, SVG Export Plug-In . SVG Version: 6.00 Build 0)  -->
<svg version="1.1" id="Layer_1" xmlns="http://www.w3.org/2000/svg" xmlns:xlink="http://www.w3.org/1999/xlink" x="0px" y="0px"
	 viewBox="0 0 750 166.4" style="enable-background:new 0 0 750 166.4;" xml:space="preserve">
<style type="text/css">
	.st0{clip-path:url(#SVGID_00000076592069336437621260000013963888870604221853_);}
	.st1{fill:#FF492C;}
	.st2{enable-background:new    ;}
</style>
<g>
	<g>
		<g>
			<g>
				<g>
					<defs>
						<rect id="SVGID_1_" y="0.1" width="157.1" height="166.1"/>
					</defs>
					<clipPath id="SVGID_00000106839466252809234090000011955857508901540998_">
						<use xlink:href="#SVGID_1_"  style="overflow:visible;"/>
					</clipPath>
					<g style="clip-path:url(#SVGID_00000106839466252809234090000011955857508901540998_);">
						<path class="st1" d="M110.9,118.2c5.8,10.7,11.5,21.4,17.9,31.5c-26,20.7-66.4,23.2-96.4-0.6C-2.3,121.8-8,75.6,10.4,42.3
							C31.8,3.7,71.6-4.7,97.1,1.9c-0.5,1.8-16.1,34.4-16.1,34.4s-1.2,0-1.7,0c-7.5,0.6-13.3,2.4-19,5.4
							c-6.3,3.5-12.2,8.9-16.8,14.8c-4.1,6.5-6.9,13.6-7.5,21.4c-1.2,7.7,0,15.5,2.9,22.5c2.3,5.9,5.8,11.3,10.4,16
							c6.9,7.1,15.6,11.3,25.4,13.1c9.3,1.2,17.9,0,26.6-4.2c2.9-1.8,5.8-3.5,8.7-5.9C110.3,119.3,110.3,118.8,110.9,118.2z"/>
						<path class="st1" d="M110.9,25.6c-1.7-1.8-2.9-3-4.1-4.2c-0.5-0.6-1.7-1.8-2.3-2.4c-0.5-0.6-1.2-1.2-1.2-1.2s0.5-0.6,0.5-1.2
							c1.7-3.5,4.1-5.9,6.9-7.7c3.4-1.8,7.5-3,11.5-3c5.2,0,9.8,1.2,13.9,4.7c2.9,2.4,4.6,5.9,4.6,9.5c0.5,6.5-2.3,11.9-7.5,15.5
							c-2.9,1.8-6.3,3.5-9.8,5.4c-1.7,1.2-3.4,1.8-5.2,4.2c-1.7,1.8-1.7,3.5-1.7,3.5h24.2v10.7h-37c0,0,0-0.6,0-1.2
							c0-5.4,0.5-10.7,2.9-15.5c2.3-4.8,5.8-7.7,9.8-10.1c3.4-1.8,6.3-3.5,9.8-5.4c1.7-1.2,3.4-3,3.4-5.4s-1.7-4.2-4.1-4.7
							c-5.2-1.2-10.4,0.6-13.3,5.9C112,23.8,111.5,24.4,110.9,25.6z"/>
						<path class="st1" d="M157.1,106.9l-20.2-35.6H97.1l-20.2,35.6h40.4l19.6,35.6L157.1,106.9z"/>
					</g>
				</g>
			</g>
		</g>
	</g>
	<path d="M391.5,15h-15l-20.2,30.8v11.3h24.2v10.7h10.4V57.1h5.2V47h-5.2L391.5,15L391.5,15z M367.2,47L381.7,25V47H367.2z"/>
	<path d="M415.7,67.7h11.5V54.7h-11.5V67.7z"/>
	<path d="M497.1,82.6h5.8L523.7,12h-5.8L497.1,82.6z"/>
	<path d="M540.5,15l-2.9,27.9l9.8,3c1.7-1.8,4.6-3.5,8.1-3.5c4.6,0,7.5,3,7.5,7.7s-2.3,8.3-7.5,8.3c-4.6,0-7.5-2.4-8.7-6.5l-11,2.4
		c1.7,9.5,8.7,14.3,19.6,14.3c11.5,0,19-7.1,19-18.4s-6.3-16.6-16.1-16.6c-4.6,0-8.7,1.2-11,3l1.7-10.7h23.1V15H540.5z"/>
	<path d="M226.4,139.5c1.7,10.1,8.1,14.8,17.9,14.8s17.3-4.7,17.3-14.8c0-7.7-3.4-12.5-11.5-14.3l-8.1-1.8c-5.8-1.2-7.5-4.2-7.5-8.3
		c0-5.4,3.4-8.9,9.8-8.9c6.9,0,9.8,4.2,11,9.5l6.3-1.2c-1.2-8.9-6.9-14.3-16.8-14.3c-9.3,0-16.1,5.9-16.1,14.8s4.6,12.5,12.2,14.3
		l8.1,1.8c5.2,1.2,6.9,3.5,6.9,8.3c0,5.4-4.1,8.9-11,8.9c-7.5,0-10.4-3.5-12.2-10.1L226.4,139.5z"/>
	<path d="M270.3,107.5h15v46.3h6.3v-46.3h15v-5.9h-37v5.9C269.6,107.5,270.3,107.5,270.3,107.5z"/>
	<path d="M337.2,101h-8.1l-15.6,52.8h6.3l4.1-14.3h18.5l4.1,14.3h6.3L337.2,101z M325.1,133.6l7.5-26.7l7.5,26.7H325.1z"/>
	<path d="M361.5,153.8h6.3v-20.2h11l10.4,20.2h6.9l-11-20.7c6.3-2.4,9.3-7.7,9.3-15.5c0-11.3-5.2-16-15-16h-17.9L361.5,153.8
		L361.5,153.8z M367.8,127.7v-20.7h11c5.8,0,9.3,2.4,9.3,10.1c0,6.5-2.9,10.1-9.3,10.1L367.8,127.7L367.8,127.7z"/>
	<path d="M404.2,139.5c1.7,10.1,8.1,14.8,17.9,14.8c9.8,0,17.3-4.7,17.3-14.8c0-7.7-3.4-12.5-11.5-14.3l-8.1-1.8
		c-5.8-1.2-7.5-4.2-7.5-8.3c0-5.4,3.4-8.9,9.8-8.9c6.9,0,9.8,4.2,11,9.5l6.3-1.2c-1.2-8.9-6.9-14.3-16.8-14.3
		c-9.3,0-16.1,5.9-16.1,14.8s4.6,12.5,12.2,14.3l8.1,1.8c5.2,1.2,6.9,3.5,6.9,8.3c0,5.4-4.1,8.9-11,8.9c-7.5,0-10.4-3.5-12.2-10.1
		L404.2,139.5z"/>
	<path d="M494.9,153.8h6.3v-20.2h11l10.4,20.2h6.9l-11-20.7c6.3-2.4,9.3-7.7,9.3-15.5c0-11.3-5.2-16-15-16h-17.9L494.9,153.8
		L494.9,153.8z M501.2,127.7v-20.7h11c5.8,0,9.3,2.4,9.3,10.1c0,6.5-2.9,10.1-9.3,10.1L501.2,127.7L501.2,127.7z"/>
	<path d="M558.9,101h-8.1l-15.6,52.8h6.3l4.1-14.3h18.5l4.1,14.3h6.9L558.9,101z M546.8,133.6l7.5-26.7l7.5,26.7H546.8z"/>
	<path d="M580.8,107.5h15v46.3h6.3v-46.3h15v-5.9h-37v5.9C580.3,107.5,580.8,107.5,580.8,107.5z"/>
	<path d="M628.2,153.8h30v-5.9h-12.2v-40.9h12.2V101h-30v5.9h12.2v40.4h-12.2V153.8z"/>
	<path d="M703.9,153.8V101h-5.8v43.3L680.2,101h-8v52.8h5.8v-43.3l17.9,43.3C695.7,153.8,703.9,153.8,703.9,153.8z"/>
	<path d="M749.5,128.9h-16.1v5.9h10.4v1.8c0,6.5-3.4,11.9-11,11.9c-8.1,0-12.7-8.3-12.7-21.4s4.6-21.4,12.2-21.4
		c6.3,0,9.3,5.4,11,11.9l6.3-1.2c-1.7-10.7-8.1-16.6-16.8-16.6c-11,0-18.5,10.1-18.5,27.3s7.5,27.3,18.5,27.3
		c5.2,0,9.3-2.4,11.5-6.5v5.4h5.8L749.5,128.9L749.5,128.9z"/>
	<g class="st2">
		<path d="M470.6,45.2c-4.1,4.2-8.7,4.7-11.5,4.7c-9.3,0-15-5.9-15-16.6C444,23.3,451,15,463.7,15c12.7,0,20.2,9.5,20.2,24.4
			c0,19-9.8,29.1-23.1,29.1c-5.8,0-10.4-1.2-15.6-4.2l5.2-9.5c3.4,3,6.9,3.5,9.8,3.5C465.4,58.3,470,55.9,470.6,45.2L470.6,45.2z
			 M463,25.6c-4.1,0-6.3,3-6.3,7.7c0,4.2,2.3,6.5,6.3,6.5c2.9,0,5.8-1.8,7.5-4.7C470.6,29.2,468.3,25.6,463,25.6z"/>
	</g>
</g>
</svg>
