<svg width="270" height="270" viewBox="0 0 270 270" fill="none" xmlns="http://www.w3.org/2000/svg">
<g clip-path="url(#clip0_1709_17197)">
<path d="M212.463 146.939C248.267 93.0651 214.352 19.1235 149.852 13.3718L145.945 13.1167C120.915 11.8738 99.5569 20.6009 80.975 37.3794C62.3932 54.1579 51.2514 77.6138 50 102.588L133.327 243L212.463 146.939Z" fill="#96DAE2"/>
<path d="M14.2231 38L133.564 246L253 38H14H14.2231ZM133.691 143.471C125.999 143.345 118.515 140.943 112.18 136.565C105.845 132.187 100.941 126.029 98.0837 118.864C95.2266 111.7 94.5438 103.849 96.1212 96.2967C97.6987 88.7445 101.466 81.8281 106.95 76.4163C112.434 71.0045 119.39 67.3388 126.944 65.8792C134.499 64.4196 142.315 65.2311 149.411 68.2123C156.507 71.1935 162.566 76.2113 166.828 82.6353C171.09 89.0592 173.364 96.6028 173.365 104.319C173.247 114.765 169.005 124.74 161.569 132.055C154.132 139.369 144.107 143.429 133.691 143.344V143.471Z" stroke="black" stroke-width="3" stroke-miterlimit="10"/>
</g>
<defs>
<clipPath id="clip0_1709_17197">
<rect width="270" height="270" fill="white"/>
</clipPath>
</defs>
</svg>
