<svg xmlns="http://www.w3.org/2000/svg" width="207.999" height="27.864"><g fill="#034337"><path data-name="Path 1375" d="M9.322.033L0 27.863h3.458l1.089-3.251h9.544l1.059 3.251h3.476zM5.554 21.579l3.768-11.376 3.768 11.376z"/><path data-name="Path 1376" d="M45.693.027h3.206v11.977L58.023.021h3.99L51.641 13.64l10.326 14.205h-3.909l-9.16-12.579v12.585h-3.205z"/><path data-name="Path 1377" d="M30.642 27.845a8.348 8.348 0 01-7.71-5.205l2.806-1.7c1.254 3.073 3.284 3.587 4.769 3.663 2.944.15 5.289-2.072 5.244-4.447-.132-6.82-11.773-4.21-11.728-13.312A7.217 7.217 0 0131.331.033a7.737 7.737 0 017.319 4.811l-2.839 1.627c-1.019-2.529-2.748-3.215-4.369-3.209a4.074 4.074 0 00-4.141 3.608c-.412 5.846 12.046 4.372 11.7 13.27a8.1 8.1 0 01-8.359 7.705z"/><path data-name="Path 1378" d="M99.114 27.839H95.96V3.151h-6.433V.006h16.205v3.145h-6.619z"/><path data-name="Path 1379" d="M149.792 24.672v3.163h-15.541V.012h3.169v24.66z"/><path data-name="Path 1380" d="M175.583.003l-9.382 27.843h3.485l1.095-3.251h9.6l1.065 3.251h3.5zm-3.792 21.567l3.792-11.382 3.792 11.382h-7.587z"/><path data-name="Rectangle 348" d="M156.936.015h3.175v27.824h-3.175z"/><path data-name="Path 1381" d="M119.044.003l-9.376 27.846h3.485l1.095-3.251h9.6l1.064 3.251h3.5zm-3.792 21.57l3.792-11.385 3.792 11.385h-7.587z"/><path data-name="Path 1382" d="M204.836.006v19.011L190.802 0v27.849h3.17V9.911l14.025 17.922V.006z"/><path data-name="Path 1383" d="M79.155.015v27.824h3.175V.015h-3.175"/></g></svg>
