<?xml version="1.0" encoding="utf-8"?>
<!-- Generator: Adobe Illustrator 27.0.0, SVG Export Plug-In . SVG Version: 6.00 Build 0)  -->
<svg version="1.1" id="Layer_1" xmlns="http://www.w3.org/2000/svg" xmlns:xlink="http://www.w3.org/1999/xlink" x="0px" y="0px"
	 viewBox="0 0 1920 243" style="enable-background:new 0 0 1920 243;" xml:space="preserve">
<style type="text/css">
	.st0{fill:#F4F4B0;}
</style>
<g>
	<path class="st0" d="M121.9,0h1676.1c67.3,0,121.9,54.4,121.9,121.5l0,0c0,67.1-54.6,121.5-121.9,121.5H121.9
		C54.6,243,0,188.6,0,121.5l0,0C-0.2,54.4,54.4,0,121.9,0z"/>
	<g>
		<path d="M106.1,151c-4.9,0-8.9-1.1-12-3.1c-3.1-2.1-5.1-5.5-5.8-10.1h9.5c0.6,1.7,1.5,2.9,2.9,3.7c1.4,0.8,3.2,1.1,5.4,1.1
			c1.7,0,3.2-0.3,4.8-0.8c1.5-0.6,2.8-1.5,4-2.9c1.1-1.4,2-3.2,2.8-5.7c0.6-2.3,1.1-5.3,1.1-8.9c-0.6,1.2-1.5,2.1-2.6,2.9
			c-1.1,0.8-2.1,1.5-3.4,2c-1.2,0.5-2.6,0.9-3.8,1.1c-1.4,0.3-2.6,0.3-3.8,0.3c-5.7,0-10-1.5-13.2-4.6c-3.2-3.1-4.8-7.5-4.8-13v-0.8
			c0-2.8,0.5-5.2,1.5-7.5c0.9-2.3,2.3-4.3,4.1-5.8c1.7-1.7,3.8-2.9,6.1-3.8c2.5-0.9,4.9-1.4,7.7-1.4c3.4,0,6.3,0.5,8.9,1.5
			c2.6,1.1,4.8,2.6,6.6,4.6c1.8,2.1,3.2,4.7,4.1,8.1c0.9,3.2,1.4,7.2,1.4,11.6v1.5c0,5.3-0.6,9.9-1.7,13.8s-2.6,6.9-4.6,9.2
			c-2,2.4-4.1,4.1-6.7,5.2C112,150.4,109.2,151,106.1,151z M107.2,123.2c3.2,0,5.7-0.9,7.7-2.8c2-1.8,2.9-4.3,2.9-7.2v-0.8
			c0-1.4-0.3-2.8-0.8-4c-0.5-1.2-1.2-2.3-2.1-3.2c-0.9-0.9-2-1.7-3.4-2.1c-1.2-0.5-2.8-0.8-4.3-0.8c-3.2,0-5.7,0.9-7.7,2.8
			c-2,1.8-2.9,4.3-2.9,7.3v0.8c0,2.9,0.9,5.3,2.9,7.2C101.5,122.3,104,123.2,107.2,123.2z"/>
		<path d="M154.7,151c-3.4,0-6.3-0.5-8.9-1.2s-4.8-1.8-6.4-3.2s-3.1-3.1-4-5c-0.9-2-1.4-4.1-1.4-6.4c0-3.2,0.9-6,2.9-8.4
			c2-2.4,4.9-4.3,8.7-5.2c-1.4-0.5-2.8-1.1-4-1.8c-1.2-0.8-2.3-1.7-3.2-2.9c-0.9-1.1-1.7-2.3-2.1-3.7s-0.8-2.8-0.8-4.4
			c0-2.1,0.5-4.1,1.2-6c0.9-1.8,2.1-3.4,3.7-4.7c1.7-1.4,3.7-2.4,6-3.1c2.3-0.8,5.1-1.1,8.1-1.1s5.8,0.3,8.1,1.1
			c2.5,0.8,4.4,1.8,6,3.1c1.7,1.4,2.8,2.9,3.7,4.7c0.8,1.8,1.2,3.8,1.2,6c0,3.2-0.9,5.8-2.9,7.9c-1.8,2.1-4.3,3.8-7.2,4.9
			c3.8,1.2,6.7,2.9,8.7,5.2c2,2.3,2.9,5,2.9,8.6c0,2.3-0.5,4.4-1.4,6.4c-0.9,2-2.3,3.7-4,5c-1.7,1.4-3.8,2.4-6.4,3.2
			C161,150.5,158,151,154.7,151z M154.7,142.6c3.8,0,6.6-0.8,8.4-2.3c1.8-1.5,2.8-3.5,2.8-5.8c0-2.8-1.1-4.9-3.2-6.4
			c-2.1-1.7-4.8-2.6-8-3.1c-3.2,0.5-5.8,1.4-8,3.1c-2.1,1.7-3.2,3.8-3.2,6.4c0,2.4,0.9,4.3,2.8,5.8
			C148.3,141.8,151.1,142.6,154.7,142.6z M154.7,118.1c2.8-0.5,5.1-1.4,6.9-2.8c1.8-1.4,2.6-3.4,2.6-6.1c0-2.4-0.9-4.1-2.6-5.3
			c-1.7-1.2-4-1.8-6.9-1.8s-5.2,0.6-6.9,1.8c-1.7,1.2-2.6,3.1-2.6,5.5c0,2.8,0.9,4.7,2.8,6.1C149.7,116.8,152,117.7,154.7,118.1z"/>
		<path d="M192.5,120.9c-2,0-3.7-0.3-5.4-0.9c-1.7-0.6-3.1-1.5-4.1-2.8c-1.1-1.2-2-2.6-2.6-4.1c-0.6-1.7-0.9-3.4-0.9-5.3V107
			c0-2,0.3-3.7,0.9-5.3c0.6-1.7,1.5-3.1,2.6-4.1c1.1-1.2,2.5-2,4.1-2.8c1.7-0.6,3.4-0.9,5.4-0.9s3.7,0.3,5.4,0.9
			c1.5,0.6,2.9,1.5,4.1,2.8c1.2,1.2,2,2.6,2.8,4.1c0.6,1.7,0.9,3.4,0.9,5.3v0.8c0,2-0.3,3.7-0.9,5.3c-0.6,1.7-1.5,3.1-2.8,4.1
			c-1.2,1.2-2.6,2-4.1,2.8C196.2,120.6,194.5,120.9,192.5,120.9z M225.1,94.6h9.5l-38.2,55.5H187L225.1,94.6z M192.5,113.7
			c1.4,0,2.6-0.5,3.4-1.4c0.9-0.9,1.2-2.4,1.2-4.6V107c0-2.1-0.5-3.7-1.2-4.6c-0.9-0.9-2-1.4-3.4-1.4s-2.6,0.5-3.4,1.4
			c-0.9,0.9-1.2,2.4-1.2,4.6v0.8c0,2.1,0.5,3.7,1.2,4.6C189.9,113.2,191.1,113.7,192.5,113.7z M229,150.8c-2,0-3.7-0.3-5.4-0.9
			c-1.7-0.6-3.1-1.5-4.1-2.8c-1.1-1.2-2-2.6-2.6-4.1c-0.6-1.7-0.9-3.4-0.9-5.3v-0.8c0-2,0.3-3.7,0.9-5.3c0.6-1.7,1.5-3.1,2.6-4.1
			c1.1-1.2,2.5-2,4.1-2.8c1.7-0.6,3.4-0.9,5.4-0.9s3.7,0.3,5.4,0.9c1.5,0.6,2.9,1.5,4.1,2.8c1.2,1.2,2,2.6,2.8,4.1
			c0.6,1.7,0.9,3.4,0.9,5.3v0.8c0,2-0.3,3.7-0.9,5.3c-0.6,1.7-1.5,3.1-2.8,4.1c-1.2,1.2-2.6,2-4.1,2.8
			C232.8,150.5,231,150.8,229,150.8z M229,143.8c1.4,0,2.6-0.5,3.4-1.4c0.9-0.9,1.2-2.4,1.2-4.6v-0.8c0-2.1-0.5-3.7-1.2-4.6
			c-0.9-0.9-2-1.4-3.4-1.4s-2.6,0.5-3.4,1.4c-0.9,0.9-1.2,2.4-1.2,4.6v0.8c0,2.1,0.5,3.7,1.2,4.6C226.5,143.2,227.6,143.8,229,143.8
			z"/>
		<path d="M282.3,151c-2.9,0-5.5-0.5-8-1.4c-2.5-0.9-4.4-2.1-6.3-4c-1.8-1.8-3.2-4-4.1-6.7c-1.1-2.8-1.5-5.8-1.5-9.5v-1.5
			c0-3.4,0.5-6.4,1.5-9c1.1-2.6,2.5-4.7,4.3-6.6c1.8-1.7,4-3.1,6.3-4c2.5-0.9,4.9-1.4,7.7-1.4c2.8,0,5.2,0.3,7.4,1.1
			c2.1,0.8,4,1.7,5.5,3.1c1.5,1.2,2.8,2.8,3.7,4.6c0.9,1.7,1.5,3.7,1.8,5.7h-8.9c-0.5-2-1.5-3.5-2.9-4.9c-1.4-1.2-3.5-1.8-6.6-1.8
			c-1.5,0-2.9,0.3-4.1,0.8c-1.4,0.5-2.5,1.2-3.5,2.3c-1.1,1.1-1.8,2.4-2.5,4.1s-0.9,3.7-0.9,6v1.5c0,2.4,0.3,4.6,0.9,6.4
			c0.6,1.8,1.4,3.2,2.5,4.3c1.1,1.1,2.1,2,3.5,2.4c1.4,0.5,2.8,0.8,4.1,0.8c4.9,0,8.1-2.3,9.4-6.7h8.9c-0.5,2.3-1.2,4.3-2.1,6
			c-1.1,1.8-2.3,3.2-4,4.6c-1.5,1.2-3.4,2.1-5.5,2.9C286.9,150.7,284.6,151,282.3,151z"/>
		<path d="M307,94.6h8.7v20.2c0.5-0.9,1.1-1.8,1.8-2.8c0.8-0.9,1.7-1.7,2.8-2.4c1.1-0.6,2.3-1.2,3.7-1.7c1.4-0.5,3.1-0.6,4.8-0.6
			c5.2,0,9,1.4,11.7,4.1c2.6,2.8,3.8,6.9,3.8,12.2v26.6h-8.7v-24.6c0-3.5-0.8-6.3-2.3-7.9c-1.5-1.8-4-2.8-7.4-2.8
			c-1.8,0-3.4,0.3-4.8,0.9c-1.2,0.6-2.3,1.4-3.2,2.4c-0.8,0.9-1.4,2.1-1.8,3.4c-0.5,1.2-0.6,2.6-0.6,4v24.6H307V94.6z"/>
		<path d="M371.5,151c-2.8,0-5.5-0.5-8-1.4c-2.5-0.9-4.8-2.1-6.6-4c-1.8-1.8-3.4-4-4.4-6.7c-1.1-2.8-1.7-5.8-1.7-9.5v-1.5
			c0-3.5,0.5-6.6,1.5-9.2c1.1-2.6,2.5-4.7,4.3-6.4s4-3.1,6.3-3.8c2.5-0.9,4.9-1.2,7.7-1.2c6.4,0,11.3,1.7,14.7,5.2
			c3.4,3.4,5.1,8.4,5.1,14.7v4.4h-30.8c0,2.1,0.5,4,1.1,5.5c0.6,1.5,1.5,2.8,2.6,3.7c1.1,0.9,2.3,1.5,3.7,2c1.4,0.5,2.9,0.6,4.3,0.6
			c3.1,0,5.2-0.5,6.6-1.4c1.4-0.9,2.3-2.1,2.9-3.7h8.7c-0.9,4.1-2.9,7.3-6.3,9.5C380,149.9,376.1,151,371.5,151z M371,114.8
			c-1.5,0-2.9,0.2-4.3,0.6c-1.4,0.3-2.6,0.9-3.5,1.8c-1.1,0.8-1.8,1.8-2.5,3.2c-0.6,1.2-0.9,2.9-1.1,4.7h22.1c0-2-0.3-3.7-0.9-4.9
			s-1.4-2.4-2.3-3.2s-2.1-1.4-3.4-1.7C373.9,114.9,372.5,114.8,371,114.8z"/>
		<path d="M414.7,151c-2.9,0-5.5-0.5-8-1.4s-4.4-2.1-6.3-4c-1.8-1.8-3.2-4-4.1-6.7c-1.1-2.8-1.5-5.8-1.5-9.5v-1.5
			c0-3.4,0.5-6.4,1.5-9c1.1-2.6,2.5-4.7,4.3-6.6c1.8-1.7,4-3.1,6.3-4c2.5-0.9,4.9-1.4,7.7-1.4c2.8,0,5.2,0.3,7.4,1.1
			c2.1,0.8,4,1.7,5.5,3.1c1.5,1.2,2.8,2.8,3.7,4.6c0.9,1.7,1.5,3.7,1.8,5.7h-8.9c-0.5-2-1.5-3.5-2.9-4.9c-1.4-1.2-3.5-1.8-6.6-1.8
			c-1.5,0-2.9,0.3-4.1,0.8c-1.4,0.5-2.5,1.2-3.5,2.3c-1.1,1.1-1.8,2.4-2.5,4.1s-0.9,3.7-0.9,6v1.5c0,2.4,0.3,4.6,0.9,6.4
			c0.6,1.8,1.4,3.2,2.5,4.3c1.1,1.1,2.1,2,3.5,2.4c1.4,0.5,2.8,0.8,4.1,0.8c4.9,0,8.1-2.3,9.4-6.7h8.9c-0.5,2.3-1.2,4.3-2.1,6
			c-1.1,1.8-2.3,3.2-4,4.6c-1.5,1.2-3.4,2.1-5.5,2.9C419.3,150.7,417.2,151,414.7,151z"/>
		<path d="M439.4,94.6h8.7v31.8l17.5-18.3h10.3l-17,17.9l18.6,24.1H467l-14-18.6l-5.1,5v13.6h-8.7V94.6H439.4z"/>
		<path d="M499.8,108.1h8.1v7.2c0.9-2.1,2.3-4,4.1-5.7c2-1.5,4.3-2.4,7.2-2.4c1.4,0,2.3,0,2.9,0.2c0.6,0.2,1.1,0.2,1.4,0.3v7.9
			c-0.9-0.3-1.7-0.5-2.5-0.6c-0.8-0.2-1.7-0.2-2.8-0.2c-1.7,0-3.2,0.3-4.4,0.9c-1.2,0.6-2.3,1.4-3.1,2.4c-0.8,1.1-1.4,2.1-1.8,3.4
			c-0.5,1.2-0.6,2.6-0.6,4v24.6h-8.7v-42H499.8z"/>
		<path d="M546.3,151c-2.8,0-5.5-0.5-8-1.4c-2.5-0.9-4.8-2.1-6.6-4c-1.8-1.8-3.4-4-4.4-6.7c-1.1-2.8-1.7-5.8-1.7-9.5v-1.5
			c0-3.5,0.5-6.6,1.5-9.2s2.5-4.7,4.3-6.4c1.8-1.7,4-3.1,6.3-3.8c2.5-0.9,4.9-1.2,7.7-1.2c6.4,0,11.3,1.7,14.7,5.2
			c3.4,3.4,5.1,8.4,5.1,14.7v4.4h-30.8c0,2.1,0.5,4,1.1,5.5c0.6,1.5,1.5,2.8,2.6,3.7c1.1,0.9,2.3,1.5,3.7,2c1.4,0.5,2.9,0.6,4.3,0.6
			c3.1,0,5.2-0.5,6.6-1.4s2.3-2.1,2.9-3.7h8.7c-0.9,4.1-2.9,7.3-6.3,9.5C555,149.9,551,151,546.3,151z M546,114.8
			c-1.5,0-2.9,0.2-4.3,0.6c-1.4,0.3-2.6,0.9-3.5,1.8c-1.1,0.8-1.8,1.8-2.5,3.2c-0.6,1.2-0.9,2.9-1.1,4.7h22.1c0-2-0.3-3.7-0.9-4.9
			s-1.4-2.4-2.3-3.2c-0.9-0.8-2.1-1.4-3.4-1.7C548.7,114.9,547.4,114.8,546,114.8z"/>
		<path d="M566.5,108.1h9.5l12.9,32.6l11.7-32.6h8.9l-16.3,42h-8.7L566.5,108.1z"/>
		<path d="M619.9,103.3c-1.7,0-2.9-0.5-4-1.5c-1.1-1.1-1.5-2.3-1.5-4s0.5-2.9,1.5-4c1.1-1.1,2.3-1.5,4-1.5c1.7,0,2.9,0.5,4,1.5
			c1.1,1.1,1.5,2.3,1.5,4s-0.5,2.9-1.5,4C622.8,102.9,621.6,103.3,619.9,103.3z M615.5,108.1h8.7v42h-8.7V108.1z"/>
		<path d="M652.4,151c-2.8,0-5.5-0.5-8-1.4c-2.5-0.9-4.8-2.1-6.6-4c-1.8-1.8-3.4-4-4.4-6.7c-1.1-2.8-1.7-5.8-1.7-9.5v-1.5
			c0-3.5,0.5-6.6,1.5-9.2s2.5-4.7,4.3-6.4s4-3.1,6.3-3.8c2.5-0.9,4.9-1.2,7.7-1.2c6.4,0,11.3,1.7,14.7,5.2c3.4,3.4,5.1,8.4,5.1,14.7
			v4.4h-30.8c0,2.1,0.5,4,1.1,5.5c0.6,1.5,1.5,2.8,2.6,3.7c1.1,0.9,2.3,1.5,3.7,2c1.4,0.5,2.9,0.6,4.3,0.6c3.1,0,5.2-0.5,6.6-1.4
			s2.3-2.1,2.9-3.7h8.7c-0.9,4.1-2.9,7.3-6.3,9.5C661.2,149.9,657.2,151,652.4,151z M652.1,114.8c-1.5,0-2.9,0.2-4.3,0.6
			c-1.4,0.3-2.6,0.9-3.5,1.8c-1.1,0.8-1.8,1.8-2.5,3.2c-0.6,1.2-0.9,2.9-1.1,4.7h22.1c0-2-0.3-3.7-0.9-4.9s-1.4-2.4-2.3-3.2
			c-0.9-0.8-2.1-1.4-3.4-1.7C655,114.9,653.5,114.8,652.1,114.8z"/>
		<path d="M674.4,108.1h9.2l7.7,30.9l9.7-30.9h8l10.3,30.9l7.7-30.9h8.6l-11.5,42h-8.7l-10.4-30.9l-10.1,30.9h-8.7L674.4,108.1z"/>
		<path d="M756.7,151c-3.1,0-5.8-0.3-8-1.1c-2.1-0.6-4-1.7-5.5-2.8c-1.5-1.2-2.6-2.6-3.4-4.1s-1.2-3.2-1.5-4.9h8.7
			c0.3,1.5,1.2,2.8,2.8,3.7c1.5,0.9,3.7,1.5,6.9,1.5c3.5,0,6-0.5,7.4-1.4c1.4-0.9,2.1-2.1,2.1-3.7c0-0.6-0.2-1.4-0.6-2
			c-0.3-0.6-0.9-1.2-1.8-1.7c-0.8-0.5-2-0.9-3.4-1.4c-1.4-0.5-3.1-0.8-5.2-1.1c-2.5-0.3-4.6-0.8-6.6-1.4c-2-0.6-3.7-1.4-5.1-2.4
			c-1.4-1.1-2.5-2.3-3.2-3.7s-1.1-3.2-1.1-5.2c0-1.7,0.3-3.4,1.1-4.7s1.7-2.8,3.2-4c1.4-1.1,3.2-2,5.4-2.6c2.1-0.6,4.6-0.9,7.5-0.9
			c2.8,0,5.2,0.3,7.2,1.1c2,0.6,3.7,1.7,5.1,2.8c1.4,1.2,2.5,2.6,3.1,4.1c0.8,1.5,1.2,3.2,1.4,4.9h-8.7c-0.5-1.7-1.2-2.9-2.6-3.8
			c-1.2-0.9-3.1-1.4-5.4-1.4c-3.1,0-5.4,0.5-6.6,1.4c-1.2,0.9-1.8,2-1.8,3.4c0,0.8,0.2,1.4,0.5,2c0.3,0.6,0.9,1.1,1.5,1.5
			c0.8,0.5,1.7,0.9,3.1,1.2c1.2,0.3,2.9,0.6,4.9,0.9c2.5,0.3,4.8,0.8,6.7,1.4c2,0.6,3.8,1.5,5.2,2.4c1.5,1.1,2.6,2.3,3.4,3.8
			s1.2,3.2,1.2,5.2c0,1.8-0.5,3.5-1.2,5c-0.8,1.5-1.8,2.9-3.4,4c-1.5,1.1-3.4,2-5.7,2.8C762.4,150.7,759.6,151,756.7,151z"/>
		<path d="M821.3,151c-3.5,0-6.4-0.8-9-2.4c-2.5-1.5-4.3-3.4-5.2-5.5v7h-8.1V94.6h8.7v20.2c1.4-2.1,3.1-4,5.5-5.3
			c2.3-1.4,5.1-2.1,8.3-2.1c5.5,0,9.8,1.7,13,5.2c3.2,3.4,4.8,8.6,4.8,15.6v1.5c0,3.7-0.5,6.7-1.2,9.5c-0.9,2.8-2,4.9-3.7,6.7
			c-1.5,1.8-3.4,3.1-5.7,4C826.3,150.5,823.9,151,821.3,151z M819.1,143.4c3.2,0,5.8-1.1,7.8-3.4c2-2.3,3.1-5.8,3.1-10.4v-1.5
			c0-4.4-0.9-7.8-2.9-9.9c-2-2.1-4.6-3.2-8-3.2c-1.5,0-3.1,0.3-4.4,0.8c-1.4,0.5-2.6,1.2-3.7,2.1c-1.1,0.9-2,2.1-2.6,3.5
			s-0.9,3.1-0.9,4.7v5.5c0,2,0.3,3.8,0.9,5.2c0.6,1.5,1.5,2.8,2.6,3.7c1.1,1.1,2.3,1.7,3.7,2.3C816.1,143,817.6,143.4,819.1,143.4z"
			/>
		<path d="M864.1,151c-2.8,0-5.5-0.5-8-1.4c-2.5-0.9-4.8-2.1-6.6-4c-1.8-1.8-3.4-4-4.4-6.7c-1.1-2.8-1.7-5.8-1.7-9.5v-1.5
			c0-3.5,0.5-6.6,1.5-9.2c1.1-2.6,2.5-4.7,4.3-6.4c1.8-1.7,4-3.1,6.3-3.8c2.5-0.9,4.9-1.2,7.7-1.2c6.4,0,11.3,1.7,14.7,5.2
			c3.4,3.4,5.1,8.4,5.1,14.7v4.4h-30.8c0,2.1,0.5,4,1.1,5.5c0.6,1.5,1.5,2.8,2.6,3.7c1.1,0.9,2.3,1.5,3.7,2c1.4,0.5,2.9,0.6,4.3,0.6
			c3.1,0,5.2-0.5,6.6-1.4c1.4-0.9,2.3-2.1,2.9-3.7h8.7c-0.9,4.1-2.9,7.3-6.3,9.5C872.7,149.9,868.7,151,864.1,151z M863.6,114.8
			c-1.5,0-2.9,0.2-4.3,0.6c-1.4,0.3-2.6,0.9-3.5,1.8c-0.9,0.9-1.8,1.8-2.5,3.2c-0.6,1.2-0.9,2.9-1.1,4.7h22.1c0-2-0.3-3.7-0.9-4.9
			c-0.6-1.4-1.4-2.4-2.3-3.2s-2.1-1.4-3.4-1.7C866.5,114.9,865.1,114.8,863.6,114.8z"/>
		<path d="M891.4,115.5h-5.5v-7.5h5.5v-1.2c0-4.1,1.1-7.3,3.2-9.5c2.1-2.1,5.7-3.2,10.7-3.2c1.5,0,3.5,0.2,6,0.3v7.6
			c-0.8-0.2-1.7-0.2-2.6-0.2c-0.9,0-1.8,0-2.6,0c-2.3,0-3.8,0.5-4.6,1.2c-0.9,0.8-1.4,2.3-1.4,4.3v0.6h10.3v7.5h-10.3v34.5h-8.7
			V115.5z"/>
		<path d="M933.5,151c-2.9,0-5.7-0.5-8.1-1.4c-2.5-0.9-4.8-2.3-6.6-4.1c-1.8-1.8-3.4-4-4.4-6.7c-1.1-2.6-1.5-5.8-1.5-9.3v-1.5
			c0-3.4,0.5-6.3,1.5-8.9c1.1-2.6,2.5-4.7,4.4-6.6c1.8-1.8,4-3.1,6.6-4c2.5-0.9,5.2-1.4,8.1-1.4c2.9,0,5.7,0.5,8.1,1.4
			c2.5,0.9,4.8,2.3,6.6,4c1.8,1.7,3.4,4,4.4,6.6c1.1,2.6,1.5,5.5,1.5,8.9v1.5c0,3.5-0.5,6.6-1.5,9.3c-1.1,2.6-2.5,4.9-4.4,6.7
			s-4,3.2-6.6,4.1C939.2,150.5,936.5,151,933.5,151z M933.5,143.4c1.5,0,3.1-0.3,4.4-0.8c1.4-0.5,2.6-1.4,3.7-2.4
			c1.1-1.1,2-2.6,2.6-4.3c0.6-1.7,0.9-3.8,0.9-6.3v-1.5c0-2.3-0.3-4.3-0.9-5.8c-0.6-1.7-1.5-3.1-2.6-4c-1.1-1.1-2.3-1.8-3.7-2.4
			c-1.4-0.5-2.9-0.8-4.4-0.8c-1.5,0-3.1,0.3-4.4,0.8c-1.4,0.5-2.6,1.4-3.7,2.4c-1.1,1.1-2,2.4-2.6,4c-0.6,1.7-0.9,3.7-0.9,5.8v1.5
			c0,2.4,0.3,4.6,0.9,6.3c0.6,1.7,1.5,3.2,2.6,4.3s2.3,2,3.7,2.4C930.6,143,932,143.4,933.5,143.4z"/>
		<path d="M961,108.1h8.1v7.2c0.9-2.1,2.3-4,4.1-5.7c2-1.5,4.3-2.4,7.2-2.4c1.4,0,2.3,0,2.9,0.2c0.6,0.2,1.1,0.2,1.4,0.3v7.9
			c-0.9-0.3-1.7-0.5-2.5-0.6c-0.8-0.2-1.7-0.2-2.8-0.2c-1.7,0-3.2,0.3-4.4,0.9c-1.2,0.6-2.3,1.4-3.1,2.4c-0.8,1.1-1.4,2.1-1.8,3.4
			c-0.5,1.2-0.6,2.6-0.6,4v24.6h-8.7v-42H961z"/>
		<path d="M1007.5,151c-2.8,0-5.5-0.5-8-1.4c-2.5-0.9-4.8-2.1-6.6-4c-1.8-1.8-3.4-4-4.4-6.7c-1.1-2.8-1.7-5.8-1.7-9.5v-1.5
			c0-3.5,0.5-6.6,1.5-9.2c1.1-2.6,2.5-4.7,4.3-6.4c1.8-1.7,4-3.1,6.3-3.8c2.5-0.9,4.9-1.2,7.7-1.2c6.4,0,11.3,1.7,14.7,5.2
			c3.4,3.4,5.1,8.4,5.1,14.7v4.4h-30.8c0,2.1,0.5,4,1.1,5.5c0.6,1.5,1.5,2.8,2.6,3.7c1.1,0.9,2.3,1.5,3.7,2c1.4,0.5,2.9,0.6,4.3,0.6
			c3.1,0,5.2-0.5,6.6-1.4c1.4-0.9,2.3-2.1,2.9-3.7h8.7c-0.9,4.1-2.9,7.3-6.3,9.5C1016.2,149.9,1012.2,151,1007.5,151z M1007.2,114.8
			c-1.5,0-2.9,0.2-4.3,0.6c-1.4,0.3-2.6,0.9-3.5,1.8c-0.9,0.9-1.8,1.8-2.5,3.2c-0.6,1.2-0.9,2.9-1.1,4.7h22.1c0-2-0.3-3.7-0.9-4.9
			c-0.6-1.4-1.4-2.4-2.3-3.2s-2.1-1.4-3.4-1.7C1010.1,114.9,1008.5,114.8,1007.2,114.8z"/>
		<path d="M1067.9,151c-2.9,0-5.5-0.5-8-1.4s-4.4-2.1-6.3-4c-1.8-1.8-3.2-4-4.1-6.7s-1.5-5.8-1.5-9.5v-1.5c0-3.4,0.5-6.4,1.5-9
			s2.5-4.7,4.3-6.6c1.8-1.7,4-3.1,6.3-4c2.5-0.9,4.9-1.4,7.7-1.4c2.8,0,5.2,0.3,7.4,1.1c2.1,0.8,4,1.7,5.5,3.1
			c1.5,1.2,2.8,2.8,3.7,4.6c0.9,1.8,1.5,3.7,1.8,5.7h-8.9c-0.5-2-1.5-3.5-2.9-4.9c-1.4-1.2-3.5-1.8-6.6-1.8c-1.5,0-2.9,0.3-4.1,0.8
			c-1.4,0.5-2.5,1.2-3.5,2.3c-1.1,1.1-1.8,2.4-2.5,4.1c-0.6,1.7-0.9,3.7-0.9,6v1.5c0,2.4,0.3,4.6,0.9,6.4c0.6,1.8,1.4,3.2,2.5,4.3
			c1.1,1.1,2.1,2,3.5,2.4c1.4,0.5,2.8,0.8,4.1,0.8c4.9,0,8.1-2.3,9.4-6.7h8.9c-0.5,2.3-1.2,4.3-2.1,6c-1.1,1.8-2.3,3.2-4,4.6
			c-1.5,1.2-3.4,2.1-5.5,2.9C1072.5,150.7,1070.3,151,1067.9,151z"/>
		<path d="M1092.6,94.6h8.7v20.2c0.5-0.9,1.1-1.8,1.8-2.8c0.8-0.9,1.7-1.7,2.8-2.4c1.1-0.6,2.3-1.2,3.7-1.7c1.4-0.5,3.1-0.6,4.8-0.6
			c5.2,0,9,1.4,11.7,4.1c2.6,2.8,3.8,6.9,3.8,12.2v26.6h-8.7v-24.6c0-3.5-0.8-6.3-2.3-7.9s-4-2.8-7.4-2.8c-1.8,0-3.4,0.3-4.8,0.9
			c-1.2,0.6-2.3,1.4-3.2,2.4c-0.8,0.9-1.4,2.1-1.8,3.4c-0.5,1.2-0.6,2.6-0.6,4v24.6h-8.7V94.6H1092.6z"/>
		<path d="M1157,151c-2.9,0-5.7-0.5-8.1-1.4c-2.5-0.9-4.8-2.3-6.6-4.1s-3.4-4-4.4-6.7c-1.1-2.6-1.5-5.8-1.5-9.3v-1.5
			c0-3.4,0.5-6.3,1.5-8.9c1.1-2.6,2.5-4.7,4.4-6.6c1.8-1.8,4-3.1,6.6-4c2.5-0.9,5.2-1.4,8.1-1.4s5.7,0.5,8.1,1.4
			c2.5,0.9,4.8,2.3,6.6,4s3.4,4,4.4,6.6c1.1,2.6,1.5,5.5,1.5,8.9v1.5c0,3.5-0.5,6.6-1.5,9.3c-1.1,2.6-2.5,4.9-4.4,6.7
			c-2,1.8-4,3.2-6.6,4.1C1162.7,150.5,1159.9,151,1157,151z M1157,143.4c1.5,0,3.1-0.3,4.4-0.8s2.6-1.4,3.7-2.4
			c1.1-1.1,2-2.6,2.6-4.3c0.6-1.7,0.9-3.8,0.9-6.3v-1.5c0-2.3-0.3-4.3-0.9-5.8c-0.6-1.7-1.5-3.1-2.6-4c-1.1-1.1-2.3-1.8-3.7-2.4
			c-1.4-0.5-2.9-0.8-4.4-0.8c-1.5,0-3.1,0.3-4.4,0.8c-1.4,0.5-2.6,1.4-3.7,2.4c-1.1,1.1-2,2.4-2.6,4c-0.6,1.7-0.9,3.7-0.9,5.8v1.5
			c0,2.4,0.3,4.6,0.9,6.3c0.6,1.7,1.5,3.2,2.6,4.3s2.3,2,3.7,2.4C1154.1,143,1155.5,143.4,1157,143.4z"/>
		<path d="M1202.7,151c-2.9,0-5.7-0.5-8.1-1.4s-4.8-2.3-6.6-4.1c-1.8-1.8-3.4-4-4.4-6.7c-1.1-2.6-1.5-5.8-1.5-9.3v-1.5
			c0-3.4,0.5-6.3,1.5-8.9c1.1-2.6,2.5-4.7,4.4-6.6c1.8-1.8,4-3.1,6.6-4c2.5-0.9,5.2-1.4,8.1-1.4c2.9,0,5.7,0.5,8.1,1.4
			c2.5,0.9,4.8,2.3,6.6,4c1.8,1.7,3.4,4,4.4,6.6c1.1,2.6,1.5,5.5,1.5,8.9v1.5c0,3.5-0.5,6.6-1.5,9.3c-1.1,2.6-2.5,4.9-4.4,6.7
			c-2,1.8-4,3.2-6.6,4.1C1208.4,150.5,1205.6,151,1202.7,151z M1202.7,143.4c1.5,0,3.1-0.3,4.4-0.8c1.4-0.5,2.6-1.4,3.7-2.4
			s2-2.6,2.6-4.3c0.6-1.7,0.9-3.8,0.9-6.3v-1.5c0-2.3-0.3-4.3-0.9-5.8c-0.6-1.7-1.5-3.1-2.6-4c-1.1-1.1-2.3-1.8-3.7-2.4
			c-1.4-0.5-2.9-0.8-4.4-0.8s-3.1,0.3-4.4,0.8c-1.4,0.5-2.6,1.4-3.7,2.4c-1.1,1.1-2,2.4-2.6,4c-0.6,1.7-0.9,3.7-0.9,5.8v1.5
			c0,2.4,0.3,4.6,0.9,6.3c0.6,1.7,1.5,3.2,2.6,4.3s2.3,2,3.7,2.4C1199.8,143,1201.2,143.4,1202.7,143.4z"/>
		<path d="M1246.1,151c-3.1,0-5.8-0.3-8-1.1c-2.1-0.6-4-1.7-5.5-2.8c-1.5-1.2-2.6-2.6-3.4-4.1s-1.2-3.2-1.5-4.9h8.7
			c0.3,1.5,1.2,2.8,2.8,3.7c1.5,0.9,3.7,1.5,6.9,1.5c3.5,0,6-0.5,7.4-1.4c1.4-0.9,2.1-2.1,2.1-3.7c0-0.6-0.2-1.4-0.6-2
			c-0.3-0.6-0.9-1.2-1.8-1.7c-0.8-0.5-2-0.9-3.4-1.4c-1.4-0.5-3.1-0.8-5.2-1.1c-2.5-0.3-4.6-0.8-6.6-1.4c-2-0.6-3.7-1.4-5.1-2.4
			s-2.5-2.3-3.2-3.7s-1.1-3.2-1.1-5.2c0-1.7,0.3-3.4,1.1-4.7s1.7-2.8,3.2-4c1.4-1.1,3.2-2,5.4-2.6c2.1-0.6,4.6-0.9,7.5-0.9
			c2.8,0,5.2,0.3,7.2,1.1c2,0.6,3.7,1.7,5.1,2.8c1.4,1.2,2.5,2.6,3.1,4.1c0.8,1.5,1.2,3.2,1.4,4.9h-8.7c-0.5-1.7-1.2-2.9-2.6-3.8
			c-1.2-0.9-3.1-1.4-5.4-1.4c-3.1,0-5.4,0.5-6.6,1.4c-1.2,0.9-1.8,2-1.8,3.4c0,0.8,0.2,1.4,0.5,2c0.3,0.6,0.9,1.1,1.5,1.5
			c0.8,0.5,1.7,0.9,3.1,1.2c1.2,0.3,2.9,0.6,4.9,0.9c2.5,0.3,4.8,0.8,6.7,1.4c2,0.6,3.8,1.5,5.2,2.4c1.5,1.1,2.6,2.3,3.4,3.8
			c0.8,1.5,1.2,3.2,1.2,5.2c0,1.8-0.5,3.5-1.2,5c-0.8,1.5-1.8,2.9-3.4,4s-3.4,2-5.7,2.8C1251.8,150.7,1249.2,151,1246.1,151z"/>
		<path d="M1276.3,103.3c-1.7,0-2.9-0.5-4-1.5c-1.1-1.1-1.5-2.3-1.5-4s0.5-2.9,1.5-4c1.1-1.1,2.3-1.5,4-1.5s2.9,0.5,4,1.5
			c1.1,1.1,1.5,2.3,1.5,4s-0.5,2.9-1.5,4C1279.2,102.9,1278,103.3,1276.3,103.3z M1271.9,108.1h8.7v42h-8.7V108.1z"/>
		<path d="M1290.6,108.1h8.1v7c1.1-2.1,2.6-4,4.9-5.5c2.3-1.5,5.2-2.4,8.9-2.4c5.2,0,9,1.4,11.7,4.1c2.6,2.8,3.8,6.9,3.8,12.2v26.6
			h-8.7v-24.6c0-3.5-0.8-6.3-2.3-7.9s-4-2.8-7.4-2.8c-1.8,0-3.4,0.3-4.8,0.9c-1.2,0.6-2.3,1.4-3.2,2.4c-0.8,0.9-1.4,2.1-1.8,3.4
			c-0.5,1.2-0.6,2.6-0.6,4v24.6h-8.7v-42H1290.6z"/>
		<path d="M1354.2,166.7c-3.2,0-6-0.3-8.3-0.9c-2.3-0.6-4-1.5-5.5-2.6c-1.4-1.1-2.5-2.4-3.2-4c-0.6-1.5-1.1-3.2-1.4-4.9h8.9
			c0.2,0.6,0.5,1.2,0.9,1.8s0.9,1.2,1.7,1.7c0.8,0.5,1.7,0.9,2.8,1.2c1.1,0.3,2.5,0.5,4,0.5c4,0,6.9-0.9,8.7-2.9
			c1.8-1.8,2.8-4.6,2.8-8.1v-6c-1.4,2.3-3.1,4-5.4,5.5c-2.3,1.4-5.1,2.1-8.1,2.1c-2.8,0-5.2-0.5-7.4-1.4c-2.1-0.9-4-2.3-5.7-4
			c-1.7-1.7-2.8-4-3.7-6.6c-0.9-2.6-1.2-5.7-1.2-9.2v-1.5c0-3.2,0.5-6.1,1.2-8.7s2-4.6,3.7-6.3c1.5-1.7,3.4-3.1,5.7-4
			c2.1-0.9,4.6-1.4,7.2-1.4c3.5,0,6.4,0.8,9,2.4c2.5,1.5,4.3,3.4,5.2,5.5v-7.2h8.1v40c0,6-1.7,10.5-5.1,13.8
			C1366,165.2,1361,166.7,1354.2,166.7z M1354.1,142.6c1.5,0,3.1-0.3,4.4-0.8s2.6-1.2,3.7-2.1s1.8-2.1,2.6-3.7
			c0.6-1.5,0.9-3.1,0.9-5v-5.5c0-1.7-0.3-3.2-0.9-4.6c-0.6-1.4-1.5-2.4-2.6-3.4c-1.1-0.9-2.3-1.5-3.7-2s-2.9-0.8-4.3-0.8
			c-3.4,0-6,1.1-8,3.1c-2,2.1-2.9,5.2-2.9,9.5v1.5c0,4.4,1.1,7.8,3.1,10.1C1348.2,141.4,1350.9,142.6,1354.1,142.6z"/>
		<path d="M1413.1,151c-2.3,0-4.3-0.3-6.1-0.9c-1.8-0.6-3.2-1.5-4.4-2.8s-2.1-2.6-2.8-4.1c-0.6-1.5-0.9-3.4-0.9-5.2
			c0-4.1,1.2-7.3,3.7-9.3c2.5-2,6.1-3.1,11-3.1h13.2v-2.3c0-3.2-0.8-5.3-2.1-6.6c-1.4-1.2-3.7-1.8-6.6-1.8c-2.8,0-4.8,0.5-6,1.2
			c-1.2,0.9-2,2-2.3,3.5h-8.4c0.2-1.8,0.6-3.5,1.4-4.9c0.8-1.5,2-2.8,3.4-4c1.5-1.1,3.2-2,5.2-2.6c2-0.6,4.4-0.9,7.1-0.9
			c2.6,0,4.9,0.3,7.1,0.9c2.1,0.6,3.8,1.5,5.4,2.8s2.6,2.9,3.5,4.7c0.8,2,1.2,4.3,1.2,7v16.7c0,2.3,0,4.1,0.2,5.8
			c0,1.7,0.2,3.4,0.5,4.9h-8c-0.2-1.2-0.3-2.3-0.3-3.1c-0.2-0.9-0.2-1.8-0.2-3.2c-1.1,2-2.8,3.7-5.2,5
			C1420,150.2,1416.6,151,1413.1,151z M1415.4,143.4c1.5,0,2.9-0.2,4.3-0.6c1.4-0.5,2.6-0.9,3.5-1.7c1.1-0.8,1.8-1.7,2.5-2.9
			c0.6-1.1,0.9-2.4,0.9-4v-2.3h-11.5c-2.3,0-4,0.5-5.4,1.4c-1.4,0.9-2,2.3-2,4.1c0,1.7,0.6,3.2,1.8,4.1
			C1410.8,142.9,1412.8,143.4,1415.4,143.4z"/>
		<path d="M1461.1,108.1h8.1v7.2c0.9-2.1,2.3-4,4.1-5.7c2-1.5,4.3-2.4,7.2-2.4c1.4,0,2.3,0,2.9,0.2c0.6,0.2,1.1,0.2,1.4,0.3v7.9
			c-0.9-0.3-1.7-0.5-2.5-0.6c-0.8-0.2-1.7-0.2-2.8-0.2c-1.7,0-3.2,0.3-4.4,0.9c-1.2,0.6-2.3,1.4-3.1,2.4c-0.8,1.1-1.4,2.1-1.8,3.4
			c-0.5,1.2-0.6,2.6-0.6,4v24.6h-8.7v-42H1461.1z"/>
		<path d="M1507.7,151c-2.8,0-5.5-0.5-8-1.4s-4.8-2.1-6.6-4c-1.8-1.8-3.4-4-4.4-6.7s-1.7-5.8-1.7-9.5v-1.5c0-3.5,0.5-6.6,1.5-9.2
			s2.5-4.7,4.3-6.4c1.8-1.7,4-3.1,6.3-3.8c2.5-0.9,4.9-1.2,7.7-1.2c6.4,0,11.3,1.7,14.7,5.2c3.4,3.4,5.1,8.4,5.1,14.7v4.4h-30.8
			c0,2.1,0.5,4,1.1,5.5c0.6,1.5,1.5,2.8,2.6,3.7s2.3,1.5,3.7,2c1.4,0.5,2.9,0.6,4.3,0.6c3.1,0,5.2-0.5,6.6-1.4
			c1.4-0.9,2.3-2.1,2.9-3.7h8.7c-0.9,4.1-2.9,7.3-6.3,9.5C1516.5,149.9,1512.4,151,1507.7,151z M1507.3,114.8
			c-1.5,0-2.9,0.2-4.3,0.6c-1.4,0.3-2.6,0.9-3.5,1.8c-0.9,0.9-1.8,1.8-2.5,3.2c-0.6,1.2-0.9,2.9-1.1,4.7h22.1c0-2-0.3-3.7-0.9-4.9
			c-0.6-1.4-1.4-2.4-2.3-3.2s-2.1-1.4-3.4-1.7C1510.2,114.9,1508.8,114.8,1507.3,114.8z"/>
		<path d="M1549.5,151c-3.1,0-5.8-0.3-8-1.1c-2.1-0.6-4-1.7-5.5-2.8c-1.5-1.2-2.6-2.6-3.4-4.1s-1.2-3.2-1.5-4.9h8.7
			c0.3,1.5,1.2,2.8,2.8,3.7c1.5,0.9,3.7,1.5,6.9,1.5c3.5,0,6-0.5,7.4-1.4c1.4-0.9,2.1-2.1,2.1-3.7c0-0.6-0.2-1.4-0.6-2
			c-0.3-0.6-0.9-1.2-1.8-1.7c-0.8-0.5-2-0.9-3.4-1.4c-1.4-0.5-3.1-0.8-5.2-1.1c-2.5-0.3-4.6-0.8-6.6-1.4c-2-0.6-3.7-1.4-5.1-2.4
			c-1.4-1.1-2.5-2.3-3.2-3.7s-1.1-3.2-1.1-5.2c0-1.7,0.3-3.4,1.1-4.7s1.7-2.8,3.2-4c1.4-1.1,3.2-2,5.4-2.6c2.1-0.6,4.6-0.9,7.5-0.9
			c2.8,0,5.2,0.3,7.2,1.1c2,0.6,3.7,1.7,5.1,2.8c1.4,1.2,2.5,2.6,3.1,4.1c0.8,1.5,1.2,3.2,1.4,4.9h-8.7c-0.5-1.7-1.2-2.9-2.6-3.8
			c-1.2-0.9-3.1-1.4-5.4-1.4c-3.1,0-5.4,0.5-6.6,1.4c-1.2,0.9-1.8,2-1.8,3.4c0,0.8,0.2,1.4,0.5,2c0.3,0.6,0.9,1.1,1.5,1.5
			c0.8,0.5,1.7,0.9,3.1,1.2c1.2,0.3,2.9,0.6,4.9,0.9c2.5,0.3,4.8,0.8,6.7,1.4c2,0.6,3.8,1.5,5.2,2.4c1.5,1.1,2.6,2.3,3.4,3.8
			c0.8,1.5,1.2,3.2,1.2,5.2c0,1.8-0.5,3.5-1.2,5c-0.8,1.5-1.8,2.9-3.4,4s-3.4,2-5.7,2.8C1555.1,150.7,1552.5,151,1549.5,151z"/>
		<path d="M1590.7,150.5c-4.8,0-8.3-1.1-10.4-3.1c-2.1-2-3.1-5.3-3.1-9.9v-22h-6v-7.5h6v-9.5h8.7v9.5h10.7v7.5H1586v20.6
			c0,2.4,0.5,4.3,1.4,5.2c0.9,0.9,2.8,1.5,5.4,1.5c1.5,0,3.2-0.2,4.8-0.3v7.5c-1.1,0.2-2,0.2-3.1,0.3
			C1593.3,150.4,1592.1,150.5,1590.7,150.5z"/>
		<path d="M1616.6,151c-2.3,0-4.3-0.3-6.1-0.9c-1.8-0.6-3.2-1.5-4.4-2.8c-1.2-1.2-2.1-2.6-2.8-4.1c-0.6-1.5-0.9-3.4-0.9-5.2
			c0-4.1,1.2-7.3,3.7-9.3c2.5-2,6.1-3.1,11-3.1h13.2v-2.3c0-3.2-0.8-5.3-2.1-6.6c-1.4-1.2-3.7-1.8-6.6-1.8c-2.8,0-4.8,0.5-6,1.2
			c-1.2,0.9-2,2-2.3,3.5h-8.4c0.2-1.8,0.6-3.5,1.4-4.9c0.8-1.5,2-2.8,3.4-4c1.5-1.1,3.2-2,5.2-2.6c2-0.6,4.4-0.9,7.1-0.9
			c2.6,0,4.9,0.3,7.1,0.9c2.1,0.6,3.8,1.5,5.4,2.8s2.6,2.9,3.5,4.7c0.8,2,1.2,4.3,1.2,7v16.7c0,2.3,0,4.1,0.2,5.8
			c0,1.7,0.2,3.4,0.5,4.9h-8c-0.2-1.2-0.3-2.3-0.3-3.1c-0.2-0.9-0.2-1.8-0.2-3.2c-1.1,2-2.8,3.7-5.2,5S1620.2,151,1616.6,151z
			 M1619.1,143.4c1.5,0,2.9-0.2,4.3-0.6c1.4-0.5,2.6-0.9,3.5-1.7c1.1-0.8,1.8-1.7,2.5-2.9c0.6-1.1,0.9-2.4,0.9-4v-2.3h-11.5
			c-2.3,0-4,0.5-5.4,1.4c-1.4,0.9-2,2.3-2,4.1c0,1.7,0.6,3.2,1.8,4.1C1614.3,142.9,1616.3,143.4,1619.1,143.4z"/>
		<path d="M1662.3,151c-4.9,0-8.7-1.4-11.3-4.3c-2.6-2.9-3.8-7.3-3.8-13.1v-25.5h8.7v24.6c0,3.5,0.8,6.3,2.1,7.9
			c1.5,1.8,3.8,2.8,6.9,2.8c1.7,0,3.2-0.3,4.4-0.9c1.2-0.6,2.3-1.4,3.1-2.4c0.8-1.1,1.4-2.1,1.8-3.5c0.5-1.2,0.6-2.6,0.6-4v-24.5
			h8.7v42h-8.1v-7.2c-1.1,2.1-2.6,4-4.9,5.7C1668.6,150.2,1665.7,151,1662.3,151z"/>
		<path d="M1693,108.1h8.1v7.2c0.9-2.1,2.3-4,4.1-5.7c2-1.5,4.3-2.4,7.2-2.4c1.4,0,2.3,0,2.9,0.2c0.6,0.2,1.1,0.2,1.4,0.3v7.9
			c-0.9-0.3-1.7-0.5-2.5-0.6c-0.8-0.2-1.7-0.2-2.8-0.2c-1.7,0-3.2,0.3-4.4,0.9c-1.2,0.6-2.3,1.4-3.1,2.4c-0.8,1.1-1.4,2.1-1.8,3.4
			c-0.5,1.2-0.6,2.6-0.6,4v24.6h-8.7v-42H1693z"/>
		<path d="M1732.7,151c-2.3,0-4.3-0.3-6.1-0.9c-1.8-0.6-3.2-1.5-4.4-2.8c-1.2-1.2-2.1-2.6-2.8-4.1c-0.6-1.5-0.9-3.4-0.9-5.2
			c0-4.1,1.2-7.3,3.7-9.3c2.5-2,6.1-3.1,11-3.1h13.2v-2.3c0-3.2-0.8-5.3-2.1-6.6c-1.4-1.2-3.7-1.8-6.6-1.8c-2.8,0-4.8,0.5-6,1.2
			c-1.2,0.9-2,2-2.3,3.5h-8.4c0.2-1.8,0.6-3.5,1.4-4.9c0.8-1.5,2-2.8,3.4-4c1.5-1.1,3.2-2,5.2-2.6c2-0.6,4.4-0.9,7.1-0.9
			c2.6,0,4.9,0.3,7.1,0.9c2.1,0.6,3.8,1.5,5.4,2.8s2.6,2.9,3.5,4.7c0.8,2,1.2,4.3,1.2,7v16.7c0,2.3,0,4.1,0.2,5.8
			c0,1.7,0.2,3.4,0.5,4.9h-8c-0.2-1.2-0.3-2.3-0.3-3.1c-0.2-0.9-0.2-1.8-0.2-3.2c-1.1,2-2.8,3.7-5.2,5S1736.3,151,1732.7,151z
			 M1735,143.4c1.5,0,2.9-0.2,4.3-0.6c1.4-0.5,2.6-0.9,3.5-1.7c1.1-0.8,1.8-1.7,2.5-2.9c0.6-1.1,0.9-2.4,0.9-4v-2.3h-11.5
			c-2.3,0-4,0.5-5.4,1.4c-1.4,0.9-2,2.3-2,4.1c0,1.7,0.6,3.2,1.8,4.1C1730.4,142.9,1732.4,143.4,1735,143.4z"/>
		<path d="M1763.7,108.1h8.1v7c1.1-2.1,2.6-4,4.9-5.5c2.3-1.5,5.2-2.4,8.9-2.4c5.2,0,9,1.4,11.7,4.1c2.6,2.8,3.8,6.9,3.8,12.2v26.6
			h-8.7v-24.6c0-3.5-0.8-6.3-2.3-7.9s-4-2.8-7.4-2.8c-1.8,0-3.4,0.3-4.8,0.9c-1.2,0.6-2.3,1.4-3.2,2.4c-0.8,0.9-1.4,2.1-1.8,3.4
			c-0.5,1.2-0.6,2.6-0.6,4v24.6h-8.7v-42H1763.7z"/>
		<path d="M1826.1,150.5c-4.8,0-8.3-1.1-10.4-3.1c-2.1-2-3.1-5.3-3.1-9.9v-22h-6v-7.5h6v-9.5h8.7v9.5h10.7v7.5h-10.7v20.6
			c0,2.4,0.5,4.3,1.4,5.2c0.9,0.9,2.8,1.5,5.4,1.5c1.5,0,3.2-0.2,4.8-0.3v7.5c-1.1,0.2-2,0.2-3.1,0.3
			C1828.7,150.4,1827.5,150.5,1826.1,150.5z"/>
	</g>
</g>
</svg>
