<?xml version="1.0" encoding="utf-8"?>
<!-- Generator: Adobe Illustrator 27.0.0, SVG Export Plug-In . SVG Version: 6.00 Build 0)  -->
<svg version="1.1" id="Layer_1" xmlns="http://www.w3.org/2000/svg" xmlns:xlink="http://www.w3.org/1999/xlink" x="0px" y="0px"
	 viewBox="0 0 640 111" style="enable-background:new 0 0 640 111;" xml:space="preserve">
<style type="text/css">
	.st0{fill:#F4DAFF;}
</style>
<g>
	<path class="st0" d="M55.3,0h529.5C615.3,0,640,24.8,640,55.5l0,0c0,30.7-24.7,55.5-55.3,55.5H55.3C24.7,111,0,86.2,0,55.5l0,0
		C0,24.8,24.7,0,55.3,0z"/>
	<g>
		<path d="M39.7,39.6H44v10.3h12.1V39.6h4.3v25.1h-4.3v-11H44v11h-4.3V39.6z"/>
		<path d="M70.7,65.1c-1,0-1.9-0.1-2.7-0.4c-0.8-0.3-1.5-0.7-2-1.3c-0.6-0.6-1-1.1-1.3-1.9c-0.3-0.7-0.4-1.5-0.4-2.4
			c0-1.9,0.6-3.3,1.7-4.2c1.1-0.9,2.8-1.4,4.9-1.4h5.8v-1.1c0-1.4-0.3-2.4-0.9-2.9c-0.6-0.6-1.6-0.8-3-0.8c-1.2,0-2.1,0.2-2.7,0.6
			c-0.6,0.4-0.9,0.9-1,1.6h-3.9c0.1-0.8,0.3-1.6,0.6-2.2c0.4-0.7,0.9-1.3,1.5-1.8c0.6-0.5,1.4-0.9,2.4-1.1c0.9-0.3,2-0.4,3.1-0.4
			s2.2,0.1,3.1,0.4c0.9,0.3,1.7,0.6,2.4,1.2c0.6,0.6,1.2,1.3,1.6,2.1c0.4,0.9,0.6,1.9,0.6,3.2v7.6c0,1,0,1.9,0,2.6
			c0,0.8,0.1,1.5,0.1,2.2h-3.6c-0.1-0.6-0.1-1-0.1-1.4C77,62.9,77,62.4,77,61.9c-0.4,0.9-1.2,1.6-2.4,2.3
			C73.7,64.7,72.4,65.1,70.7,65.1z M71.8,61.7c0.6,0,1.3-0.1,1.9-0.3c0.6-0.1,1.1-0.4,1.6-0.8c0.4-0.4,0.8-0.8,1.1-1.3
			c0.3-0.5,0.4-1.1,0.4-1.8v-1.1h-5.1c-1,0-1.8,0.2-2.4,0.6c-0.6,0.4-0.9,1.1-0.9,1.9c0,0.8,0.3,1.4,0.9,1.9
			C69.7,61.4,70.6,61.7,71.8,61.7z"/>
		<path d="M84.6,45.7h3.6v3.2c0.6-1.1,1.4-2,2.6-2.6c1.1-0.6,2.4-0.9,3.9-0.9c2.5,0,4.4,0.8,5.8,2.3c1.4,1.6,2.1,3.9,2.1,7v0.7
			c0,1.6-0.2,3-0.6,4.3c-0.4,1.2-0.9,2.2-1.6,3c-0.7,0.8-1.6,1.4-2.5,1.8c-1,0.4-2.1,0.6-3.3,0.6c-1.4,0-2.6-0.3-3.7-0.9
			c-1.1-0.6-1.9-1.4-2.4-2.5v10.2h-3.9V45.7z M93.8,61.7c1.5,0,2.6-0.5,3.6-1.6c0.9-1,1.4-2.6,1.4-4.7v-0.7c0-2-0.4-3.5-1.4-4.4
			c-0.9-1-2.1-1.4-3.6-1.4c-0.6,0-1.3,0.1-1.9,0.4c-0.6,0.2-1.1,0.5-1.6,0.9c-0.5,0.4-0.9,0.9-1.1,1.6c-0.3,0.6-0.4,1.4-0.4,2.1v2.5
			c0,0.9,0.1,1.7,0.4,2.4c0.3,0.6,0.6,1.2,1.1,1.7c0.5,0.4,1,0.8,1.6,1C92.4,61.5,93,61.7,93.8,61.7z"/>
		<path d="M105.7,45.7h3.6v3.2c0.6-1.1,1.4-2,2.6-2.6c1.1-0.6,2.4-0.9,3.9-0.9c2.5,0,4.4,0.8,5.8,2.3c1.4,1.6,2.1,3.9,2.1,7v0.7
			c0,1.6-0.2,3-0.6,4.3c-0.4,1.2-0.9,2.2-1.6,3c-0.7,0.8-1.6,1.4-2.5,1.8c-1,0.4-2.1,0.6-3.3,0.6c-1.4,0-2.6-0.3-3.7-0.9
			c-1.1-0.6-1.9-1.4-2.4-2.5v10.2h-3.9V45.7z M114.8,61.7c1.5,0,2.6-0.5,3.6-1.6c0.9-1,1.4-2.6,1.4-4.7v-0.7c0-2-0.4-3.5-1.4-4.4
			c-0.9-1-2.1-1.4-3.6-1.4c-0.6,0-1.3,0.1-1.9,0.4c-0.6,0.2-1.1,0.5-1.6,0.9c-0.5,0.4-0.9,0.9-1.1,1.6c-0.3,0.6-0.4,1.4-0.4,2.1v2.5
			c0,0.9,0.1,1.7,0.4,2.4c0.3,0.6,0.6,1.2,1.1,1.7c0.5,0.4,1,0.8,1.6,1C113.4,61.5,114.1,61.7,114.8,61.7z"/>
		<path d="M129.1,72.3c-0.4,0-0.7,0-1.1-0.1v-3.4c0.4,0.1,0.7,0.1,1.1,0.1c0.4,0,0.7-0.1,1-0.2s0.5-0.4,0.8-0.6
			c0.2-0.4,0.4-0.7,0.6-1.3c0.2-0.5,0.5-1.2,0.8-2l-8-19h4.3l5.8,14.7l5.2-14.7h4l-7.3,19c-0.5,1.4-1,2.5-1.4,3.4
			c-0.4,0.9-0.9,1.7-1.5,2.4c-0.6,0.6-1.1,1.1-1.8,1.4C130.8,72.1,130,72.3,129.1,72.3z"/>
		<path d="M161.3,65.1c-1.3,0-2.5-0.2-3.6-0.6c-1.1-0.4-2-1-2.8-1.8c-0.8-0.8-1.4-1.8-1.9-3s-0.7-2.6-0.7-4.3v-0.7
			c0-1.5,0.2-2.9,0.7-4c0.5-1.1,1.1-2.1,1.9-2.9c0.8-0.8,1.8-1.4,2.9-1.8c1.1-0.4,2.2-0.6,3.4-0.6c1.2,0,2.4,0.1,3.3,0.5
			c1,0.4,1.8,0.8,2.5,1.4c0.6,0.6,1.2,1.3,1.6,2.1c0.4,0.8,0.6,1.6,0.8,2.5h-4c-0.2-0.9-0.6-1.6-1.3-2.1c-0.6-0.6-1.6-0.9-2.9-0.9
			c-0.6,0-1.3,0.1-1.9,0.4c-0.6,0.2-1.1,0.6-1.6,1.1c-0.4,0.5-0.8,1.1-1.1,1.9c-0.3,0.8-0.4,1.6-0.4,2.6v0.7c0,1.1,0.1,2.1,0.4,2.9
			c0.3,0.8,0.6,1.4,1.1,1.9c0.4,0.5,1,0.9,1.6,1.1c0.6,0.2,1.2,0.4,1.9,0.4c2.2,0,3.6-1,4.2-3h4c-0.2,1-0.5,1.9-1,2.7
			c-0.5,0.8-1.1,1.5-1.8,2s-1.5,1-2.4,1.3C163.4,65,162.4,65.1,161.3,65.1z"/>
		<path d="M179,65.1c-2.2,0-3.9-0.6-5.1-1.9c-1.1-1.3-1.7-3.3-1.7-5.9V45.8h3.9v11.1c0,1.6,0.4,2.8,1,3.6c0.6,0.8,1.7,1.2,3.1,1.2
			c0.8,0,1.4-0.1,2-0.4c0.6-0.3,1-0.6,1.4-1.1s0.6-1,0.8-1.6c0.1-0.6,0.3-1.2,0.3-1.8V45.7h3.9v19H185v-3.2c-0.4,1-1.2,1.8-2.2,2.5
			C181.7,64.7,180.5,65.1,179,65.1z"/>
		<path d="M199.8,65.1c-1.4,0-2.6-0.1-3.6-0.4s-1.8-0.7-2.5-1.3c-0.6-0.5-1.1-1.1-1.5-1.9s-0.6-1.4-0.6-2.2h3.9
			c0.1,0.6,0.6,1.2,1.2,1.6c0.6,0.4,1.6,0.6,3.1,0.6c1.6,0,2.7-0.2,3.3-0.6c0.6-0.4,1-1,1-1.6c0-0.3-0.1-0.6-0.3-0.9
			c-0.1-0.3-0.4-0.5-0.8-0.8c-0.4-0.2-0.9-0.4-1.5-0.6s-1.4-0.4-2.3-0.4c-1.1-0.1-2.1-0.4-2.9-0.6c-0.9-0.3-1.6-0.6-2.2-1.1
			c-0.6-0.4-1.1-1-1.4-1.6s-0.5-1.4-0.5-2.3c0-0.8,0.1-1.5,0.4-2.1c0.3-0.7,0.8-1.3,1.4-1.8c0.6-0.5,1.4-0.9,2.4-1.2
			c1-0.3,2.1-0.4,3.4-0.4c1.2,0,2.3,0.1,3.2,0.4c0.9,0.3,1.6,0.7,2.3,1.3c0.6,0.5,1.1,1.1,1.4,1.9s0.5,1.4,0.6,2.2h-3.9
			c-0.2-0.7-0.6-1.3-1.1-1.7c-0.6-0.4-1.4-0.6-2.4-0.6c-1.4,0-2.4,0.2-2.9,0.6c-0.6,0.4-0.8,0.9-0.8,1.5c0,0.4,0.1,0.6,0.2,0.9
			c0.1,0.3,0.4,0.5,0.7,0.7s0.8,0.4,1.4,0.6c0.6,0.1,1.4,0.3,2.2,0.4c1.1,0.1,2.1,0.4,3,0.6c0.9,0.3,1.7,0.6,2.4,1.1
			c0.6,0.5,1.1,1.1,1.5,1.7c0.4,0.6,0.6,1.5,0.6,2.4c0,0.8-0.1,1.6-0.5,2.3s-0.9,1.3-1.5,1.8c-0.7,0.5-1.5,0.9-2.6,1.2
			C202.4,65,201.1,65.1,199.8,65.1z"/>
		<path d="M218.3,64.9c-2.1,0-3.7-0.5-4.6-1.4c-0.9-0.9-1.4-2.4-1.4-4.5v-9.9h-2.7v-3.4h2.7v-4.3h3.9v4.3h4.8v3.4h-4.8v9.3
			c0,1.1,0.2,1.9,0.6,2.4c0.4,0.4,1.2,0.6,2.4,0.6c0.7,0,1.4,0,2.1-0.1v3.4c-0.4,0.1-0.9,0.1-1.4,0.1
			C219.5,64.8,219,64.9,218.3,64.9z"/>
		<path d="M232.4,65.1c-1.3,0-2.5-0.2-3.6-0.6c-1.1-0.4-2.1-1-2.9-1.9c-0.9-0.8-1.5-1.8-2-3c-0.5-1.2-0.7-2.6-0.7-4.2v-0.7
			c0-1.5,0.2-2.9,0.7-4c0.5-1.1,1.1-2.1,2-2.9c0.9-0.8,1.8-1.4,2.9-1.8c1.1-0.4,2.4-0.6,3.6-0.6c1.3,0,2.5,0.2,3.6,0.6
			c1.1,0.4,2.1,1,2.9,1.8c0.9,0.8,1.5,1.8,2,2.9c0.5,1.1,0.7,2.5,0.7,4v0.7c0,1.6-0.2,3-0.7,4.2c-0.5,1.2-1.1,2.2-2,3
			c-0.9,0.8-1.8,1.4-2.9,1.9C234.9,64.9,233.7,65.1,232.4,65.1z M232.4,61.7c0.7,0,1.4-0.1,2-0.4s1.2-0.6,1.7-1.1
			c0.5-0.5,0.9-1.1,1.1-1.9s0.4-1.7,0.4-2.9v-0.7c0-1-0.1-1.9-0.4-2.6s-0.7-1.4-1.1-1.8c-0.5-0.5-1.1-0.9-1.7-1.1s-1.3-0.4-2-0.4
			c-0.7,0-1.4,0.1-2,0.4s-1.2,0.6-1.7,1.1c-0.5,0.5-0.9,1.1-1.1,1.8s-0.4,1.6-0.4,2.6v0.7c0,1.1,0.1,2.1,0.4,2.9s0.7,1.4,1.1,1.9
			c0.5,0.5,1.1,0.9,1.7,1.1S231.7,61.7,232.4,61.7z"/>
		<path d="M244.7,45.7h3.6v3.2c0.2-0.5,0.5-0.9,0.9-1.4c0.4-0.4,0.8-0.9,1.2-1.1c0.4-0.3,1-0.6,1.5-0.8c0.6-0.2,1.1-0.3,1.7-0.3
			c1.6,0,2.8,0.4,3.7,1c0.9,0.6,1.5,1.5,1.8,2.6c0.6-1.1,1.3-1.9,2.3-2.6s2.1-1,3.4-1c2,0,3.5,0.6,4.6,1.7s1.6,3,1.6,5.4v12.2H267
			V53.4c0-1.7-0.3-2.9-0.9-3.6c-0.6-0.7-1.5-1.1-2.6-1.1c-1.3,0-2.2,0.4-2.9,1.3c-0.6,0.9-0.9,2-0.9,3.4v11.3h-3.9V53.4
			c0-1.7-0.3-2.9-0.9-3.6s-1.5-1.1-2.6-1.1c-1.3,0-2.2,0.4-2.9,1.3c-0.6,0.9-0.9,2-0.9,3.4v11.3h-3.9L244.7,45.7L244.7,45.7z"/>
		<path d="M283.2,65.1c-1.3,0-2.4-0.2-3.6-0.6c-1.1-0.4-2.1-1-2.9-1.8c-0.9-0.8-1.5-1.8-2-3c-0.5-1.2-0.7-2.6-0.7-4.3v-0.7
			c0-1.6,0.2-2.9,0.7-4.2c0.5-1.1,1.1-2.1,1.9-2.9c0.9-0.8,1.8-1.4,2.9-1.7c1.1-0.4,2.2-0.6,3.4-0.6c2.9,0,5.1,0.8,6.6,2.3
			c1.5,1.6,2.3,3.8,2.3,6.7v2H278c0,1,0.2,1.8,0.5,2.5c0.3,0.6,0.7,1.2,1.1,1.6c0.5,0.4,1.1,0.7,1.7,0.9c0.6,0.2,1.3,0.3,1.9,0.3
			c1.4,0,2.4-0.2,3-0.6c0.6-0.4,1.1-1,1.3-1.6h3.9c-0.4,1.9-1.3,3.3-2.8,4.3C287.1,64.6,285.3,65.1,283.2,65.1z M283.1,48.8
			c-0.6,0-1.3,0.1-1.9,0.3c-0.6,0.1-1.1,0.4-1.6,0.8c-0.5,0.4-0.9,0.9-1.1,1.4c-0.3,0.6-0.4,1.3-0.5,2.1h9.9c0-0.9-0.1-1.6-0.4-2.2
			c-0.2-0.6-0.6-1.1-1-1.4c-0.4-0.4-0.9-0.6-1.5-0.8C284.3,48.8,283.7,48.8,283.1,48.8z"/>
		<path d="M294.8,45.7h3.6v3.2c0.4-1,1-1.8,1.9-2.5c0.9-0.7,1.9-1.1,3.2-1.1c0.6,0,1.1,0,1.4,0.1c0.3,0.1,0.5,0.1,0.6,0.1v3.6
			c-0.4-0.1-0.8-0.2-1.1-0.3c-0.4-0.1-0.7-0.1-1.2-0.1c-0.8,0-1.4,0.1-2,0.4s-1,0.6-1.4,1.1s-0.6,0.9-0.8,1.5
			c-0.1,0.6-0.3,1.2-0.3,1.8v11.1h-3.9L294.8,45.7L294.8,45.7z"/>
		<path d="M314.9,65.1c-1.4,0-2.6-0.1-3.6-0.4s-1.8-0.7-2.4-1.3c-0.6-0.5-1.1-1.1-1.5-1.9s-0.6-1.4-0.6-2.2h3.9
			c0.1,0.6,0.6,1.2,1.2,1.6c0.6,0.4,1.6,0.6,3.1,0.6c1.6,0,2.7-0.2,3.4-0.6c0.6-0.4,0.9-1,0.9-1.6c0-0.3-0.1-0.6-0.2-0.9
			c-0.1-0.3-0.4-0.5-0.8-0.8c-0.4-0.2-0.9-0.4-1.5-0.6c-0.6-0.2-1.4-0.4-2.3-0.4c-1.1-0.1-2.1-0.4-2.9-0.6c-0.9-0.3-1.6-0.6-2.2-1.1
			c-0.6-0.4-1.1-1-1.4-1.6s-0.5-1.4-0.5-2.3c0-0.8,0.1-1.5,0.5-2.1c0.3-0.7,0.8-1.3,1.4-1.8c0.6-0.5,1.4-0.9,2.4-1.2
			c0.9-0.3,2.1-0.4,3.4-0.4c1.2,0,2.3,0.1,3.2,0.4s1.6,0.7,2.3,1.3c0.6,0.5,1.1,1.1,1.4,1.9s0.5,1.4,0.6,2.2h-3.9
			c-0.2-0.7-0.6-1.3-1.1-1.7s-1.4-0.6-2.4-0.6c-1.4,0-2.4,0.2-2.9,0.6c-0.6,0.4-0.9,0.9-0.9,1.5c0,0.4,0.1,0.6,0.2,0.9
			c0.1,0.3,0.4,0.5,0.7,0.7s0.8,0.4,1.4,0.6c0.6,0.1,1.4,0.3,2.2,0.4c1.1,0.1,2.1,0.4,3,0.6c0.9,0.3,1.7,0.6,2.4,1.1
			c0.6,0.5,1.1,1.1,1.5,1.7c0.4,0.6,0.6,1.5,0.6,2.4c0,0.8-0.1,1.6-0.5,2.3s-0.9,1.3-1.6,1.8c-0.7,0.5-1.6,0.9-2.6,1.2
			C317.5,65,316.3,65.1,314.9,65.1z"/>
		<path d="M341,65.1c-1.4,0-2.6-0.1-3.6-0.4c-1-0.3-1.8-0.7-2.4-1.3c-0.6-0.5-1.1-1.1-1.5-1.9s-0.6-1.4-0.6-2.2h3.9
			c0.1,0.6,0.6,1.2,1.2,1.6c0.6,0.4,1.6,0.6,3.1,0.6c1.6,0,2.7-0.2,3.4-0.6s0.9-1,0.9-1.6c0-0.3-0.1-0.6-0.2-0.9
			c-0.1-0.3-0.4-0.5-0.8-0.8c-0.4-0.2-0.9-0.4-1.5-0.6c-0.6-0.2-1.4-0.4-2.3-0.4c-1.1-0.1-2.1-0.4-2.9-0.6c-0.9-0.3-1.6-0.6-2.2-1.1
			c-0.6-0.4-1.1-1-1.4-1.6s-0.5-1.4-0.5-2.3c0-0.8,0.1-1.5,0.5-2.1c0.3-0.7,0.8-1.3,1.4-1.8c0.6-0.5,1.4-0.9,2.4-1.2
			c0.9-0.3,2.1-0.4,3.4-0.4c1.2,0,2.3,0.1,3.2,0.4s1.6,0.7,2.3,1.3c0.6,0.5,1.1,1.1,1.4,1.9s0.5,1.4,0.6,2.2h-3.9
			c-0.2-0.7-0.6-1.3-1.1-1.7s-1.4-0.6-2.4-0.6c-1.4,0-2.4,0.2-2.9,0.6s-0.9,0.9-0.9,1.5c0,0.4,0.1,0.6,0.2,0.9
			c0.1,0.3,0.4,0.5,0.7,0.7s0.8,0.4,1.4,0.6c0.6,0.1,1.4,0.3,2.2,0.4c1.1,0.1,2.1,0.4,3,0.6c0.9,0.3,1.7,0.6,2.4,1.1
			c0.6,0.5,1.1,1.1,1.5,1.7c0.4,0.6,0.6,1.5,0.6,2.4c0,0.8-0.1,1.6-0.5,2.3s-0.9,1.3-1.6,1.8c-0.7,0.5-1.6,0.9-2.6,1.2
			C343.5,65,342.3,65.1,341,65.1z"/>
		<path d="M352.2,45.7h3.6v3.2c0.6-1.1,1.4-2,2.6-2.6c1.1-0.6,2.4-0.9,3.9-0.9c2.5,0,4.4,0.8,5.8,2.3c1.4,1.6,2.1,3.9,2.1,7v0.7
			c0,1.6-0.2,3-0.6,4.3c-0.4,1.2-0.9,2.2-1.6,3c-0.7,0.8-1.6,1.4-2.5,1.8c-1,0.4-2.1,0.6-3.3,0.6c-1.4,0-2.6-0.3-3.7-0.9
			c-1.1-0.6-1.9-1.4-2.4-2.5v10.2h-3.9L352.2,45.7L352.2,45.7z M361.3,61.7c1.5,0,2.6-0.5,3.6-1.6c0.9-1,1.4-2.6,1.4-4.7v-0.7
			c0-2-0.4-3.5-1.4-4.4c-0.9-0.9-2.1-1.4-3.6-1.4c-0.6,0-1.3,0.1-1.9,0.4c-0.6,0.2-1.1,0.5-1.6,0.9c-0.5,0.4-0.9,0.9-1.1,1.6
			c-0.3,0.6-0.4,1.4-0.4,2.1v2.5c0,0.9,0.1,1.7,0.4,2.4c0.3,0.6,0.6,1.2,1.1,1.7c0.5,0.4,1,0.8,1.6,1
			C359.9,61.5,360.6,61.7,361.3,61.7z"/>
		<path d="M381.5,65.1c-1.3,0-2.4-0.2-3.6-0.6c-1.1-0.4-2.1-1-2.9-1.8c-0.9-0.8-1.5-1.8-2-3s-0.7-2.6-0.7-4.3v-0.7
			c0-1.6,0.2-2.9,0.7-4.2c0.5-1.1,1.1-2.1,1.9-2.9c0.9-0.8,1.8-1.4,2.9-1.7c1.1-0.4,2.2-0.6,3.4-0.6c2.9,0,5.1,0.8,6.6,2.3
			c1.5,1.6,2.3,3.8,2.3,6.7v2h-13.8c0,1,0.2,1.8,0.5,2.5c0.3,0.6,0.7,1.2,1.1,1.6c0.5,0.4,1.1,0.7,1.7,0.9c0.6,0.2,1.3,0.3,1.9,0.3
			c1.4,0,2.4-0.2,3-0.6c0.6-0.4,1.1-1,1.3-1.6h3.9c-0.4,1.9-1.3,3.3-2.8,4.3C385.4,64.6,383.5,65.1,381.5,65.1z M381.2,48.8
			c-0.6,0-1.3,0.1-1.9,0.3c-0.6,0.1-1.1,0.4-1.6,0.8c-0.5,0.4-0.9,0.9-1.1,1.4c-0.3,0.6-0.4,1.3-0.5,2.1h9.9c0-0.9-0.1-1.6-0.4-2.2
			c-0.2-0.6-0.6-1.1-1-1.4c-0.4-0.4-0.9-0.6-1.5-0.8C382.5,48.8,381.9,48.8,381.2,48.8z"/>
		<path d="M393,45.7h3.6v3.2c0.4-0.9,1.2-1.8,2.2-2.5c1-0.7,2.4-1.1,3.9-1.1c2.3,0,4.1,0.6,5.2,1.9c1.1,1.3,1.8,3.1,1.8,5.5v12h-3.9
			V53.6c0-1.6-0.4-2.8-1-3.6c-0.6-0.8-1.8-1.2-3.3-1.2c-0.9,0-1.6,0.1-2.1,0.4s-1.1,0.6-1.4,1.1s-0.6,0.9-0.9,1.5
			c-0.1,0.6-0.3,1.2-0.3,1.8v11.1h-3.9L393,45.7L393,45.7z"/>
		<path d="M420.6,65.1c-1.2,0-2.3-0.2-3.3-0.6c-1-0.4-1.8-1-2.5-1.8c-0.7-0.8-1.2-1.8-1.6-3c-0.4-1.2-0.6-2.6-0.6-4.3v-0.7
			c0-1.5,0.2-2.9,0.6-4s0.9-2.1,1.6-2.9c0.7-0.8,1.6-1.4,2.5-1.8c1-0.4,2.1-0.6,3.3-0.6c1.4,0,2.6,0.3,3.7,0.9
			c1.1,0.6,1.9,1.5,2.4,2.5v-9.2h3.9v25.1H427v-3.2c-0.2,0.5-0.5,0.9-0.9,1.4c-0.4,0.4-0.9,0.8-1.4,1.1c-0.6,0.4-1.2,0.6-1.9,0.8
			C422.1,65,421.4,65.1,420.6,65.1z M421.5,61.7c0.7,0,1.4-0.1,2-0.4s1.2-0.6,1.6-1s0.9-1,1.1-1.7c0.3-0.6,0.4-1.4,0.4-2.4v-2.5
			c0-0.8-0.1-1.5-0.4-2.1c-0.3-0.6-0.6-1.1-1.1-1.6c-0.5-0.4-1.1-0.7-1.7-0.9s-1.3-0.4-1.9-0.4c-1.5,0-2.7,0.5-3.6,1.4
			c-0.9,1-1.4,2.4-1.4,4.4v0.7c0,2.1,0.4,3.7,1.4,4.7C418.9,61.1,420,61.7,421.5,61.7z"/>
		<path d="M450.3,65.1c-1.4,0-2.7-0.2-3.9-0.6c-1.1-0.4-2-0.9-2.8-1.6c-0.7-0.6-1.3-1.4-1.7-2.4c-0.4-0.9-0.6-1.9-0.6-3.1h4.3
			c0,1.2,0.4,2.1,1.1,2.8c0.7,0.6,1.9,1,3.5,1s2.7-0.4,3.5-1c0.8-0.6,1.1-1.6,1.1-2.8c0-1.2-0.4-2.1-1.1-2.9s-1.9-1.1-3.6-1.1h-2.5
			V50h2.5c1.4,0,2.5-0.3,3.2-0.9s1.1-1.5,1.1-2.6s-0.4-2-1-2.6c-0.7-0.6-1.8-0.9-3.3-0.9s-2.6,0.3-3.3,0.9s-1.1,1.4-1.1,2.5h-4.3
			c0-2.1,0.7-3.9,2.2-5.2c1.4-1.3,3.6-2,6.4-2c1.4,0,2.6,0.1,3.7,0.6c1.1,0.4,2,0.9,2.7,1.4s1.3,1.3,1.6,2.1
			c0.4,0.8,0.6,1.6,0.6,2.6c0,1.4-0.4,2.6-1.1,3.6c-0.8,1-1.8,1.6-3.1,2.1c1.4,0.4,2.6,1.1,3.4,2.1c0.8,1,1.2,2.4,1.2,4.1
			c0,1-0.2,1.9-0.6,2.9c-0.4,0.9-0.9,1.6-1.7,2.3c-0.7,0.6-1.7,1.1-2.8,1.5C453,64.9,451.7,65.1,450.3,65.1z"/>
		<path d="M462,60.9h5.8V44.2l-5.8,4.2V44l6.1-4.3h4.1V61h4.8v3.7h-15L462,60.9L462,60.9z"/>
		<path d="M483.8,51.5c-0.9,0-1.7-0.1-2.4-0.4s-1.4-0.7-1.9-1.2c-0.5-0.5-0.9-1.1-1.2-1.9c-0.3-0.7-0.4-1.5-0.4-2.4v-0.4
			c0-0.9,0.1-1.7,0.4-2.4c0.3-0.7,0.7-1.4,1.2-1.9c0.5-0.5,1.1-0.9,1.9-1.2c0.7-0.3,1.5-0.4,2.4-0.4c0.9,0,1.6,0.1,2.4,0.4
			s1.4,0.7,1.9,1.2c0.5,0.5,0.9,1.1,1.2,1.9s0.4,1.5,0.4,2.4v0.4c0,0.9-0.1,1.7-0.4,2.4c-0.3,0.7-0.7,1.4-1.2,1.9s-1.1,0.9-1.9,1.2
			C485.4,51.3,484.6,51.5,483.8,51.5z M498.4,39.6h4.3l-17.1,25.1h-4.3L498.4,39.6z M483.8,48.3c0.6,0,1.1-0.2,1.6-0.6
			c0.4-0.4,0.6-1.1,0.6-2.1v-0.4c0-0.9-0.2-1.6-0.6-2.1s-0.9-0.6-1.6-0.6s-1.1,0.2-1.6,0.6c-0.4,0.4-0.6,1.1-0.6,2.1v0.4
			c0,0.9,0.2,1.6,0.6,2.1S483.1,48.3,483.8,48.3z M500.2,65c-0.9,0-1.7-0.1-2.4-0.4s-1.4-0.7-1.9-1.2c-0.5-0.5-0.9-1.1-1.2-1.9
			s-0.4-1.5-0.4-2.4v-0.4c0-0.9,0.1-1.7,0.4-2.4c0.3-0.7,0.7-1.4,1.2-1.9c0.5-0.5,1.1-0.9,1.9-1.2c0.7-0.3,1.5-0.4,2.4-0.4
			c0.9,0,1.6,0.1,2.4,0.4s1.4,0.7,1.9,1.2c0.5,0.5,0.9,1.1,1.2,1.9c0.3,0.7,0.4,1.5,0.4,2.4v0.4c0,0.9-0.1,1.7-0.4,2.4
			c-0.3,0.7-0.7,1.4-1.2,1.9c-0.5,0.5-1.1,0.9-1.9,1.2C501.8,64.9,501,65,500.2,65z M500.2,61.8c0.6,0,1.1-0.2,1.6-0.6
			c0.4-0.4,0.6-1.1,0.6-2.1v-0.4c0-0.9-0.2-1.6-0.6-2.1c-0.4-0.4-0.9-0.6-1.6-0.6s-1.1,0.2-1.6,0.6c-0.4,0.4-0.6,1.1-0.6,2.1v0.4
			c0,0.9,0.2,1.6,0.6,2.1C499,61.6,499.5,61.8,500.2,61.8z"/>
		<path d="M516.2,45.7h3.6v3.2c0.2-0.5,0.5-0.9,0.9-1.4c0.4-0.4,0.8-0.9,1.2-1.1c0.4-0.4,1-0.6,1.5-0.8c0.6-0.2,1.1-0.3,1.7-0.3
			c1.6,0,2.8,0.4,3.7,1c0.9,0.6,1.5,1.5,1.8,2.6c0.6-1.1,1.3-1.9,2.3-2.6s2.1-1,3.4-1c2,0,3.5,0.6,4.6,1.7s1.6,3,1.6,5.4v12.2h-3.9
			V53.4c0-1.7-0.3-2.9-0.9-3.6s-1.5-1.1-2.6-1.1c-1.3,0-2.2,0.4-2.9,1.3c-0.6,0.9-0.9,2-0.9,3.4v11.3h-3.9V53.4
			c0-1.7-0.3-2.9-0.9-3.6s-1.5-1.1-2.6-1.1c-1.3,0-2.2,0.4-2.9,1.3c-0.6,0.9-0.9,2-0.9,3.4v11.3h-3.9L516.2,45.7L516.2,45.7z"/>
		<path d="M554.7,65.1c-1.3,0-2.5-0.2-3.6-0.6c-1.1-0.4-2.1-1-2.9-1.9c-0.9-0.8-1.5-1.8-2-3c-0.5-1.2-0.7-2.6-0.7-4.2v-0.7
			c0-1.5,0.2-2.9,0.7-4c0.5-1.1,1.1-2.1,2-2.9c0.9-0.8,1.8-1.4,2.9-1.8c1.1-0.4,2.4-0.6,3.6-0.6c1.3,0,2.5,0.2,3.6,0.6
			c1.1,0.4,2.1,1,2.9,1.8c0.9,0.8,1.5,1.8,2,2.9c0.5,1.1,0.7,2.5,0.7,4v0.7c0,1.6-0.2,3-0.7,4.2c-0.5,1.2-1.1,2.2-2,3
			c-0.9,0.8-1.8,1.4-2.9,1.9C557.2,64.9,556,65.1,554.7,65.1z M554.7,61.7c0.7,0,1.4-0.1,2-0.4c0.6-0.2,1.2-0.6,1.6-1.1
			c0.5-0.5,0.9-1.1,1.2-1.9c0.3-0.8,0.4-1.7,0.4-2.9v-0.7c0-1-0.1-1.9-0.4-2.6c-0.3-0.7-0.7-1.4-1.2-1.8c-0.5-0.5-1.1-0.9-1.6-1.1
			c-0.6-0.2-1.3-0.4-2-0.4s-1.4,0.1-2,0.4c-0.6,0.2-1.2,0.6-1.6,1.1c-0.5,0.5-0.9,1.1-1.2,1.8c-0.3,0.7-0.4,1.6-0.4,2.6v0.7
			c0,1.1,0.1,2.1,0.4,2.9s0.7,1.4,1.2,1.9c0.5,0.5,1.1,0.9,1.6,1.1C553.4,61.5,554,61.7,554.7,61.7z"/>
		<path d="M567,45.7h3.6v3.2c0.4-1,1-1.8,1.9-2.5c0.9-0.7,1.9-1.1,3.2-1.1c0.6,0,1.1,0,1.4,0.1c0.3,0.1,0.5,0.1,0.6,0.1v3.6
			c-0.4-0.1-0.8-0.2-1.1-0.3c-0.4-0.1-0.7-0.1-1.2-0.1c-0.8,0-1.4,0.1-2,0.4c-0.6,0.3-1,0.6-1.4,1.1s-0.6,0.9-0.8,1.5
			c-0.1,0.6-0.3,1.2-0.3,1.8v11.1h-3.9L567,45.7L567,45.7z"/>
		<path d="M587.9,65.1c-1.3,0-2.4-0.2-3.6-0.6c-1.1-0.4-2.1-1-2.9-1.8c-0.9-0.8-1.5-1.8-2-3s-0.7-2.6-0.7-4.3v-0.7
			c0-1.6,0.2-2.9,0.7-4.2c0.5-1.1,1.1-2.1,1.9-2.9c0.9-0.8,1.8-1.4,2.9-1.7c1.1-0.4,2.2-0.6,3.4-0.6c2.9,0,5.1,0.8,6.6,2.3
			c1.5,1.6,2.3,3.8,2.3,6.7v2h-13.8c0,1,0.2,1.8,0.5,2.5c0.3,0.6,0.7,1.2,1.1,1.6c0.5,0.4,1.1,0.7,1.7,0.9s1.3,0.3,1.9,0.3
			c1.4,0,2.4-0.2,3-0.6c0.6-0.4,1.1-1,1.3-1.6h3.9c-0.4,1.9-1.3,3.3-2.8,4.3C591.8,64.6,589.9,65.1,587.9,65.1z M587.7,48.8
			c-0.6,0-1.3,0.1-1.9,0.3c-0.6,0.1-1.1,0.4-1.6,0.8c-0.5,0.4-0.9,0.9-1.1,1.4c-0.3,0.6-0.4,1.3-0.5,2.1h9.9c0-0.9-0.1-1.6-0.4-2.2
			c-0.2-0.6-0.6-1.1-1-1.4c-0.4-0.4-0.9-0.6-1.5-0.8C588.9,48.8,588.3,48.8,587.7,48.8z"/>
	</g>
</g>
</svg>
