<?xml version="1.0" encoding="utf-8"?>
<!-- Generator: Adobe Illustrator 27.0.0, SVG Export Plug-In . SVG Version: 6.00 Build 0)  -->
<svg version="1.1" id="Layer_1" xmlns="http://www.w3.org/2000/svg" xmlns:xlink="http://www.w3.org/1999/xlink" x="0px" y="0px"
	 viewBox="0 0 750 95" style="enable-background:new 0 0 750 95;" xml:space="preserve">
<style type="text/css">
	.st0{fill:#F4F4B0;}
</style>
<g>
	<path class="st0" d="M47.6,0h654.7C728.7,0,750,21.3,750,47.5l0,0c0,26.2-21.3,47.5-47.6,47.5H47.6C21.3,95,0,73.7,0,47.5l0,0
		C-0.1,21.3,21.3,0,47.6,0z"/>
	<g>
		<path d="M41.5,59c-1.9,0-3.5-0.4-4.7-1.2c-1.2-0.8-2-2.2-2.3-3.9h3.7c0.2,0.7,0.6,1.1,1.1,1.4c0.5,0.3,1.3,0.4,2.1,0.4
			c0.7,0,1.3-0.1,1.9-0.3c0.6-0.2,1.1-0.6,1.6-1.1c0.4-0.5,0.8-1.3,1.1-2.2c0.2-0.9,0.4-2.1,0.4-3.5c-0.2,0.5-0.6,0.8-1,1.1
			c-0.4,0.3-0.8,0.6-1.3,0.8c-0.5,0.2-1,0.4-1.5,0.4c-0.5,0.1-1,0.1-1.5,0.1c-2.2,0-3.9-0.6-5.2-1.8c-1.3-1.2-1.9-2.9-1.9-5.1v-0.3
			c0-1.1,0.2-2,0.6-2.9c0.4-0.9,0.9-1.7,1.6-2.3c0.7-0.7,1.5-1.1,2.4-1.5c1-0.4,1.9-0.5,3-0.5c1.3,0,2.5,0.2,3.5,0.6
			c1,0.4,1.9,1,2.6,1.8c0.7,0.8,1.3,1.9,1.6,3.2c0.4,1.3,0.5,2.8,0.5,4.5v0.6c0,2.1-0.2,3.9-0.7,5.4c-0.4,1.5-1,2.7-1.8,3.6
			c-0.8,1-1.6,1.6-2.6,2C43.7,58.8,42.7,59,41.5,59z M41.9,48.2c1.3,0,2.2-0.4,3-1.1c0.8-0.7,1.1-1.7,1.1-2.8V44
			c0-0.5-0.1-1.1-0.3-1.6c-0.2-0.5-0.5-0.9-0.8-1.3c-0.4-0.4-0.8-0.7-1.3-0.8c-0.5-0.2-1.1-0.3-1.7-0.3c-1.3,0-2.2,0.4-3,1.1
			c-0.8,0.7-1.1,1.7-1.1,2.9v0.3c0,1.1,0.4,2.1,1.1,2.8C39.7,47.8,40.6,48.2,41.9,48.2z"/>
		<path d="M60.4,59c-1.3,0-2.5-0.2-3.5-0.5s-1.9-0.7-2.5-1.3c-0.7-0.5-1.2-1.2-1.6-2c-0.4-0.8-0.5-1.6-0.5-2.5
			c0-1.3,0.4-2.3,1.1-3.3c0.8-1,1.9-1.7,3.4-2c-0.5-0.2-1.1-0.4-1.6-0.7c-0.5-0.3-0.9-0.7-1.3-1.1c-0.4-0.4-0.7-0.9-0.8-1.4
			c-0.2-0.5-0.3-1.1-0.3-1.7c0-0.8,0.2-1.6,0.5-2.3c0.4-0.7,0.8-1.3,1.4-1.9c0.7-0.5,1.4-1,2.3-1.2c0.9-0.3,2-0.4,3.2-0.4
			s2.3,0.1,3.2,0.4c1,0.3,1.7,0.7,2.3,1.2c0.7,0.5,1.1,1.1,1.4,1.9c0.3,0.7,0.5,1.5,0.5,2.3c0,1.3-0.4,2.3-1.1,3.1
			c-0.7,0.8-1.7,1.5-2.8,1.9c1.5,0.5,2.6,1.1,3.4,2c0.8,0.9,1.1,2,1.1,3.3c0,0.9-0.2,1.7-0.5,2.5s-0.9,1.4-1.6,2s-1.5,1-2.5,1.3
			C62.9,58.9,61.7,59,60.4,59z M60.4,55.7c1.5,0,2.6-0.3,3.3-0.9s1.1-1.4,1.1-2.3c0-1.1-0.4-1.9-1.3-2.5c-0.8-0.7-1.9-1-3.1-1.2
			c-1.3,0.2-2.3,0.5-3.1,1.2c-0.8,0.7-1.3,1.5-1.3,2.5c0,1,0.4,1.7,1.1,2.3C57.9,55.4,59,55.7,60.4,55.7z M60.4,46.2
			c1.1-0.2,2-0.5,2.7-1.1c0.7-0.5,1-1.3,1-2.4c0-1-0.4-1.6-1-2.1s-1.6-0.7-2.7-0.7c-1.1,0-2,0.2-2.7,0.7c-0.7,0.5-1,1.2-1,2.2
			c0,1.1,0.4,1.9,1.1,2.4C58.5,45.6,59.4,46,60.4,46.2z"/>
		<path d="M75.2,47.3c-0.8,0-1.4-0.1-2.1-0.4c-0.7-0.2-1.2-0.6-1.6-1.1c-0.4-0.5-0.8-1-1-1.6c-0.2-0.7-0.4-1.3-0.4-2.1v-0.3
			c0-0.8,0.1-1.4,0.4-2.1c0.2-0.7,0.6-1.2,1-1.6c0.4-0.5,1-0.8,1.6-1.1c0.7-0.2,1.3-0.4,2.1-0.4s1.4,0.1,2.1,0.4
			c0.6,0.2,1.1,0.6,1.6,1.1c0.5,0.5,0.8,1,1.1,1.6c0.2,0.7,0.4,1.3,0.4,2.1v0.3c0,0.8-0.1,1.4-0.4,2.1c-0.2,0.7-0.6,1.2-1.1,1.6
			c-0.5,0.5-1,0.8-1.6,1.1C76.6,47.1,76,47.3,75.2,47.3z M87.9,37h3.7L76.7,58.7H73L87.9,37z M75.2,44.5c0.5,0,1-0.2,1.3-0.5
			c0.4-0.4,0.5-1,0.5-1.8v-0.3c0-0.8-0.2-1.4-0.5-1.8c-0.4-0.4-0.8-0.5-1.3-0.5s-1,0.2-1.3,0.5c-0.4,0.4-0.5,1-0.5,1.8v0.3
			c0,0.8,0.2,1.4,0.5,1.8C74.2,44.3,74.6,44.5,75.2,44.5z M89.4,59c-0.8,0-1.4-0.1-2.1-0.4s-1.2-0.6-1.6-1.1c-0.4-0.5-0.8-1-1-1.6
			c-0.2-0.7-0.4-1.3-0.4-2.1v-0.3c0-0.8,0.1-1.4,0.4-2.1c0.2-0.7,0.6-1.2,1-1.6c0.4-0.5,1-0.8,1.6-1.1c0.7-0.2,1.3-0.4,2.1-0.4
			s1.4,0.1,2.1,0.4c0.6,0.2,1.1,0.6,1.6,1.1c0.5,0.5,0.8,1,1.1,1.6c0.2,0.7,0.4,1.3,0.4,2.1v0.3c0,0.8-0.1,1.4-0.4,2.1
			c-0.2,0.7-0.6,1.2-1.1,1.6c-0.5,0.5-1,0.8-1.6,1.1C90.9,58.9,90.2,59,89.4,59z M89.4,56.2c0.5,0,1-0.2,1.3-0.5
			c0.4-0.4,0.5-1,0.5-1.8v-0.3c0-0.8-0.2-1.4-0.5-1.8c-0.4-0.4-0.8-0.5-1.3-0.5s-1,0.2-1.3,0.5c-0.4,0.4-0.5,1-0.5,1.8v0.3
			c0,0.8,0.2,1.4,0.5,1.8C88.5,56,88.9,56.2,89.4,56.2z"/>
		<path d="M110.3,59c-1.1,0-2.2-0.2-3.1-0.5c-1-0.4-1.7-0.8-2.5-1.6s-1.3-1.6-1.6-2.6c-0.4-1.1-0.6-2.3-0.6-3.7V50
			c0-1.3,0.2-2.5,0.6-3.5c0.4-1,1-1.9,1.7-2.6c0.7-0.7,1.6-1.2,2.5-1.6c1-0.4,1.9-0.5,3-0.5s2,0.1,2.9,0.4c0.8,0.3,1.6,0.7,2.2,1.2
			c0.6,0.5,1.1,1.1,1.4,1.8c0.4,0.7,0.6,1.4,0.7,2.2h-3.5c-0.2-0.8-0.6-1.4-1.1-1.9c-0.5-0.5-1.4-0.7-2.6-0.7
			c-0.6,0-1.1,0.1-1.6,0.3c-0.5,0.2-1,0.5-1.4,0.9c-0.4,0.4-0.7,1-1,1.6c-0.2,0.7-0.4,1.4-0.4,2.3v0.6c0,1,0.1,1.8,0.4,2.5
			s0.5,1.3,1,1.7c0.4,0.4,0.8,0.8,1.4,1c0.5,0.2,1.1,0.3,1.6,0.3c1.9,0,3.2-0.9,3.7-2.6h3.5c-0.2,0.9-0.5,1.7-0.8,2.3
			c-0.4,0.7-0.9,1.3-1.6,1.8c-0.6,0.5-1.3,0.8-2.2,1.1C112.1,58.9,111.2,59,110.3,59z"/>
		<path d="M119.9,37h3.4v7.9c0.2-0.4,0.4-0.7,0.7-1.1c0.3-0.4,0.7-0.7,1.1-1c0.4-0.2,0.9-0.5,1.4-0.7s1.2-0.2,1.9-0.2
			c2,0,3.5,0.5,4.6,1.6c1,1.1,1.5,2.7,1.5,4.8v10.4h-3.4v-9.6c0-1.4-0.3-2.4-0.9-3.1c-0.6-0.7-1.6-1.1-2.9-1.1
			c-0.7,0-1.3,0.1-1.9,0.4c-0.5,0.2-0.9,0.5-1.3,1c-0.3,0.4-0.5,0.8-0.7,1.3c-0.2,0.5-0.2,1-0.2,1.6v9.6h-3.3V37z"/>
		<path d="M145.1,59c-1.1,0-2.2-0.2-3.1-0.5c-1-0.4-1.9-0.8-2.6-1.6s-1.3-1.6-1.7-2.6S137,52,137,50.6V50c0-1.4,0.2-2.6,0.6-3.6
			c0.4-1,1-1.9,1.7-2.5c0.7-0.7,1.6-1.2,2.5-1.5c1-0.4,1.9-0.5,3-0.5c2.5,0,4.4,0.7,5.8,2c1.3,1.3,2,3.3,2,5.7v1.7h-12
			c0,0.8,0.2,1.6,0.4,2.2c0.2,0.6,0.6,1.1,1,1.4s0.9,0.6,1.4,0.8c0.5,0.2,1.1,0.2,1.7,0.2c1.2,0,2-0.2,2.6-0.5
			c0.5-0.4,0.9-0.8,1.1-1.4h3.4c-0.4,1.6-1.1,2.9-2.5,3.7C148.5,58.6,146.9,59,145.1,59z M144.9,44.9c-0.6,0-1.1,0.1-1.7,0.2
			c-0.5,0.1-1,0.4-1.4,0.7c-0.4,0.3-0.7,0.7-1,1.3c-0.2,0.5-0.4,1.1-0.4,1.9h8.6c0-0.8-0.1-1.4-0.4-1.9c-0.2-0.5-0.5-1-0.9-1.3
			s-0.8-0.5-1.3-0.7C146.1,44.9,145.5,44.9,144.9,44.9z"/>
		<path d="M162,59c-1.1,0-2.2-0.2-3.1-0.5c-1-0.4-1.7-0.8-2.5-1.6s-1.3-1.6-1.6-2.6c-0.4-1.1-0.6-2.3-0.6-3.7V50
			c0-1.3,0.2-2.5,0.6-3.5c0.4-1,1-1.9,1.7-2.6c0.7-0.7,1.6-1.2,2.5-1.6c1-0.4,1.9-0.5,3-0.5s2,0.1,2.9,0.4c0.8,0.3,1.6,0.7,2.2,1.2
			c0.6,0.5,1.1,1.1,1.4,1.8c0.4,0.7,0.6,1.4,0.7,2.2h-3.5c-0.2-0.8-0.6-1.4-1.1-1.9c-0.5-0.5-1.4-0.7-2.6-0.7
			c-0.6,0-1.1,0.1-1.6,0.3c-0.5,0.2-1,0.5-1.4,0.9c-0.4,0.4-0.7,1-1,1.6c-0.2,0.7-0.4,1.4-0.4,2.3v0.6c0,1,0.1,1.8,0.4,2.5
			c0.2,0.7,0.5,1.3,1,1.7c0.4,0.4,0.8,0.8,1.4,1c0.5,0.2,1.1,0.3,1.6,0.3c1.9,0,3.2-0.9,3.7-2.6h3.5c-0.2,0.9-0.5,1.7-0.8,2.3
			c-0.4,0.7-0.9,1.3-1.6,1.8c-0.6,0.5-1.3,0.8-2.2,1.1C163.8,58.9,163,59,162,59z"/>
		<path d="M171.6,37h3.4v12.4l6.8-7.2h4l-6.6,7l7.2,9.4h-4.1l-5.5-7.3l-2,2v5.3h-3.4L171.6,37L171.6,37z"/>
		<path d="M195.2,42.2h3.2v2.8c0.4-0.8,0.9-1.6,1.6-2.2c0.8-0.6,1.7-1,2.8-1c0.5,0,0.9,0,1.1,0.1c0.2,0.1,0.4,0.1,0.5,0.1v3.1
			c-0.4-0.1-0.7-0.2-1-0.2c-0.3-0.1-0.7-0.1-1.1-0.1c-0.7,0-1.3,0.1-1.7,0.4s-0.9,0.5-1.2,1c-0.3,0.4-0.5,0.8-0.7,1.3
			c-0.2,0.5-0.2,1-0.2,1.6v9.6h-3.4L195.2,42.2L195.2,42.2z"/>
		<path d="M213.4,59c-1.1,0-2.2-0.2-3.1-0.5c-1-0.4-1.9-0.8-2.6-1.6s-1.3-1.6-1.7-2.6c-0.4-1.1-0.7-2.3-0.7-3.7V50
			c0-1.4,0.2-2.6,0.6-3.6c0.4-1,1-1.9,1.7-2.5c0.7-0.7,1.6-1.2,2.5-1.5c1-0.4,1.9-0.5,3-0.5c2.5,0,4.4,0.7,5.8,2
			c1.3,1.3,2,3.3,2,5.7v1.7h-12c0,0.8,0.2,1.6,0.4,2.2c0.2,0.6,0.6,1.1,1,1.4c0.4,0.4,0.9,0.6,1.4,0.8c0.5,0.2,1.1,0.2,1.7,0.2
			c1.2,0,2-0.2,2.6-0.5c0.5-0.4,0.9-0.8,1.1-1.4h3.4c-0.4,1.6-1.1,2.9-2.5,3.7C216.8,58.6,215.3,59,213.4,59z M213.3,44.9
			c-0.6,0-1.1,0.1-1.7,0.2c-0.5,0.1-1,0.4-1.4,0.7c-0.4,0.3-0.7,0.7-1,1.3c-0.2,0.5-0.4,1.1-0.4,1.9h8.6c0-0.8-0.1-1.4-0.4-1.9
			c-0.2-0.5-0.5-1-0.9-1.3c-0.4-0.3-0.8-0.5-1.3-0.7C214.4,44.9,213.8,44.9,213.3,44.9z"/>
		<path d="M221.3,42.2h3.7l5,12.7l4.6-12.7h3.5l-6.4,16.4h-3.4L221.3,42.2z"/>
		<path d="M242.2,40.4c-0.7,0-1.1-0.2-1.6-0.6s-0.6-0.9-0.6-1.6s0.2-1.1,0.6-1.6c0.4-0.4,0.9-0.6,1.6-0.6c0.7,0,1.1,0.2,1.6,0.6
			c0.4,0.4,0.6,0.9,0.6,1.6s-0.2,1.1-0.6,1.6C243.3,40.2,242.8,40.4,242.2,40.4z M240.4,42.2h3.4v16.4h-3.4V42.2z"/>
		<path d="M254.9,59c-1.1,0-2.2-0.2-3.1-0.5c-1-0.4-1.9-0.8-2.6-1.6s-1.3-1.6-1.7-2.6c-0.4-1.1-0.7-2.3-0.7-3.7V50
			c0-1.4,0.2-2.6,0.6-3.6c0.4-1,1-1.9,1.7-2.5c0.7-0.7,1.6-1.2,2.5-1.5c1-0.4,1.9-0.5,3-0.5c2.5,0,4.4,0.7,5.8,2
			c1.3,1.3,2,3.3,2,5.7v1.7h-12c0,0.8,0.2,1.6,0.4,2.2c0.2,0.6,0.6,1.1,1,1.4c0.4,0.4,0.9,0.6,1.4,0.8c0.5,0.2,1.1,0.2,1.7,0.2
			c1.2,0,2-0.2,2.6-0.5s0.9-0.8,1.1-1.4h3.4c-0.4,1.6-1.1,2.9-2.5,3.7C258.3,58.6,256.7,59,254.9,59z M254.7,44.9
			c-0.6,0-1.1,0.1-1.7,0.2c-0.5,0.1-1,0.4-1.4,0.7c-0.4,0.3-0.7,0.7-1,1.3c-0.2,0.5-0.4,1.1-0.4,1.9h8.6c0-0.8-0.1-1.4-0.4-1.9
			c-0.2-0.5-0.5-1-0.9-1.3s-0.8-0.5-1.3-0.7C255.9,44.9,255.3,44.9,254.7,44.9z"/>
		<path d="M263.4,42.2h3.6l3,12.1l3.8-12.1h3.1l4,12.1l3-12.1h3.4l-4.5,16.4h-3.4l-4.1-12.1l-4,12.1h-3.4L263.4,42.2z"/>
		<path d="M295.6,59c-1.2,0-2.3-0.1-3.1-0.4c-0.8-0.2-1.6-0.7-2.2-1.1c-0.6-0.5-1-1-1.3-1.6c-0.3-0.6-0.5-1.3-0.6-1.9h3.4
			c0.1,0.6,0.5,1.1,1.1,1.4s1.4,0.6,2.7,0.6c1.4,0,2.3-0.2,2.9-0.5c0.5-0.4,0.8-0.8,0.8-1.4c0-0.2-0.1-0.5-0.2-0.8
			c-0.1-0.2-0.4-0.5-0.7-0.7c-0.3-0.2-0.8-0.4-1.3-0.5c-0.5-0.2-1.2-0.3-2-0.4c-1-0.1-1.8-0.3-2.6-0.5s-1.4-0.5-2-1
			c-0.5-0.4-1-0.9-1.3-1.4c-0.3-0.5-0.4-1.3-0.4-2c0-0.7,0.1-1.3,0.4-1.9c0.3-0.5,0.7-1.1,1.3-1.6c0.5-0.4,1.3-0.8,2.1-1
			c0.8-0.2,1.8-0.4,2.9-0.4c1.1,0,2,0.1,2.8,0.4c0.8,0.2,1.4,0.7,2,1.1c0.5,0.5,1,1,1.2,1.6c0.3,0.6,0.5,1.3,0.5,1.9h-3.4
			c-0.2-0.7-0.5-1.1-1-1.5c-0.5-0.4-1.2-0.5-2.1-0.5c-1.2,0-2.1,0.2-2.6,0.5c-0.5,0.4-0.7,0.8-0.7,1.3c0,0.3,0.1,0.5,0.2,0.8
			c0.1,0.2,0.4,0.4,0.6,0.6c0.3,0.2,0.7,0.4,1.2,0.5c0.5,0.1,1.1,0.2,1.9,0.4c1,0.1,1.9,0.3,2.6,0.5s1.5,0.6,2,1
			c0.6,0.4,1,0.9,1.3,1.5c0.3,0.6,0.5,1.3,0.5,2c0,0.7-0.2,1.4-0.5,2c-0.3,0.6-0.7,1.1-1.3,1.6s-1.3,0.8-2.2,1.1
			C297.8,58.9,296.7,59,295.6,59z"/>
		<path d="M320.8,59c-1.4,0-2.5-0.3-3.5-1c-1-0.6-1.7-1.3-2-2.2v2.7h-3.2V37h3.4v7.9c0.5-0.8,1.2-1.6,2.2-2.1c0.9-0.5,2-0.8,3.2-0.8
			c2.2,0,3.8,0.7,5.1,2c1.3,1.3,1.9,3.3,1.9,6.1v0.6c0,1.4-0.2,2.6-0.5,3.7c-0.4,1.1-0.8,1.9-1.4,2.6c-0.6,0.7-1.3,1.2-2.2,1.6
			C322.8,58.9,321.8,59,320.8,59z M320,56c1.3,0,2.3-0.4,3.1-1.3c0.8-0.9,1.2-2.3,1.2-4.1v-0.6c0-1.7-0.4-3-1.1-3.9
			c-0.8-0.8-1.8-1.3-3.1-1.3c-0.6,0-1.2,0.1-1.7,0.3c-0.5,0.2-1,0.5-1.4,0.8c-0.4,0.4-0.8,0.8-1,1.4c-0.2,0.5-0.4,1.2-0.4,1.9v2.2
			c0,0.8,0.1,1.5,0.4,2c0.2,0.6,0.6,1.1,1,1.4c0.4,0.4,0.9,0.7,1.4,0.9C318.8,55.9,319.4,56,320,56z"/>
		<path d="M337.5,59c-1.1,0-2.2-0.2-3.1-0.5c-1-0.4-1.9-0.8-2.6-1.6c-0.7-0.7-1.3-1.6-1.7-2.6c-0.4-1.1-0.7-2.3-0.7-3.7V50
			c0-1.4,0.2-2.6,0.6-3.6c0.4-1,1-1.9,1.7-2.5c0.7-0.7,1.6-1.2,2.5-1.5c1-0.4,1.9-0.5,3-0.5c2.5,0,4.4,0.7,5.8,2
			c1.3,1.3,2,3.3,2,5.7v1.7h-12c0,0.8,0.2,1.6,0.4,2.2s0.6,1.1,1,1.4s0.9,0.6,1.4,0.8c0.5,0.2,1.1,0.2,1.7,0.2c1.2,0,2-0.2,2.6-0.5
			c0.5-0.4,0.9-0.8,1.1-1.4h3.4c-0.4,1.6-1.1,2.9-2.5,3.7C340.9,58.6,339.3,59,337.5,59z M337.3,44.9c-0.6,0-1.1,0.1-1.7,0.2
			c-0.5,0.1-1,0.4-1.4,0.7c-0.4,0.4-0.7,0.7-1,1.3c-0.2,0.5-0.4,1.1-0.4,1.9h8.6c0-0.8-0.1-1.4-0.4-1.9c-0.2-0.5-0.5-1-0.9-1.3
			s-0.8-0.5-1.3-0.7C338.5,44.9,337.9,44.9,337.3,44.9z"/>
		<path d="M348.2,45.2H346v-2.9h2.2v-0.5c0-1.6,0.4-2.9,1.3-3.7c0.8-0.8,2.2-1.3,4.2-1.3c0.6,0,1.4,0.1,2.3,0.1v3
			c-0.3-0.1-0.7-0.1-1-0.1c-0.4,0-0.7,0-1,0c-0.9,0-1.5,0.2-1.8,0.5c-0.4,0.3-0.5,0.9-0.5,1.7v0.2h4v2.9h-4v13.5h-3.4V45.2z"/>
		<path d="M364.7,59c-1.1,0-2.2-0.2-3.2-0.5c-1-0.4-1.9-0.9-2.6-1.6c-0.7-0.7-1.3-1.6-1.7-2.6c-0.4-1-0.6-2.3-0.6-3.6V50
			c0-1.3,0.2-2.4,0.6-3.5c0.4-1,1-1.9,1.7-2.6c0.7-0.7,1.6-1.2,2.6-1.6c1-0.4,2-0.5,3.2-0.5c1.1,0,2.2,0.2,3.2,0.5s1.9,0.9,2.6,1.6
			c0.7,0.7,1.3,1.6,1.7,2.6s0.6,2.2,0.6,3.5v0.6c0,1.4-0.2,2.6-0.6,3.6c-0.4,1-1,1.9-1.7,2.6c-0.8,0.7-1.6,1.3-2.6,1.6
			C366.9,58.9,365.8,59,364.7,59z M364.7,56c0.6,0,1.2-0.1,1.7-0.3c0.5-0.2,1-0.5,1.4-1c0.4-0.4,0.8-1,1-1.7
			c0.2-0.7,0.4-1.5,0.4-2.4v-0.6c0-0.9-0.1-1.7-0.4-2.3c-0.2-0.7-0.6-1.2-1-1.6c-0.4-0.4-0.9-0.7-1.4-1c-0.5-0.2-1.1-0.3-1.7-0.3
			s-1.2,0.1-1.7,0.3c-0.5,0.2-1,0.5-1.4,1c-0.4,0.4-0.8,1-1,1.6c-0.2,0.7-0.4,1.4-0.4,2.3v0.6c0,1,0.1,1.8,0.4,2.4
			c0.2,0.7,0.6,1.3,1,1.7s0.9,0.8,1.4,1C363.5,55.9,364.1,56,364.7,56z"/>
		<path d="M375.4,42.2h3.2v2.8c0.4-0.8,0.9-1.6,1.6-2.2c0.8-0.6,1.7-1,2.8-1c0.5,0,0.9,0,1.1,0.1c0.2,0.1,0.4,0.1,0.5,0.1v3.1
			c-0.4-0.1-0.7-0.2-1-0.2c-0.3-0.1-0.7-0.1-1.1-0.1c-0.7,0-1.3,0.1-1.7,0.4c-0.5,0.2-0.9,0.5-1.2,1c-0.3,0.4-0.5,0.8-0.7,1.3
			c-0.2,0.5-0.2,1-0.2,1.6v9.6h-3.4L375.4,42.2L375.4,42.2z"/>
		<path d="M393.5,59c-1.1,0-2.2-0.2-3.1-0.5c-1-0.4-1.9-0.8-2.6-1.6c-0.7-0.7-1.3-1.6-1.7-2.6s-0.7-2.3-0.7-3.7V50
			c0-1.4,0.2-2.6,0.6-3.6c0.4-1,1-1.9,1.7-2.5c0.7-0.7,1.6-1.2,2.5-1.5c1-0.4,1.9-0.5,3-0.5c2.5,0,4.4,0.7,5.8,2
			c1.3,1.3,2,3.3,2,5.7v1.7h-12c0,0.8,0.2,1.6,0.4,2.2s0.6,1.1,1,1.4s0.9,0.6,1.4,0.8c0.5,0.2,1.1,0.2,1.7,0.2c1.2,0,2-0.2,2.6-0.5
			c0.5-0.4,0.9-0.8,1.1-1.4h3.4c-0.4,1.6-1.1,2.9-2.5,3.7C397,58.6,395.4,59,393.5,59z M393.4,44.9c-0.6,0-1.1,0.1-1.7,0.2
			c-0.5,0.1-1,0.4-1.4,0.7c-0.4,0.4-0.7,0.7-1,1.3c-0.2,0.5-0.4,1.1-0.4,1.9h8.6c0-0.8-0.1-1.4-0.4-1.9c-0.2-0.5-0.5-1-0.9-1.3
			s-0.8-0.5-1.3-0.7C394.6,44.9,394,44.9,393.4,44.9z"/>
		<path d="M417.1,59c-1.1,0-2.2-0.2-3.1-0.5c-1-0.4-1.7-0.8-2.5-1.6c-0.7-0.7-1.3-1.6-1.6-2.6s-0.6-2.3-0.6-3.7V50
			c0-1.3,0.2-2.5,0.6-3.5c0.4-1,1-1.9,1.7-2.6c0.7-0.7,1.6-1.2,2.5-1.6c1-0.4,1.9-0.5,3-0.5c1.1,0,2,0.1,2.9,0.4
			c0.8,0.3,1.6,0.7,2.2,1.2c0.6,0.5,1.1,1.1,1.4,1.8c0.4,0.7,0.6,1.4,0.7,2.2h-3.5c-0.2-0.8-0.6-1.4-1.1-1.9
			c-0.5-0.5-1.4-0.7-2.6-0.7c-0.6,0-1.1,0.1-1.6,0.3c-0.5,0.2-1,0.5-1.4,0.9c-0.4,0.4-0.7,1-1,1.6c-0.2,0.7-0.4,1.4-0.4,2.3v0.6
			c0,1,0.1,1.8,0.4,2.5c0.2,0.7,0.5,1.3,1,1.7c0.4,0.4,0.8,0.8,1.4,1c0.5,0.2,1.1,0.3,1.6,0.3c1.9,0,3.2-0.9,3.7-2.6h3.5
			c-0.2,0.9-0.5,1.7-0.8,2.3c-0.4,0.7-0.9,1.3-1.6,1.8c-0.6,0.5-1.3,0.8-2.2,1.1C418.9,58.9,418.1,59,417.1,59z"/>
		<path d="M426.8,37h3.4v7.9c0.2-0.4,0.4-0.7,0.7-1.1c0.3-0.4,0.7-0.7,1.1-1c0.4-0.2,0.9-0.5,1.4-0.7c0.5-0.2,1.2-0.2,1.9-0.2
			c2,0,3.5,0.5,4.6,1.6c1,1.1,1.5,2.7,1.5,4.8v10.4h-3.4v-9.6c0-1.4-0.3-2.4-0.9-3.1c-0.6-0.7-1.6-1.1-2.9-1.1
			c-0.7,0-1.3,0.1-1.9,0.4c-0.5,0.2-0.9,0.5-1.3,1c-0.3,0.4-0.5,0.8-0.7,1.3c-0.2,0.5-0.2,1-0.2,1.6v9.6h-3.4V37H426.8z"/>
		<path d="M452,59c-1.1,0-2.2-0.2-3.2-0.5c-1-0.4-1.9-0.9-2.6-1.6c-0.7-0.7-1.3-1.6-1.7-2.6c-0.4-1-0.6-2.3-0.6-3.6V50
			c0-1.3,0.2-2.4,0.6-3.5c0.4-1,1-1.9,1.7-2.6c0.7-0.7,1.6-1.2,2.6-1.6c1-0.4,2-0.5,3.2-0.5c1.1,0,2.2,0.2,3.2,0.5
			c1,0.4,1.9,0.9,2.6,1.6c0.7,0.7,1.3,1.6,1.7,2.6s0.6,2.2,0.6,3.5v0.6c0,1.4-0.2,2.6-0.6,3.6c-0.4,1-1,1.9-1.7,2.6
			c-0.8,0.7-1.6,1.3-2.6,1.6C454.2,58.9,453.1,59,452,59z M452,56c0.6,0,1.2-0.1,1.7-0.3s1-0.5,1.4-1c0.4-0.4,0.8-1,1-1.7
			c0.2-0.7,0.4-1.5,0.4-2.4v-0.6c0-0.9-0.1-1.7-0.4-2.3c-0.2-0.7-0.6-1.2-1-1.6c-0.4-0.4-0.9-0.7-1.4-1c-0.5-0.2-1.1-0.3-1.7-0.3
			s-1.2,0.1-1.7,0.3c-0.5,0.2-1,0.5-1.4,1c-0.4,0.4-0.8,1-1,1.6c-0.2,0.7-0.4,1.4-0.4,2.3v0.6c0,1,0.1,1.8,0.4,2.4
			c0.2,0.7,0.6,1.3,1,1.7s0.9,0.8,1.4,1C450.8,55.9,451.4,56,452,56z"/>
		<path d="M469.8,59c-1.1,0-2.2-0.2-3.2-0.5c-1-0.4-1.9-0.9-2.6-1.6c-0.7-0.7-1.3-1.6-1.7-2.6c-0.4-1-0.6-2.3-0.6-3.6V50
			c0-1.3,0.2-2.4,0.6-3.5c0.4-1,1-1.9,1.7-2.6c0.7-0.7,1.6-1.2,2.6-1.6c1-0.4,2-0.5,3.2-0.5c1.1,0,2.2,0.2,3.2,0.5s1.9,0.9,2.6,1.6
			c0.7,0.7,1.3,1.6,1.7,2.6s0.6,2.2,0.6,3.5v0.6c0,1.4-0.2,2.6-0.6,3.6c-0.4,1-1,1.9-1.7,2.6c-0.8,0.7-1.6,1.3-2.6,1.6
			C472,58.9,470.9,59,469.8,59z M469.8,56c0.6,0,1.2-0.1,1.7-0.3c0.5-0.2,1-0.5,1.4-1c0.4-0.4,0.8-1,1-1.7c0.2-0.7,0.4-1.5,0.4-2.4
			v-0.6c0-0.9-0.1-1.7-0.4-2.3c-0.2-0.7-0.6-1.2-1-1.6c-0.4-0.4-0.9-0.7-1.4-1c-0.5-0.2-1.1-0.3-1.7-0.3s-1.2,0.1-1.7,0.3
			c-0.5,0.2-1,0.5-1.4,1c-0.4,0.4-0.8,1-1,1.6c-0.2,0.7-0.4,1.4-0.4,2.3v0.6c0,1,0.1,1.8,0.4,2.4c0.2,0.7,0.6,1.3,1,1.7
			s0.9,0.8,1.4,1C468.7,55.9,469.2,56,469.8,56z"/>
		<path d="M486.8,59c-1.2,0-2.3-0.1-3.1-0.4c-0.8-0.2-1.6-0.7-2.2-1.1c-0.6-0.5-1-1-1.3-1.6c-0.3-0.6-0.5-1.3-0.6-1.9h3.4
			c0.1,0.6,0.5,1.1,1.1,1.4c0.6,0.4,1.4,0.6,2.7,0.6c1.4,0,2.3-0.2,2.9-0.5c0.5-0.4,0.8-0.8,0.8-1.4c0-0.2-0.1-0.5-0.2-0.8
			c-0.1-0.2-0.4-0.5-0.7-0.7c-0.3-0.2-0.8-0.4-1.3-0.5c-0.5-0.2-1.2-0.3-2-0.4c-1-0.1-1.8-0.3-2.6-0.5s-1.4-0.5-2-1
			c-0.5-0.4-1-0.9-1.3-1.4c-0.3-0.5-0.4-1.3-0.4-2c0-0.7,0.1-1.3,0.4-1.9c0.3-0.5,0.7-1.1,1.3-1.6c0.5-0.4,1.3-0.8,2.1-1
			c0.8-0.2,1.8-0.4,2.9-0.4c1.1,0,2,0.1,2.8,0.4c0.8,0.2,1.4,0.7,2,1.1c0.5,0.5,1,1,1.2,1.6c0.3,0.6,0.5,1.3,0.5,1.9h-3.4
			c-0.2-0.7-0.5-1.1-1-1.5c-0.5-0.4-1.2-0.5-2.1-0.5c-1.2,0-2.1,0.2-2.6,0.5c-0.5,0.4-0.7,0.8-0.7,1.3c0,0.3,0.1,0.5,0.2,0.8
			c0.1,0.2,0.4,0.4,0.6,0.6c0.3,0.2,0.7,0.4,1.2,0.5c0.5,0.1,1.1,0.2,1.9,0.4c1,0.1,1.9,0.3,2.6,0.5c0.8,0.2,1.5,0.6,2,1
			c0.6,0.4,1,0.9,1.3,1.5c0.3,0.6,0.5,1.3,0.5,2c0,0.7-0.2,1.4-0.5,2c-0.3,0.6-0.7,1.1-1.3,1.6s-1.3,0.8-2.2,1.1
			C489,58.9,488,59,486.8,59z"/>
		<path d="M498.6,40.4c-0.7,0-1.1-0.2-1.6-0.6c-0.4-0.4-0.6-0.9-0.6-1.6s0.2-1.1,0.6-1.6c0.4-0.4,0.9-0.6,1.6-0.6
			c0.7,0,1.1,0.2,1.6,0.6c0.4,0.4,0.6,0.9,0.6,1.6s-0.2,1.1-0.6,1.6C499.7,40.2,499.2,40.4,498.6,40.4z M496.8,42.2h3.4v16.4h-3.4
			V42.2z"/>
		<path d="M504.1,42.2h3.2V45c0.4-0.8,1-1.6,1.9-2.2c0.9-0.6,2-1,3.5-1c2,0,3.5,0.5,4.6,1.6c1,1.1,1.5,2.7,1.5,4.8v10.4h-3.4v-9.6
			c0-1.4-0.3-2.4-0.9-3.1c-0.6-0.7-1.6-1.1-2.9-1.1c-0.7,0-1.3,0.1-1.9,0.4c-0.5,0.2-0.9,0.5-1.3,1c-0.3,0.4-0.5,0.8-0.7,1.3
			c-0.2,0.5-0.2,1-0.2,1.6v9.6h-3.4L504.1,42.2L504.1,42.2z"/>
		<path d="M529,65.2c-1.3,0-2.3-0.1-3.2-0.4c-0.9-0.2-1.6-0.6-2.2-1c-0.5-0.4-1-1-1.3-1.6c-0.2-0.6-0.4-1.3-0.5-1.9h3.5
			c0.1,0.2,0.2,0.5,0.4,0.7c0.2,0.2,0.4,0.5,0.7,0.7c0.3,0.2,0.7,0.4,1.1,0.5c0.4,0.1,1,0.2,1.6,0.2c1.6,0,2.7-0.4,3.4-1.1
			c0.7-0.7,1.1-1.8,1.1-3.2v-2.3c-0.5,0.9-1.2,1.6-2.1,2.2c-0.9,0.5-2,0.8-3.2,0.8c-1.1,0-2-0.2-2.9-0.5c-0.8-0.4-1.6-0.9-2.2-1.6
			c-0.7-0.7-1.1-1.6-1.4-2.6c-0.4-1-0.5-2.2-0.5-3.6v-0.6c0-1.3,0.2-2.4,0.5-3.4c0.3-1,0.8-1.8,1.4-2.4c0.6-0.7,1.3-1.2,2.2-1.6
			c0.8-0.4,1.8-0.5,2.8-0.5c1.4,0,2.5,0.3,3.5,1c1,0.6,1.7,1.3,2,2.2v-2.8h3.2v15.7c0,2.3-0.7,4.1-2,5.4
			C533.6,64.6,531.6,65.2,529,65.2z M528.9,55.7c0.6,0,1.2-0.1,1.7-0.3c0.5-0.2,1-0.5,1.4-0.8s0.7-0.8,1-1.4c0.2-0.6,0.4-1.2,0.4-2
			v-2.2c0-0.7-0.1-1.3-0.4-1.8c-0.2-0.5-0.6-1-1-1.3s-0.9-0.6-1.4-0.8c-0.5-0.2-1.1-0.3-1.7-0.3c-1.3,0-2.3,0.4-3.1,1.2
			c-0.8,0.8-1.1,2-1.1,3.7v0.6c0,1.7,0.4,3,1.2,3.9C526.7,55.3,527.7,55.7,528.9,55.7z"/>
		<path d="M552,59c-0.9,0-1.7-0.1-2.4-0.4s-1.3-0.6-1.7-1.1s-0.8-1-1.1-1.6s-0.4-1.3-0.4-2c0-1.6,0.5-2.9,1.4-3.6s2.4-1.2,4.3-1.2
			h5.2v-0.9c0-1.3-0.3-2.1-0.8-2.6s-1.4-0.7-2.6-0.7c-1.1,0-1.9,0.2-2.3,0.5c-0.5,0.4-0.8,0.8-0.9,1.4h-3.3c0.1-0.7,0.2-1.4,0.5-1.9
			c0.3-0.6,0.8-1.1,1.3-1.6c0.6-0.4,1.3-0.8,2-1c0.8-0.2,1.7-0.4,2.8-0.4s1.9,0.1,2.8,0.4s1.5,0.6,2.1,1.1c0.6,0.5,1,1.1,1.4,1.9
			c0.3,0.8,0.5,1.7,0.5,2.7v6.5c0,0.9,0,1.6,0.1,2.3c0,0.7,0.1,1.3,0.2,1.9h-3.1c-0.1-0.5-0.1-0.9-0.1-1.2c-0.1-0.4-0.1-0.7-0.1-1.3
			c-0.4,0.8-1.1,1.4-2,2C554.7,58.7,553.4,59,552,59z M552.9,56c0.6,0,1.1-0.1,1.7-0.2c0.5-0.2,1-0.4,1.4-0.7c0.4-0.3,0.7-0.7,1-1.1
			c0.2-0.4,0.4-1,0.4-1.6v-0.9h-4.5c-0.9,0-1.6,0.2-2.1,0.5s-0.8,0.9-0.8,1.6c0,0.7,0.2,1.3,0.7,1.6C551.1,55.9,551.9,56,552.9,56z"
			/>
		<path d="M570.8,42.2h3.2v2.8c0.4-0.8,0.9-1.6,1.6-2.2c0.8-0.6,1.7-1,2.8-1c0.5,0,0.9,0,1.1,0.1c0.2,0.1,0.4,0.1,0.5,0.1v3.1
			c-0.4-0.1-0.7-0.2-1-0.2c-0.3-0.1-0.7-0.1-1.1-0.1c-0.7,0-1.3,0.1-1.7,0.4c-0.5,0.2-0.9,0.5-1.2,1c-0.3,0.4-0.5,0.8-0.7,1.3
			c-0.2,0.5-0.2,1-0.2,1.6v9.6h-3.4L570.8,42.2L570.8,42.2z"/>
		<path d="M589,59c-1.1,0-2.2-0.2-3.1-0.5c-1-0.4-1.9-0.8-2.6-1.6s-1.3-1.6-1.7-2.6s-0.7-2.3-0.7-3.7V50c0-1.4,0.2-2.6,0.6-3.6
			c0.4-1,1-1.9,1.7-2.5c0.7-0.7,1.6-1.2,2.5-1.5c1-0.4,1.9-0.5,3-0.5c2.5,0,4.4,0.7,5.8,2c1.3,1.3,2,3.3,2,5.7v1.7h-12
			c0,0.8,0.2,1.6,0.4,2.2c0.2,0.6,0.6,1.1,1,1.4s0.9,0.6,1.4,0.8c0.5,0.2,1.1,0.2,1.7,0.2c1.2,0,2-0.2,2.6-0.5
			c0.5-0.4,0.9-0.8,1.1-1.4h3.4c-0.4,1.6-1.1,2.9-2.5,3.7C592.4,58.6,590.8,59,589,59z M588.8,44.9c-0.6,0-1.1,0.1-1.7,0.2
			c-0.5,0.1-1,0.4-1.4,0.7c-0.4,0.4-0.7,0.7-1,1.3c-0.2,0.5-0.4,1.1-0.4,1.9h8.6c0-0.8-0.1-1.4-0.4-1.9c-0.2-0.5-0.5-1-0.9-1.3
			c-0.4-0.3-0.8-0.5-1.3-0.7C589.9,44.9,589.4,44.9,588.8,44.9z"/>
		<path d="M605.3,59c-1.2,0-2.3-0.1-3.1-0.4c-0.8-0.2-1.6-0.7-2.2-1.1c-0.6-0.5-1-1-1.3-1.6c-0.3-0.6-0.5-1.3-0.6-1.9h3.4
			c0.1,0.6,0.5,1.1,1.1,1.4c0.6,0.4,1.4,0.6,2.7,0.6c1.4,0,2.3-0.2,2.9-0.5s0.8-0.8,0.8-1.4c0-0.2-0.1-0.5-0.2-0.8
			c-0.1-0.2-0.4-0.5-0.7-0.7c-0.3-0.2-0.8-0.4-1.3-0.5c-0.5-0.2-1.2-0.3-2-0.4c-1-0.1-1.8-0.3-2.6-0.5s-1.4-0.5-2-1
			c-0.5-0.4-1-0.9-1.3-1.4c-0.3-0.5-0.4-1.3-0.4-2c0-0.7,0.1-1.3,0.4-1.9c0.3-0.5,0.7-1.1,1.3-1.6c0.5-0.4,1.3-0.8,2.1-1
			c0.8-0.2,1.8-0.4,2.9-0.4c1.1,0,2,0.1,2.8,0.4c0.8,0.2,1.4,0.7,2,1.1c0.5,0.5,1,1,1.2,1.6c0.3,0.6,0.5,1.3,0.5,1.9h-3.4
			c-0.2-0.7-0.5-1.1-1-1.5c-0.5-0.4-1.2-0.5-2.1-0.5c-1.2,0-2.1,0.2-2.6,0.5c-0.5,0.4-0.7,0.8-0.7,1.3c0,0.3,0.1,0.5,0.2,0.8
			c0.1,0.2,0.4,0.4,0.6,0.6c0.3,0.2,0.7,0.4,1.2,0.5c0.5,0.1,1.1,0.2,1.9,0.4c1,0.1,1.9,0.3,2.6,0.5s1.5,0.6,2,1
			c0.6,0.4,1,0.9,1.3,1.5c0.3,0.6,0.5,1.3,0.5,2c0,0.7-0.2,1.4-0.5,2c-0.3,0.6-0.7,1.1-1.3,1.6c-0.6,0.4-1.3,0.8-2.2,1.1
			C607.5,58.9,606.5,59,605.3,59z"/>
		<path d="M621.4,58.9c-1.9,0-3.2-0.4-4.1-1.2c-0.8-0.8-1.2-2.1-1.2-3.9v-8.6h-2.3v-2.9h2.3v-3.7h3.4v3.7h4.2v2.9h-4.2v8.1
			c0,1,0.2,1.7,0.5,2s1.1,0.6,2.1,0.6c0.6,0,1.3-0.1,1.9-0.1v2.9c-0.4,0.1-0.8,0.1-1.2,0.1C622.4,58.8,621.9,58.9,621.4,58.9z"/>
		<path d="M631.5,59c-0.9,0-1.7-0.1-2.4-0.4s-1.3-0.6-1.7-1.1s-0.8-1-1.1-1.6c-0.2-0.6-0.4-1.3-0.4-2c0-1.6,0.5-2.9,1.4-3.6
			c1-0.8,2.4-1.2,4.3-1.2h5.2v-0.9c0-1.3-0.3-2.1-0.8-2.6s-1.4-0.7-2.6-0.7c-1.1,0-1.9,0.2-2.3,0.5c-0.5,0.4-0.8,0.8-0.9,1.4h-3.3
			c0.1-0.7,0.2-1.4,0.5-1.9c0.3-0.6,0.8-1.1,1.3-1.6c0.6-0.4,1.3-0.8,2-1c0.8-0.2,1.7-0.4,2.8-0.4c1,0,1.9,0.1,2.8,0.4
			s1.5,0.6,2.1,1.1c0.6,0.5,1,1.1,1.4,1.9c0.3,0.8,0.5,1.7,0.5,2.7v6.5c0,0.9,0,1.6,0.1,2.3c0,0.7,0.1,1.3,0.2,1.9h-3.1
			c-0.1-0.5-0.1-0.9-0.1-1.2c-0.1-0.4-0.1-0.7-0.1-1.3c-0.4,0.8-1.1,1.4-2,2C634.2,58.7,632.9,59,631.5,59z M632.5,56
			c0.6,0,1.1-0.1,1.7-0.2c0.5-0.2,1-0.4,1.4-0.7c0.4-0.3,0.7-0.7,1-1.1c0.2-0.4,0.4-1,0.4-1.6v-0.9h-4.5c-0.9,0-1.6,0.2-2.1,0.5
			c-0.5,0.4-0.8,0.9-0.8,1.6c0,0.7,0.2,1.3,0.7,1.6C630.6,55.9,631.4,56,632.5,56z"/>
		<path d="M649.4,59c-1.9,0-3.4-0.5-4.4-1.7c-1-1.1-1.5-2.9-1.5-5.1v-10h3.4v9.6c0,1.4,0.3,2.4,0.8,3.1c0.6,0.7,1.5,1.1,2.7,1.1
			c0.7,0,1.3-0.1,1.7-0.4c0.5-0.2,0.9-0.5,1.2-1c0.3-0.4,0.5-0.8,0.7-1.4c0.2-0.5,0.2-1,0.2-1.6v-9.6h3.4v16.4h-3.2v-2.8
			c-0.4,0.8-1,1.6-1.9,2.2C651.8,58.7,650.7,59,649.4,59z"/>
		<path d="M661.3,42.2h3.2v2.8c0.4-0.8,0.9-1.6,1.6-2.2c0.8-0.6,1.7-1,2.8-1c0.5,0,0.9,0,1.1,0.1c0.2,0.1,0.4,0.1,0.5,0.1v3.1
			c-0.4-0.1-0.7-0.2-1-0.2c-0.3-0.1-0.7-0.1-1.1-0.1c-0.7,0-1.3,0.1-1.7,0.4s-0.9,0.5-1.2,1c-0.3,0.4-0.5,0.8-0.7,1.3
			c-0.2,0.5-0.2,1-0.2,1.6v9.6h-3.4L661.3,42.2L661.3,42.2z"/>
		<path d="M676.9,59c-0.9,0-1.7-0.1-2.4-0.4s-1.3-0.6-1.7-1.1s-0.8-1-1.1-1.6c-0.2-0.6-0.4-1.3-0.4-2c0-1.6,0.5-2.9,1.4-3.6
			c1-0.8,2.4-1.2,4.3-1.2h5.2v-0.9c0-1.3-0.3-2.1-0.8-2.6s-1.4-0.7-2.6-0.7c-1.1,0-1.9,0.2-2.3,0.5c-0.5,0.4-0.8,0.8-0.9,1.4h-3.3
			c0.1-0.7,0.2-1.4,0.5-1.9c0.3-0.6,0.8-1.1,1.3-1.6c0.6-0.4,1.3-0.8,2-1c0.8-0.2,1.7-0.4,2.8-0.4c1,0,1.9,0.1,2.8,0.4
			c0.8,0.2,1.5,0.6,2.1,1.1c0.6,0.5,1,1.1,1.4,1.9c0.3,0.8,0.5,1.7,0.5,2.7v6.5c0,0.9,0,1.6,0.1,2.3c0,0.7,0.1,1.3,0.2,1.9h-3.1
			c-0.1-0.5-0.1-0.9-0.1-1.2c-0.1-0.4-0.1-0.7-0.1-1.3c-0.4,0.8-1.1,1.4-2,2C679.5,58.7,678.2,59,676.9,59z M677.7,56
			c0.6,0,1.1-0.1,1.7-0.2c0.5-0.2,1-0.4,1.4-0.7c0.4-0.3,0.7-0.7,1-1.1c0.2-0.4,0.4-1,0.4-1.6v-0.9h-4.5c-0.9,0-1.6,0.2-2.1,0.5
			c-0.5,0.4-0.8,0.9-0.8,1.6c0,0.7,0.2,1.3,0.7,1.6C676,55.9,676.7,56,677.7,56z"/>
		<path d="M689,42.2h3.2V45c0.4-0.8,1-1.6,1.9-2.2s2-1,3.5-1c2,0,3.5,0.5,4.6,1.6c1,1.1,1.5,2.7,1.5,4.8v10.4h-3.4v-9.6
			c0-1.4-0.3-2.4-0.9-3.1c-0.6-0.7-1.6-1.1-2.9-1.1c-0.7,0-1.3,0.1-1.9,0.4c-0.5,0.2-0.9,0.5-1.3,1c-0.3,0.4-0.5,0.8-0.7,1.3
			c-0.2,0.5-0.2,1-0.2,1.6v9.6h-3.4L689,42.2L689,42.2z"/>
		<path d="M713.3,58.9c-1.9,0-3.2-0.4-4.1-1.2c-0.8-0.8-1.2-2.1-1.2-3.9v-8.6h-2.3v-2.9h2.3v-3.7h3.4v3.7h4.2v2.9h-4.2v8.1
			c0,1,0.2,1.7,0.5,2s1.1,0.6,2.1,0.6c0.6,0,1.3-0.1,1.9-0.1v2.9c-0.4,0.1-0.8,0.1-1.2,0.1C714.4,58.8,713.9,58.9,713.3,58.9z"/>
	</g>
</g>
</svg>
