<?xml version="1.0" encoding="utf-8"?>
<!-- Generator: Adobe Illustrator 27.0.0, SVG Export Plug-In . SVG Version: 6.00 Build 0)  -->
<svg version="1.1" id="Layer_1" xmlns="http://www.w3.org/2000/svg" xmlns:xlink="http://www.w3.org/1999/xlink" x="0px" y="0px"
	 viewBox="0 0 3840 581" style="enable-background:new 0 0 3840 581;" xml:space="preserve">
<style type="text/css">
	.st0{fill:#F4F4B0;}
</style>
<g>
	<path class="st0" d="M290.9,0h3258.1C3709.9,0,3840,129.9,3840,290.5l0,0c0,160.6-130.1,290.5-290.9,290.5H290.9
		C130.1,581,0,451.1,0,290.5l0,0C-0.4,130.3,130.1,0,290.9,0z"/>
	<g>
		<path d="M259.1,361.4c-11.6,0-21.3-2.6-28.8-7.5s-12.3-13.1-14.2-24.3h22.8c1.5,4.1,3.7,7.1,7.1,8.6c3.4,1.9,7.5,2.6,13.1,2.6
			c4.1,0,7.9-0.7,11.6-1.9c3.7-1.5,6.7-3.7,9.3-7.1c2.6-3.4,4.9-7.8,6.7-13.4c1.5-5.6,2.6-12.7,2.6-21.3c-1.5,2.6-3.7,5.2-6.4,7.1
			s-5.2,3.7-8.2,4.9c-3,1.1-6,2.2-9.3,2.6c-3.4,0.7-6.4,0.7-9.3,0.7c-13.5,0-23.9-3.7-31.4-11.2s-11.2-17.9-11.2-31.4v-1.9
			c0-6.7,1.1-12.7,3.4-17.9c2.2-5.6,5.6-10.1,9.7-14.2c4.1-4.1,9-7.1,15-9c5.6-2.2,12-3.4,18.3-3.4c7.9,0,15,1.1,21.3,3.7
			c6.4,2.2,11.6,6,15.7,11.2c4.5,4.9,7.5,11.6,10.1,19.4c2.2,7.8,3.4,17.2,3.4,28v3.7c0,13.1-1.5,23.9-4.1,32.9
			c-2.6,9-6.4,16.4-10.8,22c-4.5,5.6-10.1,9.7-16.5,12.3C273.4,360,266.6,361.4,259.1,361.4z M261.8,294.6c7.5,0,13.8-2.2,18.3-6.7
			c4.5-4.5,7.1-10.5,7.1-17.5v-1.9c0-3.4-0.7-6.7-1.9-9.7c-1.1-3-3-5.6-5.2-7.8c-2.2-2.2-4.9-4.1-7.9-5.2c-3-1.1-6.4-1.9-10.1-1.9
			c-7.5,0-13.8,2.2-18.3,6.7c-4.5,4.5-7.1,10.5-7.1,17.5v1.9c0,7.1,2.2,13.1,7.1,17.5C247.9,292.4,253.9,294.6,261.8,294.6z"/>
		<path d="M385.9,329h-65.8v-16.8l64.7-86.3h23.9v83.3h16.1V329h-16.1v30.2h-22.8C385.9,359.2,385.9,329,385.9,329z M385.9,309.2
			V252l-43,57.1C342.9,309.2,385.9,309.2,385.9,309.2z"/>
		<path d="M465.2,289c-4.9,0-9-0.7-12.7-2.2c-3.7-1.5-7.1-3.7-10.1-6.3c-2.6-2.6-4.9-6-6.4-10.1c-1.5-3.7-2.2-8.2-2.2-12.7v-1.9
			c0-4.9,0.7-9,2.2-12.7c1.5-3.7,3.7-7.1,6.4-10.1c2.6-2.6,6-4.9,10.1-6.3c3.7-1.5,8.2-2.2,12.7-2.2c4.9,0,9,0.7,12.7,2.2
			c3.7,1.5,7.1,3.7,10.1,6.3c2.6,2.6,4.9,6,6.4,10.1c1.5,3.7,2.2,8.2,2.2,12.7v1.9c0,4.9-0.7,9-2.2,12.7c-1.5,3.7-3.7,7.1-6.4,10.1
			c-2.6,2.6-6,4.9-10.1,6.3C474.2,288.3,470,289,465.2,289z M543.3,225.9h22.8l-91.6,133.3h-22.8L543.3,225.9z M465.2,271.8
			c3.4,0,6-1.1,8.2-3.4c1.9-2.2,3-6,3-11.2v-1.9c0-5.2-1.1-8.6-3-11.2c-1.9-2.2-4.9-3.4-8.2-3.4s-6,1.1-8.2,3.4c-1.9,2.2-3,6-3,11.2
			v1.9c0,5.2,1.1,8.6,3,11.2C458.8,270.7,461.8,271.8,465.2,271.8z M553.1,361.1c-4.9,0-9-0.7-12.7-2.2c-3.7-1.5-7.1-3.7-10.1-6.3
			c-2.6-2.6-4.9-6-6.4-10.1c-1.5-3.7-2.2-8.2-2.2-12.7v-2.2c0-4.9,0.7-9,2.2-12.7c1.5-3.7,3.7-7.1,6.4-10.1c2.6-2.6,6-4.9,10.1-6.3
			c3.7-1.5,8.2-2.2,12.7-2.2c4.9,0,9,0.7,12.7,2.2c3.7,1.5,7.1,3.7,10.1,6.3c2.6,2.6,4.9,6,6.4,10.1c1.5,3.7,2.2,8.2,2.2,12.7v1.9
			c0,4.9-0.7,9-2.2,12.7c-1.5,3.7-3.7,7.1-6.4,10.1c-2.6,2.6-6,4.9-10.1,6.3C562,360.3,557.5,361.1,553.1,361.1z M553.1,343.9
			c3.4,0,6-1.1,8.2-3.4c1.9-2.2,3-6,3-11.2v-1.9c0-5.2-1.1-8.6-3-11.2c-1.9-2.2-4.9-3.4-8.2-3.4c-3.4,0-6,1.1-8.2,3.4
			c-1.9,2.2-3,6-3,11.2v1.9c0,5.2,1.1,8.6,3,11.2C546.7,342.8,549.3,343.9,553.1,343.9z"/>
		<path d="M668.2,361.4c-5.6,0-10.5-0.7-14.6-2.2c-4.1-1.5-7.9-3.7-10.8-6.7c-3-3-5.2-6.3-6.7-10.1c-1.5-3.7-2.2-7.8-2.2-12.7
			c0-10.1,3-17.5,9-22.4c6-4.9,14.6-7.5,26.2-7.5h31.4v-5.6c0-7.5-1.9-12.7-5.2-15.7c-3.4-3-8.6-4.1-16.1-4.1
			c-6.4,0-11.2,1.1-14.2,3c-3,1.9-4.9,4.9-5.2,8.2h-20.6c0.4-4.5,1.5-8.2,3.4-11.9c1.9-3.7,4.9-6.7,8.2-9.3
			c3.4-2.6,7.9-4.9,12.7-6.3c4.9-1.5,10.5-2.2,16.8-2.2s12,0.7,16.8,2.2c4.9,1.5,9.3,3.7,12.7,6.7c3.7,3,6.4,6.7,8.2,11.6
			c1.9,4.9,3,10.5,3,16.8v40.3c0,5.2,0,10.1,0.4,13.8c0,4.1,0.4,7.8,1.1,11.6h-19.1c-0.4-3-0.7-5.2-0.7-7.5
			c-0.4-1.9-0.4-4.5-0.4-7.5c-2.2,4.9-6.7,8.6-12.3,11.9C684.3,359.6,676.8,361.4,668.2,361.4z M673.8,343.1c3.7,0,7.1-0.4,10.1-1.5
			c3.4-1.1,6-2.2,8.6-4.1c2.2-1.9,4.5-4.1,6-6.7c1.5-2.6,2.2-6,2.2-9.3v-5.6h-27.7c-5.2,0-9.7,1.1-12.7,3.4
			c-3.4,2.2-4.9,5.6-4.9,10.1c0,4.1,1.5,7.5,4.5,10.1C662.6,341.7,667.5,343.1,673.8,343.1z"/>
		<path d="M730.3,258.4h22.8l31,78l27.7-78h21.3l-39.3,100.8h-20.9L730.3,258.4z"/>
		<path d="M885.9,361.4c-7.1,0-13.5-1.1-19.4-3.4c-6-2.2-11.2-5.6-15.7-9.7c-4.5-4.5-7.9-9.7-10.5-16.1c-2.6-6.3-3.7-13.8-3.7-22.4
			v-3.7c0-7.8,1.1-14.9,3.7-21.3c2.6-6,6-11.2,10.5-15.7c4.5-4.1,9.7-7.5,15.7-9.7c6-2.2,12.7-3.4,19.4-3.4c7.1,0,13.5,1.1,19.4,3.4
			s11.2,5.2,15.7,9.7c4.5,4.1,7.9,9.3,10.5,15.7c2.6,6,3.7,13.1,3.7,21.3v3.7c0,8.6-1.1,16.1-3.7,22.4c-2.6,6.3-6,11.9-10.5,16.1
			c-4.5,4.5-9.7,7.5-15.7,9.7C899.3,360.3,892.6,361.4,885.9,361.4z M885.9,343.1c3.7,0,7.1-0.7,10.5-1.9c3.4-1.1,6.4-3.4,9-6
			c2.6-2.6,4.9-6,6.4-10.5c1.5-4.1,2.2-9.3,2.2-15.3v-3.7c0-5.6-0.7-10.1-2.2-14.2s-3.7-7.1-6.4-9.7s-5.6-4.5-9-5.6
			c-3.4-1.1-6.7-1.9-10.5-1.9c-3.7,0-7.1,0.7-10.5,1.9c-3.4,1.1-6.4,3-9,5.6s-4.9,5.6-6.4,9.7c-1.5,4.1-2.2,8.6-2.2,14.2v3.7
			c0,6,0.7,11.2,2.2,15.3c1.5,4.1,3.7,7.5,6.4,10.5c2.6,2.6,5.6,4.5,9,6C878.4,342.4,882.1,343.1,885.9,343.1z"/>
		<path d="M964,246.8c-4.1,0-7.1-1.1-9.7-3.7c-2.6-2.6-3.7-5.6-3.7-9.7c0-4.1,1.1-7.1,3.7-9.7c2.6-2.6,5.6-3.7,9.7-3.7
			c4.1,0,7.1,1.1,9.7,3.7s3.7,5.6,3.7,9.7c0,4.1-1.1,7.1-3.7,9.7S967.8,246.8,964,246.8z M953.6,258.4h20.9v100.8h-20.9V258.4z"/>
		<path d="M1035.1,361.4c-6.4,0-12.3-1.1-17.6-3.4c-5.2-2.2-9.7-5.2-13.5-9.7c-3.7-4.1-6.7-9.7-8.6-16.1c-1.9-6.3-3-14.2-3-22.8
			v-3.7c0-8.2,1.1-15.3,3-21.3c1.9-6,4.9-11.2,8.6-15.7c3.7-4.5,8.2-7.5,13.5-9.7c5.2-2.2,10.8-3.4,17.2-3.4
			c7.5,0,14.2,1.9,19.8,5.2c5.6,3.4,9.7,7.8,13.1,13.1v-48.5h20.9v133.3h-19.4v-16.4c-1.1,2.6-2.6,4.9-4.9,7.1
			c-2.2,2.2-4.9,4.5-7.9,6c-3,1.9-6.4,3-10.1,4.1C1043.3,360.7,1039.2,361.4,1035.1,361.4z M1039.9,343.1c3.7,0,7.1-0.7,10.5-1.9
			c3.4-1.1,6.4-3,9-5.2c2.6-2.2,4.5-5.2,6-9c1.5-3.7,2.2-7.8,2.2-12.7V301c0-4.5-0.7-8.2-2.2-11.6c-1.5-3.4-3.7-6-6.4-8.2
			c-2.6-2.2-5.6-3.7-9-5.2c-3.4-1.1-6.7-1.9-10.5-1.9c-7.9,0-14.2,2.6-19.1,7.8c-4.9,5.2-7.1,13.1-7.1,23.9v3.7
			c0,11.2,2.2,19.4,7.1,25C1026.1,340.2,1032.1,343.1,1039.9,343.1z"/>
		<path d="M1205.6,361.4c-8.2,0-15.7-1.9-21.7-5.6c-6-3.7-10.1-8.2-12.7-13.4v16.8h-19.4V225.9h20.9v48.5c3-5.2,7.5-9.3,13.1-13.1
			c5.6-3.7,12-5.2,19.8-5.2c13.1,0,23.6,4.1,31,12.3c7.5,8.2,11.6,20.5,11.6,37.3v3.7c0,8.6-1.1,16.1-3,22.8
			c-1.9,6.3-4.9,11.9-8.6,16.1c-3.7,4.1-8.2,7.5-13.5,9.7C1217.6,360.3,1211.9,361.4,1205.6,361.4z M1200.4,343.1
			c7.9,0,14.2-2.6,18.7-8.2c4.9-5.6,7.1-13.8,7.1-25v-3.7c0-10.8-2.2-18.7-7.1-23.9s-11.2-7.8-19.1-7.8c-3.7,0-7.1,0.7-10.5,1.9
			c-3.4,1.1-6.4,3-9,5.2c-2.6,2.2-4.5,4.9-6.4,8.2c-1.5,3.4-2.2,7.1-2.2,11.6v13.4c0,4.9,0.7,9,2.2,12.7c1.5,3.7,3.7,6.7,6,9
			c2.6,2.2,5.6,4.1,9,5.2C1193.2,342.4,1197,343.1,1200.4,343.1z"/>
		<path d="M1299.4,361.4c-12,0-20.9-3.4-26.9-10.5c-6-7.1-9-17.5-9-31.7v-60.9h20.9v59c0,8.6,1.9,14.9,5.2,19.4s9,6.3,16.8,6.3
			c4.1,0,7.9-0.7,10.8-2.2c3-1.5,5.6-3.4,7.5-5.6c1.9-2.2,3.4-5.2,4.1-8.2c1.1-3,1.5-6.3,1.5-9.7v-59h20.9v100.8H1332V342
			c-2.2,5.2-6.4,9.7-11.6,13.4C1314.4,359.2,1307.7,361.4,1299.4,361.4z"/>
		<path d="M1411.3,361.4c-7.5,0-13.8-0.7-19.1-2.6c-5.2-1.5-9.7-3.7-13.1-6.7c-3.4-2.6-6-6-7.9-9.7c-1.9-3.7-3-7.5-3.4-11.6h20.9
			c0.7,3.7,3,6.3,6.4,9c3.4,2.6,9,3.4,16.5,3.4c8.2,0,14.2-1.1,17.6-3.4c3.4-2.2,5.2-5.2,5.2-9c0-1.5-0.4-3.4-1.5-4.5
			c-0.7-1.5-2.2-2.6-4.1-4.1c-1.9-1.1-4.5-2.2-7.9-3.4c-3.4-1.1-7.5-1.9-12.3-2.6c-5.6-0.7-10.8-1.9-15.7-3.4c-4.9-1.5-8.6-3.4-12-6
			c-3.4-2.2-6-5.2-7.5-8.6c-1.9-3.4-2.6-7.5-2.6-12.3c0-4.1,0.7-7.8,2.6-11.6c1.9-3.7,4.1-6.7,7.5-9.3c3.4-2.6,7.9-4.9,12.7-6.3
			c5.2-1.5,11.2-2.2,17.9-2.2c6.7,0,12.3,0.7,17.2,2.6c4.9,1.5,9,3.7,12,6.7c3.4,2.6,5.6,6,7.5,9.7c1.9,3.7,3,7.5,3.4,11.6h-20.9
			c-1.1-4.1-3-7.1-6.4-9c-3-2.2-7.5-3.4-12.7-3.4c-7.5,0-12.7,1.1-15.7,3.4s-4.5,4.9-4.5,7.8c0,1.9,0.4,3.4,1.1,4.9
			c0.7,1.5,1.9,2.6,3.7,3.7c1.9,1.1,4.1,2.2,7.5,3c3,0.7,7.1,1.5,12,2.2c6,0.7,11.2,1.9,16.1,3.4c4.9,1.5,9,3.4,12.7,6
			c3.4,2.6,6.4,5.6,8.2,9c1.9,3.7,3,7.8,3,12.7c0,4.5-0.7,8.2-2.6,11.9c-1.9,3.7-4.5,7.1-8.2,9.7c-3.7,2.6-8.2,4.9-13.8,6.3
			S1418.4,361.4,1411.3,361.4z"/>
		<path d="M1483.4,246.8c-4.1,0-7.1-1.1-9.7-3.7c-2.6-2.6-3.7-5.6-3.7-9.7c0-4.1,1.1-7.1,3.7-9.7c2.6-2.6,5.6-3.7,9.7-3.7
			c4.1,0,7.1,1.1,9.7,3.7s3.7,5.6,3.7,9.7c0,4.1-1.1,7.1-3.7,9.7S1487.5,246.8,1483.4,246.8z M1473,258.4h20.9v100.8H1473V258.4z"/>
		<path d="M1517.8,258.4h19.4v16.8c2.2-5.2,6.4-9.3,12-13.4c5.6-4.1,12.3-5.6,21.3-5.6c12.3,0,21.7,3.4,27.7,10.1
			c6.4,6.7,9.3,16.4,9.3,29.1v63.9h-20.9v-59c0-8.6-1.9-14.9-5.2-19.4c-3.7-4.5-9.3-6.3-17.6-6.3c-4.5,0-8.2,0.7-11.2,2.2
			c-3,1.5-5.6,3.4-7.5,5.6c-1.9,2.2-3.4,5.2-4.5,8.2c-1.1,3-1.5,6.3-1.5,9.7v59h-20.9V258.4H1517.8z"/>
		<path d="M1672.3,361.4c-6.7,0-13.1-1.1-19.1-3c-6-2.2-11.2-5.2-15.7-9.3s-8.2-9.7-10.8-16.1c-2.6-6.3-4.1-14.2-4.1-22.8v-3.7
			c0-8.2,1.1-15.7,3.7-22c2.6-6.3,6-11.6,10.5-15.7c4.5-4.1,9.3-7.1,15.3-9.3c5.6-1.9,12-3,18.3-3c15.3,0,27.3,4.1,35.5,12.3
			c8.2,8.2,12.3,20.2,12.3,35.5v10.8h-74c0,5.2,1.1,9.7,2.6,13.1c1.5,3.7,3.7,6.7,6.4,8.6c2.6,2.2,5.6,3.7,9,4.9
			c3.4,1.1,6.7,1.5,10.5,1.5c7.1,0,12.7-1.1,16.1-3.4s5.6-5.2,7.1-9h20.9c-1.9,10.1-7.1,17.5-15,22.8
			C1693.2,358.8,1683.5,361.4,1672.3,361.4z M1671.5,274.4c-3.7,0-7.1,0.4-10.1,1.5c-3.4,0.7-6,2.2-8.6,4.1c-2.6,1.9-4.5,4.5-6,7.5
			s-2.2,6.7-2.6,11.2h53.1c0-4.9-0.7-8.6-2.2-11.9c-1.5-3-3-5.6-5.6-7.5c-2.2-1.9-4.9-3.4-8.2-4.1
			C1678.2,274.8,1674.9,274.4,1671.5,274.4z"/>
		<path d="M1772.5,361.4c-7.5,0-13.8-0.7-19.1-2.6c-5.2-1.5-9.7-3.7-13.1-6.7c-3.4-2.6-6.4-6-7.9-9.7c-1.9-3.7-3-7.5-3.4-11.6h20.9
			c0.7,3.7,3,6.3,6.4,9c3.4,2.6,9,3.4,16.5,3.4c8.2,0,14.2-1.1,17.6-3.4c3.4-2.2,5.2-5.2,5.2-9c0-1.5-0.4-3.4-1.5-4.5
			c-0.7-1.5-2.2-2.6-4.1-4.1c-1.9-1.1-4.5-2.2-7.9-3.4c-3.4-1.1-7.5-1.9-12.3-2.6c-5.6-0.7-10.8-1.9-15.7-3.4c-4.9-1.5-8.6-3.4-12-6
			s-6-5.2-7.5-8.6c-1.5-3.4-2.6-7.5-2.6-12.3c0-4.1,0.7-7.8,2.6-11.6c1.5-3.7,4.1-6.7,7.5-9.3s7.9-4.9,12.7-6.3
			c5.2-1.5,11.2-2.2,17.9-2.2s12.3,0.7,17.2,2.6c4.9,1.5,9,3.7,12,6.7c3.4,2.6,5.6,6,7.5,9.7c1.9,3.7,3,7.5,3.4,11.6h-20.9
			c-1.1-4.1-3-7.1-6.4-9c-3-2.2-7.5-3.4-12.7-3.4c-7.5,0-12.7,1.1-15.7,3.4c-3,2.2-4.5,4.9-4.5,7.8c0,1.9,0.4,3.4,1.1,4.9
			c0.7,1.5,1.9,2.6,3.7,3.7c1.9,1.1,4.1,2.2,7.5,3c3,0.7,7.1,1.5,12,2.2c6,0.7,11.2,1.9,16.1,3.4c4.9,1.5,9,3.4,12.7,6
			c3.4,2.6,6.4,5.6,8.2,9c1.9,3.7,3,7.8,3,12.7c0,4.5-0.7,8.2-2.6,11.9c-1.9,3.7-4.5,7.1-8.2,9.7s-8.2,4.9-13.8,6.3
			C1785.9,360.3,1779.6,361.4,1772.5,361.4z"/>
		<path d="M1870.8,361.4c-7.5,0-13.8-0.7-19.1-2.6c-5.2-1.5-9.7-3.7-13.1-6.7c-3.4-2.6-6.4-6-7.9-9.7c-1.9-3.7-3-7.5-3.4-11.6h20.9
			c0.7,3.7,3,6.3,6.4,9c3.4,2.6,9,3.4,16.5,3.4c8.2,0,14.2-1.1,17.6-3.4c3.4-2.2,5.2-5.2,5.2-9c0-1.5-0.4-3.4-1.5-4.5
			c-0.7-1.5-2.2-2.6-4.1-4.1c-1.9-1.1-4.5-2.2-7.9-3.4c-3.4-1.1-7.5-1.9-12.3-2.6c-5.6-0.7-10.8-1.9-15.7-3.4c-4.9-1.5-8.6-3.4-12-6
			c-3.4-2.6-6-5.2-7.5-8.6c-1.5-3.4-2.6-7.5-2.6-12.3c0-4.1,0.7-7.8,2.6-11.6c1.5-3.7,4.1-6.7,7.5-9.3c3.4-2.6,7.9-4.9,12.7-6.3
			c5.2-1.5,11.2-2.2,17.9-2.2c6.7,0,12.3,0.7,17.2,2.6c4.9,1.5,9,3.7,12,6.7c3.4,2.6,5.6,6,7.5,9.7c1.9,3.7,3,7.5,3.4,11.6h-20.9
			c-1.1-4.1-3-7.1-6.4-9c-3-2.2-7.5-3.4-12.7-3.4c-7.5,0-12.7,1.1-15.7,3.4c-3,2.2-4.5,4.9-4.5,7.8c0,1.9,0.4,3.4,1.1,4.9
			c0.7,1.5,1.9,2.6,3.7,3.7c1.9,1.1,4.1,2.2,7.5,3c3,0.7,7.1,1.5,12,2.2c6,0.7,11.2,1.9,16.1,3.4c4.9,1.5,9,3.4,12.7,6
			c3.4,2.6,6.4,5.6,8.2,9c1.9,3.7,3,7.8,3,12.7c0,4.5-0.7,8.2-2.6,11.9c-1.9,3.7-4.5,7.1-8.2,9.7c-3.7,2.6-8.2,4.9-13.8,6.3
			C1884.3,360.3,1877.9,361.4,1870.8,361.4z"/>
		<path d="M1974.8,361.4c-6.7,0-13.1-1.1-19.1-3c-6-2.2-11.2-5.2-15.7-9.3s-8.2-9.7-10.8-16.1s-4.1-14.2-4.1-22.8v-3.7
			c0-8.2,1.1-15.7,3.7-22c2.6-6.3,6-11.6,10.5-15.7c4.5-4.1,9.3-7.1,15.3-9.3c5.6-1.9,12-3,18.3-3c15.3,0,27.3,4.1,35.5,12.3
			c8.2,8.2,12.3,20.2,12.3,35.5v10.8h-74c0,5.2,1.1,9.7,2.6,13.1c1.5,3.7,3.7,6.7,6.4,8.6c2.6,2.2,5.6,3.7,9,4.9
			c3.4,1.1,6.7,1.5,10.5,1.5c7.1,0,12.7-1.1,16.1-3.4c3.4-2.2,5.6-5.2,7.1-9h20.9c-1.9,10.1-7.1,17.5-15,22.8
			C1995.7,358.8,1986,361.4,1974.8,361.4z M1973.7,274.4c-3.7,0-7.1,0.4-10.1,1.5c-3.4,0.7-6,2.2-8.6,4.1c-2.6,1.9-4.5,4.5-6,7.5
			s-2.2,6.7-2.6,11.2h53.1c0-4.9-0.7-8.6-2.2-11.9c-1.5-3-3-5.6-5.6-7.5c-2.2-1.9-4.9-3.4-8.2-4.1
			C1980.4,274.8,1977.4,274.4,1973.7,274.4z"/>
		<path d="M2074.6,361.4c-7.5,0-13.8-0.7-19.1-2.6c-5.2-1.5-9.7-3.7-13.1-6.7c-3.4-2.6-6.4-6-7.9-9.7c-1.9-3.7-3-7.5-3.4-11.6h20.9
			c0.7,3.7,3,6.3,6.4,9c3.4,2.6,9,3.4,16.5,3.4c8.2,0,14.2-1.1,17.6-3.4c3.4-2.2,5.2-5.2,5.2-9c0-1.5-0.4-3.4-1.5-4.5
			c-0.7-1.5-2.2-2.6-4.1-4.1c-1.9-1.1-4.5-2.2-7.9-3.4c-3.4-1.1-7.5-1.9-12.3-2.6c-5.6-0.7-10.8-1.9-15.7-3.4c-4.9-1.5-8.6-3.4-12-6
			c-3.4-2.6-6-5.2-7.5-8.6c-1.5-3.4-2.6-7.5-2.6-12.3c0-4.1,0.7-7.8,2.6-11.6c1.5-3.7,4.1-6.7,7.5-9.3c3.4-2.6,7.9-4.9,12.7-6.3
			c5.2-1.5,11.2-2.2,17.9-2.2s12.3,0.7,17.2,2.6c4.9,1.5,9,3.7,12,6.7c3.4,2.6,5.6,6,7.5,9.7c1.9,3.7,3,7.5,3.4,11.6h-20.9
			c-1.1-4.1-3-7.1-6.4-9c-3-2.2-7.5-3.4-12.7-3.4c-7.5,0-12.7,1.1-15.7,3.4s-4.5,4.9-4.5,7.8c0,1.9,0.4,3.4,1.1,4.9
			c0.7,1.5,1.9,2.6,3.7,3.7c1.9,1.1,4.1,2.2,7.5,3c3,0.7,7.1,1.5,12,2.2c6,0.7,11.2,1.9,16.1,3.4c4.9,1.5,9,3.4,12.7,6
			c3.4,2.6,6.4,5.6,8.2,9c1.9,3.7,3,7.8,3,12.7c0,4.5-0.7,8.2-2.6,11.9c-1.9,3.7-4.5,7.1-8.2,9.7c-3.7,2.6-8.2,4.9-13.8,6.3
			C2088.5,360.3,2082.1,361.4,2074.6,361.4z"/>
		<path d="M2168.1,258.4h22.1l18.3,74.3l23.2-74.3h19.1l24.7,74.3l18.3-74.3h20.6l-27.7,100.8h-20.9l-25.1-74.3l-24.3,74.3h-20.9
			L2168.1,258.4z"/>
		<path d="M2341.6,246.8c-4.1,0-7.1-1.1-9.7-3.7s-3.7-5.6-3.7-9.7c0-4.1,1.1-7.1,3.7-9.7s5.6-3.7,9.7-3.7s7.1,1.1,9.7,3.7
			c2.6,2.6,3.7,5.6,3.7,9.7c0,4.1-1.1,7.1-3.7,9.7C2348.7,245.7,2345.7,246.8,2341.6,246.8z M2331.1,258.4h20.9v100.8h-20.9V258.4z"
			/>
		<path d="M2415.3,360c-11.6,0-19.8-2.6-25.1-7.5c-4.9-4.9-7.5-13.1-7.5-23.9v-52.3h-14.2v-17.9h14.2v-22.8h20.9v22.8h25.8v17.9
			h-25.8V326c0,6,1.1,10.1,3.4,12.3c2.2,2.2,6.4,3.4,12.7,3.4c3.7,0,7.5-0.4,11.6-0.7v17.9c-2.2,0.4-4.9,0.4-7.5,0.7
			C2421.3,360,2418.3,360,2415.3,360z"/>
		<path d="M2447.4,225.9h20.9v48.5c1.1-2.2,2.6-4.5,4.5-6.7c1.9-2.2,4.1-4.1,6.7-6c2.6-1.5,5.6-3,9-4.1c3.4-1.1,7.1-1.5,11.6-1.5
			c12.3,0,21.7,3.4,27.7,10.1c6.4,6.7,9.3,16.4,9.3,29.1v63.9h-20.9v-59c0-8.6-1.9-14.9-5.2-19.4c-3.7-4.5-9.3-6.3-17.6-6.3
			c-4.5,0-8.2,0.7-11.2,2.2c-3,1.5-5.6,3.4-7.5,5.6c-1.9,2.2-3.4,5.2-4.5,8.2c-1.1,3-1.5,6.3-1.5,9.7v59h-20.9V225.9H2447.4z"/>
		<path d="M2653.1,361.4c-8.2,0-15.7-1.9-21.7-5.6c-6-3.7-10.1-8.2-12.7-13.4v16.8h-19.4V225.9h20.9v48.5c3-5.2,7.5-9.3,13.1-13.1
			c5.6-3.4,12-5.2,19.8-5.2c13.1,0,23.6,4.1,31,12.3s11.6,20.5,11.6,37.3v3.7c0,8.6-1.1,16.1-3,22.8c-1.9,6.3-4.9,11.9-8.6,16.1
			c-3.7,4.1-8.2,7.5-13.5,9.7C2665.1,360.3,2659.5,361.4,2653.1,361.4z M2647.9,343.1c7.9,0,14.2-2.6,18.7-8.2
			c4.9-5.6,7.1-13.8,7.1-25v-3.7c0-10.8-2.2-18.7-7.1-23.9c-4.9-5.2-11.2-7.8-19.1-7.8c-3.7,0-7.1,0.7-10.5,1.9
			c-3.4,1.1-6.4,3-9,5.2c-2.6,2.2-4.5,4.9-6.4,8.2c-1.5,3.4-2.2,7.1-2.2,11.6v13.4c0,4.9,0.7,9,2.2,12.7c1.5,3.7,3.7,6.7,6,9
			c2.6,2.2,5.6,4.1,9,5.2C2640.8,342.4,2644.1,343.1,2647.9,343.1z"/>
		<path d="M2741.4,361.4c-5.6,0-10.5-0.7-14.6-2.2c-4.1-1.5-7.9-3.7-10.8-6.7c-3-3-5.2-6.3-6.7-10.1c-1.5-3.7-2.2-7.8-2.2-12.7
			c0-10.1,3-17.5,9-22.4c6-4.9,14.6-7.5,26.2-7.5h31.4v-5.6c0-7.5-1.9-12.7-5.2-15.7s-8.6-4.1-16.1-4.1c-6.4,0-11.2,1.1-14.2,3
			s-4.9,4.9-5.2,8.2h-20.6c0.4-4.5,1.5-8.2,3.4-11.9c1.9-3.7,4.9-6.7,8.2-9.3c3.4-2.6,7.9-4.9,12.7-6.3c4.9-1.5,10.5-2.2,16.8-2.2
			c6.4,0,12,0.7,16.8,2.2c4.9,1.5,9.3,3.7,12.7,6.7c3.7,3,6.4,6.7,8.2,11.6c1.9,4.9,3,10.5,3,16.8v40.3c0,5.2,0,10.1,0.4,13.8
			c0,4.1,0.4,7.8,1.1,11.6h-19.1c-0.4-3-0.7-5.2-0.7-7.5c-0.4-1.9-0.4-4.5-0.4-7.5c-2.2,4.9-6.7,8.6-12.3,11.9
			C2757.1,359.6,2750,361.4,2741.4,361.4z M2747,343.1c3.7,0,7.1-0.4,10.1-1.5s6-2.2,8.6-4.1c2.2-1.9,4.5-4.1,6-6.7
			c1.5-2.6,2.2-6,2.2-9.3v-5.6h-27.7c-5.2,0-9.7,1.1-12.7,3.4c-3.4,2.2-4.9,5.6-4.9,10.1c0,4.1,1.5,7.5,4.5,10.1
			C2735.8,341.7,2740.6,343.1,2747,343.1z"/>
		<path d="M2852.8,361.4c-6.4,0-12.3-1.1-17.6-3.4s-9.7-5.2-13.5-9.7c-3.7-4.1-6.7-9.7-8.6-16.1c-1.9-6.3-3-14.2-3-22.8v-3.7
			c0-8.2,1.1-15.3,3-21.3c1.9-6,4.9-11.2,8.6-15.7c3.7-4.1,8.2-7.5,13.5-9.7c5.2-2.2,10.8-3.4,17.2-3.4c7.5,0,14.2,1.9,19.8,5.2
			c5.6,3.4,9.7,7.8,13.1,13.1v-48.5h20.9v133.3h-19.4v-16.4c-1.1,2.6-2.6,4.9-4.9,7.1c-2.2,2.2-4.9,4.5-7.9,6c-3,1.9-6.4,3-10.1,4.1
			C2860.6,360.7,2856.5,361.4,2852.8,361.4z M2857.3,343.1c3.7,0,7.1-0.7,10.5-1.9c3.4-1.1,6.4-3,9-5.2s4.5-5.2,6-9
			c1.5-3.7,2.2-7.8,2.2-12.7V301c0-4.5-0.7-8.2-2.2-11.6c-1.5-3.4-3.7-6-6.4-8.2c-2.6-2.2-5.6-3.7-9-5.2c-3.4-1.1-6.7-1.9-10.5-1.9
			c-7.9,0-14.2,2.6-19.1,7.8c-4.9,5.2-7.1,13.1-7.1,23.9v3.7c0,11.2,2.2,19.4,7.1,25C2843.4,340.2,2849.8,343.1,2857.3,343.1z"/>
		<path d="M2969.1,258.4h19.4v17.2c1.9-5.2,5.2-9.7,10.1-13.4c4.9-3.7,10.5-5.6,17.2-5.6c3,0,5.6,0,7.1,0.4s2.6,0.4,3.4,0.7v19
			c-2.2-0.7-4.1-1.1-6-1.5c-1.9-0.4-4.1-0.4-6.4-0.4c-4.1,0-7.9,0.7-10.8,2.2c-3,1.5-5.6,3.4-7.5,5.6c-1.9,2.2-3.4,5.2-4.1,8.2
			c-1.1,3-1.5,6.3-1.5,9.7v59h-20.9L2969.1,258.4L2969.1,258.4z"/>
		<path d="M3080.5,361.4c-6.7,0-13.1-1.1-19.1-3c-6-2.2-11.2-5.2-15.7-9.3c-4.5-4.1-8.2-9.7-10.8-16.1s-4.1-14.2-4.1-22.8v-3.7
			c0-8.2,1.1-15.7,3.7-22c2.6-6.3,6-11.6,10.5-15.7c4.5-4.1,9.3-7.1,15.3-9.3c5.6-1.9,12-3,18.3-3c15.3,0,27.3,4.1,35.5,12.3
			c8.2,8.2,12.3,20.2,12.3,35.5v10.8h-74c0,5.2,1.1,9.7,2.6,13.1c1.5,3.7,3.7,6.7,6.4,8.6c2.6,2.2,5.6,3.7,9,4.9
			c3.4,1.1,6.7,1.5,10.5,1.5c7.1,0,12.7-1.1,16.1-3.4c3.4-2.2,5.6-5.2,7.1-9h20.9c-1.9,10.1-7.1,17.5-15,22.8
			C3101.8,358.8,3092.1,361.4,3080.5,361.4z M3079.8,274.4c-3.7,0-7.1,0.4-10.1,1.5c-3.4,0.7-6,2.2-8.6,4.1s-4.5,4.5-6,7.5
			s-2.2,6.7-2.6,11.2h53.1c0-4.9-0.7-8.6-2.2-11.9c-1.5-3-3-5.6-5.6-7.5c-2.2-1.9-4.9-3.4-8.2-4.1
			C3086.5,274.8,3083.1,274.4,3079.8,274.4z"/>
		<path d="M3129.5,258.4h22.8l31,78l27.7-78h21.3l-39.3,100.8h-20.9L3129.5,258.4z"/>
		<path d="M3257,246.8c-4.1,0-7.1-1.1-9.7-3.7s-3.7-5.6-3.7-9.7c0-4.1,1.1-7.1,3.7-9.7c2.6-2.6,5.6-3.7,9.7-3.7
			c4.1,0,7.1,1.1,9.7,3.7c2.6,2.6,3.7,5.6,3.7,9.7c0,4.1-1.1,7.1-3.7,9.7C3264.1,245.7,3261.1,246.8,3257,246.8z M3246.6,258.4h20.9
			v100.8h-20.9V258.4z"/>
		<path d="M3335.2,361.4c-6.7,0-13.1-1.1-19.1-3c-6-2.2-11.2-5.2-15.7-9.3s-8.2-9.7-10.8-16.1s-4.1-14.2-4.1-22.8v-3.7
			c0-8.2,1.1-15.7,3.7-22c2.6-6.3,6-11.6,10.5-15.7c4.5-4.1,9.3-7.1,15.3-9.3c5.6-1.9,12-3,18.3-3c15.3,0,27.3,4.1,35.5,12.3
			c8.2,8.2,12.3,20.2,12.3,35.5v10.8h-74c0,5.2,1.1,9.7,2.6,13.1c1.5,3.7,3.7,6.7,6.4,8.6c2.6,2.2,5.6,3.7,9,4.9s6.7,1.5,10.5,1.5
			c7.1,0,12.7-1.1,16.1-3.4s5.6-5.2,7.1-9h20.9c-1.9,10.1-7.1,17.5-15,22.8C3356.1,358.8,3346.8,361.4,3335.2,361.4z M3334.4,274.4
			c-3.7,0-7.1,0.4-10.1,1.5c-3.4,0.7-6,2.2-8.6,4.1c-2.6,1.9-4.5,4.5-6,7.5s-2.2,6.7-2.6,11.2h53.1c0-4.9-0.7-8.6-2.2-11.9
			c-1.5-3-3-5.6-5.6-7.5c-2.2-1.9-4.9-3.4-8.2-4.1C3341.2,274.8,3337.8,274.4,3334.4,274.4z"/>
		<path d="M3387.9,258.4h22.1l18.3,74.3l23.2-74.3h19.1l24.7,74.3l18.3-74.3h20.6l-27.7,100.8h-20.9l-25.1-74.3l-24.3,74.3h-20.9
			L3387.9,258.4z"/>
		<path d="M3585,361.4c-7.5,0-13.8-0.7-19.1-2.6c-5.2-1.5-9.7-3.7-13.1-6.7c-3.4-2.6-6.4-6-7.9-9.7c-1.9-3.7-3-7.5-3.4-11.6h20.9
			c0.7,3.7,3,6.3,6.4,9s9,3.4,16.5,3.4c8.2,0,14.2-1.1,17.6-3.4c3.4-2.2,5.2-5.2,5.2-9c0-1.5-0.4-3.4-1.5-4.5
			c-0.7-1.5-2.2-2.6-4.1-4.1c-1.9-1.1-4.5-2.2-7.9-3.4c-3.4-1.1-7.5-1.9-12.3-2.6c-5.6-0.7-10.8-1.9-15.7-3.4c-4.9-1.5-8.6-3.4-12-6
			s-6-5.2-7.5-8.6c-1.5-3.4-2.6-7.5-2.6-12.3c0-4.1,0.7-7.8,2.6-11.6c1.5-3.7,4.1-6.7,7.5-9.3s7.9-4.9,12.7-6.3
			c5.2-1.5,11.2-2.2,17.9-2.2c6.7,0,12.3,0.7,17.2,2.6c4.9,1.5,9,3.7,12,6.7c3.4,2.6,5.6,6,7.5,9.7c1.9,3.7,3,7.5,3.4,11.6h-20.9
			c-1.1-4.1-3-7.1-6.4-9c-3-2.2-7.5-3.4-12.7-3.4c-7.5,0-12.7,1.1-15.7,3.4c-3,2.2-4.5,4.9-4.5,7.8c0,1.9,0.4,3.4,1.1,4.9
			c0.7,1.5,1.9,2.6,3.7,3.7c1.9,1.1,4.1,2.2,7.5,3c3,0.7,7.1,1.5,12,2.2c6,0.7,11.2,1.9,16.1,3.4c4.9,1.5,9,3.4,12.7,6
			c3.4,2.6,6.4,5.6,8.2,9c1.9,3.7,3,7.8,3,12.7c0,4.5-0.7,8.2-2.6,11.9c-1.9,3.7-4.5,7.1-8.2,9.7c-3.7,2.6-8.2,4.9-13.8,6.3
			C3598.8,360.3,3592.5,361.4,3585,361.4z"/>
	</g>
</g>
</svg>
