<?xml version="1.0" encoding="utf-8"?>
<!-- Generator: Adobe Illustrator 27.0.0, SVG Export Plug-In . SVG Version: 6.00 Build 0)  -->
<svg version="1.1" id="Layer_1" xmlns="http://www.w3.org/2000/svg" xmlns:xlink="http://www.w3.org/1999/xlink" x="0px" y="0px"
	 viewBox="0 0 828 144" style="enable-background:new 0 0 828 144;" xml:space="preserve">
<style type="text/css">
	.st0{fill:#F4DAFF;}
</style>
<g>
	<path class="st0" d="M71.5,0h685C796,0,828,32.2,828,72l0,0c0,39.8-32,72-71.5,72h-685C32,144,0,111.8,0,72l0,0C0,32.2,32,0,71.5,0
		z"/>
	<g>
		<path d="M51.4,51.4h5.5v13.4h15.7V51.4h5.5v32.5h-5.5V69.6H56.9v14.3h-5.5V51.4z"/>
		<path d="M91.5,84.4c-1.3,0-2.5-0.2-3.5-0.6c-1-0.4-1.9-0.9-2.6-1.7c-0.7-0.7-1.3-1.5-1.7-2.4c-0.4-0.9-0.6-2-0.6-3.1
			c0-2.4,0.7-4.3,2.2-5.5c1.5-1.2,3.6-1.8,6.4-1.8h7.6v-1.4c0-1.9-0.4-3.2-1.2-3.8c-0.8-0.7-2.1-1-3.9-1c-1.6,0-2.8,0.3-3.5,0.7
			c-0.7,0.5-1.2,1.2-1.3,2h-5c0.1-1,0.4-2,0.8-2.9c0.5-0.9,1.1-1.7,1.9-2.3c0.8-0.7,1.8-1.1,3-1.5c1.2-0.4,2.6-0.6,4.1-0.6
			c1.5,0,2.9,0.2,4.1,0.5c1.2,0.4,2.2,0.8,3.1,1.6c0.8,0.7,1.6,1.7,2,2.8c0.5,1.1,0.7,2.5,0.7,4.2v9.8c0,1.3,0,2.4,0,3.4
			s0.1,2,0.2,2.9h-4.6c-0.1-0.7-0.2-1.3-0.2-1.9c-0.1-0.5-0.1-1.1-0.1-1.9c-0.6,1.1-1.6,2.1-3,3C95.4,84,93.6,84.4,91.5,84.4z
			 M92.9,80c0.8,0,1.7-0.1,2.5-0.4c0.8-0.2,1.5-0.6,2-1s1-1,1.4-1.7c0.4-0.7,0.6-1.4,0.6-2.3v-1.4h-6.6c-1.3,0-2.3,0.3-3.1,0.8
			c-0.8,0.6-1.2,1.4-1.2,2.4s0.4,1.9,1.1,2.5C90.2,79.6,91.3,80,92.9,80z"/>
		<path d="M109.5,59.3h4.7v4.2c0.7-1.4,1.8-2.6,3.3-3.4c1.5-0.8,3.1-1.2,5-1.2c3.2,0,5.7,1,7.6,3c1.8,2,2.8,5,2.8,9.1v0.9
			c0,2.1-0.3,3.9-0.7,5.6c-0.5,1.6-1.2,2.9-2.1,3.9s-2,1.9-3.2,2.3c-1.3,0.6-2.7,0.7-4.2,0.7c-1.8,0-3.3-0.4-4.8-1.1
			c-1.5-0.7-2.5-1.9-3.1-3.3v13.2h-5.1V59.3z M121.3,80c1.9,0,3.4-0.7,4.6-2c1.2-1.3,1.8-3.3,1.8-6.1v-0.9c0-2.6-0.6-4.6-1.8-5.8
			c-1.1-1.3-2.7-1.9-4.6-1.9c-0.8,0-1.7,0.1-2.5,0.5c-0.8,0.3-1.5,0.7-2.1,1.2c-0.6,0.6-1.1,1.2-1.5,2c-0.4,0.8-0.6,1.8-0.6,2.8V73
			c0,1.2,0.2,2.2,0.6,3.1c0.4,0.8,0.8,1.6,1.5,2.2c0.6,0.6,1.3,1,2.1,1.3C119.6,79.8,120.4,80,121.3,80z"/>
		<path d="M136.7,59.3h4.7v4.2c0.7-1.4,1.8-2.6,3.3-3.4c1.5-0.8,3.1-1.2,5-1.2c3.2,0,5.7,1,7.6,3c1.8,2,2.8,5,2.8,9.1v0.9
			c0,2.1-0.3,3.9-0.7,5.6c-0.5,1.6-1.2,2.9-2.1,3.9c-0.9,1-2,1.9-3.2,2.3c-1.3,0.6-2.7,0.7-4.2,0.7c-1.8,0-3.3-0.4-4.8-1.1
			c-1.5-0.7-2.5-1.9-3.1-3.3v13.2h-5.1V59.3z M148.5,80c1.9,0,3.4-0.7,4.6-2c1.2-1.3,1.8-3.3,1.8-6.1v-0.9c0-2.6-0.6-4.6-1.8-5.8
			c-1.1-1.3-2.7-1.9-4.6-1.9c-0.8,0-1.7,0.1-2.5,0.5c-0.8,0.3-1.5,0.7-2.1,1.2c-0.6,0.6-1.1,1.2-1.5,2c-0.4,0.8-0.6,1.8-0.6,2.8V73
			c0,1.2,0.2,2.2,0.6,3.1c0.4,0.8,0.8,1.6,1.5,2.2c0.6,0.6,1.3,1,2.1,1.3C146.8,79.8,147.6,80,148.5,80z"/>
		<path d="M167,93.7c-0.5,0-0.9,0-1.4-0.1v-4.5c0.5,0.1,0.9,0.2,1.4,0.2c0.6,0,0.9-0.1,1.3-0.3c0.4-0.2,0.6-0.5,1-0.8
			c0.3-0.5,0.6-0.9,0.8-1.7c0.3-0.7,0.6-1.6,1-2.6l-10.3-24.6h5.5l7.5,19l6.7-19h5.2L176.3,84c-0.6,1.8-1.3,3.3-1.8,4.5
			c-0.6,1.2-1.2,2.2-1.9,3.1c-0.7,0.7-1.5,1.4-2.3,1.8C169.2,93.6,168.2,93.7,167,93.7z"/>
		<path d="M208.7,84.4c-1.7,0-3.2-0.3-4.6-0.7c-1.4-0.5-2.6-1.3-3.6-2.3c-1-1-1.8-2.3-2.4-3.9c-0.6-1.6-0.9-3.4-0.9-5.6V71
			c0-2,0.3-3.7,0.9-5.2s1.5-2.8,2.5-3.8c1-1,2.3-1.8,3.7-2.3c1.4-0.5,2.9-0.7,4.4-0.7s3,0.2,4.2,0.7c1.3,0.5,2.3,1,3.2,1.8
			c0.8,0.7,1.6,1.7,2.1,2.7s0.8,2.1,1,3.3h-5.2c-0.3-1.1-0.8-2-1.7-2.8c-0.8-0.7-2-1.1-3.8-1.1c-0.8,0-1.7,0.2-2.4,0.5
			c-0.7,0.3-1.5,0.7-2,1.4c-0.6,0.7-1,1.4-1.4,2.4c-0.4,1-0.5,2.1-0.5,3.4V72c0,1.5,0.2,2.7,0.5,3.7c0.4,1,0.8,1.9,1.4,2.5
			s1.3,1.1,2,1.4c0.7,0.3,1.6,0.5,2.4,0.5c2.9,0,4.7-1.3,5.4-3.9h5.2c-0.3,1.3-0.6,2.5-1.3,3.5s-1.4,2-2.3,2.6
			c-0.9,0.7-1.9,1.3-3.1,1.7C211.3,84.3,210,84.4,208.7,84.4z"/>
		<path d="M231.5,84.4c-2.9,0-5.1-0.8-6.5-2.5c-1.5-1.7-2.2-4.3-2.2-7.7V59.4h5.1v14.4c0,2,0.5,3.6,1.3,4.6c0.8,1,2.2,1.6,4.1,1.6
			c1,0,1.8-0.2,2.6-0.5c0.7-0.4,1.3-0.8,1.8-1.4s0.8-1.3,1-2c0.2-0.7,0.4-1.6,0.4-2.3V59.3h5.1v24.6h-4.7v-4.2
			c-0.6,1.3-1.6,2.3-2.9,3.3C235.1,84,233.5,84.4,231.5,84.4z"/>
		<path d="M258.5,84.4c-1.8,0-3.3-0.2-4.6-0.6c-1.3-0.4-2.3-0.9-3.2-1.7c-0.8-0.7-1.5-1.5-1.9-2.4c-0.5-0.9-0.7-1.9-0.8-2.9h5.1
			c0.2,0.8,0.7,1.6,1.6,2.1c0.8,0.6,2.1,0.8,4,0.8c2,0,3.5-0.3,4.2-0.8c0.8-0.6,1.3-1.3,1.3-2.1c0-0.4-0.1-0.7-0.4-1.1
			c-0.2-0.4-0.6-0.7-1-1c-0.5-0.3-1.1-0.6-1.9-0.8c-0.8-0.3-1.8-0.5-3-0.6c-1.4-0.2-2.7-0.5-3.8-0.8c-1.1-0.4-2.1-0.8-2.9-1.4
			c-0.8-0.6-1.4-1.3-1.8-2.1c-0.5-0.8-0.6-1.9-0.6-3c0-1,0.2-2,0.6-2.8c0.4-0.9,1-1.7,1.8-2.3c0.8-0.7,1.8-1.2,3.1-1.6
			c1.3-0.4,2.7-0.6,4.3-0.6c1.6,0,3,0.2,4.2,0.6c1.2,0.4,2.1,0.9,3,1.7c0.8,0.7,1.4,1.5,1.8,2.4c0.5,0.9,0.6,1.9,0.8,2.9h-5.1
			c-0.3-0.9-0.7-1.7-1.5-2.2c-0.7-0.6-1.8-0.8-3.1-0.8c-1.8,0-3,0.3-3.8,0.8c-0.7,0.6-1,1.2-1,2c0,0.5,0.1,0.8,0.3,1.1
			c0.2,0.4,0.5,0.7,0.9,0.9c0.5,0.3,1,0.5,1.8,0.7c0.7,0.2,1.8,0.4,2.9,0.5c1.4,0.2,2.7,0.5,3.9,0.8c1.2,0.4,2.2,0.8,3,1.5
			c0.8,0.7,1.5,1.4,1.9,2.2c0.5,0.8,0.7,2,0.7,3.1c0,1-0.2,2-0.6,3c-0.5,0.9-1.1,1.7-1.9,2.3c-0.9,0.7-1.9,1.2-3.3,1.6
			C261.8,84.3,260.2,84.4,258.5,84.4z"/>
		<path d="M282.5,84.2c-2.8,0-4.8-0.7-6-1.9c-1.2-1.2-1.8-3.2-1.8-5.9V63.6h-3.5v-4.4h3.5v-5.6h5.1v5.6h6.3v4.4h-6.3v12.1
			c0,1.5,0.3,2.5,0.8,3.1c0.6,0.6,1.6,0.8,3.1,0.8c0.9,0,1.8,0,2.8-0.2v4.4c-0.6,0.1-1.2,0.1-1.8,0.2
			C284,84.1,283.3,84.2,282.5,84.2z"/>
		<path d="M300.7,84.4c-1.7,0-3.2-0.3-4.7-0.8s-2.8-1.3-3.8-2.4c-1.1-1-1.9-2.3-2.6-3.9c-0.6-1.6-0.9-3.3-0.9-5.5v-0.9
			c0-2,0.3-3.7,0.9-5.2c0.6-1.5,1.5-2.8,2.6-3.8c1.1-1,2.3-1.9,3.8-2.3c1.5-0.6,3-0.7,4.7-0.7c1.7,0,3.2,0.3,4.7,0.7
			c1.5,0.6,2.8,1.3,3.8,2.3c1.1,1,1.9,2.3,2.6,3.8s0.9,3.3,0.9,5.2v0.9c0,2-0.3,3.9-0.9,5.5c-0.6,1.6-1.5,2.9-2.6,3.9
			c-1.1,1-2.3,1.9-3.8,2.4C304,84.2,302.4,84.4,300.7,84.4z M300.7,80c0.9,0,1.8-0.2,2.6-0.5c0.8-0.3,1.6-0.7,2.2-1.4
			s1.1-1.5,1.5-2.5s0.6-2.2,0.6-3.7V71c0-1.3-0.2-2.5-0.6-3.4c-0.4-0.9-0.9-1.8-1.5-2.3c-0.6-0.7-1.4-1.1-2.2-1.4
			c-0.8-0.3-1.7-0.5-2.6-0.5s-1.8,0.2-2.6,0.5c-0.8,0.3-1.6,0.7-2.2,1.4c-0.6,0.7-1.1,1.4-1.5,2.3c-0.4,0.9-0.6,2.1-0.6,3.4v0.9
			c0,1.5,0.2,2.7,0.6,3.7c0.4,1,0.9,1.9,1.5,2.5c0.6,0.7,1.4,1.1,2.2,1.4C299,79.8,299.8,80,300.7,80z"/>
		<path d="M316.6,59.3h4.7v4.2c0.3-0.7,0.6-1.2,1.1-1.8c0.5-0.6,1-1.1,1.6-1.5c0.6-0.4,1.3-0.7,1.9-1c0.7-0.3,1.5-0.4,2.2-0.4
			c2,0,3.6,0.5,4.8,1.3c1.1,0.8,1.9,2,2.3,3.3c0.7-1.4,1.7-2.5,3-3.3c1.3-0.8,2.8-1.3,4.4-1.3c2.6,0,4.5,0.7,5.9,2.2
			c1.4,1.5,2,3.9,2,7.1v15.8h-5.1V69.3c0-2.2-0.4-3.7-1.2-4.6c-0.8-0.9-1.9-1.4-3.3-1.4c-1.7,0-2.9,0.6-3.7,1.7
			c-0.8,1.1-1.2,2.6-1.2,4.4V84H331V69.3c0-2.2-0.4-3.7-1.2-4.6c-0.8-0.9-1.9-1.4-3.3-1.4c-1.7,0-2.9,0.6-3.7,1.7
			c-0.8,1.1-1.2,2.6-1.2,4.4V84h-5.1L316.6,59.3L316.6,59.3z"/>
		<path d="M366.4,84.4c-1.7,0-3.1-0.3-4.6-0.7c-1.5-0.5-2.7-1.3-3.8-2.3s-1.9-2.3-2.6-3.9c-0.6-1.6-0.9-3.4-0.9-5.6V71
			c0-2,0.3-3.8,0.9-5.4c0.6-1.5,1.5-2.8,2.5-3.8c1.1-1,2.3-1.8,3.7-2.2c1.4-0.5,2.9-0.7,4.4-0.7c3.7,0,6.5,1,8.6,3
			c1.9,2,3,4.9,3,8.6V73h-17.9c0,1.3,0.3,2.3,0.6,3.3c0.4,0.8,0.9,1.6,1.5,2.1c0.6,0.6,1.4,0.9,2.2,1.2c0.8,0.3,1.7,0.4,2.5,0.4
			c1.8,0,3-0.3,3.9-0.8c0.8-0.6,1.4-1.3,1.7-2.1h5.1c-0.5,2.4-1.7,4.3-3.6,5.6C371.5,83.8,369.2,84.4,366.4,84.4z M366.2,63.3
			c-0.8,0-1.7,0.1-2.5,0.4c-0.8,0.2-1.5,0.6-2,1c-0.6,0.5-1.1,1.1-1.5,1.9c-0.4,0.7-0.6,1.7-0.6,2.8h12.8c0-1.1-0.2-2.1-0.6-2.9
			c-0.3-0.7-0.7-1.4-1.3-1.9c-0.6-0.5-1.2-0.8-1.9-1C367.9,63.4,367,63.3,366.2,63.3z"/>
		<path d="M381.4,59.3h4.7v4.2c0.5-1.3,1.3-2.3,2.4-3.3c1.1-0.9,2.5-1.4,4.2-1.4c0.7,0,1.4,0,1.8,0.1c0.4,0.1,0.6,0.1,0.8,0.2v4.6
			c-0.6-0.2-1-0.3-1.4-0.4c-0.5-0.1-0.9-0.1-1.6-0.1c-1,0-1.8,0.2-2.6,0.6c-0.7,0.4-1.3,0.8-1.8,1.4c-0.5,0.6-0.8,1.2-1,2
			c-0.2,0.7-0.4,1.6-0.4,2.3v14.4h-5.1L381.4,59.3L381.4,59.3z"/>
		<path d="M407.5,84.4c-1.8,0-3.3-0.2-4.6-0.6c-1.3-0.4-2.3-0.9-3.1-1.7c-0.8-0.7-1.5-1.5-1.9-2.4c-0.5-0.9-0.7-1.9-0.8-2.9h5.1
			c0.2,0.8,0.7,1.6,1.6,2.1c0.8,0.6,2.1,0.8,4,0.8c2,0,3.5-0.3,4.3-0.8s1.2-1.3,1.2-2.1c0-0.4-0.1-0.7-0.3-1.1c-0.2-0.4-0.6-0.7-1-1
			c-0.5-0.3-1.1-0.6-1.9-0.8c-0.8-0.3-1.8-0.5-3-0.6c-1.4-0.2-2.7-0.5-3.8-0.8c-1.1-0.4-2.1-0.8-2.9-1.4c-0.8-0.6-1.4-1.3-1.8-2.1
			c-0.5-0.8-0.6-1.9-0.6-3c0-1,0.2-2,0.6-2.8c0.4-0.9,1-1.7,1.8-2.3c0.8-0.7,1.8-1.2,3.1-1.6c1.2-0.4,2.7-0.6,4.3-0.6
			c1.6,0,3,0.2,4.2,0.6c1.2,0.4,2.1,0.9,3,1.7c0.8,0.7,1.4,1.5,1.8,2.4c0.5,0.9,0.6,1.9,0.8,2.9h-5.1c-0.3-0.9-0.7-1.7-1.5-2.2
			c-0.7-0.6-1.8-0.8-3.1-0.8c-1.8,0-3,0.3-3.8,0.8c-0.7,0.6-1.1,1.2-1.1,2c0,0.5,0.1,0.8,0.3,1.1c0.2,0.4,0.5,0.7,0.9,0.9
			c0.5,0.3,1,0.5,1.8,0.7c0.7,0.2,1.8,0.4,2.9,0.5c1.4,0.2,2.7,0.5,3.9,0.8c1.2,0.4,2.2,0.8,3,1.5c0.8,0.7,1.5,1.4,1.9,2.2
			c0.5,0.8,0.7,2,0.7,3.1c0,1-0.2,2-0.6,3c-0.5,0.9-1.1,1.7-2,2.3s-2,1.2-3.3,1.6C410.8,84.3,409.2,84.4,407.5,84.4z"/>
		<path d="M441.1,84.4c-1.8,0-3.3-0.2-4.6-0.6c-1.3-0.4-2.3-0.9-3.1-1.7c-0.8-0.7-1.5-1.5-1.9-2.4c-0.5-0.9-0.7-1.9-0.8-2.9h5.1
			c0.2,0.8,0.7,1.6,1.6,2.1c0.8,0.6,2.1,0.8,4,0.8c2,0,3.5-0.3,4.3-0.8c0.8-0.6,1.2-1.3,1.2-2.1c0-0.4-0.1-0.7-0.3-1.1
			c-0.2-0.4-0.6-0.7-1-1c-0.5-0.3-1.1-0.6-1.9-0.8c-0.8-0.3-1.8-0.5-3-0.6c-1.4-0.2-2.7-0.5-3.8-0.8c-1.1-0.4-2.1-0.8-2.9-1.4
			c-0.8-0.6-1.4-1.3-1.8-2.1c-0.5-0.8-0.6-1.9-0.6-3c0-1,0.2-2,0.6-2.8c0.4-0.9,1-1.7,1.8-2.3c0.8-0.7,1.8-1.2,3.1-1.6
			c1.2-0.4,2.7-0.6,4.3-0.6c1.6,0,3,0.2,4.2,0.6c1.2,0.4,2.1,0.9,3,1.7c0.8,0.7,1.4,1.5,1.8,2.4c0.5,0.9,0.6,1.9,0.8,2.9h-5.1
			c-0.3-0.9-0.7-1.7-1.5-2.2c-0.7-0.6-1.8-0.8-3.1-0.8c-1.8,0-3,0.3-3.8,0.8c-0.7,0.6-1.1,1.2-1.1,2c0,0.5,0.1,0.8,0.3,1.1
			c0.2,0.4,0.5,0.7,0.9,0.9c0.5,0.3,1,0.5,1.8,0.7c0.7,0.2,1.8,0.4,2.9,0.5c1.4,0.2,2.7,0.5,3.9,0.8c1.2,0.4,2.2,0.8,3,1.5
			c0.8,0.7,1.5,1.4,1.9,2.2c0.5,0.8,0.7,2,0.7,3.1c0,1-0.2,2-0.6,3c-0.5,0.9-1.1,1.7-2,2.3s-2,1.2-3.3,1.6
			C444.4,84.3,442.9,84.4,441.1,84.4z"/>
		<path d="M455.7,59.3h4.7v4.2c0.7-1.4,1.8-2.6,3.3-3.4c1.5-0.8,3.1-1.2,5-1.2c3.2,0,5.7,1,7.6,3c1.8,2,2.8,5,2.8,9.1v0.9
			c0,2.1-0.3,3.9-0.7,5.6c-0.5,1.6-1.2,2.9-2.1,3.9c-0.9,1-2,1.9-3.2,2.3c-1.3,0.6-2.7,0.7-4.2,0.7c-1.8,0-3.3-0.4-4.8-1.1
			c-1.5-0.7-2.5-1.9-3-3.3v13.2h-5.1L455.7,59.3L455.7,59.3z M467.4,80c1.9,0,3.4-0.7,4.6-2c1.2-1.3,1.8-3.3,1.8-6.1v-0.9
			c0-2.6-0.6-4.6-1.8-5.8c-1.2-1.2-2.7-1.9-4.6-1.9c-0.8,0-1.7,0.1-2.5,0.5c-0.8,0.3-1.5,0.7-2.1,1.2c-0.6,0.6-1.1,1.2-1.5,2
			c-0.4,0.8-0.6,1.8-0.6,2.8V73c0,1.2,0.2,2.2,0.6,3.1c0.4,0.8,0.8,1.6,1.5,2.2c0.6,0.6,1.3,1,2.1,1.3C465.7,79.8,466.5,80,467.4,80
			z"/>
		<path d="M493.5,84.4c-1.7,0-3.1-0.3-4.6-0.7s-2.7-1.3-3.8-2.3c-1.1-1-1.9-2.3-2.6-3.9c-0.6-1.6-0.9-3.4-0.9-5.6V71
			c0-2,0.3-3.8,0.9-5.4c0.6-1.5,1.5-2.8,2.5-3.8c1.1-1,2.3-1.8,3.7-2.2c1.4-0.5,2.9-0.7,4.4-0.7c3.7,0,6.5,1,8.6,3
			c1.9,2,3,4.9,3,8.6V73h-17.9c0,1.3,0.3,2.3,0.6,3.3c0.4,0.8,0.9,1.6,1.5,2.1c0.6,0.6,1.4,0.9,2.2,1.2c0.8,0.3,1.7,0.4,2.5,0.4
			c1.8,0,3-0.3,3.9-0.8s1.4-1.3,1.7-2.1h5.1c-0.5,2.4-1.7,4.3-3.6,5.6C498.6,83.8,496.2,84.4,493.5,84.4z M493.2,63.3
			c-0.8,0-1.7,0.1-2.5,0.4c-0.8,0.2-1.5,0.6-2,1c-0.6,0.5-1.1,1.1-1.5,1.9c-0.4,0.7-0.6,1.7-0.6,2.8h12.8c0-1.1-0.2-2.1-0.6-2.9
			c-0.3-0.7-0.7-1.4-1.3-1.9c-0.6-0.5-1.2-0.8-1.9-1C494.9,63.4,494.1,63.3,493.2,63.3z"/>
		<path d="M508.5,59.3h4.7v4.2c0.6-1.2,1.6-2.3,2.9-3.3s3-1.4,5.1-1.4c3,0,5.3,0.8,6.7,2.4c1.5,1.7,2.3,4,2.3,7.2V84h-5.1V69.5
			c0-2-0.5-3.6-1.3-4.6c-0.8-1-2.3-1.6-4.2-1.6c-1.1,0-2,0.2-2.8,0.6c-0.7,0.4-1.4,0.8-1.8,1.4c-0.5,0.6-0.8,1.2-1.1,2
			c-0.2,0.7-0.4,1.6-0.4,2.3v14.4h-5.1L508.5,59.3L508.5,59.3z"/>
		<path d="M544.2,84.4c-1.6,0-3-0.3-4.2-0.7c-1.3-0.5-2.3-1.3-3.2-2.3c-0.9-1-1.6-2.3-2.1-3.9c-0.6-1.6-0.7-3.4-0.7-5.6V71
			c0-2,0.3-3.7,0.7-5.2c0.5-1.5,1.2-2.8,2.1-3.8c0.9-1,2-1.8,3.2-2.3c1.3-0.6,2.7-0.7,4.2-0.7c1.8,0,3.4,0.4,4.8,1.2
			c1.4,0.8,2.4,2,3.1,3.3v-12h5.1v32.5h-4.7v-4.2c-0.3,0.7-0.6,1.2-1.2,1.8c-0.6,0.6-1.1,1-1.8,1.5c-0.7,0.5-1.6,0.7-2.4,1
			C546.1,84.3,545.2,84.4,544.2,84.4z M545.4,80c0.9,0,1.8-0.2,2.6-0.5c0.8-0.3,1.6-0.7,2.1-1.3c0.6-0.6,1.1-1.3,1.5-2.2
			c0.4-0.8,0.6-1.9,0.6-3.1v-3.3c0-1-0.2-2-0.6-2.8c-0.4-0.8-0.8-1.5-1.5-2s-1.4-0.9-2.2-1.2c-0.8-0.3-1.7-0.5-2.5-0.5
			c-1.9,0-3.5,0.7-4.6,1.9c-1.1,1.3-1.8,3.2-1.8,5.8v0.9c0,2.7,0.6,4.7,1.8,6.1C541.9,79.2,543.4,80,545.4,80z"/>
		<path d="M582.5,84.4c-1.8,0-3.5-0.3-5-0.7c-1.4-0.5-2.6-1.1-3.6-2c-0.9-0.8-1.7-1.9-2.2-3.1c-0.6-1.2-0.7-2.5-0.7-4h5.5
			c0,1.6,0.5,2.8,1.5,3.6c0.9,0.8,2.5,1.3,4.5,1.3s3.5-0.5,4.5-1.3c1-0.8,1.5-2,1.5-3.6c0-1.6-0.5-2.8-1.4-3.7
			c-0.9-0.9-2.5-1.4-4.6-1.4h-3.2v-4.6h3.2c1.8,0,3.2-0.4,4.2-1.2c0.9-0.8,1.4-2,1.4-3.4s-0.5-2.6-1.3-3.3c-0.9-0.7-2.3-1.1-4.2-1.1
			s-3.3,0.4-4.2,1.1c-0.9,0.7-1.4,1.9-1.4,3.3h-5.5c0-2.8,0.9-5.1,2.9-6.8c1.8-1.7,4.6-2.6,8.3-2.6c1.8,0,3.4,0.2,4.8,0.7
			c1.4,0.6,2.6,1.1,3.5,1.9s1.7,1.7,2.1,2.8c0.5,1,0.7,2.1,0.7,3.3c0,1.9-0.5,3.4-1.5,4.6c-1,1.3-2.3,2.1-4.1,2.7
			c1.8,0.6,3.3,1.5,4.4,2.8c1,1.3,1.6,3.1,1.6,5.3c0,1.3-0.3,2.5-0.7,3.7c-0.5,1.1-1.2,2.1-2.2,3c-0.9,0.8-2.2,1.5-3.6,2
			C586,84.2,584.4,84.4,582.5,84.4z"/>
		<path d="M597.8,79.1h7.6V57.3l-7.6,5.5V57l7.8-5.6h5.4v27.7h6.3V84h-19.4L597.8,79.1L597.8,79.1z"/>
		<path d="M625.9,66.8c-1.1,0-2.2-0.2-3.1-0.6c-0.9-0.4-1.8-0.9-2.4-1.6c-0.6-0.7-1.2-1.5-1.6-2.4c-0.4-0.9-0.6-2-0.6-3.2v-0.5
			c0-1.1,0.2-2.2,0.6-3.2c0.4-0.9,0.9-1.8,1.6-2.4c0.6-0.7,1.5-1.2,2.4-1.6c0.9-0.4,1.9-0.6,3.1-0.6c1.1,0,2.1,0.2,3,0.6
			c0.9,0.4,1.8,0.9,2.4,1.6c0.6,0.7,1.2,1.5,1.6,2.4s0.6,2,0.6,3.2v0.5c0,1.1-0.2,2.2-0.6,3.2c-0.4,0.9-0.9,1.8-1.6,2.4
			c-0.6,0.7-1.5,1.2-2.4,1.6C628,66.6,627,66.8,625.9,66.8z M644.8,51.4h5.5l-22.1,32.5h-5.5L644.8,51.4z M625.9,62.6
			c0.8,0,1.5-0.3,2-0.8c0.5-0.6,0.7-1.5,0.7-2.7v-0.5c0-1.2-0.3-2.1-0.7-2.7s-1.1-0.8-2-0.8c-0.9,0-1.5,0.3-2,0.8s-0.7,1.5-0.7,2.7
			v0.5c0,1.2,0.3,2.1,0.7,2.7C624.3,62.3,625.1,62.6,625.9,62.6z M647.1,84.4c-1.1,0-2.2-0.2-3.1-0.6s-1.8-0.9-2.4-1.6
			c-0.6-0.7-1.2-1.5-1.6-2.4s-0.6-2-0.6-3.2v-0.5c0-1.1,0.2-2.2,0.6-3.2c0.4-0.9,0.9-1.8,1.6-2.4c0.6-0.7,1.5-1.2,2.4-1.6
			c0.9-0.4,1.9-0.6,3.1-0.6c1.1,0,2.1,0.2,3,0.6c0.9,0.4,1.8,0.9,2.4,1.6c0.6,0.7,1.2,1.5,1.6,2.4c0.4,0.9,0.6,2,0.6,3.2v0.5
			c0,1.1-0.2,2.2-0.6,3.2s-0.9,1.8-1.6,2.4c-0.6,0.7-1.5,1.2-2.4,1.6C649.2,84.2,648.2,84.4,647.1,84.4z M647.1,80.2
			c0.8,0,1.5-0.3,2-0.8c0.5-0.6,0.7-1.5,0.7-2.7v-0.5c0-1.2-0.3-2.1-0.7-2.7c-0.5-0.6-1.1-0.8-2-0.8c-0.9,0-1.5,0.3-2,0.8
			c-0.5,0.6-0.7,1.5-0.7,2.7v0.5c0,1.2,0.3,2.1,0.7,2.7C645.5,79.9,646.3,80.2,647.1,80.2z"/>
		<path d="M667.9,59.3h4.7v4.2c0.3-0.7,0.6-1.2,1.1-1.8c0.5-0.6,1-1.1,1.6-1.5c0.6-0.5,1.3-0.7,1.9-1c0.7-0.3,1.5-0.4,2.2-0.4
			c2,0,3.6,0.5,4.8,1.3c1.1,0.8,1.9,2,2.3,3.3c0.7-1.4,1.7-2.5,3-3.3c1.3-0.8,2.8-1.3,4.4-1.3c2.6,0,4.5,0.7,5.9,2.2
			c1.4,1.5,2,3.9,2,7.1v15.8h-5.1V69.3c0-2.2-0.4-3.7-1.2-4.6c-0.8-0.9-1.9-1.4-3.3-1.4c-1.7,0-2.9,0.6-3.7,1.7
			c-0.8,1.1-1.2,2.6-1.2,4.4V84h-5.1V69.3c0-2.2-0.4-3.7-1.2-4.6c-0.8-0.9-1.9-1.4-3.3-1.4c-1.7,0-2.9,0.6-3.7,1.7
			c-0.8,1.1-1.2,2.6-1.2,4.4V84h-5.1L667.9,59.3L667.9,59.3z"/>
		<path d="M717.7,84.4c-1.7,0-3.2-0.3-4.7-0.8c-1.5-0.6-2.8-1.3-3.8-2.4c-1.1-1-1.9-2.3-2.6-3.9c-0.6-1.6-0.9-3.3-0.9-5.5v-0.9
			c0-2,0.3-3.7,0.9-5.2c0.6-1.5,1.5-2.8,2.6-3.8c1.1-1,2.3-1.9,3.8-2.3c1.5-0.6,3-0.7,4.7-0.7c1.7,0,3.2,0.3,4.7,0.7
			c1.5,0.6,2.8,1.3,3.8,2.3c1.1,1,1.9,2.3,2.6,3.8s0.9,3.3,0.9,5.2v0.9c0,2-0.3,3.9-0.9,5.5c-0.6,1.6-1.5,2.9-2.6,3.9
			s-2.3,1.9-3.8,2.4C720.9,84.2,719.3,84.4,717.7,84.4z M717.7,80c0.9,0,1.8-0.2,2.6-0.5c0.8-0.3,1.6-0.7,2.1-1.4
			c0.6-0.7,1.1-1.5,1.6-2.5c0.4-1,0.6-2.2,0.6-3.7V71c0-1.3-0.2-2.5-0.6-3.4c-0.4-0.9-0.9-1.8-1.6-2.3c-0.6-0.7-1.4-1.1-2.1-1.4
			c-0.8-0.3-1.7-0.5-2.6-0.5c-0.9,0-1.8,0.2-2.6,0.5c-0.8,0.3-1.6,0.7-2.1,1.4c-0.6,0.7-1.1,1.4-1.6,2.3c-0.4,0.9-0.6,2.1-0.6,3.4
			v0.9c0,1.5,0.2,2.7,0.6,3.7c0.4,1,0.9,1.9,1.6,2.5s1.4,1.1,2.1,1.4C715.9,79.8,716.8,80,717.7,80z"/>
		<path d="M733.5,59.3h4.7v4.2c0.5-1.3,1.3-2.3,2.4-3.3c1.1-0.9,2.5-1.4,4.2-1.4c0.7,0,1.4,0,1.8,0.1c0.4,0.1,0.6,0.1,0.8,0.2v4.6
			c-0.6-0.2-1-0.3-1.4-0.4c-0.5-0.1-0.9-0.1-1.6-0.1c-1,0-1.8,0.2-2.6,0.6s-1.3,0.8-1.8,1.4c-0.5,0.6-0.8,1.2-1,2
			c-0.2,0.7-0.4,1.6-0.4,2.3v14.4h-5.1L733.5,59.3L733.5,59.3z"/>
		<path d="M760.6,84.4c-1.7,0-3.1-0.3-4.6-0.7c-1.5-0.5-2.7-1.3-3.8-2.3s-1.9-2.3-2.6-3.9c-0.6-1.6-0.9-3.4-0.9-5.6V71
			c0-2,0.3-3.8,0.9-5.4c0.6-1.5,1.5-2.8,2.5-3.8c1.1-1,2.3-1.8,3.7-2.2c1.4-0.5,2.9-0.7,4.4-0.7c3.7,0,6.5,1,8.6,3
			c1.9,2,3,4.9,3,8.6V73h-17.9c0,1.3,0.3,2.3,0.6,3.3c0.4,0.8,0.9,1.6,1.5,2.1c0.6,0.6,1.4,0.9,2.2,1.2c0.8,0.3,1.7,0.4,2.5,0.4
			c1.8,0,3-0.3,3.9-0.8c0.8-0.6,1.4-1.3,1.7-2.1h5.1c-0.5,2.4-1.7,4.3-3.6,5.6C765.6,83.8,763.2,84.4,760.6,84.4z M760.3,63.3
			c-0.8,0-1.7,0.1-2.5,0.4c-0.8,0.2-1.5,0.6-2,1c-0.6,0.5-1.1,1.1-1.5,1.9c-0.4,0.7-0.6,1.7-0.6,2.8h12.8c0-1.1-0.2-2.1-0.6-2.9
			c-0.3-0.7-0.7-1.4-1.3-1.9c-0.6-0.5-1.2-0.8-1.9-1C762,63.4,761.1,63.3,760.3,63.3z"/>
	</g>
</g>
</svg>
