<?xml version="1.0" encoding="utf-8"?>
<!-- Generator: Adobe Illustrator 27.0.0, SVG Export Plug-In . SVG Version: 6.00 Build 0)  -->
<svg version="1.1" id="Layer_1" xmlns="http://www.w3.org/2000/svg" xmlns:xlink="http://www.w3.org/1999/xlink" x="0px" y="0px"
	 viewBox="0 0 1920 334" style="enable-background:new 0 0 1920 334;" xml:space="preserve">
<style type="text/css">
	.st0{fill:#F4DAFF;}
</style>
<g>
	<path class="st0" d="M165.8,0h1588.4c91.6,0,165.8,74.8,165.8,167l0,0c0,92.2-74.2,167-165.8,167H165.8C74.2,334,0,259.2,0,167l0,0
		C0,74.8,74.2,0,165.8,0z"/>
	<g>
		<path d="M119.1,119.2H132v31h36.4v-31h12.8v75.4h-12.8v-33.2H132v33.2h-12.8V119.2z"/>
		<path d="M212.2,195.9c-3,0-5.8-0.4-8.1-1.3c-2.4-0.9-4.5-2.2-6-3.9c-1.7-1.7-3-3.4-3.9-5.6c-0.9-2.2-1.3-4.5-1.3-7.1
			c0-5.6,1.7-9.9,5.1-12.7c3.4-2.8,8.3-4.1,14.8-4.1h17.5v-3.2c0-4.3-0.9-7.3-2.8-8.8c-1.9-1.7-4.9-2.4-9-2.4
			c-3.6,0-6.4,0.6-8.1,1.7c-1.7,1.1-2.8,2.8-3,4.7h-11.6c0.2-2.4,0.9-4.7,1.9-6.7c1.1-2.2,2.6-3.9,4.5-5.4c1.9-1.5,4.3-2.6,7.1-3.4
			c2.8-0.9,6-1.3,9.4-1.3s6.6,0.4,9.4,1.1c2.8,0.9,5.1,1.9,7.3,3.7c1.9,1.7,3.6,3.9,4.7,6.5s1.7,5.8,1.7,9.7v22.8c0,3,0,5.6,0,8
			c0,2.4,0.2,4.5,0.4,6.7h-10.7c-0.2-1.7-0.4-3-0.4-4.3c-0.2-1.1-0.2-2.6-0.2-4.3c-1.3,2.6-3.6,5-7.1,6.9
			C221.2,194.8,217.1,195.9,212.2,195.9z M215.4,185.5c1.9,0,3.9-0.2,5.8-0.9c1.9-0.4,3.4-1.3,4.7-2.4c1.3-1.1,2.4-2.4,3.2-3.9
			c0.9-1.5,1.3-3.2,1.3-5.4v-3.2H215c-3,0-5.3,0.6-7.3,1.9c-1.9,1.3-2.8,3.2-2.8,5.6c0,2.4,0.9,4.3,2.6,5.8
			C209.2,184.7,211.8,185.5,215.4,185.5z"/>
		<path d="M253.9,137.5h10.9v9.7c1.7-3.2,4.3-6,7.7-8c3.4-1.9,7.3-2.8,11.6-2.8c7.5,0,13.3,2.4,17.5,6.9c4.3,4.7,6.4,11.6,6.4,21.1
			v2.2c0,5-0.6,9.1-1.7,12.9c-1.1,3.7-2.8,6.7-4.9,9.1c-2.1,2.4-4.7,4.3-7.5,5.4c-3,1.3-6.2,1.7-9.8,1.7c-4.1,0-7.7-0.9-11.1-2.6
			c-3.4-1.7-5.8-4.3-7.3-7.5v30.6h-11.8V137.5z M281.3,185.5c4.5,0,7.9-1.5,10.7-4.7c2.8-3,4.1-7.8,4.1-14.2v-2.2
			c0-6-1.3-10.6-4.1-13.4c-2.6-3-6.2-4.3-10.7-4.3c-1.9,0-3.9,0.2-5.8,1.1c-1.9,0.6-3.4,1.5-4.9,2.8c-1.5,1.3-2.6,2.8-3.4,4.7
			c-0.9,1.9-1.3,4.1-1.3,6.5v7.5c0,2.8,0.4,5.2,1.3,7.1c0.9,1.9,1.9,3.7,3.4,5.2c1.5,1.3,3,2.4,4.9,3
			C277.2,185.1,279.1,185.5,281.3,185.5z"/>
		<path d="M317,137.5h10.9v9.7c1.7-3.2,4.3-6,7.7-8c3.4-1.9,7.3-2.8,11.6-2.8c7.5,0,13.3,2.4,17.5,6.9c4.3,4.7,6.4,11.6,6.4,21.1
			v2.2c0,5-0.6,9.1-1.7,12.9c-1.1,3.7-2.8,6.7-4.9,9.1c-2.1,2.4-4.7,4.3-7.5,5.4c-3,1.3-6.2,1.7-9.8,1.7c-4.1,0-7.7-0.9-11.1-2.6
			c-3.4-1.7-5.8-4.3-7.3-7.5v30.6H317V137.5z M344.4,185.5c4.5,0,7.9-1.5,10.7-4.7c2.8-3,4.1-7.8,4.1-14.2v-2.2
			c0-6-1.3-10.6-4.1-13.4c-2.6-3-6.2-4.3-10.7-4.3c-1.9,0-3.9,0.2-5.8,1.1c-1.9,0.6-3.4,1.5-4.9,2.8c-1.5,1.3-2.6,2.8-3.4,4.7
			c-0.9,1.9-1.3,4.1-1.3,6.5v7.5c0,2.8,0.4,5.2,1.3,7.1s1.9,3.7,3.4,5.2c1.5,1.3,3,2.4,4.9,3C340.3,185.1,342.2,185.5,344.4,185.5z"
			/>
		<path d="M387.2,217.4c-1.1,0-2.1,0-3.2-0.2v-10.3c1.1,0.2,2.1,0.4,3.2,0.4c1.3,0,2.1-0.2,3-0.6c0.9-0.4,1.5-1.1,2.4-1.9
			c0.6-1.1,1.3-2.2,1.9-3.9c0.6-1.5,1.5-3.7,2.4-6l-24-57.1h12.8l17.3,44.2l15.6-44.2h12l-21.8,57.1c-1.5,4.1-3,7.5-4.3,10.3
			c-1.3,2.8-2.8,5.2-4.5,7.1c-1.7,1.7-3.4,3.2-5.3,4.1C392.3,217,389.9,217.4,387.2,217.4z"/>
		<path d="M483.9,195.9c-3.9,0-7.5-0.6-10.7-1.7c-3.2-1.1-6-3-8.3-5.4c-2.4-2.4-4.3-5.4-5.6-9.1s-2.1-8-2.1-12.9v-2.2
			c0-4.5,0.6-8.6,2.1-12.1s3.4-6.5,5.8-8.8c2.4-2.4,5.3-4.1,8.6-5.4c3.2-1.1,6.6-1.7,10.3-1.7s7.1,0.4,9.8,1.5
			c3,1.1,5.3,2.4,7.5,4.1c1.9,1.7,3.6,3.9,4.9,6.2s1.9,5,2.4,7.5h-12c-0.6-2.6-1.9-4.7-3.9-6.5c-1.9-1.7-4.7-2.6-8.8-2.6
			c-1.9,0-3.9,0.4-5.6,1.1c-1.7,0.6-3.4,1.7-4.7,3.2c-1.3,1.5-2.4,3.2-3.2,5.6c-0.9,2.4-1.1,5-1.1,8v2.2c0,3.4,0.4,6.2,1.1,8.6
			c0.9,2.4,1.9,4.3,3.2,5.8s3,2.6,4.7,3.2c1.7,0.6,3.6,1.1,5.6,1.1c6.6,0,10.9-3,12.6-9.1h12c-0.6,3-1.5,5.8-3,8.2s-3.2,4.5-5.3,6
			s-4.5,3-7.3,3.9C490.1,195.4,487.1,195.9,483.9,195.9z"/>
		<path d="M536.9,195.9c-6.6,0-11.8-1.9-15.2-5.8s-5.1-9.9-5.1-17.9v-34.5h11.8v33.4c0,4.7,1.1,8.4,3,10.8c1.9,2.4,5.1,3.7,9.4,3.7
			c2.4,0,4.3-0.4,6-1.1c1.7-0.9,3-1.9,4.1-3.2c1.1-1.3,1.9-3,2.4-4.7c0.4-1.7,0.9-3.7,0.9-5.4v-33.6h11.8v57.1h-10.9v-9.7
			c-1.3,3-3.6,5.4-6.6,7.5C545.2,194.8,541.4,195.9,536.9,195.9z"/>
		<path d="M599.4,195.9c-4.3,0-7.7-0.4-10.7-1.3c-3-0.9-5.3-2.2-7.5-3.9c-1.9-1.5-3.4-3.4-4.5-5.6c-1.1-2.2-1.7-4.3-1.9-6.7h11.8
			c0.4,1.9,1.7,3.7,3.6,5c1.9,1.3,4.9,1.9,9.2,1.9c4.7,0,8.1-0.6,9.8-1.9c1.9-1.3,3-3,3-5c0-0.9-0.2-1.7-0.9-2.6
			c-0.4-0.9-1.3-1.5-2.4-2.4c-1.1-0.6-2.6-1.3-4.5-1.9c-1.9-0.6-4.3-1.1-6.8-1.3c-3.2-0.4-6.2-1.1-8.8-1.9c-2.6-0.9-4.9-1.9-6.6-3.2
			c-1.9-1.3-3.2-3-4.3-5c-1.1-1.9-1.5-4.3-1.5-6.9c0-2.4,0.4-4.5,1.3-6.5c0.9-2.2,2.4-3.9,4.3-5.4c1.9-1.5,4.3-2.8,7.3-3.7
			c3-0.9,6.2-1.3,10.1-1.3c3.6,0,6.8,0.4,9.6,1.3c2.8,0.9,4.9,2.2,6.8,3.9c1.9,1.5,3.2,3.4,4.3,5.6c1.1,2.2,1.5,4.3,1.9,6.7h-11.8
			c-0.6-2.2-1.7-3.9-3.4-5.2c-1.7-1.3-4.1-1.9-7.3-1.9c-4.3,0-7.1,0.6-8.8,1.9c-1.7,1.3-2.4,2.8-2.4,4.5c0,1.1,0.2,1.9,0.6,2.6
			c0.4,0.9,1.1,1.5,2.1,2.2s2.4,1.1,4.1,1.7c1.7,0.4,4.1,0.9,6.6,1.1c3.2,0.4,6.2,1.1,9,1.9s5.1,1.9,7.1,3.4
			c1.9,1.5,3.4,3.2,4.5,5.2s1.7,4.5,1.7,7.1c0,2.4-0.4,4.7-1.5,6.9c-1.1,2.2-2.6,3.9-4.5,5.4c-2.1,1.5-4.5,2.8-7.7,3.7
			C607.1,195.4,603.4,195.9,599.4,195.9z"/>
		<path d="M655,195.2c-6.4,0-11.1-1.5-13.9-4.3c-2.8-2.8-4.3-7.3-4.3-13.6v-29.7h-8.1v-10.1h8.1v-12.9h11.8v12.9h14.5v10.1h-14.5v28
			c0,3.4,0.6,5.8,1.9,7.1c1.3,1.3,3.6,1.9,7.3,1.9c2.1,0,4.3,0,6.4-0.4v10.1c-1.3,0.2-2.8,0.2-4.3,0.4
			C658.6,195,656.9,195.2,655,195.2z"/>
		<path d="M697.3,195.9c-3.9,0-7.5-0.6-10.9-1.9c-3.4-1.3-6.4-3-8.8-5.6c-2.6-2.4-4.5-5.4-6-9.1c-1.5-3.7-2.1-7.8-2.1-12.7v-2.2
			c0-4.5,0.6-8.6,2.1-12.1c1.5-3.4,3.4-6.5,6-8.8s5.3-4.3,8.8-5.4c3.4-1.3,7.1-1.7,10.9-1.7s7.5,0.6,10.9,1.7c3.4,1.3,6.4,3,8.8,5.4
			c2.6,2.4,4.5,5.4,6,8.8c1.5,3.4,2.1,7.5,2.1,12.1v2.2c0,4.7-0.6,9.1-2.1,12.7c-1.5,3.7-3.4,6.7-6,9.1c-2.6,2.4-5.3,4.3-8.8,5.6
			C704.8,195.2,701.2,195.9,697.3,195.9z M697.3,185.5c2.1,0,4.1-0.4,6-1.1c1.9-0.6,3.6-1.7,5.1-3.2c1.5-1.5,2.6-3.4,3.4-5.8
			s1.3-5.2,1.3-8.6v-2.2c0-3-0.4-5.8-1.3-8c-0.9-2.2-2.1-4.1-3.4-5.4c-1.5-1.5-3.2-2.6-5.1-3.2c-1.9-0.6-3.9-1.1-6-1.1
			s-4.1,0.4-6,1.1c-1.9,0.6-3.6,1.7-5.1,3.2c-1.5,1.5-2.6,3.2-3.4,5.4c-0.9,2.2-1.3,5-1.3,8v2.2c0,3.4,0.4,6.2,1.3,8.6
			s2.1,4.3,3.4,5.8c1.5,1.5,3.2,2.6,5.1,3.2C693.3,185.1,695.2,185.5,697.3,185.5z"/>
		<path d="M734.1,137.5H745v9.7c0.6-1.5,1.5-2.8,2.6-4.1c1.1-1.3,2.4-2.6,3.6-3.4s3-1.7,4.5-2.4c1.7-0.6,3.4-0.9,5.1-0.9
			c4.7,0,8.3,1.1,11.1,3c2.6,1.9,4.5,4.5,5.3,7.8c1.7-3.2,3.9-5.8,6.8-7.8c3-1.9,6.4-3,10.3-3c6,0,10.5,1.7,13.7,5.2
			s4.7,9.1,4.7,16.4v36.6h-11.8v-33.8c0-5.2-0.9-8.6-2.8-10.8c-1.9-2.2-4.5-3.2-7.7-3.2c-3.9,0-6.6,1.3-8.6,3.9
			c-1.9,2.6-2.8,6-2.8,10.1v34h-11.8v-34c0-5.2-0.9-8.6-2.8-10.8c-1.9-2.2-4.5-3.2-7.7-3.2c-3.9,0-6.6,1.3-8.6,3.9
			c-1.9,2.6-2.8,6-2.8,10.1v34h-11.8v-57.3H734.1z"/>
		<path d="M849.6,195.9c-3.9,0-7.3-0.6-10.7-1.7c-3.4-1.1-6.2-3-8.8-5.4c-2.6-2.4-4.5-5.4-6-9.1c-1.5-3.7-2.1-8-2.1-12.9v-2.2
			c0-4.7,0.6-8.8,2.1-12.5c1.5-3.4,3.4-6.5,5.8-8.8c2.6-2.4,5.3-4.1,8.6-5.2s6.6-1.7,10.3-1.7c8.6,0,15.2,2.4,19.9,6.9
			c4.5,4.7,6.8,11.4,6.8,20v6H834c0,3,0.6,5.4,1.5,7.5c0.9,1.9,2.1,3.7,3.4,5c1.5,1.3,3.2,2.2,5.1,2.8c1.9,0.6,3.9,0.9,5.8,0.9
			c4.1,0,7.1-0.6,9-1.9c1.9-1.3,3.2-3,3.9-5h11.8c-1.1,5.6-3.9,9.9-8.3,12.9C861.4,194.4,856,195.9,849.6,195.9z M849.2,146.7
			c-1.9,0-3.9,0.2-5.8,0.9c-1.9,0.4-3.4,1.3-4.7,2.4c-1.5,1.1-2.6,2.6-3.4,4.3s-1.3,3.9-1.5,6.5h29.7c0-2.6-0.4-5-1.3-6.7
			c-0.6-1.7-1.7-3.2-3-4.3c-1.3-1.1-2.8-1.9-4.5-2.4C853,147,851.1,146.7,849.2,146.7z"/>
		<path d="M884.5,137.5h10.9v9.7c1.1-3,3-5.4,5.6-7.5c2.6-2.2,5.8-3.2,9.6-3.2c1.7,0,3.2,0,4.1,0.2c0.9,0.2,1.5,0.2,1.9,0.4v10.8
			c-1.3-0.4-2.4-0.6-3.2-0.9c-1.1-0.2-2.1-0.2-3.6-0.2c-2.4,0-4.3,0.4-6,1.3c-1.7,0.9-3,1.9-4.1,3.2c-1.1,1.3-1.9,2.8-2.4,4.5
			c-0.4,1.7-0.9,3.7-0.9,5.4v33.4h-11.8v-57.1H884.5z"/>
		<path d="M944.8,195.9c-4.3,0-7.7-0.4-10.7-1.3s-5.3-2.2-7.3-3.9c-1.9-1.5-3.4-3.4-4.5-5.6c-1.1-2.2-1.7-4.3-1.9-6.7h11.8
			c0.4,1.9,1.7,3.7,3.6,5c1.9,1.3,4.9,1.9,9.2,1.9c4.7,0,8.1-0.6,10.1-1.9c1.9-1.3,2.8-3,2.8-5c0-0.9-0.2-1.7-0.6-2.6
			c-0.4-0.9-1.3-1.5-2.4-2.4c-1.1-0.6-2.6-1.3-4.5-1.9c-1.9-0.6-4.3-1.1-6.8-1.3c-3.2-0.4-6.2-1.1-8.8-1.9c-2.6-0.9-4.9-1.9-6.6-3.2
			c-1.9-1.3-3.2-3-4.3-5c-1.1-1.9-1.5-4.3-1.5-6.9c0-2.4,0.4-4.5,1.5-6.5c0.9-2.2,2.4-3.9,4.3-5.4c1.9-1.5,4.3-2.8,7.3-3.7
			c2.8-0.9,6.2-1.3,10.1-1.3c3.6,0,6.8,0.4,9.6,1.3c2.8,0.9,4.9,2.2,6.8,3.9c1.9,1.5,3.2,3.4,4.3,5.6c1.1,2.2,1.5,4.3,1.9,6.7h-11.8
			c-0.6-2.2-1.7-3.9-3.4-5.2c-1.7-1.3-4.1-1.9-7.3-1.9c-4.3,0-7.1,0.6-8.8,1.9c-1.7,1.3-2.6,2.8-2.6,4.5c0,1.1,0.2,1.9,0.6,2.6
			c0.4,0.9,1.1,1.5,2.1,2.2s2.4,1.1,4.1,1.7c1.7,0.4,4.1,0.9,6.6,1.1c3.2,0.4,6.2,1.1,9,1.9c2.8,0.9,5.1,1.9,7.1,3.4
			c1.9,1.5,3.4,3.2,4.5,5.2s1.7,4.5,1.7,7.1c0,2.4-0.4,4.7-1.5,6.9c-1.1,2.2-2.6,3.9-4.7,5.4c-2.1,1.5-4.7,2.8-7.7,3.7
			C952.5,195.4,948.9,195.9,944.8,195.9z"/>
		<path d="M1022.9,195.9c-4.3,0-7.7-0.4-10.7-1.3c-3-0.9-5.3-2.2-7.3-3.9c-1.9-1.5-3.4-3.4-4.5-5.6c-1.1-2.2-1.7-4.3-1.9-6.7h11.8
			c0.4,1.9,1.7,3.7,3.6,5c1.9,1.3,4.9,1.9,9.2,1.9c4.7,0,8.1-0.6,10.1-1.9c1.9-1.3,2.8-3,2.8-5c0-0.9-0.2-1.7-0.6-2.6
			c-0.4-0.9-1.3-1.5-2.4-2.4c-1.1-0.6-2.6-1.3-4.5-1.9c-1.9-0.6-4.3-1.1-6.8-1.3c-3.2-0.4-6.2-1.1-8.8-1.9s-4.9-1.9-6.6-3.2
			c-1.9-1.3-3.2-3-4.3-5c-1.1-1.9-1.5-4.3-1.5-6.9c0-2.4,0.4-4.5,1.5-6.5c0.9-2.2,2.4-3.9,4.3-5.4c1.9-1.5,4.3-2.8,7.3-3.7
			c2.8-0.9,6.2-1.3,10.1-1.3c3.6,0,6.8,0.4,9.6,1.3c2.8,0.9,4.9,2.2,6.8,3.9c1.9,1.5,3.2,3.4,4.3,5.6c1.1,2.2,1.5,4.3,1.9,6.7h-11.8
			c-0.6-2.2-1.7-3.9-3.4-5.2c-1.7-1.3-4.1-1.9-7.3-1.9c-4.3,0-7.1,0.6-8.8,1.9c-1.7,1.3-2.6,2.8-2.6,4.5c0,1.1,0.2,1.9,0.6,2.6
			c0.4,0.9,1.1,1.5,2.1,2.2s2.4,1.1,4.1,1.7c1.7,0.4,4.1,0.9,6.6,1.1c3.2,0.4,6.2,1.1,9,1.9c2.8,0.9,5.1,1.9,7.1,3.4
			c1.9,1.5,3.4,3.2,4.5,5.2c1.1,1.9,1.7,4.5,1.7,7.1c0,2.4-0.4,4.7-1.5,6.9c-1.1,2.2-2.6,3.9-4.7,5.4c-2.1,1.5-4.7,2.8-7.7,3.7
			C1030.6,195.4,1027,195.9,1022.9,195.9z"/>
		<path d="M1056.7,137.5h10.9v9.7c1.7-3.2,4.3-6,7.7-8c3.4-1.9,7.3-2.8,11.6-2.8c7.5,0,13.3,2.4,17.5,6.9c4.3,4.7,6.4,11.6,6.4,21.1
			v2.2c0,5-0.6,9.1-1.7,12.9c-1.1,3.7-2.8,6.7-4.9,9.1c-2.1,2.4-4.7,4.3-7.5,5.4c-3,1.3-6.2,1.7-9.8,1.7c-4.1,0-7.7-0.9-11.1-2.6
			c-3.4-1.7-5.8-4.3-7.1-7.5v30.6h-11.8v-78.7H1056.7z M1083.9,185.5c4.5,0,7.9-1.5,10.7-4.7c2.8-3,4.1-7.8,4.1-14.2v-2.2
			c0-6-1.3-10.6-4.1-13.4c-2.8-2.8-6.2-4.3-10.7-4.3c-1.9,0-3.9,0.2-5.8,1.1c-1.9,0.6-3.4,1.5-4.9,2.8c-1.5,1.3-2.6,2.8-3.4,4.7
			c-0.9,1.9-1.3,4.1-1.3,6.5v7.5c0,2.8,0.4,5.2,1.3,7.1c0.9,1.9,1.9,3.7,3.4,5.2c1.5,1.3,3,2.4,4.9,3
			C1079.8,185.1,1081.7,185.5,1083.9,185.5z"/>
		<path d="M1144.4,195.9c-3.9,0-7.3-0.6-10.7-1.7c-3.4-1.1-6.2-3-8.8-5.4c-2.6-2.4-4.5-5.4-6-9.1c-1.5-3.7-2.1-8-2.1-12.9v-2.2
			c0-4.7,0.6-8.8,2.1-12.5c1.5-3.4,3.4-6.5,5.8-8.8c2.6-2.4,5.3-4.1,8.6-5.2c3.2-1.1,6.6-1.7,10.3-1.7c8.6,0,15.2,2.4,19.9,6.9
			c4.5,4.7,6.8,11.4,6.8,20v6h-41.5c0,3,0.6,5.4,1.5,7.5c0.9,1.9,2.1,3.7,3.4,5c1.5,1.3,3.2,2.2,5.1,2.8c1.9,0.6,3.9,0.9,5.8,0.9
			c4.1,0,7.1-0.6,9-1.9c1.9-1.3,3.2-3,3.9-5h11.8c-1.1,5.6-3.9,9.9-8.3,12.9C1156.1,194.4,1150.6,195.9,1144.4,195.9z M1143.7,146.7
			c-1.9,0-3.9,0.2-5.8,0.9c-1.9,0.4-3.4,1.3-4.7,2.4c-1.5,1.1-2.6,2.6-3.4,4.3c-0.9,1.7-1.3,3.9-1.5,6.5h29.7c0-2.6-0.4-5-1.3-6.7
			c-0.6-1.7-1.7-3.2-3-4.3c-1.3-1.1-2.8-1.9-4.5-2.4C1147.6,147,1145.7,146.7,1143.7,146.7z"/>
		<path d="M1179,137.5h10.9v9.7c1.3-2.8,3.6-5.4,6.6-7.5c3-2.2,7.1-3.2,11.8-3.2c6.8,0,12.2,1.9,15.6,5.6c3.4,3.9,5.3,9.3,5.3,16.6
			v36.2h-11.8v-33.6c0-4.7-1.1-8.4-3-10.8s-5.3-3.7-9.8-3.7c-2.6,0-4.7,0.4-6.4,1.3c-1.7,0.9-3.2,1.9-4.3,3.2
			c-1.1,1.3-1.9,2.8-2.6,4.5c-0.4,1.7-0.9,3.7-0.9,5.4v33.4h-11.8v-57.1H1179z"/>
		<path d="M1261.8,195.9c-3.6,0-6.8-0.6-9.8-1.7c-3-1.1-5.3-3-7.5-5.4c-2.1-2.4-3.6-5.4-4.9-9.1c-1.3-3.7-1.7-8-1.7-12.9v-2.2
			c0-4.5,0.6-8.6,1.7-12.1c1.1-3.4,2.8-6.5,4.9-8.8c2.1-2.4,4.7-4.1,7.5-5.4c3-1.3,6.2-1.7,9.8-1.7c4.3,0,7.9,0.9,11.1,2.8
			c3.2,1.9,5.6,4.5,7.3,7.5v-27.8h11.8v75.4h-10.9v-9.7c-0.6,1.5-1.5,2.8-2.8,4.1c-1.3,1.3-2.6,2.4-4.3,3.4
			c-1.7,1.1-3.6,1.7-5.6,2.4C1266.3,195.4,1264.2,195.9,1261.8,195.9z M1264.6,185.5c2.1,0,4.1-0.4,6-1.1c1.9-0.6,3.6-1.7,4.9-3
			c1.3-1.3,2.6-3,3.4-5.2c0.9-1.9,1.3-4.3,1.3-7.1v-7.5c0-2.4-0.4-4.5-1.3-6.5c-0.9-1.9-1.9-3.4-3.4-4.7c-1.5-1.3-3.2-2.2-5.1-2.8
			s-3.9-1.1-5.8-1.1c-4.5,0-8.1,1.5-10.7,4.3c-2.6,3-4.1,7.3-4.1,13.4v2.2c0,6.2,1.3,11,4.1,14.2
			C1256.7,183.8,1260.1,185.5,1264.6,185.5z"/>
		<path d="M1350.8,195.9c-4.3,0-8.1-0.6-11.6-1.7c-3.2-1.1-6-2.6-8.3-4.7c-2.1-1.9-3.9-4.3-5.1-7.1s-1.7-5.8-1.7-9.3h12.8
			c0,3.7,1.1,6.5,3.4,8.4c2.1,1.9,5.8,3,10.5,3s8.1-1.1,10.5-3c2.4-1.9,3.4-4.7,3.4-8.4s-1.1-6.5-3.2-8.6c-2.1-2.2-5.8-3.2-10.7-3.2
			h-7.5v-10.8h7.5c4.3,0,7.5-0.9,9.6-2.8s3.2-4.5,3.2-8s-1.1-6-3-7.8c-2.1-1.7-5.3-2.6-9.8-2.6s-7.7,0.9-9.8,2.6
			c-2.1,1.7-3.2,4.3-3.2,7.5h-12.8c0-6.5,2.1-11.9,6.6-15.7c4.3-3.9,10.7-6,19.3-6c4.3,0,7.9,0.4,11.1,1.7c3.2,1.3,6,2.6,8.1,4.3
			s3.9,3.9,4.9,6.5c1.1,2.4,1.7,5,1.7,7.8c0,4.3-1.1,8-3.4,10.8c-2.4,3-5.3,5-9.4,6.2c4.3,1.3,7.7,3.4,10.3,6.5
			c2.4,3,3.6,7.1,3.6,12.3c0,3-0.6,5.8-1.7,8.6c-1.1,2.6-2.8,5-5.1,6.9c-2.1,1.9-5.1,3.4-8.3,4.5
			C1358.9,195.2,1355.1,195.9,1350.8,195.9z"/>
		<path d="M1386.1,183.4h17.5V133l-17.5,12.7v-13.4l18.2-12.9h12.4v64.2h14.5v11.2h-44.9v-11.4H1386.1z"/>
		<path d="M1451.3,154.9c-2.6,0-5.1-0.4-7.3-1.3s-4.1-2.2-5.6-3.7c-1.5-1.5-2.8-3.4-3.6-5.6c-0.9-2.2-1.3-4.5-1.3-7.3V136
			c0-2.6,0.4-5.2,1.3-7.3c0.9-2.2,2.1-4.1,3.6-5.6c1.5-1.5,3.4-2.8,5.6-3.7c2.1-0.9,4.5-1.3,7.3-1.3c2.6,0,4.9,0.4,7.1,1.3
			s4.1,2.2,5.6,3.7c1.5,1.5,2.8,3.4,3.6,5.6c0.9,2.2,1.3,4.5,1.3,7.3v1.1c0,2.6-0.4,5.2-1.3,7.3c-0.9,2.2-2.1,4.1-3.6,5.6
			c-1.5,1.5-3.4,2.8-5.6,3.7C1456.3,154.5,1453.9,154.9,1451.3,154.9z M1495.2,119.2h12.8l-51.3,75.4h-12.8L1495.2,119.2z
			 M1451.3,145.2c1.9,0,3.4-0.6,4.7-1.9c1.1-1.3,1.7-3.4,1.7-6.2V136c0-2.8-0.6-5-1.7-6.2c-1.1-1.3-2.6-1.9-4.7-1.9
			s-3.4,0.6-4.7,1.9c-1.3,1.3-1.7,3.4-1.7,6.2v1.1c0,2.8,0.6,5,1.7,6.2C1447.7,144.6,1449.4,145.2,1451.3,145.2z M1500.5,195.7
			c-2.6,0-5.1-0.4-7.3-1.3s-4.1-2.2-5.6-3.7c-1.5-1.5-2.8-3.4-3.6-5.6c-0.9-2.2-1.3-4.5-1.3-7.3v-1.1c0-2.6,0.4-5.2,1.3-7.3
			c0.9-2.2,2.1-4.1,3.6-5.6c1.5-1.5,3.4-2.8,5.6-3.7c2.1-0.9,4.5-1.3,7.3-1.3c2.6,0,4.9,0.4,7.1,1.3s4.1,2.2,5.6,3.7
			c1.5,1.5,2.8,3.4,3.6,5.6c0.9,2.2,1.3,4.5,1.3,7.3v1.1c0,2.6-0.4,5.2-1.3,7.3c-0.9,2.2-2.1,4.1-3.6,5.6c-1.5,1.5-3.4,2.8-5.6,3.7
			C1505.5,195.2,1503.1,195.7,1500.5,195.7z M1500.5,186c1.9,0,3.4-0.6,4.7-1.9c1.1-1.3,1.7-3.4,1.7-6.2v-1.1c0-2.8-0.6-5-1.7-6.2
			c-1.1-1.3-2.6-1.9-4.7-1.9s-3.4,0.6-4.7,1.9c-1.1,1.3-1.7,3.4-1.7,6.2v1.1c0,2.8,0.6,5,1.7,6.2
			C1496.9,185.3,1498.6,186,1500.5,186z"/>
		<path d="M1548.7,137.5h10.9v9.7c0.6-1.5,1.5-2.8,2.6-4.1c1.1-1.3,2.4-2.6,3.6-3.4c1.3-1.1,3-1.7,4.5-2.4c1.7-0.6,3.4-0.9,5.1-0.9
			c4.7,0,8.3,1.1,11.1,3c2.6,1.9,4.5,4.5,5.3,7.8c1.7-3.2,3.9-5.8,6.8-7.8c3-1.9,6.4-3,10.3-3c6,0,10.5,1.7,13.7,5.2
			c3.2,3.4,4.7,9.1,4.7,16.4v36.6h-11.8v-33.8c0-5.2-0.9-8.6-2.8-10.8c-1.9-2.2-4.5-3.2-7.7-3.2c-3.9,0-6.6,1.3-8.6,3.9
			c-1.9,2.6-2.8,6-2.8,10.1v34H1582v-34c0-5.2-0.9-8.6-2.8-10.8c-1.9-2.2-4.5-3.2-7.7-3.2c-3.9,0-6.6,1.3-8.6,3.9
			c-1.9,2.6-2.8,6-2.8,10.1v34h-11.8v-57.3H1548.7z"/>
		<path d="M1664.2,195.9c-3.9,0-7.5-0.6-10.9-1.9c-3.4-1.3-6.4-3-8.8-5.6c-2.6-2.4-4.5-5.4-6-9.1c-1.5-3.7-2.1-7.8-2.1-12.7v-2.2
			c0-4.5,0.6-8.6,2.1-12.1c1.5-3.4,3.4-6.5,6-8.8c2.6-2.4,5.3-4.3,8.8-5.4c3.4-1.3,7.1-1.7,10.9-1.7s7.5,0.6,10.9,1.7
			c3.4,1.3,6.4,3,8.8,5.4c2.6,2.4,4.5,5.4,6,8.8s2.1,7.5,2.1,12.1v2.2c0,4.7-0.6,9.1-2.1,12.7c-1.5,3.7-3.4,6.7-6,9.1
			s-5.3,4.3-8.8,5.6C1671.7,195.2,1668,195.9,1664.2,195.9z M1664.2,185.5c2.1,0,4.1-0.4,6-1.1c1.9-0.6,3.6-1.7,4.9-3.2
			c1.5-1.5,2.6-3.4,3.6-5.8c0.9-2.4,1.3-5.2,1.3-8.6v-2.2c0-3-0.4-5.8-1.3-8c-0.9-2.2-2.1-4.1-3.6-5.4c-1.5-1.5-3.2-2.6-4.9-3.2
			c-1.9-0.6-3.9-1.1-6-1.1s-4.1,0.4-6,1.1c-1.9,0.6-3.6,1.7-4.9,3.2c-1.5,1.5-2.6,3.2-3.6,5.4c-0.9,2.2-1.3,5-1.3,8v2.2
			c0,3.4,0.4,6.2,1.3,8.6s2.1,4.3,3.6,5.8c1.5,1.5,3.2,2.6,4.9,3.2C1660.1,185.1,1662,185.5,1664.2,185.5z"/>
		<path d="M1701,137.5h10.9v9.7c1.1-3,3-5.4,5.6-7.5c2.6-2.2,5.8-3.2,9.6-3.2c1.7,0,3.2,0,4.1,0.2c0.9,0.2,1.5,0.2,1.9,0.4v10.8
			c-1.3-0.4-2.4-0.6-3.2-0.9c-1.1-0.2-2.1-0.2-3.6-0.2c-2.4,0-4.3,0.4-6,1.3s-3,1.9-4.1,3.2c-1.1,1.3-1.9,2.8-2.4,4.5
			c-0.4,1.7-0.9,3.7-0.9,5.4v33.4h-11.8v-57.1H1701z"/>
		<path d="M1763.6,195.9c-3.9,0-7.3-0.6-10.7-1.7c-3.4-1.1-6.2-3-8.8-5.4c-2.6-2.4-4.5-5.4-6-9.1c-1.5-3.7-2.1-8-2.1-12.9v-2.2
			c0-4.7,0.6-8.8,2.1-12.5c1.5-3.4,3.4-6.5,5.8-8.8c2.6-2.4,5.3-4.1,8.6-5.2c3.2-1.1,6.6-1.7,10.3-1.7c8.6,0,15.2,2.4,19.9,6.9
			c4.5,4.7,6.8,11.4,6.8,20v6H1748c0,3,0.6,5.4,1.5,7.5c0.9,1.9,2.1,3.7,3.4,5c1.5,1.3,3.2,2.2,5.1,2.8c1.9,0.6,3.9,0.9,5.8,0.9
			c4.1,0,7.1-0.6,9-1.9c1.9-1.3,3.2-3,3.9-5h11.8c-1.1,5.6-3.9,9.9-8.3,12.9C1775.4,194.4,1769.8,195.9,1763.6,195.9z M1763,146.7
			c-1.9,0-3.9,0.2-5.8,0.9c-1.9,0.4-3.4,1.3-4.7,2.4c-1.5,1.1-2.6,2.6-3.4,4.3s-1.3,3.9-1.5,6.5h29.7c0-2.6-0.4-5-1.3-6.7
			c-0.6-1.7-1.7-3.2-3-4.3c-1.3-1.1-2.8-1.9-4.5-2.4C1766.8,147,1764.9,146.7,1763,146.7z"/>
	</g>
</g>
</svg>
