<?xml version="1.0" encoding="utf-8"?>
<!-- Generator: Adobe Illustrator 27.0.0, SVG Export Plug-In . SVG Version: 6.00 Build 0)  -->
<svg version="1.1" id="Layer_1" xmlns="http://www.w3.org/2000/svg" xmlns:xlink="http://www.w3.org/1999/xlink" x="0px" y="0px"
	 viewBox="0 0 1200 182" style="enable-background:new 0 0 1200 182;" xml:space="preserve">
<style type="text/css">
	.st0{fill:#F4F4B0;}
</style>
<g>
	<path class="st0" d="M90.9,0h1018.2c50.2,0,90.9,40.7,90.9,91l0,0c0,50.3-40.7,91-90.9,91H90.9C40.7,182,0,141.3,0,91l0,0
		C-0.1,40.8,40.7,0,90.9,0z"/>
	<g>
		<path d="M81,113.2c-3.6,0-6.7-0.8-9-2.3c-2.3-1.5-3.9-4.1-4.4-7.6h7.1c0.5,1.3,1.2,2.2,2.2,2.7c1.1,0.6,2.3,0.8,4.1,0.8
			c1.3,0,2.5-0.2,3.6-0.6c1.2-0.5,2.1-1.2,2.9-2.2c0.8-1.1,1.5-2.5,2.1-4.2c0.5-1.8,0.8-4,0.8-6.7c-0.5,0.8-1.2,1.6-2,2.2
			c-0.8,0.6-1.6,1.2-2.6,1.5C85,97.2,84,97.6,83,97.7c-1.1,0.2-2,0.2-2.9,0.2c-4.2,0-7.5-1.2-9.8-3.5c-2.3-2.3-3.5-5.6-3.5-9.8V84
			c0-2.1,0.4-4,1.1-5.6c0.7-1.8,1.8-3.2,3-4.4c1.3-1.3,2.8-2.2,4.7-2.8c1.8-0.7,3.7-1.1,5.7-1.1c2.5,0,4.7,0.4,6.7,1.2
			c2,0.7,3.6,1.9,4.9,3.5c1.4,1.5,2.3,3.6,3.2,6.1c0.7,2.5,1.1,5.4,1.1,8.8v1.2c0,4.1-0.5,7.5-1.3,10.3c-0.8,2.8-2,5.1-3.4,6.9
			c-1.4,1.8-3.2,3-5.1,3.9C85.4,112.8,83.3,113.2,81,113.2z M81.8,92.3c2.3,0,4.3-0.7,5.7-2.1c1.4-1.4,2.2-3.3,2.2-5.5v-0.6
			c0-1.1-0.2-2.1-0.6-3c-0.4-0.9-0.9-1.8-1.6-2.5c-0.7-0.7-1.5-1.3-2.5-1.6c-0.9-0.4-2-0.6-3.2-0.6c-2.3,0-4.3,0.7-5.7,2.1
			C74.8,79.9,74,81.8,74,84v0.6c0,2.2,0.7,4.1,2.2,5.5C77.5,91.6,79.3,92.3,81.8,92.3z"/>
		<path d="M120.6,103H100v-5.3l20.2-27h7.5v26.1h5v6.2h-5v9.5h-7.1C120.6,112.5,120.6,103,120.6,103z M120.6,96.8V79l-13.4,17.9
			C107.2,96.8,120.6,96.8,120.6,96.8z"/>
		<path d="M145.4,90.5c-1.5,0-2.8-0.2-4-0.7c-1.2-0.5-2.2-1.2-3.2-2c-0.8-0.8-1.5-1.9-2-3.2c-0.5-1.2-0.7-2.6-0.7-4v-0.6
			c0-1.5,0.2-2.8,0.7-4c0.5-1.2,1.2-2.2,2-3.2c0.8-0.8,1.9-1.5,3.2-2c1.2-0.5,2.6-0.7,4-0.7c1.5,0,2.8,0.2,4,0.7
			c1.2,0.5,2.2,1.2,3.2,2c0.8,0.8,1.5,1.9,2,3.2c0.5,1.2,0.7,2.6,0.7,4v0.6c0,1.5-0.2,2.8-0.7,4c-0.5,1.2-1.2,2.2-2,3.2
			c-0.8,0.8-1.9,1.5-3.2,2C148.2,90.3,146.9,90.5,145.4,90.5z M169.8,70.8h7.1l-28.6,41.8h-7.1L169.8,70.8z M145.4,85.2
			c1.1,0,1.9-0.4,2.6-1.1c0.6-0.7,0.9-1.9,0.9-3.5V80c0-1.6-0.4-2.7-0.9-3.5c-0.6-0.7-1.5-1.1-2.6-1.1c-1.1,0-1.9,0.4-2.6,1.1
			c-0.6,0.7-0.9,1.9-0.9,3.5v0.6c0,1.6,0.4,2.7,0.9,3.5C143.4,84.8,144.3,85.2,145.4,85.2z M172.8,113.1c-1.5,0-2.8-0.2-4-0.7
			c-1.2-0.5-2.2-1.2-3.2-2c-0.8-0.8-1.5-1.9-2-3.2c-0.5-1.2-0.7-2.6-0.7-4v-0.7c0-1.5,0.2-2.8,0.7-4c0.5-1.2,1.2-2.2,2-3.2
			c0.8-0.8,1.9-1.5,3.2-2c1.2-0.5,2.6-0.7,4-0.7c1.5,0,2.8,0.2,4,0.7s2.2,1.2,3.2,2c0.8,0.8,1.5,1.9,2,3.2c0.5,1.2,0.7,2.6,0.7,4
			v0.6c0,1.5-0.2,2.8-0.7,4c-0.5,1.2-1.2,2.2-2,3.2c-0.8,0.8-1.9,1.5-3.2,2C175.6,112.9,174.2,113.1,172.8,113.1z M172.8,107.7
			c1.1,0,1.9-0.4,2.6-1.1c0.6-0.7,0.9-1.9,0.9-3.5v-0.6c0-1.6-0.4-2.7-0.9-3.5c-0.6-0.7-1.5-1.1-2.6-1.1c-1.1,0-1.9,0.4-2.6,1.1
			c-0.6,0.7-0.9,1.9-0.9,3.5v0.6c0,1.6,0.4,2.7,0.9,3.5C170.8,107.4,171.7,107.7,172.8,107.7z"/>
		<path d="M208.8,113.2c-1.8,0-3.3-0.2-4.6-0.7c-1.3-0.5-2.5-1.2-3.4-2.1c-0.9-0.9-1.6-2-2.1-3.2c-0.5-1.2-0.7-2.5-0.7-4
			c0-3.2,0.9-5.5,2.8-7s4.6-2.3,8.2-2.3h9.8v-1.8c0-2.3-0.6-4-1.6-4.9c-1.1-0.9-2.7-1.3-5-1.3c-2,0-3.5,0.4-4.4,0.9
			c-0.9,0.6-1.5,1.5-1.6,2.6h-6.4c0.1-1.4,0.5-2.6,1.1-3.7c0.6-1.2,1.5-2.1,2.6-2.9c1.1-0.8,2.5-1.5,4-2c1.5-0.5,3.3-0.7,5.3-0.7
			c2,0,3.7,0.2,5.3,0.7c1.5,0.5,2.9,1.2,4,2.1c1.2,0.9,2,2.1,2.6,3.6c0.6,1.5,0.9,3.3,0.9,5.3v12.6c0,1.6,0,3.2,0.1,4.3
			c0,1.3,0.1,2.5,0.4,3.6h-6c-0.1-0.9-0.2-1.6-0.2-2.3c-0.1-0.6-0.1-1.4-0.1-2.3c-0.7,1.5-2.1,2.7-3.9,3.7
			C213.8,112.6,211.5,113.2,208.8,113.2z M210.6,107.5c1.2,0,2.2-0.1,3.2-0.5c1.1-0.4,1.9-0.7,2.7-1.3c0.7-0.6,1.4-1.3,1.9-2.1
			c0.5-0.8,0.7-1.9,0.7-2.9V99h-8.6c-1.6,0-3,0.4-4,1.1c-1.1,0.7-1.5,1.8-1.5,3.2c0,1.3,0.5,2.3,1.4,3.2
			C207.1,107,208.6,107.5,210.6,107.5z"/>
		<path d="M228.2,80.9h7.1l9.7,24.4l8.6-24.4h6.7l-12.3,31.6h-6.5L228.2,80.9z"/>
		<path d="M276.8,113.2c-2.2,0-4.2-0.4-6.1-1.1s-3.5-1.8-4.9-3c-1.4-1.4-2.5-3-3.3-5c-0.8-2-1.2-4.3-1.2-7v-1.2
			c0-2.5,0.4-4.7,1.2-6.7c0.8-1.9,1.9-3.5,3.3-4.9c1.4-1.3,3-2.3,4.9-3c1.9-0.7,4-1.1,6.1-1.1c2.2,0,4.2,0.4,6.1,1.1
			c1.9,0.7,3.5,1.6,4.9,3c1.4,1.3,2.5,2.9,3.3,4.9c0.8,1.9,1.2,4.1,1.2,6.7v1.2c0,2.7-0.4,5-1.2,7c-0.8,2-1.9,3.7-3.3,5
			c-1.4,1.4-3,2.3-4.9,3C281,112.9,278.9,113.2,276.8,113.2z M276.8,107.5c1.2,0,2.2-0.2,3.3-0.6c1.1-0.4,2-1.1,2.8-1.9
			s1.5-1.9,2-3.3c0.5-1.3,0.7-2.9,0.7-4.8v-1.2c0-1.8-0.2-3.2-0.7-4.4c-0.5-1.3-1.2-2.2-2-3c-0.8-0.8-1.8-1.4-2.8-1.8
			S278,86,276.8,86c-1.2,0-2.2,0.2-3.3,0.6c-1.1,0.4-2,0.9-2.8,1.8s-1.5,1.8-2,3c-0.5,1.3-0.7,2.7-0.7,4.4V97c0,1.9,0.2,3.5,0.7,4.8
			c0.5,1.3,1.2,2.3,2,3.3c0.8,0.8,1.8,1.4,2.8,1.9C274.5,107.3,275.7,107.5,276.8,107.5z"/>
		<path d="M301.3,77.3c-1.3,0-2.2-0.4-3-1.2c-0.8-0.8-1.2-1.8-1.2-3c0-1.3,0.4-2.2,1.2-3c0.8-0.8,1.8-1.2,3-1.2s2.2,0.4,3,1.2
			c0.8,0.8,1.2,1.8,1.2,3c0,1.3-0.4,2.2-1.2,3C303.5,77,302.4,77.3,301.3,77.3z M298,80.9h6.5v31.6H298V80.9z"/>
		<path d="M323.5,113.2c-2,0-3.9-0.4-5.5-1.1c-1.6-0.7-3-1.6-4.2-3c-1.2-1.3-2.1-3-2.7-5c-0.6-2-0.9-4.4-0.9-7.1v-1.2
			c0-2.6,0.4-4.8,0.9-6.7c0.6-1.9,1.5-3.5,2.7-4.9c1.2-1.4,2.6-2.3,4.2-3s3.4-1.1,5.4-1.1c2.3,0,4.4,0.6,6.2,1.6
			c1.8,1.1,3,2.5,4.1,4.1V70.6h6.5v41.8h-6.1v-5.1c-0.4,0.8-0.8,1.5-1.5,2.2c-0.7,0.7-1.5,1.4-2.5,1.9c-0.9,0.6-2,0.9-3.2,1.3
			C326,113,324.7,113.2,323.5,113.2z M325,107.5c1.2,0,2.2-0.2,3.3-0.6c1.1-0.4,2-0.9,2.8-1.6s1.4-1.6,1.9-2.8
			c0.5-1.2,0.7-2.5,0.7-4v-4.2c0-1.4-0.2-2.6-0.7-3.6c-0.5-1.1-1.2-1.9-2-2.6c-0.8-0.7-1.8-1.2-2.8-1.6c-1.1-0.4-2.1-0.6-3.3-0.6
			c-2.5,0-4.4,0.8-6,2.5c-1.5,1.6-2.2,4.1-2.2,7.5V97c0,3.5,0.7,6.1,2.2,7.8C320.7,106.6,322.5,107.5,325,107.5z"/>
		<path d="M376.7,113.2c-2.6,0-4.9-0.6-6.8-1.8c-1.9-1.2-3.2-2.6-4-4.2v5.3h-6.1V70.8h6.5V86c0.9-1.6,2.3-2.9,4.1-4.1
			c1.8-1.2,3.7-1.6,6.2-1.6c4.1,0,7.4,1.3,9.7,3.9c2.3,2.6,3.6,6.4,3.6,11.7V97c0,2.7-0.4,5-0.9,7.1c-0.6,2-1.5,3.7-2.7,5
			c-1.2,1.3-2.6,2.3-4.2,3C380.5,112.9,378.7,113.2,376.7,113.2z M375.1,107.5c2.5,0,4.4-0.8,5.8-2.6c1.5-1.8,2.2-4.3,2.2-7.8v-1.2
			c0-3.4-0.7-5.8-2.2-7.5c-1.5-1.6-3.5-2.5-6-2.5c-1.2,0-2.2,0.2-3.3,0.6c-1.1,0.4-2,0.9-2.8,1.6c-0.8,0.7-1.4,1.5-2,2.6
			c-0.5,1.1-0.7,2.2-0.7,3.6v4.2c0,1.5,0.2,2.8,0.7,4c0.5,1.2,1.2,2.1,1.9,2.8c0.8,0.7,1.8,1.3,2.8,1.6
			C372.9,107.3,374.1,107.5,375.1,107.5z"/>
		<path d="M406.1,113.2c-3.7,0-6.5-1.1-8.4-3.3s-2.8-5.5-2.8-9.9V80.9h6.5v18.5c0,2.7,0.6,4.7,1.6,6.1c1.1,1.4,2.8,2,5.3,2
			c1.3,0,2.5-0.2,3.4-0.7c0.9-0.5,1.8-1.1,2.3-1.8s1.1-1.6,1.3-2.6c0.4-0.9,0.5-2,0.5-3V80.9h6.5v31.6h-6.1v-5.4
			c-0.7,1.6-2,3-3.6,4.2C410.8,112.5,408.6,113.2,406.1,113.2z"/>
		<path d="M441,113.2c-2.3,0-4.3-0.2-6-0.8c-1.6-0.5-3-1.2-4.1-2.1c-1.1-0.8-1.9-1.9-2.5-3c-0.6-1.2-0.9-2.3-1.1-3.6h6.5
			c0.2,1.2,0.9,2,2,2.8s2.8,1.1,5.1,1.1c2.6,0,4.4-0.4,5.5-1.1c1.1-0.7,1.6-1.6,1.6-2.8c0-0.5-0.1-1.1-0.5-1.4
			c-0.2-0.5-0.7-0.8-1.3-1.3c-0.6-0.4-1.4-0.7-2.5-1.1c-1.1-0.4-2.3-0.6-3.9-0.8c-1.8-0.2-3.4-0.6-4.9-1.1c-1.5-0.5-2.7-1.1-3.7-1.9
			c-1.1-0.7-1.9-1.6-2.3-2.7c-0.6-1.1-0.8-2.3-0.8-3.9c0-1.3,0.2-2.5,0.8-3.6s1.3-2.1,2.3-2.9s2.5-1.5,4-2c1.6-0.5,3.5-0.7,5.6-0.7
			c2.1,0,3.9,0.2,5.4,0.8c1.5,0.5,2.8,1.2,3.7,2.1c1.1,0.8,1.8,1.9,2.3,3c0.6,1.2,0.9,2.3,1.1,3.6h-6.5c-0.4-1.3-0.9-2.2-2-2.8
			c-0.9-0.7-2.3-1.1-4-1.1c-2.3,0-4,0.4-4.9,1.1c-0.9,0.7-1.4,1.5-1.4,2.5c0,0.6,0.1,1.1,0.4,1.5c0.2,0.5,0.6,0.8,1.2,1.2
			c0.6,0.4,1.3,0.7,2.3,0.9c0.9,0.2,2.2,0.5,3.7,0.7c1.9,0.2,3.5,0.6,5,1.1c1.5,0.5,2.8,1.1,4,1.9c1.1,0.8,2,1.8,2.6,2.8
			c0.6,1.2,0.9,2.5,0.9,4c0,1.4-0.2,2.6-0.8,3.7c-0.6,1.2-1.4,2.2-2.6,3c-1.2,0.8-2.6,1.5-4.3,2C445.5,112.9,443.2,113.2,441,113.2z
			"/>
		<path d="M463.6,77.3c-1.3,0-2.2-0.4-3-1.2c-0.8-0.8-1.2-1.8-1.2-3c0-1.3,0.4-2.2,1.2-3c0.8-0.8,1.8-1.2,3-1.2s2.2,0.4,3,1.2
			c0.8,0.8,1.2,1.8,1.2,3c0,1.3-0.4,2.2-1.2,3C465.8,77,464.9,77.3,463.6,77.3z M460.3,80.9h6.5v31.6h-6.5V80.9z"/>
		<path d="M474.3,80.9h6.1v5.3c0.7-1.6,2-2.9,3.7-4.2c1.8-1.3,3.9-1.8,6.7-1.8c3.9,0,6.8,1.1,8.6,3.2c2,2.1,2.9,5.1,2.9,9.1v20h-6.5
			V94c0-2.7-0.6-4.7-1.6-6.1c-1.2-1.4-2.9-2-5.5-2c-1.4,0-2.6,0.2-3.5,0.7c-0.9,0.5-1.8,1.1-2.3,1.8c-0.6,0.7-1.1,1.6-1.4,2.6
			c-0.4,0.9-0.5,2-0.5,3v18.5h-6.5V80.9H474.3z"/>
		<path d="M522.6,113.2c-2.1,0-4.1-0.4-6-0.9c-1.9-0.7-3.5-1.6-4.9-2.9c-1.4-1.3-2.6-3-3.4-5c-0.8-2-1.3-4.4-1.3-7.1V96
			c0-2.6,0.4-4.9,1.2-6.9c0.8-2,1.9-3.6,3.3-4.9c1.4-1.3,2.9-2.2,4.8-2.9c1.8-0.6,3.7-0.9,5.7-0.9c4.8,0,8.5,1.3,11.1,3.9
			s3.9,6.3,3.9,11.1v3.4h-23.1c0,1.6,0.4,3,0.8,4.1c0.5,1.2,1.2,2.1,2,2.7c0.8,0.7,1.8,1.2,2.8,1.5c1.1,0.4,2.1,0.5,3.3,0.5
			c2.2,0,4-0.4,5-1.1s1.8-1.6,2.2-2.8h6.5c-0.6,3.2-2.2,5.5-4.7,7.1C529.1,112.4,526.1,113.2,522.6,113.2z M522.3,86
			c-1.2,0-2.2,0.1-3.2,0.5c-1.1,0.2-1.9,0.7-2.7,1.3c-0.8,0.6-1.4,1.4-1.9,2.3c-0.5,0.9-0.7,2.1-0.8,3.5h16.6c0-1.5-0.2-2.7-0.7-3.7
			c-0.5-0.9-0.9-1.8-1.8-2.3c-0.7-0.6-1.5-1.1-2.6-1.3C524.5,86.1,523.4,86,522.3,86z"/>
		<path d="M553.9,113.2c-2.3,0-4.3-0.2-6-0.8c-1.6-0.5-3-1.2-4.1-2.1c-1.1-0.8-2-1.9-2.5-3c-0.6-1.2-0.9-2.3-1.1-3.6h6.5
			c0.2,1.2,0.9,2,2,2.8s2.8,1.1,5.1,1.1c2.6,0,4.4-0.4,5.5-1.1c1.1-0.7,1.6-1.6,1.6-2.8c0-0.5-0.1-1.1-0.5-1.4
			c-0.2-0.5-0.7-0.8-1.3-1.3c-0.6-0.4-1.4-0.7-2.5-1.1c-1.1-0.4-2.3-0.6-3.9-0.8c-1.8-0.2-3.4-0.6-4.9-1.1c-1.5-0.5-2.7-1.1-3.7-1.9
			c-1.1-0.8-1.9-1.6-2.3-2.7s-0.8-2.3-0.8-3.9c0-1.3,0.2-2.5,0.8-3.6c0.5-1.2,1.3-2.1,2.3-2.9s2.5-1.5,4-2c1.6-0.5,3.5-0.7,5.6-0.7
			c2.1,0,3.9,0.2,5.4,0.8c1.5,0.5,2.8,1.2,3.7,2.1c1.1,0.8,1.8,1.9,2.3,3c0.6,1.2,0.9,2.3,1.1,3.6H560c-0.4-1.3-0.9-2.2-2-2.8
			c-0.9-0.7-2.3-1.1-4-1.1c-2.3,0-4,0.4-4.9,1.1c-0.9,0.7-1.4,1.5-1.4,2.5c0,0.6,0.1,1.1,0.4,1.5c0.2,0.5,0.6,0.8,1.2,1.2
			c0.6,0.4,1.3,0.7,2.3,0.9c0.9,0.2,2.2,0.5,3.7,0.7c1.9,0.2,3.5,0.6,5,1.1s2.8,1.1,4,1.9c1.1,0.8,2,1.8,2.6,2.8
			c0.6,1.2,0.9,2.5,0.9,4c0,1.4-0.2,2.6-0.8,3.7c-0.6,1.2-1.4,2.2-2.6,3c-1.2,0.8-2.6,1.5-4.3,2
			C558.1,112.9,556.1,113.2,553.9,113.2z"/>
		<path d="M584.6,113.2c-2.3,0-4.3-0.2-6-0.8c-1.6-0.5-3-1.2-4.1-2.1c-1.1-0.8-2-1.9-2.5-3c-0.6-1.2-0.9-2.3-1.1-3.6h6.5
			c0.2,1.2,0.9,2,2,2.8c1.1,0.8,2.8,1.1,5.1,1.1c2.6,0,4.4-0.4,5.5-1.1c1.1-0.7,1.6-1.6,1.6-2.8c0-0.5-0.1-1.1-0.5-1.4
			c-0.2-0.5-0.7-0.8-1.3-1.3c-0.6-0.4-1.4-0.7-2.5-1.1c-1.1-0.4-2.3-0.6-3.9-0.8c-1.8-0.2-3.4-0.6-4.9-1.1c-1.5-0.5-2.7-1.1-3.7-1.9
			c-1.1-0.8-1.9-1.6-2.3-2.7c-0.5-1.1-0.8-2.3-0.8-3.9c0-1.3,0.2-2.5,0.8-3.6c0.5-1.2,1.3-2.1,2.3-2.9s2.5-1.5,4-2
			c1.6-0.5,3.5-0.7,5.6-0.7c2.1,0,3.9,0.2,5.4,0.8c1.5,0.5,2.8,1.2,3.7,2.1c1.1,0.8,1.8,1.9,2.3,3c0.6,1.2,0.9,2.3,1.1,3.6h-6.5
			c-0.4-1.3-0.9-2.2-2-2.8c-0.9-0.7-2.3-1.1-4-1.1c-2.3,0-4,0.4-4.9,1.1s-1.4,1.5-1.4,2.5c0,0.6,0.1,1.1,0.4,1.5
			c0.2,0.5,0.6,0.8,1.2,1.2c0.6,0.4,1.3,0.7,2.3,0.9c0.9,0.2,2.2,0.5,3.7,0.7c1.9,0.2,3.5,0.6,5,1.1s2.8,1.1,4,1.9
			c1.1,0.8,2,1.8,2.6,2.8c0.6,1.2,0.9,2.5,0.9,4c0,1.4-0.2,2.6-0.8,3.7c-0.6,1.2-1.4,2.2-2.6,3c-1.2,0.8-2.6,1.5-4.3,2
			C588.8,112.9,586.9,113.2,584.6,113.2z"/>
		<path d="M617.1,113.2c-2.1,0-4.1-0.4-6-0.9c-1.9-0.7-3.5-1.6-4.9-2.9c-1.4-1.3-2.6-3-3.4-5c-0.8-2-1.3-4.4-1.3-7.1V96
			c0-2.6,0.4-4.9,1.2-6.9c0.8-2,1.9-3.6,3.3-4.9s2.9-2.2,4.8-2.9c1.8-0.6,3.7-0.9,5.7-0.9c4.8,0,8.5,1.3,11.1,3.9s3.9,6.3,3.9,11.1
			v3.4h-23.1c0,1.6,0.4,3,0.8,4.1c0.5,1.2,1.2,2.1,2,2.7c0.8,0.7,1.8,1.2,2.8,1.5c1.1,0.4,2.1,0.5,3.3,0.5c2.2,0,4-0.4,5-1.1
			s1.8-1.6,2.2-2.8h6.5c-0.6,3.2-2.2,5.5-4.7,7.1C623.7,112.4,620.6,113.2,617.1,113.2z M616.8,86c-1.2,0-2.2,0.1-3.2,0.5
			c-1.1,0.2-1.9,0.7-2.7,1.3c-0.8,0.6-1.4,1.4-1.9,2.3c-0.5,0.9-0.7,2.1-0.8,3.5h16.6c0-1.5-0.2-2.7-0.7-3.7
			c-0.5-0.9-0.9-1.8-1.8-2.3c-0.7-0.6-1.5-1.1-2.6-1.3C618.9,86.1,617.9,86,616.8,86z"/>
		<path d="M648.3,113.2c-2.3,0-4.3-0.2-6-0.8c-1.6-0.5-3-1.2-4.1-2.1c-1.1-0.8-2-1.9-2.5-3c-0.6-1.2-0.9-2.3-1.1-3.6h6.5
			c0.2,1.2,0.9,2,2,2.8c1.1,0.8,2.8,1.1,5.1,1.1c2.6,0,4.4-0.4,5.5-1.1c1.1-0.7,1.6-1.6,1.6-2.8c0-0.5-0.1-1.1-0.5-1.4
			c-0.2-0.5-0.7-0.8-1.3-1.3c-0.6-0.4-1.4-0.7-2.5-1.1c-1.1-0.4-2.3-0.6-3.9-0.8c-1.8-0.2-3.4-0.6-4.9-1.1c-1.5-0.5-2.7-1.1-3.7-1.9
			c-1.1-0.8-1.9-1.6-2.3-2.7s-0.8-2.3-0.8-3.9c0-1.3,0.2-2.5,0.8-3.6c0.5-1.2,1.3-2.1,2.3-2.9c1.1-0.8,2.5-1.5,4-2
			c1.6-0.5,3.5-0.7,5.6-0.7c2.1,0,3.9,0.2,5.4,0.8c1.5,0.5,2.8,1.2,3.7,2.1c1.1,0.8,1.8,1.9,2.3,3c0.6,1.2,0.9,2.3,1.1,3.6h-6.5
			c-0.4-1.3-0.9-2.2-2-2.8c-0.9-0.7-2.3-1.1-4-1.1c-2.3,0-4,0.4-4.9,1.1c-0.9,0.7-1.4,1.5-1.4,2.5c0,0.6,0.1,1.1,0.4,1.5
			c0.2,0.5,0.6,0.8,1.2,1.2c0.6,0.4,1.3,0.7,2.3,0.9c0.9,0.2,2.2,0.5,3.7,0.7c1.9,0.2,3.5,0.6,5,1.1s2.8,1.1,4,1.9
			c1.1,0.8,2,1.8,2.6,2.8c0.6,1.2,0.9,2.5,0.9,4c0,1.4-0.2,2.6-0.8,3.7c-0.6,1.2-1.4,2.2-2.6,3s-2.6,1.5-4.3,2
			C652.6,112.9,650.7,113.2,648.3,113.2z"/>
		<path d="M677.5,80.9h6.9l5.7,23.3l7.2-23.3h6l7.7,23.3l5.7-23.3h6.4l-8.6,31.6H708l-7.8-23.3l-7.6,23.3h-6.5L677.5,80.9z"/>
		<path d="M731.8,77.3c-1.3,0-2.2-0.4-3-1.2s-1.2-1.8-1.2-3c0-1.3,0.4-2.2,1.2-3c0.8-0.8,1.8-1.2,3-1.2s2.2,0.4,3,1.2
			c0.8,0.8,1.2,1.8,1.2,3c0,1.3-0.4,2.2-1.2,3C734,77,733,77.3,731.8,77.3z M728.5,80.9h6.5v31.6h-6.5V80.9z"/>
		<path d="M754.8,112.8c-3.6,0-6.2-0.8-7.8-2.3c-1.5-1.5-2.3-4.1-2.3-7.5V86.6h-4.4v-5.6h4.4v-7.1h6.5v7.1h8.1v5.6h-8.1v15.6
			c0,1.9,0.4,3.2,1.1,3.9c0.7,0.7,2,1.1,4,1.1c1.2,0,2.3-0.1,3.6-0.2v5.6c-0.7,0.1-1.5,0.1-2.3,0.2
			C756.6,112.8,755.7,112.8,754.8,112.8z"/>
		<path d="M764.8,70.8h6.5V86c0.4-0.7,0.8-1.4,1.4-2.1c0.6-0.7,1.3-1.3,2.1-1.9c0.8-0.5,1.8-0.9,2.8-1.3c1.1-0.4,2.2-0.5,3.6-0.5
			c3.9,0,6.8,1.1,8.6,3.2c2,2.1,2.9,5.1,2.9,9.1v20h-6.5V94c0-2.7-0.6-4.7-1.6-6.1c-1.2-1.4-2.9-2-5.5-2c-1.4,0-2.6,0.2-3.5,0.7
			c-0.9,0.5-1.8,1.1-2.3,1.8s-1.1,1.6-1.4,2.6c-0.4,0.9-0.5,2-0.5,3v18.5h-6.5V70.8H764.8z"/>
		<path d="M829.1,113.2c-2.6,0-4.9-0.6-6.8-1.8c-1.9-1.2-3.2-2.6-4-4.2v5.3h-6.1V70.8h6.5V86c0.9-1.6,2.3-2.9,4.1-4.1
			c1.8-1.1,3.7-1.6,6.2-1.6c4.1,0,7.4,1.3,9.7,3.9c2.3,2.6,3.6,6.4,3.6,11.7V97c0,2.7-0.4,5-0.9,7.1c-0.6,2-1.5,3.7-2.7,5
			c-1.2,1.3-2.6,2.3-4.2,3C832.8,112.9,831.1,113.2,829.1,113.2z M827.5,107.5c2.5,0,4.4-0.8,5.8-2.6c1.5-1.8,2.2-4.3,2.2-7.8v-1.2
			c0-3.4-0.7-5.8-2.2-7.5c-1.5-1.6-3.5-2.5-6-2.5c-1.2,0-2.2,0.2-3.3,0.6c-1.1,0.4-2,0.9-2.8,1.6s-1.4,1.5-2,2.6
			c-0.5,1.1-0.7,2.2-0.7,3.6v4.2c0,1.5,0.2,2.8,0.7,4c0.5,1.2,1.2,2.1,1.9,2.8c0.8,0.7,1.8,1.3,2.8,1.6
			C825.2,107.3,826.3,107.5,827.5,107.5z"/>
		<path d="M856.7,113.2c-1.8,0-3.3-0.2-4.6-0.7c-1.3-0.5-2.5-1.2-3.4-2.1c-0.9-0.9-1.6-2-2.1-3.2c-0.5-1.2-0.7-2.5-0.7-4
			c0-3.2,0.9-5.5,2.8-7c1.9-1.5,4.6-2.3,8.2-2.3h9.8v-1.8c0-2.3-0.6-4-1.6-4.9c-1.1-0.9-2.7-1.3-5-1.3c-2,0-3.5,0.4-4.4,0.9
			s-1.5,1.5-1.6,2.6h-6.4c0.1-1.4,0.5-2.6,1.1-3.7c0.6-1.2,1.5-2.1,2.6-2.9c1.1-0.8,2.5-1.5,4-2c1.5-0.5,3.3-0.7,5.3-0.7
			c2,0,3.7,0.2,5.3,0.7c1.5,0.5,2.9,1.2,4,2.1c1.2,0.9,2,2.1,2.6,3.6c0.6,1.5,0.9,3.3,0.9,5.3v12.6c0,1.6,0,3.2,0.1,4.3
			c0,1.3,0.1,2.5,0.4,3.6h-6c-0.1-0.9-0.2-1.6-0.2-2.3c-0.1-0.6-0.1-1.4-0.1-2.3c-0.7,1.5-2.1,2.7-3.9,3.7
			C861.6,112.6,859.4,113.2,856.7,113.2z M858.4,107.5c1.2,0,2.2-0.1,3.2-0.5c0.9-0.4,1.9-0.7,2.7-1.3c0.7-0.6,1.4-1.3,1.9-2.1
			c0.5-0.8,0.7-1.9,0.7-2.9V99h-8.6c-1.6,0-3,0.4-4,1.1c-1.1,0.7-1.5,1.8-1.5,3.2c0,1.3,0.5,2.3,1.4,3.2
			C854.9,107,856.4,107.5,858.4,107.5z"/>
		<path d="M891.5,113.2c-2,0-3.9-0.4-5.5-1.1c-1.6-0.7-3-1.6-4.2-3c-1.2-1.3-2.1-3-2.7-5c-0.6-2-0.9-4.4-0.9-7.1v-1.2
			c0-2.6,0.4-4.8,0.9-6.7c0.6-1.9,1.5-3.5,2.7-4.9c1.2-1.3,2.6-2.3,4.2-3c1.6-0.7,3.4-1.1,5.4-1.1c2.3,0,4.4,0.6,6.2,1.6
			c1.8,1.1,3,2.5,4.1,4.1V70.6h6.5v41.8h-6.1v-5.1c-0.4,0.8-0.8,1.5-1.5,2.2s-1.5,1.4-2.5,1.9c-0.9,0.6-2,0.9-3.2,1.3
			C894,113,892.7,113.2,891.5,113.2z M892.9,107.5c1.2,0,2.2-0.2,3.3-0.6c1.1-0.4,2-0.9,2.8-1.6s1.4-1.6,1.9-2.8
			c0.5-1.2,0.7-2.5,0.7-4v-4.2c0-1.4-0.2-2.6-0.7-3.6c-0.5-1.1-1.2-1.9-2-2.6c-0.8-0.7-1.8-1.2-2.8-1.6c-1.1-0.4-2.1-0.6-3.3-0.6
			c-2.5,0-4.4,0.8-6,2.5c-1.5,1.6-2.2,4.1-2.2,7.5V97c0,3.5,0.7,6.1,2.2,7.8C888.6,106.6,890.6,107.5,892.9,107.5z"/>
		<path d="M927.8,80.9h6.1v5.4c0.6-1.6,1.6-3,3.2-4.2c1.5-1.2,3.3-1.8,5.4-1.8c0.9,0,1.8,0,2.2,0.1s0.8,0.1,1.1,0.2v6
			c-0.7-0.2-1.3-0.4-1.9-0.5c-0.6-0.1-1.3-0.1-2-0.1c-1.3,0-2.5,0.2-3.4,0.7c-0.9,0.5-1.8,1.1-2.3,1.8s-1.1,1.6-1.3,2.6
			c-0.4,0.9-0.5,2-0.5,3v18.5h-6.5L927.8,80.9L927.8,80.9z"/>
		<path d="M962.7,113.2c-2.1,0-4.1-0.4-6-0.9c-1.9-0.7-3.5-1.6-4.9-2.9c-1.4-1.3-2.6-3-3.4-5c-0.8-2-1.3-4.4-1.3-7.1V96
			c0-2.6,0.4-4.9,1.2-6.9c0.8-2,1.9-3.6,3.3-4.9c1.4-1.3,2.9-2.2,4.8-2.9c1.8-0.6,3.7-0.9,5.7-0.9c4.8,0,8.5,1.3,11.1,3.9
			c2.6,2.6,3.9,6.3,3.9,11.1v3.4h-23.1c0,1.6,0.4,3,0.8,4.1c0.5,1.2,1.2,2.1,2,2.7c0.8,0.7,1.8,1.2,2.8,1.5c1.1,0.4,2.1,0.5,3.3,0.5
			c2.2,0,4-0.4,5-1.1c1.1-0.7,1.8-1.6,2.2-2.8h6.5c-0.6,3.2-2.2,5.5-4.7,7.1C969.3,112.4,966.3,113.2,962.7,113.2z M962.4,86
			c-1.2,0-2.2,0.1-3.2,0.5c-1.1,0.2-1.9,0.7-2.7,1.3c-0.8,0.6-1.4,1.4-1.9,2.3c-0.5,0.9-0.7,2.1-0.8,3.5h16.6c0-1.5-0.2-2.7-0.7-3.7
			c-0.5-0.9-0.9-1.8-1.8-2.3c-0.7-0.6-1.5-1.1-2.6-1.3C964.5,86.1,963.5,86,962.4,86z"/>
		<path d="M978,80.9h7.1l9.7,24.4l8.6-24.4h6.7l-12.3,31.6h-6.5L978,80.9z"/>
		<path d="M1017.8,77.3c-1.3,0-2.2-0.4-3-1.2s-1.2-1.8-1.2-3c0-1.3,0.4-2.2,1.2-3c0.8-0.8,1.8-1.2,3-1.2s2.2,0.4,3,1.2
			c0.8,0.8,1.2,1.8,1.2,3c0,1.3-0.4,2.2-1.2,3C1020,77,1019.1,77.3,1017.8,77.3z M1014.5,80.9h6.5v31.6h-6.5V80.9z"/>
		<path d="M1042.2,113.2c-2.1,0-4.1-0.4-6-0.9c-1.9-0.7-3.5-1.6-4.9-2.9c-1.4-1.3-2.6-3-3.4-5c-0.8-2-1.3-4.4-1.3-7.1V96
			c0-2.6,0.4-4.9,1.2-6.9c0.8-2,1.9-3.6,3.3-4.9c1.4-1.3,2.9-2.2,4.8-2.9c1.8-0.6,3.7-0.9,5.7-0.9c4.8,0,8.5,1.3,11.1,3.9
			c2.6,2.6,3.9,6.3,3.9,11.1v3.4h-23.1c0,1.6,0.4,3,0.8,4.1c0.5,1.2,1.2,2.1,2,2.7c0.8,0.7,1.8,1.2,2.8,1.5c1.1,0.4,2.1,0.5,3.3,0.5
			c2.2,0,4-0.4,5-1.1s1.8-1.6,2.2-2.8h6.5c-0.6,3.2-2.2,5.5-4.7,7.1C1048.8,112.4,1045.9,113.2,1042.2,113.2z M1042,86
			c-1.2,0-2.2,0.1-3.2,0.5c-1.1,0.2-1.9,0.7-2.7,1.3c-0.8,0.6-1.4,1.4-1.9,2.3c-0.5,0.9-0.7,2.1-0.8,3.5h16.6c0-1.5-0.2-2.7-0.7-3.7
			c-0.5-0.9-0.9-1.8-1.8-2.3c-0.7-0.6-1.5-1.1-2.6-1.3C1044.1,86.1,1043.1,86,1042,86z"/>
		<path d="M1058.7,80.9h6.9l5.7,23.3l7.2-23.3h6l7.7,23.3l5.7-23.3h6.4l-8.6,31.6h-6.5l-7.8-23.3l-7.6,23.3h-6.5L1058.7,80.9z"/>
		<path d="M1120.3,113.2c-2.3,0-4.3-0.2-6-0.8c-1.6-0.5-3-1.2-4.1-2.1c-1.1-0.8-2-1.9-2.5-3c-0.6-1.2-0.9-2.3-1.1-3.6h6.5
			c0.2,1.2,0.9,2,2,2.8s2.8,1.1,5.1,1.1c2.6,0,4.4-0.4,5.5-1.1s1.6-1.6,1.6-2.8c0-0.5-0.1-1.1-0.5-1.4c-0.2-0.5-0.7-0.8-1.3-1.3
			c-0.6-0.4-1.4-0.7-2.5-1.1c-1.1-0.4-2.3-0.6-3.9-0.8c-1.8-0.2-3.4-0.6-4.9-1.1c-1.5-0.5-2.7-1.1-3.7-1.9c-1.1-0.8-1.9-1.6-2.3-2.7
			c-0.5-1.1-0.8-2.3-0.8-3.9c0-1.3,0.2-2.5,0.8-3.6c0.5-1.2,1.3-2.1,2.3-2.9s2.5-1.5,4-2c1.6-0.5,3.5-0.7,5.6-0.7s3.9,0.2,5.4,0.8
			c1.5,0.5,2.8,1.2,3.7,2.1c1.1,0.8,1.8,1.9,2.3,3c0.6,1.2,0.9,2.3,1.1,3.6h-6.5c-0.4-1.3-0.9-2.2-2-2.8c-0.9-0.7-2.3-1.1-4-1.1
			c-2.3,0-4,0.4-4.9,1.1c-0.9,0.7-1.4,1.5-1.4,2.5c0,0.6,0.1,1.1,0.4,1.5c0.2,0.5,0.6,0.8,1.2,1.2c0.6,0.4,1.3,0.7,2.3,0.9
			c0.9,0.2,2.2,0.5,3.7,0.7c1.9,0.2,3.5,0.6,5,1.1s2.8,1.1,4,1.9c1.1,0.8,2,1.8,2.6,2.8c0.6,1.2,0.9,2.5,0.9,4
			c0,1.4-0.2,2.6-0.8,3.7c-0.6,1.2-1.4,2.2-2.6,3s-2.6,1.5-4.3,2C1124.6,112.9,1122.6,113.2,1120.3,113.2z"/>
	</g>
</g>
</svg>
