<?xml version="1.0" encoding="utf-8"?>
<!-- Generator: Adobe Illustrator 27.0.0, SVG Export Plug-In . SVG Version: 6.00 Build 0)  -->
<svg version="1.1" id="Layer_1" xmlns="http://www.w3.org/2000/svg" xmlns:xlink="http://www.w3.org/1999/xlink" x="0px" y="0px"
	 viewBox="0 0 640 117" style="enable-background:new 0 0 640 117;" xml:space="preserve">
<style type="text/css">
	.st0{fill:#F4DAFF;}
</style>
<g>
	<path class="st0" d="M58.6,0.1L581.4,0C613.8,0,640,26.2,640,58.5l0,0c0,32.3-26.2,58.5-58.6,58.5L58.6,117C26.2,117,0,90.8,0,58.5
		l0,0C0,26.2,26.2,0.1,58.6,0.1z"/>
	<g>
		<path d="M43.1,66.5h6.1V49.2l-6.1,4.3V49l6.3-4.4h4.2v22h5v3.8H43.1V66.5z"/>
		<path d="M95.3,48.6c-0.7,0-1.4-0.2-1.8-0.7c-0.4-0.5-0.7-1.1-0.7-1.8s0.2-1.4,0.7-1.8c0.5-0.4,1.1-0.7,1.8-0.7
			c0.7,0,1.4,0.2,1.8,0.7c0.4,0.5,0.7,1.1,0.7,1.8s-0.2,1.4-0.7,1.8C96.6,48.3,96,48.6,95.3,48.6z M93.3,50.8h4.1v19.5h-4.1V50.8z"
			/>
		<path d="M101.9,50.8h3.8v3.3c0.4-1,1.3-1.8,2.3-2.6c1-0.7,2.4-1.1,4.1-1.1c2.4,0,4.2,0.7,5.4,1.9c1.2,1.3,1.8,3.2,1.8,5.7v12.3
			h-4.1V58.9c0-1.6-0.4-2.9-1-3.7c-0.7-0.8-1.8-1.3-3.4-1.3c-0.9,0-1.6,0.1-2.2,0.4c-0.6,0.3-1.1,0.7-1.5,1.1
			c-0.4,0.4-0.7,1-0.8,1.5c-0.1,0.6-0.3,1.3-0.3,1.8v11.4h-4.1L101.9,50.8L101.9,50.8z"/>
		<path d="M131.5,70.8c-1.3,0-2.6-0.2-3.7-0.6c-1.1-0.4-2.1-1-2.9-1.8c-0.8-0.8-1.5-1.8-1.9-3.1c-0.4-1.3-0.7-2.7-0.7-4.4v-0.7
			c0-1.5,0.2-2.9,0.7-4.1c0.5-1.2,1.2-2.2,2-3c0.8-0.8,1.8-1.4,3-1.8c1.1-0.4,2.3-0.6,3.5-0.6c1.3,0,2.4,0.1,3.4,0.5
			c1,0.4,1.8,0.8,2.6,1.4c0.7,0.6,1.3,1.3,1.7,2.1c0.4,0.8,0.7,1.7,0.8,2.6h-4.1c-0.2-0.9-0.7-1.6-1.3-2.2s-1.6-0.9-3-0.9
			c-0.7,0-1.3,0.1-1.9,0.4c-0.6,0.2-1.2,0.6-1.6,1.1c-0.4,0.5-0.8,1.1-1.1,1.9s-0.4,1.7-0.4,2.7v0.7c0,1.2,0.1,2.1,0.4,2.9
			c0.3,0.8,0.7,1.5,1.1,2s1,0.9,1.6,1.1c0.6,0.2,1.3,0.4,1.9,0.4c2.3,0,3.8-1,4.4-3.1h4.1c-0.2,1-0.5,2-1,2.8s-1.1,1.5-1.8,2.1
			c-0.7,0.5-1.6,1-2.5,1.3C133.6,70.6,132.6,70.8,131.5,70.8z"/>
		<path d="M142.9,50.8h3.8v3.3c0.4-1,1-1.8,1.9-2.6c0.9-0.7,2-1.1,3.3-1.1c0.6,0,1.1,0,1.4,0.1s0.5,0.1,0.7,0.1v3.7
			c-0.4-0.1-0.8-0.2-1.1-0.3c-0.4-0.1-0.7-0.1-1.3-0.1c-0.8,0-1.5,0.1-2.1,0.4c-0.6,0.3-1,0.7-1.4,1.1c-0.4,0.4-0.7,1-0.8,1.5
			c-0.1,0.6-0.3,1.3-0.3,1.8v11.4h-4.1V50.8z"/>
		<path d="M164.6,70.8c-1.3,0-2.5-0.2-3.7-0.6c-1.2-0.4-2.1-1-3-1.8c-0.9-0.8-1.6-1.8-2.1-3.1c-0.5-1.3-0.7-2.7-0.7-4.4v-0.7
			c0-1.6,0.2-3,0.7-4.2c0.5-1.2,1.2-2.2,2-3c0.8-0.8,1.8-1.4,3-1.8c1.1-0.4,2.3-0.6,3.5-0.6c3,0,5.2,0.8,6.9,2.4
			c1.6,1.6,2.4,3.9,2.4,6.9v2.1h-14.3c0,1,0.2,1.8,0.5,2.6c0.3,0.7,0.7,1.3,1.2,1.7c0.5,0.4,1.1,0.7,1.8,1c0.7,0.2,1.3,0.3,2,0.3
			c1.4,0,2.4-0.2,3.1-0.7s1.1-1,1.3-1.7h4.1c-0.4,1.9-1.3,3.4-2.9,4.4C168.6,70.3,166.7,70.8,164.6,70.8z M164.4,54
			c-0.7,0-1.3,0.1-2,0.3c-0.7,0.1-1.2,0.4-1.6,0.8c-0.5,0.4-0.9,0.9-1.2,1.5s-0.4,1.3-0.4,2.2h10.3c0-0.9-0.1-1.7-0.4-2.3
			c-0.2-0.6-0.6-1.1-1-1.5c-0.4-0.4-1-0.7-1.6-0.8C165.7,54,165,54,164.4,54z"/>
		<path d="M182.3,70.8c-1,0-2-0.1-2.8-0.4c-0.8-0.3-1.6-0.7-2.1-1.3c-0.6-0.6-1-1.2-1.3-1.9c-0.2-0.7-0.4-1.5-0.4-2.4
			c0-1.9,0.6-3.4,1.8-4.3c1.2-1,2.9-1.4,5.1-1.4h6.1v-1c0-1.5-0.3-2.5-1-3c-0.7-0.6-1.7-0.8-3.1-0.8c-1.3,0-2.2,0.2-2.8,0.6
			c-0.6,0.4-1,1-1,1.6h-4c0.1-0.8,0.3-1.6,0.7-2.3c0.4-0.7,0.9-1.3,1.6-1.8c0.7-0.5,1.5-0.9,2.4-1.2c1-0.3,2.1-0.4,3.3-0.4
			c1.2,0,2.3,0.1,3.3,0.4c1,0.3,1.8,0.7,2.5,1.3c0.7,0.6,1.3,1.3,1.6,2.2c0.4,0.9,0.6,2,0.6,3.3v7.7c0,1,0,1.9,0,2.7
			c0,0.8,0.1,1.5,0.1,2.3h-3.7c-0.1-0.6-0.1-1-0.1-1.5c-0.1-0.4-0.1-0.9-0.1-1.5c-0.4,0.9-1.3,1.7-2.4,2.4
			C185.3,70.4,183.9,70.8,182.3,70.8z M183.4,67.2c0.7,0,1.3-0.1,2-0.3c0.7-0.1,1.2-0.4,1.6-0.8c0.4-0.4,0.8-0.8,1.1-1.3
			s0.4-1.1,0.4-1.8v-1.1h-5.3c-1,0-1.8,0.2-2.5,0.7c-0.7,0.4-1,1.1-1,1.9c0,0.8,0.3,1.5,0.9,2C181.2,67,182.2,67.2,183.4,67.2z"/>
		<path d="M204.1,70.8c-1.5,0-2.7-0.1-3.7-0.4c-1-0.3-1.8-0.7-2.6-1.3c-0.7-0.5-1.2-1.2-1.6-1.9c-0.4-0.7-0.6-1.5-0.7-2.3h4.1
			c0.1,0.7,0.6,1.3,1.3,1.7s1.7,0.7,3.2,0.7c1.6,0,2.8-0.2,3.4-0.7c0.7-0.4,1-1,1-1.7c0-0.3-0.1-0.6-0.3-0.9
			c-0.1-0.3-0.4-0.5-0.8-0.8c-0.4-0.2-0.9-0.4-1.6-0.7c-0.7-0.2-1.5-0.4-2.4-0.4c-1.1-0.1-2.1-0.4-3-0.7c-0.9-0.3-1.7-0.7-2.3-1.1
			c-0.7-0.4-1.1-1-1.5-1.7c-0.4-0.7-0.5-1.5-0.5-2.4c0-0.8,0.1-1.5,0.4-2.2c0.3-0.7,0.8-1.3,1.5-1.8c0.7-0.5,1.5-1,2.5-1.3
			c1-0.3,2.1-0.4,3.5-0.4c1.3,0,2.4,0.1,3.3,0.4c1,0.3,1.7,0.7,2.4,1.3c0.7,0.5,1.1,1.2,1.5,1.9s0.5,1.5,0.7,2.3h-4.1
			c-0.2-0.7-0.6-1.3-1.2-1.8c-0.6-0.4-1.4-0.7-2.5-0.7c-1.5,0-2.4,0.2-3,0.7c-0.6,0.4-0.8,1-0.8,1.5c0,0.4,0.1,0.7,0.2,0.9
			c0.1,0.3,0.4,0.5,0.7,0.7c0.4,0.2,0.8,0.4,1.4,0.6c0.6,0.1,1.4,0.3,2.3,0.4c1.1,0.1,2.1,0.4,3.1,0.7c1,0.3,1.8,0.7,2.4,1.2
			c0.7,0.4,1.2,1,1.6,1.8c0.4,0.7,0.6,1.5,0.6,2.4c0,0.8-0.1,1.6-0.5,2.4c-0.4,0.7-0.9,1.3-1.6,1.8c-0.7,0.5-1.6,1-2.7,1.3
			C206.7,70.6,205.5,70.8,204.1,70.8z"/>
		<path d="M224.2,70.8c-1.3,0-2.5-0.2-3.7-0.6c-1.2-0.4-2.1-1-3-1.8c-0.9-0.8-1.6-1.8-2.1-3.1c-0.5-1.3-0.7-2.7-0.7-4.4v-0.7
			c0-1.6,0.2-3,0.7-4.2c0.5-1.2,1.2-2.2,2-3s1.8-1.4,3-1.8c1.1-0.4,2.3-0.6,3.5-0.6c3,0,5.2,0.8,6.9,2.4c1.6,1.6,2.4,3.9,2.4,6.9
			v2.1h-14.3c0,1,0.2,1.8,0.5,2.6c0.3,0.7,0.7,1.3,1.2,1.7c0.5,0.4,1.1,0.7,1.8,1c0.7,0.2,1.3,0.3,2,0.3c1.4,0,2.4-0.2,3.1-0.7
			c0.7-0.4,1.1-1,1.3-1.7h4.1c-0.4,1.9-1.3,3.4-2.9,4.4C228.3,70.3,226.4,70.8,224.2,70.8z M224,54c-0.7,0-1.3,0.1-2,0.3
			c-0.7,0.1-1.2,0.4-1.6,0.8c-0.5,0.4-0.9,0.9-1.2,1.5s-0.4,1.3-0.4,2.2h10.3c0-0.9-0.1-1.7-0.4-2.3c-0.2-0.6-0.6-1.1-1-1.5
			c-0.4-0.4-1-0.7-1.6-0.8C225.4,54,224.7,54,224,54z"/>
		<path d="M243.3,51.1h17.4v3.8h-17.4V51.1z M243.3,59.2h17.4V63h-17.4V59.2z"/>
		<path d="M280.2,70.8c-1.6,0-2.8-0.2-3.9-0.6c-1.1-0.4-2-0.9-2.7-1.6c-0.7-0.7-1.3-1.4-1.6-2.3c-0.4-0.9-0.6-1.7-0.6-2.6h4.4
			c0.1,0.9,0.6,1.6,1.3,2.2c0.7,0.6,1.8,0.9,3.1,0.9c1.5,0,2.7-0.4,3.5-1.3c0.9-0.9,1.3-2.2,1.3-3.8c0-1-0.1-1.8-0.4-2.4
			s-0.7-1.2-1.1-1.5c-0.4-0.4-1-0.7-1.6-0.9c-0.6-0.1-1.2-0.3-1.8-0.3c-1,0-1.9,0.1-2.7,0.6c-0.7,0.4-1.3,0.9-1.7,1.5h-4v-14h16.1
			v3.8h-11.7v6c0.6-0.5,1.3-1,2-1.3c0.7-0.4,1.7-0.5,2.9-0.5c1.3,0,2.4,0.2,3.4,0.6c1,0.4,1.9,1,2.6,1.7c0.7,0.7,1.3,1.7,1.7,2.8
			c0.4,1.1,0.6,2.4,0.6,3.9c0,1.4-0.2,2.7-0.7,3.8c-0.4,1.1-1,2.1-1.8,2.9c-0.8,0.8-1.8,1.4-2.9,1.8
			C282.8,70.6,281.5,70.8,280.2,70.8z"/>
		<path d="M291.4,58.1h17v3.8h-17V58.1z"/>
		<path d="M319.5,70.8c-2.3,0-4.1-0.5-5.5-1.5c-1.5-1-2.4-2.5-2.7-4.6h4.4c0.3,0.8,0.7,1.3,1.3,1.7c0.7,0.4,1.5,0.5,2.5,0.5
			c0.8,0,1.6-0.1,2.2-0.4c0.7-0.2,1.3-0.7,1.8-1.3c0.5-0.6,1-1.5,1.3-2.6c0.3-1.1,0.5-2.5,0.5-4.1c-0.3,0.5-0.7,1-1.2,1.4
			c-0.5,0.4-1,0.7-1.6,0.9c-0.6,0.2-1.2,0.4-1.8,0.5c-0.6,0.1-1.3,0.1-1.8,0.1c-2.6,0-4.7-0.7-6.1-2.1s-2.2-3.5-2.2-6v-0.4
			c0-1.3,0.2-2.4,0.7-3.5c0.4-1,1.1-2,1.9-2.7s1.8-1.3,2.9-1.8c1.1-0.4,2.3-0.6,3.5-0.6c1.6,0,3,0.2,4.1,0.7
			c1.2,0.4,2.2,1.2,3.1,2.1c0.8,1,1.5,2.2,1.9,3.8c0.4,1.5,0.7,3.3,0.7,5.5V57c0,2.5-0.2,4.6-0.7,6.4c-0.5,1.8-1.3,3.2-2.1,4.3
			c-0.9,1.1-1.9,1.9-3.2,2.4C322.2,70.5,320.9,70.8,319.5,70.8z M320,57.8c1.5,0,2.7-0.4,3.5-1.3c0.9-0.9,1.3-2,1.3-3.4v-0.4
			c0-0.7-0.1-1.3-0.4-1.8s-0.6-1.1-1-1.5c-0.4-0.4-1-0.7-1.6-1c-0.6-0.2-1.3-0.4-2-0.4c-1.5,0-2.7,0.4-3.5,1.3
			c-0.9,0.9-1.3,2-1.3,3.4v0.4c0,1.4,0.4,2.5,1.3,3.4C317.3,57.4,318.5,57.8,320,57.8z"/>
		<path d="M337.6,56.8c-0.9,0-1.8-0.1-2.5-0.4c-0.7-0.3-1.4-0.7-1.9-1.3c-0.5-0.5-1-1.2-1.3-1.9s-0.4-1.5-0.4-2.5v-0.4
			c0-0.9,0.1-1.8,0.4-2.5s0.7-1.4,1.3-1.9c0.5-0.5,1.2-1,1.9-1.3c0.7-0.3,1.6-0.4,2.5-0.4c0.9,0,1.7,0.1,2.4,0.4
			c0.7,0.3,1.4,0.7,1.9,1.3c0.5,0.5,1,1.2,1.3,1.9c0.3,0.7,0.4,1.5,0.4,2.5v0.4c0,0.9-0.1,1.8-0.4,2.5s-0.7,1.4-1.3,1.9
			c-0.5,0.5-1.2,1-1.9,1.3C339.3,56.6,338.5,56.8,337.6,56.8z M352.7,44.5h4.4l-17.7,25.8H335L352.7,44.5z M337.6,53.4
			c0.7,0,1.2-0.2,1.6-0.7c0.4-0.4,0.6-1.2,0.6-2.1v-0.4c0-1-0.2-1.7-0.6-2.1c-0.4-0.4-0.9-0.7-1.6-0.7s-1.2,0.2-1.6,0.7
			c-0.4,0.4-0.6,1.2-0.6,2.1v0.4c0,1,0.2,1.7,0.6,2.1C336.3,53.2,336.9,53.4,337.6,53.4z M354.6,70.7c-0.9,0-1.8-0.1-2.5-0.4
			c-0.7-0.3-1.4-0.7-1.9-1.3c-0.5-0.5-1-1.2-1.3-1.9c-0.3-0.7-0.4-1.5-0.4-2.5v-0.4c0-0.9,0.1-1.8,0.4-2.5s0.7-1.4,1.3-1.9
			c0.5-0.5,1.2-1,1.9-1.3c0.7-0.3,1.6-0.4,2.5-0.4c0.9,0,1.7,0.1,2.4,0.4c0.7,0.3,1.4,0.7,1.9,1.3c0.5,0.5,1,1.2,1.3,1.9
			c0.3,0.7,0.4,1.5,0.4,2.5v0.4c0,0.9-0.1,1.8-0.4,2.5c-0.3,0.7-0.7,1.4-1.3,1.9s-1.2,1-1.9,1.3C356.3,70.6,355.5,70.7,354.6,70.7z
			 M354.6,67.4c0.7,0,1.2-0.2,1.6-0.7c0.4-0.4,0.6-1.2,0.6-2.1v-0.4c0-1-0.2-1.7-0.6-2.1c-0.4-0.4-0.9-0.7-1.6-0.7
			c-0.7,0-1.2,0.2-1.6,0.7c-0.4,0.4-0.6,1.2-0.6,2.1v0.4c0,1,0.2,1.7,0.6,2.1C353.4,67.2,353.9,67.4,354.6,67.4z"/>
		<path d="M371.2,50.8h3.8v3.3c0.2-0.5,0.5-1,0.9-1.4c0.4-0.4,0.8-0.9,1.3-1.2c0.4-0.4,1-0.6,1.6-0.8c0.6-0.2,1.2-0.3,1.8-0.3
			c1.6,0,2.9,0.4,3.8,1c0.9,0.7,1.6,1.5,1.8,2.7c0.6-1.1,1.3-2,2.4-2.7s2.2-1,3.5-1c2.1,0,3.6,0.6,4.7,1.8c1.1,1.2,1.6,3.1,1.6,5.6
			v12.5h-4.1V58.8c0-1.8-0.3-2.9-1-3.7c-0.7-0.7-1.6-1.1-2.7-1.1c-1.3,0-2.3,0.4-3,1.3c-0.7,0.9-1,2.1-1,3.5v11.6h-4.1V58.8
			c0-1.8-0.3-2.9-1-3.7c-0.7-0.7-1.6-1.1-2.7-1.1c-1.3,0-2.3,0.4-3,1.3c-0.7,0.9-1,2.1-1,3.5v11.6h-4V50.8z"/>
		<path d="M411.1,70.8c-1.3,0-2.6-0.2-3.8-0.7c-1.2-0.4-2.2-1-3-1.9c-0.9-0.8-1.6-1.8-2.1-3.1c-0.5-1.3-0.7-2.7-0.7-4.3V60
			c0-1.5,0.2-2.9,0.7-4.1c0.5-1.2,1.2-2.2,2.1-3s1.8-1.5,3-1.8c1.2-0.4,2.4-0.6,3.8-0.6s2.6,0.2,3.8,0.6c1.2,0.4,2.2,1,3,1.8
			c0.9,0.8,1.6,1.8,2.1,3c0.5,1.2,0.7,2.6,0.7,4.1v0.7c0,1.6-0.2,3.1-0.7,4.3c-0.5,1.3-1.2,2.3-2.1,3.1c-0.9,0.8-1.8,1.5-3,1.9
			C413.7,70.6,412.4,70.8,411.1,70.8z M411.1,67.2c0.7,0,1.4-0.1,2.1-0.4c0.7-0.2,1.3-0.6,1.7-1.1c0.5-0.5,0.9-1.2,1.3-2
			c0.3-0.8,0.4-1.8,0.4-2.9v-0.7c0-1-0.1-2-0.4-2.7c-0.3-0.7-0.7-1.4-1.3-1.8c-0.5-0.5-1.1-0.9-1.7-1.1c-0.7-0.2-1.3-0.4-2.1-0.4
			s-1.4,0.1-2.1,0.4c-0.7,0.2-1.3,0.6-1.7,1.1c-0.5,0.5-0.9,1.1-1.3,1.8c-0.3,0.7-0.4,1.7-0.4,2.7v0.7c0,1.2,0.1,2.1,0.4,2.9
			s0.7,1.5,1.3,2s1.1,0.9,1.7,1.1C409.7,67.1,410.3,67.2,411.1,67.2z"/>
		<path d="M423.8,50.8h3.8v3.3c0.4-1,1-1.8,1.9-2.6c0.9-0.7,2-1.1,3.3-1.1c0.6,0,1.1,0,1.4,0.1c0.3,0.1,0.5,0.1,0.7,0.1v3.7
			c-0.4-0.1-0.8-0.2-1.1-0.3c-0.4-0.1-0.7-0.1-1.3-0.1c-0.8,0-1.5,0.1-2.1,0.4c-0.6,0.3-1,0.7-1.4,1.1c-0.4,0.4-0.7,1-0.8,1.5
			c-0.1,0.6-0.3,1.3-0.3,1.8v11.4h-4.1L423.8,50.8L423.8,50.8z"/>
		<path d="M445.4,70.8c-1.3,0-2.5-0.2-3.7-0.6c-1.2-0.4-2.1-1-3-1.8c-0.9-0.8-1.6-1.8-2.1-3.1c-0.5-1.3-0.7-2.7-0.7-4.4v-0.7
			c0-1.6,0.2-3,0.7-4.2c0.5-1.2,1.2-2.2,2-3c0.9-0.8,1.8-1.4,3-1.8c1.1-0.4,2.3-0.6,3.5-0.6c3,0,5.2,0.8,6.9,2.4
			c1.6,1.6,2.4,3.9,2.4,6.9v2.1H440c0,1,0.2,1.8,0.5,2.6c0.3,0.7,0.7,1.3,1.2,1.7c0.5,0.4,1.1,0.7,1.8,1c0.7,0.2,1.3,0.3,2,0.3
			c1.4,0,2.4-0.2,3.1-0.7c0.7-0.4,1.1-1,1.3-1.7h4.1c-0.4,1.9-1.3,3.4-2.9,4.4C449.5,70.3,447.6,70.8,445.4,70.8z M445.2,54
			c-0.7,0-1.3,0.1-2,0.3c-0.7,0.1-1.2,0.4-1.6,0.8c-0.5,0.4-0.9,0.9-1.2,1.5c-0.3,0.6-0.4,1.3-0.5,2.2h10.3c0-0.9-0.1-1.7-0.4-2.3
			c-0.2-0.6-0.6-1.1-1-1.5c-0.4-0.4-1-0.7-1.6-0.8C446.6,54,445.9,54,445.2,54z"/>
		<path d="M465.4,50.8h3.8v3.3c0.4-1,1-1.8,1.9-2.6s2-1.1,3.3-1.1c0.6,0,1.1,0,1.4,0.1c0.3,0.1,0.5,0.1,0.7,0.1v3.7
			c-0.4-0.1-0.8-0.2-1.1-0.3c-0.4-0.1-0.7-0.1-1.3-0.1c-0.8,0-1.5,0.1-2.1,0.4c-0.6,0.3-1,0.7-1.4,1.1c-0.4,0.4-0.7,1-0.8,1.5
			c-0.1,0.6-0.3,1.3-0.3,1.8v11.4h-4.1L465.4,50.8L465.4,50.8z"/>
		<path d="M486.9,70.8c-1.3,0-2.5-0.2-3.7-0.6c-1.2-0.4-2.1-1-3-1.8c-0.9-0.8-1.6-1.8-2.1-3.1c-0.5-1.3-0.7-2.7-0.7-4.4v-0.7
			c0-1.6,0.2-3,0.7-4.2c0.5-1.2,1.2-2.2,2-3c0.9-0.8,1.8-1.4,3-1.8c1.1-0.4,2.3-0.6,3.5-0.6c3,0,5.2,0.8,6.9,2.4
			c1.6,1.6,2.4,3.9,2.4,6.9v2.1h-14.3c0,1,0.2,1.8,0.5,2.6c0.3,0.7,0.7,1.3,1.2,1.7c0.5,0.4,1.1,0.7,1.8,1s1.3,0.3,2,0.3
			c1.4,0,2.4-0.2,3.1-0.7c0.7-0.4,1.1-1,1.3-1.7h4.1c-0.4,1.9-1.3,3.4-2.9,4.4C491,70.3,489.2,70.8,486.9,70.8z M486.8,54
			c-0.7,0-1.3,0.1-2,0.3c-0.7,0.1-1.2,0.4-1.6,0.8c-0.5,0.4-0.9,0.9-1.2,1.5c-0.3,0.6-0.4,1.3-0.5,2.2h10.3c0-0.9-0.1-1.7-0.4-2.3
			c-0.2-0.6-0.6-1.1-1-1.5c-0.4-0.4-1-0.7-1.6-0.8C488.1,54,487.5,54,486.8,54z"/>
		<path d="M496.4,50.8h4.4l6,15.1l5.4-15.1h4.1l-7.5,19.5h-4.1L496.4,50.8z"/>
		<path d="M526.5,70.8c-1.3,0-2.5-0.2-3.7-0.6c-1.2-0.4-2.1-1-3-1.8c-0.9-0.8-1.6-1.8-2.1-3.1c-0.5-1.3-0.7-2.7-0.7-4.4v-0.7
			c0-1.6,0.2-3,0.7-4.2c0.5-1.2,1.2-2.2,2-3c0.9-0.8,1.8-1.4,3-1.8c1.1-0.4,2.3-0.6,3.5-0.6c3,0,5.2,0.8,6.9,2.4
			c1.6,1.6,2.4,3.9,2.4,6.9v2.1h-14.3c0,1,0.2,1.8,0.5,2.6c0.3,0.7,0.7,1.3,1.2,1.7c0.5,0.4,1.1,0.7,1.8,1c0.7,0.2,1.3,0.3,2,0.3
			c1.4,0,2.4-0.2,3.1-0.7s1.1-1,1.3-1.7h4.1c-0.4,1.9-1.3,3.4-2.9,4.4C530.5,70.3,528.7,70.8,526.5,70.8z M526.3,54
			c-0.7,0-1.3,0.1-2,0.3c-0.7,0.1-1.2,0.4-1.6,0.8c-0.5,0.4-0.9,0.9-1.2,1.5s-0.4,1.3-0.5,2.2h10.3c0-0.9-0.1-1.7-0.4-2.3
			c-0.2-0.6-0.6-1.1-1-1.5c-0.4-0.4-1-0.7-1.6-0.8C527.6,54,527,54,526.3,54z"/>
		<path d="M538.5,50.8h3.8v3.3c0.4-1,1.3-1.8,2.3-2.6c1-0.7,2.4-1.1,4.1-1.1c2.4,0,4.2,0.7,5.4,1.9c1.2,1.3,1.8,3.2,1.8,5.7v12.3
			h-4.1V58.9c0-1.6-0.4-2.9-1-3.7c-0.7-0.8-1.8-1.3-3.4-1.3c-0.9,0-1.6,0.1-2.2,0.4c-0.6,0.3-1.1,0.7-1.5,1.1
			c-0.4,0.4-0.7,1-0.9,1.5c-0.1,0.6-0.3,1.3-0.3,1.8v11.4h-4.1L538.5,50.8L538.5,50.8z"/>
		<path d="M566.7,70.8c-2.3,0-4.1-0.7-5.2-2c-1.2-1.3-1.8-3.4-1.8-6.1V50.9h4.1v11.4c0,1.6,0.4,2.9,1,3.7c0.7,0.8,1.8,1.3,3.3,1.3
			c0.8,0,1.5-0.1,2.1-0.4c0.6-0.3,1-0.7,1.4-1.1s0.7-1,0.8-1.6c0.1-0.6,0.3-1.3,0.3-1.8V50.8h4.1v19.5h-3.8V67
			c-0.4,1-1.3,1.8-2.3,2.6C569.7,70.4,568.3,70.8,566.7,70.8z"/>
		<path d="M589.5,70.8c-1.3,0-2.5-0.2-3.7-0.6c-1.2-0.4-2.1-1-3-1.8c-0.9-0.8-1.6-1.8-2.1-3.1c-0.5-1.3-0.7-2.7-0.7-4.4v-0.7
			c0-1.6,0.2-3,0.7-4.2c0.5-1.2,1.2-2.2,2-3c0.9-0.8,1.8-1.4,3-1.8c1.1-0.4,2.3-0.6,3.5-0.6c3,0,5.2,0.8,6.9,2.4
			c1.6,1.6,2.4,3.9,2.4,6.9v2.1h-14.3c0,1,0.2,1.8,0.5,2.6c0.3,0.7,0.7,1.3,1.2,1.7c0.5,0.4,1.1,0.7,1.8,1c0.7,0.2,1.3,0.3,2,0.3
			c1.4,0,2.4-0.2,3.1-0.7c0.7-0.4,1.1-1,1.3-1.7h4.1c-0.4,1.9-1.3,3.4-2.9,4.4C593.5,70.3,591.7,70.8,589.5,70.8z M589.3,54
			c-0.7,0-1.3,0.1-2,0.3c-0.7,0.1-1.2,0.4-1.6,0.8c-0.5,0.4-0.9,0.9-1.2,1.5s-0.4,1.3-0.5,2.2h10.3c0-0.9-0.1-1.7-0.4-2.3
			c-0.2-0.6-0.6-1.1-1-1.5c-0.4-0.4-1-0.7-1.6-0.8C590.7,54,590,54,589.3,54z"/>
	</g>
	<polygon points="74.2,45.6 77.8,52.7 85.6,53.8 79.9,59.3 81.3,67 74.2,63.4 67.2,67 68.6,59.3 62.9,53.8 70.8,52.7 	"/>
</g>
</svg>
