<?xml version="1.0" encoding="utf-8"?>
<!-- Generator: Adobe Illustrator 27.0.0, SVG Export Plug-In . SVG Version: 6.00 Build 0)  -->
<svg version="1.1" id="Layer_1" xmlns="http://www.w3.org/2000/svg" xmlns:xlink="http://www.w3.org/1999/xlink" x="0px" y="0px"
	 viewBox="0 0 1920 350" style="enable-background:new 0 0 1920 350;" xml:space="preserve">
<style type="text/css">
	.st0{fill:#F4DAFF;}
</style>
<g>
	<path class="st0" d="M175.7,0.2L1744.3,0c97.1,0,175.7,78.3,175.7,174.9l0,0c0,96.6-78.7,174.9-175.7,174.9L175.7,350
		C78.7,350,0,271.7,0,175.1l0,0C0,78.5,78.7,0.2,175.7,0.2z"/>
	<g>
		<path d="M129.2,198.9h18.2v-51.6l-18.2,13v-13.7l18.8-13.2h12.6v65.7h15.1v11.5h-46.5V198.9z"/>
		<path d="M285.9,145.3c-2.2,0-4.2-0.7-5.5-2.2c-1.3-1.5-2.2-3.3-2.2-5.5s0.7-4.2,2.2-5.5c1.6-1.3,3.3-2.2,5.5-2.2s4.2,0.7,5.5,2.2
			c1.3,1.5,2.2,3.3,2.2,5.5s-0.7,4.2-2.2,5.5C289.9,144.5,288.1,145.3,285.9,145.3z M279.9,152h12.2v58.4h-12.2V152z"/>
		<path d="M305.8,152h11.3v9.9c1.3-2.9,3.8-5.5,6.9-7.7c3.1-2.2,7.3-3.3,12.2-3.3c7.1,0,12.6,2,16.2,5.7c3.5,4,5.5,9.5,5.5,17v36.8
			h-12.2v-34.2c0-4.9-1.1-8.6-3.1-11c-2-2.4-5.5-3.7-10.2-3.7c-2.7,0-4.9,0.4-6.6,1.3s-3.3,2-4.4,3.3c-1.1,1.3-2,2.9-2.4,4.6
			c-0.4,1.8-0.9,3.7-0.9,5.5v34.2h-12.2L305.8,152L305.8,152z"/>
		<path d="M394.5,211.7c-4,0-7.8-0.7-11.1-1.8c-3.3-1.1-6.2-3.1-8.6-5.5c-2.4-2.4-4.4-5.5-5.8-9.3c-1.3-3.7-2.2-8.2-2.2-13.2v-2.2
			c0-4.6,0.7-8.8,2.2-12.4c1.6-3.5,3.5-6.6,6-9s5.5-4.2,8.9-5.5c3.3-1.1,6.9-1.8,10.6-1.8s7.3,0.4,10.2,1.5c3.1,1.1,5.5,2.4,7.8,4.2
			c2,1.8,3.8,4,5.1,6.4c1.3,2.4,2,5.1,2.4,7.7h-12.4c-0.7-2.6-2-4.9-4-6.6c-2-1.8-4.9-2.6-9.1-2.6c-2,0-4,0.4-5.8,1.1
			c-1.8,0.7-3.5,1.8-4.9,3.3c-1.3,1.5-2.4,3.3-3.3,5.7c-0.9,2.4-1.1,5.1-1.1,8.2v2.2c0,3.5,0.4,6.4,1.1,8.8c0.9,2.4,2,4.4,3.3,6
			c1.3,1.5,3.1,2.6,4.9,3.3c1.8,0.7,3.8,1.1,5.8,1.1c6.9,0,11.3-3.1,13.1-9.3h12.4c-0.7,3.1-1.6,6-3.1,8.4c-1.6,2.4-3.3,4.6-5.5,6.2
			s-4.7,3.1-7.5,4C400.9,211.3,397.8,211.7,394.5,211.7z"/>
		<path d="M428.8,152h11.3v9.9c1.1-3.1,3.1-5.5,5.8-7.7c2.7-2.2,6-3.3,10-3.3c1.8,0,3.3,0,4.2,0.2s1.6,0.2,2,0.4v11
			c-1.3-0.4-2.4-0.7-3.3-0.9c-1.1-0.2-2.2-0.2-3.8-0.2c-2.4,0-4.4,0.4-6.2,1.3s-3.1,2-4.2,3.3s-2,2.9-2.4,4.6
			c-0.4,1.8-0.9,3.7-0.9,5.5v34.2h-12.4V152z"/>
		<path d="M493.7,211.7c-4,0-7.5-0.7-11.1-1.8c-3.5-1.1-6.4-3.1-9.1-5.5c-2.7-2.4-4.7-5.5-6.2-9.3s-2.2-8.2-2.2-13.2v-2.2
			c0-4.9,0.7-9,2.2-12.6c1.6-3.5,3.5-6.6,6-9c2.4-2.4,5.5-4.2,8.9-5.3s6.9-1.8,10.6-1.8c8.9,0,15.7,2.4,20.6,7.1
			c4.7,4.9,7.1,11.7,7.1,20.5v6.2h-43c0,3.1,0.7,5.5,1.6,7.7c0.9,2,2.2,3.7,3.5,5.1c1.6,1.3,3.3,2.2,5.3,2.9c2,0.7,4,0.9,6,0.9
			c4.2,0,7.3-0.7,9.3-2c2-1.3,3.3-3.1,4-5.1h12.2c-1.1,5.7-4,10.1-8.6,13.2C505.7,210.2,500.2,211.7,493.7,211.7z M493.1,161.4
			c-2,0-4,0.2-6,0.9c-2,0.4-3.5,1.3-4.9,2.4c-1.6,1.1-2.7,2.6-3.5,4.4c-0.9,1.8-1.3,4-1.3,6.6h30.8c0-2.6-0.4-5.1-1.3-6.8
			c-0.7-1.8-1.8-3.3-3.1-4.4c-1.3-1.1-2.9-2-4.7-2.4C497.1,161.7,495.1,161.4,493.1,161.4z"/>
		<path d="M546.9,211.7c-3.1,0-6-0.4-8.4-1.3c-2.4-0.9-4.7-2.2-6.2-4c-1.8-1.8-3.1-3.5-3.8-5.7c-0.7-2.2-1.3-4.6-1.3-7.3
			c0-5.7,1.8-10.1,5.3-13s8.6-4.2,15.3-4.2H566v-3.1c0-4.4-0.9-7.5-2.9-9c-2-1.8-5.1-2.4-9.3-2.4c-3.8,0-6.6,0.7-8.4,1.8
			s-2.9,2.9-3.1,4.9h-12c0.2-2.4,0.9-4.9,2-6.8c1.1-2.2,2.7-4,4.7-5.5c2-1.5,4.4-2.6,7.3-3.5s6.2-1.3,9.8-1.3s6.9,0.4,9.8,1.1
			c2.9,0.9,5.3,2,7.5,3.7c2,1.8,3.8,4,4.9,6.6c1.1,2.6,1.8,6,1.8,9.9v23.2c0,3.1,0,5.7,0,8.2s0.2,4.6,0.4,6.8h-11.1
			c-0.2-1.8-0.4-3.1-0.4-4.4c-0.2-1.1-0.2-2.6-0.2-4.4c-1.3,2.6-3.8,5.1-7.3,7.1C556,210.6,551.8,211.7,546.9,211.7z M550.2,201.1
			c2,0,4-0.2,6-0.9c2-0.4,3.5-1.3,4.9-2.4s2.4-2.4,3.3-4c0.9-1.5,1.3-3.3,1.3-5.5V185h-16c-3.1,0-5.5,0.7-7.5,2
			c-2,1.3-2.9,3.3-2.9,5.7c0,2.4,0.9,4.4,2.7,6C543.6,200.5,546.5,201.1,550.2,201.1z"/>
		<path d="M612.3,211.7c-4.4,0-8-0.4-11.1-1.3s-5.5-2.2-7.8-4c-2-1.5-3.5-3.5-4.7-5.7c-1.1-2.2-1.8-4.4-2-6.8H599
			c0.4,2,1.8,3.7,3.8,5.1c2,1.3,5.1,2,9.5,2c4.9,0,8.4-0.7,10.2-2c2-1.3,3.1-3.1,3.1-5.1c0-0.9-0.2-1.8-0.9-2.6
			c-0.4-0.9-1.3-1.5-2.4-2.4c-1.1-0.7-2.7-1.3-4.7-2s-4.4-1.1-7.1-1.3c-3.3-0.4-6.4-1.1-9.1-2s-5.1-2-6.9-3.3
			c-2-1.3-3.3-3.1-4.4-5.1c-1.1-2-1.6-4.4-1.6-7.1c0-2.4,0.4-4.6,1.3-6.6c0.9-2.2,2.4-4,4.4-5.5c2-1.5,4.4-2.9,7.5-3.7
			c3.1-0.9,6.4-1.3,10.4-1.3c3.8,0,7.1,0.4,10,1.3c2.9,0.9,5.1,2.2,7.1,4c2,1.5,3.3,3.5,4.4,5.7c1.1,2.2,1.6,4.4,2,6.8h-12.2
			c-0.7-2.2-1.8-4-3.5-5.3c-1.8-1.3-4.2-2-7.5-2c-4.4,0-7.3,0.7-9.1,2c-1.8,1.3-2.4,2.9-2.4,4.6c0,1.1,0.2,2,0.7,2.6
			c0.4,0.9,1.1,1.5,2.2,2.2c1.1,0.7,2.4,1.1,4.2,1.8c1.8,0.4,4.2,0.9,6.9,1.1c3.3,0.4,6.4,1.1,9.3,2c2.9,0.9,5.3,2,7.3,3.5
			c2,1.3,3.5,3.1,4.7,5.3s1.8,4.6,1.8,7.3c0,2.4-0.4,4.9-1.6,7.1s-2.7,4-4.7,5.5c-2.2,1.5-4.7,2.9-8,3.7
			C620.1,211.3,616.5,211.7,612.3,211.7z"/>
		<path d="M672.6,211.7c-4,0-7.5-0.7-11.1-1.8c-3.5-1.1-6.4-3.1-9.1-5.5c-2.7-2.4-4.7-5.5-6.2-9.3c-1.6-3.7-2.2-8.2-2.2-13.2v-2.2
			c0-4.9,0.7-9,2.2-12.6c1.6-3.5,3.5-6.6,6-9c2.4-2.4,5.5-4.2,8.9-5.3s6.9-1.8,10.6-1.8c8.9,0,15.7,2.4,20.6,7.1
			c4.7,4.9,7.1,11.7,7.1,20.5v6.2h-43c0,3.1,0.7,5.5,1.6,7.7c0.9,2,2.2,3.7,3.5,5.1c1.6,1.3,3.3,2.2,5.3,2.9c2,0.7,4,0.9,6,0.9
			c4.2,0,7.3-0.7,9.3-2c2-1.3,3.3-3.1,4-5.1h12.2c-1.1,5.7-4,10.1-8.6,13.2C684.8,210.2,679.2,211.7,672.6,211.7z M672.1,161.4
			c-2,0-4,0.2-6,0.9c-2,0.4-3.5,1.3-4.9,2.4c-1.6,1.1-2.7,2.6-3.5,4.4s-1.3,4-1.3,6.6h30.8c0-2.6-0.4-5.1-1.3-6.8
			c-0.7-1.8-1.8-3.3-3.1-4.4c-1.3-1.1-2.9-2-4.7-2.4C676.1,161.7,674.1,161.4,672.1,161.4z"/>
		<path d="M729.8,152.8h52.1v11.5h-52.1V152.8z M729.8,177.1h52.1v11.5h-52.1V177.1z"/>
		<path d="M840.6,211.7c-4.7,0-8.4-0.7-11.7-1.8c-3.3-1.1-6-2.6-8.2-4.9c-2.2-2-3.8-4.2-4.9-6.8c-1.1-2.6-1.8-5.1-1.8-7.7h13.3
			c0.4,2.6,1.8,4.9,4,6.6s5.3,2.6,9.3,2.6c4.4,0,8-1.3,10.6-4c2.7-2.6,3.8-6.6,3.8-11.5c0-2.9-0.4-5.3-1.3-7.3s-2-3.5-3.3-4.6
			s-2.9-2-4.7-2.6c-1.8-0.4-3.5-0.9-5.3-0.9c-3.1,0-5.8,0.4-8,1.8c-2,1.1-3.8,2.6-5.1,4.4h-12v-41.9h48.3v11.5h-35.2v17.9
			c1.8-1.5,3.8-2.9,6-4s5.1-1.5,8.6-1.5c3.8,0,7.1,0.7,10.2,1.8c3.1,1.1,5.8,2.9,7.8,5.1c2.2,2.2,3.8,5.1,5.1,8.4
			c1.1,3.3,1.8,7.3,1.8,11.7c0,4.2-0.7,7.9-2,11.2c-1.3,3.3-3.1,6.2-5.5,8.6c-2.4,2.4-5.3,4.2-8.6,5.5
			C848.3,211.1,844.5,211.7,840.6,211.7z"/>
		<path d="M874.2,173.8h51v11.5h-51V173.8z"/>
		<path d="M958.4,211.7c-6.9,0-12.4-1.5-16.6-4.4c-4.4-2.9-7.1-7.5-8.2-13.9h13.3c0.9,2.4,2.2,4,4,5.1c2,1.1,4.4,1.5,7.5,1.5
			c2.4,0,4.7-0.4,6.6-1.1s4-2.2,5.5-4s2.9-4.4,3.8-7.7c0.9-3.3,1.6-7.5,1.6-12.4c-0.9,1.5-2.2,3.1-3.5,4.2c-1.6,1.1-3.1,2-4.9,2.6
			c-1.8,0.7-3.5,1.1-5.3,1.5c-1.8,0.2-3.8,0.4-5.5,0.4c-7.8,0-14-2.2-18.4-6.4c-4.4-4.2-6.6-10.4-6.6-18.1v-1.1
			c0-3.7,0.7-7.3,2-10.6c1.3-3.1,3.3-6,5.8-8.2c2.4-2.2,5.3-4,8.6-5.3s6.9-1.8,10.6-1.8c4.7,0,8.9,0.7,12.4,2
			c3.5,1.3,6.6,3.5,9.3,6.4c2.4,2.9,4.4,6.6,5.8,11.2s2,9.9,2,16.3v2.2c0,7.5-0.7,13.9-2.2,19.2c-1.6,5.3-3.8,9.5-6.4,12.8
			c-2.7,3.3-5.8,5.7-9.5,7.3C966.6,210.8,962.7,211.7,958.4,211.7z M960,172.9c4.4,0,8-1.3,10.6-4c2.7-2.6,4-6,4-10.1v-1.1
			c0-2-0.4-3.7-1.1-5.5c-0.7-1.8-1.8-3.3-3.1-4.4c-1.3-1.3-2.9-2.2-4.7-3.1c-1.8-0.7-3.8-1.1-6-1.1c-4.4,0-8,1.3-10.6,4
			c-2.7,2.6-4,6-4,10.1v1.3c0,4.2,1.3,7.5,4,10.1C951.8,171.8,955.6,172.9,960,172.9z"/>
		<path d="M1012.7,169.8c-2.7,0-5.3-0.4-7.5-1.3s-4.2-2.2-5.8-3.7c-1.6-1.5-2.9-3.5-3.8-5.7c-0.9-2.2-1.3-4.6-1.3-7.5v-1.1
			c0-2.6,0.4-5.3,1.3-7.5c0.9-2.2,2.2-4.2,3.8-5.7c1.6-1.5,3.5-2.9,5.8-3.7c2.2-0.9,4.7-1.3,7.5-1.3c2.7,0,5.1,0.4,7.3,1.3
			s4.2,2.2,5.8,3.7c1.6,1.5,2.9,3.5,3.8,5.7c0.9,2.2,1.3,4.6,1.3,7.5v1.1c0,2.6-0.4,5.3-1.3,7.5c-0.9,2.2-2.2,4.2-3.8,5.7
			c-1.6,1.5-3.5,2.9-5.8,3.7S1015.4,169.8,1012.7,169.8z M1058.2,133.2h13.3l-53.2,77.2H1005L1058.2,133.2z M1012.7,159.9
			c2,0,3.5-0.7,4.9-2c1.1-1.3,1.8-3.5,1.8-6.4v-1.1c0-2.9-0.7-5.1-1.8-6.4c-1.1-1.3-2.7-2-4.9-2s-3.5,0.7-4.9,2
			c-1.3,1.3-1.8,3.5-1.8,6.4v1.1c0,2.9,0.7,5.1,1.8,6.4C1009,159.2,1010.7,159.9,1012.7,159.9z M1063.7,211.5
			c-2.7,0-5.3-0.4-7.5-1.3s-4.2-2.2-5.8-3.7s-2.9-3.5-3.8-5.7c-0.9-2.2-1.3-4.6-1.3-7.5v-1.1c0-2.6,0.4-5.3,1.3-7.5
			c0.9-2.2,2.2-4.2,3.8-5.7c1.6-1.5,3.5-2.9,5.8-3.7c2.2-0.9,4.7-1.3,7.5-1.3c2.7,0,5.1,0.4,7.3,1.3c2.2,0.9,4.2,2.2,5.8,3.7
			c1.6,1.5,2.9,3.5,3.8,5.7c0.9,2.2,1.3,4.6,1.3,7.5v1.1c0,2.6-0.4,5.3-1.3,7.5c-0.9,2.2-2.2,4.2-3.8,5.7c-1.6,1.5-3.5,2.9-5.8,3.7
			C1068.8,211.1,1066.4,211.5,1063.7,211.5z M1063.7,201.6c2,0,3.5-0.7,4.9-2c1.1-1.3,1.8-3.5,1.8-6.4v-1.1c0-2.9-0.7-5.1-1.8-6.4
			s-2.7-2-4.9-2s-3.5,0.7-4.9,2c-1.1,1.3-1.8,3.5-1.8,6.4v1.1c0,2.9,0.7,5.1,1.8,6.4C1060.2,200.9,1061.7,201.6,1063.7,201.6z"/>
		<path d="M1113.6,152h11.3v9.9c0.7-1.5,1.6-2.9,2.7-4.2c1.1-1.3,2.4-2.6,3.8-3.5c1.3-1.1,3.1-1.8,4.7-2.4c1.8-0.7,3.5-0.9,5.3-0.9
			c4.9,0,8.6,1.1,11.5,3.1c2.7,2,4.7,4.6,5.5,7.9c1.8-3.3,4-6,7.1-7.9s6.6-3.1,10.6-3.1c6.2,0,10.9,1.8,14.2,5.3
			c3.3,3.5,4.9,9.3,4.9,16.8v37.5h-12.2v-34.6c0-5.3-0.9-8.8-2.9-11c-2-2.2-4.7-3.3-8-3.3c-4,0-6.9,1.3-8.9,4
			c-2,2.6-2.9,6.2-2.9,10.4v34.6h-12.2v-34.6c0-5.3-0.9-8.8-2.9-11c-2-2.2-4.7-3.3-8-3.3c-4,0-6.9,1.3-8.9,4
			c-2,2.6-2.9,6.2-2.9,10.4v34.6h-12V152z"/>
		<path d="M1233.2,211.7c-4,0-7.8-0.7-11.3-2c-3.5-1.3-6.6-3.1-9.1-5.7c-2.7-2.4-4.7-5.5-6.2-9.3c-1.6-3.7-2.2-7.9-2.2-13v-2.2
			c0-4.6,0.7-8.8,2.2-12.4c1.6-3.5,3.5-6.6,6.2-9c2.7-2.4,5.5-4.4,9.1-5.5c3.5-1.3,7.3-1.8,11.3-1.8s7.8,0.7,11.3,1.8
			c3.5,1.3,6.6,3.1,9.1,5.5c2.7,2.4,4.7,5.5,6.2,9c1.6,3.5,2.2,7.7,2.2,12.4v2.2c0,4.9-0.7,9.3-2.2,13c-1.6,3.7-3.5,6.8-6.2,9.3
			c-2.7,2.4-5.5,4.4-9.1,5.7C1241,211.1,1237.2,211.7,1233.2,211.7z M1233.2,201.1c2.2,0,4.2-0.4,6.2-1.1c2-0.7,3.8-1.8,5.1-3.3
			c1.6-1.5,2.7-3.5,3.8-6c0.9-2.4,1.3-5.3,1.3-8.8v-2.2c0-3.1-0.4-6-1.3-8.2c-0.9-2.2-2.2-4.2-3.8-5.5c-1.6-1.5-3.3-2.6-5.1-3.3
			c-2-0.7-4-1.1-6.2-1.1s-4.2,0.4-6.2,1.1c-2,0.7-3.8,1.8-5.1,3.3c-1.6,1.5-2.7,3.3-3.8,5.5c-0.9,2.2-1.3,5.1-1.3,8.2v2.2
			c0,3.5,0.4,6.4,1.3,8.8c0.9,2.4,2.2,4.4,3.8,6c1.6,1.5,3.3,2.6,5.1,3.3C1229,200.7,1231,201.1,1233.2,201.1z"/>
		<path d="M1271.4,152h11.3v9.9c1.1-3.1,3.1-5.5,5.8-7.7c2.7-2.2,6-3.3,10-3.3c1.8,0,3.3,0,4.2,0.2s1.6,0.2,2,0.4v11
			c-1.3-0.4-2.4-0.7-3.3-0.9c-1.1-0.2-2.2-0.2-3.8-0.2c-2.4,0-4.4,0.4-6.2,1.3s-3.1,2-4.2,3.3s-2,2.9-2.4,4.6
			c-0.4,1.8-0.9,3.7-0.9,5.5v34.2h-12.2V152H1271.4z"/>
		<path d="M1336.3,211.7c-4,0-7.5-0.7-11.1-1.8c-3.5-1.1-6.4-3.1-9.1-5.5c-2.7-2.4-4.7-5.5-6.2-9.3s-2.2-8.2-2.2-13.2v-2.2
			c0-4.9,0.7-9,2.2-12.6c1.6-3.5,3.5-6.6,6-9c2.7-2.4,5.5-4.2,8.9-5.3s6.9-1.8,10.6-1.8c8.9,0,15.7,2.4,20.6,7.1
			c4.7,4.9,7.1,11.7,7.1,20.5v6.2h-43c0,3.1,0.7,5.5,1.6,7.7c0.9,2,2.2,3.7,3.5,5.1c1.6,1.3,3.3,2.2,5.3,2.9c2,0.7,4,0.9,6,0.9
			c4.2,0,7.3-0.7,9.3-2c2-1.3,3.3-3.1,4-5.1h12.2c-1.1,5.7-4,10.1-8.6,13.2C1348.5,210.2,1342.9,211.7,1336.3,211.7z M1335.6,161.4
			c-2,0-4,0.2-6,0.9c-2,0.4-3.5,1.3-4.9,2.4c-1.6,1.1-2.7,2.6-3.5,4.4c-0.9,1.8-1.3,4-1.6,6.6h31c0-2.6-0.4-5.1-1.3-6.8
			c-0.7-1.8-1.8-3.3-3.1-4.4c-1.3-1.1-2.9-2-4.7-2.4C1339.8,161.7,1337.8,161.4,1335.6,161.4z"/>
		<path d="M1396.1,152h11.3v9.9c1.1-3.1,3.1-5.5,5.8-7.7c2.7-2.2,6-3.3,10-3.3c1.8,0,3.3,0,4.2,0.2s1.6,0.2,2,0.4v11
			c-1.3-0.4-2.4-0.7-3.3-0.9c-1.1-0.2-2.2-0.2-3.8-0.2c-2.4,0-4.4,0.4-6.2,1.3s-3.1,2-4.2,3.3s-2,2.9-2.4,4.6
			c-0.4,1.8-0.9,3.7-0.9,5.5v34.2h-12.2V152H1396.1z"/>
		<path d="M1460.8,211.7c-4,0-7.5-0.7-11.1-1.8c-3.5-1.1-6.4-3.1-9.1-5.5c-2.7-2.4-4.7-5.5-6.2-9.3s-2.2-8.2-2.2-13.2v-2.2
			c0-4.9,0.7-9,2.2-12.6c1.6-3.5,3.5-6.6,6-9c2.7-2.4,5.5-4.2,8.9-5.3s6.9-1.8,10.6-1.8c8.9,0,15.7,2.4,20.6,7.1
			c4.7,4.9,7.1,11.7,7.1,20.5v6.2h-43c0,3.1,0.7,5.5,1.6,7.7c0.9,2,2.2,3.7,3.5,5.1c1.6,1.3,3.3,2.2,5.3,2.9c2,0.7,4,0.9,6,0.9
			c4.2,0,7.3-0.7,9.3-2c2-1.3,3.3-3.1,4-5.1h12.2c-1.1,5.7-4,10.1-8.6,13.2C1473,210.2,1467.5,211.7,1460.8,211.7z M1460.4,161.4
			c-2,0-4,0.2-6,0.9c-2,0.4-3.5,1.3-4.9,2.4c-1.6,1.1-2.7,2.6-3.5,4.4c-0.9,1.8-1.3,4-1.6,6.6h30.8c0-2.6-0.4-5.1-1.3-6.8
			c-0.7-1.8-1.8-3.3-3.1-4.4c-1.3-1.1-2.9-2-4.7-2.4C1464.4,161.7,1462.4,161.4,1460.4,161.4z"/>
		<path d="M1489.2,152h13.3l18,45.2l16.2-45.2h12.4l-22.6,58.4h-12.2L1489.2,152z"/>
		<path d="M1579.4,211.7c-4,0-7.5-0.7-11.1-1.8c-3.5-1.1-6.4-3.1-9.1-5.5c-2.7-2.4-4.7-5.5-6.2-9.3s-2.2-8.2-2.2-13.2v-2.2
			c0-4.9,0.7-9,2.2-12.6c1.6-3.5,3.5-6.6,6-9c2.7-2.4,5.5-4.2,8.9-5.3s6.9-1.8,10.6-1.8c8.9,0,15.7,2.4,20.6,7.1
			c4.7,4.9,7.1,11.7,7.1,20.5v6.2h-43c0,3.1,0.7,5.5,1.6,7.7c0.9,2,2.2,3.7,3.5,5.1c1.6,1.3,3.3,2.2,5.3,2.9c2,0.7,4,0.9,6,0.9
			c4.2,0,7.3-0.7,9.3-2c2-1.3,3.3-3.1,4-5.1h12.2c-1.1,5.7-4,10.1-8.6,13.2C1591.6,210.2,1586,211.7,1579.4,211.7z M1578.9,161.4
			c-2,0-4,0.2-6,0.9c-2,0.4-3.5,1.3-4.9,2.4c-1.6,1.1-2.7,2.6-3.5,4.4c-0.9,1.8-1.3,4-1.6,6.6h30.8c0-2.6-0.4-5.1-1.3-6.8
			c-0.7-1.8-1.8-3.3-3.1-4.4c-1.3-1.1-2.9-2-4.7-2.4C1582.9,161.7,1580.9,161.4,1578.9,161.4z"/>
		<path d="M1615.5,152h11.3v9.9c1.3-2.9,3.8-5.5,6.9-7.7c3.1-2.2,7.3-3.3,12.2-3.3c7.1,0,12.6,2,16.2,5.7c3.5,4,5.5,9.5,5.5,17v36.8
			h-12.2v-34.2c0-4.9-1.1-8.6-3.1-11c-2-2.4-5.5-3.7-10.2-3.7c-2.7,0-4.9,0.4-6.6,1.3s-3.3,2-4.4,3.3c-1.1,1.3-2,2.9-2.7,4.6
			c-0.4,1.8-0.9,3.7-0.9,5.5v34.2h-12.2V152H1615.5z"/>
		<path d="M1700.2,211.7c-6.9,0-12.2-2-15.7-6c-3.5-4-5.3-10.1-5.3-18.3v-35.3h12.2v34.2c0,4.9,1.1,8.6,3.1,11
			c2,2.4,5.3,3.7,9.8,3.7c2.4,0,4.4-0.4,6.2-1.1c1.8-0.9,3.1-2,4.2-3.3c1.1-1.3,2-3.1,2.4-4.9c0.4-1.8,0.9-3.7,0.9-5.5V152h12.2
			v58.4h-11.3v-9.9c-1.3,3.1-3.8,5.5-6.9,7.7C1709,210.6,1705,211.7,1700.2,211.7z"/>
		<path d="M1768.4,211.7c-4,0-7.5-0.7-11.1-1.8c-3.5-1.1-6.4-3.1-9.1-5.5c-2.7-2.4-4.7-5.5-6.2-9.3s-2.2-8.2-2.2-13.2v-2.2
			c0-4.9,0.7-9,2.2-12.6c1.6-3.5,3.5-6.6,6-9c2.7-2.4,5.5-4.2,8.9-5.3s6.9-1.8,10.6-1.8c8.9,0,15.7,2.4,20.6,7.1
			c4.7,4.9,7.1,11.7,7.1,20.5v6.2h-43c0,3.1,0.7,5.5,1.6,7.7c0.9,2,2.2,3.7,3.5,5.1c1.6,1.3,3.3,2.2,5.3,2.9c2,0.7,4,0.9,6,0.9
			c4.2,0,7.3-0.7,9.3-2c2-1.3,3.3-3.1,4-5.1h12.2c-1.1,5.7-4,10.1-8.6,13.2C1780.6,210.2,1775.1,211.7,1768.4,211.7z M1767.8,161.4
			c-2,0-4,0.2-6,0.9c-2,0.4-3.5,1.3-4.9,2.4c-1.6,1.1-2.7,2.6-3.5,4.4c-0.9,1.8-1.3,4-1.6,6.6h31c0-2.6-0.4-5.1-1.3-6.8
			c-0.7-1.8-1.8-3.3-3.1-4.4c-1.3-1.1-2.9-2-4.7-2.4C1772,161.7,1770,161.4,1767.8,161.4z"/>
	</g>
	<polygon points="222.7,136.5 233.4,157.7 256.8,161 239.8,177.3 243.8,200.5 222.7,189.7 201.7,200.5 205.7,177.3 188.6,161 
		212.3,157.7 	"/>
</g>
</svg>
