<?xml version="1.0" encoding="utf-8"?>
<!-- Generator: Adobe Illustrator 27.0.0, SVG Export Plug-In . SVG Version: 6.00 Build 0)  -->
<svg version="1.1" id="Layer_1" xmlns="http://www.w3.org/2000/svg" xmlns:xlink="http://www.w3.org/1999/xlink" x="0px" y="0px"
	 viewBox="0 0 2048 259" style="enable-background:new 0 0 2048 259;" xml:space="preserve">
<style type="text/css">
	.st0{fill:#F4F4B0;}
</style>
<g>
	<path class="st0" d="M130.1,0h1787.9c71.8,0,130.1,58,130.1,129.5l0,0c0,71.5-58.2,129.5-130.1,129.5H130.1C58.2,259,0,201,0,129.5
		l0,0C-0.2,58,58.1,0,130.1,0z"/>
	<g>
		<path d="M113.2,160.9c-5.2,0-9.5-1.1-12.8-3.3c-3.3-2.3-5.4-5.9-6.2-10.8h10.1c0.7,1.8,1.6,3.1,3.1,3.9c1.5,0.8,3.4,1.1,5.7,1.1
			c1.8,0,3.4-0.3,5.1-0.8c1.6-0.7,2.9-1.6,4.3-3.1c1.1-1.5,2.1-3.4,2.9-6c0.7-2.4,1.1-5.7,1.1-9.4c-0.7,1.3-1.6,2.3-2.8,3.1
			c-1.1,0.8-2.3,1.6-3.6,2.1c-1.3,0.5-2.8,1-4.1,1.1c-1.5,0.3-2.8,0.3-4.1,0.3c-6.1,0-10.6-1.6-14.1-4.9s-5.1-8-5.1-13.8v-0.8
			c0-2.9,0.5-5.5,1.6-8c1-2.4,2.5-4.6,4.4-6.2c1.8-1.8,4.1-3.1,6.5-4.1c2.6-1,5.2-1.5,8.2-1.5c3.6,0,6.7,0.5,9.5,1.6
			c2.8,1.1,5.1,2.8,7,4.9c2,2.3,3.4,5,4.4,8.6c1,3.4,1.5,7.7,1.5,12.4v1.6c0,5.7-0.7,10.6-1.8,14.7c-1.1,4.1-2.8,7.3-4.9,9.8
			c-2.1,2.6-4.4,4.4-7.2,5.5C119.4,160.3,116.5,160.9,113.2,160.9z M114.4,131.3c3.4,0,6.1-1,8.2-2.9c2.1-2,3.1-4.6,3.1-7.7v-0.8
			c0-1.5-0.3-2.9-0.8-4.2c-0.5-1.3-1.3-2.4-2.3-3.4s-2.1-1.8-3.6-2.3c-1.3-0.5-2.9-0.8-4.6-0.8c-3.4,0-6.1,1-8.2,2.9
			c-2.1,2-3.1,4.6-3.1,7.8v0.8c0,3.1,1,5.7,3.1,7.7S110.9,131.3,114.4,131.3z"/>
		<path d="M165.1,160.9c-3.6,0-6.7-0.5-9.5-1.3c-2.8-0.8-5.1-2-6.9-3.4c-1.8-1.5-3.3-3.3-4.3-5.4c-1-2.1-1.5-4.4-1.5-6.8
			c0-3.4,1-6.4,3.1-9c2.1-2.6,5.2-4.6,9.3-5.5c-1.5-0.5-2.9-1.1-4.3-2c-1.3-0.8-2.5-1.8-3.4-3.1c-1-1.1-1.8-2.4-2.3-3.9
			c-0.5-1.5-0.8-2.9-0.8-4.7c0-2.3,0.5-4.4,1.3-6.4c1-2,2.3-3.6,3.9-5c1.8-1.5,3.9-2.6,6.4-3.3c2.5-0.8,5.4-1.1,8.7-1.1
			c3.3,0,6.2,0.3,8.7,1.1c2.6,0.8,4.7,2,6.4,3.3c1.8,1.5,2.9,3.1,3.9,5c0.8,2,1.3,4.1,1.3,6.4c0,3.4-1,6.2-3.1,8.5
			c-2,2.3-4.6,4.1-7.7,5.2c4.1,1.3,7.2,3.1,9.3,5.5c2.1,2.4,3.1,5.4,3.1,9.1c0,2.4-0.5,4.7-1.5,6.8c-1,2.1-2.5,3.9-4.3,5.4
			c-1.8,1.5-4.1,2.6-6.9,3.4C171.8,160.4,168.5,160.9,165.1,160.9z M165.1,152c4.1,0,7-0.8,9-2.4s2.9-3.7,2.9-6.2
			c0-2.9-1.1-5.2-3.4-6.8c-2.3-1.8-5.1-2.8-8.5-3.3c-3.4,0.5-6.2,1.5-8.5,3.3c-2.3,1.8-3.4,4.1-3.4,6.8c0,2.6,1,4.6,2.9,6.2
			C158.2,151.2,161.1,152,165.1,152z M165.1,125.9c2.9-0.5,5.4-1.5,7.4-2.9s2.8-3.6,2.8-6.5c0-2.6-1-4.4-2.8-5.7
			c-1.8-1.3-4.3-2-7.4-2c-3.1,0-5.6,0.7-7.4,2c-1.8,1.3-2.8,3.3-2.8,5.9c0,2.9,1,5,2.9,6.5C159.7,124.5,162.1,125.4,165.1,125.9z"/>
		<path d="M205.3,128.8c-2.1,0-3.9-0.3-5.7-1s-3.3-1.6-4.4-2.9c-1.1-1.3-2.1-2.8-2.8-4.4c-0.7-1.8-1-3.6-1-5.7V114
			c0-2.1,0.3-3.9,1-5.7c0.7-1.8,1.6-3.3,2.8-4.4c1.1-1.3,2.6-2.1,4.4-2.9c1.8-0.7,3.6-1,5.7-1s3.9,0.3,5.7,1
			c1.6,0.7,3.1,1.6,4.4,2.9c1.3,1.3,2.1,2.8,2.9,4.4c0.7,1.8,1,3.6,1,5.7v0.8c0,2.1-0.3,3.9-1,5.7c-0.7,1.8-1.6,3.3-2.9,4.4
			c-1.3,1.3-2.8,2.1-4.4,2.9C209.2,128.5,207.4,128.8,205.3,128.8z M240.2,100.8h10.1L209.6,160h-10.1L240.2,100.8z M205.3,121.2
			c1.5,0,2.8-0.5,3.6-1.5c1-1,1.3-2.6,1.3-4.9V114c0-2.3-0.5-3.9-1.3-4.9c-1-1-2.1-1.5-3.6-1.5s-2.8,0.5-3.6,1.5
			c-1,1-1.3,2.6-1.3,4.9v0.8c0,2.3,0.5,3.9,1.3,4.9C202.5,120.7,203.8,121.2,205.3,121.2z M244.2,160.8c-2.1,0-3.9-0.3-5.7-1
			c-1.8-0.7-3.3-1.6-4.4-2.9c-1.1-1.3-2.1-2.8-2.8-4.4c-0.7-1.8-1-3.6-1-5.7V146c0-2.1,0.3-3.9,1-5.7c0.7-1.8,1.6-3.3,2.8-4.4
			c1.1-1.3,2.6-2.1,4.4-2.9c1.8-0.7,3.6-1,5.7-1s3.9,0.3,5.7,1c1.6,0.7,3.1,1.6,4.4,2.9c1.3,1.3,2.1,2.8,2.9,4.4
			c0.7,1.8,1,3.6,1,5.7v0.8c0,2.1-0.3,3.9-1,5.7c-0.7,1.8-1.6,3.3-2.9,4.4c-1.3,1.3-2.8,2.1-4.4,2.9
			C248.3,160.4,246.4,160.8,244.2,160.8z M244.2,153.3c1.5,0,2.8-0.5,3.6-1.5c1-1,1.3-2.6,1.3-4.9v-0.8c0-2.3-0.5-3.9-1.3-4.9
			c-1-1-2.1-1.5-3.6-1.5c-1.5,0-2.8,0.5-3.6,1.5c-1,1-1.3,2.6-1.3,4.9v0.8c0,2.3,0.5,3.9,1.3,4.9
			C241.6,152.6,242.8,153.3,244.2,153.3z"/>
		<path d="M301.2,160.9c-3.1,0-5.9-0.5-8.5-1.5c-2.6-1-4.7-2.3-6.7-4.2c-2-2-3.4-4.2-4.4-7.2c-1.1-2.9-1.6-6.2-1.6-10.1v-1.6
			c0-3.6,0.5-6.8,1.6-9.6c1.1-2.8,2.6-5,4.6-7c2-1.8,4.3-3.3,6.7-4.2c2.6-1,5.2-1.5,8.2-1.5c2.9,0,5.6,0.3,7.9,1.1
			c2.3,0.8,4.3,1.8,5.9,3.3c1.6,1.3,2.9,2.9,3.9,4.9c1,1.8,1.6,3.9,2,6h-9.5c-0.5-2.1-1.6-3.7-3.1-5.2c-1.5-1.3-3.8-2-7-2
			c-1.6,0-3.1,0.3-4.4,0.8c-1.5,0.5-2.6,1.3-3.8,2.4c-1.1,1.1-2,2.6-2.6,4.4c-0.7,1.8-1,3.9-1,6.4v1.6c0,2.6,0.3,4.9,1,6.8
			c0.7,2,1.5,3.4,2.6,4.6c1.1,1.1,2.3,2.1,3.8,2.6c1.5,0.5,2.9,0.8,4.4,0.8c5.2,0,8.7-2.4,10-7.2h9.5c-0.5,2.4-1.3,4.6-2.3,6.4
			c-1.1,2-2.5,3.4-4.3,4.9c-1.6,1.3-3.6,2.3-5.9,3.1C306.1,160.6,303.6,160.9,301.2,160.9z"/>
		<path d="M327.5,100.8h9.3v21.5c0.5-1,1.1-2,2-2.9c0.8-1,1.8-1.8,2.9-2.6c1.1-0.7,2.5-1.3,3.9-1.8c1.5-0.5,3.3-0.7,5.1-0.7
			c5.6,0,9.7,1.5,12.4,4.4c2.8,2.9,4.1,7.3,4.1,13v28.3h-9.3v-26.2c0-3.7-0.8-6.7-2.5-8.5c-1.6-2-4.3-2.9-7.9-2.9
			c-2,0-3.6,0.3-5.1,1c-1.3,0.7-2.5,1.5-3.4,2.6c-0.8,1-1.5,2.3-2,3.6s-0.7,2.8-0.7,4.2v26.2h-9V100.8z"/>
		<path d="M396.2,160.9c-2.9,0-5.9-0.5-8.5-1.5s-5.1-2.3-7-4.2c-2-2-3.6-4.2-4.7-7.2c-1.1-2.9-1.8-6.2-1.8-10.1v-1.6
			c0-3.7,0.5-7,1.6-9.8c1.1-2.8,2.6-5,4.6-6.8c2-1.8,4.3-3.3,6.7-4.1c2.6-1,5.2-1.3,8.2-1.3c6.9,0,12.1,1.8,15.7,5.5
			c3.6,3.6,5.4,9,5.4,15.6v4.7h-32.9c0,2.3,0.5,4.2,1.1,5.9c0.7,1.6,1.6,2.9,2.8,3.9s2.5,1.6,3.9,2.1c1.5,0.5,3.1,0.7,4.6,0.7
			c3.3,0,5.6-0.5,7-1.5s2.5-2.3,3.1-3.9h9.3c-1,4.4-3.1,7.8-6.7,10.1C405.4,159.8,401.1,160.9,396.2,160.9z M395.7,122.3
			c-1.6,0-3.1,0.2-4.6,0.7c-1.5,0.3-2.8,1-3.8,2c-1.1,0.8-2,2-2.6,3.4c-0.7,1.3-1,3.1-1.1,5h23.6c0-2.1-0.3-3.9-1-5.2
			c-0.7-1.3-1.5-2.6-2.5-3.4c-1-0.8-2.3-1.5-3.6-1.8C398.8,122.5,397.4,122.3,395.7,122.3z"/>
		<path d="M442.4,160.9c-3.1,0-5.9-0.5-8.5-1.5c-2.6-1-4.7-2.3-6.7-4.2s-3.4-4.2-4.4-7.2c-1.1-2.9-1.6-6.2-1.6-10.1v-1.6
			c0-3.6,0.5-6.8,1.6-9.6c1.1-2.8,2.6-5,4.6-7c2-1.8,4.3-3.3,6.7-4.2c2.6-1,5.2-1.5,8.2-1.5c2.9,0,5.6,0.3,7.9,1.1
			c2.3,0.8,4.3,1.8,5.9,3.3c1.6,1.3,2.9,2.9,3.9,4.9c1,1.8,1.6,3.9,2,6h-9.5c-0.5-2.1-1.6-3.7-3.1-5.2c-1.5-1.3-3.8-2-7-2
			c-1.6,0-3.1,0.3-4.4,0.8c-1.5,0.5-2.6,1.3-3.8,2.4c-1.1,1.1-2,2.6-2.6,4.4s-1,3.9-1,6.4v1.6c0,2.6,0.3,4.9,1,6.8s1.5,3.4,2.6,4.6
			c1.1,1.1,2.3,2.1,3.8,2.6c1.5,0.5,2.9,0.8,4.4,0.8c5.2,0,8.7-2.4,10-7.2h9.5c-0.5,2.4-1.3,4.6-2.3,6.4c-1.1,2-2.5,3.4-4.3,4.9
			c-1.6,1.3-3.6,2.3-5.9,3.1C447.3,160.6,445,160.9,442.4,160.9z"/>
		<path d="M468.7,100.8h9.3v33.9l18.6-19.5h11l-18.2,19.1l19.8,25.7h-11.1l-14.9-19.9l-5.4,5.4V160h-9.3v-59.1H468.7z"/>
		<path d="M533.1,115.2h8.7v7.7c1-2.3,2.5-4.2,4.4-6c2.1-1.6,4.6-2.6,7.7-2.6c1.5,0,2.5,0,3.1,0.2c0.7,0.2,1.1,0.2,1.5,0.3v8.5
			c-1-0.3-1.8-0.5-2.6-0.7c-0.8-0.2-1.8-0.2-2.9-0.2c-1.8,0-3.4,0.3-4.7,1c-1.3,0.7-2.5,1.5-3.3,2.6s-1.5,2.3-2,3.6
			c-0.5,1.3-0.7,2.8-0.7,4.2V160H533v-44.8H533.1z"/>
		<path d="M582.7,160.9c-2.9,0-5.9-0.5-8.5-1.5s-5.1-2.3-7-4.2s-3.6-4.2-4.7-7.2c-1.1-2.9-1.8-6.2-1.8-10.1v-1.6
			c0-3.7,0.5-7,1.6-9.8c1.1-2.8,2.6-5,4.6-6.8c2-1.8,4.3-3.3,6.7-4.1c2.6-1,5.2-1.3,8.2-1.3c6.9,0,12.1,1.8,15.7,5.5
			c3.6,3.6,5.4,9,5.4,15.6v4.7H570c0,2.3,0.5,4.2,1.1,5.9c0.7,1.6,1.6,2.9,2.8,3.9s2.5,1.6,3.9,2.1c1.5,0.5,3.1,0.7,4.6,0.7
			c3.3,0,5.6-0.5,7-1.5c1.5-1,2.5-2.3,3.1-3.9h9.3c-1,4.4-3.1,7.8-6.7,10.1C592,159.8,587.8,160.9,582.7,160.9z M582.4,122.3
			c-1.6,0-3.1,0.2-4.6,0.7c-1.5,0.3-2.8,1-3.8,2c-1.1,0.8-2,2-2.6,3.4c-0.7,1.3-1,3.1-1.1,5h23.6c0-2.1-0.3-3.9-1-5.2
			c-0.7-1.3-1.5-2.6-2.5-3.4c-1-0.8-2.3-1.5-3.6-1.8C585.3,122.5,583.9,122.3,582.4,122.3z"/>
		<path d="M604.3,115.2h10.1l13.7,34.7l12.4-34.7h9.5L632.8,160h-9.3L604.3,115.2z"/>
		<path d="M661.2,110.1c-1.8,0-3.1-0.5-4.3-1.6s-1.6-2.4-1.6-4.2c0-1.8,0.5-3.1,1.6-4.2c1.1-1.1,2.5-1.6,4.3-1.6
			c1.8,0,3.1,0.5,4.3,1.6c1.1,1.1,1.6,2.4,1.6,4.2c0,1.8-0.5,3.1-1.6,4.2S663,110.1,661.2,110.1z M656.5,115.2h9.3V160h-9.3V115.2z"
			/>
		<path d="M695.9,160.9c-2.9,0-5.9-0.5-8.5-1.5c-2.6-1-5.1-2.3-7-4.2s-3.6-4.2-4.7-7.2c-1.1-2.9-1.8-6.2-1.8-10.1v-1.6
			c0-3.7,0.5-7,1.6-9.8c1.1-2.8,2.6-5,4.6-6.8c2-1.8,4.3-3.3,6.7-4.1c2.6-1,5.2-1.3,8.2-1.3c6.9,0,12.1,1.8,15.7,5.5
			c3.6,3.6,5.4,9,5.4,15.6v4.7h-32.9c0,2.3,0.5,4.2,1.1,5.9c0.7,1.6,1.6,2.9,2.8,3.9s2.5,1.6,3.9,2.1c1.5,0.5,3.1,0.7,4.6,0.7
			c3.3,0,5.6-0.5,7-1.5s2.5-2.3,3.1-3.9h9.3c-1,4.4-3.1,7.8-6.7,10.1C705.2,159.8,701,160.9,695.9,160.9z M695.6,122.3
			c-1.6,0-3.1,0.2-4.6,0.7c-1.5,0.3-2.8,1-3.8,2c-1.1,0.8-2,2-2.6,3.4c-0.7,1.3-1,3.1-1.1,5H707c0-2.1-0.3-3.9-1-5.2
			c-0.7-1.3-1.5-2.6-2.5-3.4c-1-0.8-2.3-1.5-3.6-1.8C698.7,122.5,697.1,122.3,695.6,122.3z"/>
		<path d="M719.3,115.2h9.8l8.2,32.9l10.3-32.9h8.5l11,32.9l8.2-32.9h9.2L772.2,160h-9.3l-11.1-32.9L740.9,160h-9.3L719.3,115.2z"/>
		<path d="M807.2,160.9c-3.3,0-6.2-0.3-8.5-1.1c-2.3-0.7-4.3-1.8-5.9-2.9c-1.6-1.3-2.8-2.8-3.6-4.4c-0.8-1.6-1.3-3.4-1.6-5.2h9.3
			c0.3,1.6,1.3,2.9,2.9,3.9s3.9,1.6,7.4,1.6c3.8,0,6.4-0.5,7.9-1.5c1.5-1,2.3-2.3,2.3-3.9c0-0.7-0.2-1.5-0.7-2.1
			c-0.3-0.7-1-1.3-2-1.8c-0.8-0.5-2.1-1-3.6-1.5c-1.5-0.5-3.3-0.8-5.6-1.1c-2.6-0.3-4.9-0.8-7-1.5c-2.1-0.7-3.9-1.5-5.4-2.6
			c-1.5-1.1-2.6-2.4-3.4-3.9c-0.8-1.5-1.1-3.4-1.1-5.5c0-1.8,0.3-3.6,1.1-5c0.8-1.5,1.8-2.9,3.4-4.2c1.5-1.1,3.4-2.1,5.7-2.8
			c2.3-0.7,4.9-1,8-1c2.9,0,5.6,0.3,7.7,1.1c2.1,0.7,3.9,1.8,5.4,2.9c1.5,1.3,2.6,2.8,3.3,4.4c0.8,1.6,1.3,3.4,1.5,5.2h-9.3
			c-0.5-1.8-1.3-3.1-2.8-4.1c-1.3-1-3.3-1.5-5.7-1.5c-3.3,0-5.7,0.5-7,1.5s-2,2.1-2,3.6c0,0.8,0.2,1.5,0.5,2.1
			c0.3,0.7,1,1.1,1.6,1.6c0.8,0.5,1.8,1,3.3,1.3c1.3,0.3,3.1,0.7,5.2,1c2.6,0.3,5.1,0.8,7.2,1.5c2.1,0.7,4.1,1.6,5.6,2.6
			c1.6,1.1,2.8,2.4,3.6,4.1c0.8,1.6,1.3,3.4,1.3,5.5c0,2-0.5,3.7-1.3,5.4c-0.8,1.6-2,3.1-3.6,4.2s-3.6,2.1-6.1,2.9
			C813.2,160.6,810.3,160.9,807.2,160.9z"/>
		<path d="M876,160.9c-3.8,0-6.9-0.8-9.7-2.6c-2.6-1.6-4.6-3.6-5.6-5.9v7.5h-8.7v-59.1h9.3v21.5c1.5-2.3,3.3-4.2,5.9-5.7
			c2.5-1.5,5.4-2.3,8.8-2.3c5.9,0,10.5,1.8,13.9,5.5c3.4,3.6,5.1,9.1,5.1,16.6v1.6c0,3.9-0.5,7.2-1.3,10.1c-1,2.9-2.1,5.2-3.9,7.2
			c-1.6,2-3.6,3.3-6.1,4.2C881.4,160.4,878.8,160.9,876,160.9z M873.7,152.8c3.4,0,6.2-1.1,8.3-3.6c2.1-2.4,3.3-6.2,3.3-11.1v-1.6
			c0-4.7-1-8.3-3.1-10.6c-2.1-2.3-4.9-3.4-8.5-3.4c-1.6,0-3.3,0.3-4.7,0.8c-1.5,0.5-2.8,1.3-3.9,2.3s-2.1,2.3-2.8,3.7
			c-0.7,1.5-1,3.3-1,5v5.9c0,2.1,0.3,4.1,1,5.5c0.7,1.6,1.6,2.9,2.8,3.9c1.1,1.1,2.5,1.8,3.9,2.4
			C870.5,152.5,872.1,152.8,873.7,152.8z"/>
		<path d="M921.7,160.9c-2.9,0-5.9-0.5-8.5-1.5c-2.6-1-5.1-2.3-7-4.2s-3.6-4.2-4.7-7.2c-1.1-2.9-1.8-6.2-1.8-10.1v-1.6
			c0-3.7,0.5-7,1.6-9.8c1.1-2.8,2.6-5,4.6-6.8c2-1.8,4.3-3.3,6.7-4.1c2.6-1,5.2-1.3,8.2-1.3c6.9,0,12.1,1.8,15.7,5.5
			c3.6,3.6,5.4,9,5.4,15.6v4.7h-32.9c0,2.3,0.5,4.2,1.1,5.9c0.7,1.6,1.6,2.9,2.8,3.9c1.1,1,2.5,1.6,3.9,2.1c1.5,0.5,3.1,0.7,4.6,0.7
			c3.3,0,5.6-0.5,7-1.5c1.5-1,2.5-2.3,3.1-3.9h9.3c-1,4.4-3.1,7.8-6.7,10.1C930.8,159.8,926.6,160.9,921.7,160.9z M921.2,122.3
			c-1.6,0-3.1,0.2-4.6,0.7c-1.5,0.3-2.8,1-3.8,2s-2,2-2.6,3.4c-0.7,1.3-1,3.1-1.1,5h23.6c0-2.1-0.3-3.9-1-5.2
			c-0.7-1.5-1.5-2.6-2.5-3.4c-1-0.8-2.3-1.5-3.6-1.8C924.3,122.5,922.8,122.3,921.2,122.3z"/>
		<path d="M950.8,123.1h-5.9v-8h5.9v-1.3c0-4.4,1.1-7.8,3.4-10.1c2.3-2.3,6.1-3.4,11.5-3.4c1.6,0,3.8,0.2,6.4,0.3v8.1
			c-0.8-0.2-1.8-0.2-2.8-0.2c-1,0-2,0-2.8,0c-2.5,0-4.1,0.5-4.9,1.3c-1,0.8-1.5,2.4-1.5,4.6v0.7h11v8h-11V160h-9.3V123.1z"/>
		<path d="M995.8,160.9c-3.1,0-6.1-0.5-8.7-1.5c-2.6-1-5.1-2.4-7-4.4c-2-2-3.6-4.2-4.7-7.2c-1.1-2.8-1.6-6.2-1.6-9.9v-1.6
			c0-3.6,0.5-6.7,1.6-9.4s2.6-5,4.7-7c2-2,4.3-3.3,7-4.2c2.6-1,5.6-1.5,8.7-1.5c3.1,0,6.1,0.5,8.7,1.5c2.6,1,5.1,2.4,7,4.2
			c2,1.8,3.6,4.2,4.7,7c1.1,2.8,1.6,5.9,1.6,9.4v1.6c0,3.7-0.5,7-1.6,9.9c-1.1,2.8-2.6,5.2-4.7,7.2c-2.1,2-4.3,3.4-7,4.4
			C1001.8,160.4,998.9,160.9,995.8,160.9z M995.8,152.8c1.6,0,3.3-0.3,4.7-0.8c1.5-0.5,2.8-1.5,3.9-2.6s2.1-2.8,2.8-4.6
			c0.7-1.8,1-4.1,1-6.7v-1.6c0-2.4-0.3-4.6-1-6.2c-0.7-1.8-1.6-3.3-2.8-4.2c-1.1-1.1-2.5-2-3.9-2.6c-1.5-0.5-3.1-0.8-4.7-0.8
			s-3.3,0.3-4.7,0.8s-2.8,1.5-3.9,2.6s-2.1,2.6-2.8,4.2c-0.7,1.8-1,3.9-1,6.2v1.6c0,2.6,0.3,4.9,1,6.7c0.7,1.8,1.6,3.4,2.8,4.6
			c1.1,1.1,2.5,2.1,3.9,2.6C992.7,152.5,994.1,152.8,995.8,152.8z"/>
		<path d="M1025.1,115.2h8.7v7.7c1-2.3,2.5-4.2,4.4-6c2.1-1.6,4.6-2.6,7.7-2.6c1.5,0,2.5,0,3.1,0.2c0.7,0.2,1.1,0.2,1.5,0.3v8.5
			c-1-0.3-1.8-0.5-2.6-0.7c-0.8-0.2-1.8-0.2-2.9-0.2c-1.8,0-3.4,0.3-4.7,1c-1.3,0.7-2.5,1.5-3.3,2.6s-1.5,2.3-2,3.6
			s-0.7,2.8-0.7,4.2V160h-9.3v-44.8H1025.1z"/>
		<path d="M1074.6,160.9c-2.9,0-5.9-0.5-8.5-1.5s-5.1-2.3-7-4.2s-3.6-4.2-4.7-7.2c-1.1-2.9-1.8-6.2-1.8-10.1v-1.6
			c0-3.7,0.5-7,1.6-9.8c1.1-2.8,2.6-5,4.6-6.8c2-1.8,4.3-3.3,6.7-4.1c2.6-1,5.2-1.3,8.2-1.3c6.9,0,12.1,1.8,15.7,5.5
			c3.6,3.6,5.4,9,5.4,15.6v4.7h-32.9c0,2.3,0.5,4.2,1.1,5.9c0.7,1.6,1.6,2.9,2.8,3.9s2.5,1.6,3.9,2.1c1.5,0.5,3.1,0.7,4.6,0.7
			c3.3,0,5.6-0.5,7-1.5s2.5-2.3,3.1-3.9h9.3c-1,4.4-3.1,7.8-6.7,10.1C1084,159.8,1079.7,160.9,1074.6,160.9z M1074.3,122.3
			c-1.6,0-3.1,0.2-4.6,0.7c-1.5,0.3-2.8,1-3.8,2c-1,1-2,2-2.6,3.4c-0.7,1.3-1,3.1-1.1,5h23.6c0-2.1-0.3-3.9-1-5.2
			c-0.7-1.5-1.5-2.6-2.5-3.4c-1-0.8-2.3-1.5-3.6-1.8C1077.4,122.5,1075.8,122.3,1074.3,122.3z"/>
		<path d="M1139.1,160.9c-3.1,0-5.9-0.5-8.5-1.5c-2.6-1-4.7-2.3-6.7-4.2c-2-2-3.4-4.2-4.4-7.2c-1-2.9-1.6-6.2-1.6-10.1v-1.6
			c0-3.6,0.5-6.8,1.6-9.6c1.1-2.8,2.6-5,4.6-7c2-1.8,4.3-3.3,6.7-4.2c2.6-1,5.2-1.5,8.2-1.5c2.9,0,5.6,0.3,7.9,1.1
			c2.3,0.8,4.3,1.8,5.9,3.3c1.6,1.3,2.9,2.9,3.9,4.9s1.6,3.9,2,6h-9.5c-0.5-2.1-1.6-3.7-3.1-5.2c-1.5-1.3-3.8-2-7-2
			c-1.6,0-3.1,0.3-4.4,0.8c-1.5,0.5-2.6,1.3-3.8,2.4c-1.1,1.1-2,2.6-2.6,4.4c-0.7,1.8-1,3.9-1,6.4v1.6c0,2.6,0.3,4.9,1,6.8
			c0.7,2,1.5,3.4,2.6,4.6c1.1,1.1,2.3,2.1,3.8,2.6c1.5,0.5,2.9,0.8,4.4,0.8c5.2,0,8.7-2.4,10-7.2h9.5c-0.5,2.4-1.3,4.6-2.3,6.4
			c-1.1,2-2.5,3.4-4.3,4.9c-1.6,1.3-3.6,2.3-5.9,3.1C1144,160.6,1141.7,160.9,1139.1,160.9z"/>
		<path d="M1165.4,100.8h9.3v21.5c0.5-1,1.1-2,2-2.9c0.8-1,1.8-1.8,2.9-2.6c1.1-0.7,2.5-1.3,3.9-1.8c1.5-0.5,3.3-0.7,5.1-0.7
			c5.6,0,9.7,1.5,12.4,4.4c2.8,2.9,4.1,7.3,4.1,13v28.3h-9.3v-26.2c0-3.7-0.8-6.7-2.5-8.5c-1.6-1.8-4.3-2.9-7.9-2.9
			c-2,0-3.6,0.3-5.1,1c-1.3,0.7-2.5,1.5-3.4,2.6c-0.8,1-1.5,2.3-2,3.6c-0.5,1.3-0.7,2.8-0.7,4.2v26.2h-9.3v-59.3H1165.4z"/>
		<path d="M1234.1,160.9c-3.1,0-6.1-0.5-8.7-1.5c-2.6-1-5.1-2.4-7-4.4c-2-2-3.6-4.2-4.7-7.2c-1.1-2.8-1.6-6.2-1.6-9.9v-1.6
			c0-3.6,0.5-6.7,1.6-9.4s2.6-5,4.7-7c2-2,4.3-3.3,7-4.2c2.6-1,5.6-1.5,8.7-1.5c3.1,0,6.1,0.5,8.7,1.5s5.1,2.4,7,4.2
			c2,1.8,3.6,4.2,4.7,7c1.1,2.8,1.6,5.9,1.6,9.4v1.6c0,3.7-0.5,7-1.6,9.9c-1.1,2.8-2.6,5.2-4.7,7.2c-2.1,2-4.3,3.4-7,4.4
			C1240.2,160.4,1237.2,160.9,1234.1,160.9z M1234.1,152.8c1.6,0,3.3-0.3,4.7-0.8c1.5-0.5,2.8-1.5,3.9-2.6s2.1-2.8,2.8-4.6
			c0.7-1.8,1-4.1,1-6.7v-1.6c0-2.4-0.3-4.6-1-6.2c-0.7-1.8-1.6-3.3-2.8-4.2c-1.1-1.1-2.5-2-3.9-2.6c-1.5-0.5-3.1-0.8-4.7-0.8
			c-1.6,0-3.3,0.3-4.7,0.8c-1.5,0.5-2.8,1.5-3.9,2.6c-1.1,1.1-2.1,2.6-2.8,4.2c-0.7,1.8-1,3.9-1,6.2v1.6c0,2.6,0.3,4.9,1,6.7
			c0.7,1.8,1.6,3.4,2.8,4.6c1.1,1.1,2.5,2.1,3.9,2.6C1231,152.5,1232.5,152.8,1234.1,152.8z"/>
		<path d="M1282.9,160.9c-3.1,0-6.1-0.5-8.7-1.5s-5.1-2.4-7-4.4s-3.6-4.2-4.7-7.2c-1.1-2.8-1.6-6.2-1.6-9.9v-1.6
			c0-3.6,0.5-6.7,1.6-9.4s2.6-5,4.7-7c2-2,4.3-3.3,7-4.2c2.6-1,5.6-1.5,8.7-1.5c3.1,0,6.1,0.5,8.7,1.5c2.6,1,5.1,2.4,7,4.2
			c2,1.8,3.6,4.2,4.7,7c1.1,2.8,1.6,5.9,1.6,9.4v1.6c0,3.7-0.5,7-1.6,9.9c-1.1,2.8-2.6,5.2-4.7,7.2c-2.1,2-4.3,3.4-7,4.4
			C1288.9,160.4,1286,160.9,1282.9,160.9z M1282.9,152.8c1.6,0,3.3-0.3,4.7-0.8c1.5-0.5,2.8-1.5,3.9-2.6s2.1-2.8,2.8-4.6
			c0.7-1.8,1-4.1,1-6.7v-1.6c0-2.4-0.3-4.6-1-6.2c-0.7-1.8-1.6-3.3-2.8-4.2c-1.1-1.1-2.5-2-3.9-2.6c-1.5-0.5-3.1-0.8-4.7-0.8
			c-1.6,0-3.3,0.3-4.7,0.8c-1.5,0.5-2.8,1.5-3.9,2.6s-2.1,2.6-2.8,4.2c-0.7,1.8-1,3.9-1,6.2v1.6c0,2.6,0.3,4.9,1,6.7
			c0.7,1.8,1.6,3.4,2.8,4.6c1.1,1.1,2.5,2.1,3.9,2.6C1279.8,152.5,1281.2,152.8,1282.9,152.8z"/>
		<path d="M1329.2,160.9c-3.3,0-6.2-0.3-8.5-1.1c-2.3-0.7-4.3-1.8-5.9-2.9c-1.6-1.3-2.8-2.8-3.6-4.4c-0.8-1.6-1.3-3.4-1.6-5.2h9.3
			c0.3,1.6,1.3,2.9,2.9,3.9c1.6,1,3.9,1.6,7.4,1.6c3.8,0,6.4-0.5,7.9-1.5c1.5-1,2.3-2.3,2.3-3.9c0-0.7-0.2-1.5-0.7-2.1
			c-0.3-0.7-1-1.3-2-1.8c-0.8-0.5-2.1-1-3.6-1.5c-1.5-0.5-3.3-0.8-5.6-1.1c-2.6-0.3-4.9-0.8-7-1.5c-2.1-0.7-3.9-1.5-5.4-2.6
			c-1.5-1.1-2.6-2.4-3.4-3.9c-0.8-1.5-1.1-3.4-1.1-5.5c0-1.8,0.3-3.6,1.1-5c0.8-1.5,1.8-2.9,3.4-4.2c1.5-1.1,3.4-2.1,5.7-2.8
			c2.3-0.7,4.9-1,8-1c2.9,0,5.6,0.3,7.7,1.1c2.1,0.7,3.9,1.8,5.4,2.9c1.5,1.3,2.6,2.8,3.3,4.4c0.8,1.6,1.3,3.4,1.5,5.2h-9.3
			c-0.5-1.8-1.3-3.1-2.8-4.1c-1.3-1-3.3-1.5-5.7-1.5c-3.3,0-5.7,0.5-7,1.5s-2,2.1-2,3.6c0,0.8,0.2,1.5,0.5,2.1
			c0.3,0.7,1,1.1,1.6,1.6c0.8,0.5,1.8,1,3.3,1.3c1.3,0.3,3.1,0.7,5.2,1c2.6,0.3,5.1,0.8,7.2,1.5c2.1,0.7,4.1,1.6,5.6,2.6
			c1.6,1.1,2.8,2.4,3.6,4.1c0.8,1.6,1.3,3.4,1.3,5.5c0,2-0.5,3.7-1.3,5.4c-0.8,1.6-2,3.1-3.6,4.2c-1.6,1.1-3.6,2.1-6.1,2.9
			C1335.2,160.6,1332.5,160.9,1329.2,160.9z"/>
		<path d="M1361.4,110.1c-1.8,0-3.1-0.5-4.3-1.6c-1.1-1.1-1.6-2.4-1.6-4.2c0-1.8,0.5-3.1,1.6-4.2c1.1-1.1,2.5-1.6,4.3-1.6
			c1.8,0,3.1,0.5,4.3,1.6c1.1,1.1,1.6,2.4,1.6,4.2c0,1.8-0.5,3.1-1.6,4.2S1363.2,110.1,1361.4,110.1z M1356.7,115.2h9.3V160h-9.3
			V115.2z"/>
		<path d="M1376.6,115.2h8.7v7.5c1.1-2.3,2.8-4.2,5.2-5.9c2.5-1.6,5.6-2.6,9.5-2.6c5.6,0,9.7,1.5,12.4,4.4c2.8,2.9,4.1,7.3,4.1,13
			V160h-9.3v-26.2c0-3.7-0.8-6.7-2.5-8.5c-1.6-1.8-4.3-2.9-7.9-2.9c-2,0-3.6,0.3-5.1,1c-1.3,0.7-2.5,1.5-3.4,2.6
			c-0.8,1-1.5,2.3-2,3.6c-0.5,1.3-0.7,2.8-0.7,4.2V160h-9.3v-44.8H1376.6z"/>
		<path d="M1444.5,177.7c-3.4,0-6.4-0.3-8.8-1c-2.5-0.7-4.3-1.6-5.9-2.8c-1.5-1.1-2.6-2.6-3.4-4.2c-0.7-1.6-1.1-3.4-1.5-5.2h9.5
			c0.2,0.7,0.5,1.3,1,2c0.5,0.7,1,1.3,1.8,1.8c0.8,0.5,1.8,1,2.9,1.3c1.1,0.3,2.6,0.5,4.3,0.5c4.3,0,7.4-1,9.3-3.1
			c2-2,2.9-4.9,2.9-8.6V152c-1.5,2.4-3.3,4.2-5.7,5.9c-2.5,1.5-5.4,2.3-8.7,2.3c-2.9,0-5.6-0.5-7.9-1.5c-2.3-1-4.3-2.4-6.1-4.2
			s-2.9-4.2-3.9-7c-1-2.8-1.3-6-1.3-9.8V136c0-3.4,0.5-6.5,1.3-9.3c0.8-2.8,2.1-4.9,3.9-6.7c1.6-1.8,3.6-3.3,6.1-4.2
			c2.3-1,4.9-1.5,7.7-1.5c3.8,0,6.9,0.8,9.7,2.6c2.6,1.6,4.6,3.6,5.6,5.9v-7.7h8.7v42.7c0,6.4-1.8,11.2-5.4,14.7
			C1457.1,176.1,1451.7,177.7,1444.5,177.7z M1444.3,152c1.6,0,3.3-0.3,4.7-0.8c1.5-0.5,2.8-1.3,3.9-2.3s2-2.3,2.8-3.9
			c0.7-1.6,1-3.3,1-5.4v-5.9c0-1.8-0.3-3.4-1-4.9c-0.7-1.5-1.6-2.6-2.8-3.6s-2.5-1.6-3.9-2.1s-3.1-0.8-4.6-0.8
			c-3.6,0-6.4,1.1-8.5,3.3c-2.1,2.3-3.1,5.5-3.1,10.1v1.6c0,4.7,1.1,8.3,3.3,10.8C1438.1,150.7,1440.9,152,1444.3,152z"/>
		<path d="M1507.3,160.9c-2.5,0-4.6-0.3-6.5-1c-2-0.7-3.4-1.6-4.7-2.9c-1.3-1.3-2.3-2.8-2.9-4.4c-0.7-1.6-1-3.6-1-5.5
			c0-4.4,1.3-7.8,3.9-9.9c2.6-2.1,6.5-3.3,11.8-3.3h14.1v-2.4c0-3.4-0.8-5.7-2.3-7c-1.5-1.3-3.9-2-7-2c-2.9,0-5.1,0.5-6.4,1.3
			c-1.3,1-2.1,2.1-2.5,3.7h-9c0.2-2,0.7-3.7,1.5-5.2c0.8-1.6,2.1-2.9,3.6-4.2c1.6-1.1,3.4-2.1,5.6-2.8c2.1-0.7,4.7-1,7.5-1
			s5.2,0.3,7.5,1s4.1,1.6,5.7,2.9c1.6,1.3,2.8,3.1,3.8,5c0.8,2.1,1.3,4.6,1.3,7.5v17.8c0,2.4,0,4.4,0.2,6.2c0,1.8,0.2,3.6,0.5,5.2
			h-8.5c-0.2-1.3-0.3-2.4-0.3-3.3c-0.2-1-0.2-2-0.2-3.4c-1.1,2.1-2.9,3.9-5.6,5.4C1514.7,160.1,1511.1,160.9,1507.3,160.9z
			 M1509.8,152.8c1.6,0,3.1-0.2,4.6-0.7c1.5-0.5,2.8-1,3.8-1.8c1.1-0.8,2-1.8,2.6-3.1c0.7-1.1,1-2.6,1-4.2v-2.4h-12.3
			c-2.5,0-4.3,0.5-5.7,1.5c-1.5,1-2.1,2.4-2.1,4.4c0,1.8,0.7,3.4,2,4.4C1504.9,152.3,1507,152.8,1509.8,152.8z"/>
		<path d="M1558.5,115.2h8.7v7.7c1-2.3,2.5-4.2,4.4-6c2.1-1.6,4.6-2.6,7.7-2.6c1.5,0,2.5,0,3.1,0.2c0.7,0.2,1.1,0.2,1.5,0.3v8.5
			c-1-0.3-1.8-0.5-2.6-0.7c-0.8-0.2-1.8-0.2-2.9-0.2c-1.8,0-3.4,0.3-4.7,1c-1.3,0.7-2.5,1.5-3.3,2.6c-0.8,1.1-1.5,2.3-2,3.6
			c-0.5,1.3-0.7,2.8-0.7,4.2V160h-9.3v-44.8H1558.5z"/>
		<path d="M1608.3,160.9c-2.9,0-5.9-0.5-8.5-1.5s-5.1-2.3-7-4.2s-3.6-4.2-4.7-7.2c-1.1-2.9-1.8-6.2-1.8-10.1v-1.6
			c0-3.7,0.5-7,1.6-9.8c1.1-2.8,2.6-5,4.6-6.8c2-1.8,4.3-3.3,6.7-4.1c2.6-1,5.2-1.3,8.2-1.3c6.9,0,12.1,1.8,15.7,5.5
			c3.6,3.6,5.4,9,5.4,15.6v4.7h-32.9c0,2.3,0.5,4.2,1.1,5.9c0.7,1.6,1.6,2.9,2.8,3.9s2.5,1.6,3.9,2.1c1.5,0.5,3.1,0.7,4.6,0.7
			c3.3,0,5.6-0.5,7-1.5c1.5-1,2.5-2.3,3.1-3.9h9.3c-1,4.4-3.1,7.8-6.7,10.1C1617.6,159.8,1613.2,160.9,1608.3,160.9z M1607.8,122.3
			c-1.6,0-3.1,0.2-4.6,0.7c-1.5,0.3-2.8,1-3.8,2c-1,1-2,2-2.6,3.4c-0.7,1.3-1,3.1-1.1,5h23.6c0-2.1-0.3-3.9-1-5.2
			c-0.7-1.5-1.5-2.6-2.5-3.4c-1-0.8-2.3-1.5-3.6-1.8C1610.9,122.5,1609.4,122.3,1607.8,122.3z"/>
		<path d="M1652.8,160.9c-3.3,0-6.2-0.3-8.5-1.1c-2.3-0.7-4.3-1.8-5.9-2.9c-1.6-1.3-2.8-2.8-3.6-4.4s-1.3-3.4-1.6-5.2h9.3
			c0.3,1.6,1.3,2.9,2.9,3.9c1.6,1,3.9,1.6,7.4,1.6c3.8,0,6.4-0.5,7.9-1.5c1.5-1,2.3-2.3,2.3-3.9c0-0.7-0.2-1.5-0.7-2.1
			c-0.3-0.7-1-1.3-2-1.8c-0.8-0.5-2.1-1-3.6-1.5c-1.5-0.5-3.3-0.8-5.6-1.1c-2.6-0.3-4.9-0.8-7-1.5s-3.9-1.5-5.4-2.6
			c-1.5-1.1-2.6-2.4-3.4-3.9c-0.8-1.5-1.1-3.4-1.1-5.5c0-1.8,0.3-3.6,1.1-5c0.8-1.5,1.8-2.9,3.4-4.2c1.5-1.1,3.4-2.1,5.7-2.8
			c2.3-0.7,4.9-1,8-1c2.9,0,5.6,0.3,7.7,1.1c2.1,0.7,3.9,1.8,5.4,2.9c1.5,1.3,2.6,2.8,3.3,4.4c0.8,1.6,1.3,3.4,1.5,5.2h-9.3
			c-0.5-1.8-1.3-3.1-2.8-4.1c-1.3-1-3.3-1.5-5.7-1.5c-3.3,0-5.7,0.5-7,1.5s-2,2.1-2,3.6c0,0.8,0.2,1.5,0.5,2.1
			c0.3,0.7,1,1.1,1.6,1.6c0.8,0.5,1.8,1,3.3,1.3c1.3,0.3,3.1,0.7,5.2,1c2.6,0.3,5.1,0.8,7.2,1.5c2.1,0.7,4.1,1.6,5.6,2.6
			c1.6,1.1,2.8,2.4,3.6,4.1c0.8,1.6,1.3,3.4,1.3,5.5c0,2-0.5,3.7-1.3,5.4c-0.8,1.6-2,3.1-3.6,4.2c-1.6,1.1-3.6,2.1-6.1,2.9
			C1658.8,160.6,1656,160.9,1652.8,160.9z"/>
		<path d="M1696.8,160.4c-5.1,0-8.8-1.1-11.1-3.3c-2.3-2.1-3.3-5.7-3.3-10.6v-23.5h-6.4v-8h6.4v-10.1h9.3v10.1h11.5v8h-11.5v22
			c0,2.6,0.5,4.6,1.5,5.5c1,1,2.9,1.6,5.7,1.6c1.6,0,3.4-0.2,5.1-0.3v8c-1.1,0.2-2.1,0.2-3.3,0.3
			C1699.6,160.3,1698.2,160.4,1696.8,160.4z"/>
		<path d="M1724.4,160.9c-2.5,0-4.6-0.3-6.5-1c-2-0.7-3.4-1.6-4.7-2.9c-1.3-1.3-2.3-2.8-2.9-4.4s-1-3.6-1-5.5c0-4.4,1.3-7.8,3.9-9.9
			c2.6-2.1,6.5-3.3,11.8-3.3h14.1v-2.4c0-3.4-0.8-5.7-2.3-7c-1.5-1.3-3.9-2-7-2c-2.9,0-5.1,0.5-6.4,1.3c-1.3,1-2.1,2.1-2.5,3.7h-9
			c0.2-2,0.7-3.7,1.5-5.2c0.8-1.6,2.1-2.9,3.6-4.2c1.6-1.1,3.4-2.1,5.6-2.8c2.1-0.7,4.7-1,7.5-1c2.8,0,5.2,0.3,7.5,1
			c2.3,0.7,4.1,1.6,5.7,2.9c1.6,1.3,2.8,3.1,3.8,5c0.8,2.1,1.3,4.6,1.3,7.5v17.8c0,2.4,0,4.4,0.2,6.2c0,1.8,0.2,3.6,0.5,5.2h-8.5
			c-0.2-1.3-0.3-2.4-0.3-3.3c-0.2-1-0.2-2-0.2-3.4c-1.1,2.1-2.9,3.9-5.6,5.4C1731.8,160.1,1728.2,160.9,1724.4,160.9z M1727,152.8
			c1.6,0,3.1-0.2,4.6-0.7c1.5-0.5,2.8-1,3.8-1.8c1.1-0.8,2-1.8,2.6-3.1c0.7-1.1,1-2.6,1-4.2v-2.4h-12.3c-2.5,0-4.3,0.5-5.7,1.5
			c-1.5,1-2.1,2.4-2.1,4.4c0,1.8,0.7,3.4,2,4.4C1722,152.3,1724.1,152.8,1727,152.8z"/>
		<path d="M1773.2,160.9c-5.2,0-9.3-1.5-12.1-4.6c-2.8-3.1-4.1-7.8-4.1-14v-27.2h9.3v26.2c0,3.7,0.8,6.7,2.3,8.5
			c1.6,2,4.1,2.9,7.4,2.9c1.8,0,3.4-0.3,4.7-1c1.3-0.7,2.5-1.5,3.3-2.6c0.8-1.1,1.5-2.3,2-3.7c0.5-1.3,0.7-2.8,0.7-4.2v-26.1h9.3
			V160h-8.7v-7.7c-1.1,2.3-2.8,4.2-5.2,6C1779.9,160.1,1776.8,160.9,1773.2,160.9z"/>
		<path d="M1805.9,115.2h8.7v7.7c1-2.3,2.5-4.2,4.4-6c2.1-1.6,4.6-2.6,7.7-2.6c1.5,0,2.5,0,3.1,0.2c0.7,0.2,1.1,0.2,1.5,0.3v8.5
			c-1-0.3-1.8-0.5-2.6-0.7s-1.8-0.2-2.9-0.2c-1.8,0-3.4,0.3-4.7,1c-1.3,0.7-2.5,1.5-3.3,2.6c-0.8,1.1-1.5,2.3-2,3.6
			c-0.5,1.3-0.7,2.8-0.7,4.2V160h-9.3v-44.8H1805.9z"/>
		<path d="M1848.3,160.9c-2.5,0-4.6-0.3-6.5-1c-2-0.7-3.4-1.6-4.7-2.9c-1.3-1.3-2.3-2.8-2.9-4.4s-1-3.6-1-5.5c0-4.4,1.3-7.8,3.9-9.9
			c2.6-2.1,6.5-3.3,11.8-3.3h14.1v-2.4c0-3.4-0.8-5.7-2.3-7c-1.5-1.3-3.9-2-7-2c-2.9,0-5.1,0.5-6.4,1.3c-1.3,1-2.1,2.1-2.5,3.7h-9
			c0.2-2,0.7-3.7,1.5-5.2c0.8-1.6,2.1-2.9,3.6-4.2c1.6-1.1,3.4-2.1,5.6-2.8c2.1-0.7,4.7-1,7.5-1c2.8,0,5.2,0.3,7.5,1
			c2.3,0.7,4.1,1.6,5.7,2.9c1.6,1.3,2.8,3.1,3.8,5c0.8,2.1,1.3,4.6,1.3,7.5v17.8c0,2.4,0,4.4,0.2,6.2c0,1.8,0.2,3.6,0.5,5.2h-8.5
			c-0.2-1.3-0.3-2.4-0.3-3.3c-0.2-1-0.2-2-0.2-3.4c-1.1,2.1-2.9,3.9-5.6,5.4C1855.6,160.1,1852,160.9,1848.3,160.9z M1850.7,152.8
			c1.6,0,3.1-0.2,4.6-0.7c1.5-0.5,2.8-1,3.8-1.8c1.1-0.8,2-1.8,2.6-3.1c0.7-1.1,1-2.6,1-4.2v-2.4h-12.3c-2.5,0-4.3,0.5-5.7,1.5
			c-1.5,1-2.1,2.4-2.1,4.4c0,1.8,0.7,3.4,2,4.4C1845.8,152.3,1847.9,152.8,1850.7,152.8z"/>
		<path d="M1881.3,115.2h8.7v7.5c1.1-2.3,2.8-4.2,5.2-5.9c2.5-1.6,5.6-2.6,9.5-2.6c5.6,0,9.7,1.5,12.4,4.4c2.8,2.9,4.1,7.3,4.1,13
			V160h-9.3v-26.2c0-3.7-0.8-6.7-2.5-8.5c-1.6-1.8-4.3-2.9-7.9-2.9c-2,0-3.6,0.3-5.1,1c-1.3,0.7-2.5,1.5-3.4,2.6
			c-0.8,1-1.5,2.3-2,3.6c-0.5,1.3-0.7,2.8-0.7,4.2V160h-9.3v-44.8H1881.3z"/>
		<path d="M1947.9,160.4c-5.1,0-8.8-1.1-11.1-3.3c-2.3-2.1-3.3-5.7-3.3-10.6v-23.5h-6.4v-8h6.4v-10.1h9.3v10.1h11.5v8h-11.5v22
			c0,2.6,0.5,4.6,1.5,5.5c1,1,2.9,1.6,5.7,1.6c1.6,0,3.4-0.2,5.1-0.3v8c-1.1,0.2-2.1,0.2-3.3,0.3
			C1950.7,160.3,1949.4,160.4,1947.9,160.4z"/>
	</g>
</g>
</svg>
