<?xml version="1.0" encoding="utf-8"?>
<!-- Generator: Adobe Illustrator 27.0.0, SVG Export Plug-In . SVG Version: 6.00 Build 0)  -->
<svg version="1.1" id="Layer_1" xmlns="http://www.w3.org/2000/svg" xmlns:xlink="http://www.w3.org/1999/xlink" x="0px" y="0px"
	 viewBox="0 0 1200 219" style="enable-background:new 0 0 1200 219;" xml:space="preserve">
<style type="text/css">
	.st0{fill:#F4DAFF;}
</style>
<g>
	<path class="st0" d="M109.8,0.1L1090.2,0c60.7,0,109.8,49,109.8,109.4l0,0c0,60.4-49.2,109.4-109.8,109.4L109.8,219
		C49.2,219,0,170,0,109.6l0,0C0,49.1,49.2,0.1,109.8,0.1z"/>
	<g>
		<path d="M80.7,124.5h11.4V92.2l-11.4,8.1v-8.6l11.8-8.3h7.9v41.1h9.4v7.2H80.7V124.5z"/>
		<path d="M178.7,90.9c-1.4,0-2.6-0.4-3.5-1.4c-0.8-1-1.4-2.1-1.4-3.4s0.4-2.6,1.4-3.4s2.1-1.4,3.5-1.4s2.6,0.4,3.5,1.4
			c0.8,1,1.4,2.1,1.4,3.4s-0.4,2.6-1.4,3.4C181.2,90.4,180.1,90.9,178.7,90.9z M174.9,95.1h7.6v36.6h-7.6V95.1z"/>
		<path d="M191.1,95.1h7.1v6.2c0.8-1.8,2.4-3.4,4.3-4.8c1.9-1.4,4.6-2.1,7.6-2.1c4.4,0,7.9,1.2,10.1,3.6c2.2,2.5,3.5,5.9,3.5,10.6
			v23h-7.6v-21.4c0-3-0.7-5.4-1.9-6.9c-1.2-1.5-3.5-2.3-6.4-2.3c-1.7,0-3,0.3-4.2,0.8c-1.1,0.6-2.1,1.2-2.8,2.1s-1.2,1.8-1.5,2.9
			c-0.3,1.1-0.6,2.3-0.6,3.4v21.4h-7.6L191.1,95.1L191.1,95.1z"/>
		<path d="M246.5,132.5c-2.5,0-4.8-0.4-6.9-1.1c-2.1-0.7-3.9-1.9-5.4-3.4c-1.5-1.5-2.8-3.4-3.6-5.8c-0.8-2.3-1.4-5.1-1.4-8.3v-1.4
			c0-2.9,0.4-5.5,1.4-7.7c1-2.2,2.2-4.1,3.7-5.7c1.5-1.5,3.5-2.6,5.5-3.4c2.1-0.7,4.3-1.1,6.6-1.1c2.4,0,4.6,0.3,6.4,1
			c1.9,0.7,3.5,1.5,4.8,2.6c1.2,1.1,2.4,2.5,3.2,4c0.8,1.5,1.2,3.2,1.5,4.8h-7.8c-0.4-1.7-1.2-3-2.5-4.1c-1.2-1.1-3-1.7-5.7-1.7
			c-1.2,0-2.5,0.3-3.6,0.7c-1.1,0.4-2.2,1.1-3,2.1c-0.8,1-1.5,2.1-2.1,3.6c-0.6,1.5-0.7,3.2-0.7,5.1v1.4c0,2.2,0.3,4,0.7,5.5
			c0.6,1.5,1.2,2.8,2.1,3.7c0.8,1,1.9,1.7,3,2.1c1.1,0.4,2.4,0.7,3.6,0.7c4.3,0,7.1-1.9,8.2-5.8h7.8c-0.4,1.9-1,3.7-1.9,5.2
			c-1,1.5-2.1,2.9-3.5,3.9c-1.4,1-2.9,1.9-4.7,2.5C250.6,132.2,248.6,132.5,246.5,132.5z"/>
		<path d="M268,95.1h7.1v6.2c0.7-1.9,1.9-3.4,3.6-4.8c1.7-1.4,3.7-2.1,6.2-2.1c1.1,0,2.1,0,2.6,0.1c0.6,0.1,1,0.1,1.2,0.3v6.9
			c-0.8-0.3-1.5-0.4-2.1-0.6c-0.7-0.1-1.4-0.1-2.4-0.1c-1.5,0-2.8,0.3-3.9,0.8s-1.9,1.2-2.6,2.1c-0.7,0.8-1.2,1.8-1.5,2.9
			c-0.3,1.1-0.6,2.3-0.6,3.4v21.4H268V95.1z"/>
		<path d="M308.6,132.5c-2.5,0-4.7-0.4-6.9-1.1c-2.2-0.7-4-1.9-5.7-3.4c-1.7-1.5-2.9-3.4-3.9-5.8c-1-2.3-1.4-5.1-1.4-8.3v-1.4
			c0-3,0.4-5.7,1.4-7.9s2.2-4.1,3.7-5.7c1.5-1.5,3.5-2.6,5.5-3.3c2.1-0.7,4.3-1.1,6.6-1.1c5.5,0,9.8,1.5,12.9,4.4
			c2.9,3,4.4,7.3,4.4,12.8v3.9h-26.9c0,1.9,0.4,3.4,1,4.8c0.6,1.2,1.4,2.3,2.2,3.2c1,0.8,2.1,1.4,3.3,1.8s2.5,0.6,3.7,0.6
			c2.6,0,4.6-0.4,5.8-1.2c1.2-0.8,2.1-1.9,2.5-3.2h7.6c-0.7,3.6-2.5,6.3-5.4,8.3C316.1,131.5,312.6,132.5,308.6,132.5z M308.2,101
			c-1.2,0-2.5,0.1-3.7,0.6c-1.2,0.3-2.2,0.8-3,1.5c-1,0.7-1.7,1.7-2.2,2.8s-0.8,2.5-0.8,4.1h19.3c0-1.7-0.3-3.2-0.8-4.3
			c-0.4-1.1-1.1-2.1-1.9-2.8c-0.8-0.7-1.8-1.2-2.9-1.5C310.7,101.2,309.4,101,308.2,101z"/>
		<path d="M341.8,132.5c-1.9,0-3.7-0.3-5.3-0.8c-1.5-0.6-2.9-1.4-3.9-2.5c-1.1-1.1-1.9-2.2-2.4-3.6c-0.4-1.4-0.8-2.9-0.8-4.6
			c0-3.6,1.1-6.3,3.3-8.1c2.2-1.8,5.4-2.6,9.6-2.6h11.4v-1.9c0-2.8-0.6-4.7-1.8-5.7c-1.2-1.1-3.2-1.5-5.8-1.5
			c-2.4,0-4.2,0.4-5.3,1.1c-1.1,0.7-1.8,1.8-1.9,3h-7.5c0.1-1.5,0.6-3,1.2-4.3c0.7-1.4,1.7-2.5,2.9-3.4c1.2-1,2.8-1.7,4.6-2.2
			s3.9-0.8,6.1-0.8c2.2,0,4.3,0.3,6.1,0.7c1.8,0.6,3.3,1.2,4.7,2.3c1.2,1.1,2.4,2.5,3,4.1c0.7,1.7,1.1,3.7,1.1,6.2v14.5
			c0,1.9,0,3.6,0,5.1s0.1,2.9,0.3,4.3h-6.9c-0.1-1.1-0.3-1.9-0.3-2.8c-0.1-0.7-0.1-1.7-0.1-2.8c-0.8,1.7-2.4,3.2-4.6,4.4
			C347.5,131.8,344.9,132.5,341.8,132.5z M343.9,125.9c1.2,0,2.5-0.1,3.7-0.6c1.2-0.3,2.2-0.8,3-1.5s1.5-1.5,2.1-2.5
			c0.6-1,0.8-2.1,0.8-3.4v-2.1h-10c-1.9,0-3.5,0.4-4.7,1.2c-1.2,0.8-1.8,2.1-1.8,3.6c0,1.5,0.6,2.8,1.7,3.7
			C339.8,125.4,341.6,125.9,343.9,125.9z"/>
		<path d="M382.7,132.5c-2.8,0-5-0.3-6.9-0.8s-3.5-1.4-4.8-2.5c-1.2-1-2.2-2.2-2.9-3.6c-0.7-1.4-1.1-2.8-1.2-4.3h7.6
			c0.3,1.2,1.1,2.3,2.4,3.2c1.2,0.8,3.2,1.2,6,1.2c3,0,5.3-0.4,6.4-1.2c1.2-0.8,1.9-1.9,1.9-3.2c0-0.6-0.1-1.1-0.6-1.7
			c-0.3-0.6-0.8-1-1.5-1.5c-0.7-0.4-1.7-0.8-2.9-1.2c-1.2-0.4-2.8-0.7-4.4-0.8c-2.1-0.3-4-0.7-5.7-1.2c-1.7-0.6-3.2-1.2-4.3-2.1
			c-1.2-0.8-2.1-1.9-2.8-3.2c-0.7-1.2-1-2.8-1-4.4c0-1.5,0.3-2.9,0.8-4.1c0.6-1.4,1.5-2.5,2.8-3.4c1.2-1,2.8-1.8,4.7-2.3
			c1.9-0.6,4-0.8,6.5-0.8c2.4,0,4.4,0.3,6.2,0.8s3.2,1.4,4.4,2.5c1.2,1,2.1,2.2,2.8,3.6c0.7,1.4,1,2.8,1.2,4.3h-7.6
			c-0.4-1.4-1.1-2.5-2.2-3.3c-1.1-0.8-2.6-1.2-4.7-1.2c-2.8,0-4.6,0.4-5.7,1.2c-1.1,0.8-1.5,1.8-1.5,2.9c0,0.7,0.1,1.2,0.4,1.7
			c0.3,0.6,0.7,1,1.4,1.4c0.7,0.4,1.5,0.7,2.6,1.1c1.1,0.3,2.6,0.6,4.3,0.7c2.1,0.3,4,0.7,5.8,1.2c1.8,0.6,3.3,1.2,4.6,2.2
			c1.2,0.8,2.2,1.9,2.9,3.3c0.7,1.4,1.1,2.9,1.1,4.6c0,1.5-0.3,3-1,4.4c-0.7,1.4-1.7,2.5-2.9,3.4c-1.4,1-2.9,1.8-5,2.3
			C387.5,132.2,385.3,132.5,382.7,132.5z"/>
		<path d="M420.4,132.5c-2.5,0-4.7-0.4-6.9-1.1c-2.2-0.7-4-1.9-5.7-3.4c-1.7-1.5-2.9-3.4-3.9-5.8c-1-2.3-1.4-5.1-1.4-8.3v-1.4
			c0-3,0.4-5.7,1.4-7.9s2.2-4.1,3.7-5.7c1.5-1.5,3.5-2.6,5.5-3.3c2.1-0.7,4.3-1.1,6.6-1.1c5.5,0,9.8,1.5,12.9,4.4
			c2.9,3,4.4,7.3,4.4,12.8v3.9h-26.9c0,1.9,0.4,3.4,1,4.8c0.6,1.2,1.4,2.3,2.2,3.2c1,0.8,2.1,1.4,3.3,1.8s2.5,0.6,3.7,0.6
			c2.6,0,4.6-0.4,5.8-1.2c1.2-0.8,2.1-1.9,2.5-3.2h7.6c-0.7,3.6-2.5,6.3-5.4,8.3C428,131.5,424.5,132.5,420.4,132.5z M420.1,101
			c-1.2,0-2.5,0.1-3.7,0.6c-1.2,0.3-2.2,0.8-3,1.5c-1,0.7-1.7,1.7-2.2,2.8c-0.6,1.1-0.8,2.5-0.8,4.1h19.3c0-1.7-0.3-3.2-0.8-4.3
			c-0.4-1.1-1.1-2.1-1.9-2.8s-1.8-1.2-2.9-1.5C422.6,101.2,421.3,101,420.1,101z"/>
		<path d="M456.1,95.6h32.5v7.2h-32.5V95.6z M456.1,110.8h32.5v7.2h-32.5V110.8z"/>
		<path d="M525.3,132.5c-2.9,0-5.3-0.4-7.3-1.1c-2.1-0.7-3.7-1.7-5.1-3c-1.4-1.2-2.4-2.6-3-4.3c-0.7-1.7-1.1-3.2-1.1-4.8h8.3
			c0.3,1.7,1.1,3,2.5,4.1c1.4,1.1,3.3,1.7,5.8,1.7c2.8,0,5-0.8,6.6-2.5c1.7-1.7,2.4-4.1,2.4-7.2c0-1.8-0.3-3.3-0.8-4.6
			c-0.6-1.2-1.2-2.2-2.1-2.9c-0.8-0.7-1.8-1.2-2.9-1.7c-1.1-0.3-2.2-0.6-3.3-0.6c-1.9,0-3.6,0.3-5,1.1c-1.2,0.7-2.4,1.7-3.2,2.8
			h-7.5V83.3h30.2v7.2h-22v11.2c1.1-1,2.4-1.8,3.7-2.5c1.4-0.7,3.2-1,5.4-1c2.4,0,4.4,0.4,6.4,1.1s3.6,1.8,4.8,3.2
			c1.4,1.4,2.4,3.2,3.2,5.2c0.7,2.1,1.1,4.6,1.1,7.3c0,2.6-0.4,5-1.2,7c-0.8,2.1-1.9,3.9-3.5,5.4c-1.5,1.5-3.3,2.6-5.4,3.4
			C530.2,132.1,527.8,132.5,525.3,132.5z"/>
		<path d="M546.4,108.7h31.9v7.2h-31.9V108.7z"/>
		<path d="M599,132.5c-4.3,0-7.8-1-10.4-2.8c-2.8-1.8-4.4-4.7-5.1-8.7h8.3c0.6,1.5,1.4,2.5,2.5,3.2c1.2,0.7,2.8,1,4.7,1
			c1.5,0,2.9-0.3,4.2-0.7c1.2-0.4,2.5-1.4,3.5-2.5s1.8-2.8,2.4-4.8c0.6-2.1,1-4.7,1-7.7c-0.6,1-1.4,1.9-2.2,2.6
			c-1,0.7-1.9,1.2-3,1.7s-2.2,0.7-3.3,1c-1.1,0.1-2.4,0.3-3.5,0.3c-4.8,0-8.7-1.4-11.5-4c-2.8-2.6-4.2-6.5-4.2-11.3v-0.7
			c0-2.3,0.4-4.6,1.2-6.6c0.8-1.9,2.1-3.7,3.6-5.1c1.5-1.4,3.3-2.5,5.4-3.3c2.1-0.8,4.3-1.1,6.6-1.1c2.9,0,5.5,0.4,7.8,1.2
			c2.2,0.8,4.2,2.2,5.8,4c1.5,1.8,2.8,4.1,3.6,7c0.8,2.9,1.2,6.2,1.2,10.2v1.4c0,4.7-0.4,8.7-1.4,12c-1,3.3-2.4,5.9-4,8
			c-1.7,2.1-3.6,3.6-6,4.6C604.2,131.9,601.7,132.5,599,132.5z M600,108.2c2.8,0,5-0.8,6.6-2.5c1.7-1.7,2.5-3.7,2.5-6.3v-0.7
			c0-1.2-0.3-2.3-0.7-3.4c-0.4-1.1-1.1-2.1-1.9-2.8c-0.8-0.8-1.8-1.4-2.9-1.9c-1.1-0.4-2.4-0.7-3.7-0.7c-2.8,0-5,0.8-6.6,2.5
			c-1.7,1.7-2.5,3.7-2.5,6.3v0.8c0,2.6,0.8,4.7,2.5,6.3C594.9,107.5,597.2,108.2,600,108.2z"/>
		<path d="M633,106.3c-1.7,0-3.3-0.3-4.7-0.8c-1.4-0.6-2.6-1.4-3.6-2.3c-1-1-1.8-2.2-2.4-3.6c-0.6-1.4-0.8-2.9-0.8-4.7v-0.7
			c0-1.7,0.3-3.3,0.8-4.7c0.6-1.4,1.4-2.6,2.4-3.6c1-1,2.2-1.8,3.6-2.3c1.4-0.6,2.9-0.8,4.7-0.8c1.7,0,3.2,0.3,4.6,0.8
			c1.4,0.6,2.6,1.4,3.6,2.3c1,1,1.8,2.2,2.4,3.6c0.6,1.4,0.8,2.9,0.8,4.7v0.7c0,1.7-0.3,3.3-0.8,4.7c-0.6,1.4-1.4,2.6-2.4,3.6
			c-1,1-2.2,1.8-3.6,2.3C636.1,106,634.6,106.3,633,106.3z M661.4,83.3h8.3l-33.2,48.3h-8.3L661.4,83.3z M633,100
			c1.2,0,2.2-0.4,3-1.2c0.7-0.8,1.1-2.2,1.1-4v-0.7c0-1.8-0.4-3.2-1.1-4c-0.7-0.8-1.7-1.2-3-1.2c-1.4,0-2.2,0.4-3,1.2
			c-0.8,0.8-1.1,2.2-1.1,4v0.7c0,1.8,0.4,3.2,1.1,4S631.7,100,633,100z M664.8,132.3c-1.7,0-3.3-0.3-4.7-0.8
			c-1.4-0.6-2.6-1.4-3.6-2.3c-1-1-1.8-2.2-2.4-3.6c-0.6-1.4-0.8-2.9-0.8-4.7v-0.7c0-1.7,0.3-3.3,0.8-4.7c0.6-1.4,1.4-2.6,2.4-3.6
			c1-1,2.2-1.8,3.6-2.3c1.4-0.6,2.9-0.8,4.7-0.8c1.7,0,3.2,0.3,4.6,0.8c1.4,0.6,2.6,1.4,3.6,2.3c1,1,1.8,2.2,2.4,3.6
			c0.6,1.4,0.8,2.9,0.8,4.7v0.7c0,1.7-0.3,3.3-0.8,4.7c-0.6,1.4-1.4,2.6-2.4,3.6s-2.2,1.8-3.6,2.3
			C668,132.1,666.5,132.3,664.8,132.3z M664.8,126.1c1.2,0,2.2-0.4,3-1.2c0.7-0.8,1.1-2.2,1.1-4v-0.7c0-1.8-0.4-3.2-1.1-4
			c-0.7-0.8-1.7-1.2-3-1.2c-1.4,0-2.2,0.4-3,1.2c-0.7,0.8-1.1,2.2-1.1,4v0.7c0,1.8,0.4,3.2,1.1,4
			C662.6,125.7,663.6,126.1,664.8,126.1z"/>
		<path d="M696,95.1h7.1v6.2c0.4-1,1-1.8,1.7-2.6c0.7-0.8,1.5-1.7,2.4-2.2c0.8-0.7,1.9-1.1,2.9-1.5c1.1-0.4,2.2-0.6,3.3-0.6
			c3,0,5.4,0.7,7.2,1.9c1.7,1.2,2.9,2.9,3.5,5c1.1-2.1,2.5-3.7,4.4-5s4.2-1.9,6.6-1.9c3.9,0,6.8,1.1,8.9,3.3c2.1,2.2,3,5.8,3,10.5
			v23.5h-7.6V110c0-3.3-0.6-5.5-1.8-6.9c-1.2-1.4-2.9-2.1-5-2.1c-2.5,0-4.3,0.8-5.5,2.5c-1.2,1.7-1.8,3.9-1.8,6.5v21.7h-7.6V110
			c0-3.3-0.6-5.5-1.8-6.9c-1.2-1.4-2.9-2.1-5-2.1c-2.5,0-4.3,0.8-5.5,2.5c-1.2,1.7-1.8,3.9-1.8,6.5v21.7H696V95.1z"/>
		<path d="M770.8,132.5c-2.5,0-4.8-0.4-7.1-1.2c-2.2-0.8-4.2-1.9-5.7-3.6c-1.7-1.5-2.9-3.4-3.9-5.8s-1.4-5-1.4-8.1v-1.4
			c0-2.9,0.4-5.5,1.4-7.7s2.2-4.1,3.9-5.7c1.7-1.5,3.5-2.8,5.7-3.4c2.2-0.8,4.6-1.1,7.1-1.1c2.5,0,4.8,0.4,7.1,1.1
			c2.2,0.8,4.2,1.9,5.7,3.4c1.7,1.5,2.9,3.4,3.9,5.7s1.4,4.8,1.4,7.7v1.4c0,3-0.4,5.8-1.4,8.1c-1,2.3-2.2,4.3-3.9,5.8
			c-1.7,1.5-3.5,2.8-5.7,3.6C775.6,132.1,773.3,132.5,770.8,132.5z M770.8,125.9c1.4,0,2.6-0.3,3.9-0.7c1.2-0.4,2.4-1.1,3.2-2.1
			c1-1,1.7-2.2,2.4-3.7c0.6-1.5,0.8-3.3,0.8-5.5v-1.4c0-1.9-0.3-3.7-0.8-5.1s-1.4-2.6-2.4-3.4c-1-1-2.1-1.7-3.2-2.1
			c-1.2-0.4-2.5-0.7-3.9-0.7c-1.4,0-2.6,0.3-3.9,0.7c-1.2,0.4-2.4,1.1-3.2,2.1c-1,1-1.7,2.1-2.4,3.4c-0.6,1.4-0.8,3.2-0.8,5.1v1.4
			c0,2.2,0.3,4,0.8,5.5c0.6,1.5,1.4,2.8,2.4,3.7s2.1,1.7,3.2,2.1C768.1,125.6,769.4,125.9,770.8,125.9z"/>
		<path d="M794.6,95.1h7.1v6.2c0.7-1.9,1.9-3.4,3.6-4.8c1.7-1.4,3.7-2.1,6.2-2.1c1.1,0,2.1,0,2.6,0.1c0.6,0.1,1,0.1,1.2,0.3v6.9
			c-0.8-0.3-1.5-0.4-2.1-0.6c-0.7-0.1-1.4-0.1-2.4-0.1c-1.5,0-2.8,0.3-3.9,0.8s-1.9,1.2-2.6,2.1c-0.7,0.8-1.2,1.8-1.5,2.9
			c-0.3,1.1-0.6,2.3-0.6,3.4v21.4h-7.6V95.1H794.6z"/>
		<path d="M835.2,132.5c-2.5,0-4.7-0.4-6.9-1.1c-2.2-0.7-4-1.9-5.7-3.4c-1.7-1.5-2.9-3.4-3.9-5.8c-1-2.3-1.4-5.1-1.4-8.3v-1.4
			c0-3,0.4-5.7,1.4-7.9c1-2.2,2.2-4.1,3.7-5.7c1.7-1.5,3.5-2.6,5.5-3.3c2.1-0.7,4.3-1.1,6.6-1.1c5.5,0,9.8,1.5,12.9,4.4
			c2.9,3,4.4,7.3,4.4,12.8v3.9h-26.9c0,1.9,0.4,3.4,1,4.8c0.6,1.2,1.4,2.3,2.2,3.2c1,0.8,2.1,1.4,3.3,1.8s2.5,0.6,3.7,0.6
			c2.6,0,4.6-0.4,5.8-1.2c1.2-0.8,2.1-1.9,2.5-3.2h7.6c-0.7,3.6-2.5,6.3-5.4,8.3C842.8,131.5,839.3,132.5,835.2,132.5z M834.8,101
			c-1.2,0-2.5,0.1-3.7,0.6c-1.2,0.3-2.2,0.8-3,1.5c-1,0.7-1.7,1.7-2.2,2.8c-0.6,1.1-0.8,2.5-1,4.1h19.4c0-1.7-0.3-3.2-0.8-4.3
			c-0.4-1.1-1.1-2.1-1.9-2.8s-1.8-1.2-2.9-1.5C837.4,101.2,836.1,101,834.8,101z"/>
		<path d="M872.6,95.1h7.1v6.2c0.7-1.9,1.9-3.4,3.6-4.8s3.7-2.1,6.2-2.1c1.1,0,2.1,0,2.6,0.1c0.6,0.1,1,0.1,1.2,0.3v6.9
			c-0.8-0.3-1.5-0.4-2.1-0.6c-0.7-0.1-1.4-0.1-2.4-0.1c-1.5,0-2.8,0.3-3.9,0.8c-1.1,0.6-1.9,1.2-2.6,2.1c-0.7,0.8-1.2,1.8-1.5,2.9
			c-0.3,1.1-0.6,2.3-0.6,3.4v21.4h-7.6V95.1H872.6z"/>
		<path d="M913,132.5c-2.5,0-4.7-0.4-6.9-1.1c-2.2-0.7-4-1.9-5.7-3.4c-1.7-1.5-2.9-3.4-3.9-5.8c-1-2.3-1.4-5.1-1.4-8.3v-1.4
			c0-3,0.4-5.7,1.4-7.9c1-2.2,2.2-4.1,3.7-5.7c1.7-1.5,3.5-2.6,5.5-3.3c2.1-0.7,4.3-1.1,6.6-1.1c5.5,0,9.8,1.5,12.9,4.4
			c2.9,3,4.4,7.3,4.4,12.8v3.9h-26.9c0,1.9,0.4,3.4,1,4.8c0.6,1.2,1.4,2.3,2.2,3.2c1,0.8,2.1,1.4,3.3,1.8s2.5,0.6,3.7,0.6
			c2.6,0,4.6-0.4,5.8-1.2c1.2-0.8,2.1-1.9,2.5-3.2h7.6c-0.7,3.6-2.5,6.3-5.4,8.3C920.6,131.5,917.2,132.5,913,132.5z M912.7,101
			c-1.2,0-2.5,0.1-3.7,0.6c-1.2,0.3-2.2,0.8-3,1.5c-1,0.7-1.7,1.7-2.2,2.8c-0.6,1.1-0.8,2.5-1,4.1H922c0-1.7-0.3-3.2-0.8-4.3
			c-0.4-1.1-1.1-2.1-1.9-2.8s-1.8-1.2-2.9-1.5C915.2,101.2,914,101,912.7,101z"/>
		<path d="M930.7,95.1h8.3l11.2,28.3l10.1-28.3h7.8L954,131.6h-7.6L930.7,95.1z"/>
		<path d="M987.1,132.5c-2.5,0-4.7-0.4-6.9-1.1c-2.2-0.7-4-1.9-5.7-3.4c-1.7-1.5-2.9-3.4-3.9-5.8c-1-2.3-1.4-5.1-1.4-8.3v-1.4
			c0-3,0.4-5.7,1.4-7.9s2.2-4.1,3.7-5.7c1.7-1.5,3.5-2.6,5.5-3.3c2.1-0.7,4.3-1.1,6.6-1.1c5.5,0,9.8,1.5,12.9,4.4
			c2.9,3,4.4,7.3,4.4,12.8v3.9H977c0,1.9,0.4,3.4,1,4.8c0.6,1.2,1.4,2.3,2.2,3.2c1,0.8,2.1,1.4,3.3,1.8c1.2,0.4,2.5,0.6,3.7,0.6
			c2.6,0,4.6-0.4,5.8-1.2c1.2-0.8,2.1-1.9,2.5-3.2h7.6c-0.7,3.6-2.5,6.3-5.4,8.3C994.7,131.5,991.3,132.5,987.1,132.5z M986.8,101
			c-1.2,0-2.5,0.1-3.7,0.6c-1.2,0.3-2.2,0.8-3,1.5c-1,0.7-1.7,1.7-2.2,2.8s-0.8,2.5-1,4.1h19.3c0-1.7-0.3-3.2-0.8-4.3
			c-0.4-1.1-1.1-2.1-1.9-2.8s-1.8-1.2-2.9-1.5C989.3,101.2,988.1,101,986.8,101z"/>
		<path d="M1009.7,95.1h7.1v6.2c0.8-1.8,2.4-3.4,4.3-4.8c1.9-1.4,4.6-2.1,7.6-2.1c4.4,0,7.9,1.2,10.1,3.6c2.2,2.5,3.5,5.9,3.5,10.6
			v23h-7.6v-21.4c0-3-0.7-5.4-1.9-6.9s-3.5-2.3-6.4-2.3c-1.7,0-3,0.3-4.2,0.8c-1.1,0.6-2.1,1.2-2.8,2.1c-0.7,0.8-1.2,1.8-1.7,2.9
			c-0.3,1.1-0.6,2.3-0.6,3.4v21.4h-7.6V95.1H1009.7z"/>
		<path d="M1062.6,132.5c-4.3,0-7.6-1.2-9.8-3.7c-2.2-2.5-3.3-6.3-3.3-11.5V95.2h7.6v21.4c0,3,0.7,5.4,1.9,6.9
			c1.2,1.5,3.3,2.3,6.1,2.3c1.5,0,2.8-0.3,3.9-0.7c1.1-0.6,1.9-1.2,2.6-2.1s1.2-1.9,1.5-3c0.3-1.1,0.6-2.3,0.6-3.4V95.1h7.6v36.6
			h-7.1v-6.2c-0.8,1.9-2.4,3.4-4.3,4.8C1068.1,131.8,1065.7,132.5,1062.6,132.5z"/>
		<path d="M1105.3,132.5c-2.5,0-4.7-0.4-6.9-1.1c-2.2-0.7-4-1.9-5.7-3.4c-1.7-1.5-2.9-3.4-3.9-5.8c-1-2.3-1.4-5.1-1.4-8.3v-1.4
			c0-3,0.4-5.7,1.4-7.9c1-2.2,2.2-4.1,3.7-5.7c1.7-1.5,3.5-2.6,5.5-3.3c2.1-0.7,4.3-1.1,6.6-1.1c5.5,0,9.8,1.5,12.9,4.4
			c2.9,3,4.4,7.3,4.4,12.8v3.9h-26.9c0,1.9,0.4,3.4,1,4.8c0.6,1.2,1.4,2.3,2.2,3.2c1,0.8,2.1,1.4,3.3,1.8s2.5,0.6,3.7,0.6
			c2.6,0,4.6-0.4,5.8-1.2c1.2-0.8,2.1-1.9,2.5-3.2h7.6c-0.7,3.6-2.5,6.3-5.4,8.3C1112.9,131.5,1109.4,132.5,1105.3,132.5z
			 M1104.8,101c-1.2,0-2.5,0.1-3.7,0.6c-1.2,0.3-2.2,0.8-3,1.5c-1,0.7-1.7,1.7-2.2,2.8c-0.6,1.1-0.8,2.5-1,4.1h19.4
			c0-1.7-0.3-3.2-0.8-4.3c-0.4-1.1-1.1-2.1-1.9-2.8c-0.8-0.7-1.8-1.2-2.9-1.5C1107.5,101.2,1106.2,101,1104.8,101z"/>
	</g>
	<polygon points="139.2,85.4 145.8,98.7 160.5,100.7 149.9,110.9 152.4,125.4 139.2,118.7 126,125.4 128.5,110.9 117.9,100.7 
		132.7,98.7 	"/>
</g>
</svg>
