<?xml version="1.0" encoding="utf-8"?>
<!-- Generator: Adobe Illustrator 27.0.0, SVG Export Plug-In . SVG Version: 6.00 Build 0)  -->
<svg version="1.1" id="Layer_1" xmlns="http://www.w3.org/2000/svg" xmlns:xlink="http://www.w3.org/1999/xlink" x="0px" y="0px"
	 viewBox="0 0 750 130" style="enable-background:new 0 0 750 130;" xml:space="preserve">
<style type="text/css">
	.st0{fill:#F4DAFF;}
</style>
<g>
	<path class="st0" d="M64.8,0h620.5C721,0,750,29.1,750,65l0,0c0,35.9-29,65-64.8,65H64.8C29,130,0,100.9,0,65l0,0
		C0,29.1,29,0,64.8,0z"/>
	<g>
		<path d="M46.5,46.4h5v12.1h14.2V46.4h5v29.4h-5V62.8H51.6v12.9h-5V46.4z"/>
		<path d="M82.9,76.2c-1.2,0-2.3-0.2-3.2-0.5c-0.9-0.3-1.8-0.8-2.3-1.5c-0.7-0.7-1.2-1.3-1.5-2.2c-0.3-0.8-0.5-1.8-0.5-2.8
			c0-2.2,0.7-3.9,2-4.9c1.3-1.1,3.3-1.6,5.8-1.6H90v-1.3c0-1.7-0.3-2.9-1.1-3.4c-0.8-0.7-1.9-0.9-3.5-0.9c-1.4,0-2.5,0.3-3.2,0.7
			c-0.7,0.4-1.1,1.1-1.2,1.8h-4.5c0.1-0.9,0.3-1.8,0.8-2.6c0.4-0.8,1-1.5,1.8-2.1c0.8-0.6,1.7-1,2.8-1.3c1.1-0.3,2.3-0.5,3.7-0.5
			s2.6,0.2,3.7,0.4c1.1,0.3,2,0.8,2.8,1.4c0.8,0.7,1.4,1.5,1.8,2.5c0.4,1,0.7,2.3,0.7,3.8v8.9c0,1.2,0,2.2,0,3.1
			c0,0.9,0.1,1.8,0.2,2.6h-4.2c-0.1-0.7-0.2-1.2-0.2-1.7c-0.1-0.4-0.1-1-0.1-1.7c-0.5,1-1.4,1.9-2.8,2.7
			C86.4,75.8,84.8,76.2,82.9,76.2z M84.1,72.2c0.8,0,1.5-0.1,2.3-0.3c0.8-0.2,1.3-0.5,1.8-0.9s0.9-0.9,1.3-1.5
			c0.3-0.6,0.5-1.3,0.5-2.1v-1.3h-6c-1.2,0-2.1,0.3-2.8,0.8C80.4,67.3,80,68.1,80,69c0,0.9,0.3,1.7,1,2.3
			C81.7,71.9,82.7,72.2,84.1,72.2z"/>
		<path d="M99.2,53.5h4.3v3.8c0.7-1.3,1.7-2.3,3-3.1c1.3-0.8,2.8-1.1,4.5-1.1c2.9,0,5.2,0.9,6.9,2.7c1.7,1.8,2.5,4.5,2.5,8.2v0.8
			c0,1.9-0.3,3.5-0.7,5c-0.4,1.4-1.1,2.6-1.9,3.5c-0.8,0.9-1.8,1.7-2.9,2.1c-1.2,0.5-2.4,0.7-3.8,0.7c-1.6,0-3-0.3-4.3-1
			c-1.3-0.7-2.3-1.7-2.8-2.9v11.9h-4.6V53.5z M109.9,72.2c1.8,0,3.1-0.6,4.2-1.8c1.1-1.2,1.6-3,1.6-5.5V64c0-2.3-0.5-4.1-1.6-5.2
			c-1-1.2-2.4-1.7-4.2-1.7c-0.8,0-1.5,0.1-2.3,0.4c-0.8,0.3-1.3,0.6-1.9,1.1c-0.6,0.5-1,1.1-1.3,1.8c-0.3,0.8-0.5,1.6-0.5,2.5v2.9
			c0,1.1,0.2,2,0.5,2.8c0.3,0.8,0.8,1.4,1.3,2c0.6,0.5,1.2,0.9,1.9,1.2C108.3,72,109,72.2,109.9,72.2z"/>
		<path d="M123.8,53.5h4.3v3.8c0.7-1.3,1.7-2.3,3-3.1c1.3-0.8,2.8-1.1,4.5-1.1c2.9,0,5.2,0.9,6.9,2.7c1.7,1.8,2.5,4.5,2.5,8.2v0.8
			c0,1.9-0.3,3.5-0.7,5c-0.4,1.4-1.1,2.6-1.9,3.5c-0.8,0.9-1.8,1.7-2.9,2.1c-1.2,0.5-2.4,0.7-3.8,0.7c-1.6,0-3-0.3-4.3-1
			c-1.3-0.7-2.3-1.7-2.8-2.9v11.9h-4.6V53.5z M134.5,72.2c1.8,0,3.1-0.6,4.2-1.8c1.1-1.2,1.6-3,1.6-5.5V64c0-2.3-0.5-4.1-1.6-5.2
			c-1-1.2-2.4-1.7-4.2-1.7c-0.8,0-1.5,0.1-2.3,0.4c-0.8,0.3-1.3,0.6-1.9,1.1c-0.6,0.5-1,1.1-1.3,1.8c-0.3,0.8-0.5,1.6-0.5,2.5v2.9
			c0,1.1,0.2,2,0.5,2.8c0.3,0.8,0.8,1.4,1.3,2c0.6,0.5,1.2,0.9,1.9,1.2C132.9,72,133.7,72.2,134.5,72.2z"/>
		<path d="M151.2,84.6c-0.4,0-0.8,0-1.3-0.1v-4c0.4,0.1,0.8,0.2,1.3,0.2c0.5,0,0.8-0.1,1.2-0.3c0.3-0.2,0.6-0.4,0.9-0.8
			c0.3-0.4,0.5-0.8,0.8-1.5c0.3-0.6,0.6-1.4,0.9-2.3l-9.4-22.2h5l6.8,17.2l6.1-17.2h4.7l-8.5,22.2c-0.6,1.6-1.2,2.9-1.7,4
			c-0.5,1.1-1.1,2-1.8,2.8c-0.7,0.7-1.3,1.3-2.1,1.6C153.2,84.5,152.3,84.6,151.2,84.6z"/>
		<path d="M189,76.2c-1.5,0-2.9-0.3-4.2-0.7c-1.3-0.4-2.3-1.2-3.3-2.1c-0.9-0.9-1.7-2.1-2.2-3.5s-0.8-3.1-0.8-5v-0.8
			c0-1.8,0.3-3.4,0.8-4.7c0.6-1.3,1.3-2.5,2.3-3.4c0.9-0.9,2.1-1.6,3.3-2.1c1.3-0.4,2.6-0.7,4-0.7c1.4,0,2.8,0.2,3.8,0.6
			c1.2,0.4,2.1,0.9,2.9,1.6c0.8,0.7,1.4,1.5,1.9,2.4s0.8,1.9,0.9,2.9h-4.7c-0.3-1-0.8-1.8-1.5-2.5c-0.8-0.7-1.8-1-3.4-1
			c-0.8,0-1.5,0.2-2.2,0.4c-0.7,0.3-1.3,0.7-1.8,1.3c-0.5,0.6-0.9,1.3-1.3,2.2c-0.3,0.9-0.4,1.9-0.4,3.1V65c0,1.3,0.2,2.4,0.4,3.4
			c0.3,0.9,0.8,1.7,1.3,2.3c0.5,0.6,1.2,1,1.8,1.3c0.7,0.3,1.4,0.4,2.2,0.4c2.6,0,4.3-1.2,4.9-3.5h4.7c-0.3,1.2-0.6,2.3-1.2,3.2
			c-0.6,0.9-1.3,1.8-2.1,2.3c-0.8,0.6-1.8,1.2-2.8,1.5C191.4,76.1,190.3,76.2,189,76.2z"/>
		<path d="M209.7,76.2c-2.6,0-4.6-0.8-5.9-2.3c-1.3-1.5-2-3.9-2-7V53.6h4.6v13c0,1.8,0.4,3.3,1.2,4.2s2,1.4,3.7,1.4
			c0.9,0,1.7-0.2,2.3-0.4c0.7-0.3,1.2-0.8,1.6-1.3c0.4-0.5,0.8-1.2,0.9-1.8c0.2-0.7,0.3-1.4,0.3-2.1V53.5h4.6v22.2h-4.3V72
			c-0.5,1.2-1.4,2.1-2.6,2.9C213,75.8,211.5,76.2,209.7,76.2z"/>
		<path d="M234.1,76.2c-1.7,0-3-0.2-4.2-0.5c-1.2-0.3-2.1-0.8-2.9-1.5c-0.8-0.6-1.3-1.3-1.8-2.2s-0.7-1.7-0.8-2.6h4.6
			c0.2,0.8,0.7,1.4,1.4,1.9c0.8,0.5,1.9,0.8,3.6,0.8c1.8,0,3.2-0.3,3.8-0.8c0.8-0.5,1.2-1.2,1.2-1.9c0-0.3-0.1-0.7-0.3-1
			c-0.2-0.3-0.5-0.6-0.9-0.9c-0.4-0.3-1-0.5-1.8-0.8c-0.8-0.3-1.7-0.4-2.7-0.5c-1.3-0.2-2.4-0.4-3.4-0.8s-1.9-0.8-2.6-1.3
			c-0.8-0.5-1.3-1.2-1.7-1.9s-0.6-1.7-0.6-2.7c0-0.9,0.2-1.8,0.5-2.5c0.3-0.8,0.9-1.5,1.7-2.1c0.8-0.6,1.7-1.1,2.8-1.4
			c1.2-0.3,2.4-0.5,3.9-0.5c1.4,0,2.7,0.2,3.8,0.5c1.1,0.3,1.9,0.8,2.7,1.5c0.8,0.6,1.3,1.3,1.7,2.2c0.4,0.8,0.6,1.7,0.8,2.6h-4.6
			c-0.3-0.8-0.7-1.5-1.3-2c-0.7-0.5-1.6-0.8-2.8-0.8c-1.7,0-2.8,0.3-3.4,0.8c-0.7,0.5-0.9,1.1-0.9,1.8c0,0.4,0.1,0.8,0.3,1
			c0.2,0.3,0.4,0.6,0.8,0.8c0.4,0.3,0.9,0.4,1.6,0.7c0.7,0.2,1.6,0.3,2.6,0.4c1.3,0.2,2.4,0.4,3.5,0.8c1.1,0.3,2,0.8,2.8,1.3
			c0.8,0.6,1.3,1.3,1.8,2s0.7,1.8,0.7,2.8c0,0.9-0.2,1.8-0.6,2.7c-0.4,0.8-1,1.5-1.8,2.1c-0.8,0.6-1.8,1.1-3,1.4
			C237.1,76.1,235.7,76.2,234.1,76.2z"/>
		<path d="M255.8,76c-2.5,0-4.3-0.6-5.4-1.7c-1.1-1.1-1.7-2.9-1.7-5.3V57.5h-3.2v-3.9h3.2v-5h4.6v5h5.7v3.9h-5.7v10.9
			c0,1.3,0.3,2.3,0.8,2.8c0.5,0.5,1.4,0.8,2.8,0.8c0.8,0,1.7,0,2.5-0.2v3.9c-0.5,0.1-1.1,0.1-1.7,0.2C257.3,75.9,256.6,76,255.8,76z
			"/>
		<path d="M272.4,76.2c-1.5,0-2.9-0.3-4.3-0.8c-1.3-0.5-2.5-1.2-3.4-2.2c-1-0.9-1.8-2.1-2.3-3.5c-0.6-1.4-0.8-3-0.8-4.9V64
			c0-1.8,0.3-3.4,0.8-4.7s1.3-2.5,2.3-3.4c1-0.9,2.1-1.7,3.4-2.1c1.3-0.5,2.8-0.7,4.3-0.7c1.5,0,2.9,0.3,4.3,0.7
			c1.3,0.5,2.5,1.2,3.4,2.1c1,0.9,1.8,2.1,2.3,3.4c0.6,1.3,0.8,2.9,0.8,4.7v0.8c0,1.8-0.3,3.5-0.8,4.9c-0.6,1.4-1.3,2.6-2.3,3.5
			c-1,0.9-2.1,1.7-3.4,2.2C275.3,76,273.9,76.2,272.4,76.2z M272.4,72.2c0.8,0,1.6-0.2,2.3-0.4c0.8-0.3,1.4-0.7,2-1.3
			c0.6-0.6,1-1.3,1.3-2.3c0.3-0.9,0.5-2,0.5-3.4v-0.8c0-1.2-0.2-2.3-0.5-3.1c-0.3-0.8-0.8-1.6-1.3-2.1c-0.6-0.6-1.3-1-2-1.3
			c-0.8-0.3-1.5-0.4-2.3-0.4s-1.6,0.2-2.3,0.4c-0.8,0.3-1.4,0.7-2,1.3s-1,1.3-1.3,2.1c-0.3,0.8-0.5,1.9-0.5,3.1v0.8
			c0,1.3,0.2,2.4,0.5,3.4c0.3,0.9,0.8,1.7,1.3,2.3c0.6,0.6,1.3,1,2,1.3C270.8,72,271.6,72.2,272.4,72.2z"/>
		<path d="M286.8,53.5h4.3v3.8c0.3-0.6,0.6-1.1,1-1.6c0.4-0.5,0.9-1,1.4-1.3c0.5-0.3,1.2-0.7,1.8-0.9c0.7-0.3,1.3-0.3,2-0.3
			c1.8,0,3.3,0.4,4.3,1.2c1,0.8,1.8,1.8,2.1,3c0.7-1.3,1.5-2.3,2.7-3c1.2-0.8,2.5-1.2,4-1.2c2.3,0,4.1,0.7,5.3,2
			c1.3,1.3,1.8,3.5,1.8,6.4v14.3h-4.6V62.6c0-2-0.3-3.4-1.1-4.2c-0.8-0.8-1.8-1.3-3-1.3c-1.5,0-2.6,0.5-3.3,1.5
			c-0.8,1-1.1,2.3-1.1,3.9v13.3h-4.6V62.6c0-2-0.3-3.4-1.1-4.2c-0.8-0.8-1.8-1.3-3-1.3c-1.5,0-2.6,0.5-3.3,1.5
			c-0.8,1-1.1,2.3-1.1,3.9v13.3h-4.6L286.8,53.5L286.8,53.5z"/>
		<path d="M331.9,76.2c-1.5,0-2.8-0.3-4.2-0.7c-1.3-0.4-2.4-1.2-3.4-2.1s-1.8-2.1-2.3-3.5s-0.8-3.1-0.8-5v-0.8
			c0-1.8,0.3-3.4,0.8-4.9c0.6-1.3,1.3-2.5,2.3-3.4c1-0.9,2.1-1.6,3.3-2c1.3-0.4,2.6-0.7,4-0.7c3.3,0,5.9,0.9,7.8,2.7
			c1.8,1.8,2.7,4.4,2.7,7.8v2.3h-16.2c0,1.2,0.3,2.1,0.6,2.9c0.3,0.8,0.8,1.4,1.3,1.9c0.6,0.5,1.3,0.8,2,1.1
			c0.8,0.3,1.5,0.3,2.3,0.3c1.6,0,2.8-0.3,3.5-0.8c0.8-0.5,1.3-1.2,1.5-1.9h4.6c-0.4,2.2-1.5,3.9-3.3,5
			C336.5,75.7,334.4,76.2,331.9,76.2z M331.7,57.1c-0.8,0-1.5,0.1-2.3,0.3c-0.8,0.2-1.3,0.5-1.8,0.9c-0.6,0.4-1,1-1.3,1.7
			c-0.3,0.7-0.5,1.5-0.6,2.5h11.6c0-1-0.2-1.9-0.5-2.6c-0.3-0.7-0.7-1.3-1.2-1.7c-0.5-0.4-1.1-0.8-1.8-0.9
			C333.2,57.2,332.5,57.1,331.7,57.1z"/>
		<path d="M345.5,53.5h4.3v3.8c0.4-1.2,1.2-2.1,2.2-2.9c1-0.8,2.3-1.3,3.8-1.3c0.7,0,1.3,0,1.6,0.1s0.6,0.1,0.8,0.2v4.2
			c-0.5-0.2-0.9-0.3-1.3-0.3c-0.4-0.1-0.8-0.1-1.4-0.1c-0.9,0-1.7,0.2-2.3,0.5c-0.7,0.3-1.2,0.8-1.6,1.3s-0.8,1.1-0.9,1.8
			c-0.2,0.7-0.3,1.4-0.3,2.1v13h-4.6L345.5,53.5L345.5,53.5z"/>
		<path d="M369.1,76.2c-1.7,0-3-0.2-4.2-0.5c-1.2-0.3-2.1-0.8-2.8-1.5c-0.8-0.6-1.3-1.3-1.8-2.2s-0.7-1.7-0.8-2.6h4.6
			c0.2,0.8,0.7,1.4,1.4,1.9c0.8,0.5,1.9,0.8,3.6,0.8c1.8,0,3.2-0.3,3.9-0.8c0.8-0.5,1.1-1.2,1.1-1.9c0-0.3-0.1-0.7-0.3-1
			c-0.2-0.3-0.5-0.6-0.9-0.9c-0.4-0.3-1-0.5-1.8-0.8s-1.7-0.4-2.7-0.5c-1.3-0.2-2.4-0.4-3.4-0.8s-1.9-0.8-2.6-1.3
			c-0.8-0.5-1.3-1.2-1.7-1.9s-0.6-1.7-0.6-2.7c0-0.9,0.2-1.8,0.6-2.5c0.3-0.8,0.9-1.5,1.7-2.1c0.8-0.6,1.7-1.1,2.8-1.4
			c1.1-0.3,2.4-0.5,3.9-0.5c1.4,0,2.7,0.2,3.8,0.5c1.1,0.3,1.9,0.8,2.7,1.5c0.8,0.6,1.3,1.3,1.7,2.2c0.4,0.8,0.6,1.7,0.8,2.6h-4.6
			c-0.3-0.8-0.7-1.5-1.3-2c-0.7-0.5-1.6-0.8-2.8-0.8c-1.7,0-2.8,0.3-3.4,0.8c-0.7,0.5-1,1.1-1,1.8c0,0.4,0.1,0.8,0.3,1
			c0.2,0.3,0.4,0.6,0.8,0.8c0.4,0.3,0.9,0.4,1.6,0.7c0.7,0.2,1.6,0.3,2.6,0.4c1.3,0.2,2.4,0.4,3.5,0.8c1.1,0.3,2,0.8,2.8,1.3
			c0.8,0.6,1.3,1.3,1.8,2s0.7,1.8,0.7,2.8c0,0.9-0.2,1.8-0.6,2.7c-0.4,0.8-1,1.5-1.8,2.1c-0.8,0.6-1.8,1.1-3,1.4
			C372.1,76.1,370.7,76.2,369.1,76.2z"/>
		<path d="M399.6,76.2c-1.7,0-3-0.2-4.2-0.5c-1.2-0.3-2.1-0.8-2.8-1.5c-0.8-0.6-1.3-1.3-1.8-2.2s-0.7-1.7-0.8-2.6h4.6
			c0.2,0.8,0.7,1.4,1.4,1.9c0.8,0.5,1.9,0.8,3.6,0.8c1.8,0,3.2-0.3,3.9-0.8c0.8-0.5,1.1-1.2,1.1-1.9c0-0.3-0.1-0.7-0.3-1
			c-0.2-0.3-0.5-0.6-0.9-0.9c-0.4-0.3-1-0.5-1.8-0.8c-0.8-0.3-1.7-0.4-2.7-0.5c-1.3-0.2-2.4-0.4-3.4-0.8s-1.9-0.8-2.6-1.3
			c-0.8-0.5-1.3-1.2-1.7-1.9c-0.4-0.8-0.6-1.7-0.6-2.7c0-0.9,0.2-1.8,0.6-2.5c0.3-0.8,0.9-1.5,1.7-2.1c0.8-0.6,1.7-1.1,2.8-1.4
			c1.1-0.3,2.4-0.5,3.9-0.5c1.4,0,2.7,0.2,3.8,0.5c1.1,0.3,1.9,0.8,2.7,1.5c0.8,0.6,1.3,1.3,1.7,2.2c0.4,0.8,0.6,1.7,0.8,2.6h-4.6
			c-0.3-0.8-0.7-1.5-1.3-2c-0.7-0.5-1.6-0.8-2.8-0.8c-1.7,0-2.8,0.3-3.4,0.8c-0.7,0.5-1,1.1-1,1.8c0,0.4,0.1,0.8,0.3,1
			c0.2,0.3,0.4,0.6,0.8,0.8c0.4,0.3,0.9,0.4,1.6,0.7c0.7,0.2,1.6,0.3,2.6,0.4c1.3,0.2,2.4,0.4,3.5,0.8c1.1,0.3,2,0.8,2.8,1.3
			c0.8,0.6,1.3,1.3,1.8,2c0.4,0.8,0.7,1.8,0.7,2.8c0,0.9-0.2,1.8-0.6,2.7s-1,1.5-1.8,2.1c-0.8,0.6-1.8,1.1-3,1.4
			C402.6,76.1,401.2,76.2,399.6,76.2z"/>
		<path d="M412.8,53.5h4.3v3.8c0.7-1.3,1.7-2.3,3-3.1c1.3-0.8,2.8-1.1,4.5-1.1c2.9,0,5.2,0.9,6.9,2.7c1.7,1.8,2.5,4.5,2.5,8.2v0.8
			c0,1.9-0.3,3.5-0.7,5c-0.4,1.4-1.1,2.6-1.9,3.5c-0.8,0.9-1.8,1.7-2.9,2.1c-1.2,0.5-2.4,0.7-3.8,0.7c-1.6,0-3-0.3-4.3-1
			c-1.3-0.7-2.3-1.7-2.8-2.9v11.9h-4.6L412.8,53.5L412.8,53.5z M423.4,72.2c1.8,0,3.1-0.6,4.2-1.8c1.1-1.2,1.6-3,1.6-5.5V64
			c0-2.3-0.5-4.1-1.6-5.2c-1.1-1.1-2.4-1.7-4.2-1.7c-0.8,0-1.5,0.1-2.3,0.4c-0.8,0.3-1.3,0.6-1.9,1.1c-0.6,0.5-1,1.1-1.3,1.8
			c-0.3,0.8-0.5,1.6-0.5,2.5v2.9c0,1.1,0.2,2,0.5,2.8c0.3,0.8,0.8,1.4,1.3,2c0.6,0.5,1.2,0.9,1.9,1.2
			C421.8,72,422.5,72.2,423.4,72.2z"/>
		<path d="M447,76.2c-1.5,0-2.8-0.3-4.2-0.7c-1.3-0.4-2.4-1.2-3.4-2.1c-1-0.9-1.8-2.1-2.3-3.5s-0.8-3.1-0.8-5v-0.8
			c0-1.8,0.3-3.4,0.8-4.9c0.6-1.3,1.3-2.5,2.3-3.4c1-0.9,2.1-1.6,3.3-2c1.3-0.4,2.6-0.7,4-0.7c3.3,0,5.9,0.9,7.8,2.7
			c1.8,1.8,2.7,4.4,2.7,7.8v2.3h-16.2c0,1.2,0.3,2.1,0.6,2.9c0.3,0.8,0.8,1.4,1.3,1.9c0.6,0.5,1.3,0.8,2,1.1s1.5,0.3,2.3,0.3
			c1.6,0,2.8-0.3,3.5-0.8c0.8-0.5,1.3-1.2,1.5-1.9h4.6c-0.4,2.2-1.5,3.9-3.3,5C451.6,75.7,449.4,76.2,447,76.2z M446.8,57.1
			c-0.8,0-1.5,0.1-2.3,0.3c-0.8,0.2-1.3,0.5-1.8,0.9c-0.6,0.4-1,1-1.3,1.7c-0.3,0.7-0.5,1.5-0.6,2.5h11.6c0-1-0.2-1.9-0.5-2.6
			c-0.3-0.7-0.7-1.3-1.2-1.7c-0.5-0.4-1.1-0.8-1.8-0.9C448.3,57.2,447.5,57.1,446.8,57.1z"/>
		<path d="M460.6,53.5h4.3v3.8c0.5-1.1,1.4-2.1,2.6-2.9c1.2-0.8,2.8-1.3,4.6-1.3c2.7,0,4.8,0.8,6.1,2.2c1.3,1.5,2.1,3.6,2.1,6.5
			v14.1h-4.6V62.7c0-1.8-0.4-3.3-1.2-4.2s-2.1-1.4-3.8-1.4c-1,0-1.8,0.2-2.5,0.5c-0.7,0.3-1.3,0.8-1.7,1.3c-0.4,0.5-0.8,1.1-1,1.8
			c-0.2,0.7-0.3,1.4-0.3,2.1v13h-4.6L460.6,53.5L460.6,53.5z"/>
		<path d="M492.9,76.2c-1.4,0-2.7-0.3-3.8-0.7c-1.2-0.4-2.1-1.2-2.9-2.1s-1.4-2.1-1.9-3.5s-0.7-3.1-0.7-5v-0.8
			c0-1.8,0.3-3.4,0.7-4.7c0.4-1.3,1.1-2.5,1.9-3.4c0.8-0.9,1.8-1.6,2.9-2.1c1.2-0.5,2.4-0.7,3.8-0.7c1.7,0,3.1,0.3,4.3,1.1
			c1.3,0.8,2.2,1.8,2.8,2.9V46.4h4.6v29.4h-4.3V72c-0.3,0.6-0.6,1.1-1.1,1.6c-0.5,0.5-1,0.9-1.7,1.3c-0.7,0.4-1.4,0.7-2.2,0.9
			C494.7,76.1,493.8,76.2,492.9,76.2z M494,72.2c0.8,0,1.6-0.2,2.3-0.4c0.8-0.3,1.4-0.7,1.9-1.2c0.5-0.5,1-1.2,1.3-2
			c0.3-0.8,0.5-1.7,0.5-2.8v-2.9c0-0.9-0.2-1.8-0.5-2.5c-0.3-0.8-0.8-1.3-1.3-1.8c-0.6-0.5-1.3-0.8-2-1.1c-0.8-0.3-1.5-0.4-2.3-0.4
			c-1.8,0-3.2,0.6-4.2,1.7c-1,1.2-1.6,2.9-1.6,5.2v0.8c0,2.4,0.5,4.3,1.6,5.5C490.9,71.5,492.2,72.2,494,72.2z"/>
		<path d="M527.7,76.2c-1.7,0-3.2-0.3-4.5-0.7c-1.3-0.4-2.3-1-3.3-1.8c-0.8-0.8-1.5-1.7-2-2.8c-0.5-1.1-0.7-2.3-0.7-3.6h5
			c0,1.4,0.4,2.5,1.3,3.3c0.8,0.8,2.3,1.2,4.1,1.2s3.2-0.4,4.1-1.2c0.9-0.8,1.3-1.8,1.3-3.3c0-1.4-0.4-2.5-1.3-3.4s-2.3-1.3-4.2-1.3
			h-2.9v-4.2h2.9c1.7,0,2.9-0.3,3.8-1.1s1.3-1.8,1.3-3.1s-0.4-2.3-1.2-3c-0.8-0.7-2.1-1-3.8-1s-3,0.3-3.8,1
			c-0.8,0.7-1.3,1.7-1.3,2.9h-5c0-2.5,0.8-4.6,2.6-6.1c1.7-1.5,4.2-2.3,7.5-2.3c1.7,0,3.1,0.2,4.3,0.7c1.3,0.5,2.3,1,3.2,1.7
			c0.8,0.7,1.5,1.5,1.9,2.5c0.4,0.9,0.7,1.9,0.7,3c0,1.7-0.4,3.1-1.3,4.2c-0.9,1.2-2.1,1.9-3.7,2.4c1.7,0.5,3,1.3,4,2.5
			c0.9,1.2,1.4,2.8,1.4,4.8c0,1.2-0.3,2.3-0.7,3.4c-0.4,1-1.1,1.9-2,2.7c-0.8,0.8-2,1.3-3.3,1.8C530.8,76,529.3,76.2,527.7,76.2z"/>
		<path d="M541.4,71.4h6.9V51.7l-6.9,4.9v-5.2l7.1-5h4.8v25h5.7v4.4h-17.5L541.4,71.4L541.4,71.4z"/>
		<path d="M566.9,60.3c-1,0-2-0.2-2.8-0.5c-0.8-0.3-1.6-0.8-2.2-1.4s-1.1-1.3-1.4-2.2c-0.3-0.8-0.5-1.8-0.5-2.9v-0.4
			c0-1,0.2-2,0.5-2.9c0.3-0.8,0.8-1.6,1.4-2.2s1.3-1.1,2.2-1.4c0.8-0.3,1.8-0.5,2.8-0.5c1,0,1.9,0.2,2.8,0.5
			c0.8,0.3,1.6,0.8,2.2,1.4c0.6,0.6,1.1,1.3,1.4,2.2c0.3,0.8,0.5,1.8,0.5,2.9v0.4c0,1-0.2,2-0.5,2.9c-0.3,0.8-0.8,1.6-1.4,2.2
			s-1.3,1.1-2.2,1.4C568.9,60.1,567.9,60.3,566.9,60.3z M584.1,46.4h5L569,75.7h-5L584.1,46.4z M566.9,56.5c0.8,0,1.3-0.3,1.8-0.8
			c0.4-0.5,0.7-1.3,0.7-2.4v-0.4c0-1.1-0.3-1.9-0.7-2.4c-0.4-0.5-1-0.8-1.8-0.8s-1.3,0.3-1.8,0.8c-0.5,0.5-0.7,1.3-0.7,2.4v0.4
			c0,1.1,0.3,1.9,0.7,2.4C565.5,56.3,566.2,56.5,566.9,56.5z M586.1,76.2c-1,0-2-0.2-2.8-0.5c-0.8-0.3-1.6-0.8-2.2-1.4
			c-0.6-0.6-1.1-1.3-1.4-2.2c-0.3-0.8-0.5-1.8-0.5-2.9v-0.4c0-1,0.2-2,0.5-2.9c0.3-0.8,0.8-1.6,1.4-2.2s1.3-1.1,2.2-1.4
			c0.8-0.3,1.8-0.5,2.8-0.5c1,0,1.9,0.2,2.8,0.5s1.6,0.8,2.2,1.4c0.6,0.6,1.1,1.3,1.4,2.2c0.3,0.8,0.5,1.8,0.5,2.9v0.4
			c0,1-0.2,2-0.5,2.9s-0.8,1.6-1.4,2.2c-0.6,0.6-1.3,1.1-2.2,1.4C588.1,76,587.1,76.2,586.1,76.2z M586.1,72.4
			c0.8,0,1.3-0.3,1.8-0.8c0.4-0.5,0.7-1.3,0.7-2.4v-0.4c0-1.1-0.3-1.9-0.7-2.4c-0.4-0.5-1-0.8-1.8-0.8c-0.8,0-1.3,0.3-1.8,0.8
			c-0.4,0.5-0.7,1.3-0.7,2.4v0.4c0,1.1,0.3,1.9,0.7,2.4C584.7,72.1,585.4,72.4,586.1,72.4z"/>
		<path d="M604.9,53.5h4.3v3.8c0.3-0.6,0.6-1.1,1-1.6c0.4-0.5,0.9-1,1.4-1.3c0.5-0.4,1.2-0.7,1.8-0.9c0.7-0.3,1.3-0.3,2-0.3
			c1.8,0,3.3,0.4,4.3,1.2c1,0.8,1.8,1.8,2.1,3c0.7-1.3,1.5-2.3,2.7-3c1.2-0.8,2.5-1.2,4-1.2c2.3,0,4.1,0.7,5.3,2s1.8,3.5,1.8,6.4
			v14.3h-4.6V62.6c0-2-0.3-3.4-1.1-4.2c-0.8-0.8-1.8-1.3-3-1.3c-1.5,0-2.6,0.5-3.3,1.5c-0.8,1-1.1,2.3-1.1,3.9v13.3H618V62.6
			c0-2-0.3-3.4-1.1-4.2c-0.8-0.8-1.8-1.3-3-1.3c-1.5,0-2.6,0.5-3.3,1.5c-0.8,1-1.1,2.3-1.1,3.9v13.3h-4.6L604.9,53.5L604.9,53.5z"/>
		<path d="M650.1,76.2c-1.5,0-2.9-0.3-4.3-0.8c-1.3-0.5-2.5-1.2-3.4-2.2c-1-0.9-1.8-2.1-2.3-3.5s-0.8-3-0.8-4.9V64
			c0-1.8,0.3-3.4,0.8-4.7s1.3-2.5,2.3-3.4c1-0.9,2.1-1.7,3.4-2.1c1.3-0.5,2.8-0.7,4.3-0.7c1.5,0,2.9,0.3,4.3,0.7
			c1.3,0.5,2.5,1.2,3.4,2.1c1,0.9,1.8,2.1,2.3,3.4s0.8,2.9,0.8,4.7v0.8c0,1.8-0.3,3.5-0.8,4.9c-0.6,1.4-1.3,2.6-2.3,3.5
			s-2.1,1.7-3.4,2.2C653,76,651.6,76.2,650.1,76.2z M650.1,72.2c0.8,0,1.6-0.2,2.3-0.4c0.8-0.3,1.4-0.7,1.9-1.3
			c0.6-0.6,1-1.3,1.4-2.3c0.3-0.9,0.5-2,0.5-3.4v-0.8c0-1.2-0.2-2.3-0.5-3.1s-0.8-1.6-1.4-2.1c-0.6-0.6-1.3-1-1.9-1.3
			c-0.8-0.3-1.5-0.4-2.3-0.4c-0.8,0-1.6,0.2-2.3,0.4c-0.8,0.3-1.4,0.7-1.9,1.3c-0.6,0.6-1,1.3-1.4,2.1c-0.3,0.8-0.5,1.9-0.5,3.1v0.8
			c0,1.3,0.2,2.4,0.5,3.4c0.3,0.9,0.8,1.7,1.4,2.3c0.6,0.6,1.3,1,1.9,1.3C648.5,72,649.2,72.2,650.1,72.2z"/>
		<path d="M664.4,53.5h4.3v3.8c0.4-1.2,1.2-2.1,2.2-2.9c1-0.8,2.3-1.3,3.8-1.3c0.7,0,1.3,0,1.6,0.1c0.3,0.1,0.6,0.1,0.8,0.2v4.2
			c-0.5-0.2-0.9-0.3-1.3-0.3c-0.4-0.1-0.8-0.1-1.4-0.1c-0.9,0-1.7,0.2-2.3,0.5c-0.7,0.3-1.2,0.8-1.6,1.3s-0.8,1.1-0.9,1.8
			c-0.2,0.7-0.3,1.4-0.3,2.1v13h-4.6L664.4,53.5L664.4,53.5z"/>
		<path d="M688.9,76.2c-1.5,0-2.8-0.3-4.2-0.7c-1.3-0.4-2.4-1.2-3.4-2.1c-1-0.9-1.8-2.1-2.3-3.5s-0.8-3.1-0.8-5v-0.8
			c0-1.8,0.3-3.4,0.8-4.9c0.6-1.3,1.3-2.5,2.3-3.4c1-0.9,2.1-1.6,3.3-2c1.3-0.4,2.6-0.7,4-0.7c3.3,0,5.9,0.9,7.8,2.7
			c1.8,1.8,2.7,4.4,2.7,7.8v2.3h-16.2c0,1.2,0.3,2.1,0.6,2.9c0.3,0.8,0.8,1.4,1.3,1.9c0.6,0.5,1.3,0.8,2,1.1s1.5,0.3,2.3,0.3
			c1.6,0,2.8-0.3,3.5-0.8c0.8-0.5,1.3-1.2,1.5-1.9h4.6c-0.4,2.2-1.5,3.9-3.3,5C693.5,75.7,691.3,76.2,688.9,76.2z M688.7,57.1
			c-0.8,0-1.5,0.1-2.3,0.3c-0.8,0.2-1.3,0.5-1.8,0.9c-0.6,0.4-1,1-1.3,1.7s-0.5,1.5-0.6,2.5h11.6c0-1-0.2-1.9-0.5-2.6
			c-0.3-0.7-0.7-1.3-1.2-1.7c-0.5-0.4-1.1-0.8-1.8-0.9C690.2,57.2,689.4,57.1,688.7,57.1z"/>
	</g>
</g>
</svg>
