<?xml version="1.0" encoding="utf-8"?>
<!-- Generator: Adobe Illustrator 27.0.0, SVG Export Plug-In . SVG Version: 6.00 Build 0)  -->
<svg version="1.1" id="Layer_1" xmlns="http://www.w3.org/2000/svg" xmlns:xlink="http://www.w3.org/1999/xlink" x="0px" y="0px"
	 viewBox="0 0 828 151" style="enable-background:new 0 0 828 151;" xml:space="preserve">
<style type="text/css">
	.st0{fill:#F4DAFF;}
</style>
<g>
	<path class="st0" d="M75.8,0.1L752.2,0C794.1,0,828,33.8,828,75.5l0,0c0,41.7-33.9,75.5-75.8,75.5L75.8,151
		C33.9,151,0,117.2,0,75.5l0,0C0,33.9,33.9,0.1,75.8,0.1z"/>
	<g>
		<path d="M55.7,85.8h7.8V63.6l-7.8,5.6v-5.9l8.1-5.7h5.4v28.4h6.5v4.9H55.7V85.8z"/>
		<path d="M123.3,62.7c-1,0-1.8-0.3-2.4-1c-0.6-0.7-1-1.4-1-2.4s0.3-1.8,1-2.4c0.7-0.6,1.4-1,2.4-1c1,0,1.8,0.3,2.4,1
			c0.6,0.7,1,1.4,1,2.4s-0.3,1.8-1,2.4C125,62.3,124.2,62.7,123.3,62.7z M120.7,65.6h5.3v25.2h-5.3V65.6z"/>
		<path d="M131.9,65.6h4.9v4.3c0.6-1.2,1.6-2.4,3-3.3c1.3-1,3.2-1.4,5.3-1.4c3.1,0,5.4,0.9,7,2.5c1.5,1.7,2.4,4.1,2.4,7.3v15.9h-5.3
			V76c0-2.1-0.5-3.7-1.3-4.8c-0.9-1-2.4-1.6-4.4-1.6c-1.1,0-2.1,0.2-2.9,0.6c-0.8,0.4-1.4,0.9-1.9,1.4c-0.5,0.6-0.9,1.2-1.1,2
			c-0.2,0.8-0.4,1.6-0.4,2.4v14.7h-5.3L131.9,65.6L131.9,65.6z"/>
		<path d="M170.1,91.3c-1.7,0-3.3-0.3-4.8-0.8c-1.4-0.5-2.7-1.3-3.7-2.4c-1.1-1-1.9-2.4-2.5-4s-1-3.5-1-5.7v-1c0-2,0.3-3.8,1-5.3
			s1.5-2.9,2.6-3.9s2.4-1.8,3.8-2.4c1.4-0.5,3-0.8,4.6-0.8s3.2,0.2,4.4,0.7c1.3,0.5,2.4,1,3.3,1.8c0.9,0.8,1.6,1.7,2.2,2.8
			c0.6,1,0.9,2.2,1.1,3.3h-5.4c-0.3-1.1-0.9-2.1-1.7-2.9c-0.9-0.8-2.1-1.1-3.9-1.1c-0.9,0-1.7,0.2-2.5,0.5s-1.5,0.8-2.1,1.4
			c-0.6,0.7-1.1,1.4-1.4,2.5c-0.4,1-0.5,2.2-0.5,3.5v1c0,1.5,0.2,2.8,0.5,3.8c0.4,1,0.9,1.9,1.4,2.6c0.6,0.7,1.3,1.1,2.1,1.4
			s1.6,0.5,2.5,0.5c3,0,4.9-1.3,5.6-4h5.4c-0.3,1.3-0.7,2.6-1.3,3.6c-0.7,1-1.4,2-2.4,2.7c-1,0.7-2,1.3-3.2,1.7
			C172.9,91.2,171.5,91.3,170.1,91.3z"/>
		<path d="M184.9,65.6h4.9v4.3c0.5-1.3,1.3-2.4,2.5-3.3c1.1-1,2.6-1.4,4.3-1.4c0.8,0,1.4,0,1.8,0.1c0.4,0.1,0.7,0.1,0.9,0.2v4.8
			c-0.6-0.2-1.1-0.3-1.4-0.4c-0.5-0.1-1-0.1-1.6-0.1c-1.1,0-1.9,0.2-2.7,0.6s-1.3,0.9-1.8,1.4c-0.5,0.6-0.9,1.2-1.1,2
			c-0.2,0.8-0.4,1.6-0.4,2.4v14.7h-5.4V65.6z"/>
		<path d="M212.9,91.3c-1.7,0-3.2-0.3-4.8-0.8c-1.5-0.5-2.8-1.3-3.9-2.4c-1.1-1-2-2.4-2.7-4s-1-3.5-1-5.7v-1c0-2.1,0.3-3.9,1-5.4
			s1.5-2.9,2.6-3.9c1.1-1,2.4-1.8,3.8-2.3s3-0.8,4.6-0.8c3.8,0,6.8,1,8.9,3c2,2.1,3.1,5,3.1,8.8v2.7h-18.5c0,1.3,0.3,2.4,0.7,3.3
			c0.4,0.9,1,1.6,1.5,2.2c0.7,0.6,1.4,1,2.3,1.2s1.7,0.4,2.6,0.4c1.8,0,3.2-0.3,4-0.9s1.4-1.3,1.7-2.2h5.3c-0.5,2.5-1.7,4.4-3.7,5.7
			C218.1,90.7,215.7,91.3,212.9,91.3z M212.6,69.6c-0.9,0-1.7,0.1-2.6,0.4c-0.9,0.2-1.5,0.6-2.1,1c-0.7,0.5-1.1,1.1-1.5,1.9
			c-0.4,0.8-0.6,1.7-0.6,2.9h13.3c0-1.1-0.2-2.2-0.6-2.9c-0.3-0.8-0.8-1.4-1.3-1.9c-0.6-0.5-1.2-0.9-2-1
			C214.4,69.7,213.5,69.6,212.6,69.6z"/>
		<path d="M235.9,91.3c-1.3,0-2.6-0.2-3.6-0.6c-1.1-0.4-2-1-2.7-1.7c-0.8-0.8-1.3-1.5-1.6-2.5c-0.3-1-0.6-2-0.6-3.1
			c0-2.5,0.8-4.4,2.3-5.6c1.5-1.2,3.7-1.8,6.6-1.8h7.8v-1.3c0-1.9-0.4-3.2-1.2-3.9c-0.9-0.8-2.2-1-4-1c-1.6,0-2.9,0.3-3.6,0.8
			c-0.8,0.5-1.2,1.2-1.3,2.1h-5.2c0.1-1,0.4-2.1,0.9-2.9c0.5-1,1.1-1.7,2-2.4c0.9-0.7,1.9-1.1,3.2-1.5c1.2-0.4,2.7-0.6,4.2-0.6
			c1.5,0,3,0.2,4.2,0.5c1.2,0.4,2.3,0.9,3.2,1.6c0.9,0.8,1.6,1.7,2.1,2.9s0.8,2.6,0.8,4.3v10c0,1.3,0,2.5,0,3.5s0.1,2,0.2,2.9h-4.8
			c-0.1-0.8-0.2-1.3-0.2-1.9c-0.1-0.5-0.1-1.1-0.1-1.9c-0.6,1.1-1.6,2.2-3.2,3C239.8,90.9,238,91.3,235.9,91.3z M237.3,86.8
			c0.9,0,1.7-0.1,2.6-0.4c0.9-0.2,1.5-0.6,2.1-1c0.6-0.5,1.1-1,1.4-1.7s0.6-1.4,0.6-2.4v-1.4h-6.9c-1.3,0-2.4,0.3-3.2,0.9
			c-0.9,0.6-1.2,1.4-1.2,2.5c0,1,0.4,1.9,1.1,2.6C234.4,86.5,235.7,86.8,237.3,86.8z"/>
		<path d="M264.1,91.3c-1.9,0-3.4-0.2-4.8-0.6c-1.3-0.4-2.4-1-3.3-1.7c-0.9-0.7-1.5-1.5-2-2.5c-0.5-1-0.8-1.9-0.9-2.9h5.3
			c0.2,0.9,0.8,1.6,1.6,2.2c0.9,0.6,2.2,0.9,4.1,0.9c2.1,0,3.6-0.3,4.4-0.9c0.9-0.6,1.3-1.3,1.3-2.2c0-0.4-0.1-0.8-0.4-1.1
			c-0.2-0.4-0.6-0.7-1.1-1c-0.5-0.3-1.1-0.6-2-0.9s-1.9-0.5-3.1-0.6c-1.4-0.2-2.8-0.5-3.9-0.9c-1.1-0.4-2.2-0.9-3-1.4
			c-0.9-0.6-1.4-1.3-1.9-2.2c-0.5-0.9-0.7-1.9-0.7-3c0-1,0.2-2,0.6-2.9c0.4-1,1.1-1.7,1.9-2.4c0.9-0.7,1.9-1.2,3.2-1.6
			c1.3-0.4,2.8-0.6,4.5-0.6c1.6,0,3.1,0.2,4.3,0.6c1.2,0.4,2.2,1,3.1,1.7c0.9,0.7,1.4,1.5,1.9,2.5c0.5,1,0.7,1.9,0.9,2.9h-5.3
			c-0.3-1-0.8-1.7-1.5-2.3c-0.8-0.6-1.8-0.9-3.2-0.9c-1.9,0-3.2,0.3-3.9,0.9s-1.1,1.2-1.1,2c0,0.5,0.1,0.9,0.3,1.1
			c0.2,0.4,0.5,0.7,1,1s1.1,0.5,1.8,0.8c0.8,0.2,1.8,0.4,3,0.5c1.4,0.2,2.8,0.5,4,0.9c1.2,0.4,2.3,0.9,3.2,1.5
			c0.9,0.6,1.5,1.3,2,2.3c0.5,1,0.8,2,0.8,3.1c0,1-0.2,2.1-0.7,3c-0.5,1-1.1,1.7-2,2.4c-1,0.7-2,1.2-3.4,1.6
			C267.4,91.2,265.9,91.3,264.1,91.3z"/>
		<path d="M290,91.3c-1.7,0-3.2-0.3-4.8-0.8c-1.5-0.5-2.8-1.3-3.9-2.4c-1.1-1-2-2.4-2.7-4c-0.7-1.6-1-3.5-1-5.7v-1
			c0-2.1,0.3-3.9,1-5.4c0.7-1.5,1.5-2.9,2.6-3.9c1.1-1,2.4-1.8,3.8-2.3c1.4-0.5,3-0.8,4.6-0.8c3.8,0,6.8,1,8.9,3
			c2,2.1,3.1,5,3.1,8.8v2.7h-18.5c0,1.3,0.3,2.4,0.7,3.3c0.4,0.9,1,1.6,1.5,2.2c0.7,0.6,1.4,1,2.3,1.2s1.7,0.4,2.6,0.4
			c1.8,0,3.2-0.3,4-0.9c0.9-0.6,1.4-1.3,1.7-2.2h5.3c-0.5,2.5-1.7,4.4-3.7,5.7C295.3,90.7,292.9,91.3,290,91.3z M289.9,69.6
			c-0.9,0-1.7,0.1-2.6,0.4c-0.9,0.2-1.5,0.6-2.1,1c-0.7,0.5-1.1,1.1-1.5,1.9c-0.4,0.8-0.6,1.7-0.6,2.9h13.3c0-1.1-0.2-2.2-0.6-2.9
			c-0.3-0.8-0.8-1.4-1.3-1.9c-0.6-0.5-1.2-0.9-2-1C291.6,69.7,290.7,69.6,289.9,69.6z"/>
		<path d="M314.7,65.9h22.5v4.9h-22.5V65.9z M314.7,76.4h22.5v4.9h-22.5V76.4z"/>
		<path d="M362.5,91.3c-2,0-3.6-0.3-5.1-0.8c-1.4-0.5-2.6-1.1-3.5-2.1c-1-0.9-1.6-1.8-2.1-2.9c-0.5-1.1-0.8-2.2-0.8-3.3h5.7
			c0.2,1.1,0.8,2.1,1.7,2.9c1,0.8,2.3,1.1,4,1.1c1.9,0,3.4-0.6,4.6-1.7c1.1-1.1,1.6-2.9,1.6-4.9c0-1.2-0.2-2.3-0.6-3.1
			c-0.4-0.9-0.9-1.5-1.4-2c-0.6-0.5-1.2-0.9-2-1.1c-0.8-0.2-1.5-0.4-2.3-0.4c-1.3,0-2.5,0.2-3.4,0.8c-0.9,0.5-1.6,1.1-2.2,1.9h-5.2
			V57.5h20.8v4.9h-15.2v7.7c0.8-0.7,1.6-1.2,2.6-1.7c1-0.5,2.2-0.7,3.7-0.7c1.6,0,3.1,0.3,4.4,0.8s2.5,1.2,3.3,2.2
			c1,1,1.6,2.2,2.2,3.6c0.5,1.4,0.8,3.1,0.8,5c0,1.8-0.3,3.4-0.9,4.9c-0.6,1.4-1.3,2.7-2.4,3.7c-1.1,1-2.3,1.8-3.7,2.4
			C365.8,91.1,364.2,91.3,362.5,91.3z"/>
		<path d="M377,75h22v4.9h-22V75z"/>
		<path d="M413.3,91.3c-3,0-5.4-0.7-7.2-1.9c-1.9-1.2-3.1-3.2-3.5-6h5.7c0.4,1,1,1.7,1.7,2.2c0.9,0.5,1.9,0.7,3.2,0.7
			c1.1,0,2-0.2,2.9-0.5s1.7-1,2.4-1.7s1.2-1.9,1.6-3.3c0.4-1.4,0.7-3.2,0.7-5.3c-0.4,0.7-1,1.3-1.5,1.8c-0.7,0.5-1.3,0.9-2.1,1.1
			c-0.8,0.3-1.5,0.5-2.3,0.7c-0.8,0.1-1.6,0.2-2.4,0.2c-3.3,0-6-1-7.9-2.8s-2.9-4.5-2.9-7.8v-0.5c0-1.6,0.3-3.1,0.9-4.6
			c0.6-1.3,1.4-2.6,2.5-3.5c1.1-1,2.3-1.7,3.7-2.3c1.4-0.6,3-0.8,4.6-0.8c2,0,3.8,0.3,5.4,0.9c1.5,0.6,2.9,1.5,4,2.8
			c1.1,1.2,1.9,2.9,2.5,4.9c0.6,2,0.9,4.3,0.9,7v1c0,3.2-0.3,6-1,8.3c-0.7,2.3-1.6,4.1-2.8,5.5c-1.1,1.4-2.5,2.5-4.1,3.1
			C416.9,91,415.1,91.3,413.3,91.3z M414,74.6c1.9,0,3.4-0.6,4.6-1.7c1.1-1.1,1.7-2.6,1.7-4.4V68c0-0.9-0.2-1.6-0.5-2.4
			c-0.3-0.8-0.8-1.4-1.3-1.9c-0.6-0.6-1.2-1-2-1.3c-0.8-0.3-1.6-0.5-2.6-0.5c-1.9,0-3.4,0.6-4.6,1.7c-1.1,1.1-1.7,2.6-1.7,4.4v0.6
			c0,1.8,0.6,3.2,1.7,4.4C410.5,74.1,412.1,74.6,414,74.6z"/>
		<path d="M436.7,73.3c-1.1,0-2.3-0.2-3.2-0.6s-1.8-1-2.5-1.6c-0.7-0.7-1.2-1.5-1.6-2.5c-0.4-1-0.6-2-0.6-3.2v-0.5
			c0-1.1,0.2-2.3,0.6-3.2s1-1.8,1.6-2.5c0.7-0.7,1.5-1.2,2.5-1.6c1-0.4,2-0.6,3.2-0.6c1.1,0,2.2,0.2,3.2,0.6c1,0.4,1.8,1,2.5,1.6
			c0.7,0.7,1.2,1.5,1.6,2.5c0.4,1,0.6,2,0.6,3.2v0.5c0,1.1-0.2,2.3-0.6,3.2c-0.4,1-1,1.8-1.6,2.5c-0.7,0.7-1.5,1.2-2.5,1.6
			C438.9,73.1,437.9,73.3,436.7,73.3z M456.3,57.5h5.7l-22.9,33.3h-5.7L456.3,57.5z M436.7,69c0.9,0,1.5-0.3,2.1-0.9
			c0.5-0.6,0.8-1.5,0.8-2.8v-0.5c0-1.2-0.3-2.2-0.8-2.8c-0.5-0.6-1.1-0.9-2.1-0.9s-1.5,0.3-2.1,0.9c-0.6,0.6-0.8,1.5-0.8,2.8v0.5
			c0,1.2,0.3,2.2,0.8,2.8S435.9,69,436.7,69z M458.7,91.2c-1.1,0-2.3-0.2-3.2-0.6c-1-0.4-1.8-1-2.5-1.6c-0.7-0.7-1.2-1.5-1.6-2.5
			c-0.4-1-0.6-2-0.6-3.2v-0.5c0-1.1,0.2-2.3,0.6-3.2c0.4-1,1-1.8,1.6-2.5c0.7-0.7,1.5-1.2,2.5-1.6c1-0.4,2-0.6,3.2-0.6
			c1.1,0,2.2,0.2,3.2,0.6c1,0.4,1.8,1,2.5,1.6c0.7,0.7,1.2,1.5,1.6,2.5c0.4,1,0.6,2,0.6,3.2v0.5c0,1.1-0.2,2.3-0.6,3.2
			c-0.4,1-1,1.8-1.6,2.5c-0.7,0.7-1.5,1.2-2.5,1.6C460.9,91.1,459.9,91.2,458.7,91.2z M458.7,87c0.9,0,1.5-0.3,2.1-0.9
			c0.5-0.6,0.8-1.5,0.8-2.8v-0.5c0-1.2-0.3-2.2-0.8-2.8c-0.5-0.6-1.1-0.9-2.1-0.9c-1,0-1.5,0.3-2.1,0.9c-0.5,0.6-0.8,1.5-0.8,2.8
			v0.5c0,1.2,0.3,2.2,0.8,2.8C457.2,86.7,457.9,87,458.7,87z"/>
		<path d="M480.2,65.6h4.9v4.3c0.3-0.7,0.7-1.2,1.1-1.8s1.1-1.1,1.6-1.5c0.6-0.5,1.3-0.8,2-1c0.8-0.3,1.5-0.4,2.3-0.4
			c2.1,0,3.7,0.5,5,1.3c1.1,0.9,2,2,2.4,3.4c0.8-1.4,1.7-2.6,3.1-3.4s2.9-1.3,4.6-1.3c2.7,0,4.7,0.8,6.1,2.3c1.4,1.5,2.1,4,2.1,7.2
			v16.2h-5.3V75.8c0-2.3-0.4-3.8-1.2-4.8c-0.9-1-2-1.4-3.4-1.4c-1.7,0-3,0.6-3.8,1.7s-1.2,2.7-1.2,4.5v14.9h-5.3V75.8
			c0-2.3-0.4-3.8-1.2-4.8c-0.9-1-2-1.4-3.4-1.4c-1.7,0-3,0.6-3.8,1.7s-1.2,2.7-1.2,4.5v14.9h-5.2V65.6z"/>
		<path d="M531.8,91.3c-1.7,0-3.3-0.3-4.9-0.9c-1.5-0.6-2.9-1.3-3.9-2.5c-1.1-1-2-2.4-2.7-4s-1-3.4-1-5.6v-1c0-2,0.3-3.8,1-5.3
			s1.5-2.9,2.7-3.9c1.1-1,2.4-1.9,3.9-2.4c1.5-0.6,3.2-0.8,4.9-0.8s3.3,0.3,4.9,0.8c1.5,0.6,2.9,1.3,3.9,2.4c1.1,1,2,2.4,2.7,3.9
			s1,3.3,1,5.3v1c0,2.1-0.3,4-1,5.6c-0.7,1.6-1.5,2.9-2.7,4c-1.1,1-2.4,1.9-3.9,2.5C535.2,91.1,533.6,91.3,531.8,91.3z M531.8,86.8
			c1,0,1.8-0.2,2.7-0.5s1.6-0.8,2.2-1.4c0.7-0.7,1.1-1.5,1.6-2.6c0.4-1,0.6-2.3,0.6-3.8v-1c0-1.3-0.2-2.6-0.6-3.5
			c-0.4-1-1-1.8-1.6-2.4c-0.7-0.7-1.4-1.1-2.2-1.4c-0.9-0.3-1.7-0.5-2.7-0.5s-1.8,0.2-2.7,0.5s-1.6,0.8-2.2,1.4
			c-0.7,0.7-1.1,1.4-1.6,2.4c-0.4,1-0.6,2.2-0.6,3.5v1c0,1.5,0.2,2.8,0.6,3.8c0.4,1,1,1.9,1.6,2.6c0.7,0.7,1.4,1.1,2.2,1.4
			C530,86.6,530.9,86.8,531.8,86.8z"/>
		<path d="M548.3,65.6h4.9v4.3c0.5-1.3,1.3-2.4,2.5-3.3c1.1-1,2.6-1.4,4.3-1.4c0.8,0,1.4,0,1.8,0.1c0.4,0.1,0.7,0.1,0.9,0.2v4.8
			c-0.6-0.2-1.1-0.3-1.4-0.4c-0.5-0.1-1-0.1-1.6-0.1c-1.1,0-1.9,0.2-2.7,0.6s-1.3,0.9-1.8,1.4c-0.5,0.6-0.9,1.2-1.1,2
			c-0.2,0.8-0.4,1.6-0.4,2.4v14.7h-5.3L548.3,65.6L548.3,65.6z"/>
		<path d="M576.3,91.3c-1.7,0-3.2-0.3-4.8-0.8c-1.5-0.5-2.8-1.3-3.9-2.4c-1.1-1-2-2.4-2.7-4s-1-3.5-1-5.7v-1c0-2.1,0.3-3.9,1-5.4
			s1.5-2.9,2.6-3.9c1.1-1,2.4-1.8,3.8-2.3c1.4-0.5,3-0.8,4.6-0.8c3.8,0,6.8,1,8.9,3c2,2.1,3.1,5,3.1,8.8v2.7h-18.5
			c0,1.3,0.3,2.4,0.7,3.3c0.4,0.9,1,1.6,1.5,2.2c0.7,0.6,1.4,1,2.3,1.2c0.9,0.3,1.7,0.4,2.6,0.4c1.8,0,3.2-0.3,4-0.9
			c0.9-0.6,1.4-1.3,1.7-2.2h5.3c-0.5,2.5-1.7,4.4-3.7,5.7C581.5,90.7,579.1,91.3,576.3,91.3z M576,69.6c-0.9,0-1.7,0.1-2.6,0.4
			c-0.9,0.2-1.5,0.6-2.1,1c-0.7,0.5-1.1,1.1-1.5,1.9c-0.4,0.8-0.6,1.7-0.7,2.9h13.4c0-1.1-0.2-2.2-0.6-2.9c-0.3-0.8-0.8-1.4-1.3-1.9
			c-0.6-0.5-1.2-0.9-2-1C577.8,69.7,576.9,69.6,576,69.6z"/>
		<path d="M602.1,65.6h4.9v4.3c0.5-1.3,1.3-2.4,2.5-3.3c1.1-1,2.6-1.4,4.3-1.4c0.8,0,1.4,0,1.8,0.1c0.4,0.1,0.7,0.1,0.9,0.2v4.8
			c-0.6-0.2-1.1-0.3-1.4-0.4c-0.5-0.1-1-0.1-1.6-0.1c-1.1,0-1.9,0.2-2.7,0.6s-1.3,0.9-1.8,1.4c-0.5,0.6-0.9,1.2-1.1,2
			s-0.4,1.6-0.4,2.4v14.7h-5.3L602.1,65.6L602.1,65.6z"/>
		<path d="M630,91.3c-1.7,0-3.2-0.3-4.8-0.8c-1.5-0.5-2.8-1.3-3.9-2.4c-1.1-1-2-2.4-2.7-4c-0.7-1.6-1-3.5-1-5.7v-1
			c0-2.1,0.3-3.9,1-5.4c0.7-1.5,1.5-2.9,2.6-3.9c1.1-1,2.4-1.8,3.8-2.3c1.4-0.5,3-0.8,4.6-0.8c3.8,0,6.8,1,8.9,3
			c2,2.1,3.1,5,3.1,8.8v2.7H623c0,1.3,0.3,2.4,0.7,3.3c0.4,0.9,1,1.6,1.5,2.2c0.7,0.6,1.4,1,2.3,1.2c0.9,0.3,1.7,0.4,2.6,0.4
			c1.8,0,3.2-0.3,4-0.9c0.9-0.6,1.4-1.3,1.7-2.2h5.3c-0.5,2.5-1.7,4.4-3.7,5.7C635.2,90.7,632.9,91.3,630,91.3z M629.8,69.6
			c-0.9,0-1.7,0.1-2.6,0.4c-0.9,0.2-1.5,0.6-2.1,1c-0.7,0.5-1.1,1.1-1.5,1.9c-0.4,0.8-0.6,1.7-0.7,2.9h13.3c0-1.1-0.2-2.2-0.6-2.9
			c-0.3-0.8-0.8-1.4-1.3-1.9c-0.6-0.5-1.2-0.9-2-1C631.5,69.7,630.7,69.6,629.8,69.6z"/>
		<path d="M642.2,65.6h5.7l7.7,19.5l7-19.5h5.4l-9.7,25.2H653L642.2,65.6z"/>
		<path d="M681.1,91.3c-1.7,0-3.2-0.3-4.8-0.8c-1.5-0.5-2.8-1.3-3.9-2.4c-1.1-1-2-2.4-2.7-4s-1-3.5-1-5.7v-1c0-2.1,0.3-3.9,1-5.4
			s1.5-2.9,2.6-3.9c1.1-1,2.4-1.8,3.8-2.3s3-0.8,4.6-0.8c3.8,0,6.8,1,8.9,3c2,2.1,3.1,5,3.1,8.8v2.7h-18.5c0,1.3,0.3,2.4,0.7,3.3
			c0.4,0.9,1,1.6,1.5,2.2c0.7,0.6,1.4,1,2.3,1.2c0.9,0.3,1.7,0.4,2.6,0.4c1.8,0,3.2-0.3,4-0.9c0.9-0.6,1.4-1.3,1.7-2.2h5.3
			c-0.5,2.5-1.7,4.4-3.7,5.7C686.4,90.7,684,91.3,681.1,91.3z M680.9,69.6c-0.9,0-1.7,0.1-2.6,0.4c-0.9,0.2-1.5,0.6-2.1,1
			c-0.7,0.5-1.1,1.1-1.5,1.9c-0.4,0.8-0.6,1.7-0.7,2.9h13.3c0-1.1-0.2-2.2-0.6-2.9c-0.3-0.8-0.8-1.4-1.3-1.9c-0.6-0.5-1.2-0.9-2-1
			C682.6,69.7,681.8,69.6,680.9,69.6z"/>
		<path d="M696.7,65.6h4.9v4.3c0.6-1.2,1.6-2.4,3-3.3c1.3-1,3.2-1.4,5.3-1.4c3.1,0,5.4,0.9,7,2.5c1.5,1.7,2.4,4.1,2.4,7.3v15.9h-5.3
			V76c0-2.1-0.5-3.7-1.3-4.8c-0.9-1-2.4-1.6-4.4-1.6c-1.1,0-2.1,0.2-2.9,0.6s-1.4,0.9-1.9,1.4c-0.5,0.6-0.9,1.2-1.1,2
			c-0.2,0.8-0.4,1.6-0.4,2.4v14.7h-5.3L696.7,65.6L696.7,65.6z"/>
		<path d="M733.2,91.3c-3,0-5.3-0.9-6.8-2.6s-2.3-4.4-2.3-7.9V65.7h5.3v14.7c0,2.1,0.5,3.7,1.3,4.8c0.9,1,2.3,1.6,4.2,1.6
			c1.1,0,1.9-0.2,2.7-0.5c0.8-0.4,1.3-0.9,1.8-1.4c0.5-0.6,0.9-1.3,1.1-2.1c0.2-0.8,0.4-1.6,0.4-2.4V65.6h5.3v25.2h-4.9v-4.3
			c-0.6,1.3-1.6,2.4-3,3.3C737,90.9,735.3,91.3,733.2,91.3z"/>
		<path d="M762.6,91.3c-1.7,0-3.2-0.3-4.8-0.8c-1.5-0.5-2.8-1.3-3.9-2.4c-1.1-1-2-2.4-2.7-4c-0.7-1.6-1-3.5-1-5.7v-1
			c0-2.1,0.3-3.9,1-5.4c0.7-1.5,1.5-2.9,2.6-3.9c1.1-1,2.4-1.8,3.8-2.3c1.4-0.5,3-0.8,4.6-0.8c3.8,0,6.8,1,8.9,3
			c2,2.1,3.1,5,3.1,8.8v2.7h-18.5c0,1.3,0.3,2.4,0.7,3.3c0.4,0.9,1,1.6,1.5,2.2c0.7,0.6,1.4,1,2.3,1.2c0.9,0.3,1.7,0.4,2.6,0.4
			c1.8,0,3.2-0.3,4-0.9c0.9-0.6,1.4-1.3,1.7-2.2h5.3c-0.5,2.5-1.7,4.4-3.7,5.7C767.9,90.7,765.5,91.3,762.6,91.3z M762.3,69.6
			c-0.9,0-1.7,0.1-2.6,0.4c-0.9,0.2-1.5,0.6-2.1,1c-0.7,0.5-1.1,1.1-1.5,1.9c-0.4,0.8-0.6,1.7-0.7,2.9h13.4c0-1.1-0.2-2.2-0.6-2.9
			c-0.3-0.8-0.8-1.4-1.3-1.9c-0.6-0.5-1.2-0.9-2-1C764.2,69.7,763.3,69.6,762.3,69.6z"/>
	</g>
	<polygon points="96,58.9 100.6,68 110.8,69.5 103.4,76.5 105.1,86.5 96,81.8 87,86.5 88.7,76.5 81.3,69.5 91.6,68 	"/>
</g>
</svg>
