<?xml version="1.0" encoding="utf-8"?>
<!-- Generator: Adobe Illustrator 27.0.0, SVG Export Plug-In . SVG Version: 6.00 Build 0)  -->
<svg version="1.1" id="Layer_1" xmlns="http://www.w3.org/2000/svg" xmlns:xlink="http://www.w3.org/1999/xlink" x="0px" y="0px"
	 viewBox="0 0 3840 699" style="enable-background:new 0 0 3840 699;" xml:space="preserve">
<style type="text/css">
	.st0{fill:#F4DAFF;}
</style>
<g>
	<path class="st0" d="M351.5,0.4L3488.5,0C3682.7,0,3840,156.4,3840,349.3l0,0c0,192.9-157.3,349.3-351.5,349.3L351.5,699
		C157.3,699,0,542.6,0,349.7l0,0C0,156.8,157.3,0.4,351.5,0.4z"/>
	<g>
		<path d="M258.4,397.3h36.3V294.2l-36.3,26v-27.3l37.7-26.4h25.3v131.3h30.1v22.9h-93.1V397.3z"/>
		<path d="M571.7,290.3c-4.4,0-8.4-1.3-11.1-4.4c-2.7-3.1-4.4-6.6-4.4-11s1.3-8.4,4.4-11c3.1-2.6,6.6-4.4,11.1-4.4s8.4,1.3,11.1,4.4
			s4.4,6.6,4.4,11s-1.3,8.4-4.4,11C579.7,288.5,576.2,290.3,571.7,290.3z M559.8,303.5h24.4v116.7h-24.4V303.5z"/>
		<path d="M611.6,303.5h22.6v19.8c2.7-5.7,7.5-11,13.7-15.4c6.2-4.4,14.6-6.6,24.4-6.6c14.2,0,25.3,4,32.4,11.5
			c7.1,7.9,11.1,18.9,11.1,33.9v73.6h-24.4v-68.3c0-9.7-2.2-17.2-6.2-22s-11.1-7.5-20.4-7.5c-5.3,0-9.8,0.9-13.3,2.6
			c-3.5,1.8-6.6,4-8.9,6.6c-2.2,2.6-4,5.7-4.9,9.2c-0.9,3.5-1.8,7.5-1.8,11v68.3h-24.4L611.6,303.5L611.6,303.5z"/>
		<path d="M788.9,422.8c-8,0-15.5-1.3-22.2-3.5s-12.4-6.2-17.3-11c-4.9-4.8-8.9-11-11.5-18.5c-2.7-7.5-4.4-16.3-4.4-26.4V359
			c0-9.2,1.3-17.6,4.4-24.7c3.1-7,7.1-13.2,12-18.1c4.9-4.8,11.1-8.4,17.7-11c6.6-2.2,13.7-3.5,21.3-3.5s14.6,0.9,20.4,3.1
			c6.2,2.2,11.1,4.8,15.5,8.4c4,3.5,7.5,7.9,10.2,12.8c2.7,4.8,4,10.1,4.9,15.4h-24.8c-1.3-5.3-4-9.7-8-13.2
			c-4-3.5-9.8-5.3-18.2-5.3c-4,0-8,0.9-11.5,2.2c-3.5,1.3-7.1,3.5-9.8,6.6c-2.7,3.1-4.9,6.6-6.6,11.5c-1.8,4.8-2.2,10.1-2.2,16.3
			v4.4c0,7,0.9,12.8,2.2,17.6c1.8,4.8,4,8.8,6.6,11.9s6.2,5.3,9.8,6.6s7.5,2.2,11.5,2.2c13.7,0,22.6-6.2,26.1-18.5h24.8
			c-1.3,6.2-3.1,11.9-6.2,16.7c-3.1,4.8-6.6,9.2-11.1,12.3s-9.3,6.2-15.1,7.9C801.8,422,795.6,422.8,788.9,422.8z"/>
		<path d="M857.6,303.5h22.6v19.8c2.2-6.2,6.2-11,11.5-15.4c5.3-4.4,12-6.6,19.9-6.6c3.5,0,6.6,0,8.4,0.4c1.8,0.4,3.1,0.4,4,0.9v22
			c-2.7-0.9-4.9-1.3-6.6-1.8c-2.2-0.4-4.4-0.4-7.5-0.4c-4.9,0-8.9,0.9-12.4,2.6c-3.5,1.8-6.2,4-8.4,6.6c-2.2,2.6-4,5.7-4.9,9.2
			c-0.9,3.5-1.8,7.5-1.8,11v68.3h-24.8V303.5z"/>
		<path d="M987.5,422.8c-8,0-15.1-1.3-22.2-3.5s-12.9-6.2-18.2-11c-5.3-4.8-9.3-11-12.4-18.5s-4.4-16.3-4.4-26.4V359
			c0-9.7,1.3-18.1,4.4-25.1c3.1-7,7.1-13.2,12-18.1c4.9-4.8,11.1-8.4,17.7-10.6s13.7-3.5,21.3-3.5c17.7,0,31.5,4.8,41.2,14.1
			c9.3,9.7,14.2,23.3,14.2,41v12.3h-86c0,6.2,1.3,11,3.1,15.4c1.8,4,4.4,7.5,7.1,10.1c3.1,2.6,6.6,4.4,10.6,5.7s8,1.8,12,1.8
			c8.4,0,14.6-1.3,18.6-4c4-2.6,6.6-6.2,8-10.1h24.4c-2.2,11.5-8,20.3-17.3,26.4C1011.4,419.8,1000.3,422.8,987.5,422.8z
			 M986.1,322.4c-4,0-8,0.4-12,1.8c-4,0.9-7.1,2.6-9.8,4.8c-3.1,2.2-5.3,5.3-7.1,8.8c-1.8,3.5-2.7,7.9-2.7,13.2h61.6
			c0-5.3-0.9-10.1-2.7-13.7c-1.3-3.5-3.5-6.6-6.2-8.8s-5.8-4-9.3-4.8C994.1,322.9,990.1,322.4,986.1,322.4z"/>
		<path d="M1093.9,422.8c-6.2,0-12-0.9-16.8-2.6c-4.9-1.8-9.3-4.4-12.4-7.9c-3.5-3.5-6.2-7-7.5-11.5c-1.3-4.4-2.7-9.2-2.7-14.5
			c0-11.5,3.5-20.3,10.6-26c7.1-5.7,17.3-8.4,30.6-8.4h36.3v-6.2c0-8.8-1.8-15-5.8-18.1c-4-3.5-10.2-4.8-18.6-4.8
			c-7.5,0-13.3,1.3-16.8,3.5s-5.8,5.7-6.2,9.7h-23.9c0.4-4.8,1.8-9.7,4-13.7c2.2-4.4,5.3-7.9,9.3-11s8.9-5.3,14.6-7
			s12.4-2.6,19.5-2.6s13.7,0.9,19.5,2.2c5.8,1.8,10.6,4,15.1,7.5c4,3.5,7.5,7.9,9.8,13.2s3.5,11.9,3.5,19.8v46.2
			c0,6.2,0,11.5,0,16.3c0,4.8,0.4,9.2,0.9,13.7h-22.2c-0.4-3.5-0.9-6.2-0.9-8.8c-0.4-2.2-0.4-5.3-0.4-8.8
			c-2.7,5.3-7.5,10.1-14.6,14.1C1112,420.6,1103.6,422.8,1093.9,422.8z M1100.5,401.7c4,0,8-0.4,12-1.8c4-0.9,7.1-2.6,9.8-4.8
			s4.9-4.8,6.6-7.9c1.8-3.1,2.7-6.6,2.7-11v-6.6h-31.9c-6.2,0-11.1,1.3-15.1,4c-4,2.6-5.8,6.6-5.8,11.5c0,4.8,1.8,8.8,5.3,11.9
			C1087.2,400.4,1093,401.7,1100.5,401.7z"/>
		<path d="M1224.6,422.8c-8.9,0-16-0.9-22.2-2.6c-6.2-1.8-11.1-4.4-15.5-7.9c-4-3.1-7.1-7-9.3-11.5s-3.5-8.8-4-13.7h24.4
			c0.9,4,3.5,7.5,7.5,10.1c4,2.6,10.2,4,19.1,4c9.8,0,16.8-1.3,20.4-4c4-2.6,6.2-6.2,6.2-10.1c0-1.8-0.4-3.5-1.8-5.3
			c-0.9-1.8-2.7-3.1-4.9-4.8c-2.2-1.3-5.3-2.6-9.3-4c-4-1.3-8.9-2.2-14.2-2.6c-6.6-0.9-12.9-2.2-18.2-4c-5.3-1.8-10.2-4-13.7-6.6
			c-4-2.6-6.6-6.2-8.9-10.1c-2.2-4-3.1-8.8-3.1-14.1c0-4.8,0.9-9.2,2.7-13.2c1.8-4.4,4.9-7.9,8.9-11c4-3.1,8.9-5.7,15.1-7.5
			c6.2-1.8,12.9-2.6,20.8-2.6c7.5,0,14.2,0.9,19.9,2.6c5.8,1.8,10.2,4.4,14.2,7.9c4,3.1,6.6,7,8.9,11.5c2.2,4.4,3.1,8.8,4,13.7
			h-24.4c-1.3-4.4-3.5-7.9-7.1-10.6c-3.5-2.6-8.4-4-15.1-4c-8.9,0-14.6,1.3-18.2,4c-3.5,2.6-4.9,5.7-4.9,9.2c0,2.2,0.4,4,1.3,5.3
			c0.9,1.8,2.2,3.1,4.4,4.4c2.2,1.3,4.9,2.2,8.4,3.5c3.5,0.9,8.4,1.8,13.7,2.2c6.6,0.9,12.9,2.2,18.6,4c5.8,1.8,10.6,4,14.6,7
			c4,2.6,7.1,6.2,9.3,10.6s3.5,9.2,3.5,14.5c0,4.8-0.9,9.7-3.1,14.1s-5.3,7.9-9.3,11c-4.4,3.1-9.3,5.7-16,7.5
			C1240.1,422,1233,422.8,1224.6,422.8z"/>
		<path d="M1345.2,422.8c-8,0-15.1-1.3-22.2-3.5s-12.9-6.2-18.2-11c-5.3-4.8-9.3-11-12.4-18.5c-3.1-7.5-4.4-16.3-4.4-26.4V359
			c0-9.7,1.3-18.1,4.4-25.1c3.1-7,7.1-13.2,12-18.1c4.9-4.8,11.1-8.4,17.7-10.6s13.7-3.5,21.3-3.5c17.7,0,31.5,4.8,41.2,14.1
			c9.3,9.7,14.2,23.3,14.2,41v12.3h-86c0,6.2,1.3,11,3.1,15.4c1.8,4,4.4,7.5,7.1,10.1c3.1,2.6,6.6,4.4,10.6,5.7s8,1.8,12,1.8
			c8.4,0,14.6-1.3,18.6-4c4-2.6,6.6-6.2,8-10.1h24.4c-2.2,11.5-8,20.3-17.3,26.4C1369.5,419.8,1358.4,422.8,1345.2,422.8z
			 M1344.3,322.4c-4,0-8,0.4-12,1.8c-4,0.9-7.1,2.6-9.8,4.8c-3.1,2.2-5.3,5.3-7.1,8.8c-1.8,3.5-2.7,7.9-2.7,13.2h61.6
			c0-5.3-0.9-10.1-2.7-13.7c-1.3-3.5-3.5-6.6-6.2-8.8s-5.8-4-9.3-4.8C1352.2,322.9,1348.3,322.4,1344.3,322.4z"/>
		<path d="M1459.5,305.2h104.2v22.9h-104.2V305.2z M1459.5,353.7h104.2v22.9h-104.2V353.7z"/>
		<path d="M1681.1,422.8c-9.3,0-16.8-1.3-23.5-3.5s-12-5.3-16.4-9.7c-4.4-4-7.5-8.4-9.8-13.7s-3.5-10.1-3.5-15.4h26.6
			c0.9,5.3,3.5,9.7,8,13.2s10.6,5.3,18.6,5.3c8.9,0,16-2.6,21.3-7.9s7.5-13.2,7.5-22.9c0-5.7-0.9-10.6-2.7-14.5c-1.8-4-4-7-6.6-9.2
			s-5.8-4-9.3-5.3c-3.5-0.9-7.1-1.8-10.6-1.8c-6.2,0-11.5,0.9-16,3.5c-4,2.2-7.5,5.3-10.2,8.8h-23.9V266h96.6v22.9h-70.5v35.7
			c3.5-3.1,7.5-5.7,12-7.9s10.2-3.1,17.3-3.1c7.5,0,14.2,1.3,20.4,3.5s11.5,5.7,15.5,10.1c4.4,4.4,7.5,10.1,10.2,16.7
			c2.2,6.6,3.5,14.5,3.5,23.3c0,8.4-1.3,15.9-4,22.5s-6.2,12.3-11.1,17.2c-4.9,4.8-10.6,8.4-17.3,11
			C1696.6,421.5,1689.1,422.8,1681.1,422.8z"/>
		<path d="M1748.5,347.1h101.9V370h-101.9V347.1z"/>
		<path d="M1916.9,422.8c-13.7,0-24.8-3.1-33.2-8.8c-8.9-5.7-14.2-15-16.4-27.7h26.6c1.8,4.8,4.4,7.9,8,10.1c4,2.2,8.9,3.1,15.1,3.1
			c4.9,0,9.3-0.9,13.3-2.2c4-1.3,8-4.4,11.1-7.9s5.8-8.8,7.5-15.4c1.8-6.6,3.1-15,3.1-24.7c-1.8,3.1-4.4,6.2-7.1,8.4
			c-3.1,2.2-6.2,4-9.8,5.3c-3.5,1.3-7.1,2.2-10.6,3.1c-3.5,0.4-7.5,0.9-11.1,0.9c-15.5,0-27.9-4.4-36.8-12.8s-13.3-20.7-13.3-36.1
			v-2.2c0-7.5,1.3-14.5,4-21.1c2.7-6.2,6.6-11.9,11.5-16.3c4.9-4.4,10.6-7.9,17.3-10.6c6.6-2.6,13.7-3.5,21.3-3.5
			c9.3,0,17.7,1.3,24.8,4c7.1,2.6,13.3,7,18.6,12.8c4.9,5.7,8.9,13.2,11.5,22.5c2.7,9.2,4,19.8,4,32.6v4.4c0,15-1.3,27.7-4.4,38.3
			c-3.1,10.6-7.5,18.9-12.9,25.5c-5.3,6.6-11.5,11.5-19.1,14.5C1933.3,421.1,1925.3,422.8,1916.9,422.8z M1920,345.3
			c8.9,0,16-2.6,21.3-7.9c5.3-5.3,8-11.9,8-20.3v-2.2c0-4-0.9-7.5-2.2-11c-1.3-3.5-3.5-6.6-6.2-8.8c-2.7-2.6-5.8-4.4-9.3-6.2
			c-3.5-1.3-7.5-2.2-12-2.2c-8.9,0-16,2.6-21.3,7.9c-5.3,5.3-8,11.9-8,20.3v2.6c0,8.4,2.7,15,8,20.3
			C1903.6,343.1,1911.1,345.3,1920,345.3z"/>
		<path d="M2025.5,339.1c-5.3,0-10.6-0.9-15.1-2.6c-4.4-1.8-8.4-4.4-11.5-7.5s-5.8-7-7.5-11.5c-1.8-4.4-2.7-9.2-2.7-15v-2.2
			c0-5.3,0.9-10.6,2.7-15s4.4-8.4,7.5-11.5s7.1-5.7,11.5-7.5c4.4-1.8,9.3-2.6,15.1-2.6c5.3,0,10.2,0.9,14.6,2.6
			c4.4,1.8,8.4,4.4,11.5,7.5s5.8,7,7.5,11.5c1.8,4.4,2.7,9.2,2.7,15v2.2c0,5.3-0.9,10.6-2.7,15c-1.8,4.4-4.4,8.4-7.5,11.5
			s-7.1,5.7-11.5,7.5S2030.8,339.1,2025.5,339.1z M2116.3,266h26.6l-106.4,154.2H2010L2116.3,266z M2025.5,319.3c4,0,7.1-1.3,9.8-4
			c2.2-2.6,3.5-7,3.5-12.8v-2.2c0-5.7-1.3-10.1-3.5-12.8c-2.2-2.6-5.3-4-9.8-4s-7.1,1.3-9.8,4c-2.7,2.6-3.5,7-3.5,12.8v2.2
			c0,5.7,1.3,10.1,3.5,12.8C2018,318,2021.5,319.3,2025.5,319.3z M2127.4,422.4c-5.3,0-10.6-0.9-15.1-2.6c-4.4-1.8-8.4-4.4-11.5-7.5
			s-5.8-7-7.5-11.5c-1.8-4.4-2.7-9.2-2.7-15v-2.2c0-5.3,0.9-10.6,2.7-15c1.8-4.4,4.4-8.4,7.5-11.5s7.1-5.7,11.5-7.5
			s9.3-2.6,15.1-2.6c5.3,0,10.2,0.9,14.6,2.6c4.4,1.8,8.4,4.4,11.5,7.5s5.8,7,7.5,11.5c1.8,4.4,2.7,9.2,2.7,15v2.2
			c0,5.3-0.9,10.6-2.7,15c-1.8,4.4-4.4,8.4-7.5,11.5s-7.1,5.7-11.5,7.5C2137.6,421.5,2132.7,422.4,2127.4,422.4z M2127.4,402.6
			c4,0,7.1-1.3,9.8-4c2.2-2.6,3.5-7,3.5-12.8v-2.2c0-5.7-1.3-10.1-3.5-12.8c-2.2-2.6-5.3-4-9.8-4s-7.1,1.3-9.8,4
			c-2.2,2.6-3.5,7-3.5,12.8v2.2c0,5.7,1.3,10.1,3.5,12.8C2120.3,401.3,2123.4,402.6,2127.4,402.6z"/>
		<path d="M2227.1,303.5h22.6v19.8c1.3-3.1,3.1-5.7,5.3-8.4c2.2-2.6,4.9-5.3,7.5-7c2.7-2.2,6.2-3.5,9.3-4.8
			c3.5-1.3,7.1-1.8,10.6-1.8c9.8,0,17.3,2.2,23,6.2c5.3,4,9.3,9.2,11.1,15.9c3.5-6.6,8-11.9,14.2-15.9s13.3-6.2,21.3-6.2
			c12.4,0,21.7,3.5,28.4,10.6c6.6,7,9.8,18.5,9.8,33.5v74.9h-24.4V351c0-10.6-1.8-17.6-5.8-22c-4-4.4-9.3-6.6-16-6.6
			c-8,0-13.7,2.6-17.7,7.9c-4,5.3-5.8,12.3-5.8,20.7v69.2h-24.4V351c0-10.6-1.8-17.6-5.8-22c-4-4.4-9.3-6.6-16-6.6
			c-8,0-13.7,2.6-17.7,7.9c-4,5.3-5.8,12.3-5.8,20.7v69.2h-23.9V303.5z"/>
		<path d="M2466.5,422.8c-8,0-15.5-1.3-22.6-4c-7.1-2.6-13.3-6.2-18.2-11.5c-5.3-4.8-9.3-11-12.4-18.5c-3.1-7.5-4.4-15.9-4.4-26
			v-4.4c0-9.2,1.3-17.6,4.4-24.7c3.1-7,7.1-13.2,12.4-18.1c5.3-4.8,11.1-8.8,18.2-11c7.1-2.6,14.6-3.5,22.6-3.5s15.5,1.3,22.6,3.5
			c7.1,2.6,13.3,6.2,18.2,11c5.3,4.8,9.3,11,12.4,18.1c3.1,7,4.4,15.4,4.4,24.7v4.4c0,9.7-1.3,18.5-4.4,26
			c-3.1,7.5-7.1,13.7-12.4,18.5c-5.3,4.8-11.1,8.8-18.2,11.5C2482,421.5,2474.5,422.8,2466.5,422.8z M2466.5,401.7
			c4.4,0,8.4-0.9,12.4-2.2c4-1.3,7.5-3.5,10.2-6.6c3.1-3.1,5.3-7,7.5-11.9c1.8-4.8,2.7-10.6,2.7-17.6V359c0-6.2-0.9-11.9-2.7-16.3
			c-1.8-4.4-4.4-8.4-7.5-11c-3.1-3.1-6.6-5.3-10.2-6.6c-4-1.3-8-2.2-12.4-2.2s-8.4,0.9-12.4,2.2c-4,1.3-7.5,3.5-10.2,6.6
			c-3.1,3.1-5.3,6.6-7.5,11c-1.8,4.4-2.7,10.1-2.7,16.3v4.4c0,7,0.9,12.8,2.7,17.6s4.4,8.8,7.5,11.9s6.6,5.3,10.2,6.6
			C2458.1,400.8,2462.1,401.7,2466.5,401.7z"/>
		<path d="M2542.7,303.5h22.6v19.8c2.2-6.2,6.2-11,11.5-15.4s12-6.6,19.9-6.6c3.5,0,6.6,0,8.4,0.4c1.8,0.4,3.1,0.4,4,0.9v22
			c-2.7-0.9-4.9-1.3-6.6-1.8c-2.2-0.4-4.4-0.4-7.5-0.4c-4.9,0-8.9,0.9-12.4,2.6c-3.5,1.8-6.2,4-8.4,6.6c-2.2,2.6-4,5.7-4.9,9.2
			c-0.9,3.5-1.8,7.5-1.8,11v68.3h-24.4V303.5H2542.7z"/>
		<path d="M2672.6,422.8c-8,0-15.1-1.3-22.2-3.5s-12.9-6.2-18.2-11c-5.3-4.8-9.3-11-12.4-18.5s-4.4-16.3-4.4-26.4V359
			c0-9.7,1.3-18.1,4.4-25.1c3.1-7,7.1-13.2,12-18.1c5.3-4.8,11.1-8.4,17.7-10.6s13.7-3.5,21.3-3.5c17.7,0,31.5,4.8,41.2,14.1
			c9.3,9.7,14.2,23.3,14.2,41v12.3h-86c0,6.2,1.3,11,3.1,15.4c1.8,4,4.4,7.5,7.1,10.1c3.1,2.6,6.6,4.4,10.6,5.7s8,1.8,12,1.8
			c8.4,0,14.6-1.3,18.6-4c4-2.6,6.6-6.2,8-10.1h24.4c-2.2,11.5-8,20.3-17.3,26.4C2697,419.8,2685.9,422.8,2672.6,422.8z
			 M2671.2,322.4c-4,0-8,0.4-12,1.8c-4,0.9-7.1,2.6-9.8,4.8c-3.1,2.2-5.3,5.3-7.1,8.8c-1.8,3.5-2.7,7.9-3.1,13.2h62.1
			c0-5.3-0.9-10.1-2.7-13.7c-1.3-3.5-3.5-6.6-6.2-8.8s-5.8-4-9.3-4.8C2679.7,322.9,2675.7,322.4,2671.2,322.4z"/>
		<path d="M2792.2,303.5h22.6v19.8c2.2-6.2,6.2-11,11.5-15.4s12-6.6,19.9-6.6c3.5,0,6.6,0,8.4,0.4c1.8,0.4,3.1,0.4,4,0.9v22
			c-2.7-0.9-4.9-1.3-6.6-1.8c-2.2-0.4-4.4-0.4-7.5-0.4c-4.9,0-8.9,0.9-12.4,2.6c-3.5,1.8-6.2,4-8.4,6.6c-2.2,2.6-4,5.7-4.9,9.2
			c-0.9,3.5-1.8,7.5-1.8,11v68.3h-24.4V303.5H2792.2z"/>
		<path d="M2921.7,422.8c-8,0-15.1-1.3-22.2-3.5s-12.9-6.2-18.2-11c-5.3-4.8-9.3-11-12.4-18.5s-4.4-16.3-4.4-26.4V359
			c0-9.7,1.3-18.1,4.4-25.1c3.1-7,7.1-13.2,12-18.1c5.3-4.8,11.1-8.4,17.7-10.6s13.7-3.5,21.3-3.5c17.7,0,31.5,4.8,41.2,14.1
			c9.3,9.7,14.2,23.3,14.2,41v12.3h-86c0,6.2,1.3,11,3.1,15.4c1.8,4,4.4,7.5,7.1,10.1c3.1,2.6,6.6,4.4,10.6,5.7c4,1.3,8,1.8,12,1.8
			c8.4,0,14.6-1.3,18.6-4c4-2.6,6.6-6.2,8-10.1h24.4c-2.2,11.5-8,20.3-17.3,26.4C2946,419.8,2935,422.8,2921.7,422.8z M2920.8,322.4
			c-4,0-8,0.4-12,1.8c-4,0.9-7.1,2.6-9.8,4.8c-3.1,2.2-5.3,5.3-7.1,8.8c-1.8,3.5-2.7,7.9-3.1,13.2h61.6c0-5.3-0.9-10.1-2.7-13.7
			c-1.3-3.5-3.5-6.6-6.2-8.8s-5.8-4-9.3-4.8C2928.8,322.9,2924.8,322.4,2920.8,322.4z"/>
		<path d="M2978.4,303.5h26.6l35.9,90.3l32.4-90.3h24.8l-45.2,116.7h-24.4L2978.4,303.5z"/>
		<path d="M3158.8,422.8c-8,0-15.1-1.3-22.2-3.5s-12.9-6.2-18.2-11c-5.3-4.8-9.3-11-12.4-18.5s-4.4-16.3-4.4-26.4V359
			c0-9.7,1.3-18.1,4.4-25.1c3.1-7,7.1-13.2,12-18.1c5.3-4.8,11.1-8.4,17.7-10.6s13.7-3.5,21.3-3.5c17.7,0,31.5,4.8,41.2,14.1
			c9.3,9.7,14.2,23.3,14.2,41v12.3h-86c0,6.2,1.3,11,3.1,15.4c1.8,4,4.4,7.5,7.1,10.1c3.1,2.6,6.6,4.4,10.6,5.7c4,1.3,8,1.8,12,1.8
			c8.4,0,14.6-1.3,18.6-4c4-2.6,6.6-6.2,8-10.1h24.4c-2.2,11.5-8,20.3-17.3,26.4C3183.2,419.8,3172.1,422.8,3158.8,422.8z
			 M3157.9,322.4c-4,0-8,0.4-12,1.8c-4,0.9-7.1,2.6-9.8,4.8c-3.1,2.2-5.3,5.3-7.1,8.8c-1.8,3.5-2.7,7.9-3.1,13.2h61.6
			c0-5.3-0.9-10.1-2.7-13.7c-1.3-3.5-3.5-6.6-6.2-8.8c-2.7-2.2-5.8-4-9.3-4.8C3165.9,322.9,3161.9,322.4,3157.9,322.4z"/>
		<path d="M3231,303.5h22.6v19.8c2.7-5.7,7.5-11,13.7-15.4c6.2-4.4,14.6-6.6,24.4-6.6c14.2,0,25.3,4,32.4,11.5
			c7.1,7.9,11.1,18.9,11.1,33.9v73.6h-24.4v-68.3c0-9.7-2.2-17.2-6.2-22s-11.1-7.5-20.4-7.5c-5.3,0-9.8,0.9-13.3,2.6
			c-3.5,1.8-6.6,4-8.9,6.6c-2.2,2.6-4,5.7-5.3,9.2c-0.9,3.5-1.8,7.5-1.8,11v68.3h-24.4V303.5H3231z"/>
		<path d="M3400.3,422.8c-13.7,0-24.4-4-31.5-11.9c-7.1-7.9-10.6-20.3-10.6-36.6v-70.5h24.4v68.3c0,9.7,2.2,17.2,6.2,22
			c4,4.8,10.6,7.5,19.5,7.5c4.9,0,8.9-0.9,12.4-2.2c3.5-1.8,6.2-4,8.4-6.6c2.2-2.6,4-6.2,4.9-9.7s1.8-7.5,1.8-11v-68.7h24.4v116.7
			h-22.6v-19.8c-2.7,6.2-7.5,11-13.7,15.4C3418.1,420.6,3410.1,422.8,3400.3,422.8z"/>
		<path d="M3536.8,422.8c-8,0-15.1-1.3-22.2-3.5s-12.9-6.2-18.2-11c-5.3-4.8-9.3-11-12.4-18.5s-4.4-16.3-4.4-26.4V359
			c0-9.7,1.3-18.1,4.4-25.1c3.1-7,7.1-13.2,12-18.1c5.3-4.8,11.1-8.4,17.7-10.6s13.7-3.5,21.3-3.5c17.7,0,31.5,4.8,41.2,14.1
			c9.3,9.7,14.2,23.3,14.2,41v12.3h-86c0,6.2,1.3,11,3.1,15.4c1.8,4,4.4,7.5,7.1,10.1c3.1,2.6,6.6,4.4,10.6,5.7s8,1.8,12,1.8
			c8.4,0,14.6-1.3,18.6-4c4-2.6,6.6-6.2,8-10.1h24.4c-2.2,11.5-8,20.3-17.3,26.4C3561.2,419.8,3550.1,422.8,3536.8,422.8z
			 M3535.5,322.4c-4,0-8,0.4-12,1.8c-4,0.9-7.1,2.6-9.8,4.8c-3.1,2.2-5.3,5.3-7.1,8.8c-1.8,3.5-2.7,7.9-3.1,13.2h62
			c0-5.3-0.9-10.1-2.7-13.7c-1.3-3.5-3.5-6.6-6.2-8.8s-5.8-4-9.3-4.8C3543.9,322.9,3539.9,322.4,3535.5,322.4z"/>
	</g>
	<polygon points="445.4,272.6 466.7,314.9 513.7,321.5 479.6,354.1 487.5,400.4 445.4,378.8 403.3,400.4 411.3,354.1 377.2,321.5 
		424.6,314.9 	"/>
</g>
</svg>
