<?xml version="1.0" encoding="utf-8"?>
<!-- Generator: Adobe Illustrator 27.0.0, SVG Export Plug-In . SVG Version: 6.00 Build 0)  -->
<svg version="1.1" id="Layer_1" xmlns="http://www.w3.org/2000/svg" xmlns:xlink="http://www.w3.org/1999/xlink" x="0px" y="0px"
	 viewBox="0 0 750 114" style="enable-background:new 0 0 750 114;" xml:space="preserve">
<style type="text/css">
	.st0{fill:#F4F4B0;}
</style>
<g>
	<path class="st0" d="M56.8,0h636.4C724.6,0,750,25.5,750,57l0,0c0,31.5-25.4,57-56.8,57H56.8C25.4,114,0,88.5,0,57l0,0
		C-0.1,25.6,25.4,0,56.8,0z"/>
	<g>
		<path d="M50.6,70.9c-2.3,0-4.2-0.5-5.6-1.5c-1.5-1-2.4-2.6-2.8-4.8h4.5c0.3,0.8,0.7,1.4,1.4,1.7c0.7,0.4,1.5,0.5,2.6,0.5
			c0.8,0,1.5-0.1,2.3-0.4c0.7-0.3,1.3-0.7,1.8-1.4s0.9-1.5,1.3-2.6c0.3-1.1,0.5-2.5,0.5-4.2c-0.3,0.5-0.7,1-1.2,1.4
			c-0.5,0.4-1,0.7-1.6,1c-0.6,0.2-1.2,0.4-1.8,0.5c-0.7,0.1-1.2,0.1-1.8,0.1c-2.6,0-4.7-0.7-6.1-2.2c-1.5-1.5-2.2-3.5-2.2-6.2v-0.4
			c0-1.3,0.2-2.5,0.7-3.5c0.4-1.1,1.1-2,1.9-2.8c0.8-0.8,1.8-1.4,2.9-1.8c1.1-0.4,2.3-0.7,3.6-0.7c1.5,0,2.9,0.2,4.2,0.7
			c1.2,0.4,2.3,1.2,3.1,2.2c0.9,1,1.5,2.3,2,3.8c0.4,1.5,0.7,3.4,0.7,5.5v0.7c0,2.6-0.3,4.7-0.8,6.4c-0.5,1.8-1.2,3.2-2.1,4.3
			c-0.9,1.1-2,1.9-3.2,2.4C53.4,70.6,52.1,70.9,50.6,70.9z M51.1,57.8c1.5,0,2.7-0.4,3.6-1.3c0.9-0.9,1.4-2.1,1.4-3.4v-0.4
			c0-0.7-0.1-1.3-0.4-1.9c-0.2-0.6-0.6-1.1-1-1.5c-0.4-0.4-0.9-0.8-1.5-1c-0.6-0.2-1.2-0.4-2-0.4c-1.5,0-2.7,0.4-3.6,1.3
			c-0.9,0.9-1.4,2.1-1.4,3.4V53c0,1.4,0.4,2.6,1.4,3.4C48.4,57.4,49.6,57.8,51.1,57.8z"/>
		<path d="M75.4,64.5H62.5v-3.3l12.6-16.9h4.7v16.3H83v3.9h-3.1v5.9h-4.5C75.4,70.5,75.4,64.5,75.4,64.5z M75.4,60.7V49.5L67,60.7
			C67,60.7,75.4,60.7,75.4,60.7z"/>
		<path d="M90.9,56.7c-0.9,0-1.8-0.1-2.5-0.4s-1.4-0.7-2-1.2c-0.5-0.5-0.9-1.2-1.2-2c-0.3-0.7-0.4-1.6-0.4-2.5v-0.4
			c0-1,0.1-1.8,0.4-2.5c0.3-0.7,0.7-1.4,1.2-2c0.5-0.5,1.2-1,2-1.2c0.7-0.3,1.6-0.4,2.5-0.4c0.9,0,1.8,0.1,2.5,0.4
			c0.7,0.3,1.4,0.7,2,1.2c0.5,0.5,0.9,1.2,1.2,2c0.3,0.7,0.4,1.6,0.4,2.5v0.4c0,1-0.1,1.8-0.4,2.5c-0.3,0.7-0.7,1.4-1.2,2
			c-0.5,0.5-1.2,1-2,1.2C92.6,56.6,91.8,56.7,90.9,56.7z M106.1,44.3h4.5L92.7,70.5h-4.5L106.1,44.3z M90.9,53.3
			c0.7,0,1.2-0.2,1.6-0.7c0.4-0.4,0.6-1.2,0.6-2.2v-0.4c0-1-0.2-1.7-0.6-2.2c-0.4-0.4-0.9-0.7-1.6-0.7s-1.2,0.2-1.6,0.7
			c-0.4,0.4-0.6,1.2-0.6,2.2v0.4c0,1,0.2,1.7,0.6,2.2C89.6,53.1,90.2,53.3,90.9,53.3z M108,70.8c-0.9,0-1.8-0.1-2.5-0.4
			s-1.4-0.7-2-1.2c-0.5-0.5-0.9-1.2-1.2-2c-0.3-0.7-0.4-1.6-0.4-2.5v-0.4c0-1,0.1-1.8,0.4-2.5c0.3-0.7,0.7-1.4,1.2-2
			c0.5-0.5,1.2-1,2-1.2c0.7-0.3,1.6-0.4,2.5-0.4c0.9,0,1.8,0.1,2.5,0.4s1.4,0.7,2,1.2c0.5,0.5,0.9,1.2,1.2,2
			c0.3,0.7,0.4,1.6,0.4,2.5v0.4c0,1-0.1,1.8-0.4,2.5c-0.3,0.7-0.7,1.4-1.2,2c-0.5,0.5-1.2,1-2,1.2C109.8,70.7,108.9,70.8,108,70.8z
			 M108,67.5c0.7,0,1.2-0.2,1.6-0.7c0.4-0.4,0.6-1.2,0.6-2.2v-0.4c0-1-0.2-1.7-0.6-2.2c-0.4-0.4-0.9-0.7-1.6-0.7
			c-0.7,0-1.2,0.2-1.6,0.7c-0.4,0.4-0.6,1.2-0.6,2.2v0.4c0,1,0.2,1.7,0.6,2.2C106.8,67.3,107.3,67.5,108,67.5z"/>
		<path d="M130.5,70.9c-1.1,0-2-0.1-2.8-0.4c-0.8-0.3-1.5-0.7-2.1-1.3c-0.6-0.6-1-1.2-1.3-2c-0.3-0.7-0.4-1.5-0.4-2.5
			c0-2,0.6-3.4,1.8-4.4c1.2-1,2.8-1.5,5.1-1.5h6.1v-1.1c0-1.5-0.4-2.5-1-3.1c-0.7-0.6-1.7-0.8-3.1-0.8c-1.2,0-2.2,0.2-2.8,0.6
			c-0.6,0.4-0.9,1-1,1.6h-4c0.1-0.9,0.3-1.6,0.7-2.3c0.4-0.7,0.9-1.3,1.6-1.8c0.7-0.5,1.5-1,2.5-1.2c0.9-0.3,2-0.4,3.3-0.4
			s2.3,0.1,3.3,0.4s1.8,0.7,2.5,1.3c0.7,0.6,1.2,1.3,1.6,2.3c0.4,1,0.6,2.1,0.6,3.3v7.9c0,1,0,2,0.1,2.7c0,0.8,0.1,1.5,0.2,2.3h-3.7
			c-0.1-0.6-0.1-1-0.1-1.5c-0.1-0.4-0.1-0.9-0.1-1.5c-0.4,1-1.3,1.7-2.4,2.3C133.7,70.6,132.2,70.9,130.5,70.9z M131.6,67.3
			c0.7,0,1.4-0.1,2-0.3c0.7-0.2,1.2-0.4,1.7-0.8c0.4-0.4,0.9-0.8,1.2-1.3c0.3-0.5,0.4-1.2,0.4-1.8V62h-5.4c-1,0-1.9,0.2-2.5,0.7
			c-0.7,0.4-0.9,1.1-0.9,2c0,0.8,0.3,1.5,0.9,2C129.4,67,130.4,67.3,131.6,67.3z"/>
		<path d="M142.6,50.7h4.5l6.1,15.3l5.4-15.3h4.2l-7.7,19.8H151L142.6,50.7z"/>
		<path d="M173,70.9c-1.4,0-2.6-0.2-3.8-0.7c-1.2-0.4-2.2-1.1-3.1-1.9c-0.9-0.9-1.5-1.9-2-3.2c-0.5-1.2-0.7-2.7-0.7-4.4v-0.7
			c0-1.5,0.2-2.9,0.7-4.2c0.5-1.2,1.2-2.2,2-3.1c0.9-0.8,1.9-1.5,3.1-1.9c1.2-0.4,2.5-0.7,3.8-0.7c1.4,0,2.6,0.2,3.8,0.7
			c1.2,0.4,2.2,1,3.1,1.9c0.9,0.8,1.5,1.8,2,3.1c0.5,1.2,0.7,2.6,0.7,4.2v0.7c0,1.7-0.2,3.2-0.7,4.4c-0.5,1.2-1.2,2.3-2,3.2
			c-0.9,0.9-1.9,1.5-3.1,1.9C175.7,70.7,174.3,70.9,173,70.9z M173,67.3c0.7,0,1.4-0.1,2-0.4c0.7-0.2,1.2-0.7,1.8-1.2
			c0.5-0.5,0.9-1.2,1.2-2.1c0.3-0.8,0.4-1.8,0.4-3V60c0-1.1-0.1-2-0.4-2.8c-0.3-0.8-0.7-1.4-1.2-1.9c-0.5-0.5-1.1-0.9-1.8-1.1
			c-0.7-0.2-1.3-0.4-2-0.4c-0.7,0-1.4,0.1-2,0.4c-0.7,0.2-1.2,0.6-1.8,1.1s-0.9,1.1-1.2,1.9c-0.3,0.8-0.4,1.7-0.4,2.8v0.7
			c0,1.2,0.1,2.2,0.4,3s0.7,1.5,1.2,2.1c0.5,0.5,1.1,0.9,1.8,1.2C171.6,67.2,172.3,67.3,173,67.3z"/>
		<path d="M188.3,48.4c-0.8,0-1.4-0.2-1.9-0.7c-0.5-0.5-0.7-1.1-0.7-1.9s0.2-1.4,0.7-1.9s1.1-0.7,1.9-0.7s1.4,0.2,1.9,0.7
			s0.7,1.1,0.7,1.9s-0.2,1.4-0.7,1.9C189.7,48.2,189,48.4,188.3,48.4z M186.2,50.7h4.1v19.8h-4.1V50.7z"/>
		<path d="M202.2,70.9c-1.2,0-2.4-0.2-3.4-0.7c-1-0.4-1.9-1-2.6-1.9c-0.7-0.8-1.3-1.9-1.7-3.2c-0.4-1.2-0.6-2.8-0.6-4.5V60
			c0-1.6,0.2-3,0.6-4.2c0.4-1.2,0.9-2.2,1.7-3.1c0.7-0.9,1.6-1.5,2.6-1.9c1-0.4,2.1-0.7,3.4-0.7c1.5,0,2.8,0.4,3.9,1
			c1.1,0.7,1.9,1.5,2.6,2.6v-9.5h4.1v26.2h-3.8v-3.2c-0.2,0.5-0.5,1-0.9,1.4c-0.4,0.4-0.9,0.9-1.5,1.2c-0.6,0.4-1.2,0.6-2,0.8
			C203.8,70.8,203,70.9,202.2,70.9z M203.1,67.3c0.7,0,1.4-0.1,2-0.4c0.7-0.2,1.2-0.6,1.8-1c0.5-0.4,0.9-1,1.2-1.8
			c0.3-0.7,0.4-1.5,0.4-2.5v-2.6c0-0.9-0.1-1.6-0.4-2.3c-0.3-0.7-0.7-1.2-1.2-1.6s-1.1-0.7-1.8-1c-0.7-0.2-1.3-0.4-2-0.4
			c-1.5,0-2.8,0.5-3.7,1.5c-0.9,1-1.4,2.6-1.4,4.7v0.7c0,2.2,0.4,3.8,1.4,4.9C200.4,66.7,201.6,67.3,203.1,67.3z"/>
		<path d="M235.5,70.9c-1.6,0-3.1-0.4-4.2-1.1c-1.2-0.7-2-1.6-2.5-2.6v3.3h-3.8V44.3h4.1v9.5c0.6-1,1.5-1.8,2.6-2.6s2.3-1,3.9-1
			c2.6,0,4.6,0.8,6.1,2.4c1.5,1.6,2.3,4,2.3,7.3v0.7c0,1.7-0.2,3.2-0.6,4.5c-0.4,1.2-0.9,2.3-1.7,3.2c-0.7,0.8-1.6,1.5-2.6,1.9
			C237.8,70.7,236.7,70.9,235.5,70.9z M234.4,67.3c1.5,0,2.8-0.5,3.7-1.6c0.9-1.1,1.4-2.7,1.4-4.9v-0.7c0-2.1-0.4-3.7-1.4-4.7
			s-2.2-1.5-3.7-1.5c-0.7,0-1.4,0.1-2,0.4c-0.7,0.2-1.2,0.6-1.8,1c-0.5,0.4-0.9,1-1.2,1.6c-0.3,0.7-0.4,1.4-0.4,2.3v2.6
			c0,1,0.1,1.8,0.4,2.5c0.3,0.7,0.7,1.3,1.2,1.8c0.5,0.4,1.1,0.8,1.8,1C233.1,67.2,233.8,67.3,234.4,67.3z"/>
		<path d="M253.8,70.9c-2.3,0-4.1-0.7-5.3-2.1c-1.2-1.4-1.8-3.4-1.8-6.2V50.7h4.1v11.6c0,1.7,0.4,2.9,1,3.8c0.7,0.9,1.8,1.2,3.3,1.2
			c0.8,0,1.5-0.1,2.1-0.4c0.6-0.3,1.1-0.7,1.5-1.1c0.4-0.4,0.7-1,0.8-1.6c0.2-0.6,0.3-1.2,0.3-1.9V50.7h4.1v19.8h-3.8v-3.4
			c-0.4,1-1.2,1.9-2.3,2.6C256.7,70.5,255.4,70.9,253.8,70.9z"/>
		<path d="M275.6,70.9c-1.5,0-2.7-0.1-3.7-0.5c-1-0.3-1.9-0.7-2.6-1.3c-0.7-0.5-1.2-1.2-1.5-1.9c-0.4-0.7-0.6-1.5-0.7-2.3h4.1
			c0.1,0.7,0.6,1.2,1.2,1.8c0.7,0.5,1.8,0.7,3.2,0.7c1.6,0,2.8-0.2,3.4-0.7c0.7-0.4,1-1,1-1.8c0-0.3-0.1-0.7-0.3-0.9
			c-0.1-0.3-0.4-0.5-0.8-0.8c-0.4-0.2-0.9-0.4-1.5-0.7s-1.5-0.4-2.4-0.5c-1.1-0.1-2.1-0.4-3.1-0.7c-0.9-0.3-1.7-0.7-2.3-1.2
			c-0.7-0.4-1.2-1-1.5-1.7c-0.4-0.7-0.5-1.5-0.5-2.4c0-0.8,0.1-1.5,0.5-2.3c0.4-0.7,0.8-1.3,1.5-1.8s1.5-1,2.5-1.2
			c1-0.3,2.2-0.4,3.5-0.4c1.3,0,2.4,0.1,3.4,0.5c0.9,0.3,1.8,0.7,2.3,1.3c0.7,0.5,1.1,1.2,1.5,1.9c0.4,0.7,0.6,1.5,0.7,2.3h-4.1
			c-0.2-0.8-0.6-1.4-1.2-1.8c-0.6-0.4-1.5-0.7-2.5-0.7c-1.5,0-2.5,0.2-3.1,0.7c-0.6,0.4-0.9,1-0.9,1.5c0,0.4,0.1,0.7,0.2,1
			s0.4,0.5,0.7,0.7c0.4,0.2,0.8,0.4,1.5,0.6c0.6,0.1,1.4,0.3,2.3,0.4c1.2,0.1,2.2,0.4,3.1,0.7c0.9,0.3,1.8,0.7,2.5,1.2
			c0.7,0.5,1.2,1.1,1.6,1.8c0.4,0.7,0.6,1.5,0.6,2.5c0,0.9-0.1,1.6-0.5,2.3c-0.4,0.7-0.9,1.4-1.6,1.9c-0.7,0.5-1.6,1-2.7,1.2
			C278.4,70.7,277,70.9,275.6,70.9z"/>
		<path d="M289.7,48.4c-0.8,0-1.4-0.2-1.9-0.7c-0.5-0.5-0.7-1.1-0.7-1.9s0.2-1.4,0.7-1.9s1.1-0.7,1.9-0.7c0.8,0,1.4,0.2,1.9,0.7
			c0.5,0.5,0.7,1.1,0.7,1.9s-0.2,1.4-0.7,1.9C291.1,48.2,290.5,48.4,289.7,48.4z M287.7,50.7h4.1v19.8h-4.1V50.7z"/>
		<path d="M296.5,50.7h3.8V54c0.4-1,1.2-1.8,2.3-2.6c1.1-0.8,2.4-1.1,4.2-1.1c2.4,0,4.2,0.7,5.4,2c1.2,1.3,1.8,3.2,1.8,5.7v12.5
			h-4.1V58.9c0-1.7-0.4-2.9-1-3.8c-0.7-0.9-1.8-1.2-3.4-1.2c-0.9,0-1.6,0.1-2.2,0.4c-0.6,0.3-1.1,0.7-1.5,1.1s-0.7,1-0.9,1.6
			c-0.2,0.6-0.3,1.2-0.3,1.9v11.6h-4.1L296.5,50.7L296.5,50.7z"/>
		<path d="M326.6,70.9c-1.3,0-2.6-0.2-3.7-0.6c-1.2-0.4-2.2-1-3.1-1.8s-1.6-1.9-2.1-3.2c-0.5-1.2-0.8-2.8-0.8-4.5v-0.7
			c0-1.6,0.2-3.1,0.7-4.3s1.2-2.3,2-3.1c0.9-0.8,1.8-1.4,3-1.8c1.1-0.4,2.3-0.6,3.6-0.6c3,0,5.3,0.8,6.9,2.4c1.6,1.6,2.4,4,2.4,7
			v2.1h-14.5c0,1,0.2,1.9,0.5,2.6c0.3,0.7,0.7,1.3,1.2,1.7c0.5,0.4,1.1,0.7,1.8,1c0.7,0.2,1.3,0.3,2,0.3c1.4,0,2.5-0.2,3.1-0.7
			c0.7-0.4,1.1-1,1.4-1.8h4.1c-0.4,2-1.4,3.4-2.9,4.5C330.7,70.4,328.8,70.9,326.6,70.9z M326.5,53.8c-0.7,0-1.4,0.1-2,0.3
			c-0.7,0.1-1.2,0.4-1.7,0.8c-0.5,0.4-0.9,0.9-1.2,1.5s-0.4,1.3-0.5,2.2h10.4c0-1-0.1-1.7-0.4-2.3c-0.3-0.6-0.6-1.1-1.1-1.5
			c-0.4-0.4-0.9-0.7-1.6-0.8C327.8,53.9,327.1,53.8,326.5,53.8z"/>
		<path d="M346.2,70.9c-1.5,0-2.7-0.1-3.7-0.5c-1-0.3-1.9-0.7-2.6-1.3c-0.7-0.5-1.2-1.2-1.5-1.9c-0.4-0.7-0.6-1.5-0.7-2.3h4.1
			c0.1,0.7,0.6,1.2,1.2,1.8c0.7,0.5,1.8,0.7,3.2,0.7c1.6,0,2.8-0.2,3.4-0.7c0.7-0.4,1-1,1-1.8c0-0.3-0.1-0.7-0.3-0.9
			c-0.1-0.3-0.4-0.5-0.8-0.8c-0.4-0.2-0.9-0.4-1.5-0.7s-1.5-0.4-2.4-0.5c-1.1-0.1-2.1-0.4-3.1-0.7c-0.9-0.3-1.7-0.7-2.3-1.2
			c-0.7-0.5-1.2-1-1.5-1.7c-0.3-0.7-0.5-1.5-0.5-2.4c0-0.8,0.1-1.5,0.5-2.3c0.3-0.7,0.8-1.3,1.5-1.8s1.5-1,2.5-1.2
			c1-0.3,2.2-0.4,3.5-0.4c1.3,0,2.4,0.1,3.4,0.5c0.9,0.3,1.8,0.7,2.3,1.3c0.7,0.5,1.1,1.2,1.5,1.9c0.4,0.7,0.6,1.5,0.7,2.3H350
			c-0.2-0.8-0.6-1.4-1.2-1.8c-0.6-0.4-1.5-0.7-2.5-0.7c-1.5,0-2.5,0.2-3.1,0.7c-0.6,0.4-0.9,1-0.9,1.5c0,0.4,0.1,0.7,0.2,1
			c0.1,0.3,0.4,0.5,0.7,0.7c0.4,0.2,0.8,0.4,1.5,0.6c0.6,0.1,1.4,0.3,2.3,0.4c1.2,0.1,2.2,0.4,3.1,0.7c0.9,0.3,1.8,0.7,2.5,1.2
			c0.7,0.5,1.2,1.1,1.6,1.8c0.4,0.7,0.6,1.5,0.6,2.5c0,0.9-0.1,1.6-0.5,2.3c-0.4,0.7-0.9,1.4-1.6,1.9c-0.7,0.5-1.6,1-2.7,1.2
			C348.8,70.7,347.6,70.9,346.2,70.9z"/>
		<path d="M365.4,70.9c-1.5,0-2.7-0.1-3.7-0.5c-1-0.3-1.9-0.7-2.6-1.3c-0.7-0.5-1.2-1.2-1.5-1.9c-0.4-0.7-0.6-1.5-0.7-2.3h4.1
			c0.1,0.7,0.6,1.2,1.2,1.8c0.7,0.5,1.8,0.7,3.2,0.7c1.6,0,2.8-0.2,3.4-0.7c0.7-0.4,1-1,1-1.8c0-0.3-0.1-0.7-0.3-0.9
			c-0.1-0.3-0.4-0.5-0.8-0.8c-0.4-0.2-0.9-0.4-1.5-0.7c-0.7-0.2-1.5-0.4-2.4-0.5c-1.1-0.1-2.1-0.4-3.1-0.7c-0.9-0.3-1.7-0.7-2.3-1.2
			s-1.2-1-1.5-1.7c-0.3-0.7-0.5-1.5-0.5-2.4c0-0.8,0.1-1.5,0.5-2.3c0.3-0.7,0.8-1.3,1.5-1.8c0.7-0.5,1.5-1,2.5-1.2
			c1-0.3,2.2-0.4,3.5-0.4c1.3,0,2.4,0.1,3.4,0.5c0.9,0.3,1.8,0.7,2.3,1.3c0.7,0.5,1.1,1.2,1.5,1.9c0.4,0.7,0.6,1.5,0.7,2.3h-4.1
			c-0.2-0.8-0.6-1.4-1.2-1.8c-0.6-0.4-1.5-0.7-2.5-0.7c-1.5,0-2.5,0.2-3.1,0.7c-0.6,0.4-0.9,1-0.9,1.5c0,0.4,0.1,0.7,0.2,1
			c0.1,0.3,0.4,0.5,0.7,0.7c0.4,0.2,0.8,0.4,1.5,0.6c0.6,0.1,1.4,0.3,2.3,0.4c1.2,0.1,2.2,0.4,3.1,0.7c0.9,0.3,1.8,0.7,2.5,1.2
			c0.7,0.5,1.2,1.1,1.6,1.8c0.4,0.7,0.6,1.5,0.6,2.5c0,0.9-0.1,1.6-0.5,2.3c-0.4,0.7-0.9,1.4-1.6,1.9c-0.7,0.5-1.6,1-2.7,1.2
			C368,70.7,366.8,70.9,365.4,70.9z"/>
		<path d="M385.7,70.9c-1.3,0-2.6-0.2-3.7-0.6c-1.2-0.4-2.2-1-3.1-1.8s-1.6-1.9-2.1-3.2c-0.5-1.2-0.8-2.8-0.8-4.5v-0.7
			c0-1.6,0.2-3.1,0.7-4.3s1.2-2.3,2-3.1s1.8-1.4,3-1.8c1.1-0.4,2.3-0.6,3.6-0.6c3,0,5.3,0.8,6.9,2.4c1.6,1.6,2.4,4,2.4,7v2.1h-14.5
			c0,1,0.2,1.9,0.5,2.6c0.3,0.7,0.7,1.3,1.2,1.7c0.5,0.4,1.1,0.7,1.8,1c0.7,0.2,1.3,0.3,2,0.3c1.4,0,2.5-0.2,3.1-0.7
			c0.7-0.4,1.1-1,1.4-1.8h4.1c-0.4,2-1.4,3.4-2.9,4.5C389.8,70.4,387.9,70.9,385.7,70.9z M385.5,53.8c-0.7,0-1.4,0.1-2,0.3
			c-0.7,0.1-1.2,0.4-1.7,0.8s-0.9,0.9-1.2,1.5s-0.4,1.3-0.5,2.2h10.4c0-1-0.1-1.7-0.4-2.3c-0.3-0.6-0.6-1.1-1.1-1.5
			c-0.4-0.4-0.9-0.7-1.6-0.8C386.8,53.9,386.2,53.8,385.5,53.8z"/>
		<path d="M405.2,70.9c-1.5,0-2.7-0.1-3.7-0.5c-1-0.3-1.9-0.7-2.6-1.3c-0.7-0.5-1.2-1.2-1.5-1.9c-0.4-0.7-0.6-1.5-0.7-2.3h4.1
			c0.1,0.7,0.6,1.2,1.2,1.8c0.7,0.5,1.8,0.7,3.2,0.7c1.6,0,2.8-0.2,3.4-0.7c0.7-0.4,1-1,1-1.8c0-0.3-0.1-0.7-0.3-0.9
			c-0.1-0.3-0.4-0.5-0.8-0.8c-0.4-0.2-0.9-0.4-1.5-0.7c-0.7-0.2-1.5-0.4-2.4-0.5c-1.1-0.1-2.1-0.4-3.1-0.7c-0.9-0.3-1.7-0.7-2.3-1.2
			s-1.2-1-1.5-1.7c-0.3-0.7-0.5-1.5-0.5-2.4c0-0.8,0.1-1.5,0.5-2.3c0.3-0.7,0.8-1.3,1.5-1.8s1.5-1,2.5-1.2c1-0.3,2.2-0.4,3.5-0.4
			c1.3,0,2.4,0.1,3.4,0.5c0.9,0.3,1.8,0.7,2.3,1.3c0.7,0.5,1.1,1.2,1.5,1.9c0.4,0.7,0.6,1.5,0.7,2.3H409c-0.2-0.8-0.6-1.4-1.2-1.8
			c-0.6-0.4-1.5-0.7-2.5-0.7c-1.5,0-2.5,0.2-3.1,0.7c-0.6,0.4-0.9,1-0.9,1.5c0,0.4,0.1,0.7,0.2,1c0.1,0.3,0.4,0.5,0.7,0.7
			c0.4,0.2,0.8,0.4,1.5,0.6c0.6,0.1,1.4,0.3,2.3,0.4c1.2,0.1,2.2,0.4,3.1,0.7c0.9,0.3,1.8,0.7,2.5,1.2c0.7,0.5,1.2,1.1,1.6,1.8
			c0.4,0.7,0.6,1.5,0.6,2.5c0,0.9-0.1,1.6-0.5,2.3c-0.4,0.7-0.9,1.4-1.6,1.9c-0.7,0.5-1.6,1-2.7,1.2
			C407.9,70.7,406.7,70.9,405.2,70.9z"/>
		<path d="M423.5,50.7h4.3l3.6,14.6l4.5-14.6h3.7l4.8,14.6l3.6-14.6h4l-5.4,19.8h-4.1l-4.9-14.6l-4.7,14.6h-4.1L423.5,50.7z"/>
		<path d="M457.3,48.4c-0.8,0-1.4-0.2-1.9-0.7c-0.5-0.5-0.7-1.1-0.7-1.9s0.2-1.4,0.7-1.9s1.1-0.7,1.9-0.7s1.4,0.2,1.9,0.7
			c0.5,0.5,0.7,1.1,0.7,1.9s-0.2,1.4-0.7,1.9C458.7,48.2,458.2,48.4,457.3,48.4z M455.3,50.7h4.1v19.8h-4.1V50.7z"/>
		<path d="M471.7,70.6c-2.3,0-3.9-0.5-4.9-1.5c-0.9-1-1.5-2.6-1.5-4.7V54.2h-2.8v-3.5h2.8v-4.5h4.1v4.5h5v3.5h-5V64
			c0,1.2,0.2,2,0.7,2.4c0.4,0.4,1.2,0.7,2.5,0.7c0.7,0,1.5-0.1,2.3-0.1v3.5c-0.4,0.1-0.9,0.1-1.5,0.1
			C472.9,70.6,472.3,70.6,471.7,70.6z"/>
		<path d="M478,44.3h4.1v9.5c0.2-0.4,0.5-0.9,0.9-1.3c0.4-0.4,0.8-0.8,1.3-1.2c0.5-0.3,1.1-0.6,1.8-0.8c0.7-0.2,1.4-0.3,2.3-0.3
			c2.4,0,4.2,0.7,5.4,2c1.2,1.3,1.8,3.2,1.8,5.7v12.5h-4.1V58.9c0-1.7-0.4-2.9-1-3.8c-0.7-0.9-1.8-1.2-3.4-1.2
			c-0.9,0-1.6,0.1-2.2,0.4c-0.6,0.3-1.1,0.7-1.5,1.1s-0.7,1-0.9,1.6c-0.2,0.6-0.3,1.2-0.3,1.9v11.6h-4.1L478,44.3L478,44.3z"/>
		<path d="M518.2,70.9c-1.6,0-3.1-0.4-4.2-1.1c-1.2-0.7-2-1.6-2.5-2.6v3.3h-3.8V44.3h4.1v9.5c0.6-1,1.5-1.8,2.6-2.6
			c1.1-0.7,2.3-1,3.9-1c2.6,0,4.6,0.8,6.1,2.4c1.5,1.6,2.3,4,2.3,7.3v0.7c0,1.7-0.2,3.2-0.6,4.5c-0.4,1.2-0.9,2.3-1.7,3.2
			s-1.6,1.5-2.6,1.9C520.5,70.7,519.4,70.9,518.2,70.9z M517.2,67.3c1.5,0,2.8-0.5,3.7-1.6c0.9-1.1,1.4-2.7,1.4-4.9v-0.7
			c0-2.1-0.4-3.7-1.4-4.7c-0.9-1-2.2-1.5-3.7-1.5c-0.7,0-1.4,0.1-2,0.4c-0.7,0.2-1.2,0.6-1.8,1c-0.5,0.4-0.9,1-1.2,1.6
			c-0.3,0.7-0.4,1.4-0.4,2.3v2.6c0,1,0.1,1.8,0.4,2.5c0.3,0.7,0.7,1.3,1.2,1.8c0.5,0.4,1.1,0.8,1.8,1
			C515.8,67.2,516.4,67.3,517.2,67.3z"/>
		<path d="M535.4,70.9c-1.1,0-2-0.1-2.8-0.4s-1.5-0.7-2.1-1.3s-1-1.2-1.3-2c-0.3-0.7-0.4-1.5-0.4-2.5c0-2,0.6-3.4,1.8-4.4
			c1.2-1,2.8-1.5,5.1-1.5h6.1v-1.1c0-1.5-0.4-2.5-1-3.1c-0.7-0.6-1.7-0.8-3.1-0.8c-1.2,0-2.2,0.2-2.8,0.6c-0.6,0.4-0.9,1-1,1.6h-4
			c0.1-0.9,0.3-1.6,0.7-2.3s0.9-1.3,1.6-1.8s1.5-1,2.5-1.2c0.9-0.3,2-0.4,3.3-0.4c1.2,0,2.3,0.1,3.3,0.4s1.8,0.7,2.5,1.3
			c0.7,0.6,1.2,1.3,1.6,2.3c0.4,1,0.6,2.1,0.6,3.3v7.9c0,1,0,2,0.1,2.7c0,0.8,0.1,1.5,0.2,2.3h-3.7c-0.1-0.6-0.1-1-0.1-1.5
			c-0.1-0.4-0.1-0.9-0.1-1.5c-0.4,1-1.3,1.7-2.4,2.3C538.5,70.6,537.1,70.9,535.4,70.9z M536.5,67.3c0.7,0,1.4-0.1,2-0.3
			c0.6-0.2,1.2-0.4,1.7-0.8c0.4-0.4,0.9-0.8,1.2-1.3c0.3-0.5,0.4-1.2,0.4-1.8V62h-5.4c-1,0-1.9,0.2-2.5,0.7c-0.7,0.4-0.9,1.1-0.9,2
			c0,0.8,0.3,1.5,0.9,2C534.3,67,535.3,67.3,536.5,67.3z"/>
		<path d="M557.2,70.9c-1.2,0-2.4-0.2-3.4-0.7c-1-0.4-1.9-1-2.6-1.9c-0.7-0.8-1.3-1.9-1.7-3.2c-0.4-1.2-0.6-2.8-0.6-4.5V60
			c0-1.6,0.2-3,0.6-4.2c0.4-1.2,0.9-2.2,1.7-3.1c0.7-0.8,1.6-1.5,2.6-1.9c1-0.4,2.1-0.7,3.4-0.7c1.5,0,2.8,0.4,3.9,1
			c1.1,0.7,1.9,1.5,2.6,2.6v-9.5h4.1v26.2h-3.8v-3.2c-0.2,0.5-0.5,1-0.9,1.4c-0.4,0.4-0.9,0.9-1.5,1.2c-0.6,0.4-1.2,0.6-2,0.8
			C558.7,70.8,557.9,70.9,557.2,70.9z M558.1,67.3c0.7,0,1.4-0.1,2-0.4c0.7-0.2,1.2-0.6,1.8-1c0.5-0.4,0.9-1,1.2-1.8
			c0.3-0.7,0.4-1.5,0.4-2.5v-2.6c0-0.9-0.1-1.6-0.4-2.3c-0.3-0.7-0.7-1.2-1.2-1.6c-0.5-0.4-1.1-0.7-1.8-1c-0.7-0.2-1.3-0.4-2-0.4
			c-1.5,0-2.8,0.5-3.7,1.5c-0.9,1-1.4,2.6-1.4,4.7v0.7c0,2.2,0.4,3.8,1.4,4.9C555.4,66.7,556.6,67.3,558.1,67.3z"/>
		<path d="M579.9,50.7h3.8v3.4c0.4-1,1-1.9,2-2.6s2-1.1,3.4-1.1c0.6,0,1.1,0,1.4,0.1s0.5,0.1,0.7,0.1v3.7c-0.4-0.1-0.8-0.2-1.2-0.3
			s-0.8-0.1-1.2-0.1c-0.8,0-1.5,0.1-2.1,0.4s-1.1,0.7-1.5,1.1c-0.4,0.4-0.7,1-0.8,1.6c-0.2,0.6-0.3,1.2-0.3,1.9v11.6h-4.1V50.7
			L579.9,50.7z"/>
		<path d="M601.7,70.9c-1.3,0-2.6-0.2-3.7-0.6c-1.2-0.4-2.2-1-3.1-1.8c-0.9-0.8-1.6-1.9-2.1-3.2c-0.5-1.2-0.8-2.8-0.8-4.5v-0.7
			c0-1.6,0.2-3.1,0.7-4.3c0.5-1.2,1.2-2.3,2-3.1c0.9-0.8,1.8-1.4,3-1.8c1.1-0.4,2.3-0.6,3.6-0.6c3,0,5.3,0.8,6.9,2.4
			c1.6,1.6,2.4,4,2.4,7v2.1h-14.5c0,1,0.2,1.9,0.5,2.6c0.3,0.7,0.7,1.3,1.2,1.7c0.5,0.4,1.1,0.7,1.8,1c0.7,0.2,1.3,0.3,2,0.3
			c1.4,0,2.5-0.2,3.1-0.7c0.7-0.4,1.1-1,1.4-1.8h4.1c-0.4,2-1.4,3.4-2.9,4.5C605.8,70.4,603.9,70.9,601.7,70.9z M601.5,53.8
			c-0.7,0-1.4,0.1-2,0.3c-0.7,0.1-1.2,0.4-1.7,0.8c-0.5,0.4-0.9,0.9-1.2,1.5s-0.4,1.3-0.5,2.2h10.4c0-1-0.1-1.7-0.4-2.3
			c-0.3-0.6-0.6-1.1-1.1-1.5c-0.4-0.4-0.9-0.7-1.6-0.8C602.8,53.9,602.2,53.8,601.5,53.8z"/>
		<path d="M611.2,50.7h4.5l6.1,15.3l5.4-15.3h4.2l-7.7,19.8h-4.1L611.2,50.7z"/>
		<path d="M636.1,48.4c-0.8,0-1.4-0.2-1.9-0.7c-0.5-0.5-0.7-1.1-0.7-1.9s0.2-1.4,0.7-1.9c0.5-0.5,1.1-0.7,1.9-0.7s1.4,0.2,1.9,0.7
			s0.7,1.1,0.7,1.9s-0.2,1.4-0.7,1.9C637.5,48.2,636.9,48.4,636.1,48.4z M634.1,50.7h4.1v19.8h-4.1V50.7z"/>
		<path d="M651.4,70.9c-1.3,0-2.6-0.2-3.7-0.6c-1.2-0.4-2.2-1-3.1-1.8c-0.9-0.8-1.6-1.9-2.1-3.2c-0.5-1.2-0.8-2.8-0.8-4.5v-0.7
			c0-1.6,0.2-3.1,0.7-4.3s1.2-2.3,2-3.1c0.9-0.8,1.8-1.4,3-1.8c1.1-0.4,2.3-0.6,3.6-0.6c3,0,5.3,0.8,6.9,2.4c1.6,1.6,2.4,4,2.4,7
			v2.1h-14.5c0,1,0.2,1.9,0.5,2.6c0.3,0.7,0.7,1.3,1.2,1.7c0.5,0.4,1.1,0.7,1.8,1c0.7,0.2,1.3,0.3,2,0.3c1.4,0,2.5-0.2,3.1-0.7
			c0.7-0.4,1.1-1,1.4-1.8h4.1c-0.4,2-1.4,3.4-2.9,4.5C655.5,70.4,653.7,70.9,651.4,70.9z M651.3,53.8c-0.7,0-1.4,0.1-2,0.3
			c-0.7,0.1-1.2,0.4-1.7,0.8s-0.9,0.9-1.2,1.5s-0.4,1.3-0.5,2.2h10.4c0-1-0.1-1.7-0.4-2.3c-0.3-0.6-0.6-1.1-1.1-1.5
			c-0.4-0.4-0.9-0.7-1.6-0.8C652.6,53.9,651.9,53.8,651.3,53.8z"/>
		<path d="M661.7,50.7h4.3l3.6,14.6l4.5-14.6h3.7l4.8,14.6l3.6-14.6h4l-5.4,19.8h-4.1l-4.9-14.6l-4.7,14.6H667L661.7,50.7z"/>
		<path d="M700.2,70.9c-1.5,0-2.7-0.1-3.7-0.5c-1-0.3-1.9-0.7-2.6-1.3c-0.7-0.5-1.2-1.2-1.5-1.9c-0.4-0.7-0.6-1.5-0.7-2.3h4.1
			c0.1,0.7,0.6,1.2,1.2,1.8s1.8,0.7,3.2,0.7c1.6,0,2.8-0.2,3.4-0.7c0.7-0.4,1-1,1-1.8c0-0.3-0.1-0.7-0.3-0.9
			c-0.1-0.3-0.4-0.5-0.8-0.8c-0.4-0.2-0.9-0.4-1.5-0.7c-0.7-0.2-1.5-0.4-2.4-0.5c-1.1-0.1-2.1-0.4-3.1-0.7s-1.7-0.7-2.3-1.2
			c-0.7-0.5-1.2-1-1.5-1.7c-0.3-0.7-0.5-1.5-0.5-2.4c0-0.8,0.1-1.5,0.5-2.3c0.3-0.7,0.8-1.3,1.5-1.8c0.7-0.5,1.5-1,2.5-1.2
			c1-0.3,2.2-0.4,3.5-0.4s2.4,0.1,3.4,0.5c0.9,0.3,1.8,0.7,2.3,1.3c0.7,0.5,1.1,1.2,1.5,1.9c0.4,0.7,0.6,1.5,0.7,2.3H704
			c-0.2-0.8-0.6-1.4-1.2-1.8c-0.6-0.4-1.5-0.7-2.5-0.7c-1.5,0-2.5,0.2-3.1,0.7c-0.6,0.4-0.9,1-0.9,1.5c0,0.4,0.1,0.7,0.2,1
			s0.4,0.5,0.7,0.7c0.4,0.2,0.8,0.4,1.5,0.6c0.6,0.1,1.4,0.3,2.3,0.4c1.2,0.1,2.2,0.4,3.1,0.7s1.8,0.7,2.5,1.2
			c0.7,0.5,1.2,1.1,1.6,1.8c0.4,0.7,0.6,1.5,0.6,2.5c0,0.9-0.1,1.6-0.5,2.3c-0.4,0.7-0.9,1.4-1.6,1.9c-0.7,0.5-1.6,1-2.7,1.2
			C702.9,70.7,701.7,70.9,700.2,70.9z"/>
	</g>
</g>
</svg>
