<?xml version="1.0" encoding="utf-8"?>
<!-- Generator: Adobe Illustrator 27.0.0, SVG Export Plug-In . SVG Version: 6.00 Build 0)  -->
<svg version="1.1" id="Layer_1" xmlns="http://www.w3.org/2000/svg" xmlns:xlink="http://www.w3.org/1999/xlink" x="0px" y="0px"
	 viewBox="0 0 828 126" style="enable-background:new 0 0 828 126;" xml:space="preserve">
<style type="text/css">
	.st0{fill:#F4F4B0;}
</style>
<g>
	<path class="st0" d="M62.7,0h702.5C799.9,0,828,28.2,828,63l0,0c0,34.8-28.1,63-62.7,63H62.7C28.1,126,0,97.8,0,63l0,0
		C-0.1,28.3,28.1,0,62.7,0z"/>
	<g>
		<path d="M55.9,78.4c-2.5,0-4.6-0.6-6.2-1.6s-2.7-2.8-3.1-5.3h4.9c0.3,0.9,0.8,1.5,1.5,1.9c0.7,0.4,1.6,0.6,2.8,0.6
			c0.9,0,1.7-0.2,2.5-0.4c0.8-0.3,1.5-0.8,2-1.5s1-1.7,1.5-2.9c0.3-1.2,0.6-2.8,0.6-4.6C62.1,65,61.6,65.6,61,66s-1.1,0.8-1.8,1.1
			c-0.6,0.2-1.3,0.5-2,0.6c-0.7,0.2-1.4,0.2-2,0.2c-2.9,0-5.2-0.8-6.8-2.4c-1.6-1.6-2.4-3.9-2.4-6.8v-0.4c0-1.5,0.2-2.8,0.7-3.9
			c0.5-1.2,1.2-2.2,2.1-3.1c0.9-0.9,1.9-1.5,3.2-1.9c1.2-0.5,2.6-0.7,4-0.7c1.7,0,3.2,0.2,4.6,0.8c1.4,0.5,2.5,1.3,3.4,2.4
			c1,1.1,1.6,2.5,2.2,4.2c0.5,1.7,0.7,3.7,0.7,6.1v0.8c0,2.8-0.3,5.2-0.9,7.1s-1.4,3.6-2.3,4.8s-2.2,2.1-3.5,2.7
			C58.9,78.1,57.5,78.4,55.9,78.4z M56.4,63.9c1.6,0,3-0.5,4-1.5c1-1,1.5-2.3,1.5-3.8v-0.4c0-0.7-0.2-1.5-0.4-2.1
			c-0.2-0.6-0.6-1.2-1.1-1.7c-0.5-0.5-1-0.9-1.7-1.1c-0.6-0.2-1.4-0.4-2.2-0.4c-1.6,0-3,0.5-4,1.5c-1,1-1.5,2.3-1.5,3.8v0.4
			c0,1.5,0.5,2.8,1.5,3.8C53.5,63.4,54.7,63.9,56.4,63.9z"/>
		<path d="M83.2,71.3H69v-3.6L83,49h5.2V67h3.5v4.3h-3.5v6.6h-4.9C83.2,77.9,83.2,71.3,83.2,71.3z M83.2,67V54.7L73.9,67
			C73.9,67,83.2,67,83.2,67z"/>
		<path d="M100.3,62.7c-1,0-1.9-0.2-2.7-0.5c-0.8-0.3-1.5-0.8-2.2-1.4c-0.6-0.6-1-1.3-1.4-2.2c-0.3-0.8-0.5-1.8-0.5-2.8v-0.4
			c0-1.1,0.2-1.9,0.5-2.8c0.3-0.8,0.8-1.5,1.4-2.2c0.6-0.6,1.3-1.1,2.2-1.4c0.8-0.3,1.8-0.5,2.7-0.5c1,0,1.9,0.2,2.7,0.5
			c0.8,0.3,1.5,0.8,2.2,1.4c0.6,0.6,1,1.3,1.4,2.2c0.3,0.8,0.5,1.8,0.5,2.8v0.4c0,1.1-0.2,1.9-0.5,2.8c-0.3,0.8-0.8,1.5-1.4,2.2
			c-0.6,0.6-1.3,1.1-2.2,1.4C102.2,62.5,101.4,62.7,100.3,62.7z M117.2,49h4.9l-19.8,28.9h-4.9L117.2,49z M100.3,59
			c0.7,0,1.3-0.2,1.8-0.7c0.4-0.5,0.6-1.3,0.6-2.4v-0.4c0-1.1-0.2-1.9-0.6-2.4c-0.4-0.5-1-0.7-1.8-0.7S99,52.5,98.5,53
			c-0.4,0.5-0.6,1.3-0.6,2.4v0.4c0,1.1,0.2,1.9,0.6,2.4C98.9,58.7,99.6,59,100.3,59z M119.3,78.3c-1,0-1.9-0.2-2.7-0.5
			c-0.8-0.3-1.5-0.8-2.2-1.4c-0.6-0.6-1-1.3-1.4-2.2c-0.3-0.8-0.5-1.8-0.5-2.8V71c0-1.1,0.2-1.9,0.5-2.8c0.3-0.8,0.8-1.5,1.4-2.2
			c0.6-0.6,1.3-1.1,2.2-1.4c0.8-0.3,1.8-0.5,2.7-0.5c1,0,1.9,0.2,2.7,0.5c0.8,0.3,1.5,0.8,2.2,1.4c0.6,0.6,1,1.3,1.4,2.2
			c0.3,0.8,0.5,1.8,0.5,2.8v0.4c0,1.1-0.2,1.9-0.5,2.8c-0.3,0.8-0.8,1.5-1.4,2.2c-0.6,0.6-1.3,1.1-2.2,1.4
			C121.2,78.1,120.2,78.3,119.3,78.3z M119.3,74.6c0.7,0,1.3-0.2,1.8-0.7c0.4-0.5,0.6-1.3,0.6-2.4V71c0-1.1-0.2-1.9-0.6-2.4
			c-0.4-0.5-1-0.7-1.8-0.7s-1.3,0.2-1.8,0.7c-0.4,0.5-0.6,1.3-0.6,2.4v0.4c0,1.1,0.2,1.9,0.6,2.4C117.9,74.3,118.4,74.6,119.3,74.6z
			"/>
		<path d="M144.1,78.4c-1.2,0-2.3-0.2-3.1-0.5c-0.9-0.3-1.7-0.8-2.3-1.5s-1.1-1.4-1.5-2.2c-0.3-0.8-0.5-1.7-0.5-2.8
			c0-2.2,0.6-3.8,1.9-4.9c1.3-1.1,3.1-1.6,5.6-1.6h6.8v-1.2c0-1.6-0.4-2.8-1.1-3.4c-0.7-0.6-1.9-0.9-3.5-0.9c-1.4,0-2.4,0.2-3.1,0.6
			c-0.6,0.4-1,1.1-1.1,1.8h-4.4c0.1-1,0.3-1.8,0.7-2.6c0.4-0.8,1-1.5,1.8-2c0.7-0.6,1.7-1.1,2.7-1.4c1-0.3,2.3-0.5,3.6-0.5
			s2.6,0.2,3.6,0.5s2,0.8,2.7,1.5c0.8,0.6,1.4,1.5,1.8,2.5c0.4,1.1,0.6,2.3,0.6,3.6v8.7c0,1.1,0,2.2,0.1,3c0,0.9,0.1,1.7,0.2,2.5
			h-4.1c-0.1-0.6-0.2-1.1-0.2-1.6c-0.1-0.4-0.1-1-0.1-1.6c-0.5,1.1-1.5,1.9-2.7,2.6C147.6,78,145.9,78.4,144.1,78.4z M145.3,74.4
			c0.8,0,1.5-0.1,2.2-0.3c0.7-0.2,1.3-0.5,1.9-0.9c0.5-0.4,1-0.9,1.3-1.5c0.3-0.6,0.5-1.3,0.5-2v-1.2h-6c-1.1,0-2.1,0.2-2.7,0.7
			c-0.7,0.5-1,1.2-1,2.2c0,0.9,0.3,1.6,1,2.2C142.9,74.1,143.9,74.4,145.3,74.4z"/>
		<path d="M157.5,56h4.9l6.7,16.9l6-16.9h4.6l-8.5,21.9h-4.5L157.5,56z"/>
		<path d="M191,78.4c-1.5,0-2.9-0.2-4.2-0.7c-1.3-0.5-2.4-1.2-3.4-2.1c-1-1-1.7-2.1-2.3-3.5c-0.6-1.4-0.8-3-0.8-4.9v-0.8
			c0-1.7,0.2-3.2,0.8-4.6c0.6-1.3,1.3-2.4,2.3-3.4c1-0.9,2.1-1.6,3.4-2.1s2.7-0.7,4.2-0.7c1.5,0,2.9,0.2,4.2,0.7s2.4,1.1,3.4,2.1
			c1,0.9,1.7,2,2.3,3.4c0.6,1.3,0.8,2.8,0.8,4.6v0.8c0,1.9-0.2,3.5-0.8,4.9c-0.6,1.4-1.3,2.6-2.3,3.5c-1,1-2.1,1.6-3.4,2.1
			C193.9,78.1,192.5,78.4,191,78.4z M191,74.4c0.8,0,1.5-0.2,2.3-0.4c0.7-0.2,1.4-0.7,1.9-1.3c0.6-0.6,1-1.3,1.4-2.3
			c0.3-0.9,0.5-2,0.5-3.3v-0.8c0-1.2-0.2-2.2-0.5-3.1c-0.3-0.9-0.8-1.5-1.4-2.1c-0.6-0.6-1.2-1-1.9-1.2c-0.7-0.2-1.5-0.4-2.3-0.4
			c-0.8,0-1.5,0.2-2.3,0.4c-0.7,0.2-1.4,0.6-1.9,1.2c-0.6,0.6-1,1.2-1.4,2.1c-0.3,0.9-0.5,1.9-0.5,3.1v0.8c0,1.3,0.2,2.4,0.5,3.3
			c0.3,0.9,0.8,1.6,1.4,2.3c0.6,0.6,1.2,1,1.9,1.3C189.4,74.3,190.2,74.4,191,74.4z"/>
		<path d="M207.9,53.5c-0.9,0-1.5-0.2-2.1-0.8c-0.6-0.6-0.8-1.2-0.8-2.1c0-0.9,0.2-1.5,0.8-2.1c0.6-0.6,1.2-0.8,2.1-0.8
			s1.5,0.2,2.1,0.8c0.6,0.6,0.8,1.2,0.8,2.1c0,0.9-0.2,1.5-0.8,2.1C209.4,53.3,208.7,53.5,207.9,53.5z M205.6,56h4.5v21.9h-4.5V56z"
			/>
		<path d="M223.2,78.4c-1.4,0-2.7-0.2-3.8-0.7c-1.1-0.5-2.1-1.1-2.9-2.1c-0.8-0.9-1.5-2.1-1.9-3.5c-0.4-1.4-0.6-3.1-0.6-4.9v-0.8
			c0-1.8,0.2-3.3,0.6-4.6c0.4-1.3,1-2.4,1.9-3.4c0.8-1,1.8-1.6,2.9-2.1s2.3-0.7,3.7-0.7c1.6,0,3.1,0.4,4.3,1.1
			c1.2,0.7,2.1,1.7,2.8,2.8V48.9h4.5v28.9h-4.2v-3.6c-0.2,0.6-0.6,1.1-1,1.5c-0.5,0.5-1,1-1.7,1.3c-0.6,0.4-1.4,0.6-2.2,0.9
			C225,78.2,224.1,78.4,223.2,78.4z M224.2,74.4c0.8,0,1.5-0.2,2.3-0.4s1.4-0.6,1.9-1.1c0.6-0.5,1-1.1,1.3-1.9
			c0.3-0.8,0.5-1.7,0.5-2.8v-2.9c0-1-0.2-1.8-0.5-2.5c-0.3-0.7-0.8-1.3-1.4-1.8c-0.6-0.5-1.2-0.8-1.9-1.1c-0.7-0.2-1.5-0.4-2.3-0.4
			c-1.7,0-3.1,0.6-4.1,1.7c-1,1.1-1.5,2.8-1.5,5.2v0.8c0,2.4,0.5,4.2,1.5,5.4C221.3,73.8,222.5,74.4,224.2,74.4z"/>
		<path d="M260,78.4c-1.8,0-3.4-0.4-4.7-1.2c-1.3-0.8-2.2-1.8-2.7-2.9v3.6h-4.2V49h4.5v10.5c0.6-1.1,1.6-2,2.8-2.8
			c1.2-0.8,2.6-1.1,4.3-1.1c2.8,0,5.1,0.9,6.7,2.7c1.6,1.8,2.5,4.5,2.5,8.1v0.8c0,1.9-0.2,3.5-0.6,4.9c-0.4,1.4-1,2.6-1.9,3.5
			c-0.8,0.9-1.8,1.6-2.9,2.1C262.5,78.1,261.3,78.4,260,78.4z M258.8,74.4c1.7,0,3.1-0.6,4-1.8c1-1.2,1.5-3,1.5-5.4v-0.8
			c0-2.3-0.5-4-1.5-5.2c-1-1.1-2.4-1.7-4.1-1.7c-0.8,0-1.5,0.2-2.3,0.4s-1.4,0.6-1.9,1.1c-0.6,0.5-1,1.1-1.4,1.8
			c-0.3,0.7-0.5,1.5-0.5,2.5v2.9c0,1.1,0.2,1.9,0.5,2.8c0.3,0.8,0.8,1.5,1.3,1.9c0.6,0.5,1.2,0.9,1.9,1.1
			C257.3,74.3,258.1,74.4,258.8,74.4z"/>
		<path d="M280.2,78.4c-2.6,0-4.5-0.7-5.8-2.3c-1.3-1.5-1.9-3.8-1.9-6.9V56h4.5v12.8c0,1.9,0.4,3.2,1.1,4.2c0.7,1,1.9,1.4,3.6,1.4
			c0.9,0,1.7-0.2,2.3-0.5c0.6-0.3,1.2-0.7,1.6-1.2c0.4-0.5,0.7-1.1,0.9-1.8c0.2-0.6,0.3-1.4,0.3-2.1V56h4.5v21.9h-4.2v-3.7
			c-0.5,1.1-1.4,2.1-2.5,2.9C283.4,77.9,282,78.4,280.2,78.4z"/>
		<path d="M304.3,78.4c-1.6,0-3-0.2-4.1-0.6c-1.1-0.3-2.1-0.8-2.8-1.5c-0.7-0.6-1.3-1.3-1.7-2.1c-0.4-0.8-0.6-1.6-0.7-2.5h4.5
			c0.2,0.8,0.6,1.4,1.4,1.9s1.9,0.7,3.5,0.7c1.8,0,3.1-0.2,3.8-0.7c0.7-0.5,1.1-1.1,1.1-1.9c0-0.3-0.1-0.7-0.3-1
			c-0.2-0.3-0.5-0.6-0.9-0.9c-0.4-0.2-1-0.5-1.7-0.7c-0.7-0.2-1.6-0.4-2.7-0.6c-1.2-0.2-2.3-0.4-3.4-0.7c-1-0.3-1.9-0.7-2.6-1.3
			c-0.7-0.5-1.3-1.1-1.6-1.9c-0.4-0.7-0.6-1.6-0.6-2.7c0-0.9,0.2-1.7,0.6-2.5c0.4-0.8,0.9-1.5,1.6-2c0.7-0.6,1.7-1.1,2.7-1.4
			c1.1-0.3,2.4-0.5,3.9-0.5s2.7,0.2,3.7,0.6c1,0.3,1.9,0.8,2.6,1.5c0.7,0.6,1.2,1.3,1.6,2.1c0.4,0.8,0.6,1.6,0.7,2.5h-4.5
			c-0.2-0.9-0.6-1.5-1.4-1.9c-0.6-0.5-1.6-0.7-2.7-0.7c-1.6,0-2.7,0.2-3.4,0.7s-1,1.1-1,1.7c0,0.4,0.1,0.7,0.2,1.1
			c0.2,0.3,0.4,0.6,0.8,0.8c0.4,0.2,0.9,0.5,1.6,0.6c0.6,0.2,1.5,0.3,2.6,0.5c1.3,0.2,2.4,0.4,3.5,0.7c1,0.3,1.9,0.7,2.7,1.3
			c0.7,0.6,1.4,1.2,1.8,1.9c0.4,0.8,0.6,1.7,0.6,2.8c0,1-0.2,1.8-0.6,2.6c-0.4,0.8-1,1.5-1.8,2.1c-0.8,0.6-1.8,1.1-3,1.4
			C307.4,78.1,305.8,78.4,304.3,78.4z"/>
		<path d="M319.9,53.5c-0.9,0-1.5-0.2-2.1-0.8c-0.6-0.6-0.8-1.2-0.8-2.1c0-0.9,0.2-1.5,0.8-2.1c0.6-0.6,1.2-0.8,2.1-0.8
			c0.9,0,1.5,0.2,2.1,0.8c0.6,0.6,0.8,1.2,0.8,2.1c0,0.9-0.2,1.5-0.8,2.1C321.4,53.3,320.8,53.5,319.9,53.5z M317.6,56h4.5v21.9
			h-4.5V56z"/>
		<path d="M327.3,56h4.2v3.6c0.5-1.1,1.4-2,2.6-2.9c1.2-0.9,2.7-1.2,4.6-1.2c2.7,0,4.7,0.7,6,2.2c1.4,1.5,2,3.6,2,6.3v13.8h-4.5
			V65.1c0-1.9-0.4-3.2-1.1-4.2c-0.8-1-2-1.4-3.8-1.4c-1,0-1.8,0.2-2.4,0.5c-0.6,0.3-1.2,0.7-1.6,1.2c-0.4,0.5-0.7,1.1-1,1.8
			c-0.2,0.6-0.3,1.4-0.3,2.1v12.8h-4.5L327.3,56L327.3,56z"/>
		<path d="M360.6,78.4c-1.5,0-2.8-0.2-4.1-0.6c-1.3-0.5-2.4-1.1-3.4-2c-1-0.9-1.8-2.1-2.3-3.5c-0.6-1.4-0.9-3.1-0.9-4.9v-0.8
			c0-1.8,0.2-3.4,0.8-4.8s1.3-2.5,2.3-3.4c1-0.9,2-1.5,3.3-2c1.2-0.4,2.6-0.6,4-0.6c3.3,0,5.9,0.9,7.7,2.7c1.8,1.8,2.7,4.4,2.7,7.7
			v2.3h-16c0,1.1,0.2,2.1,0.6,2.8c0.3,0.8,0.8,1.5,1.4,1.9c0.6,0.5,1.2,0.8,1.9,1.1c0.7,0.2,1.5,0.3,2.3,0.3c1.5,0,2.7-0.2,3.5-0.7
			c0.7-0.5,1.2-1.1,1.5-1.9h4.5c-0.4,2.2-1.5,3.8-3.2,4.9C365.1,77.8,363,78.4,360.6,78.4z M360.4,59.5c-0.8,0-1.5,0.1-2.2,0.3
			c-0.7,0.2-1.3,0.5-1.9,0.9c-0.6,0.4-1,1-1.3,1.6c-0.3,0.6-0.5,1.5-0.6,2.4H366c0-1.1-0.2-1.9-0.5-2.6c-0.3-0.6-0.6-1.2-1.2-1.6
			c-0.5-0.4-1-0.7-1.8-0.9C361.9,59.6,361.1,59.5,360.4,59.5z"/>
		<path d="M382.2,78.4c-1.6,0-3-0.2-4.1-0.6c-1.1-0.3-2.1-0.8-2.8-1.5c-0.7-0.6-1.4-1.3-1.7-2.1c-0.4-0.8-0.6-1.6-0.7-2.5h4.5
			c0.2,0.8,0.6,1.4,1.4,1.9c0.7,0.6,1.9,0.7,3.5,0.7c1.8,0,3.1-0.2,3.8-0.7c0.7-0.5,1.1-1.1,1.1-1.9c0-0.3-0.1-0.7-0.3-1
			c-0.2-0.3-0.5-0.6-0.9-0.9c-0.4-0.2-1-0.5-1.7-0.7c-0.7-0.2-1.6-0.4-2.7-0.6c-1.2-0.2-2.3-0.4-3.4-0.7c-1-0.3-1.9-0.7-2.6-1.3
			c-0.7-0.6-1.3-1.1-1.6-1.9c-0.3-0.7-0.6-1.6-0.6-2.7c0-0.9,0.2-1.7,0.6-2.5c0.3-0.8,0.9-1.5,1.6-2c0.7-0.6,1.7-1.1,2.7-1.4
			c1.1-0.3,2.4-0.5,3.9-0.5c1.5,0,2.7,0.2,3.7,0.6c1,0.3,1.9,0.8,2.6,1.5c0.7,0.6,1.2,1.3,1.6,2.1c0.4,0.8,0.6,1.6,0.7,2.5h-4.5
			c-0.2-0.9-0.6-1.5-1.4-1.9c-0.6-0.5-1.6-0.7-2.7-0.7c-1.6,0-2.7,0.2-3.4,0.7c-0.6,0.5-1,1.1-1,1.7c0,0.4,0.1,0.7,0.2,1.1
			c0.2,0.3,0.4,0.6,0.8,0.8c0.4,0.2,0.9,0.5,1.6,0.6c0.6,0.2,1.5,0.3,2.6,0.5c1.3,0.2,2.4,0.4,3.5,0.7c1,0.3,1.9,0.7,2.7,1.3
			c0.7,0.6,1.4,1.2,1.8,1.9c0.4,0.8,0.6,1.7,0.6,2.8c0,1-0.2,1.8-0.6,2.6s-1,1.5-1.8,2.1c-0.8,0.6-1.8,1.1-3,1.4
			C385.1,78.1,383.7,78.4,382.2,78.4z"/>
		<path d="M403.4,78.4c-1.6,0-3-0.2-4.1-0.6c-1.1-0.3-2.1-0.8-2.8-1.5c-0.7-0.6-1.4-1.3-1.7-2.1c-0.4-0.8-0.6-1.6-0.7-2.5h4.5
			c0.2,0.8,0.6,1.4,1.4,1.9c0.7,0.6,1.9,0.7,3.5,0.7c1.8,0,3.1-0.2,3.8-0.7c0.7-0.5,1.1-1.1,1.1-1.9c0-0.3-0.1-0.7-0.3-1
			c-0.2-0.3-0.5-0.6-0.9-0.9c-0.4-0.2-1-0.5-1.7-0.7c-0.7-0.2-1.6-0.4-2.7-0.6c-1.2-0.2-2.3-0.4-3.4-0.7c-1-0.3-1.9-0.7-2.6-1.3
			c-0.7-0.6-1.3-1.1-1.6-1.9c-0.3-0.7-0.6-1.6-0.6-2.7c0-0.9,0.2-1.7,0.6-2.5c0.3-0.8,0.9-1.5,1.6-2c0.7-0.6,1.7-1.1,2.7-1.4
			c1.1-0.3,2.4-0.5,3.9-0.5s2.7,0.2,3.7,0.6c1,0.3,1.9,0.8,2.6,1.5c0.7,0.6,1.2,1.3,1.6,2.1c0.4,0.8,0.6,1.6,0.7,2.5h-4.5
			c-0.2-0.9-0.6-1.5-1.4-1.9c-0.6-0.5-1.6-0.7-2.7-0.7c-1.6,0-2.7,0.2-3.4,0.7s-1,1.1-1,1.7c0,0.4,0.1,0.7,0.2,1.1
			c0.2,0.3,0.4,0.6,0.8,0.8c0.4,0.2,0.9,0.5,1.6,0.6c0.6,0.2,1.5,0.3,2.6,0.5c1.3,0.2,2.4,0.4,3.5,0.7c1,0.3,1.9,0.7,2.7,1.3
			c0.7,0.6,1.4,1.2,1.8,1.9c0.4,0.8,0.6,1.7,0.6,2.8c0,1-0.2,1.8-0.6,2.6c-0.4,0.8-1,1.5-1.8,2.1c-0.8,0.6-1.8,1.1-3,1.4
			C406.3,78.1,404.9,78.4,403.4,78.4z"/>
		<path d="M425.8,78.4c-1.5,0-2.8-0.2-4.1-0.6c-1.3-0.5-2.4-1.1-3.4-2c-1-0.9-1.8-2.1-2.3-3.5c-0.6-1.4-0.9-3.1-0.9-4.9v-0.8
			c0-1.8,0.2-3.4,0.8-4.8s1.3-2.5,2.3-3.4c1-0.9,2-1.5,3.3-2c1.2-0.4,2.6-0.6,4-0.6c3.3,0,5.9,0.9,7.7,2.7c1.8,1.8,2.7,4.4,2.7,7.7
			v2.3h-16c0,1.1,0.2,2.1,0.6,2.8c0.3,0.8,0.8,1.5,1.4,1.9c0.6,0.5,1.2,0.8,1.9,1.1c0.7,0.2,1.5,0.3,2.3,0.3c1.5,0,2.7-0.2,3.5-0.7
			c0.7-0.5,1.2-1.1,1.5-1.9h4.5c-0.4,2.2-1.5,3.8-3.2,4.9C430.3,77.8,428.2,78.4,425.8,78.4z M425.6,59.5c-0.8,0-1.5,0.1-2.2,0.3
			c-0.7,0.2-1.3,0.5-1.9,0.9s-1,1-1.3,1.6c-0.3,0.6-0.5,1.5-0.6,2.4h11.4c0-1.1-0.2-1.9-0.5-2.6c-0.3-0.6-0.6-1.2-1.2-1.6
			c-0.5-0.4-1-0.7-1.8-0.9C427,59.6,426.4,59.5,425.6,59.5z"/>
		<path d="M447.3,78.4c-1.6,0-3-0.2-4.1-0.6c-1.1-0.3-2.1-0.8-2.8-1.5c-0.7-0.6-1.4-1.3-1.7-2.1c-0.4-0.8-0.6-1.6-0.7-2.5h4.5
			c0.2,0.8,0.6,1.4,1.4,1.9c0.7,0.6,1.9,0.7,3.5,0.7c1.8,0,3.1-0.2,3.8-0.7c0.7-0.5,1.1-1.1,1.1-1.9c0-0.3-0.1-0.7-0.3-1
			c-0.2-0.3-0.5-0.6-0.9-0.9c-0.4-0.2-1-0.5-1.7-0.7c-0.7-0.2-1.6-0.4-2.7-0.6c-1.2-0.2-2.3-0.4-3.4-0.7s-1.9-0.7-2.6-1.3
			c-0.7-0.6-1.3-1.1-1.6-1.9c-0.3-0.7-0.6-1.6-0.6-2.7c0-0.9,0.2-1.7,0.6-2.5c0.3-0.8,0.9-1.5,1.6-2c0.7-0.6,1.7-1.1,2.7-1.4
			c1.1-0.3,2.4-0.5,3.9-0.5s2.7,0.2,3.7,0.6c1,0.3,1.9,0.8,2.6,1.5c0.7,0.6,1.2,1.3,1.6,2.1c0.4,0.8,0.6,1.6,0.7,2.5h-4.5
			c-0.2-0.9-0.6-1.5-1.4-1.9c-0.6-0.5-1.6-0.7-2.7-0.7c-1.6,0-2.7,0.2-3.4,0.7c-0.6,0.5-1,1.1-1,1.7c0,0.4,0.1,0.7,0.2,1.1
			c0.2,0.3,0.4,0.6,0.8,0.8c0.4,0.2,0.9,0.5,1.6,0.6c0.6,0.2,1.5,0.3,2.6,0.5c1.3,0.2,2.4,0.4,3.5,0.7c1,0.3,1.9,0.7,2.7,1.3
			c0.7,0.6,1.4,1.2,1.8,1.9c0.4,0.8,0.6,1.7,0.6,2.8c0,1-0.2,1.8-0.6,2.6c-0.4,0.8-1,1.5-1.8,2.1c-0.8,0.6-1.8,1.1-3,1.4
			C450.3,78.1,449,78.4,447.3,78.4z"/>
		<path d="M467.5,56h4.8l4,16.1l5-16.1h4.1l5.3,16.1l4-16.1h4.4l-6,21.9h-4.5l-5.4-16.1l-5.2,16.1h-4.5L467.5,56z"/>
		<path d="M504.9,53.5c-0.9,0-1.5-0.2-2.1-0.8c-0.6-0.6-0.8-1.2-0.8-2.1c0-0.9,0.2-1.5,0.8-2.1c0.6-0.6,1.2-0.8,2.1-0.8
			c0.9,0,1.5,0.2,2.1,0.8c0.6,0.6,0.8,1.2,0.8,2.1c0,0.9-0.2,1.5-0.8,2.1C506.4,53.3,505.8,53.5,504.9,53.5z M502.7,56h4.5v21.9
			h-4.5V56z"/>
		<path d="M520.8,78.1c-2.5,0-4.3-0.6-5.4-1.6c-1-1.1-1.6-2.8-1.6-5.2V59.9h-3.1V56h3.1v-4.9h4.5V56h5.6v3.9h-5.6v10.8
			c0,1.3,0.2,2.2,0.7,2.7c0.5,0.5,1.4,0.7,2.7,0.7c0.8,0,1.6-0.1,2.5-0.2v3.9c-0.5,0.1-1,0.1-1.6,0.2
			C522.1,78.1,521.4,78.1,520.8,78.1z"/>
		<path d="M527.7,49h4.5v10.5c0.2-0.5,0.6-1,1-1.5c0.4-0.5,0.9-0.9,1.5-1.3c0.6-0.3,1.2-0.6,1.9-0.9c0.7-0.2,1.5-0.3,2.5-0.3
			c2.7,0,4.7,0.7,6,2.2c1.4,1.5,2,3.6,2,6.3v13.8h-4.5V65.1c0-1.9-0.4-3.2-1.1-4.2c-0.8-1-2-1.4-3.8-1.4c-1,0-1.8,0.2-2.4,0.5
			c-0.6,0.3-1.2,0.7-1.6,1.2c-0.4,0.5-0.7,1.1-1,1.8c-0.2,0.6-0.3,1.4-0.3,2.1v12.8h-4.5L527.7,49L527.7,49z"/>
		<path d="M572.1,78.4c-1.8,0-3.4-0.4-4.7-1.2c-1.3-0.8-2.2-1.8-2.7-2.9v3.6h-4.2V49h4.5v10.5c0.6-1.1,1.6-2,2.8-2.8
			c1.2-0.7,2.6-1.1,4.3-1.1c2.8,0,5.1,0.9,6.7,2.7c1.6,1.8,2.5,4.5,2.5,8.1v0.8c0,1.9-0.2,3.5-0.6,4.9c-0.4,1.4-1,2.6-1.9,3.5
			c-0.8,0.9-1.8,1.6-2.9,2.1C574.7,78.1,573.4,78.4,572.1,78.4z M570.9,74.4c1.7,0,3.1-0.6,4-1.8c1-1.2,1.5-3,1.5-5.4v-0.8
			c0-2.3-0.5-4-1.5-5.2c-1-1.1-2.4-1.7-4.1-1.7c-0.8,0-1.5,0.2-2.3,0.4c-0.7,0.2-1.4,0.6-1.9,1.1c-0.6,0.5-1,1.1-1.4,1.8
			c-0.3,0.7-0.5,1.5-0.5,2.5v2.9c0,1.1,0.2,1.9,0.5,2.8c0.3,0.8,0.8,1.5,1.3,1.9c0.6,0.5,1.2,0.9,1.9,1.1
			C569.4,74.3,570.1,74.4,570.9,74.4z"/>
		<path d="M591.1,78.4c-1.2,0-2.3-0.2-3.1-0.5c-0.9-0.3-1.7-0.8-2.3-1.5c-0.6-0.6-1.1-1.4-1.5-2.2c-0.3-0.8-0.5-1.7-0.5-2.8
			c0-2.2,0.6-3.8,1.9-4.9c1.3-1.1,3.1-1.6,5.6-1.6h6.8v-1.2c0-1.6-0.4-2.8-1.1-3.4c-0.7-0.6-1.9-0.9-3.5-0.9c-1.4,0-2.4,0.2-3.1,0.6
			c-0.6,0.4-1,1.1-1.1,1.8h-4.4c0.1-1,0.3-1.8,0.7-2.6c0.4-0.8,1-1.5,1.8-2c0.7-0.6,1.7-1.1,2.7-1.4c1-0.3,2.3-0.5,3.6-0.5
			s2.6,0.2,3.6,0.5c1,0.3,2,0.8,2.7,1.5c0.8,0.6,1.4,1.5,1.8,2.5c0.4,1.1,0.6,2.3,0.6,3.6v8.7c0,1.1,0,2.2,0.1,3
			c0,0.9,0.1,1.7,0.2,2.5h-4.1c-0.1-0.6-0.2-1.1-0.2-1.6c-0.1-0.4-0.1-1-0.1-1.6c-0.5,1.1-1.5,1.9-2.7,2.6
			C594.5,78,593,78.4,591.1,78.4z M592.3,74.4c0.8,0,1.5-0.1,2.2-0.3c0.6-0.2,1.3-0.5,1.9-0.9c0.5-0.4,1-0.9,1.3-1.5
			c0.3-0.6,0.5-1.3,0.5-2v-1.2h-6c-1.1,0-2.1,0.2-2.7,0.7c-0.7,0.5-1,1.2-1,2.2c0,0.9,0.3,1.6,1,2.2
			C589.9,74.1,590.9,74.4,592.3,74.4z"/>
		<path d="M615.1,78.4c-1.4,0-2.7-0.2-3.8-0.7c-1.1-0.5-2.1-1.1-2.9-2.1c-0.8-0.9-1.5-2.1-1.9-3.5c-0.4-1.4-0.6-3.1-0.6-4.9v-0.8
			c0-1.8,0.2-3.3,0.6-4.6c0.4-1.3,1-2.4,1.9-3.4c0.8-0.9,1.8-1.6,2.9-2.1c1.1-0.5,2.3-0.7,3.7-0.7c1.6,0,3.1,0.4,4.3,1.1
			s2.1,1.7,2.8,2.8V48.9h4.5v28.9h-4.2v-3.6c-0.2,0.6-0.6,1.1-1,1.5s-1,1-1.7,1.3c-0.6,0.4-1.4,0.6-2.2,0.9
			C616.8,78.2,615.9,78.4,615.1,78.4z M616.1,74.4c0.8,0,1.5-0.2,2.3-0.4c0.7-0.2,1.4-0.6,1.9-1.1c0.6-0.5,1-1.1,1.3-1.9
			c0.3-0.8,0.5-1.7,0.5-2.8v-2.9c0-1-0.2-1.8-0.5-2.5c-0.3-0.7-0.8-1.3-1.4-1.8c-0.6-0.5-1.2-0.8-1.9-1.1c-0.7-0.2-1.5-0.4-2.3-0.4
			c-1.7,0-3.1,0.6-4.1,1.7c-1,1.1-1.5,2.8-1.5,5.2v0.8c0,2.4,0.5,4.2,1.5,5.4C613.1,73.8,614.5,74.4,616.1,74.4z"/>
		<path d="M640.2,56h4.2v3.7c0.4-1.1,1.1-2.1,2.2-2.9c1-0.8,2.3-1.2,3.7-1.2c0.6,0,1.2,0,1.5,0.1s0.6,0.1,0.7,0.2V60
			c-0.5-0.2-0.9-0.2-1.3-0.3c-0.4-0.1-0.9-0.1-1.4-0.1c-0.9,0-1.7,0.2-2.3,0.5c-0.6,0.3-1.2,0.7-1.6,1.2s-0.7,1.1-0.9,1.8
			c-0.2,0.6-0.3,1.4-0.3,2.1V78h-4.5L640.2,56L640.2,56z"/>
		<path d="M664.2,78.4c-1.5,0-2.8-0.2-4.1-0.6c-1.3-0.5-2.4-1.1-3.4-2c-1-0.9-1.8-2.1-2.3-3.5c-0.6-1.4-0.9-3.1-0.9-4.9v-0.8
			c0-1.8,0.2-3.4,0.8-4.8c0.6-1.4,1.3-2.5,2.3-3.4c1-0.9,2-1.5,3.3-2c1.2-0.4,2.6-0.6,4-0.6c3.3,0,5.9,0.9,7.7,2.7
			c1.8,1.8,2.7,4.4,2.7,7.7v2.3h-16c0,1.1,0.2,2.1,0.6,2.8c0.3,0.8,0.8,1.5,1.4,1.9c0.6,0.5,1.2,0.8,1.9,1.1
			c0.7,0.2,1.5,0.3,2.3,0.3c1.5,0,2.7-0.2,3.5-0.7c0.7-0.5,1.2-1.1,1.5-1.9h4.5c-0.4,2.2-1.5,3.8-3.2,4.9
			C668.8,77.8,666.7,78.4,664.2,78.4z M664.1,59.5c-0.8,0-1.5,0.1-2.2,0.3c-0.7,0.2-1.3,0.5-1.9,0.9c-0.6,0.4-1,1-1.3,1.6
			c-0.3,0.6-0.5,1.5-0.6,2.4h11.4c0-1.1-0.2-1.9-0.5-2.6c-0.3-0.6-0.6-1.2-1.2-1.6c-0.5-0.4-1-0.7-1.8-0.9
			C665.5,59.6,664.8,59.5,664.1,59.5z"/>
		<path d="M674.8,56h4.9l6.7,16.9l6-16.9h4.6l-8.5,21.9H684L674.8,56z"/>
		<path d="M702.3,53.5c-0.9,0-1.5-0.2-2.1-0.8c-0.6-0.6-0.8-1.2-0.8-2.1c0-0.9,0.2-1.5,0.8-2.1c0.6-0.6,1.2-0.8,2.1-0.8
			c0.9,0,1.5,0.2,2.1,0.8c0.6,0.6,0.8,1.2,0.8,2.1c0,0.9-0.2,1.5-0.8,2.1C703.8,53.3,703.2,53.5,702.3,53.5z M700,56h4.5v21.9H700
			V56z"/>
		<path d="M719.1,78.4c-1.5,0-2.8-0.2-4.1-0.6c-1.3-0.5-2.4-1.1-3.4-2c-1-0.9-1.8-2.1-2.3-3.5c-0.6-1.4-0.9-3.1-0.9-4.9v-0.8
			c0-1.8,0.2-3.4,0.8-4.8c0.6-1.4,1.3-2.5,2.3-3.4c1-0.9,2-1.5,3.3-2c1.2-0.4,2.6-0.6,4-0.6c3.3,0,5.9,0.9,7.7,2.7
			c1.8,1.8,2.7,4.4,2.7,7.7v2.3h-16c0,1.1,0.2,2.1,0.6,2.8c0.3,0.8,0.8,1.5,1.4,1.9c0.6,0.5,1.2,0.8,1.9,1.1
			c0.7,0.2,1.5,0.3,2.3,0.3c1.5,0,2.7-0.2,3.5-0.7c0.7-0.5,1.2-1.1,1.5-1.9h4.5c-0.4,2.2-1.5,3.8-3.2,4.9
			C723.7,77.8,721.6,78.4,719.1,78.4z M719,59.5c-0.8,0-1.5,0.1-2.2,0.3c-0.7,0.2-1.3,0.5-1.9,0.9c-0.6,0.4-1,1-1.3,1.6
			s-0.5,1.5-0.6,2.4h11.4c0-1.1-0.2-1.9-0.5-2.6c-0.3-0.6-0.6-1.2-1.2-1.6c-0.5-0.4-1-0.7-1.8-0.9C720.4,59.6,719.7,59.5,719,59.5z"
			/>
		<path d="M730.5,56h4.8l4,16.1l5-16.1h4.1l5.3,16.1l4-16.1h4.4l-6,21.9h-4.5l-5.4-16.1l-5.2,16.1h-4.5L730.5,56z"/>
		<path d="M773,78.4c-1.6,0-3-0.2-4.1-0.6c-1.1-0.3-2.1-0.8-2.8-1.5c-0.7-0.6-1.4-1.3-1.7-2.1c-0.4-0.8-0.6-1.6-0.7-2.5h4.5
			c0.2,0.8,0.6,1.4,1.4,1.9c0.7,0.6,1.9,0.7,3.5,0.7c1.8,0,3.1-0.2,3.8-0.7c0.7-0.5,1.1-1.1,1.1-1.9c0-0.3-0.1-0.7-0.3-1
			c-0.2-0.3-0.5-0.6-0.9-0.9c-0.4-0.2-1-0.5-1.7-0.7c-0.7-0.2-1.6-0.4-2.7-0.6c-1.2-0.2-2.3-0.4-3.4-0.7c-1-0.3-1.9-0.7-2.6-1.3
			c-0.7-0.6-1.3-1.1-1.6-1.9c-0.3-0.7-0.6-1.6-0.6-2.7c0-0.9,0.2-1.7,0.6-2.5c0.3-0.8,0.9-1.5,1.6-2c0.7-0.6,1.7-1.1,2.7-1.4
			c1.1-0.3,2.4-0.5,3.9-0.5s2.7,0.2,3.7,0.6c1,0.3,1.9,0.8,2.6,1.5c0.7,0.6,1.2,1.3,1.6,2.1c0.4,0.8,0.6,1.6,0.7,2.5h-4.5
			c-0.2-0.9-0.6-1.5-1.4-1.9c-0.6-0.5-1.6-0.7-2.7-0.7c-1.6,0-2.7,0.2-3.4,0.7c-0.6,0.5-1,1.1-1,1.7c0,0.4,0.1,0.7,0.2,1.1
			c0.2,0.3,0.4,0.6,0.8,0.8c0.4,0.2,0.9,0.5,1.6,0.6c0.6,0.2,1.5,0.3,2.6,0.5c1.3,0.2,2.4,0.4,3.5,0.7c1,0.3,1.9,0.7,2.7,1.3
			c0.7,0.6,1.4,1.2,1.8,1.9c0.4,0.8,0.6,1.7,0.6,2.8c0,1-0.2,1.8-0.6,2.6c-0.4,0.8-1,1.5-1.8,2.1c-0.8,0.6-1.8,1.1-3,1.4
			C776,78.1,774.6,78.4,773,78.4z"/>
	</g>
</g>
</svg>
