<?xml version="1.0" encoding="utf-8"?>
<!-- Generator: Adobe Illustrator 27.0.0, SVG Export Plug-In . SVG Version: 6.00 Build 0)  -->
<svg version="1.1" id="Layer_1" xmlns="http://www.w3.org/2000/svg" xmlns:xlink="http://www.w3.org/1999/xlink" x="0px" y="0px"
	 viewBox="0 0 750 137" style="enable-background:new 0 0 750 137;" xml:space="preserve">
<style type="text/css">
	.st0{fill:#F4DAFF;}
</style>
<g>
	<path class="st0" d="M68.6,0.1L681.4,0C719.3,0,750,30.6,750,68.5l0,0c0,37.8-30.7,68.5-68.6,68.5L68.6,137
		C30.7,137,0,106.4,0,68.5l0,0C0,30.7,30.7,0.1,68.6,0.1z"/>
	<g>
		<path d="M50.5,77.9h7.1V57.7l-7.1,5.1v-5.4l7.4-5.2h4.9V78h5.9v4.5H50.5V77.9z"/>
		<path d="M111.7,56.9c-0.9,0-1.6-0.3-2.2-0.9c-0.5-0.6-0.9-1.3-0.9-2.2c0-0.9,0.3-1.6,0.9-2.2c0.6-0.5,1.3-0.9,2.2-0.9
			s1.6,0.3,2.2,0.9c0.5,0.6,0.9,1.3,0.9,2.2c0,0.9-0.3,1.6-0.9,2.2C113.2,56.5,112.5,56.9,111.7,56.9z M109.3,59.5h4.8v22.9h-4.8
			V59.5z"/>
		<path d="M119.5,59.5h4.4v3.9c0.5-1.1,1.5-2.2,2.7-3c1.2-0.9,2.9-1.3,4.8-1.3c2.8,0,4.9,0.8,6.3,2.2c1.4,1.6,2.2,3.7,2.2,6.6v14.4
			H135V69c0-1.9-0.4-3.4-1.2-4.3c-0.8-0.9-2.2-1.5-4-1.5c-1,0-1.9,0.2-2.6,0.5c-0.7,0.3-1.3,0.8-1.7,1.3c-0.4,0.5-0.8,1.1-1,1.8
			c-0.2,0.7-0.3,1.5-0.3,2.2v13.4h-4.8L119.5,59.5L119.5,59.5z"/>
		<path d="M154.1,82.9c-1.6,0-3-0.3-4.3-0.7s-2.4-1.2-3.4-2.2c-1-0.9-1.7-2.2-2.3-3.6s-0.9-3.2-0.9-5.2v-0.9c0-1.8,0.3-3.5,0.9-4.8
			c0.6-1.4,1.4-2.6,2.3-3.5s2.2-1.6,3.5-2.2c1.3-0.4,2.7-0.7,4.2-0.7s2.9,0.2,4,0.6c1.2,0.4,2.2,0.9,3,1.6c0.8,0.7,1.5,1.6,2,2.5
			c0.5,0.9,0.8,2,1,3h-4.8c-0.3-1-0.8-1.9-1.6-2.6c-0.8-0.7-1.9-1-3.5-1c-0.8,0-1.6,0.2-2.3,0.4c-0.7,0.3-1.4,0.7-1.9,1.3
			c-0.5,0.6-1,1.3-1.3,2.2c-0.3,0.9-0.4,2-0.4,3.2v0.9c0,1.4,0.2,2.5,0.4,3.5c0.3,0.9,0.8,1.7,1.3,2.3c0.5,0.6,1.2,1,1.9,1.3
			s1.5,0.4,2.3,0.4c2.7,0,4.4-1.2,5.1-3.6h4.8c-0.3,1.2-0.6,2.3-1.2,3.3c-0.6,0.9-1.3,1.8-2.2,2.4s-1.8,1.2-2.9,1.6
			C156.6,82.7,155.4,82.9,154.1,82.9z"/>
		<path d="M167.5,59.5h4.4v3.9c0.4-1.2,1.2-2.2,2.3-3c1-0.9,2.3-1.3,3.9-1.3c0.7,0,1.3,0,1.6,0.1c0.3,0.1,0.6,0.1,0.8,0.2v4.3
			c-0.5-0.2-1-0.3-1.3-0.3c-0.4-0.1-0.9-0.1-1.5-0.1c-1,0-1.7,0.2-2.4,0.5c-0.7,0.3-1.2,0.8-1.6,1.3c-0.4,0.5-0.8,1.1-1,1.8
			c-0.2,0.7-0.3,1.5-0.3,2.2v13.4h-4.8V59.5z"/>
		<path d="M192.9,82.9c-1.6,0-2.9-0.3-4.3-0.7c-1.4-0.4-2.5-1.2-3.5-2.2c-1-0.9-1.8-2.2-2.4-3.6c-0.6-1.5-0.9-3.2-0.9-5.2v-0.9
			c0-1.9,0.3-3.5,0.9-4.9c0.6-1.4,1.4-2.6,2.3-3.5c1-0.9,2.2-1.6,3.5-2.1c1.3-0.4,2.7-0.7,4.2-0.7c3.5,0,6.1,0.9,8.1,2.8
			c1.8,1.9,2.8,4.6,2.8,8v2.4h-16.8c0,1.2,0.3,2.2,0.6,3c0.3,0.8,0.9,1.5,1.4,2c0.6,0.5,1.3,0.9,2.1,1.1c0.8,0.3,1.6,0.3,2.3,0.3
			c1.6,0,2.9-0.3,3.6-0.8c0.8-0.5,1.3-1.2,1.6-2h4.8c-0.4,2.2-1.6,4-3.4,5.2C197.5,82.3,195.4,82.9,192.9,82.9z M192.6,63.2
			c-0.8,0-1.6,0.1-2.3,0.3c-0.8,0.2-1.4,0.5-1.9,0.9c-0.6,0.4-1,1-1.4,1.7c-0.3,0.7-0.5,1.6-0.5,2.6h12c0-1-0.2-2-0.5-2.7
			c-0.3-0.7-0.7-1.3-1.2-1.7c-0.5-0.4-1.1-0.8-1.8-0.9C194.2,63.3,193.4,63.2,192.6,63.2z"/>
		<path d="M213.6,82.9c-1.2,0-2.3-0.2-3.3-0.5c-1-0.3-1.8-0.9-2.4-1.6c-0.7-0.7-1.2-1.4-1.5-2.2c-0.3-0.9-0.5-1.8-0.5-2.8
			c0-2.2,0.7-4,2.1-5.1c1.4-1.1,3.4-1.6,6-1.6h7.1v-1.2c0-1.7-0.3-2.9-1.1-3.5c-0.8-0.7-2-0.9-3.6-0.9c-1.5,0-2.6,0.3-3.3,0.7
			c-0.7,0.4-1.1,1.1-1.2,1.9h-4.7c0.1-0.9,0.3-1.9,0.8-2.7c0.4-0.9,1-1.6,1.8-2.2c0.8-0.6,1.7-1,2.9-1.4s2.4-0.5,3.8-0.5
			c1.4,0,2.7,0.2,3.8,0.4c1.1,0.3,2.1,0.8,2.9,1.5c0.8,0.7,1.5,1.6,1.9,2.6c0.4,1,0.7,2.3,0.7,3.9v9.1c0,1.2,0,2.2,0,3.2
			c0,0.9,0.1,1.8,0.2,2.7h-4.3c-0.1-0.7-0.2-1.2-0.2-1.7c-0.1-0.4-0.1-1-0.1-1.7c-0.5,1-1.5,2-2.9,2.8
			C217.2,82.4,215.5,82.9,213.6,82.9z M214.9,78.7c0.8,0,1.6-0.1,2.3-0.3c0.8-0.2,1.4-0.5,1.9-0.9c0.5-0.4,1-0.9,1.3-1.6
			c0.3-0.6,0.5-1.3,0.5-2.2v-1.3h-6.2c-1.2,0-2.2,0.3-2.9,0.8c-0.8,0.5-1.1,1.3-1.1,2.2c0,0.9,0.3,1.7,1,2.3
			C212.3,78.5,213.5,78.7,214.9,78.7z"/>
		<path d="M239.2,82.9c-1.7,0-3.1-0.2-4.3-0.5c-1.2-0.3-2.2-0.9-3-1.6c-0.8-0.6-1.4-1.4-1.8-2.2c-0.4-0.9-0.7-1.7-0.8-2.7h4.8
			c0.2,0.8,0.7,1.5,1.5,2c0.8,0.5,2,0.8,3.7,0.8c1.9,0,3.3-0.3,4-0.8c0.8-0.5,1.2-1.2,1.2-2c0-0.3-0.1-0.7-0.3-1
			c-0.2-0.3-0.5-0.6-1-0.9c-0.4-0.3-1-0.5-1.8-0.8c-0.8-0.3-1.7-0.4-2.8-0.5c-1.3-0.2-2.5-0.4-3.5-0.8c-1-0.3-2-0.8-2.7-1.3
			c-0.8-0.5-1.3-1.2-1.7-2c-0.4-0.8-0.6-1.7-0.6-2.8c0-0.9,0.2-1.8,0.5-2.6c0.3-0.9,1-1.6,1.7-2.2c0.8-0.6,1.7-1.1,2.9-1.5
			c1.2-0.3,2.5-0.5,4.1-0.5c1.5,0,2.8,0.2,3.9,0.5s2,0.9,2.8,1.6c0.8,0.6,1.3,1.4,1.7,2.2s0.6,1.7,0.8,2.7h-4.8
			c-0.3-0.9-0.7-1.6-1.4-2.1c-0.7-0.5-1.6-0.8-2.9-0.8c-1.7,0-2.9,0.3-3.5,0.8c-0.7,0.5-1,1.1-1,1.8c0,0.4,0.1,0.8,0.3,1
			c0.2,0.3,0.4,0.6,0.9,0.9c0.4,0.3,1,0.4,1.6,0.7c0.7,0.2,1.6,0.3,2.7,0.4c1.3,0.2,2.5,0.4,3.6,0.8c1.1,0.3,2.1,0.8,2.9,1.4
			c0.8,0.5,1.4,1.2,1.8,2.1c0.4,0.9,0.7,1.8,0.7,2.8c0,0.9-0.2,1.9-0.6,2.8c-0.4,0.9-1,1.6-1.8,2.2c-0.9,0.6-1.8,1.1-3.1,1.5
			C242.2,82.7,240.8,82.9,239.2,82.9z"/>
		<path d="M262.7,82.9c-1.6,0-2.9-0.3-4.3-0.7c-1.4-0.4-2.5-1.2-3.5-2.2c-1-0.9-1.8-2.2-2.4-3.6c-0.6-1.5-0.9-3.2-0.9-5.2v-0.9
			c0-1.9,0.3-3.5,0.9-4.9c0.6-1.4,1.4-2.6,2.3-3.5c1-0.9,2.2-1.6,3.5-2.1c1.3-0.4,2.7-0.7,4.2-0.7c3.5,0,6.1,0.9,8.1,2.8
			c1.8,1.9,2.8,4.6,2.8,8v2.4h-16.8c0,1.2,0.3,2.2,0.6,3c0.3,0.8,0.9,1.5,1.4,2c0.6,0.5,1.3,0.9,2.1,1.1c0.8,0.3,1.6,0.3,2.3,0.3
			c1.6,0,2.9-0.3,3.6-0.8c0.8-0.5,1.3-1.2,1.6-2h4.8c-0.4,2.2-1.6,4-3.4,5.2C267.5,82.3,265.3,82.9,262.7,82.9z M262.6,63.2
			c-0.8,0-1.6,0.1-2.3,0.3c-0.8,0.2-1.4,0.5-1.9,0.9c-0.6,0.4-1,1-1.4,1.7s-0.5,1.6-0.5,2.6h12c0-1-0.2-2-0.5-2.7
			c-0.3-0.7-0.7-1.3-1.2-1.7c-0.5-0.4-1.1-0.8-1.8-0.9C264.1,63.3,263.3,63.2,262.6,63.2z"/>
		<path d="M285.1,59.8h20.3v4.5h-20.3V59.8z M285.1,69.3h20.3v4.5h-20.3V69.3z"/>
		<path d="M328.3,82.9c-1.8,0-3.3-0.3-4.6-0.7c-1.3-0.4-2.3-1-3.2-1.9c-0.9-0.8-1.5-1.6-1.9-2.7c-0.4-1-0.7-2-0.7-3h5.2
			c0.2,1,0.7,1.9,1.6,2.6c0.9,0.7,2.1,1,3.6,1c1.7,0,3.1-0.5,4.2-1.6c1-1,1.5-2.6,1.5-4.5c0-1.1-0.2-2.1-0.5-2.8s-0.8-1.4-1.3-1.8
			c-0.5-0.4-1.1-0.8-1.8-1c-0.7-0.2-1.4-0.3-2.1-0.3c-1.2,0-2.3,0.2-3.1,0.7c-0.8,0.4-1.5,1-2,1.7h-4.7V52.1h18.9v4.5h-13.8v7
			c0.7-0.6,1.5-1.1,2.3-1.6c0.9-0.4,2-0.6,3.4-0.6c1.5,0,2.8,0.3,4,0.7c1.2,0.4,2.3,1.1,3,2c0.9,0.9,1.5,2,2,3.3
			c0.4,1.3,0.7,2.8,0.7,4.6c0,1.6-0.3,3.1-0.8,4.4c-0.5,1.3-1.2,2.4-2.2,3.4c-1,0.9-2.1,1.6-3.4,2.2
			C331.4,82.6,329.9,82.9,328.3,82.9z"/>
		<path d="M341.5,68h19.9v4.5h-19.9V68z"/>
		<path d="M374.4,82.9c-2.7,0-4.8-0.6-6.5-1.7c-1.7-1.1-2.8-2.9-3.2-5.4h5.2c0.3,0.9,0.9,1.6,1.6,2c0.8,0.4,1.7,0.6,2.9,0.6
			c1,0,1.8-0.2,2.6-0.4s1.6-0.9,2.2-1.6s1.1-1.7,1.5-3c0.3-1.3,0.6-2.9,0.6-4.8c-0.3,0.6-0.9,1.2-1.4,1.6c-0.6,0.4-1.2,0.8-1.9,1
			c-0.7,0.3-1.4,0.4-2.1,0.6c-0.7,0.1-1.5,0.2-2.2,0.2c-3,0-5.5-0.9-7.2-2.5c-1.7-1.6-2.6-4.1-2.6-7.1v-0.4c0-1.5,0.3-2.8,0.8-4.1
			c0.5-1.2,1.3-2.3,2.3-3.2c1-0.9,2.1-1.6,3.4-2.1c1.3-0.5,2.7-0.7,4.2-0.7c1.8,0,3.5,0.3,4.8,0.8c1.4,0.5,2.6,1.4,3.6,2.5
			c1,1.1,1.7,2.6,2.3,4.4c0.5,1.8,0.8,3.9,0.8,6.4v0.9c0,2.9-0.3,5.4-0.9,7.5c-0.6,2.1-1.5,3.7-2.5,5c-1,1.3-2.3,2.2-3.7,2.8
			C377.6,82.5,376,82.9,374.4,82.9z M375,67.7c1.7,0,3.1-0.5,4.2-1.6c1-1,1.6-2.3,1.6-4v-0.4c0-0.8-0.2-1.5-0.4-2.2
			s-0.7-1.3-1.2-1.7c-0.5-0.5-1.1-0.9-1.8-1.2c-0.7-0.3-1.5-0.4-2.3-0.4c-1.7,0-3.1,0.5-4.2,1.6c-1,1-1.6,2.3-1.6,4v0.5
			c0,1.6,0.5,2.9,1.6,4S373.3,67.7,375,67.7z"/>
		<path d="M395.6,66.5c-1,0-2.1-0.2-2.9-0.5c-0.9-0.3-1.6-0.9-2.3-1.5c-0.6-0.6-1.1-1.4-1.5-2.2c-0.3-0.9-0.5-1.8-0.5-2.9v-0.4
			c0-1,0.2-2.1,0.5-2.9c0.3-0.9,0.9-1.6,1.5-2.2c0.6-0.6,1.4-1.1,2.3-1.5c0.9-0.3,1.8-0.5,2.9-0.5c1,0,2,0.2,2.9,0.5
			c0.9,0.3,1.6,0.9,2.3,1.5c0.6,0.6,1.1,1.4,1.5,2.2c0.3,0.9,0.5,1.8,0.5,2.9v0.4c0,1-0.2,2.1-0.5,2.9c-0.3,0.9-0.9,1.6-1.5,2.2
			c-0.6,0.6-1.4,1.1-2.3,1.5C397.6,66.3,396.6,66.5,395.6,66.5z M413.3,52.1h5.2l-20.8,30.2h-5.2L413.3,52.1z M395.6,62.6
			c0.8,0,1.4-0.3,1.9-0.8c0.4-0.5,0.7-1.4,0.7-2.5v-0.4c0-1.1-0.3-2-0.7-2.5s-1-0.8-1.9-0.8c-0.9,0-1.4,0.3-1.9,0.8
			c-0.5,0.5-0.7,1.4-0.7,2.5v0.4c0,1.1,0.3,2,0.7,2.5C394.1,62.3,394.8,62.6,395.6,62.6z M415.5,82.8c-1,0-2.1-0.2-2.9-0.5
			c-0.9-0.3-1.6-0.9-2.3-1.5c-0.6-0.6-1.1-1.4-1.5-2.2c-0.3-0.9-0.5-1.8-0.5-2.9v-0.4c0-1,0.2-2.1,0.5-2.9s0.9-1.6,1.5-2.2
			c0.6-0.6,1.4-1.1,2.3-1.5c0.9-0.3,1.8-0.5,2.9-0.5c1,0,2,0.2,2.9,0.5c0.9,0.3,1.6,0.9,2.3,1.5c0.6,0.6,1.1,1.4,1.5,2.2
			c0.3,0.9,0.5,1.8,0.5,2.9v0.4c0,1-0.2,2.1-0.5,2.9c-0.3,0.9-0.9,1.6-1.5,2.2c-0.6,0.6-1.4,1.1-2.3,1.5
			C417.5,82.6,416.6,82.8,415.5,82.8z M415.5,78.9c0.8,0,1.4-0.3,1.9-0.8c0.4-0.5,0.7-1.4,0.7-2.5v-0.4c0-1.1-0.3-2-0.7-2.5
			c-0.4-0.5-1-0.8-1.9-0.8c-0.9,0-1.4,0.3-1.9,0.8c-0.4,0.5-0.7,1.4-0.7,2.5v0.4c0,1.1,0.3,2,0.7,2.5
			C414.1,78.6,414.7,78.9,415.5,78.9z"/>
		<path d="M435,59.5h4.4v3.9c0.3-0.6,0.6-1.1,1-1.6c0.4-0.5,1-1,1.5-1.4c0.5-0.4,1.2-0.7,1.8-0.9c0.7-0.3,1.4-0.3,2.1-0.3
			c1.9,0,3.4,0.4,4.5,1.2c1,0.8,1.8,1.8,2.2,3.1c0.7-1.3,1.6-2.3,2.8-3.1c1.2-0.8,2.6-1.2,4.2-1.2c2.4,0,4.2,0.7,5.5,2.1
			s1.9,3.6,1.9,6.6v14.7h-4.8V68.8c0-2.1-0.3-3.5-1.1-4.3c-0.8-0.9-1.8-1.3-3.1-1.3c-1.6,0-2.7,0.5-3.5,1.6c-0.8,1-1.1,2.4-1.1,4.1
			v13.6h-4.8V68.8c0-2.1-0.3-3.5-1.1-4.3c-0.8-0.9-1.8-1.3-3.1-1.3c-1.6,0-2.7,0.5-3.5,1.6s-1.1,2.4-1.1,4.1v13.6H435V59.5z"/>
		<path d="M481.7,82.9c-1.6,0-3-0.3-4.4-0.8c-1.4-0.5-2.6-1.2-3.5-2.2c-1-0.9-1.8-2.2-2.4-3.6c-0.6-1.5-0.9-3.1-0.9-5.1v-0.9
			c0-1.8,0.3-3.5,0.9-4.8c0.6-1.4,1.4-2.6,2.4-3.5s2.2-1.7,3.5-2.2c1.4-0.5,2.9-0.7,4.4-0.7c1.6,0,3,0.3,4.4,0.7
			c1.4,0.5,2.6,1.2,3.5,2.2c1,0.9,1.8,2.2,2.4,3.5c0.6,1.4,0.9,3,0.9,4.8v0.9c0,1.9-0.3,3.6-0.9,5.1c-0.6,1.5-1.4,2.7-2.4,3.6
			c-1,0.9-2.2,1.7-3.5,2.2C484.8,82.6,483.3,82.9,481.7,82.9z M481.7,78.7c0.9,0,1.6-0.2,2.4-0.4c0.8-0.3,1.5-0.7,2-1.3
			c0.6-0.6,1-1.4,1.5-2.3c0.3-0.9,0.5-2.1,0.5-3.5v-0.9c0-1.2-0.2-2.3-0.5-3.2c-0.3-0.9-0.9-1.6-1.5-2.2c-0.6-0.6-1.3-1-2-1.3
			c-0.8-0.3-1.6-0.4-2.4-0.4c-0.9,0-1.6,0.2-2.4,0.4c-0.8,0.3-1.5,0.7-2,1.3c-0.6,0.6-1,1.3-1.5,2.2c-0.3,0.9-0.5,2-0.5,3.2v0.9
			c0,1.4,0.2,2.5,0.5,3.5c0.3,0.9,0.9,1.7,1.5,2.3c0.6,0.6,1.3,1,2,1.3C480.1,78.6,480.9,78.7,481.7,78.7z"/>
		<path d="M496.6,59.5h4.4v3.9c0.4-1.2,1.2-2.2,2.3-3c1-0.9,2.3-1.3,3.9-1.3c0.7,0,1.3,0,1.6,0.1c0.3,0.1,0.6,0.1,0.8,0.2v4.3
			c-0.5-0.2-1-0.3-1.3-0.3c-0.4-0.1-0.9-0.1-1.5-0.1c-1,0-1.7,0.2-2.4,0.5c-0.7,0.3-1.2,0.8-1.6,1.3c-0.4,0.5-0.8,1.1-1,1.8
			c-0.2,0.7-0.3,1.5-0.3,2.2v13.4h-4.8L496.6,59.5L496.6,59.5z"/>
		<path d="M522,82.9c-1.6,0-2.9-0.3-4.3-0.7s-2.5-1.2-3.5-2.2c-1-0.9-1.8-2.2-2.4-3.6s-0.9-3.2-0.9-5.2v-0.9c0-1.9,0.3-3.5,0.9-4.9
			c0.6-1.4,1.4-2.6,2.3-3.5c1-0.9,2.2-1.6,3.5-2.1c1.3-0.4,2.7-0.7,4.2-0.7c3.5,0,6.1,0.9,8.1,2.8c1.8,1.9,2.8,4.6,2.8,8v2.4h-16.8
			c0,1.2,0.3,2.2,0.6,3c0.3,0.8,0.9,1.5,1.4,2c0.6,0.5,1.3,0.9,2.1,1.1c0.8,0.3,1.6,0.3,2.3,0.3c1.6,0,2.9-0.3,3.6-0.8
			c0.8-0.5,1.3-1.2,1.6-2h4.8c-0.4,2.2-1.6,4-3.4,5.2C526.7,82.3,524.6,82.9,522,82.9z M521.7,63.2c-0.8,0-1.6,0.1-2.3,0.3
			c-0.8,0.2-1.4,0.5-1.9,0.9c-0.6,0.4-1,1-1.4,1.7s-0.5,1.6-0.6,2.6h12.1c0-1-0.2-2-0.5-2.7c-0.3-0.7-0.7-1.3-1.2-1.7
			c-0.5-0.4-1.1-0.8-1.8-0.9C523.4,63.3,522.6,63.2,521.7,63.2z"/>
		<path d="M545.4,59.5h4.4v3.9c0.4-1.2,1.2-2.2,2.3-3c1-0.9,2.3-1.3,3.9-1.3c0.7,0,1.3,0,1.6,0.1c0.3,0.1,0.6,0.1,0.8,0.2v4.3
			c-0.5-0.2-1-0.3-1.3-0.3c-0.4-0.1-0.9-0.1-1.5-0.1c-1,0-1.7,0.2-2.4,0.5c-0.7,0.3-1.2,0.8-1.6,1.3c-0.4,0.5-0.8,1.1-1,1.8
			c-0.2,0.7-0.3,1.5-0.3,2.2v13.4h-4.8L545.4,59.5L545.4,59.5z"/>
		<path d="M570.6,82.9c-1.6,0-2.9-0.3-4.3-0.7s-2.5-1.2-3.5-2.2c-1-0.9-1.8-2.2-2.4-3.6s-0.9-3.2-0.9-5.2v-0.9
			c0-1.9,0.3-3.5,0.9-4.9c0.6-1.4,1.4-2.6,2.3-3.5c1-0.9,2.2-1.6,3.5-2.1c1.3-0.4,2.7-0.7,4.2-0.7c3.5,0,6.1,0.9,8.1,2.8
			c1.8,1.9,2.8,4.6,2.8,8v2.4h-16.8c0,1.2,0.3,2.2,0.6,3c0.3,0.8,0.9,1.5,1.4,2c0.6,0.5,1.3,0.9,2.1,1.1c0.8,0.3,1.6,0.3,2.3,0.3
			c1.6,0,2.9-0.3,3.6-0.8c0.8-0.5,1.3-1.2,1.6-2h4.8c-0.4,2.2-1.6,4-3.4,5.2C575.4,82.3,573.2,82.9,570.6,82.9z M570.5,63.2
			c-0.8,0-1.6,0.1-2.3,0.3c-0.8,0.2-1.4,0.5-1.9,0.9c-0.6,0.4-1,1-1.4,1.7s-0.5,1.6-0.6,2.6h12c0-1-0.2-2-0.5-2.7
			c-0.3-0.7-0.7-1.3-1.2-1.7c-0.5-0.4-1.1-0.8-1.8-0.9C572,63.3,571.2,63.2,570.5,63.2z"/>
		<path d="M581.7,59.5h5.2l7,17.7l6.3-17.7h4.8l-8.8,22.9h-4.8L581.7,59.5z"/>
		<path d="M616.9,82.9c-1.6,0-2.9-0.3-4.3-0.7s-2.5-1.2-3.5-2.2c-1-0.9-1.8-2.2-2.4-3.6s-0.9-3.2-0.9-5.2v-0.9
			c0-1.9,0.3-3.5,0.9-4.9c0.6-1.4,1.4-2.6,2.3-3.5c1-0.9,2.2-1.6,3.5-2.1c1.3-0.4,2.7-0.7,4.2-0.7c3.5,0,6.1,0.9,8.1,2.8
			c1.8,1.9,2.8,4.6,2.8,8v2.4h-16.8c0,1.2,0.3,2.2,0.6,3c0.3,0.8,0.9,1.5,1.4,2c0.6,0.5,1.3,0.9,2.1,1.1c0.8,0.3,1.6,0.3,2.3,0.3
			c1.6,0,2.9-0.3,3.6-0.8c0.8-0.5,1.3-1.2,1.6-2h4.8c-0.4,2.2-1.6,4-3.4,5.2C621.7,82.3,619.5,82.9,616.9,82.9z M616.8,63.2
			c-0.8,0-1.6,0.1-2.3,0.3c-0.8,0.2-1.4,0.5-1.9,0.9c-0.6,0.4-1,1-1.4,1.7s-0.5,1.6-0.6,2.6h12c0-1-0.2-2-0.5-2.7
			c-0.3-0.7-0.7-1.3-1.2-1.7c-0.5-0.4-1.1-0.8-1.8-0.9C618.3,63.3,617.6,63.2,616.8,63.2z"/>
		<path d="M631.1,59.5h4.4v3.9c0.5-1.1,1.5-2.2,2.7-3s2.9-1.3,4.8-1.3c2.8,0,4.9,0.8,6.3,2.2c1.4,1.6,2.2,3.7,2.2,6.6v14.4h-4.8V69
			c0-1.9-0.4-3.4-1.2-4.3c-0.8-0.9-2.2-1.5-4-1.5c-1,0-1.9,0.2-2.6,0.5s-1.3,0.8-1.7,1.3c-0.4,0.5-0.8,1.1-1,1.8
			c-0.2,0.7-0.3,1.5-0.3,2.2v13.4H631L631.1,59.5L631.1,59.5z"/>
		<path d="M664.1,82.9c-2.7,0-4.8-0.8-6.1-2.3c-1.4-1.6-2.1-4-2.1-7.2V59.6h4.8v13.4c0,1.9,0.4,3.4,1.2,4.3c0.8,0.9,2.1,1.5,3.8,1.5
			c1,0,1.7-0.2,2.4-0.4c0.7-0.3,1.2-0.8,1.6-1.3c0.4-0.5,0.8-1.2,1-1.9c0.2-0.7,0.3-1.5,0.3-2.2V59.5h4.8v22.9h-4.4v-3.9
			c-0.5,1.2-1.5,2.2-2.7,3C667.6,82.4,666,82.9,664.1,82.9z"/>
		<path d="M690.8,82.9c-1.6,0-2.9-0.3-4.3-0.7S684,81,682.9,80c-1-0.9-1.8-2.2-2.4-3.6s-0.9-3.2-0.9-5.2v-0.9c0-1.9,0.3-3.5,0.9-4.9
			c0.6-1.4,1.4-2.6,2.3-3.5c1-0.9,2.2-1.6,3.5-2.1c1.3-0.4,2.7-0.7,4.2-0.7c3.5,0,6.1,0.9,8.1,2.8c1.8,1.9,2.8,4.6,2.8,8v2.4h-16.8
			c0,1.2,0.3,2.2,0.6,3c0.3,0.8,0.9,1.5,1.4,2c0.6,0.5,1.3,0.9,2.1,1.1c0.8,0.3,1.6,0.3,2.3,0.3c1.6,0,2.9-0.3,3.6-0.8
			c0.8-0.5,1.3-1.2,1.6-2h4.8c-0.4,2.2-1.6,4-3.4,5.2C695.6,82.3,693.4,82.9,690.8,82.9z M690.5,63.2c-0.8,0-1.6,0.1-2.3,0.3
			c-0.8,0.2-1.4,0.5-1.9,0.9c-0.6,0.4-1,1-1.4,1.7s-0.5,1.6-0.6,2.6h12.1c0-1-0.2-2-0.5-2.7c-0.3-0.7-0.7-1.3-1.2-1.7
			c-0.5-0.4-1.1-0.8-1.8-0.9C692.2,63.3,691.4,63.2,690.5,63.2z"/>
	</g>
	<polygon points="87,53.4 91.2,61.7 100.3,63 93.7,69.4 95.2,78.5 87,74.2 78.8,78.5 80.3,69.4 73.7,63 82.9,61.7 	"/>
</g>
</svg>
