<?xml version="1.0" encoding="utf-8"?>
<!-- Generator: Adobe Illustrator 27.0.0, SVG Export Plug-In . SVG Version: 6.00 Build 0)  -->
<svg version="1.1" id="Layer_1" xmlns="http://www.w3.org/2000/svg" xmlns:xlink="http://www.w3.org/1999/xlink" x="0px" y="0px"
	 viewBox="0 0 1920 291" style="enable-background:new 0 0 1920 291;" xml:space="preserve">
<style type="text/css">
	.st0{fill:#F4F4B0;}
</style>
<g>
	<path class="st0" d="M145.5,0h1629.1c80.4,0,145.5,65.1,145.5,145.5l0,0c0,80.4-65.1,145.5-145.5,145.5H145.5
		C65.1,291,0,225.9,0,145.5l0,0C-0.2,65.3,65.1,0,145.5,0z"/>
	<g>
		<path d="M129.6,181c-5.8,0-10.7-1.3-14.4-3.7s-6.2-6.5-7.1-12.2h11.4c0.7,2.1,1.9,3.6,3.6,4.3c1.7,0.9,3.7,1.3,6.5,1.3
			c2.1,0,3.9-0.4,5.8-0.9c1.9-0.7,3.4-1.9,4.7-3.6c1.3-1.7,2.4-3.9,3.4-6.7c0.7-2.8,1.3-6.4,1.3-10.7c-0.7,1.3-1.9,2.6-3.2,3.6
			s-2.6,1.9-4.1,2.4c-1.5,0.6-3,1.1-4.7,1.3c-1.7,0.4-3.2,0.4-4.7,0.4c-6.7,0-12-1.9-15.7-5.6c-3.7-3.7-5.6-9-5.6-15.7v-0.9
			c0-3.4,0.6-6.4,1.7-9c1.1-2.8,2.8-5,4.9-7.1c2.1-2.1,4.5-3.6,7.5-4.5c2.8-1.1,6-1.7,9.2-1.7c3.9,0,7.5,0.6,10.7,1.9
			c3.2,1.1,5.8,3,7.9,5.6c2.2,2.4,3.7,5.8,5,9.7c1.1,3.9,1.7,8.6,1.7,14v1.9c0,6.5-0.7,12-2.1,16.5c-1.3,4.5-3.2,8.2-5.4,11
			c-2.2,2.8-5,4.9-8.2,6.2C136.7,180.3,133.3,181,129.6,181z M130.9,147.6c3.7,0,6.9-1.1,9.2-3.4c2.2-2.2,3.6-5.2,3.6-8.8v-0.9
			c0-1.7-0.4-3.4-0.9-4.9c-0.6-1.5-1.5-2.8-2.6-3.9c-1.1-1.1-2.4-2.1-3.9-2.6c-1.5-0.6-3.2-0.9-5-0.9c-3.7,0-6.9,1.1-9.2,3.4
			c-2.2,2.2-3.6,5.2-3.6,8.8v0.9c0,3.6,1.1,6.5,3.6,8.8C124,146.4,127,147.6,130.9,147.6z"/>
		<path d="M193,164.8H160v-8.4l32.3-43.2h12v41.7h8v9.9h-8v15.1H193C193,179.9,193,164.8,193,164.8z M193,154.9v-28.6l-21.5,28.6
			C171.5,154.9,193,154.9,193,154.9z"/>
		<path d="M232.6,144.8c-2.4,0-4.5-0.4-6.4-1.1s-3.6-1.9-5-3.2c-1.3-1.3-2.4-3-3.2-5c-0.7-1.9-1.1-4.1-1.1-6.4v-0.9
			c0-2.4,0.4-4.5,1.1-6.4c0.7-1.9,1.9-3.6,3.2-5c1.3-1.3,3-2.4,5-3.2c1.9-0.7,4.1-1.1,6.4-1.1c2.4,0,4.5,0.4,6.4,1.1
			c1.9,0.7,3.6,1.9,5,3.2c1.3,1.3,2.4,3,3.2,5c0.7,1.9,1.1,4.1,1.1,6.4v0.9c0,2.4-0.4,4.5-1.1,6.4c-0.7,1.9-1.9,3.6-3.2,5
			c-1.3,1.3-3,2.4-5,3.2C237.1,144.4,235,144.8,232.6,144.8z M271.7,113.1h11.4l-45.8,66.8h-11.4L271.7,113.1z M232.6,136.1
			c1.7,0,3-0.6,4.1-1.7c0.9-1.1,1.5-3,1.5-5.6v-0.9c0-2.6-0.6-4.3-1.5-5.6c-0.9-1.1-2.4-1.7-4.1-1.7s-3,0.6-4.1,1.7
			c-0.9,1.1-1.5,3-1.5,5.6v0.9c0,2.6,0.6,4.3,1.5,5.6C229.4,135.6,230.9,136.1,232.6,136.1z M276.5,180.8c-2.4,0-4.5-0.4-6.4-1.1
			c-1.9-0.7-3.6-1.9-5-3.2c-1.3-1.3-2.4-3-3.2-5c-0.7-1.9-1.1-4.1-1.1-6.4V164c0-2.4,0.4-4.5,1.1-6.4c0.7-1.9,1.9-3.6,3.2-5
			c1.3-1.3,3-2.4,5-3.2c1.9-0.7,4.1-1.1,6.4-1.1c2.4,0,4.5,0.4,6.4,1.1c1.9,0.7,3.6,1.9,5,3.2c1.3,1.3,2.4,3,3.2,5
			c0.7,1.9,1.1,4.1,1.1,6.4v0.9c0,2.4-0.4,4.5-1.1,6.4s-1.9,3.6-3.2,5c-1.3,1.3-3,2.4-5,3.2C281,180.5,278.8,180.8,276.5,180.8z
			 M276.5,172.2c1.7,0,3-0.6,4.1-1.7c0.9-1.1,1.5-3,1.5-5.6V164c0-2.6-0.6-4.3-1.5-5.6c-0.9-1.1-2.4-1.7-4.1-1.7
			c-1.7,0-3,0.6-4.1,1.7c-0.9,1.1-1.5,3-1.5,5.6v0.9c0,2.6,0.6,4.3,1.5,5.6C273.4,171.7,274.7,172.2,276.5,172.2z"/>
		<path d="M334.1,181c-2.8,0-5.2-0.4-7.3-1.1c-2.1-0.7-3.9-1.9-5.4-3.4c-1.5-1.5-2.6-3.2-3.4-5c-0.7-1.9-1.1-3.9-1.1-6.4
			c0-5,1.5-8.8,4.5-11.2c3-2.4,7.3-3.7,13.1-3.7h15.7v-2.8c0-3.7-0.9-6.4-2.6-7.9c-1.7-1.5-4.3-2.1-8-2.1c-3.2,0-5.6,0.6-7.1,1.5
			c-1.5,0.9-2.4,2.4-2.6,4.1h-10.3c0.2-2.2,0.7-4.1,1.7-6c0.9-1.9,2.4-3.4,4.1-4.7c1.7-1.3,3.9-2.4,6.4-3.2c2.4-0.7,5.2-1.1,8.4-1.1
			s6,0.4,8.4,1.1c2.4,0.7,4.7,1.9,6.4,3.4c1.9,1.5,3.2,3.4,4.1,5.8c0.9,2.4,1.5,5.2,1.5,8.4V167c0,2.6,0,5,0.2,6.9
			c0,2.1,0.2,3.9,0.6,5.8h-9.5c-0.2-1.5-0.4-2.6-0.4-3.7c-0.2-0.9-0.2-2.2-0.2-3.7c-1.1,2.4-3.4,4.3-6.2,6
			C342.2,180.1,338.4,181,334.1,181z M336.9,171.9c1.9,0,3.6-0.2,5-0.7c1.7-0.6,3-1.1,4.3-2.1c1.1-0.9,2.2-2.1,3-3.4
			c0.7-1.3,1.1-3,1.1-4.7v-2.8h-13.8c-2.6,0-4.9,0.6-6.4,1.7c-1.7,1.1-2.4,2.8-2.4,5c0,2.1,0.7,3.7,2.2,5
			C331.3,171.1,333.7,171.9,336.9,171.9z"/>
		<path d="M365.2,129.4h11.4l15.5,39.1l13.8-39.1h10.7l-19.6,50.5h-10.5L365.2,129.4z"/>
		<path d="M442.9,181c-3.6,0-6.7-0.6-9.7-1.7c-3-1.1-5.6-2.8-7.9-4.9c-2.2-2.2-3.9-4.9-5.2-8c-1.3-3.2-1.9-6.9-1.9-11.2v-1.9
			c0-3.9,0.6-7.5,1.9-10.7c1.3-3,3-5.6,5.2-7.9c2.2-2.1,4.9-3.7,7.9-4.9c3-1.1,6.4-1.7,9.7-1.7c3.6,0,6.7,0.6,9.7,1.7
			s5.6,2.6,7.9,4.9c2.2,2.1,3.9,4.7,5.2,7.9c1.3,3,1.9,6.5,1.9,10.7v1.9c0,4.3-0.6,8-1.9,11.2c-1.3,3.2-3,6-5.2,8
			c-2.2,2.2-4.9,3.7-7.9,4.9C449.7,180.5,446.3,181,442.9,181z M442.9,171.9c1.9,0,3.6-0.4,5.2-0.9s3.2-1.7,4.5-3
			c1.3-1.3,2.4-3,3.2-5.2c0.7-2.1,1.1-4.7,1.1-7.7v-1.9c0-2.8-0.4-5-1.1-7.1c-0.7-2.1-1.9-3.6-3.2-4.9c-1.3-1.3-2.8-2.2-4.5-2.8
			c-1.7-0.6-3.4-0.9-5.2-0.9c-1.9,0-3.6,0.4-5.2,0.9c-1.7,0.6-3.2,1.5-4.5,2.8c-1.3,1.3-2.4,2.8-3.2,4.9s-1.1,4.3-1.1,7.1v1.9
			c0,3,0.4,5.6,1.1,7.7c0.7,2.1,1.9,3.7,3.2,5.2c1.3,1.3,2.8,2.2,4.5,3C439.2,171.5,441.1,171.9,442.9,171.9z"/>
		<path d="M482,123.6c-2.1,0-3.6-0.6-4.9-1.9c-1.3-1.3-1.9-2.8-1.9-4.9s0.6-3.6,1.9-4.9c1.3-1.3,2.8-1.9,4.9-1.9
			c2.1,0,3.6,0.6,4.9,1.9s1.9,2.8,1.9,4.9s-0.6,3.6-1.9,4.9S483.9,123.6,482,123.6z M476.8,129.4h10.5v50.5h-10.5V129.4z"/>
		<path d="M517.5,181c-3.2,0-6.2-0.6-8.8-1.7c-2.6-1.1-4.9-2.6-6.7-4.9c-1.9-2.1-3.4-4.9-4.3-8c-0.9-3.2-1.5-7.1-1.5-11.4v-1.9
			c0-4.1,0.6-7.7,1.5-10.7c0.9-3,2.4-5.6,4.3-7.9c1.9-2.2,4.1-3.7,6.7-4.9c2.6-1.1,5.4-1.7,8.6-1.7c3.7,0,7.1,0.9,9.9,2.6
			c2.8,1.7,4.9,3.9,6.5,6.5V113h10.5v66.8h-9.7v-8.2c-0.6,1.3-1.3,2.4-2.4,3.6c-1.1,1.1-2.4,2.2-3.9,3c-1.5,0.9-3.2,1.5-5,2.1
			C521.6,180.7,519.6,181,517.5,181z M520,171.9c1.9,0,3.6-0.4,5.2-0.9c1.7-0.6,3.2-1.5,4.5-2.6c1.3-1.1,2.2-2.6,3-4.5
			c0.7-1.9,1.1-3.9,1.1-6.4v-6.7c0-2.2-0.4-4.1-1.1-5.8c-0.7-1.7-1.9-3-3.2-4.1c-1.3-1.1-2.8-1.9-4.5-2.6c-1.7-0.6-3.4-0.9-5.2-0.9
			c-3.9,0-7.1,1.3-9.5,3.9c-2.4,2.6-3.6,6.5-3.6,12v1.9c0,5.6,1.1,9.7,3.6,12.5C513,170.4,516,171.9,520,171.9z"/>
		<path d="M602.8,181c-4.1,0-7.9-0.9-10.8-2.8s-5-4.1-6.4-6.7v8.4h-9.7v-66.8h10.5v24.3c1.5-2.6,3.7-4.7,6.5-6.5s6-2.6,9.9-2.6
			c6.5,0,11.8,2.1,15.5,6.2c3.7,4.1,5.8,10.3,5.8,18.7v1.9c0,4.3-0.6,8-1.5,11.4c-0.9,3.2-2.4,6-4.3,8c-1.9,2.1-4.1,3.7-6.7,4.9
			C608.8,180.5,606,181,602.8,181z M600.2,171.9c3.9,0,7.1-1.3,9.3-4.1c2.4-2.8,3.6-6.9,3.6-12.5v-1.9c0-5.4-1.1-9.4-3.6-12
			s-5.6-3.9-9.5-3.9c-1.9,0-3.6,0.4-5.2,0.9c-1.7,0.6-3.2,1.5-4.5,2.6c-1.3,1.1-2.2,2.4-3.2,4.1c-0.7,1.7-1.1,3.6-1.1,5.8v6.7
			c0,2.4,0.4,4.5,1.1,6.4s1.9,3.4,3,4.5c1.3,1.1,2.8,2.1,4.5,2.6C596.6,171.5,598.5,171.9,600.2,171.9z"/>
		<path d="M649.7,181c-6,0-10.5-1.7-13.5-5.2c-3-3.6-4.5-8.8-4.5-15.9v-30.5h10.5V159c0,4.3,0.9,7.5,2.6,9.7
			c1.7,2.2,4.5,3.2,8.4,3.2c2.1,0,3.9-0.4,5.4-1.1c1.5-0.7,2.8-1.7,3.7-2.8c0.9-1.1,1.7-2.6,2.1-4.1c0.6-1.5,0.7-3.2,0.7-4.9v-29.5
			h10.5v50.5H666v-8.6c-1.1,2.6-3.2,4.9-5.8,6.7C657.2,179.9,653.8,181,649.7,181z"/>
		<path d="M705.6,181c-3.7,0-6.9-0.4-9.5-1.3c-2.6-0.7-4.9-1.9-6.5-3.4c-1.7-1.3-3-3-3.9-4.9c-0.9-1.9-1.5-3.7-1.7-5.8h10.5
			c0.4,1.9,1.5,3.2,3.2,4.5c1.7,1.3,4.5,1.7,8.2,1.7c4.1,0,7.1-0.6,8.8-1.7c1.7-1.1,2.6-2.6,2.6-4.5c0-0.7-0.2-1.7-0.7-2.2
			c-0.4-0.7-1.1-1.3-2.1-2.1c-0.9-0.6-2.2-1.1-3.9-1.7c-1.7-0.6-3.7-0.9-6.2-1.3c-2.8-0.4-5.4-0.9-7.9-1.7c-2.4-0.7-4.3-1.7-6-3
			c-1.7-1.1-3-2.6-3.7-4.3c-0.9-1.7-1.3-3.7-1.3-6.2c0-2.1,0.4-3.9,1.3-5.8c0.9-1.9,2.1-3.4,3.7-4.7c1.7-1.3,3.9-2.4,6.4-3.2
			c2.6-0.7,5.6-1.1,9-1.1c3.4,0,6.2,0.4,8.6,1.3c2.4,0.7,4.5,1.9,6,3.4c1.7,1.3,2.8,3,3.7,4.9s1.5,3.7,1.7,5.8h-10.5
			c-0.6-2.1-1.5-3.6-3.2-4.5c-1.5-1.1-3.7-1.7-6.4-1.7c-3.7,0-6.4,0.6-7.9,1.7c-1.5,1.1-2.2,2.4-2.2,3.9c0,0.9,0.2,1.7,0.6,2.4
			c0.4,0.7,0.9,1.3,1.9,1.9c0.9,0.6,2.1,1.1,3.7,1.5c1.5,0.4,3.6,0.7,6,1.1c3,0.4,5.6,0.9,8,1.7c2.4,0.7,4.5,1.7,6.4,3
			c1.7,1.3,3.2,2.8,4.1,4.5c0.9,1.9,1.5,3.9,1.5,6.4c0,2.2-0.4,4.1-1.3,6s-2.2,3.6-4.1,4.9c-1.9,1.3-4.1,2.4-6.9,3.2
			S709.2,181,705.6,181z"/>
		<path d="M741.7,123.6c-2.1,0-3.6-0.6-4.9-1.9c-1.3-1.3-1.9-2.8-1.9-4.9s0.6-3.6,1.9-4.9c1.3-1.3,2.8-1.9,4.9-1.9
			c2.1,0,3.6,0.6,4.9,1.9s1.9,2.8,1.9,4.9s-0.6,3.6-1.9,4.9S743.8,123.6,741.7,123.6z M736.5,129.4h10.5v50.5h-10.5V129.4z"/>
		<path d="M758.9,129.4h9.7v8.4c1.1-2.6,3.2-4.7,6-6.7c2.8-2.1,6.2-2.8,10.7-2.8c6.2,0,10.8,1.7,13.8,5c3.2,3.4,4.7,8.2,4.7,14.6v32
			h-10.5v-29.5c0-4.3-0.9-7.5-2.6-9.7c-1.9-2.2-4.7-3.2-8.8-3.2c-2.2,0-4.1,0.4-5.6,1.1c-1.5,0.7-2.8,1.7-3.7,2.8
			c-0.9,1.1-1.7,2.6-2.2,4.1c-0.6,1.5-0.7,3.2-0.7,4.9v29.5h-10.5v-50.5H758.9z"/>
		<path d="M836.1,181c-3.4,0-6.5-0.6-9.5-1.5c-3-1.1-5.6-2.6-7.9-4.7c-2.2-2.1-4.1-4.9-5.4-8c-1.3-3.2-2.1-7.1-2.1-11.4v-1.9
			c0-4.1,0.6-7.9,1.9-11c1.3-3.2,3-5.8,5.2-7.9c2.2-2.1,4.7-3.6,7.7-4.7c2.8-0.9,6-1.5,9.2-1.5c7.7,0,13.6,2.1,17.8,6.2
			c4.1,4.1,6.2,10.1,6.2,17.8v5.4h-37c0,2.6,0.6,4.9,1.3,6.5c0.7,1.9,1.9,3.4,3.2,4.3c1.3,1.1,2.8,1.9,4.5,2.4
			c1.7,0.6,3.4,0.7,5.2,0.7c3.6,0,6.4-0.6,8-1.7s2.8-2.6,3.6-4.5h10.5c-0.9,5-3.6,8.8-7.5,11.4C846.6,179.7,841.7,181,836.1,181z
			 M835.8,137.5c-1.9,0-3.6,0.2-5,0.7c-1.7,0.4-3,1.1-4.3,2.1c-1.3,0.9-2.2,2.2-3,3.7c-0.7,1.5-1.1,3.4-1.3,5.6h26.5
			c0-2.4-0.4-4.3-1.1-6c-0.7-1.5-1.5-2.8-2.8-3.7c-1.1-0.9-2.4-1.7-4.1-2.1C839.1,137.6,837.4,137.5,835.8,137.5z"/>
		<path d="M886.2,181c-3.7,0-6.9-0.4-9.5-1.3c-2.6-0.7-4.9-1.9-6.5-3.4c-1.7-1.3-3.2-3-3.9-4.9c-0.9-1.9-1.5-3.7-1.7-5.8H875
			c0.4,1.9,1.5,3.2,3.2,4.5c1.7,1.3,4.5,1.7,8.2,1.7c4.1,0,7.1-0.6,8.8-1.7c1.7-1.1,2.6-2.6,2.6-4.5c0-0.7-0.2-1.7-0.7-2.2
			c-0.4-0.7-1.1-1.3-2.1-2.1c-0.9-0.6-2.2-1.1-3.9-1.7c-1.7-0.6-3.7-0.9-6.2-1.3c-2.8-0.4-5.4-0.9-7.9-1.7s-4.3-1.7-6-3
			c-1.7-1.3-3-2.6-3.7-4.3c-0.7-1.7-1.3-3.7-1.3-6.2c0-2.1,0.4-3.9,1.3-5.8c0.7-1.9,2.1-3.4,3.7-4.7c1.7-1.3,3.9-2.4,6.4-3.2
			c2.6-0.7,5.6-1.1,9-1.1s6.2,0.4,8.6,1.3c2.4,0.7,4.5,1.9,6,3.4c1.7,1.3,2.8,3,3.7,4.9c0.9,1.9,1.5,3.7,1.7,5.8H896
			c-0.6-2.1-1.5-3.6-3.2-4.5c-1.5-1.1-3.7-1.7-6.4-1.7c-3.7,0-6.4,0.6-7.9,1.7c-1.5,1.1-2.2,2.4-2.2,3.9c0,0.9,0.2,1.7,0.6,2.4
			c0.4,0.7,0.9,1.3,1.9,1.9c0.9,0.6,2.1,1.1,3.7,1.5c1.5,0.4,3.6,0.7,6,1.1c3,0.4,5.6,0.9,8,1.7c2.4,0.7,4.5,1.7,6.4,3
			c1.7,1.3,3.2,2.8,4.1,4.5c0.9,1.9,1.5,3.9,1.5,6.4c0,2.2-0.4,4.1-1.3,6c-0.9,1.9-2.2,3.6-4.1,4.9c-1.9,1.3-4.1,2.4-6.9,3.2
			C893,180.5,889.8,181,886.2,181z"/>
		<path d="M935.4,181c-3.7,0-6.9-0.4-9.5-1.3c-2.6-0.7-4.9-1.9-6.5-3.4c-1.7-1.3-3.2-3-3.9-4.9c-0.9-1.9-1.5-3.7-1.7-5.8h10.5
			c0.4,1.9,1.5,3.2,3.2,4.5c1.7,1.3,4.5,1.7,8.2,1.7c4.1,0,7.1-0.6,8.8-1.7c1.7-1.1,2.6-2.6,2.6-4.5c0-0.7-0.2-1.7-0.7-2.2
			c-0.4-0.7-1.1-1.3-2.1-2.1c-0.9-0.6-2.2-1.1-3.9-1.7c-1.7-0.6-3.7-0.9-6.2-1.3c-2.8-0.4-5.4-0.9-7.9-1.7c-2.4-0.7-4.3-1.7-6-3
			c-1.7-1.3-3-2.6-3.7-4.3s-1.3-3.7-1.3-6.2c0-2.1,0.4-3.9,1.3-5.8c0.7-1.9,2.1-3.4,3.7-4.7c1.7-1.3,3.9-2.4,6.4-3.2
			c2.6-0.7,5.6-1.1,9-1.1c3.4,0,6.2,0.4,8.6,1.3c2.4,0.7,4.5,1.9,6,3.4c1.7,1.3,2.8,3,3.7,4.9s1.5,3.7,1.7,5.8h-10.5
			c-0.6-2.1-1.5-3.6-3.2-4.5c-1.5-1.1-3.7-1.7-6.4-1.7c-3.7,0-6.4,0.6-7.9,1.7c-1.5,1.1-2.2,2.4-2.2,3.9c0,0.9,0.2,1.7,0.6,2.4
			c0.4,0.7,0.9,1.3,1.9,1.9c0.9,0.6,2.1,1.1,3.7,1.5c1.5,0.4,3.6,0.7,6,1.1c3,0.4,5.6,0.9,8,1.7c2.4,0.7,4.5,1.7,6.4,3
			c1.7,1.3,3.2,2.8,4.1,4.5c0.9,1.9,1.5,3.9,1.5,6.4c0,2.2-0.4,4.1-1.3,6c-0.9,1.9-2.2,3.6-4.1,4.9c-1.9,1.3-4.1,2.4-6.9,3.2
			C942.1,180.5,939,181,935.4,181z"/>
		<path d="M987.4,181c-3.4,0-6.5-0.6-9.5-1.5c-3-1.1-5.6-2.6-7.9-4.7c-2.2-2.1-4.1-4.9-5.4-8c-1.3-3.2-2.1-7.1-2.1-11.4v-1.9
			c0-4.1,0.6-7.9,1.9-11c1.3-3.2,3-5.8,5.2-7.9s4.7-3.6,7.7-4.7c2.8-0.9,6-1.5,9.2-1.5c7.7,0,13.6,2.1,17.8,6.2
			c4.1,4.1,6.2,10.1,6.2,17.8v5.4h-37c0,2.6,0.6,4.9,1.3,6.5c0.7,1.9,1.9,3.4,3.2,4.3c1.3,1.1,2.8,1.9,4.5,2.4
			c1.7,0.6,3.4,0.7,5.2,0.7c3.6,0,6.4-0.6,8-1.7c1.7-1.1,2.8-2.6,3.6-4.5h10.5c-0.9,5-3.6,8.8-7.5,11.4
			C997.9,179.7,993,181,987.4,181z M986.8,137.5c-1.9,0-3.6,0.2-5,0.7c-1.7,0.4-3,1.1-4.3,2.1c-1.3,0.9-2.2,2.2-3,3.7
			c-0.7,1.5-1.1,3.4-1.3,5.6h26.5c0-2.4-0.4-4.3-1.1-6c-0.7-1.5-1.5-2.8-2.8-3.7c-1.1-0.9-2.4-1.7-4.1-2.1
			C990.2,137.6,988.7,137.5,986.8,137.5z"/>
		<path d="M1037.3,181c-3.7,0-6.9-0.4-9.5-1.3c-2.6-0.7-4.9-1.9-6.5-3.4c-1.7-1.3-3.2-3-3.9-4.9c-0.9-1.9-1.5-3.7-1.7-5.8h10.5
			c0.4,1.9,1.5,3.2,3.2,4.5c1.7,1.3,4.5,1.7,8.2,1.7c4.1,0,7.1-0.6,8.8-1.7c1.7-1.1,2.6-2.6,2.6-4.5c0-0.7-0.2-1.7-0.7-2.2
			c-0.4-0.7-1.1-1.3-2.1-2.1c-0.9-0.6-2.2-1.1-3.9-1.7c-1.7-0.6-3.7-0.9-6.2-1.3c-2.8-0.4-5.4-0.9-7.9-1.7s-4.3-1.7-6-3
			c-1.7-1.3-3-2.6-3.7-4.3s-1.3-3.7-1.3-6.2c0-2.1,0.4-3.9,1.3-5.8c0.7-1.9,2.1-3.4,3.7-4.7c1.7-1.3,3.9-2.4,6.4-3.2
			c2.6-0.7,5.6-1.1,9-1.1s6.2,0.4,8.6,1.3c2.4,0.7,4.5,1.9,6,3.4c1.7,1.3,2.8,3,3.7,4.9c0.9,1.9,1.5,3.7,1.7,5.8H1047
			c-0.6-2.1-1.5-3.6-3.2-4.5c-1.5-1.1-3.7-1.7-6.4-1.7c-3.7,0-6.4,0.6-7.9,1.7c-1.5,1.1-2.2,2.4-2.2,3.9c0,0.9,0.2,1.7,0.6,2.4
			c0.4,0.7,0.9,1.3,1.9,1.9c0.9,0.6,2.1,1.1,3.7,1.5c1.5,0.4,3.6,0.7,6,1.1c3,0.4,5.6,0.9,8,1.7c2.4,0.7,4.5,1.7,6.4,3
			c1.7,1.3,3.2,2.8,4.1,4.5c0.9,1.9,1.5,3.9,1.5,6.4c0,2.2-0.4,4.1-1.3,6c-0.9,1.9-2.2,3.6-4.1,4.9c-1.9,1.3-4.1,2.4-6.9,3.2
			C1044.2,180.5,1041.1,181,1037.3,181z"/>
		<path d="M1084.1,129.4h11l9.2,37.2l11.6-37.2h9.5l12.3,37.2l9.2-37.2h10.3l-13.8,50.5h-10.5l-12.5-37.2l-12.2,37.2h-10.5
			L1084.1,129.4z"/>
		<path d="M1170.8,123.6c-2.1,0-3.6-0.6-4.9-1.9s-1.9-2.8-1.9-4.9s0.6-3.6,1.9-4.9s2.8-1.9,4.9-1.9s3.6,0.6,4.9,1.9
			c1.3,1.3,1.9,2.8,1.9,4.9s-0.6,3.6-1.9,4.9C1174.4,123.1,1172.9,123.6,1170.8,123.6z M1165.6,129.4h10.5v50.5h-10.5V129.4z"/>
		<path d="M1207.6,180.3c-5.8,0-9.9-1.3-12.5-3.7c-2.4-2.4-3.7-6.5-3.7-12v-26.2h-7.1v-9h7.1V118h10.5v11.4h12.9v9h-12.9v24.9
			c0,3,0.6,5,1.7,6.2c1.1,1.1,3.2,1.7,6.4,1.7c1.9,0,3.7-0.2,5.8-0.4v9c-1.1,0.2-2.4,0.2-3.7,0.4
			C1210.6,180.3,1209.1,180.3,1207.6,180.3z"/>
		<path d="M1223.7,113.1h10.5v24.3c0.6-1.1,1.3-2.2,2.2-3.4c0.9-1.1,2.1-2.1,3.4-3c1.3-0.7,2.8-1.5,4.5-2.1c1.7-0.6,3.6-0.7,5.8-0.7
			c6.2,0,10.8,1.7,13.8,5c3.2,3.4,4.7,8.2,4.7,14.6v32h-10.5v-29.5c0-4.3-0.9-7.5-2.6-9.7c-1.9-2.2-4.7-3.2-8.8-3.2
			c-2.2,0-4.1,0.4-5.6,1.1c-1.5,0.7-2.8,1.7-3.7,2.8c-0.9,1.1-1.7,2.6-2.2,4.1c-0.6,1.5-0.7,3.2-0.7,4.9v29.5h-10.5v-66.8H1223.7z"
			/>
		<path d="M1326.6,181c-4.1,0-7.9-0.9-10.8-2.8s-5-4.1-6.4-6.7v8.4h-9.7v-66.8h10.5v24.3c1.5-2.6,3.7-4.7,6.5-6.5
			c2.8-1.7,6-2.6,9.9-2.6c6.5,0,11.8,2.1,15.5,6.2c3.7,4.1,5.8,10.3,5.8,18.7v1.9c0,4.3-0.6,8-1.5,11.4c-0.9,3.2-2.4,6-4.3,8
			c-1.9,2.1-4.1,3.7-6.7,4.9C1332.5,180.5,1329.7,181,1326.6,181z M1323.9,171.9c3.9,0,7.1-1.3,9.3-4.1c2.4-2.8,3.6-6.9,3.6-12.5
			v-1.9c0-5.4-1.1-9.4-3.6-12c-2.4-2.6-5.6-3.9-9.5-3.9c-1.9,0-3.6,0.4-5.2,0.9c-1.7,0.6-3.2,1.5-4.5,2.6c-1.3,1.1-2.2,2.4-3.2,4.1
			c-0.7,1.7-1.1,3.6-1.1,5.8v6.7c0,2.4,0.4,4.5,1.1,6.4c0.7,1.9,1.9,3.4,3,4.5c1.3,1.1,2.8,2.1,4.5,2.6
			C1320.4,171.5,1322.1,171.9,1323.9,171.9z"/>
		<path d="M1370.7,181c-2.8,0-5.2-0.4-7.3-1.1c-2.1-0.7-3.9-1.9-5.4-3.4c-1.5-1.5-2.6-3.2-3.4-5c-0.7-1.9-1.1-3.9-1.1-6.4
			c0-5,1.5-8.8,4.5-11.2c3-2.4,7.3-3.7,13.1-3.7h15.7v-2.8c0-3.7-0.9-6.4-2.6-7.9c-1.7-1.5-4.3-2.1-8-2.1c-3.2,0-5.6,0.6-7.1,1.5
			s-2.4,2.4-2.6,4.1h-10.3c0.2-2.2,0.7-4.1,1.7-6s2.4-3.4,4.1-4.7c1.7-1.3,3.9-2.4,6.4-3.2c2.4-0.7,5.2-1.1,8.4-1.1
			c3.2,0,6,0.4,8.4,1.1c2.4,0.7,4.7,1.9,6.4,3.4c1.9,1.5,3.2,3.4,4.1,5.8c0.9,2.4,1.5,5.2,1.5,8.4V167c0,2.6,0,5,0.2,6.9
			c0,2.1,0.2,3.9,0.6,5.8h-9.5c-0.2-1.5-0.4-2.6-0.4-3.7c-0.2-0.9-0.2-2.2-0.2-3.7c-1.1,2.4-3.4,4.3-6.2,6
			C1378.5,180.1,1375,181,1370.7,181z M1373.5,171.9c1.9,0,3.6-0.2,5-0.7c1.5-0.6,3-1.1,4.3-2.1c1.1-0.9,2.2-2.1,3-3.4
			c0.7-1.3,1.1-3,1.1-4.7v-2.8h-13.8c-2.6,0-4.9,0.6-6.4,1.7c-1.7,1.1-2.4,2.8-2.4,5c0,2.1,0.7,3.7,2.2,5
			C1367.9,171.1,1370.3,171.9,1373.5,171.9z"/>
		<path d="M1426.4,181c-3.2,0-6.2-0.6-8.8-1.7c-2.6-1.1-4.9-2.6-6.7-4.9c-1.9-2.1-3.4-4.9-4.3-8c-0.9-3.2-1.5-7.1-1.5-11.4v-1.9
			c0-4.1,0.6-7.7,1.5-10.7c0.9-3,2.4-5.6,4.3-7.9c1.9-2.1,4.1-3.7,6.7-4.9c2.6-1.1,5.4-1.7,8.6-1.7c3.7,0,7.1,0.9,9.9,2.6
			c2.8,1.7,4.9,3.9,6.5,6.5V113h10.5v66.8h-9.7v-8.2c-0.6,1.3-1.3,2.4-2.4,3.6c-1.1,1.1-2.4,2.2-3.9,3c-1.5,0.9-3.2,1.5-5,2.1
			C1430.3,180.7,1428.3,181,1426.4,181z M1428.6,171.9c1.9,0,3.6-0.4,5.2-0.9s3.2-1.5,4.5-2.6s2.2-2.6,3-4.5
			c0.7-1.9,1.1-3.9,1.1-6.4v-6.7c0-2.2-0.4-4.1-1.1-5.8c-0.7-1.7-1.9-3-3.2-4.1s-2.8-1.9-4.5-2.6c-1.7-0.6-3.4-0.9-5.2-0.9
			c-3.9,0-7.1,1.3-9.5,3.9c-2.4,2.6-3.6,6.5-3.6,12v1.9c0,5.6,1.1,9.7,3.6,12.5C1421.7,170.4,1424.9,171.9,1428.6,171.9z"/>
		<path d="M1484.5,129.4h9.7v8.6c0.9-2.6,2.6-4.9,5-6.7c2.4-1.9,5.2-2.8,8.6-2.8c1.5,0,2.8,0,3.6,0.2c0.7,0.2,1.3,0.2,1.7,0.4v9.5
			c-1.1-0.4-2.1-0.6-3-0.7c-0.9-0.2-2.1-0.2-3.2-0.2c-2.1,0-3.9,0.4-5.4,1.1c-1.5,0.7-2.8,1.7-3.7,2.8c-0.9,1.1-1.7,2.6-2.1,4.1
			c-0.6,1.5-0.7,3.2-0.7,4.9v29.5h-10.5L1484.5,129.4L1484.5,129.4z"/>
		<path d="M1540.3,181c-3.4,0-6.5-0.6-9.5-1.5c-3-1.1-5.6-2.6-7.9-4.7c-2.2-2.1-4.1-4.9-5.4-8c-1.3-3.2-2.1-7.1-2.1-11.4v-1.9
			c0-4.1,0.6-7.9,1.9-11c1.3-3.2,3-5.8,5.2-7.9s4.7-3.6,7.7-4.7c2.8-0.9,6-1.5,9.2-1.5c7.7,0,13.6,2.1,17.8,6.2
			c4.1,4.1,6.2,10.1,6.2,17.8v5.4h-37c0,2.6,0.6,4.9,1.3,6.5c0.7,1.9,1.9,3.4,3.2,4.3c1.3,1.1,2.8,1.9,4.5,2.4
			c1.7,0.6,3.4,0.7,5.2,0.7c3.6,0,6.4-0.6,8-1.7c1.7-1.1,2.8-2.6,3.6-4.5h10.5c-0.9,5-3.6,8.8-7.5,11.4
			C1550.9,179.7,1546.1,181,1540.3,181z M1539.9,137.5c-1.9,0-3.6,0.2-5,0.7c-1.7,0.4-3,1.1-4.3,2.1s-2.2,2.2-3,3.7
			c-0.7,1.5-1.1,3.4-1.3,5.6h26.5c0-2.4-0.4-4.3-1.1-6c-0.7-1.5-1.5-2.8-2.8-3.7c-1.1-0.9-2.4-1.7-4.1-2.1
			C1543.3,137.6,1541.6,137.5,1539.9,137.5z"/>
		<path d="M1564.8,129.4h11.4l15.5,39.1l13.8-39.1h10.7l-19.6,50.5h-10.5L1564.8,129.4z"/>
		<path d="M1628.5,123.6c-2.1,0-3.6-0.6-4.9-1.9s-1.9-2.8-1.9-4.9s0.6-3.6,1.9-4.9c1.3-1.3,2.8-1.9,4.9-1.9c2.1,0,3.6,0.6,4.9,1.9
			c1.3,1.3,1.9,2.8,1.9,4.9s-0.6,3.6-1.9,4.9C1632.1,123.1,1630.6,123.6,1628.5,123.6z M1623.3,129.4h10.5v50.5h-10.5V129.4z"/>
		<path d="M1667.6,181c-3.4,0-6.5-0.6-9.5-1.5c-3-1.1-5.6-2.6-7.9-4.7c-2.2-2.1-4.1-4.9-5.4-8c-1.3-3.2-2.1-7.1-2.1-11.4v-1.9
			c0-4.1,0.6-7.9,1.9-11s3-5.8,5.2-7.9s4.7-3.6,7.7-4.7c2.8-0.9,6-1.5,9.2-1.5c7.7,0,13.6,2.1,17.8,6.2s6.2,10.1,6.2,17.8v5.4h-37
			c0,2.6,0.6,4.9,1.3,6.5c0.7,1.9,1.9,3.4,3.2,4.3c1.3,1.1,2.8,1.9,4.5,2.4s3.4,0.7,5.2,0.7c3.6,0,6.4-0.6,8-1.7s2.8-2.6,3.6-4.5
			h10.5c-0.9,5-3.6,8.8-7.5,11.4C1678.1,179.7,1673.4,181,1667.6,181z M1667.2,137.5c-1.9,0-3.6,0.2-5,0.7c-1.7,0.4-3,1.1-4.3,2.1
			c-1.3,0.9-2.2,2.2-3,3.7c-0.7,1.5-1.1,3.4-1.3,5.6h26.5c0-2.4-0.4-4.3-1.1-6c-0.7-1.5-1.5-2.8-2.8-3.7c-1.1-0.9-2.4-1.7-4.1-2.1
			C1670.6,137.6,1668.9,137.5,1667.2,137.5z"/>
		<path d="M1694,129.4h11l9.2,37.2l11.6-37.2h9.5l12.3,37.2l9.2-37.2h10.3l-13.8,50.5h-10.5l-12.5-37.2l-12.2,37.2h-10.5L1694,129.4
			z"/>
		<path d="M1792.5,181c-3.7,0-6.9-0.4-9.5-1.3c-2.6-0.7-4.9-1.9-6.5-3.4c-1.7-1.3-3.2-3-3.9-4.9c-0.9-1.9-1.5-3.7-1.7-5.8h10.5
			c0.4,1.9,1.5,3.2,3.2,4.5s4.5,1.7,8.2,1.7c4.1,0,7.1-0.6,8.8-1.7c1.7-1.1,2.6-2.6,2.6-4.5c0-0.7-0.2-1.7-0.7-2.2
			c-0.4-0.7-1.1-1.3-2.1-2.1c-0.9-0.6-2.2-1.1-3.9-1.7c-1.7-0.6-3.7-0.9-6.2-1.3c-2.8-0.4-5.4-0.9-7.9-1.7c-2.4-0.7-4.3-1.7-6-3
			c-1.7-1.3-3-2.6-3.7-4.3s-1.3-3.7-1.3-6.2c0-2.1,0.4-3.9,1.3-5.8c0.7-1.9,2.1-3.4,3.7-4.7c1.7-1.3,3.9-2.4,6.4-3.2
			c2.6-0.7,5.6-1.1,9-1.1c3.4,0,6.2,0.4,8.6,1.3c2.4,0.7,4.5,1.9,6,3.4c1.7,1.3,2.8,3,3.7,4.9s1.5,3.7,1.7,5.8h-10.5
			c-0.6-2.1-1.5-3.6-3.2-4.5c-1.5-1.1-3.7-1.7-6.4-1.7c-3.7,0-6.4,0.6-7.9,1.7c-1.5,1.1-2.2,2.4-2.2,3.9c0,0.9,0.2,1.7,0.6,2.4
			c0.4,0.7,0.9,1.3,1.9,1.9c0.9,0.6,2.1,1.1,3.7,1.5c1.5,0.4,3.6,0.7,6,1.1c3,0.4,5.6,0.9,8,1.7c2.4,0.7,4.5,1.7,6.4,3
			c1.7,1.3,3.2,2.8,4.1,4.5c0.9,1.9,1.5,3.9,1.5,6.4c0,2.2-0.4,4.1-1.3,6c-0.9,1.9-2.2,3.6-4.1,4.9c-1.9,1.3-4.1,2.4-6.9,3.2
			C1799.4,180.5,1796.2,181,1792.5,181z"/>
	</g>
</g>
</svg>
