<?xml version="1.0" encoding="utf-8"?>
<!-- Generator: Adobe Illustrator 27.0.0, SVG Export Plug-In . SVG Version: 6.00 Build 0)  -->
<svg version="1.1" id="Layer_1" xmlns="http://www.w3.org/2000/svg" xmlns:xlink="http://www.w3.org/1999/xlink" x="0px" y="0px"
	 viewBox="0 0 2048 373" style="enable-background:new 0 0 2048 373;" xml:space="preserve">
<style type="text/css">
	.st0{fill:#F4DAFF;}
</style>
<g>
	<path class="st0" d="M187.4,0.2L1860.6,0C1964.1,0,2048,83.4,2048,186.4l0,0c0,102.9-83.9,186.4-187.4,186.4L187.4,373
		C83.9,373,0,289.6,0,186.6l0,0C0,83.7,83.9,0.2,187.4,0.2z"/>
	<g>
		<path d="M137.8,212h19.4v-55l-19.4,13.9v-14.6l20.1-14.1h13.5v70h16.1v12.2h-49.6V212z"/>
		<path d="M304.9,154.9c-2.4,0-4.5-0.7-5.9-2.4c-1.4-1.6-2.4-3.5-2.4-5.9c0-2.4,0.7-4.5,2.4-5.9c1.7-1.4,3.5-2.4,5.9-2.4
			s4.5,0.7,5.9,2.4s2.4,3.5,2.4,5.9c0,2.4-0.7,4.5-2.4,5.9S307.3,154.9,304.9,154.9z M298.5,161.9h13v62.3h-13V161.9z"/>
		<path d="M326.2,161.9h12.1v10.6c1.4-3.1,4-5.9,7.3-8.2c3.3-2.4,7.8-3.5,13-3.5c7.6,0,13.5,2.1,17.3,6.1c3.8,4.2,5.9,10.1,5.9,18.1
			v39.3h-13v-36.4c0-5.2-1.2-9.2-3.3-11.8c-2.1-2.6-5.9-4-10.9-4c-2.8,0-5.2,0.5-7.1,1.4s-3.5,2.1-4.7,3.5c-1.2,1.4-2.1,3.1-2.6,4.9
			c-0.5,1.9-0.9,4-0.9,5.9v36.4h-13L326.2,161.9L326.2,161.9z"/>
		<path d="M420.8,225.6c-4.3,0-8.3-0.7-11.8-1.9c-3.5-1.2-6.6-3.3-9.2-5.9c-2.6-2.6-4.7-5.9-6.1-9.9c-1.4-4-2.4-8.7-2.4-14.1v-2.4
			c0-4.9,0.7-9.4,2.4-13.2c1.7-3.8,3.8-7.1,6.4-9.6c2.6-2.6,5.9-4.5,9.5-5.9c3.5-1.2,7.3-1.9,11.3-1.9s7.8,0.5,10.9,1.6
			c3.3,1.2,5.9,2.6,8.3,4.5c2.1,1.9,4,4.2,5.4,6.8s2.1,5.4,2.6,8.2h-13.2c-0.7-2.8-2.1-5.2-4.3-7.1c-2.1-1.9-5.2-2.8-9.7-2.8
			c-2.1,0-4.3,0.5-6.1,1.2s-3.8,1.9-5.2,3.5c-1.4,1.6-2.6,3.5-3.5,6.1c-0.9,2.6-1.2,5.4-1.2,8.7v2.4c0,3.8,0.5,6.8,1.2,9.4
			c0.9,2.6,2.1,4.7,3.5,6.3c1.4,1.6,3.3,2.8,5.2,3.5s4,1.2,6.1,1.2c7.3,0,12.1-3.3,13.9-9.9h13.2c-0.7,3.3-1.7,6.3-3.3,8.9
			c-1.7,2.6-3.5,4.9-5.9,6.6s-5,3.3-8,4.2C427.6,225.2,424.3,225.6,420.8,225.6z"/>
		<path d="M457.4,161.9h12.1v10.6c1.2-3.3,3.3-5.9,6.1-8.2c2.8-2.4,6.4-3.5,10.6-3.5c1.9,0,3.5,0,4.5,0.2c0.9,0.2,1.7,0.2,2.1,0.5
			v11.8c-1.4-0.5-2.6-0.7-3.5-0.9c-1.2-0.2-2.4-0.2-4-0.2c-2.6,0-4.7,0.5-6.6,1.4s-3.3,2.1-4.5,3.5c-1.2,1.4-2.1,3.1-2.6,4.9
			c-0.5,1.9-0.9,4-0.9,5.9v36.4h-13.2V161.9z"/>
		<path d="M526.7,225.6c-4.3,0-8-0.7-11.8-1.9c-3.8-1.2-6.9-3.3-9.7-5.9c-2.8-2.6-5-5.9-6.6-9.9c-1.7-4-2.4-8.7-2.4-14.1v-2.4
			c0-5.2,0.7-9.6,2.4-13.4c1.7-3.8,3.8-7.1,6.4-9.6c2.6-2.6,5.9-4.5,9.5-5.6c3.5-1.2,7.3-1.9,11.3-1.9c9.5,0,16.8,2.6,22,7.5
			c5,5.2,7.6,12.5,7.6,21.9v6.6h-45.9c0,3.3,0.7,5.9,1.7,8.2c0.9,2.1,2.4,4,3.8,5.4c1.7,1.4,3.5,2.4,5.7,3.1
			c2.1,0.7,4.3,0.9,6.4,0.9c4.5,0,7.8-0.7,9.9-2.1c2.1-1.4,3.5-3.3,4.3-5.4h13c-1.2,6.1-4.3,10.8-9.2,14.1
			C539.4,224,533.5,225.6,526.7,225.6z M525.9,172c-2.1,0-4.3,0.2-6.4,0.9c-2.1,0.5-3.8,1.4-5.2,2.6c-1.7,1.2-2.8,2.8-3.8,4.7
			c-0.9,1.9-1.4,4.2-1.4,7.1H542c0-2.8-0.5-5.4-1.4-7.3c-0.7-1.9-1.9-3.5-3.3-4.7s-3.1-2.1-5-2.6C530.2,172.3,528.1,172,525.9,172z"
			/>
		<path d="M583.4,225.6c-3.3,0-6.4-0.5-9-1.4c-2.6-0.9-5-2.4-6.6-4.2c-1.9-1.9-3.3-3.8-4-6.1s-1.4-4.9-1.4-7.8
			c0-6.1,1.9-10.8,5.7-13.9c3.8-3.1,9.2-4.5,16.3-4.5h19.4v-3.3c0-4.7-0.9-8-3.1-9.6c-2.1-1.9-5.4-2.6-9.9-2.6c-4,0-7.1,0.7-9,1.9
			s-3.1,3.1-3.3,5.2h-12.8c0.2-2.6,0.9-5.2,2.1-7.3c1.2-2.4,2.8-4.2,5-5.9c2.1-1.6,4.7-2.8,7.8-3.8c3.1-0.9,6.6-1.4,10.4-1.4
			s7.3,0.5,10.4,1.2c3.1,0.9,5.7,2.1,8,4c2.1,1.9,4,4.2,5.2,7.1c1.2,2.8,1.9,6.3,1.9,10.6v24.7c0,3.3,0,6.1,0,8.7
			c0,2.6,0.2,4.9,0.5,7.3h-11.8c-0.2-1.9-0.5-3.3-0.5-4.7c-0.2-1.2-0.2-2.8-0.2-4.7c-1.4,2.8-4,5.4-7.8,7.5
			C593.1,224.5,588.6,225.6,583.4,225.6z M586.9,214.4c2.1,0,4.3-0.2,6.4-0.9c2.1-0.5,3.8-1.4,5.2-2.6s2.6-2.6,3.5-4.2
			c0.9-1.6,1.4-3.5,1.4-5.9v-3.5h-17c-3.3,0-5.9,0.7-8,2.1c-2.1,1.4-3.1,3.5-3.1,6.1s0.9,4.7,2.8,6.3
			C579.8,213.6,582.9,214.4,586.9,214.4z"/>
		<path d="M653.1,225.6c-4.7,0-8.5-0.5-11.8-1.4c-3.3-0.9-5.9-2.4-8.3-4.2c-2.1-1.6-3.8-3.8-5-6.1s-1.9-4.7-2.1-7.3h13
			c0.5,2.1,1.9,4,4,5.4c2.1,1.4,5.4,2.1,10.2,2.1c5.2,0,9-0.7,10.9-2.1c2.1-1.4,3.3-3.3,3.3-5.4c0-0.9-0.2-1.9-0.9-2.8
			c-0.5-0.9-1.4-1.6-2.6-2.6c-1.2-0.7-2.8-1.4-5-2.1c-2.1-0.7-4.7-1.2-7.6-1.4c-3.5-0.5-6.9-1.2-9.7-2.1s-5.4-2.1-7.3-3.5
			c-2.1-1.4-3.5-3.3-4.7-5.4c-1.2-2.1-1.7-4.7-1.7-7.5c0-2.6,0.5-4.9,1.4-7.1c0.9-2.4,2.6-4.2,4.7-5.9c2.1-1.6,4.7-3.1,8-4
			c3.3-0.9,6.9-1.4,11.1-1.4c4,0,7.6,0.5,10.6,1.4c3.1,0.9,5.4,2.4,7.6,4.2c2.1,1.6,3.5,3.8,4.7,6.1c1.2,2.4,1.7,4.7,2.1,7.3h-13
			c-0.7-2.4-1.9-4.2-3.8-5.6s-4.5-2.1-8-2.1c-4.7,0-7.8,0.7-9.7,2.1c-1.9,1.4-2.6,3.1-2.6,4.9c0,1.2,0.2,2.1,0.7,2.8
			c0.5,0.9,1.2,1.6,2.4,2.4c1.2,0.7,2.6,1.2,4.5,1.9c1.9,0.5,4.5,0.9,7.3,1.2c3.5,0.5,6.9,1.2,9.9,2.1c3.1,0.9,5.7,2.1,7.8,3.8
			c2.1,1.4,3.8,3.3,5,5.6c1.2,2.4,1.9,4.9,1.9,7.8c0,2.6-0.5,5.2-1.7,7.5c-1.2,2.4-2.8,4.2-5,5.9c-2.4,1.6-5,3.1-8.5,4
			C661.4,225.2,657.6,225.6,653.1,225.6z"/>
		<path d="M717.4,225.6c-4.3,0-8-0.7-11.8-1.9c-3.8-1.2-6.9-3.3-9.7-5.9c-2.8-2.6-5-5.9-6.6-9.9c-1.7-4-2.4-8.7-2.4-14.1v-2.4
			c0-5.2,0.7-9.6,2.4-13.4c1.7-3.8,3.8-7.1,6.4-9.6c2.6-2.6,5.9-4.5,9.5-5.6c3.5-1.2,7.3-1.9,11.3-1.9c9.5,0,16.8,2.6,22,7.5
			c5,5.2,7.6,12.5,7.6,21.9v6.6h-45.9c0,3.3,0.7,5.9,1.7,8.2c0.9,2.1,2.4,4,3.8,5.4c1.7,1.4,3.5,2.4,5.7,3.1
			c2.1,0.7,4.3,0.9,6.4,0.9c4.5,0,7.8-0.7,9.9-2.1s3.5-3.3,4.3-5.4h13c-1.2,6.1-4.3,10.8-9.2,14.1
			C730.4,224,724.5,225.6,717.4,225.6z M716.9,172c-2.1,0-4.3,0.2-6.4,0.9c-2.1,0.5-3.8,1.4-5.2,2.6c-1.7,1.2-2.8,2.8-3.8,4.7
			c-0.9,1.9-1.4,4.2-1.4,7.1H733c0-2.8-0.5-5.4-1.4-7.3c-0.7-1.9-1.9-3.5-3.3-4.7c-1.4-1.2-3.1-2.1-5-2.6
			C721.2,172.3,719.1,172,716.9,172z"/>
		<path d="M778.4,162.9H834v12.2h-55.5V162.9z M778.4,188.7H834V201h-55.5V188.7z"/>
		<path d="M896.6,225.6c-5,0-9-0.7-12.5-1.9c-3.5-1.2-6.4-2.8-8.7-5.2c-2.4-2.1-4-4.5-5.2-7.3s-1.9-5.4-1.9-8.2h14.2
			c0.5,2.8,1.9,5.2,4.3,7.1c2.4,1.9,5.7,2.8,9.9,2.8c4.7,0,8.5-1.4,11.3-4.2c2.8-2.8,4-7.1,4-12.2c0-3.1-0.5-5.6-1.4-7.8
			c-0.9-2.1-2.1-3.8-3.5-4.9s-3.1-2.1-5-2.8c-1.9-0.5-3.8-0.9-5.7-0.9c-3.3,0-6.1,0.5-8.5,1.9c-2.1,1.2-4,2.8-5.4,4.7h-12.8V142
			h51.5v12.2h-37.6v19c1.9-1.6,4-3.1,6.4-4.2c2.4-1.2,5.4-1.6,9.2-1.6c4,0,7.6,0.7,10.9,1.9s6.1,3.1,8.3,5.4c2.4,2.4,4,5.4,5.4,8.9
			c1.2,3.5,1.9,7.8,1.9,12.5c0,4.5-0.7,8.5-2.1,12c-1.4,3.5-3.3,6.6-5.9,9.2c-2.6,2.6-5.7,4.5-9.2,5.9
			C904.9,224.9,900.8,225.6,896.6,225.6z"/>
		<path d="M932.5,185.2h54.4v12.2h-54.4V185.2z"/>
		<path d="M1022.3,225.6c-7.3,0-13.2-1.6-17.7-4.7c-4.7-3.1-7.6-8-8.7-14.8h14.2c0.9,2.6,2.4,4.2,4.3,5.4c2.1,1.2,4.7,1.6,8,1.6
			c2.6,0,5-0.5,7.1-1.2s4.3-2.4,5.9-4.2c1.7-1.9,3.1-4.7,4-8.2c0.9-3.5,1.7-8,1.7-13.2c-0.9,1.6-2.4,3.3-3.8,4.5
			c-1.7,1.2-3.3,2.1-5.2,2.8c-1.9,0.7-3.8,1.2-5.7,1.6c-1.9,0.2-4,0.5-5.9,0.5c-8.3,0-14.9-2.4-19.6-6.8c-4.7-4.5-7.1-11-7.1-19.3
			v-1.2c0-4,0.7-7.8,2.1-11.3c1.4-3.3,3.5-6.3,6.1-8.7c2.6-2.4,5.7-4.2,9.2-5.6c3.5-1.4,7.3-1.9,11.3-1.9c5,0,9.5,0.7,13.2,2.1
			c3.8,1.4,7.1,3.8,9.9,6.8c2.6,3.1,4.7,7.1,6.1,12s2.1,10.6,2.1,17.4v2.4c0,8-0.7,14.8-2.4,20.4c-1.7,5.6-4,10.1-6.9,13.6
			c-2.8,3.5-6.1,6.1-10.2,7.8C1031.1,224.7,1026.8,225.6,1022.3,225.6z M1024,184.3c4.7,0,8.5-1.4,11.3-4.2s4.3-6.3,4.3-10.8V168
			c0-2.1-0.5-4-1.2-5.9c-0.7-1.9-1.9-3.5-3.3-4.7c-1.4-1.4-3.1-2.4-5-3.3c-1.9-0.7-4-1.2-6.4-1.2c-4.7,0-8.5,1.4-11.3,4.2
			c-2.8,2.8-4.3,6.3-4.3,10.8v1.4c0,4.5,1.4,8,4.3,10.8S1019.3,184.3,1024,184.3z"/>
		<path d="M1080.3,181c-2.8,0-5.7-0.5-8-1.4s-4.5-2.4-6.1-4s-3.1-3.8-4-6.1c-0.9-2.4-1.4-4.9-1.4-8v-1.2c0-2.8,0.5-5.6,1.4-8
			c0.9-2.4,2.4-4.5,4-6.1c1.7-1.6,3.8-3.1,6.1-4c2.4-0.9,5-1.4,8-1.4c2.8,0,5.4,0.5,7.8,1.4c2.4,0.9,4.5,2.4,6.1,4
			c1.7,1.6,3.1,3.8,4,6.1c0.9,2.4,1.4,4.9,1.4,8v1.2c0,2.8-0.5,5.6-1.4,8c-0.9,2.4-2.4,4.5-4,6.1c-1.7,1.6-3.8,3.1-6.1,4
			C1085.7,180.5,1083.1,181,1080.3,181z M1128.7,142h14.2l-56.7,82.3H1072L1128.7,142z M1080.3,170.4c2.1,0,3.8-0.7,5.2-2.1
			c1.2-1.4,1.9-3.8,1.9-6.8v-1.2c0-3.1-0.7-5.4-1.9-6.8s-2.8-2.1-5.2-2.1c-2.4,0-3.8,0.7-5.2,2.1s-1.9,3.8-1.9,6.8v1.2
			c0,3.1,0.7,5.4,1.9,6.8S1078.1,170.4,1080.3,170.4z M1134.6,225.4c-2.8,0-5.7-0.5-8-1.4c-2.4-0.9-4.5-2.4-6.1-4
			c-1.7-1.6-3.1-3.8-4-6.1c-0.9-2.4-1.4-4.9-1.4-8v-1.2c0-2.8,0.5-5.6,1.4-8c0.9-2.4,2.4-4.5,4-6.1c1.7-1.6,3.8-3.1,6.1-4
			c2.4-0.9,5-1.4,8-1.4c2.8,0,5.4,0.5,7.8,1.4c2.4,0.9,4.5,2.4,6.1,4s3.1,3.8,4,6.1c0.9,2.4,1.4,4.9,1.4,8v1.2c0,2.8-0.5,5.6-1.4,8
			c-0.9,2.4-2.4,4.5-4,6.1s-3.8,3.1-6.1,4C1140.1,224.9,1137.5,225.4,1134.6,225.4z M1134.6,214.8c2.1,0,3.8-0.7,5.2-2.1
			c1.2-1.4,1.9-3.8,1.9-6.8v-1.2c0-3.1-0.7-5.4-1.9-6.8s-2.8-2.1-5.2-2.1s-3.8,0.7-5.2,2.1c-1.2,1.4-1.9,3.8-1.9,6.8v1.2
			c0,3.1,0.7,5.4,1.9,6.8C1130.8,214.1,1132.5,214.8,1134.6,214.8z"/>
		<path d="M1187.8,161.9h12.1v10.6c0.7-1.6,1.7-3.1,2.8-4.5s2.6-2.8,4-3.8c1.4-1.2,3.3-1.9,5-2.6c1.9-0.7,3.8-0.9,5.7-0.9
			c5.2,0,9.2,1.2,12.3,3.3c2.8,2.1,5,4.9,5.9,8.5c1.9-3.5,4.3-6.3,7.6-8.5c3.3-2.1,7.1-3.3,11.3-3.3c6.6,0,11.6,1.9,15.1,5.6
			c3.5,3.8,5.2,9.9,5.2,17.9v40h-13v-36.9c0-5.6-0.9-9.4-3.1-11.8c-2.1-2.4-5-3.5-8.5-3.5c-4.3,0-7.3,1.4-9.5,4.2s-3.1,6.6-3.1,11
			v36.9h-13v-36.9c0-5.6-0.9-9.4-3.1-11.8c-2.1-2.4-5-3.5-8.5-3.5c-4.3,0-7.3,1.4-9.5,4.2c-2.1,2.8-3.1,6.6-3.1,11v36.9h-12.8V161.9
			z"/>
		<path d="M1315.5,225.6c-4.3,0-8.3-0.7-12.1-2.1c-3.8-1.4-7.1-3.3-9.7-6.1c-2.8-2.6-5-5.9-6.6-9.9c-1.7-4-2.4-8.5-2.4-13.9v-2.4
			c0-4.9,0.7-9.4,2.4-13.2c1.7-3.8,3.8-7.1,6.6-9.6c2.8-2.6,5.9-4.7,9.7-5.9c3.8-1.4,7.8-1.9,12.1-1.9c4.3,0,8.3,0.7,12.1,1.9
			c3.8,1.4,7.1,3.3,9.7,5.9c2.8,2.6,5,5.9,6.6,9.6c1.7,3.8,2.4,8.2,2.4,13.2v2.4c0,5.2-0.7,9.9-2.4,13.9s-3.8,7.3-6.6,9.9
			c-2.8,2.6-5.9,4.7-9.7,6.1C1323.7,224.9,1319.7,225.6,1315.5,225.6z M1315.5,214.4c2.4,0,4.5-0.5,6.6-1.2s4-1.9,5.4-3.5
			c1.7-1.6,2.8-3.8,4-6.3c0.9-2.6,1.4-5.6,1.4-9.4v-2.4c0-3.3-0.5-6.3-1.4-8.7c-0.9-2.4-2.4-4.5-4-5.9c-1.7-1.6-3.5-2.8-5.4-3.5
			c-2.1-0.7-4.3-1.2-6.6-1.2s-4.5,0.5-6.6,1.2c-2.1,0.7-4,1.9-5.4,3.5c-1.7,1.6-2.8,3.5-4,5.9c-0.9,2.4-1.4,5.4-1.4,8.7v2.4
			c0,3.8,0.5,6.8,1.4,9.4c0.9,2.6,2.4,4.7,4,6.3c1.7,1.6,3.5,2.8,5.4,3.5C1311,213.9,1313.1,214.4,1315.5,214.4z"/>
		<path d="M1356.1,161.9h12.1v10.6c1.2-3.3,3.3-5.9,6.1-8.2c2.8-2.4,6.4-3.5,10.6-3.5c1.9,0,3.5,0,4.5,0.2s1.7,0.2,2.1,0.5v11.8
			c-1.4-0.5-2.6-0.7-3.5-0.9c-1.2-0.2-2.4-0.2-4-0.2c-2.6,0-4.7,0.5-6.6,1.4c-1.9,0.9-3.3,2.1-4.5,3.5s-2.1,3.1-2.6,4.9
			c-0.5,1.9-0.9,4-0.9,5.9v36.4h-13v-62.3H1356.1z"/>
		<path d="M1425.4,225.6c-4.3,0-8-0.7-11.8-1.9c-3.8-1.2-6.9-3.3-9.7-5.9c-2.8-2.6-5-5.9-6.6-9.9c-1.7-4-2.4-8.7-2.4-14.1v-2.4
			c0-5.2,0.7-9.6,2.4-13.4c1.7-3.8,3.8-7.1,6.4-9.6c2.8-2.6,5.9-4.5,9.5-5.6c3.5-1.2,7.3-1.9,11.3-1.9c9.5,0,16.8,2.6,22,7.5
			c5,5.2,7.6,12.5,7.6,21.9v6.6h-45.9c0,3.3,0.7,5.9,1.7,8.2c0.9,2.1,2.4,4,3.8,5.4c1.7,1.4,3.5,2.4,5.7,3.1
			c2.1,0.7,4.3,0.9,6.4,0.9c4.5,0,7.8-0.7,9.9-2.1c2.1-1.4,3.5-3.3,4.3-5.4h13c-1.2,6.1-4.3,10.8-9.2,14.1
			C1438.4,224,1432.5,225.6,1425.4,225.6z M1424.7,172c-2.1,0-4.3,0.2-6.4,0.9c-2.1,0.5-3.8,1.4-5.2,2.6c-1.7,1.2-2.8,2.8-3.8,4.7
			c-0.9,1.9-1.4,4.2-1.7,7.1h33.1c0-2.8-0.5-5.4-1.4-7.3c-0.7-1.9-1.9-3.5-3.3-4.7c-1.4-1.2-3.1-2.1-5-2.6
			C1429.2,172.3,1427,172,1424.7,172z"/>
		<path d="M1489.2,161.9h12.1v10.6c1.2-3.3,3.3-5.9,6.1-8.2c2.8-2.4,6.4-3.5,10.6-3.5c1.9,0,3.5,0,4.5,0.2s1.7,0.2,2.1,0.5v11.8
			c-1.4-0.5-2.6-0.7-3.5-0.9c-1.2-0.2-2.4-0.2-4-0.2c-2.6,0-4.7,0.5-6.6,1.4c-1.9,0.9-3.3,2.1-4.5,3.5s-2.1,3.1-2.6,4.9
			c-0.5,1.9-0.9,4-0.9,5.9v36.4h-13v-62.3H1489.2z"/>
		<path d="M1558.2,225.6c-4.3,0-8-0.7-11.8-1.9c-3.8-1.2-6.9-3.3-9.7-5.9c-2.8-2.6-5-5.9-6.6-9.9c-1.7-4-2.4-8.7-2.4-14.1v-2.4
			c0-5.2,0.7-9.6,2.4-13.4c1.7-3.8,3.8-7.1,6.4-9.6c2.8-2.6,5.9-4.5,9.5-5.6c3.5-1.2,7.3-1.9,11.3-1.9c9.5,0,16.8,2.6,22,7.5
			c5,5.2,7.6,12.5,7.6,21.9v6.6H1541c0,3.3,0.7,5.9,1.7,8.2c0.9,2.1,2.4,4,3.8,5.4c1.7,1.4,3.5,2.4,5.7,3.1c2.1,0.7,4.3,0.9,6.4,0.9
			c4.5,0,7.8-0.7,9.9-2.1c2.1-1.4,3.5-3.3,4.3-5.4h13c-1.2,6.1-4.3,10.8-9.2,14.1C1571.2,224,1565.3,225.6,1558.2,225.6z
			 M1557.7,172c-2.1,0-4.3,0.2-6.4,0.9c-2.1,0.5-3.8,1.4-5.2,2.6c-1.7,1.2-2.8,2.8-3.8,4.7c-0.9,1.9-1.4,4.2-1.7,7.1h32.9
			c0-2.8-0.5-5.4-1.4-7.3c-0.7-1.9-1.9-3.5-3.3-4.7c-1.4-1.2-3.1-2.1-5-2.6C1562,172.3,1559.9,172,1557.7,172z"/>
		<path d="M1588.5,161.9h14.2l19.1,48.2l17.3-48.2h13.2l-24.1,62.3h-13L1588.5,161.9z"/>
		<path d="M1684.7,225.6c-4.3,0-8-0.7-11.8-1.9c-3.8-1.2-6.9-3.3-9.7-5.9c-2.8-2.6-5-5.9-6.6-9.9c-1.7-4-2.4-8.7-2.4-14.1v-2.4
			c0-5.2,0.7-9.6,2.4-13.4c1.7-3.8,3.8-7.1,6.4-9.6c2.8-2.6,5.9-4.5,9.5-5.6c3.5-1.2,7.3-1.9,11.3-1.9c9.5,0,16.8,2.6,22,7.5
			c5,5.2,7.6,12.5,7.6,21.9v6.6h-45.9c0,3.3,0.7,5.9,1.7,8.2c0.9,2.1,2.4,4,3.8,5.4c1.7,1.4,3.5,2.4,5.7,3.1
			c2.1,0.7,4.3,0.9,6.4,0.9c4.5,0,7.8-0.7,9.9-2.1c2.1-1.4,3.5-3.3,4.3-5.4h13c-1.2,6.1-4.3,10.8-9.2,14.1
			C1697.7,224,1691.8,225.6,1684.7,225.6z M1684.2,172c-2.1,0-4.3,0.2-6.4,0.9c-2.1,0.5-3.8,1.4-5.2,2.6c-1.7,1.2-2.8,2.8-3.8,4.7
			c-0.9,1.9-1.4,4.2-1.7,7.1h32.9c0-2.8-0.5-5.4-1.4-7.3c-0.7-1.9-1.9-3.5-3.3-4.7c-1.4-1.2-3.1-2.1-5-2.6
			C1688.5,172.3,1686.3,172,1684.2,172z"/>
		<path d="M1723.2,161.9h12.1v10.6c1.4-3.1,4-5.9,7.3-8.2c3.3-2.4,7.8-3.5,13-3.5c7.6,0,13.5,2.1,17.3,6.1
			c3.8,4.2,5.9,10.1,5.9,18.1v39.3h-13v-36.4c0-5.2-1.2-9.2-3.3-11.8c-2.1-2.6-5.9-4-10.9-4c-2.8,0-5.2,0.5-7.1,1.4
			c-1.9,0.9-3.5,2.1-4.7,3.5c-1.2,1.4-2.1,3.1-2.8,4.9c-0.5,1.9-0.9,4-0.9,5.9v36.4h-13v-62.3H1723.2z"/>
		<path d="M1813.5,225.6c-7.3,0-13-2.1-16.8-6.3c-3.8-4.2-5.7-10.8-5.7-19.5v-37.6h13v36.4c0,5.2,1.2,9.2,3.3,11.8
			c2.1,2.6,5.7,4,10.4,4c2.6,0,4.7-0.5,6.6-1.2c1.9-0.9,3.3-2.1,4.5-3.5c1.2-1.4,2.1-3.3,2.6-5.2s0.9-4,0.9-5.9v-36.7h13v62.3h-12.1
			v-10.6c-1.4,3.3-4,5.9-7.3,8.2C1823,224.5,1818.7,225.6,1813.5,225.6z"/>
		<path d="M1886.3,225.6c-4.3,0-8-0.7-11.8-1.9c-3.8-1.2-6.9-3.3-9.7-5.9c-2.8-2.6-5-5.9-6.6-9.9c-1.7-4-2.4-8.7-2.4-14.1v-2.4
			c0-5.2,0.7-9.6,2.4-13.4c1.7-3.8,3.8-7.1,6.4-9.6c2.8-2.6,5.9-4.5,9.5-5.6c3.5-1.2,7.3-1.9,11.3-1.9c9.5,0,16.8,2.6,22,7.5
			c5,5.2,7.6,12.5,7.6,21.9v6.6h-45.9c0,3.3,0.7,5.9,1.7,8.2c0.9,2.1,2.4,4,3.8,5.4c1.7,1.4,3.5,2.4,5.7,3.1
			c2.1,0.7,4.3,0.9,6.4,0.9c4.5,0,7.8-0.7,9.9-2.1s3.5-3.3,4.3-5.4h13c-1.2,6.1-4.3,10.8-9.2,14.1
			C1899.3,224,1893.4,225.6,1886.3,225.6z M1885.6,172c-2.1,0-4.3,0.2-6.4,0.9c-2.1,0.5-3.8,1.4-5.2,2.6c-1.7,1.2-2.8,2.8-3.8,4.7
			c-0.9,1.9-1.4,4.2-1.7,7.1h33.1c0-2.8-0.5-5.4-1.4-7.3c-0.7-1.9-1.9-3.5-3.3-4.7s-3.1-2.1-5-2.6C1890.1,172.3,1888,172,1885.6,172
			z"/>
	</g>
	<polygon points="237.6,145.5 248.9,168 274,171.6 255.8,189 260,213.6 237.6,202.1 215.1,213.6 219.4,189 201.2,171.6 226.5,168 	
		"/>
</g>
</svg>
