<?xml version="1.0" encoding="utf-8"?>
<!-- Generator: Adobe Illustrator 27.0.0, SVG Export Plug-In . SVG Version: 6.00 Build 0)  -->
<svg version="1.1" id="Layer_1" xmlns="http://www.w3.org/2000/svg" xmlns:xlink="http://www.w3.org/1999/xlink" x="0px" y="0px"
	 viewBox="0 0 640 81" style="enable-background:new 0 0 640 81;" xml:space="preserve">
<style type="text/css">
	.st0{fill:#F4F4B0;}
</style>
<g>
	<path class="st0" d="M40.6,0h558.7C621.8,0,640,18.1,640,40.5l0,0c0,22.4-18.2,40.5-40.6,40.5H40.6C18.2,81,0,62.9,0,40.5l0,0
		C-0.1,18.1,18.1,0,40.6,0z"/>
	<g>
		<path d="M35.4,50.3c-1.6,0-3-0.4-4-1c-1-0.7-1.7-1.8-1.9-3.4h3.2c0.2,0.6,0.5,1,1,1.2c0.5,0.3,1.1,0.4,1.8,0.4
			c0.6,0,1.1-0.1,1.6-0.3c0.5-0.2,0.9-0.5,1.3-1c0.4-0.5,0.7-1.1,0.9-1.9c0.2-0.8,0.4-1.8,0.4-3c-0.2,0.4-0.5,0.7-0.9,1
			c-0.4,0.3-0.7,0.5-1.1,0.7c-0.4,0.2-0.9,0.3-1.3,0.4c-0.5,0.1-0.9,0.1-1.3,0.1c-1.9,0-3.3-0.5-4.4-1.5c-1.1-1-1.6-2.5-1.6-4.3
			v-0.3c0-0.9,0.2-1.7,0.5-2.5c0.3-0.8,0.8-1.4,1.4-1.9c0.6-0.6,1.3-1,2-1.3c0.8-0.3,1.6-0.5,2.6-0.5c1.1,0,2.1,0.2,3,0.5
			s1.6,0.9,2.2,1.5c0.6,0.7,1.1,1.6,1.4,2.7c0.3,1.1,0.5,2.4,0.5,3.9v0.5c0,1.8-0.2,3.3-0.6,4.6s-0.9,2.3-1.5,3.1
			c-0.7,0.8-1.4,1.4-2.2,1.7C37.3,50.1,36.4,50.3,35.4,50.3z M35.7,41.1c1.1,0,1.9-0.3,2.6-0.9c0.7-0.6,1-1.4,1-2.4v-0.3
			c0-0.5-0.1-0.9-0.3-1.3c-0.2-0.4-0.4-0.8-0.7-1.1c-0.3-0.3-0.7-0.6-1.1-0.7c-0.4-0.2-0.9-0.3-1.4-0.3c-1.1,0-1.9,0.3-2.6,0.9
			c-0.7,0.6-1,1.4-1,2.4v0.3c0,1,0.3,1.8,1,2.4C33.8,40.8,34.7,41.1,35.7,41.1z"/>
		<path d="M51.6,50.3c-1.1,0-2.1-0.2-3-0.4c-0.9-0.3-1.6-0.6-2.1-1.1c-0.6-0.5-1-1-1.3-1.7c-0.3-0.7-0.5-1.4-0.5-2.1
			c0-1.1,0.3-2,1-2.8c0.7-0.8,1.6-1.4,2.9-1.7c-0.5-0.2-0.9-0.4-1.3-0.6c-0.4-0.3-0.8-0.6-1.1-1c-0.3-0.4-0.6-0.8-0.7-1.2
			c-0.2-0.5-0.3-0.9-0.3-1.5c0-0.7,0.2-1.4,0.4-2c0.3-0.6,0.7-1.1,1.2-1.6c0.6-0.5,1.2-0.8,2-1c0.8-0.3,1.7-0.4,2.7-0.4
			s1.9,0.1,2.7,0.4c0.8,0.3,1.5,0.6,2,1c0.6,0.5,0.9,1,1.2,1.6c0.3,0.6,0.4,1.3,0.4,2c0,1.1-0.3,1.9-1,2.6c-0.6,0.7-1.4,1.3-2.4,1.6
			c1.3,0.4,2.2,1,2.9,1.7c0.7,0.8,1,1.7,1,2.9c0,0.8-0.2,1.5-0.5,2.1c-0.3,0.7-0.8,1.2-1.3,1.7c-0.6,0.5-1.3,0.8-2.1,1.1
			C53.7,50.2,52.7,50.3,51.6,50.3z M51.6,47.5c1.3,0,2.2-0.3,2.8-0.8c0.6-0.5,0.9-1.2,0.9-1.9c0-0.9-0.4-1.6-1.1-2.1
			c-0.7-0.6-1.6-0.9-2.7-1c-1.1,0.2-1.9,0.5-2.7,1c-0.7,0.6-1.1,1.3-1.1,2.1c0,0.8,0.3,1.4,0.9,1.9C49.4,47.3,50.4,47.5,51.6,47.5z
			 M51.6,39.4c0.9-0.2,1.7-0.5,2.3-0.9c0.6-0.5,0.9-1.1,0.9-2c0-0.8-0.3-1.4-0.9-1.8c-0.6-0.4-1.3-0.6-2.3-0.6s-1.7,0.2-2.3,0.6
			c-0.6,0.4-0.9,1-0.9,1.8c0,0.9,0.3,1.6,0.9,2C49.9,38.9,50.7,39.2,51.6,39.4z"/>
		<path d="M64.2,40.3c-0.7,0-1.2-0.1-1.8-0.3s-1-0.5-1.4-0.9c-0.4-0.4-0.7-0.9-0.9-1.4c-0.2-0.6-0.3-1.1-0.3-1.8v-0.3
			c0-0.7,0.1-1.2,0.3-1.8c0.2-0.6,0.5-1,0.9-1.4c0.4-0.4,0.8-0.7,1.4-0.9c0.6-0.2,1.1-0.3,1.8-0.3c0.7,0,1.2,0.1,1.8,0.3
			c0.5,0.2,1,0.5,1.4,0.9c0.4,0.4,0.7,0.9,0.9,1.4c0.2,0.6,0.3,1.1,0.3,1.8v0.3c0,0.7-0.1,1.2-0.3,1.8c-0.2,0.6-0.5,1-0.9,1.4
			c-0.4,0.4-0.9,0.7-1.4,0.9C65.4,40.2,64.8,40.3,64.2,40.3z M75,31.5h3.2L65.5,50h-3.2L75,31.5z M64.2,37.9c0.5,0,0.9-0.2,1.1-0.5
			c0.3-0.3,0.4-0.8,0.4-1.5v-0.3c0-0.7-0.2-1.2-0.4-1.5c-0.3-0.3-0.7-0.5-1.1-0.5s-0.9,0.2-1.1,0.5c-0.3,0.3-0.4,0.8-0.4,1.5v0.3
			c0,0.7,0.2,1.2,0.4,1.5C63.3,37.7,63.7,37.9,64.2,37.9z M76.3,50.3c-0.7,0-1.2-0.1-1.8-0.3s-1-0.5-1.4-0.9
			c-0.4-0.4-0.7-0.9-0.9-1.4c-0.2-0.6-0.3-1.1-0.3-1.8v-0.3c0-0.7,0.1-1.2,0.3-1.8c0.2-0.6,0.5-1,0.9-1.4c0.4-0.4,0.8-0.7,1.4-0.9
			c0.6-0.2,1.1-0.3,1.8-0.3c0.7,0,1.2,0.1,1.8,0.3c0.5,0.2,1,0.5,1.4,0.9c0.4,0.4,0.7,0.9,0.9,1.4c0.2,0.6,0.3,1.1,0.3,1.8v0.3
			c0,0.7-0.1,1.2-0.3,1.8c-0.2,0.6-0.5,1-0.9,1.4c-0.4,0.4-0.9,0.7-1.4,0.9C77.6,50.2,77,50.3,76.3,50.3z M76.3,47.9
			c0.5,0,0.9-0.2,1.1-0.5c0.3-0.3,0.4-0.8,0.4-1.5v-0.3c0-0.7-0.2-1.2-0.4-1.5c-0.3-0.3-0.7-0.5-1.1-0.5s-0.9,0.2-1.1,0.5
			c-0.3,0.3-0.4,0.8-0.4,1.5V46c0,0.7,0.2,1.2,0.4,1.5C75.5,47.7,75.9,47.9,76.3,47.9z"/>
		<path d="M94.1,50.3c-1,0-1.8-0.2-2.7-0.5c-0.8-0.3-1.5-0.7-2.1-1.3c-0.6-0.6-1.1-1.3-1.4-2.2c-0.4-0.9-0.5-1.9-0.5-3.2v-0.5
			c0-1.1,0.2-2.1,0.5-3c0.4-0.9,0.8-1.6,1.4-2.2c0.6-0.6,1.3-1,2.1-1.3c0.8-0.3,1.6-0.5,2.6-0.5c0.9,0,1.7,0.1,2.5,0.4
			c0.7,0.3,1.3,0.6,1.8,1c0.5,0.4,0.9,0.9,1.2,1.5c0.3,0.6,0.5,1.2,0.6,1.9h-3c-0.2-0.7-0.5-1.2-1-1.6c-0.5-0.4-1.2-0.6-2.2-0.6
			c-0.5,0-1,0.1-1.4,0.3c-0.5,0.2-0.8,0.4-1.2,0.8c-0.4,0.4-0.6,0.8-0.8,1.4c-0.2,0.6-0.3,1.2-0.3,2v0.5c0,0.8,0.1,1.5,0.3,2.1
			c0.2,0.6,0.5,1.1,0.8,1.4c0.4,0.4,0.7,0.7,1.2,0.8c0.5,0.2,0.9,0.3,1.4,0.3c1.6,0,2.7-0.8,3.1-2.2h3c-0.2,0.8-0.4,1.4-0.7,2
			c-0.4,0.6-0.8,1.1-1.3,1.5c-0.5,0.4-1.1,0.7-1.8,1C95.6,50.2,94.9,50.3,94.1,50.3z"/>
		<path d="M102.3,31.5h2.9v6.7c0.2-0.3,0.4-0.6,0.6-0.9c0.3-0.3,0.6-0.6,0.9-0.8c0.4-0.2,0.8-0.4,1.2-0.6c0.5-0.2,1-0.2,1.6-0.2
			c1.7,0,3,0.5,3.9,1.4c0.9,0.9,1.3,2.3,1.3,4.1v8.9h-2.9v-8.2c0-1.2-0.3-2.1-0.8-2.6c-0.5-0.6-1.3-0.9-2.5-0.9
			c-0.6,0-1.1,0.1-1.6,0.3c-0.4,0.2-0.8,0.5-1.1,0.8c-0.3,0.3-0.5,0.7-0.6,1.1c-0.2,0.4-0.2,0.9-0.2,1.3v8.2h-2.8V31.5z"/>
		<path d="M123.8,50.3c-0.9,0-1.8-0.2-2.7-0.5c-0.8-0.3-1.6-0.7-2.2-1.3c-0.6-0.6-1.1-1.3-1.5-2.2c-0.4-0.9-0.6-1.9-0.6-3.2v-0.5
			c0-1.2,0.2-2.2,0.5-3.1c0.4-0.9,0.8-1.6,1.4-2.1s1.3-1,2.1-1.3c0.8-0.3,1.6-0.4,2.6-0.4c2.1,0,3.8,0.6,4.9,1.7
			c1.1,1.1,1.7,2.8,1.7,4.9v1.5h-10.3c0,0.7,0.2,1.3,0.4,1.8c0.2,0.5,0.5,0.9,0.9,1.2c0.4,0.3,0.8,0.5,1.2,0.7s1,0.2,1.4,0.2
			c1,0,1.7-0.2,2.2-0.5s0.8-0.7,1-1.2h2.9c-0.3,1.4-1,2.4-2.1,3.2C126.7,50,125.4,50.3,123.8,50.3z M123.7,38.3
			c-0.5,0-1,0.1-1.4,0.2c-0.5,0.1-0.9,0.3-1.2,0.6c-0.4,0.3-0.6,0.6-0.8,1.1c-0.2,0.4-0.3,1-0.4,1.6h7.4c0-0.7-0.1-1.2-0.3-1.6
			c-0.2-0.4-0.5-0.8-0.8-1.1c-0.3-0.3-0.7-0.5-1.1-0.6C124.6,38.3,124.2,38.3,123.7,38.3z"/>
		<path d="M138.2,50.3c-1,0-1.8-0.2-2.7-0.5c-0.8-0.3-1.5-0.7-2.1-1.3c-0.6-0.6-1.1-1.3-1.4-2.2c-0.4-0.9-0.5-1.9-0.5-3.2v-0.5
			c0-1.1,0.2-2.1,0.5-3c0.4-0.9,0.8-1.6,1.4-2.2c0.6-0.6,1.3-1,2.1-1.3c0.8-0.3,1.6-0.5,2.6-0.5s1.7,0.1,2.5,0.4
			c0.7,0.3,1.3,0.6,1.8,1c0.5,0.4,0.9,0.9,1.2,1.5c0.3,0.6,0.5,1.2,0.6,1.9h-3c-0.2-0.7-0.5-1.2-1-1.6c-0.5-0.4-1.2-0.6-2.2-0.6
			c-0.5,0-1,0.1-1.4,0.3c-0.5,0.2-0.8,0.4-1.2,0.8c-0.4,0.4-0.6,0.8-0.8,1.4c-0.2,0.6-0.3,1.2-0.3,2v0.5c0,0.8,0.1,1.5,0.3,2.1
			c0.2,0.6,0.5,1.1,0.8,1.4c0.4,0.4,0.7,0.7,1.2,0.8c0.5,0.2,0.9,0.3,1.4,0.3c1.6,0,2.7-0.8,3.1-2.2h3c-0.2,0.8-0.4,1.4-0.7,2
			c-0.4,0.6-0.8,1.1-1.3,1.5c-0.5,0.4-1.1,0.7-1.8,1C139.8,50.2,139.1,50.3,138.2,50.3z"/>
		<path d="M146.5,31.5h2.9v10.6l5.8-6.1h3.4l-5.7,6l6.2,8h-3.5l-4.7-6.2l-1.7,1.7V50h-2.9L146.5,31.5L146.5,31.5z"/>
		<path d="M166.6,36h2.7v2.4c0.3-0.7,0.8-1.3,1.4-1.9c0.7-0.5,1.4-0.8,2.4-0.8c0.5,0,0.8,0,1,0.1s0.4,0.1,0.5,0.1v2.6
			c-0.3-0.1-0.6-0.2-0.8-0.2s-0.6-0.1-0.9-0.1c-0.6,0-1.1,0.1-1.5,0.3c-0.4,0.2-0.8,0.5-1,0.8c-0.3,0.4-0.5,0.7-0.6,1.1
			c-0.2,0.4-0.2,0.9-0.2,1.3V50h-2.9L166.6,36L166.6,36z"/>
		<path d="M182.1,50.3c-0.9,0-1.8-0.2-2.7-0.5c-0.8-0.3-1.6-0.7-2.2-1.3c-0.6-0.6-1.1-1.3-1.5-2.2c-0.4-0.9-0.6-1.9-0.6-3.2v-0.5
			c0-1.2,0.2-2.2,0.5-3.1s0.8-1.6,1.4-2.1c0.6-0.6,1.3-1,2.1-1.3c0.8-0.3,1.6-0.4,2.6-0.4c2.1,0,3.8,0.6,4.9,1.7
			c1.1,1.1,1.7,2.8,1.7,4.9v1.5h-10.3c0,0.7,0.2,1.3,0.4,1.8s0.5,0.9,0.9,1.2s0.8,0.5,1.2,0.7s1,0.2,1.4,0.2c1,0,1.7-0.2,2.2-0.5
			s0.8-0.7,1-1.2h2.9c-0.3,1.4-1,2.4-2.1,3.2C185,50,183.7,50.3,182.1,50.3z M182,38.3c-0.5,0-1,0.1-1.4,0.2
			c-0.5,0.1-0.9,0.3-1.2,0.6c-0.4,0.3-0.6,0.6-0.8,1.1c-0.2,0.4-0.3,1-0.4,1.6h7.4c0-0.7-0.1-1.2-0.3-1.6c-0.2-0.4-0.5-0.8-0.8-1.1
			c-0.3-0.3-0.7-0.5-1.1-0.6C182.9,38.3,182.5,38.3,182,38.3z"/>
		<path d="M188.8,36h3.2l4.3,10.9l3.9-10.9h3l-5.4,14h-2.9L188.8,36z"/>
		<path d="M206.6,34.4c-0.6,0-1-0.2-1.3-0.5s-0.5-0.8-0.5-1.3s0.2-1,0.5-1.3s0.8-0.5,1.3-0.5c0.6,0,1,0.2,1.3,0.5s0.5,0.8,0.5,1.3
			s-0.2,1-0.5,1.3S207.2,34.4,206.6,34.4z M205.2,36h2.9v14h-2.9V36z"/>
		<path d="M217.5,50.3c-0.9,0-1.8-0.2-2.7-0.5c-0.8-0.3-1.6-0.7-2.2-1.3c-0.6-0.6-1.1-1.3-1.5-2.2c-0.4-0.9-0.6-1.9-0.6-3.2v-0.5
			c0-1.2,0.2-2.2,0.5-3.1s0.8-1.6,1.4-2.1s1.3-1,2.1-1.3c0.8-0.3,1.6-0.4,2.6-0.4c2.1,0,3.8,0.6,4.9,1.7c1.1,1.1,1.7,2.8,1.7,4.9
			v1.5h-10.3c0,0.7,0.2,1.3,0.4,1.8c0.2,0.5,0.5,0.9,0.9,1.2c0.4,0.3,0.8,0.5,1.2,0.7s1,0.2,1.4,0.2c1,0,1.7-0.2,2.2-0.5
			s0.8-0.7,1-1.2h2.9c-0.3,1.4-1,2.4-2.1,3.2C220.4,50,219.1,50.3,217.5,50.3z M217.4,38.3c-0.5,0-1,0.1-1.4,0.2
			c-0.5,0.1-0.9,0.3-1.2,0.6c-0.4,0.3-0.6,0.6-0.8,1.1c-0.2,0.4-0.3,1-0.4,1.6h7.4c0-0.7-0.1-1.2-0.3-1.6c-0.2-0.4-0.5-0.8-0.8-1.1
			c-0.3-0.3-0.7-0.5-1.1-0.6C218.3,38.3,217.8,38.3,217.4,38.3z"/>
		<path d="M224.8,36h3.1l2.6,10.3l3.2-10.3h2.7l3.4,10.3l2.6-10.3h2.9l-3.8,14h-2.9l-3.5-10.3L231.5,50h-2.9L224.8,36z"/>
		<path d="M252.2,50.3c-1,0-1.9-0.1-2.7-0.4c-0.7-0.2-1.3-0.6-1.8-0.9c-0.5-0.4-0.9-0.9-1.1-1.4c-0.3-0.5-0.4-1.1-0.5-1.6h2.9
			c0.1,0.5,0.4,0.9,0.9,1.2c0.5,0.3,1.2,0.5,2.3,0.5c1.2,0,2-0.2,2.5-0.5c0.5-0.3,0.7-0.7,0.7-1.2c0-0.2-0.1-0.5-0.2-0.7
			c-0.1-0.2-0.3-0.4-0.6-0.6c-0.3-0.2-0.7-0.3-1.1-0.5c-0.5-0.2-1-0.3-1.7-0.4c-0.8-0.1-1.5-0.3-2.2-0.5s-1.2-0.5-1.7-0.8
			s-0.8-0.8-1.1-1.2c-0.3-0.5-0.4-1.1-0.4-1.7c0-0.6,0.1-1.1,0.4-1.6s0.6-0.9,1.1-1.3c0.5-0.4,1.1-0.7,1.8-0.9
			c0.7-0.2,1.5-0.3,2.5-0.3c0.9,0,1.7,0.1,2.4,0.4c0.7,0.2,1.2,0.6,1.7,0.9c0.5,0.4,0.8,0.9,1,1.4c0.3,0.5,0.4,1.1,0.5,1.6h-2.9
			c-0.2-0.6-0.4-1-0.9-1.3c-0.4-0.3-1-0.5-1.8-0.5c-1,0-1.8,0.2-2.2,0.5c-0.4,0.3-0.6,0.7-0.6,1.1c0,0.3,0.1,0.5,0.2,0.7
			c0.1,0.2,0.3,0.4,0.5,0.5c0.3,0.2,0.6,0.3,1,0.4c0.4,0.1,1,0.2,1.6,0.3c0.8,0.1,1.6,0.3,2.2,0.5c0.7,0.2,1.3,0.5,1.7,0.8
			c0.5,0.4,0.9,0.8,1.1,1.3s0.4,1.1,0.4,1.7c0,0.6-0.2,1.2-0.4,1.7s-0.6,1-1.1,1.3c-0.5,0.4-1.1,0.7-1.9,0.9
			C254.1,50.2,253.2,50.3,252.2,50.3z"/>
		<path d="M273.8,50.3c-1.2,0-2.1-0.3-3-0.8c-0.8-0.5-1.4-1.1-1.7-1.8V50h-2.7V31.5h2.9v6.7c0.5-0.7,1-1.3,1.8-1.8
			c0.8-0.5,1.7-0.7,2.8-0.7c1.8,0,3.3,0.6,4.3,1.7c1.1,1.1,1.6,2.9,1.6,5.2v0.5c0,1.2-0.2,2.2-0.4,3.2c-0.3,0.9-0.7,1.6-1.2,2.2
			c-0.5,0.6-1.1,1-1.9,1.3C275.4,50.2,274.6,50.3,273.8,50.3z M273,47.8c1.1,0,1.9-0.4,2.6-1.1c0.7-0.8,1-1.9,1-3.5v-0.5
			c0-1.5-0.3-2.6-1-3.3c-0.7-0.7-1.5-1.1-2.7-1.1c-0.5,0-1,0.1-1.5,0.3s-0.9,0.4-1.2,0.7c-0.4,0.3-0.7,0.7-0.9,1.2s-0.3,1-0.3,1.6
			v1.8c0,0.7,0.1,1.3,0.3,1.7c0.2,0.5,0.5,0.9,0.9,1.2c0.4,0.4,0.8,0.6,1.2,0.8C272,47.7,272.5,47.8,273,47.8z"/>
		<path d="M288,50.3c-0.9,0-1.8-0.2-2.7-0.5c-0.8-0.3-1.6-0.7-2.2-1.3c-0.6-0.6-1.1-1.3-1.5-2.2c-0.4-0.9-0.6-1.9-0.6-3.2v-0.5
			c0-1.2,0.2-2.2,0.5-3.1c0.4-0.9,0.8-1.6,1.4-2.1s1.3-1,2.1-1.3c0.8-0.3,1.6-0.4,2.6-0.4c2.1,0,3.8,0.6,4.9,1.7
			c1.1,1.1,1.7,2.8,1.7,4.9v1.5H284c0,0.7,0.2,1.3,0.4,1.8s0.5,0.9,0.9,1.2c0.4,0.3,0.8,0.5,1.2,0.7s1,0.2,1.4,0.2
			c1,0,1.7-0.2,2.2-0.5c0.5-0.3,0.8-0.7,1-1.2h2.9c-0.3,1.4-1,2.4-2.1,3.2C290.9,50,289.6,50.3,288,50.3z M287.9,38.3
			c-0.5,0-1,0.1-1.4,0.2c-0.5,0.1-0.9,0.3-1.2,0.6c-0.3,0.3-0.6,0.6-0.8,1.1c-0.2,0.4-0.3,1-0.4,1.6h7.4c0-0.7-0.1-1.2-0.3-1.6
			c-0.2-0.5-0.5-0.8-0.8-1.1c-0.3-0.3-0.7-0.5-1.1-0.6C288.8,38.3,288.4,38.3,287.9,38.3z"/>
		<path d="M297.1,38.5h-1.8V36h1.8v-0.4c0-1.4,0.4-2.4,1.1-3.2c0.7-0.7,1.9-1.1,3.6-1.1c0.5,0,1.2,0.1,2,0.1V34
			c-0.3-0.1-0.6-0.1-0.9-0.1s-0.6,0-0.9,0c-0.8,0-1.3,0.2-1.5,0.4c-0.3,0.3-0.5,0.8-0.5,1.4V36h3.4v2.5H300V50h-2.9V38.5z"/>
		<path d="M311.2,50.3c-1,0-1.9-0.2-2.7-0.5c-0.8-0.3-1.6-0.8-2.2-1.4c-0.6-0.6-1.1-1.3-1.5-2.2c-0.4-0.9-0.5-1.9-0.5-3.1v-0.5
			c0-1.1,0.2-2.1,0.5-3c0.4-0.9,0.8-1.6,1.5-2.2c0.6-0.6,1.3-1,2.2-1.3c0.8-0.3,1.7-0.5,2.7-0.5c1,0,1.9,0.2,2.7,0.5
			c0.8,0.3,1.6,0.8,2.2,1.3c0.6,0.6,1.1,1.3,1.5,2.2s0.5,1.8,0.5,3v0.5c0,1.2-0.2,2.2-0.5,3.1c-0.4,0.9-0.8,1.6-1.5,2.2
			c-0.7,0.6-1.3,1.1-2.2,1.4C313.1,50.2,312.2,50.3,311.2,50.3z M311.2,47.8c0.5,0,1-0.1,1.5-0.3s0.9-0.5,1.2-0.8
			c0.4-0.4,0.7-0.9,0.9-1.4c0.2-0.6,0.3-1.3,0.3-2.1v-0.5c0-0.8-0.1-1.4-0.3-1.9c-0.2-0.6-0.5-1-0.9-1.3c-0.4-0.4-0.8-0.6-1.2-0.8
			c-0.5-0.2-1-0.3-1.5-0.3s-1,0.1-1.5,0.3s-0.9,0.5-1.2,0.8s-0.7,0.8-0.9,1.3c-0.2,0.6-0.3,1.2-0.3,1.9v0.5c0,0.8,0.1,1.5,0.3,2.1
			c0.2,0.6,0.5,1.1,0.9,1.4s0.8,0.7,1.2,0.8C310.2,47.7,310.7,47.8,311.2,47.8z"/>
		<path d="M320.3,36h2.7v2.4c0.3-0.7,0.8-1.3,1.4-1.9c0.7-0.5,1.4-0.8,2.4-0.8c0.5,0,0.8,0,1,0.1s0.4,0.1,0.5,0.1v2.6
			c-0.3-0.1-0.6-0.2-0.8-0.2s-0.6-0.1-0.9-0.1c-0.6,0-1.1,0.1-1.5,0.3c-0.4,0.2-0.8,0.5-1,0.8c-0.3,0.4-0.5,0.7-0.6,1.1
			c-0.2,0.4-0.2,0.9-0.2,1.3V50h-2.9L320.3,36L320.3,36z"/>
		<path d="M335.8,50.3c-0.9,0-1.8-0.2-2.7-0.5c-0.8-0.3-1.6-0.7-2.2-1.3c-0.6-0.6-1.1-1.3-1.5-2.2c-0.4-0.9-0.6-1.9-0.6-3.2v-0.5
			c0-1.2,0.2-2.2,0.5-3.1c0.4-0.9,0.8-1.6,1.4-2.1c0.6-0.6,1.3-1,2.1-1.3c0.8-0.3,1.6-0.4,2.6-0.4c2.1,0,3.8,0.6,4.9,1.7
			c1.1,1.1,1.7,2.8,1.7,4.9v1.5h-10.3c0,0.7,0.2,1.3,0.4,1.8s0.5,0.9,0.9,1.2c0.4,0.3,0.8,0.5,1.2,0.7s1,0.2,1.4,0.2
			c1,0,1.7-0.2,2.2-0.5c0.5-0.3,0.8-0.7,1-1.2h2.9c-0.3,1.4-1,2.4-2.1,3.2C338.7,50,337.4,50.3,335.8,50.3z M335.7,38.3
			c-0.5,0-1,0.1-1.4,0.2c-0.5,0.1-0.9,0.3-1.2,0.6c-0.3,0.3-0.6,0.6-0.8,1.1c-0.2,0.4-0.3,1-0.4,1.6h7.4c0-0.7-0.1-1.2-0.3-1.6
			c-0.2-0.5-0.5-0.8-0.8-1.1c-0.3-0.3-0.7-0.5-1.1-0.6C336.7,38.3,336.2,38.3,335.7,38.3z"/>
		<path d="M356,50.3c-1,0-1.8-0.2-2.7-0.5c-0.8-0.3-1.5-0.7-2.1-1.3c-0.6-0.6-1.1-1.3-1.4-2.2c-0.3-0.9-0.5-1.9-0.5-3.2v-0.5
			c0-1.1,0.2-2.1,0.5-3c0.4-0.9,0.8-1.6,1.4-2.2c0.6-0.6,1.3-1,2.1-1.3c0.8-0.3,1.6-0.5,2.6-0.5s1.7,0.1,2.5,0.4
			c0.7,0.3,1.3,0.6,1.8,1c0.5,0.4,0.9,0.9,1.2,1.5c0.3,0.6,0.5,1.2,0.6,1.9h-3c-0.2-0.7-0.5-1.2-1-1.6c-0.5-0.4-1.2-0.6-2.2-0.6
			c-0.5,0-1,0.1-1.4,0.3c-0.5,0.2-0.8,0.4-1.2,0.8c-0.4,0.4-0.6,0.8-0.8,1.4c-0.2,0.6-0.3,1.2-0.3,2v0.5c0,0.8,0.1,1.5,0.3,2.1
			c0.2,0.6,0.5,1.1,0.8,1.4c0.4,0.4,0.7,0.7,1.2,0.8c0.5,0.2,0.9,0.3,1.4,0.3c1.6,0,2.7-0.8,3.1-2.2h3c-0.2,0.8-0.4,1.4-0.7,2
			c-0.4,0.6-0.8,1.1-1.3,1.5c-0.5,0.4-1.1,0.7-1.8,1C357.5,50.2,356.8,50.3,356,50.3z"/>
		<path d="M364.2,31.5h2.9v6.7c0.2-0.3,0.4-0.6,0.6-0.9c0.3-0.3,0.6-0.6,0.9-0.8c0.4-0.2,0.8-0.4,1.2-0.6c0.5-0.2,1-0.2,1.6-0.2
			c1.7,0,3,0.5,3.9,1.4c0.9,0.9,1.3,2.3,1.3,4.1v8.9h-2.9v-8.2c0-1.2-0.3-2.1-0.8-2.6c-0.5-0.6-1.3-0.9-2.5-0.9
			c-0.6,0-1.1,0.1-1.6,0.3c-0.4,0.2-0.8,0.5-1.1,0.8c-0.3,0.3-0.5,0.7-0.6,1.1c-0.2,0.4-0.2,0.9-0.2,1.3v8.2h-2.9V31.5H364.2z"/>
		<path d="M385.7,50.3c-1,0-1.9-0.2-2.7-0.5c-0.8-0.3-1.6-0.8-2.2-1.4c-0.6-0.6-1.1-1.3-1.5-2.2c-0.4-0.9-0.5-1.9-0.5-3.1v-0.5
			c0-1.1,0.2-2.1,0.5-3c0.4-0.9,0.8-1.6,1.5-2.2c0.6-0.6,1.3-1,2.2-1.3c0.8-0.3,1.7-0.5,2.7-0.5c1,0,1.9,0.2,2.7,0.5
			c0.8,0.3,1.6,0.8,2.2,1.3c0.6,0.6,1.1,1.3,1.5,2.2c0.4,0.9,0.5,1.8,0.5,3v0.5c0,1.2-0.2,2.2-0.5,3.1c-0.4,0.9-0.8,1.6-1.5,2.2
			c-0.7,0.6-1.3,1.1-2.2,1.4C387.6,50.2,386.6,50.3,385.7,50.3z M385.7,47.8c0.5,0,1-0.1,1.5-0.3s0.9-0.5,1.2-0.8
			c0.4-0.4,0.7-0.9,0.9-1.4c0.2-0.6,0.3-1.3,0.3-2.1v-0.5c0-0.8-0.1-1.4-0.3-1.9c-0.2-0.6-0.5-1-0.9-1.3c-0.4-0.4-0.8-0.6-1.2-0.8
			c-0.5-0.2-1-0.3-1.5-0.3c-0.5,0-1,0.1-1.5,0.3s-0.9,0.5-1.2,0.8c-0.4,0.4-0.7,0.8-0.9,1.3c-0.2,0.6-0.3,1.2-0.3,1.9v0.5
			c0,0.8,0.1,1.5,0.3,2.1c0.2,0.6,0.5,1.1,0.9,1.4c0.4,0.4,0.8,0.7,1.2,0.8C384.7,47.7,385.2,47.8,385.7,47.8z"/>
		<path d="M400.9,50.3c-1,0-1.9-0.2-2.7-0.5c-0.8-0.3-1.6-0.8-2.2-1.4c-0.6-0.6-1.1-1.3-1.5-2.2c-0.4-0.9-0.5-1.9-0.5-3.1v-0.5
			c0-1.1,0.2-2.1,0.5-3c0.4-0.9,0.8-1.6,1.5-2.2c0.6-0.6,1.3-1,2.2-1.3c0.8-0.3,1.7-0.5,2.7-0.5c1,0,1.9,0.2,2.7,0.5
			c0.8,0.3,1.6,0.8,2.2,1.3c0.6,0.6,1.1,1.3,1.5,2.2c0.4,0.9,0.5,1.8,0.5,3v0.5c0,1.2-0.2,2.2-0.5,3.1c-0.4,0.9-0.8,1.6-1.5,2.2
			c-0.7,0.6-1.3,1.1-2.2,1.4C402.8,50.2,401.9,50.3,400.9,50.3z M400.9,47.8c0.5,0,1-0.1,1.5-0.3s0.9-0.5,1.2-0.8
			c0.4-0.4,0.7-0.9,0.9-1.4c0.2-0.6,0.3-1.3,0.3-2.1v-0.5c0-0.8-0.1-1.4-0.3-1.9c-0.2-0.6-0.5-1-0.9-1.3c-0.4-0.4-0.8-0.6-1.2-0.8
			c-0.5-0.2-1-0.3-1.5-0.3c-0.5,0-1,0.1-1.5,0.3s-0.9,0.5-1.2,0.8c-0.4,0.4-0.7,0.8-0.9,1.3c-0.2,0.6-0.3,1.2-0.3,1.9v0.5
			c0,0.8,0.1,1.5,0.3,2.1c0.2,0.6,0.5,1.1,0.9,1.4c0.4,0.4,0.8,0.7,1.2,0.8C399.9,47.7,400.4,47.8,400.9,47.8z"/>
		<path d="M415.4,50.3c-1,0-1.9-0.1-2.7-0.4c-0.7-0.2-1.3-0.6-1.8-0.9c-0.5-0.4-0.9-0.9-1.1-1.4s-0.4-1.1-0.5-1.6h2.9
			c0.1,0.5,0.4,0.9,0.9,1.2c0.5,0.3,1.2,0.5,2.3,0.5c1.2,0,2-0.2,2.5-0.5c0.5-0.3,0.7-0.7,0.7-1.2c0-0.2-0.1-0.5-0.2-0.7
			c-0.1-0.2-0.3-0.4-0.6-0.6c-0.3-0.2-0.7-0.3-1.1-0.5s-1-0.3-1.7-0.4c-0.8-0.1-1.5-0.3-2.2-0.5c-0.7-0.2-1.2-0.5-1.7-0.8
			c-0.5-0.4-0.8-0.8-1.1-1.2c-0.3-0.5-0.4-1.1-0.4-1.7c0-0.6,0.1-1.1,0.4-1.6s0.6-0.9,1.1-1.3c0.5-0.4,1.1-0.7,1.8-0.9
			c0.7-0.2,1.5-0.3,2.5-0.3c0.9,0,1.7,0.1,2.4,0.4c0.7,0.2,1.2,0.6,1.7,0.9c0.5,0.4,0.8,0.9,1,1.4c0.3,0.5,0.4,1.1,0.5,1.6h-2.9
			c-0.2-0.6-0.4-1-0.9-1.3c-0.4-0.3-1-0.5-1.8-0.5c-1,0-1.8,0.2-2.2,0.5s-0.6,0.7-0.6,1.1c0,0.3,0.1,0.5,0.2,0.7
			c0.1,0.2,0.3,0.4,0.5,0.5c0.3,0.2,0.6,0.3,1,0.4c0.4,0.1,1,0.2,1.6,0.3c0.8,0.1,1.6,0.3,2.2,0.5c0.7,0.2,1.3,0.5,1.7,0.8
			c0.5,0.4,0.9,0.8,1.1,1.3s0.4,1.1,0.4,1.7c0,0.6-0.2,1.2-0.4,1.7s-0.6,1-1.1,1.3c-0.5,0.4-1.1,0.7-1.9,0.9
			C417.3,50.2,416.4,50.3,415.4,50.3z"/>
		<path d="M425.4,34.4c-0.6,0-1-0.2-1.3-0.5s-0.5-0.8-0.5-1.3s0.2-1,0.5-1.3c0.4-0.4,0.8-0.5,1.3-0.5c0.6,0,1,0.2,1.3,0.5
			c0.4,0.4,0.5,0.8,0.5,1.3s-0.2,1-0.5,1.3C426.4,34.3,426,34.4,425.4,34.4z M424,36h2.9v14H424V36z"/>
		<path d="M430.2,36h2.7v2.3c0.4-0.7,0.9-1.3,1.6-1.8c0.8-0.5,1.7-0.8,3-0.8c1.7,0,3,0.5,3.9,1.4c0.9,0.9,1.3,2.3,1.3,4.1V50h-2.9
			v-8.2c0-1.2-0.3-2.1-0.8-2.6c-0.5-0.6-1.3-0.9-2.5-0.9c-0.6,0-1.1,0.1-1.6,0.3c-0.4,0.2-0.8,0.5-1.1,0.8c-0.3,0.3-0.5,0.7-0.6,1.1
			c-0.2,0.4-0.2,0.9-0.2,1.3V50h-2.9L430.2,36L430.2,36z"/>
		<path d="M451.4,55.6c-1.1,0-2-0.1-2.8-0.3c-0.8-0.2-1.3-0.5-1.8-0.9c-0.5-0.4-0.8-0.8-1.1-1.3c-0.2-0.5-0.4-1.1-0.5-1.6h3
			c0.1,0.2,0.2,0.4,0.3,0.6c0.2,0.2,0.3,0.4,0.6,0.6c0.3,0.2,0.6,0.3,0.9,0.4s0.8,0.2,1.3,0.2c1.3,0,2.3-0.3,2.9-1
			c0.6-0.6,0.9-1.5,0.9-2.7v-2c-0.5,0.8-1,1.3-1.8,1.8c-0.8,0.5-1.7,0.7-2.7,0.7c-0.9,0-1.7-0.2-2.5-0.5c-0.7-0.3-1.3-0.8-1.9-1.3
			c-0.6-0.6-0.9-1.3-1.2-2.2c-0.3-0.9-0.4-1.9-0.4-3.1v-0.5c0-1.1,0.2-2,0.4-2.9s0.7-1.5,1.2-2.1c0.5-0.6,1.1-1,1.9-1.3
			c0.7-0.3,1.5-0.5,2.4-0.5c1.2,0,2.1,0.3,3,0.8c0.8,0.5,1.4,1.1,1.7,1.8V36h2.7v13.3c0,2-0.6,3.5-1.7,4.6
			C455.3,55.1,453.7,55.6,451.4,55.6z M451.4,47.5c0.5,0,1-0.1,1.5-0.3s0.9-0.4,1.2-0.7c0.4-0.3,0.6-0.7,0.9-1.2
			c0.2-0.5,0.3-1,0.3-1.7v-1.8c0-0.6-0.1-1.1-0.3-1.5c-0.2-0.5-0.5-0.8-0.9-1.1c-0.4-0.3-0.8-0.5-1.2-0.7s-1-0.3-1.4-0.3
			c-1.1,0-2,0.4-2.7,1c-0.7,0.7-1,1.7-1,3.2v0.5c0,1.5,0.4,2.6,1,3.4C449.4,47.1,450.3,47.5,451.4,47.5z"/>
		<path d="M471,50.3c-0.8,0-1.4-0.1-2-0.3c-0.6-0.2-1.1-0.5-1.5-0.9c-0.4-0.4-0.7-0.9-0.9-1.4c-0.2-0.5-0.3-1.1-0.3-1.7
			c0-1.4,0.4-2.4,1.2-3.1c0.8-0.7,2-1,3.7-1h4.4v-0.8c0-1.1-0.3-1.8-0.7-2.2c-0.5-0.4-1.2-0.6-2.2-0.6c-0.9,0-1.6,0.2-2,0.4
			c-0.4,0.3-0.7,0.7-0.8,1.2h-2.8c0.1-0.6,0.2-1.2,0.5-1.6c0.3-0.5,0.7-0.9,1.1-1.3c0.5-0.4,1.1-0.7,1.7-0.9
			c0.7-0.2,1.5-0.3,2.4-0.3c0.9,0,1.6,0.1,2.4,0.3c0.7,0.2,1.3,0.5,1.8,0.9c0.5,0.4,0.9,1,1.2,1.6c0.3,0.7,0.4,1.4,0.4,2.3v5.6
			c0,0.8,0,1.4,0.1,1.9c0,0.6,0.1,1.1,0.2,1.6h-2.7c-0.1-0.4-0.1-0.8-0.1-1c-0.1-0.3-0.1-0.6-0.1-1.1c-0.4,0.7-0.9,1.2-1.7,1.7
			C473.3,50.1,472.2,50.3,471,50.3z M471.8,47.8c0.5,0,1-0.1,1.4-0.2c0.5-0.2,0.9-0.3,1.2-0.6c0.4-0.3,0.6-0.6,0.8-1
			c0.2-0.4,0.3-0.8,0.3-1.3V44h-3.8c-0.8,0-1.3,0.2-1.8,0.5s-0.7,0.8-0.7,1.4c0,0.6,0.2,1.1,0.6,1.4
			C470.3,47.6,470.9,47.8,471.8,47.8z"/>
		<path d="M487,36h2.7v2.4c0.3-0.7,0.8-1.3,1.4-1.9c0.7-0.5,1.4-0.8,2.4-0.8c0.5,0,0.8,0,1,0.1s0.4,0.1,0.5,0.1v2.6
			c-0.3-0.1-0.6-0.2-0.8-0.2s-0.6-0.1-0.9-0.1c-0.6,0-1.1,0.1-1.5,0.3c-0.4,0.2-0.8,0.5-1,0.8c-0.3,0.4-0.5,0.7-0.6,1.1
			c-0.2,0.4-0.2,0.9-0.2,1.3V50H487L487,36L487,36z"/>
		<path d="M502.6,50.3c-0.9,0-1.8-0.2-2.7-0.5c-0.8-0.3-1.6-0.7-2.2-1.3c-0.6-0.6-1.1-1.3-1.5-2.2c-0.4-0.9-0.6-1.9-0.6-3.2v-0.5
			c0-1.2,0.2-2.2,0.5-3.1s0.8-1.6,1.4-2.1c0.6-0.6,1.3-1,2.1-1.3c0.8-0.3,1.6-0.4,2.6-0.4c2.1,0,3.8,0.6,4.9,1.7
			c1.1,1.1,1.7,2.8,1.7,4.9v1.5h-10.3c0,0.7,0.2,1.3,0.4,1.8s0.5,0.9,0.9,1.2s0.8,0.5,1.2,0.7s1,0.2,1.4,0.2c1,0,1.7-0.2,2.2-0.5
			c0.5-0.3,0.8-0.7,1-1.2h2.9c-0.3,1.4-1,2.4-2.1,3.2C505.5,50,504.1,50.3,502.6,50.3z M502.4,38.3c-0.5,0-1,0.1-1.4,0.2
			c-0.5,0.1-0.9,0.3-1.2,0.6s-0.6,0.6-0.8,1.1c-0.2,0.4-0.3,1-0.4,1.6h7.4c0-0.7-0.1-1.2-0.3-1.6c-0.2-0.5-0.5-0.8-0.8-1.1
			c-0.3-0.3-0.7-0.5-1.1-0.6C503.4,38.3,502.9,38.3,502.4,38.3z"/>
		<path d="M516.5,50.3c-1,0-1.9-0.1-2.7-0.4c-0.7-0.2-1.3-0.6-1.8-0.9c-0.5-0.4-0.9-0.9-1.1-1.4s-0.4-1.1-0.5-1.6h2.9
			c0.1,0.5,0.4,0.9,0.9,1.2s1.2,0.5,2.3,0.5c1.2,0,2-0.2,2.5-0.5c0.5-0.3,0.7-0.7,0.7-1.2c0-0.2-0.1-0.5-0.2-0.7
			c-0.1-0.2-0.3-0.4-0.6-0.6c-0.3-0.2-0.7-0.3-1.1-0.5c-0.5-0.2-1-0.3-1.7-0.4c-0.8-0.1-1.5-0.3-2.2-0.5c-0.7-0.2-1.2-0.5-1.7-0.8
			c-0.5-0.4-0.8-0.8-1.1-1.2c-0.3-0.5-0.4-1.1-0.4-1.7c0-0.6,0.1-1.1,0.4-1.6s0.6-0.9,1.1-1.3c0.5-0.4,1.1-0.7,1.8-0.9
			c0.7-0.2,1.5-0.3,2.5-0.3c0.9,0,1.7,0.1,2.4,0.4c0.7,0.2,1.2,0.6,1.7,0.9c0.5,0.4,0.8,0.9,1,1.4c0.3,0.5,0.4,1.1,0.5,1.6H519
			c-0.2-0.6-0.4-1-0.9-1.3c-0.4-0.3-1-0.5-1.8-0.5c-1,0-1.8,0.2-2.2,0.5s-0.6,0.7-0.6,1.1c0,0.3,0.1,0.5,0.2,0.7
			c0.1,0.2,0.3,0.4,0.5,0.5c0.3,0.2,0.6,0.3,1,0.4c0.4,0.1,1,0.2,1.6,0.3c0.8,0.1,1.6,0.3,2.2,0.5c0.7,0.2,1.3,0.5,1.7,0.8
			c0.5,0.4,0.9,0.8,1.1,1.3s0.4,1.1,0.4,1.7c0,0.6-0.2,1.2-0.4,1.7s-0.6,1-1.1,1.3c-0.5,0.4-1.1,0.7-1.9,0.9
			C518.4,50.2,517.5,50.3,516.5,50.3z"/>
		<path d="M530.2,50.2c-1.6,0-2.8-0.4-3.5-1c-0.7-0.7-1-1.8-1-3.3v-7.3h-2V36h2v-3.2h2.9V36h3.6v2.5h-3.6v6.9c0,0.8,0.2,1.4,0.5,1.7
			c0.3,0.3,0.9,0.5,1.8,0.5c0.5,0,1.1-0.1,1.6-0.1V50c-0.4,0.1-0.7,0.1-1,0.1C531.1,50.1,530.7,50.2,530.2,50.2z"/>
		<path d="M538.9,50.3c-0.8,0-1.4-0.1-2-0.3c-0.6-0.2-1.1-0.5-1.5-0.9c-0.4-0.4-0.7-0.9-0.9-1.4c-0.2-0.5-0.3-1.1-0.3-1.7
			c0-1.4,0.4-2.4,1.2-3.1c0.8-0.7,2-1,3.7-1h4.4v-0.8c0-1.1-0.3-1.8-0.7-2.2c-0.5-0.4-1.2-0.6-2.2-0.6c-0.9,0-1.6,0.2-2,0.4
			c-0.4,0.3-0.7,0.7-0.8,1.2h-2.8c0.1-0.6,0.2-1.2,0.5-1.6c0.3-0.5,0.7-0.9,1.1-1.3c0.5-0.4,1.1-0.7,1.7-0.9
			c0.7-0.2,1.5-0.3,2.4-0.3c0.9,0,1.6,0.1,2.4,0.3c0.7,0.2,1.3,0.5,1.8,0.9c0.5,0.4,0.9,1,1.2,1.6c0.3,0.7,0.4,1.4,0.4,2.3v5.6
			c0,0.8,0,1.4,0.1,1.9c0,0.6,0.1,1.1,0.2,1.6h-2.7c-0.1-0.4-0.1-0.8-0.1-1c-0.1-0.3-0.1-0.6-0.1-1.1c-0.4,0.7-0.9,1.2-1.7,1.7
			S540.1,50.3,538.9,50.3z M539.7,47.8c0.5,0,1-0.1,1.4-0.2c0.5-0.2,0.9-0.3,1.2-0.6c0.4-0.3,0.6-0.6,0.8-1c0.2-0.4,0.3-0.8,0.3-1.3
			V44h-3.8c-0.8,0-1.3,0.2-1.8,0.5c-0.5,0.3-0.7,0.8-0.7,1.4c0,0.6,0.2,1.1,0.6,1.4C538.1,47.6,538.8,47.8,539.7,47.8z"/>
		<path d="M554.1,50.3c-1.6,0-2.9-0.5-3.8-1.4c-0.9-1-1.3-2.4-1.3-4.4V36h2.9v8.2c0,1.2,0.3,2.1,0.7,2.6c0.5,0.6,1.3,0.9,2.3,0.9
			c0.6,0,1.1-0.1,1.5-0.3s0.8-0.5,1-0.8s0.5-0.7,0.6-1.2c0.2-0.4,0.2-0.9,0.2-1.3V36h2.9v14h-2.7v-2.4c-0.4,0.7-0.9,1.3-1.6,1.9
			C556.2,50.1,555.2,50.3,554.1,50.3z"/>
		<path d="M564.3,36h2.7v2.4c0.3-0.7,0.8-1.3,1.4-1.9c0.7-0.5,1.4-0.8,2.4-0.8c0.5,0,0.8,0,1,0.1c0.2,0.1,0.4,0.1,0.5,0.1v2.6
			c-0.3-0.1-0.6-0.2-0.8-0.2s-0.6-0.1-0.9-0.1c-0.6,0-1.1,0.1-1.5,0.3c-0.4,0.2-0.8,0.5-1,0.8c-0.3,0.4-0.5,0.7-0.6,1.1
			c-0.2,0.4-0.2,0.9-0.2,1.3V50h-2.9L564.3,36L564.3,36z"/>
		<path d="M577.6,50.3c-0.8,0-1.4-0.1-2-0.3c-0.6-0.2-1.1-0.5-1.5-0.9c-0.4-0.4-0.7-0.9-0.9-1.4c-0.2-0.5-0.3-1.1-0.3-1.7
			c0-1.4,0.4-2.4,1.2-3.1c0.8-0.7,2-1,3.7-1h4.4v-0.8c0-1.1-0.3-1.8-0.7-2.2c-0.5-0.4-1.2-0.6-2.2-0.6c-0.9,0-1.6,0.2-2,0.4
			c-0.4,0.3-0.7,0.7-0.8,1.2h-2.8c0.1-0.6,0.2-1.2,0.5-1.6c0.3-0.5,0.7-0.9,1.1-1.3c0.5-0.4,1.1-0.7,1.7-0.9
			c0.7-0.2,1.5-0.3,2.4-0.3s1.6,0.1,2.4,0.3c0.7,0.2,1.3,0.5,1.8,0.9c0.5,0.4,0.9,1,1.2,1.6c0.3,0.7,0.4,1.4,0.4,2.3v5.6
			c0,0.8,0,1.4,0.1,1.9c0,0.6,0.1,1.1,0.2,1.6h-2.7c-0.1-0.4-0.1-0.8-0.1-1c-0.1-0.3-0.1-0.6-0.1-1.1c-0.4,0.7-0.9,1.2-1.7,1.7
			C579.9,50.1,578.8,50.3,577.6,50.3z M578.3,47.8c0.5,0,1-0.1,1.4-0.2c0.5-0.2,0.9-0.3,1.2-0.6c0.4-0.3,0.6-0.6,0.8-1
			c0.2-0.4,0.3-0.8,0.3-1.3V44h-3.8c-0.8,0-1.3,0.2-1.8,0.5c-0.5,0.3-0.7,0.8-0.7,1.4c0,0.6,0.2,1.1,0.6,1.4
			C576.8,47.6,577.5,47.8,578.3,47.8z"/>
		<path d="M587.9,36h2.7v2.3c0.4-0.7,0.9-1.3,1.6-1.8s1.7-0.8,3-0.8c1.7,0,3,0.5,3.9,1.4s1.3,2.3,1.3,4.1V50h-2.9v-8.2
			c0-1.2-0.3-2.1-0.8-2.6c-0.5-0.6-1.3-0.9-2.5-0.9c-0.6,0-1.1,0.1-1.6,0.3c-0.4,0.2-0.8,0.5-1.1,0.8c-0.3,0.3-0.5,0.7-0.6,1.1
			c-0.2,0.4-0.2,0.9-0.2,1.3V50h-2.9L587.9,36L587.9,36z"/>
		<path d="M608.7,50.2c-1.6,0-2.8-0.4-3.5-1c-0.7-0.7-1-1.8-1-3.3v-7.3h-2V36h2v-3.2h2.9V36h3.6v2.5h-3.6v6.9c0,0.8,0.2,1.4,0.5,1.7
			c0.3,0.3,0.9,0.5,1.8,0.5c0.5,0,1.1-0.1,1.6-0.1V50c-0.4,0.1-0.7,0.1-1,0.1C609.6,50.1,609.2,50.2,608.7,50.2z"/>
	</g>
</g>
</svg>
