<?xml version="1.0" encoding="utf-8"?>
<!-- Generator: Adobe Illustrator 27.0.0, SVG Export Plug-In . SVG Version: 6.00 Build 0)  -->
<svg version="1.1" id="Layer_1" xmlns="http://www.w3.org/2000/svg" xmlns:xlink="http://www.w3.org/1999/xlink" x="0px" y="0px"
	 viewBox="0 0 1200 152" style="enable-background:new 0 0 1200 152;" xml:space="preserve">
<style type="text/css">
	.st0{fill:#F4F4B0;}
</style>
<g>
	<path class="st0" d="M76.2,0h1047.6c42.1,0,76.2,34.1,76.2,76l0,0c0,41.9-34.1,76-76.2,76H76.2C34.1,152,0,117.9,0,76l0,0
		C-0.1,34.1,34,0,76.2,0z"/>
	<g>
		<path d="M66.3,94.4c-3.1,0-5.6-0.7-7.4-1.9c-1.9-1.3-3.1-3.4-3.7-6.3h5.9c0.3,1,1,1.8,1.8,2.3c0.8,0.6,2,0.7,3.3,0.7
			c1,0,2-0.2,3-0.4c1-0.3,1.8-1,2.4-1.8c0.7-0.9,1.2-2,1.8-3.6c0.3-1.4,0.7-3.3,0.7-5.5c-0.3,0.8-1,1.3-1.7,1.8
			c-0.7,0.4-1.3,1-2.1,1.2c-0.8,0.3-1.7,0.6-2.4,0.7c-0.9,0.2-1.7,0.2-2.4,0.2c-3.6,0-6.2-1-8.2-2.9c-2-1.9-3-4.7-3-8.1v-0.4
			c0-1.8,0.3-3.2,1-4.7c0.6-1.4,1.4-2.7,2.6-3.7c1-1,2.4-1.8,3.9-2.4c1.6-0.6,3.1-0.9,4.8-0.9c2.1,0,3.9,0.3,5.6,1
			c1.7,0.7,3,1.7,4.1,2.9c1.1,1.3,2,3,2.6,5.1c0.6,2,0.9,4.4,0.9,7.2v1c0,3.3-0.3,6.2-1,8.7c-0.7,2.4-1.7,4.3-2.9,5.8
			c-1.2,1.6-2.6,2.6-4.2,3.2C70,94.1,68.2,94.4,66.3,94.4z M67,77c2,0,3.6-0.6,4.8-1.8c1.2-1.1,1.8-2.7,1.8-4.4v-0.4
			c0-0.9-0.2-1.8-0.4-2.4c-0.3-0.8-0.8-1.4-1.3-2c-0.6-0.6-1.2-1-2.1-1.3c-0.8-0.3-1.8-0.4-2.7-0.4c-2,0-3.6,0.6-4.8,1.8
			c-1.2,1.1-1.8,2.7-1.8,4.5v0.4c0,1.8,0.6,3.3,1.8,4.4C63.4,76.4,65,77,67,77z"/>
		<path d="M96.7,94.4c-2.1,0-3.9-0.3-5.6-0.8c-1.7-0.4-3-1.1-4-2c-1-0.9-1.9-1.9-2.4-3.1c-0.6-1.2-0.9-2.6-0.9-4
			c0-2,0.6-3.8,1.8-5.2s3.1-2.7,5.4-3.2c-0.9-0.3-1.8-0.7-2.4-1.1c-0.8-0.4-1.4-1-2-1.8c-0.6-0.7-1-1.4-1.3-2.3
			c-0.3-0.9-0.4-1.8-0.4-2.8c0-1.3,0.3-2.6,0.8-3.8c0.6-1.1,1.3-2.1,2.3-3c1-0.9,2.3-1.6,3.8-1.9c1.4-0.4,3.1-0.7,5.1-0.7
			c1.9,0,3.7,0.2,5.1,0.7c1.6,0.4,2.8,1.1,3.8,1.9c1,0.9,1.8,1.8,2.3,3c0.4,1.1,0.8,2.4,0.8,3.8c0,2-0.6,3.7-1.8,5
			c-1.1,1.3-2.7,2.4-4.6,3.1c2.4,0.8,4.2,1.8,5.4,3.2c1.2,1.4,1.8,3.1,1.8,5.3c0,1.4-0.3,2.8-0.9,4c-0.6,1.2-1.4,2.3-2.4,3.1
			c-1,0.9-2.4,1.6-4,2C100.7,94.2,98.8,94.4,96.7,94.4z M96.7,89.2c2.4,0,4.1-0.4,5.2-1.4c1.1-1,1.8-2.2,1.8-3.7c0-1.8-0.7-3.1-2-4
			c-1.3-1-3-1.7-5-1.9c-2,0.3-3.7,0.9-5,1.9c-1.3,1-2,2.4-2,4s0.6,2.7,1.8,3.7C92.7,88.8,94.4,89.2,96.7,89.2z M96.7,73.9
			c1.8-0.3,3.1-0.9,4.3-1.8c1.1-0.9,1.7-2.1,1.7-3.8c0-1.6-0.6-2.6-1.7-3.3c-1-0.8-2.4-1.1-4.3-1.1c-1.8,0-3.2,0.3-4.3,1.1
			c-1,0.8-1.7,1.9-1.7,3.4c0,1.8,0.6,3,1.8,3.8C93.6,73,95,73.6,96.7,73.9z"/>
		<path d="M120.3,75.7c-1.2,0-2.3-0.2-3.3-0.6c-1-0.3-1.9-1-2.6-1.8c-0.7-0.8-1.2-1.7-1.7-2.6c-0.3-1-0.6-2.1-0.6-3.3V67
			c0-1.2,0.2-2.3,0.6-3.3s1-1.9,1.7-2.6c0.7-0.8,1.6-1.2,2.6-1.8c1-0.3,2.1-0.6,3.3-0.6s2.3,0.2,3.3,0.6c1,0.3,1.8,1,2.6,1.8
			c0.8,0.8,1.2,1.7,1.8,2.6c0.3,1,0.6,2.1,0.6,3.3v0.4c0,1.2-0.2,2.3-0.6,3.3c-0.3,1-1,1.9-1.8,2.6c-0.8,0.8-1.7,1.2-2.6,1.8
			C122.6,75.4,121.6,75.7,120.3,75.7z M140.7,59.1h5.9l-23.9,34.7h-5.9L140.7,59.1z M120.3,71.1c0.9,0,1.7-0.3,2.1-0.9
			c0.6-0.6,0.8-1.6,0.8-2.9v-0.4c0-1.3-0.3-2.3-0.8-2.9c-0.6-0.6-1.2-0.9-2.1-0.9s-1.7,0.3-2.1,0.9c-0.6,0.6-0.8,1.6-0.8,2.9v0.4
			c0,1.3,0.3,2.3,0.8,2.9C118.7,70.8,119.4,71.1,120.3,71.1z M143.1,94.3c-1.2,0-2.3-0.2-3.3-0.6c-1-0.3-1.9-1-2.6-1.8
			c-0.7-0.8-1.2-1.7-1.7-2.6c-0.3-1-0.6-2.1-0.6-3.3v-0.4c0-1.2,0.2-2.3,0.6-3.3c0.3-1,1-1.9,1.7-2.6c0.7-0.8,1.6-1.2,2.6-1.8
			c1-0.3,2.1-0.6,3.3-0.6s2.3,0.2,3.3,0.6c1,0.3,1.8,1,2.6,1.8c0.8,0.8,1.2,1.7,1.8,2.6c0.3,1,0.6,2.1,0.6,3.3v0.4
			c0,1.2-0.2,2.3-0.6,3.3c-0.3,1-1,1.9-1.8,2.6c-0.8,0.8-1.7,1.2-2.6,1.8C145.6,94.2,144.3,94.3,143.1,94.3z M143.1,90
			c0.9,0,1.7-0.3,2.1-0.9c0.6-0.6,0.8-1.6,0.8-2.9v-0.4c0-1.3-0.3-2.3-0.8-2.9c-0.6-0.6-1.2-0.9-2.1-0.9c-0.9,0-1.7,0.3-2.1,0.9
			c-0.6,0.6-0.8,1.6-0.8,2.9v0.4c0,1.3,0.3,2.3,0.8,2.9C141.6,89.5,142.2,90,143.1,90z"/>
		<path d="M176.4,94.4c-1.8,0-3.4-0.3-5-0.9c-1.6-0.6-2.8-1.3-3.9-2.4c-1.1-1.1-2-2.4-2.6-4.2c-0.7-1.8-1-3.7-1-5.9v-1
			c0-2.1,0.3-4,1-5.7c0.7-1.7,1.6-3,2.7-4.1c1.1-1,2.4-1.9,3.9-2.4c1.6-0.6,3.1-0.9,4.8-0.9c1.8,0,3.2,0.2,4.6,0.7
			c1.3,0.4,2.4,1,3.4,1.9c1,0.8,1.8,1.8,2.3,2.9c0.6,1,1,2.3,1.1,3.6h-5.6c-0.3-1.2-1-2.2-1.8-3.1c-0.9-0.8-2.2-1.1-4.1-1.1
			c-1,0-1.8,0.2-2.6,0.4c-0.9,0.3-1.6,0.8-2.2,1.4c-0.7,0.7-1.1,1.6-1.6,2.6c-0.3,1-0.6,2.3-0.6,3.8v1c0,1.6,0.2,2.9,0.6,4
			c0.3,1.1,0.9,2,1.6,2.7c0.7,0.7,1.3,1.2,2.2,1.6c0.9,0.3,1.8,0.4,2.6,0.4c3.1,0,5.1-1.4,5.9-4.2h5.6c-0.3,1.4-0.8,2.7-1.3,3.8
			c-0.7,1.1-1.4,2-2.4,2.9c-1,0.8-2.1,1.3-3.4,1.8C179.3,94.3,177.9,94.4,176.4,94.4z"/>
		<path d="M191.9,59.1h5.4v12.6c0.3-0.6,0.7-1.1,1.1-1.8c0.4-0.6,1-1,1.8-1.6c0.7-0.3,1.4-0.8,2.3-1c0.9-0.3,1.9-0.3,3-0.3
			c3.2,0,5.7,0.9,7.3,2.6c1.7,1.8,2.4,4.3,2.4,7.7V94h-5.4V78.6c0-2.2-0.4-3.9-1.4-5c-1-1.1-2.4-1.8-4.6-1.8c-1.1,0-2.1,0.2-3,0.6
			c-0.8,0.3-1.4,0.9-2,1.6c-0.4,0.6-0.9,1.3-1.1,2.1c-0.2,0.8-0.3,1.7-0.3,2.4v15.4h-5.2V59.1H191.9z"/>
		<path d="M232.1,94.4c-1.8,0-3.4-0.3-5-0.9c-1.6-0.6-3-1.3-4.1-2.4s-2.1-2.4-2.8-4.2c-0.7-1.8-1-3.7-1-5.9v-1c0-2.2,0.3-4.1,1-5.8
			c0.7-1.7,1.6-3,2.7-4s2.4-1.9,3.9-2.4c1.6-0.6,3.1-0.8,4.8-0.8c4,0,7.1,1,9.2,3.2c2.1,2.1,3.1,5.2,3.1,9.2v2.8h-19.2
			c0,1.3,0.3,2.4,0.7,3.4s1,1.8,1.7,2.3c0.7,0.6,1.4,1,2.3,1.2c0.9,0.2,1.8,0.3,2.7,0.3c1.9,0,3.2-0.3,4.1-0.9
			c0.9-0.6,1.4-1.3,1.8-2.3h5.4c-0.6,2.6-1.8,4.5-3.9,5.9C237.6,93.8,235,94.4,232.1,94.4z M231.9,71.8c-1,0-1.8,0.1-2.7,0.3
			c-0.9,0.2-1.7,0.6-2.2,1.1c-0.7,0.4-1.1,1.1-1.6,2c-0.3,0.8-0.6,1.8-0.7,3h13.8c0-1.2-0.2-2.3-0.6-3.1c-0.3-0.8-0.9-1.6-1.4-2
			c-0.6-0.4-1.3-0.9-2.1-1C233.7,71.9,232.8,71.8,231.9,71.8z"/>
		<path d="M259.2,94.4c-1.8,0-3.4-0.3-5-0.9c-1.6-0.6-2.8-1.3-3.9-2.4c-1.1-1.1-2-2.4-2.6-4.2c-0.7-1.8-1-3.7-1-5.9v-1
			c0-2.1,0.3-4,1-5.7c0.7-1.7,1.6-3,2.7-4.1c1.1-1,2.4-1.9,3.9-2.4c1.6-0.6,3.1-0.9,4.8-0.9c1.8,0,3.2,0.2,4.6,0.7
			c1.3,0.4,2.4,1,3.4,1.9c1,0.8,1.8,1.8,2.3,2.9c0.6,1,1,2.3,1.1,3.6H265c-0.3-1.2-1-2.2-1.8-3.1c-0.9-0.8-2.2-1.1-4.1-1.1
			c-1,0-1.8,0.2-2.6,0.4c-0.9,0.3-1.6,0.8-2.2,1.4c-0.7,0.7-1.1,1.6-1.6,2.6c-0.3,1-0.6,2.3-0.6,3.8v1c0,1.6,0.2,2.9,0.6,4
			c0.3,1.1,0.9,2,1.6,2.7c0.7,0.7,1.3,1.2,2.2,1.6c0.9,0.3,1.8,0.4,2.6,0.4c3.1,0,5.1-1.4,5.9-4.2h5.6c-0.3,1.4-0.8,2.7-1.3,3.8
			c-0.7,1.1-1.4,2-2.4,2.9c-1,0.8-2.1,1.3-3.4,1.8C262.1,94.3,260.8,94.4,259.2,94.4z"/>
		<path d="M274.7,59.1h5.4V79L291,67.6h6.4l-10.7,11.2l11.6,15.1h-6.6L283,82.2l-3.1,3.1v8.5h-5.4L274.7,59.1L274.7,59.1z"/>
		<path d="M312.4,67.6h5.1V72c0.6-1.3,1.4-2.4,2.6-3.6c1.2-1,2.7-1.6,4.6-1.6c0.9,0,1.4,0,1.8,0.1c0.3,0.1,0.7,0.1,0.9,0.2v5
			c-0.6-0.2-1-0.3-1.6-0.3c-0.4-0.1-1-0.1-1.8-0.1c-1,0-2,0.2-2.8,0.6c-0.8,0.3-1.4,0.9-1.9,1.6c-0.4,0.7-0.9,1.3-1.1,2.1
			c-0.3,0.8-0.3,1.7-0.3,2.4v15.4h-5.4V67.6L312.4,67.6z"/>
		<path d="M341.4,94.4c-1.8,0-3.4-0.3-5-0.9c-1.6-0.6-3-1.3-4.1-2.4s-2.1-2.4-2.8-4.2c-0.7-1.8-1-3.7-1-5.9v-1c0-2.2,0.3-4.1,1-5.8
			c0.7-1.7,1.6-3,2.7-4s2.4-1.9,3.9-2.4c1.6-0.6,3.1-0.8,4.8-0.8c4,0,7.1,1,9.2,3.2c2.1,2.1,3.1,5.2,3.1,9.2v2.8H334
			c0,1.3,0.3,2.4,0.7,3.4c0.3,1,1,1.8,1.7,2.3c0.7,0.6,1.4,1,2.3,1.2c0.9,0.3,1.8,0.3,2.7,0.3c1.9,0,3.2-0.3,4.1-0.9
			c0.9-0.6,1.4-1.3,1.8-2.3h5.4c-0.6,2.6-1.8,4.5-3.9,5.9C346.9,93.8,344.4,94.4,341.4,94.4z M341.2,71.8c-1,0-1.8,0.1-2.7,0.3
			c-0.9,0.2-1.7,0.6-2.2,1.1c-0.7,0.4-1.1,1.1-1.6,2c-0.3,0.8-0.6,1.8-0.7,3h13.8c0-1.2-0.2-2.3-0.6-3.1c-0.3-0.8-0.9-1.6-1.4-2
			c-0.6-0.4-1.3-0.9-2.1-1C343,71.9,342.1,71.8,341.2,71.8z"/>
		<path d="M354.1,67.6h5.9l8,20.4l7.3-20.4h5.6l-10.1,26.3h-5.4L354.1,67.6z"/>
		<path d="M387.4,64.6c-1,0-1.8-0.3-2.4-1c-0.7-0.7-1-1.4-1-2.4c0-1,0.3-1.8,1-2.4c0.7-0.7,1.4-1,2.4-1c1,0,1.8,0.3,2.4,1
			c0.7,0.7,1,1.4,1,2.4c0,1-0.3,1.8-1,2.4C389.2,64.4,388.4,64.6,387.4,64.6z M384.7,67.6h5.4v26.3h-5.4V67.6z"/>
		<path d="M407.8,94.4c-1.8,0-3.4-0.3-5-0.9c-1.6-0.6-3-1.3-4.1-2.4s-2.1-2.4-2.8-4.2c-0.7-1.8-1-3.7-1-5.9v-1c0-2.2,0.3-4.1,1-5.8
			c0.7-1.7,1.6-3,2.7-4s2.4-1.9,3.9-2.4c1.6-0.6,3.1-0.8,4.8-0.8c4,0,7.1,1,9.2,3.2c2.1,2.1,3.1,5.2,3.1,9.2v2.8h-19.2
			c0,1.3,0.3,2.4,0.7,3.4c0.3,1,1,1.8,1.7,2.3c0.7,0.6,1.4,1,2.3,1.2c0.9,0.3,1.8,0.3,2.7,0.3c1.9,0,3.2-0.3,4.1-0.9
			c0.9-0.6,1.4-1.3,1.8-2.3h5.4c-0.6,2.6-1.8,4.5-3.9,5.9C413.2,93.8,410.8,94.4,407.8,94.4z M407.6,71.8c-1,0-1.8,0.1-2.7,0.3
			c-0.9,0.2-1.7,0.6-2.2,1.1c-0.7,0.4-1.1,1.1-1.6,2c-0.3,0.8-0.6,1.8-0.7,3h13.8c0-1.2-0.2-2.3-0.6-3.1c-0.3-0.8-0.9-1.6-1.4-2
			c-0.6-0.4-1.3-0.9-2.1-1C409.4,71.9,408.4,71.8,407.6,71.8z"/>
		<path d="M421.4,67.6h5.8l4.8,19.3l6-19.3h5l6.4,19.3l4.8-19.3h5.3l-7.2,26.3h-5.4l-6.6-19.3L434,93.9h-5.4L421.4,67.6z"/>
		<path d="M473,94.4c-1.9,0-3.7-0.2-5-0.7c-1.3-0.3-2.4-1-3.4-1.8c-1-0.8-1.7-1.7-2.1-2.6c-0.4-1-0.8-2-1-3.1h5.4
			c0.2,1,0.8,1.8,1.8,2.3c1,0.6,2.3,1,4.3,1c2.2,0,3.8-0.3,4.6-0.9c0.9-0.6,1.3-1.3,1.3-2.3c0-0.3-0.1-0.9-0.3-1.2
			c-0.2-0.3-0.6-0.8-1.1-1c-0.4-0.3-1.2-0.6-2.1-0.9c-0.9-0.3-1.9-0.4-3.2-0.7c-1.6-0.2-2.9-0.4-4.1-0.9c-1.2-0.4-2.3-0.9-3.1-1.6
			c-0.9-0.7-1.6-1.4-2-2.3s-0.7-2-0.7-3.2c0-1,0.2-2.1,0.7-3s1-1.8,2-2.4c0.9-0.7,2-1.2,3.3-1.7c1.3-0.3,2.9-0.6,4.7-0.6
			c1.8,0,3.2,0.2,4.6,0.7c1.2,0.3,2.3,1,3.1,1.8c0.9,0.8,1.6,1.7,1.9,2.6c0.4,1,0.8,2,0.9,3.1h-5.6c-0.3-1-0.8-1.8-1.7-2.4
			c-0.8-0.6-1.9-0.9-3.3-0.9c-1.9,0-3.3,0.3-4.1,0.9c-0.8,0.6-1.1,1.2-1.1,2.1c0,0.4,0.1,0.9,0.3,1.2c0.2,0.3,0.6,0.7,1,1
			c0.4,0.3,1,0.6,1.9,0.8c0.8,0.2,1.8,0.3,3.1,0.6c1.6,0.2,3,0.4,4.2,0.9c1.2,0.3,2.4,1,3.2,1.6c1,0.7,1.7,1.4,2.1,2.4
			s0.8,2,0.8,3.2c0,1.1-0.3,2.2-0.8,3.1c-0.4,1-1.1,1.8-2.1,2.4c-1,0.7-2.1,1.2-3.6,1.8C476.4,94.3,474.8,94.4,473,94.4z"/>
		<path d="M513.3,94.4c-2.2,0-4-0.4-5.7-1.6c-1.6-1-2.7-2.1-3.2-3.4v4.4h-5.1V59.1h5.4v12.6c0.9-1.3,1.9-2.4,3.4-3.3
			c1.4-0.9,3.1-1.3,5.2-1.3c3.4,0,6.1,1,8.1,3.2c2,2.1,3,5.3,3,9.8v1c0,2.3-0.3,4.2-0.8,5.9c-0.6,1.8-1.2,3.1-2.3,4.2
			c-1,1.1-2.1,1.9-3.6,2.4C516.4,94.2,514.9,94.4,513.3,94.4z M512,89.6c2,0,3.7-0.7,4.9-2.1s1.9-3.7,1.9-6.5v-1
			c0-2.8-0.6-4.9-1.8-6.2s-2.9-2-5-2c-1,0-1.9,0.2-2.8,0.4c-0.9,0.3-1.7,0.8-2.3,1.3c-0.7,0.6-1.2,1.3-1.7,2.2
			c-0.4,0.9-0.6,1.9-0.6,3v3.4c0,1.2,0.2,2.4,0.6,3.2c0.3,1,1,1.8,1.7,2.3c0.7,0.7,1.4,1,2.3,1.4C510,89.4,511,89.6,512,89.6z"/>
		<path d="M540,94.4c-1.8,0-3.4-0.3-5-0.9c-1.6-0.6-3-1.3-4.1-2.4c-1.1-1.1-2.1-2.4-2.8-4.2c-0.7-1.8-1-3.7-1-5.9v-1
			c0-2.2,0.3-4.1,1-5.8c0.7-1.7,1.6-3,2.7-4c1.1-1,2.4-1.9,3.9-2.4c1.6-0.6,3.1-0.8,4.8-0.8c4,0,7.1,1,9.2,3.2
			c2.1,2.1,3.1,5.2,3.1,9.2v2.8h-19.2c0,1.3,0.3,2.4,0.7,3.4c0.3,1,1,1.8,1.7,2.3c0.7,0.6,1.4,1,2.3,1.2c0.9,0.3,1.8,0.3,2.7,0.3
			c1.9,0,3.2-0.3,4.1-0.9c0.9-0.6,1.4-1.3,1.8-2.3h5.4c-0.6,2.6-1.8,4.5-3.9,5.9C545.4,93.8,542.9,94.4,540,94.4z M539.8,71.8
			c-1,0-1.8,0.1-2.7,0.3c-0.9,0.2-1.7,0.6-2.2,1.1c-0.6,0.6-1.1,1.1-1.6,2c-0.3,0.8-0.6,1.8-0.7,3h13.8c0-1.2-0.2-2.3-0.6-3.1
			c-0.3-0.9-0.9-1.6-1.4-2c-0.6-0.4-1.3-0.9-2.1-1C541.6,71.9,540.7,71.8,539.8,71.8z"/>
		<path d="M557.1,72.2h-3.4v-4.7h3.4v-0.8c0-2.6,0.7-4.5,2-5.9c1.3-1.3,3.6-2,6.7-2c1,0,2.2,0.1,3.8,0.2v4.8c-0.4-0.1-1-0.1-1.7-0.1
			c-0.6,0-1.1,0-1.7,0c-1.4,0-2.4,0.3-2.9,0.8c-0.6,0.4-0.9,1.4-0.9,2.7v0.3h6.4v4.7h-6.4v21.6H557V72.2H557.1z"/>
		<path d="M583.4,94.4c-1.8,0-3.6-0.3-5.1-0.9c-1.6-0.6-3-1.4-4.1-2.6s-2.1-2.4-2.8-4.2c-0.7-1.7-1-3.7-1-5.9v-1
			c0-2.1,0.3-3.9,1-5.5c0.7-1.7,1.6-3,2.8-4.1c1.1-1.1,2.4-1.9,4.1-2.4c1.6-0.6,3.2-0.9,5.1-0.9c1.8,0,3.6,0.3,5.1,0.9
			c1.6,0.6,3,1.4,4.1,2.4c1.1,1,2.1,2.4,2.8,4.1c0.7,1.7,1,3.4,1,5.5V81c0,2.2-0.3,4.1-1,5.9c-0.7,1.7-1.6,3.1-2.8,4.2
			c-1.2,1.1-2.4,2-4.1,2.6C587,94.2,585.3,94.4,583.4,94.4z M583.4,89.6c1,0,1.9-0.2,2.8-0.4c0.9-0.2,1.7-0.9,2.3-1.6
			c0.7-0.7,1.2-1.7,1.7-2.7c0.3-1,0.6-2.4,0.6-3.9v-1c0-1.4-0.2-2.7-0.6-3.7s-1-1.9-1.7-2.4c-0.7-0.7-1.4-1.1-2.3-1.6
			c-0.9-0.3-1.8-0.4-2.8-0.4c-1,0-1.9,0.2-2.8,0.4c-0.9,0.3-1.7,0.9-2.3,1.6c-0.7,0.7-1.2,1.6-1.7,2.4c-0.3,1-0.6,2.3-0.6,3.7v1
			c0,1.6,0.2,2.9,0.6,3.9s1,2,1.7,2.7c0.7,0.7,1.4,1.2,2.3,1.6C581.7,89.4,582.6,89.6,583.4,89.6z"/>
		<path d="M600.7,67.6h5.1V72c0.6-1.3,1.4-2.4,2.6-3.6c1.2-1,2.7-1.6,4.6-1.6c0.9,0,1.4,0,1.8,0.1s0.7,0.1,0.9,0.2v5
			c-0.6-0.2-1-0.3-1.6-0.3c-0.4-0.1-1-0.1-1.8-0.1c-1,0-2,0.2-2.8,0.6c-0.8,0.3-1.4,0.9-1.9,1.6c-0.4,0.7-0.9,1.3-1.1,2.1
			c-0.3,0.8-0.3,1.7-0.3,2.4v15.4h-5.4L600.7,67.6L600.7,67.6z"/>
		<path d="M629.7,94.4c-1.8,0-3.4-0.3-5-0.9c-1.6-0.6-3-1.3-4.1-2.4c-1.1-1.1-2.1-2.4-2.8-4.2c-0.7-1.8-1-3.7-1-5.9v-1
			c0-2.2,0.3-4.1,1-5.8c0.7-1.7,1.6-3,2.7-4c1.1-1,2.4-1.9,3.9-2.4c1.6-0.6,3.1-0.8,4.8-0.8c4,0,7.1,1,9.2,3.2
			c2.1,2.1,3.1,5.2,3.1,9.2v2.8h-19.2c0,1.3,0.3,2.4,0.7,3.4s1,1.8,1.7,2.3c0.7,0.6,1.4,1,2.3,1.2c0.9,0.2,1.8,0.3,2.7,0.3
			c1.9,0,3.2-0.3,4.1-0.9c0.9-0.6,1.4-1.3,1.8-2.3h5.4c-0.6,2.6-1.8,4.5-3.9,5.9C635.1,93.8,632.7,94.4,629.7,94.4z M629.4,71.8
			c-1,0-1.8,0.1-2.7,0.3c-0.9,0.2-1.7,0.6-2.2,1.1c-0.6,0.6-1.1,1.1-1.6,2c-0.3,0.8-0.6,1.8-0.7,3h13.8c0-1.2-0.2-2.3-0.6-3.1
			c-0.3-0.9-0.9-1.6-1.4-2c-0.6-0.4-1.3-0.9-2.1-1C631.3,71.9,630.3,71.8,629.4,71.8z"/>
		<path d="M667.4,94.4c-1.8,0-3.4-0.3-5-0.9c-1.6-0.6-2.8-1.3-3.9-2.4c-1.1-1.1-2-2.4-2.6-4.2c-0.6-1.8-1-3.7-1-5.9v-1
			c0-2.1,0.3-4,1-5.7c0.7-1.7,1.6-3,2.7-4.1c1.1-1,2.4-1.9,3.9-2.4c1.6-0.6,3.1-0.9,4.8-0.9c1.8,0,3.2,0.2,4.6,0.7
			c1.3,0.4,2.4,1,3.4,1.9c1,0.8,1.8,1.8,2.3,2.9s1,2.3,1.1,3.6h-5.6c-0.3-1.2-1-2.2-1.8-3.1c-0.9-0.8-2.2-1.1-4.1-1.1
			c-1,0-1.8,0.2-2.6,0.4c-0.9,0.3-1.6,0.8-2.2,1.4c-0.7,0.7-1.1,1.6-1.6,2.6c-0.3,1-0.6,2.3-0.6,3.8v1c0,1.6,0.2,2.9,0.6,4
			c0.3,1.1,0.9,2,1.6,2.7c0.7,0.7,1.3,1.2,2.2,1.6s1.8,0.4,2.6,0.4c3.1,0,5.1-1.4,5.9-4.2h5.6c-0.3,1.4-0.8,2.7-1.3,3.8
			c-0.7,1.1-1.4,2-2.4,2.9c-1,0.8-2.1,1.3-3.4,1.8C670.3,94.3,669,94.4,667.4,94.4z"/>
		<path d="M682.9,59.1h5.4v12.6c0.3-0.6,0.7-1.1,1.1-1.8c0.4-0.6,1-1,1.8-1.6c0.7-0.3,1.4-0.8,2.3-1c0.9-0.3,1.9-0.3,3-0.3
			c3.2,0,5.7,0.9,7.3,2.6c1.7,1.8,2.4,4.3,2.4,7.7V94h-5.4V78.6c0-2.2-0.4-3.9-1.4-5c-1-1-2.4-1.8-4.6-1.8c-1.1,0-2.1,0.2-3,0.6
			c-0.8,0.3-1.4,0.9-2,1.6c-0.4,0.6-0.9,1.3-1.1,2.1s-0.3,1.7-0.3,2.4v15.4H683V59.1H682.9z"/>
		<path d="M723.1,94.4c-1.8,0-3.6-0.3-5.1-0.9c-1.6-0.6-3-1.4-4.1-2.6c-1.1-1.1-2.1-2.4-2.8-4.2c-0.7-1.7-1-3.7-1-5.9v-1
			c0-2.1,0.3-3.9,1-5.5c0.7-1.7,1.6-3,2.8-4.1c1.1-1.1,2.4-1.9,4.1-2.4c1.6-0.6,3.2-0.9,5.1-0.9c1.8,0,3.6,0.3,5.1,0.9
			c1.6,0.6,3,1.4,4.1,2.4c1.1,1,2.1,2.4,2.8,4.1c0.7,1.7,1,3.4,1,5.5V81c0,2.2-0.3,4.1-1,5.9c-0.7,1.7-1.6,3.1-2.8,4.2
			c-1.2,1.1-2.4,2-4.1,2.6C726.7,94.2,725,94.4,723.1,94.4z M723.1,89.6c1,0,1.9-0.2,2.8-0.4c0.9-0.2,1.7-0.9,2.3-1.6
			s1.2-1.7,1.7-2.7c0.3-1,0.6-2.4,0.6-3.9v-1c0-1.4-0.2-2.7-0.6-3.7s-1-1.9-1.7-2.4c-0.7-0.7-1.4-1.1-2.3-1.6
			c-0.9-0.3-1.8-0.4-2.8-0.4s-1.9,0.2-2.8,0.4c-0.9,0.3-1.7,0.9-2.3,1.6c-0.7,0.7-1.2,1.6-1.7,2.4c-0.3,1-0.6,2.3-0.6,3.7v1
			c0,1.6,0.2,2.9,0.6,3.9s1,2,1.7,2.7s1.4,1.2,2.3,1.6C721.3,89.4,722.1,89.6,723.1,89.6z"/>
		<path d="M751.7,94.4c-1.8,0-3.6-0.3-5.1-0.9c-1.6-0.6-3-1.4-4.1-2.6c-1.1-1.1-2.1-2.4-2.8-4.2c-0.7-1.7-1-3.7-1-5.9v-1
			c0-2.1,0.3-3.9,1-5.5c0.7-1.7,1.6-3,2.8-4.1c1.1-1.1,2.4-1.9,4.1-2.4c1.6-0.6,3.2-0.9,5.1-0.9c1.9,0,3.6,0.3,5.1,0.9
			c1.6,0.6,3,1.4,4.1,2.4s2.1,2.4,2.8,4.1c0.7,1.7,1,3.4,1,5.5V81c0,2.2-0.3,4.1-1,5.9c-0.7,1.7-1.6,3.1-2.8,4.2s-2.4,2-4.1,2.6
			C755.2,94.2,753.6,94.4,751.7,94.4z M751.7,89.6c1,0,1.9-0.2,2.8-0.4c0.9-0.2,1.7-0.9,2.3-1.6c0.7-0.7,1.2-1.7,1.7-2.7
			c0.3-1,0.6-2.4,0.6-3.9v-1c0-1.4-0.2-2.7-0.6-3.7s-1-1.9-1.7-2.4c-0.7-0.7-1.4-1.1-2.3-1.6c-0.9-0.3-1.8-0.4-2.8-0.4
			c-1,0-1.9,0.2-2.8,0.4c-0.9,0.3-1.7,0.9-2.3,1.6c-0.7,0.7-1.2,1.6-1.7,2.4c-0.3,1-0.6,2.3-0.6,3.7v1c0,1.6,0.2,2.9,0.6,3.9
			s1,2,1.7,2.7c0.7,0.7,1.4,1.2,2.3,1.6C749.9,89.4,750.8,89.6,751.7,89.6z"/>
		<path d="M778.8,94.4c-1.9,0-3.7-0.2-5-0.7c-1.3-0.3-2.4-1-3.4-1.8c-1-0.8-1.7-1.7-2.1-2.6c-0.4-0.9-0.8-2-1-3.1h5.4
			c0.2,1,0.8,1.8,1.8,2.3c1,0.6,2.3,1,4.3,1c2.2,0,3.8-0.3,4.6-0.9c0.9-0.6,1.3-1.3,1.3-2.3c0-0.3-0.1-0.9-0.3-1.2
			c-0.2-0.3-0.6-0.8-1.1-1c-0.4-0.3-1.2-0.6-2.1-0.9s-1.9-0.4-3.2-0.7c-1.6-0.2-2.9-0.4-4.1-0.9c-1.2-0.3-2.3-0.9-3.1-1.6
			c-0.9-0.7-1.6-1.4-2-2.3c-0.4-0.9-0.7-2-0.7-3.2c0-1,0.2-2.1,0.7-3c0.4-0.9,1-1.8,2-2.4c0.9-0.7,2-1.2,3.3-1.7
			c1.3-0.3,2.9-0.6,4.7-0.6c1.8,0,3.2,0.2,4.6,0.7c1.2,0.3,2.3,1,3.1,1.8c0.9,0.8,1.6,1.7,1.9,2.6c0.4,1,0.8,2,0.9,3.1h-5.4
			c-0.3-1-0.8-1.8-1.7-2.4c-0.8-0.6-1.9-0.9-3.3-0.9c-1.9,0-3.3,0.3-4.1,0.9c-0.8,0.6-1.1,1.2-1.1,2.1c0,0.4,0.1,0.9,0.3,1.2
			c0.2,0.3,0.6,0.7,1,1c0.4,0.3,1,0.6,1.9,0.8c0.8,0.2,1.8,0.3,3.1,0.6c1.6,0.2,3,0.4,4.2,0.9c1.2,0.3,2.4,1,3.2,1.6
			c1,0.7,1.7,1.4,2.1,2.4s0.8,2,0.8,3.2c0,1.1-0.3,2.2-0.8,3.1c-0.4,1-1.1,1.8-2.1,2.4c-1,0.7-2.1,1.2-3.6,1.8
			C782.3,94.3,780.8,94.4,778.8,94.4z"/>
		<path d="M797.7,64.6c-1,0-1.8-0.3-2.4-1c-0.7-0.7-1-1.4-1-2.4c0-1,0.3-1.8,1-2.4c0.7-0.7,1.4-1,2.4-1c1,0,1.8,0.3,2.4,1
			c0.7,0.7,1,1.4,1,2.4c0,1-0.3,1.8-1,2.4C799.4,64.2,798.8,64.6,797.7,64.6z M794.9,67.6h5.4v26.3h-5.4V67.6z"/>
		<path d="M806.7,67.6h5.1V72c0.7-1.3,1.7-2.4,3.1-3.4c1.4-1,3.2-1.6,5.6-1.6c3.2,0,5.7,0.9,7.3,2.6c1.7,1.7,2.4,4.3,2.4,7.7v16.6
			h-5.4V78.4c0-2.2-0.4-3.9-1.4-5c-1-1-2.4-1.8-4.6-1.8c-1.1,0-2.1,0.2-3,0.6c-0.8,0.3-1.4,0.9-2,1.6c-0.4,0.6-0.9,1.3-1.1,2.1
			c-0.3,0.8-0.3,1.7-0.3,2.4v15.4h-5.4L806.7,67.6L806.7,67.6z"/>
		<path d="M846.4,104.3c-2,0-3.8-0.2-5.2-0.6c-1.4-0.3-2.4-1-3.4-1.7c-0.9-0.7-1.6-1.6-2-2.4c-0.3-1-0.7-2-0.9-3.1h5.6
			c0.1,0.3,0.3,0.8,0.6,1.1c0.3,0.3,0.6,0.8,1,1c0.4,0.3,1,0.6,1.8,0.8c0.7,0.2,1.6,0.3,2.4,0.3c2.4,0,4.3-0.6,5.4-1.8
			c1.1-1.1,1.8-2.9,1.8-5.1v-3.8c-0.9,1.4-1.9,2.4-3.3,3.4c-1.4,0.9-3.1,1.3-5.1,1.3c-1.8,0-3.2-0.3-4.6-0.9
			c-1.3-0.6-2.4-1.4-3.6-2.4c-1-1-1.8-2.4-2.3-4.1c-0.6-1.7-0.8-3.6-0.8-5.8v-1c0-2,0.3-3.8,0.8-5.4c0.4-1.7,1.2-2.9,2.3-3.9
			c1-1,2.1-1.9,3.6-2.4c1.3-0.6,2.9-0.9,4.6-0.9c2.2,0,4,0.4,5.7,1.6c1.6,1,2.7,2.1,3.2,3.4v-4.4h5.1v25.1c0,3.8-1,6.5-3.1,8.7
			C853.8,103.3,850.6,104.3,846.4,104.3z M846.3,89.2c1,0,1.9-0.2,2.8-0.4s1.7-0.8,2.3-1.3c0.7-0.6,1.1-1.3,1.7-2.3
			c0.3-1,0.6-1.9,0.6-3.1v-3.4c0-1-0.2-2-0.6-2.9c-0.3-0.9-1-1.6-1.7-2.1c-0.7-0.6-1.4-1-2.3-1.2s-1.8-0.4-2.7-0.4
			c-2.1,0-3.8,0.7-5,1.9c-1.2,1.3-1.8,3.2-1.8,5.9v1c0,2.8,0.7,4.9,1.9,6.3C842.7,88.4,844.3,89.2,846.3,89.2z"/>
		<path d="M883.2,94.4c-1.4,0-2.7-0.2-3.9-0.6c-1.1-0.3-2-1-2.8-1.8c-0.8-0.8-1.3-1.7-1.8-2.6c-0.3-1-0.6-2.1-0.6-3.2
			c0-2.6,0.8-4.5,2.3-5.9c1.6-1.2,3.9-1.9,6.9-1.9h8.2v-1.4c0-2-0.4-3.3-1.3-4.1c-0.9-0.8-2.3-1.1-4.1-1.1s-3,0.3-3.8,0.8
			c-0.8,0.6-1.2,1.2-1.4,2.2h-5.2c0.1-1.1,0.3-2.2,0.9-3.1c0.4-1,1.2-1.8,2.1-2.4c1-0.7,2-1.2,3.2-1.7c1.2-0.3,2.8-0.6,4.4-0.6
			c1.7,0,3.1,0.2,4.4,0.6c1.3,0.3,2.4,1,3.3,1.8c1,0.8,1.7,1.8,2.2,3c0.4,1.2,0.8,2.7,0.8,4.4v10.4c0,1.4,0,2.6,0.1,3.7
			c0,1,0.1,2.1,0.3,3.1h-5c-0.1-0.8-0.2-1.4-0.2-1.9c-0.1-0.6-0.1-1.1-0.1-2c-0.7,1.2-1.8,2.3-3.2,3.1
			C887.6,94,885.4,94.4,883.2,94.4z M884.7,89.6c1,0,1.8-0.1,2.7-0.3c0.9-0.3,1.7-0.6,2.2-1c0.7-0.4,1.1-1,1.6-1.8
			c0.3-0.7,0.6-1.6,0.6-2.4v-1.4h-7.2c-1.4,0-2.4,0.3-3.3,0.9c-0.9,0.6-1.2,1.4-1.2,2.6c0,1,0.3,2,1.1,2.6
			C881.8,89.4,883,89.6,884.7,89.6z"/>
		<path d="M913.2,67.6h5.1V72c0.6-1.3,1.4-2.4,2.6-3.6c1.2-1,2.7-1.6,4.6-1.6c0.9,0,1.4,0,1.8,0.1s0.7,0.1,0.9,0.2v5
			c-0.6-0.2-1-0.3-1.6-0.3c-0.4-0.1-1-0.1-1.8-0.1c-1,0-2,0.2-2.8,0.6c-0.8,0.3-1.4,0.9-1.9,1.6c-0.4,0.7-0.9,1.3-1.1,2.1
			c-0.3,0.8-0.3,1.7-0.3,2.4v15.4h-5.4L913.2,67.6L913.2,67.6z"/>
		<path d="M942.3,94.4c-1.8,0-3.4-0.3-5-0.9c-1.6-0.6-3-1.3-4.1-2.4c-1.1-1.1-2.1-2.4-2.8-4.2c-0.7-1.8-1-3.7-1-5.9v-1
			c0-2.2,0.3-4.1,1-5.8c0.7-1.7,1.6-3,2.7-4c1.1-1,2.4-1.9,3.9-2.4c1.6-0.6,3.1-0.8,4.8-0.8c4,0,7.1,1,9.2,3.2
			c2.1,2.1,3.1,5.2,3.1,9.2v2.8h-19.2c0,1.3,0.3,2.4,0.7,3.4s1,1.8,1.7,2.3c0.7,0.6,1.4,1,2.3,1.2c0.9,0.3,1.8,0.3,2.7,0.3
			c1.9,0,3.2-0.3,4.1-0.9c0.9-0.6,1.4-1.3,1.8-2.3h5.4c-0.6,2.6-1.8,4.5-3.9,5.9C947.8,93.8,945.2,94.4,942.3,94.4z M942.1,71.8
			c-1,0-1.8,0.1-2.7,0.3c-0.9,0.2-1.7,0.6-2.2,1.1c-0.6,0.6-1.1,1.1-1.6,2c-0.3,0.8-0.6,1.8-0.7,3h13.8c0-1.2-0.2-2.3-0.6-3.1
			c-0.3-0.9-0.9-1.6-1.4-2c-0.6-0.4-1.3-0.9-2.1-1C943.9,71.9,943,71.8,942.1,71.8z"/>
		<path d="M968.4,94.4c-1.9,0-3.7-0.2-5-0.7c-1.3-0.3-2.4-1-3.4-1.8c-1-0.8-1.7-1.7-2.1-2.6c-0.4-0.9-0.8-2-1-3.1h5.4
			c0.2,1,0.8,1.8,1.8,2.3c1,0.6,2.3,1,4.3,1c2.2,0,3.8-0.3,4.6-0.9c0.9-0.6,1.3-1.3,1.3-2.3c0-0.3-0.1-0.9-0.3-1.2
			c-0.2-0.3-0.6-0.8-1.1-1c-0.4-0.3-1.2-0.6-2.1-0.9c-0.9-0.3-1.9-0.4-3.2-0.7c-1.6-0.2-2.9-0.4-4.1-0.9c-1.2-0.3-2.3-0.9-3.1-1.6
			c-0.9-0.7-1.6-1.4-2-2.3c-0.4-0.9-0.7-2-0.7-3.2c0-1,0.2-2.1,0.7-3c0.4-0.9,1-1.8,2-2.4c0.9-0.7,2-1.2,3.3-1.7
			c1.3-0.3,2.9-0.6,4.7-0.6c1.8,0,3.2,0.2,4.6,0.7c1.2,0.3,2.3,1,3.1,1.8c0.9,0.8,1.6,1.7,1.9,2.6c0.4,1,0.8,2,0.9,3.1h-5.4
			c-0.3-1-0.8-1.8-1.7-2.4c-0.8-0.6-1.9-0.9-3.3-0.9c-1.9,0-3.3,0.3-4.1,0.9c-0.8,0.6-1.1,1.2-1.1,2.1c0,0.4,0.1,0.9,0.3,1.2
			c0.2,0.3,0.6,0.7,1,1c0.4,0.3,1,0.6,1.9,0.8c0.8,0.2,1.8,0.3,3.1,0.6c1.6,0.2,3,0.4,4.2,0.9c1.2,0.3,2.4,1,3.2,1.6
			c1,0.7,1.7,1.4,2.1,2.4s0.8,2,0.8,3.2c0,1.1-0.3,2.2-0.8,3.1c-0.4,1-1.1,1.8-2.1,2.4c-1,0.7-2.1,1.2-3.6,1.8
			C972,94.3,970.3,94.4,968.4,94.4z"/>
		<path d="M994.2,94.2c-3,0-5.2-0.7-6.6-1.9c-1.3-1.2-1.9-3.3-1.9-6.2V72.2H982v-4.7h3.8v-5.9h5.4v5.9h6.7v4.7h-6.7v12.9
			c0,1.6,0.3,2.7,0.9,3.2c0.6,0.6,1.8,1,3.3,1c1,0,2-0.1,3-0.2v4.7c-0.7,0.1-1.2,0.1-1.9,0.2C995.8,94.1,995.1,94.2,994.2,94.2z"/>
		<path d="M1010.4,94.4c-1.4,0-2.7-0.2-3.9-0.6c-1.1-0.3-2-1-2.8-1.8c-0.8-0.8-1.3-1.7-1.8-2.6c-0.3-1-0.6-2.1-0.6-3.2
			c0-2.6,0.8-4.5,2.3-5.9c1.6-1.2,3.9-1.9,6.9-1.9h8.2v-1.4c0-2-0.4-3.3-1.3-4.1c-0.9-0.8-2.3-1.1-4.1-1.1c-1.8,0-3,0.3-3.8,0.8
			c-0.8,0.6-1.2,1.2-1.4,2.2h-5.2c0.1-1.1,0.3-2.2,0.9-3.1c0.4-1,1.2-1.8,2.1-2.4c1-0.7,2-1.2,3.2-1.7c1.2-0.3,2.8-0.6,4.4-0.6
			c1.7,0,3.1,0.2,4.4,0.6s2.4,1,3.3,1.8c1,0.8,1.7,1.8,2.2,3c0.4,1.2,0.8,2.7,0.8,4.4v10.4c0,1.4,0,2.6,0.1,3.7c0,1,0.1,2.1,0.3,3.1
			h-5c-0.1-0.8-0.2-1.4-0.2-1.9c-0.1-0.6-0.1-1.1-0.1-2c-0.7,1.2-1.8,2.3-3.2,3.1C1014.7,94,1012.6,94.4,1010.4,94.4z M1011.9,89.6
			c1,0,1.8-0.1,2.7-0.3c0.9-0.3,1.7-0.6,2.2-1c0.7-0.4,1.1-1,1.6-1.8c0.3-0.7,0.6-1.6,0.6-2.4v-1.4h-7.2c-1.4,0-2.4,0.3-3.3,0.9
			c-0.9,0.6-1.2,1.4-1.2,2.6c0,1,0.3,2,1.1,2.6C1009,89.4,1010.2,89.6,1011.9,89.6z"/>
		<path d="M1039,94.4c-3.1,0-5.4-0.9-7.1-2.7c-1.7-1.8-2.4-4.5-2.4-8.2v-16h5.4V83c0,2.2,0.4,3.9,1.3,5c1,1.1,2.4,1.8,4.3,1.8
			c1,0,2-0.2,2.8-0.6c0.8-0.3,1.4-0.9,1.9-1.6s0.9-1.3,1.1-2.2c0.3-0.8,0.3-1.7,0.3-2.4V67.6h5.4v26.3h-5.1v-4.4
			c-0.7,1.3-1.7,2.4-3.1,3.6C1042.9,94,1041.1,94.4,1039,94.4z"/>
		<path d="M1058.1,67.6h5.1V72c0.6-1.3,1.4-2.4,2.6-3.6c1.2-1,2.7-1.6,4.6-1.6c0.9,0,1.4,0,1.8,0.1c0.3,0.1,0.7,0.1,0.9,0.2v5
			c-0.6-0.2-1-0.3-1.6-0.3c-0.4-0.1-1-0.1-1.8-0.1c-1,0-2,0.2-2.8,0.6c-0.8,0.3-1.4,0.9-1.9,1.6c-0.4,0.7-0.9,1.3-1.1,2.1
			c-0.3,0.8-0.3,1.7-0.3,2.4v15.4h-5.4L1058.1,67.6L1058.1,67.6z"/>
		<path d="M1083,94.4c-1.4,0-2.7-0.2-3.9-0.6c-1.1-0.3-2-1-2.8-1.8c-0.8-0.8-1.3-1.7-1.8-2.6c-0.3-1-0.6-2.1-0.6-3.2
			c0-2.6,0.8-4.5,2.3-5.9c1.6-1.2,3.9-1.9,6.9-1.9h8.2v-1.4c0-2-0.4-3.3-1.3-4.1c-0.9-0.8-2.3-1.1-4.1-1.1c-1.8,0-3,0.3-3.8,0.8
			c-0.8,0.6-1.2,1.2-1.4,2.2h-5.2c0.1-1.1,0.3-2.2,0.9-3.1c0.4-1,1.2-1.8,2.1-2.4c1-0.7,2-1.2,3.2-1.7c1.2-0.3,2.8-0.6,4.4-0.6
			s3.1,0.2,4.4,0.6s2.4,1,3.3,1.8c1,0.8,1.7,1.8,2.2,3c0.4,1.2,0.8,2.7,0.8,4.4v10.4c0,1.4,0,2.6,0.1,3.7c0,1,0.1,2.1,0.3,3.1h-5
			c-0.1-0.8-0.2-1.4-0.2-1.9c-0.1-0.6-0.1-1.1-0.1-2c-0.7,1.2-1.8,2.3-3.2,3.1C1087.2,94,1085.1,94.4,1083,94.4z M1084.4,89.6
			c1,0,1.8-0.1,2.7-0.3c0.9-0.3,1.7-0.6,2.2-1c0.7-0.4,1.1-1,1.6-1.8c0.3-0.7,0.6-1.6,0.6-2.4v-1.4h-7.2c-1.4,0-2.4,0.3-3.3,0.9
			c-0.9,0.6-1.2,1.4-1.2,2.6c0,1,0.3,2,1.1,2.6C1081.6,89.4,1082.8,89.6,1084.4,89.6z"/>
		<path d="M1102.3,67.6h5.1V72c0.7-1.3,1.7-2.4,3.1-3.4c1.4-1,3.2-1.6,5.6-1.6c3.2,0,5.7,0.9,7.3,2.6c1.7,1.7,2.4,4.3,2.4,7.7v16.6
			h-5.4V78.4c0-2.2-0.4-3.9-1.4-5c-1-1-2.4-1.8-4.6-1.8c-1.1,0-2.1,0.2-3,0.6c-0.8,0.3-1.4,0.9-2,1.6c-0.4,0.6-0.9,1.3-1.1,2.1
			c-0.3,0.8-0.3,1.7-0.3,2.4v15.4h-5.8L1102.3,67.6L1102.3,67.6z"/>
		<path d="M1141.3,94.2c-3,0-5.2-0.7-6.6-1.9s-1.9-3.3-1.9-6.2V72.2h-3.8v-4.7h3.8v-5.9h5.4v5.9h6.7v4.7h-6.7v12.9
			c0,1.6,0.3,2.7,0.9,3.2c0.6,0.6,1.8,1,3.3,1c1,0,2-0.1,3-0.2v4.7c-0.7,0.1-1.2,0.1-1.9,0.2C1143,94.1,1142.2,94.2,1141.3,94.2z"/>
	</g>
</g>
</svg>
