<?xml version="1.0" encoding="utf-8"?>
<!-- Generator: Adobe Illustrator 27.0.0, SVG Export Plug-In . SVG Version: 6.00 Build 0)  -->
<svg version="1.1" id="Layer_1" xmlns="http://www.w3.org/2000/svg" xmlns:xlink="http://www.w3.org/1999/xlink" x="0px" y="0px"
	 viewBox="0 0 828 105" style="enable-background:new 0 0 828 105;" xml:space="preserve">
<style type="text/css">
	.st0{fill:#F4F4B0;}
</style>
<g>
	<path class="st0" d="M52.6,0h722.8c29,0,52.6,23.5,52.6,52.5l0,0c0,29-23.5,52.5-52.6,52.5H52.6C23.5,105,0,81.5,0,52.5l0,0
		C-0.1,23.5,23.5,0,52.6,0z"/>
	<g>
		<path d="M45.8,65.2c-2.1,0-3.8-0.5-5.2-1.3c-1.3-0.9-2.2-2.4-2.5-4.4h4.1c0.3,0.7,0.7,1.3,1.3,1.6s1.4,0.5,2.3,0.5
			c0.7,0,1.4-0.1,2.1-0.3c0.7-0.3,1.2-0.7,1.7-1.3c0.5-0.6,0.9-1.4,1.2-2.4c0.3-1,0.5-2.3,0.5-3.8c-0.3,0.5-0.7,0.9-1.1,1.3
			s-0.9,0.7-1.5,0.9c-0.5,0.2-1.1,0.4-1.7,0.5c-0.6,0.1-1.1,0.1-1.7,0.1c-2.4,0-4.3-0.7-5.7-2s-2.1-3.2-2.1-5.6v-0.3
			c0-1.2,0.2-2.2,0.7-3.2c0.4-1,1-1.8,1.8-2.5c0.7-0.7,1.7-1.3,2.6-1.7c1.1-0.4,2.1-0.6,3.3-0.6c1.5,0,2.7,0.2,3.8,0.7
			c1.1,0.5,2.1,1.1,2.8,2c0.8,0.9,1.4,2,1.8,3.5c0.4,1.4,0.6,3.1,0.6,5v0.7c0,2.3-0.3,4.3-0.7,5.9s-1.1,3-2,4
			c-0.9,1.1-1.8,1.8-2.9,2.2C48.3,65,47.1,65.2,45.8,65.2z M46.2,53.2c1.4,0,2.4-0.4,3.3-1.2c0.9-0.8,1.3-1.8,1.3-3.1v-0.3
			c0-0.6-0.1-1.2-0.3-1.7c-0.2-0.5-0.5-1-0.9-1.4c-0.4-0.4-0.9-0.7-1.5-0.9c-0.5-0.2-1.2-0.3-1.9-0.3c-1.4,0-2.4,0.4-3.3,1.2
			c-0.9,0.8-1.3,1.8-1.3,3.2v0.3c0,1.3,0.4,2.3,1.3,3.1C43.8,52.8,44.8,53.2,46.2,53.2z"/>
		<path d="M66.7,65.2c-1.5,0-2.7-0.2-3.8-0.5c-1.1-0.3-2.1-0.8-2.8-1.4c-0.7-0.6-1.3-1.3-1.7-2.2c-0.4-0.9-0.6-1.8-0.6-2.8
			c0-1.4,0.4-2.6,1.3-3.6c0.9-1.1,2.1-1.8,3.8-2.2c-0.6-0.2-1.2-0.5-1.7-0.8c-0.5-0.3-1-0.7-1.4-1.3c-0.4-0.5-0.7-1-0.9-1.6
			s-0.3-1.2-0.3-1.9c0-0.9,0.2-1.8,0.5-2.6c0.4-0.8,0.9-1.5,1.6-2c0.7-0.6,1.6-1.1,2.6-1.3c1-0.3,2.2-0.5,3.5-0.5s2.5,0.1,3.5,0.5
			c1.1,0.3,1.9,0.8,2.6,1.3c0.7,0.6,1.2,1.3,1.6,2c0.3,0.8,0.5,1.7,0.5,2.6c0,1.4-0.4,2.5-1.3,3.4c-0.8,0.9-1.9,1.7-3.1,2.1
			c1.7,0.5,2.9,1.3,3.8,2.2c0.9,1,1.3,2.2,1.3,3.7c0,1-0.2,1.9-0.6,2.8c-0.4,0.9-1,1.6-1.7,2.2s-1.7,1.1-2.8,1.4
			C69.4,65,68.1,65.2,66.7,65.2z M66.7,61.6c1.7,0,2.8-0.3,3.6-1s1.2-1.5,1.2-2.5c0-1.2-0.5-2.1-1.4-2.8c-0.9-0.7-2.1-1.1-3.4-1.3
			c-1.4,0.2-2.5,0.6-3.4,1.3c-0.9,0.7-1.4,1.7-1.4,2.8c0,1.1,0.4,1.8,1.2,2.5C64,61.3,65.1,61.6,66.7,61.6z M66.7,51
			c1.2-0.2,2.2-0.6,3-1.2c0.8-0.6,1.1-1.5,1.1-2.6c0-1.1-0.4-1.8-1.1-2.3c-0.7-0.5-1.7-0.8-3-0.8s-2.2,0.3-3,0.8
			c-0.7,0.5-1.1,1.3-1.1,2.4c0,1.2,0.4,2,1.2,2.6C64.6,50.5,65.5,50.8,66.7,51z"/>
		<path d="M83,52.2c-0.9,0-1.6-0.1-2.3-0.4c-0.7-0.3-1.3-0.7-1.8-1.2c-0.5-0.5-0.9-1.1-1.1-1.8c-0.3-0.7-0.4-1.5-0.4-2.3v-0.3
			c0-0.9,0.1-1.6,0.4-2.3c0.3-0.7,0.7-1.3,1.1-1.8c0.5-0.5,1.1-0.9,1.8-1.2c0.7-0.3,1.5-0.4,2.3-0.4c0.9,0,1.6,0.1,2.3,0.4
			c0.7,0.3,1.3,0.7,1.8,1.2c0.5,0.5,0.9,1.1,1.2,1.8c0.3,0.7,0.4,1.5,0.4,2.3v0.3c0,0.9-0.1,1.6-0.4,2.3c-0.3,0.7-0.7,1.3-1.2,1.8
			c-0.5,0.5-1.1,0.9-1.8,1.2C84.6,52.1,83.9,52.2,83,52.2z M97.1,40.9h4.1l-16.5,24h-4.1L97.1,40.9z M83,49.1c0.6,0,1.1-0.2,1.5-0.6
			c0.4-0.4,0.5-1.1,0.5-2v-0.3c0-0.9-0.2-1.6-0.5-2c-0.4-0.4-0.9-0.6-1.5-0.6c-0.6,0-1.1,0.2-1.5,0.6c-0.4,0.4-0.5,1.1-0.5,2v0.3
			c0,0.9,0.2,1.6,0.5,2C81.9,48.9,82.4,49.1,83,49.1z M98.7,65.2c-0.9,0-1.6-0.1-2.3-0.4s-1.3-0.7-1.8-1.2s-0.9-1.1-1.1-1.8
			c-0.3-0.7-0.4-1.5-0.4-2.3v-0.3c0-0.9,0.1-1.6,0.4-2.3c0.3-0.7,0.7-1.3,1.1-1.8c0.5-0.5,1.1-0.9,1.8-1.2c0.7-0.3,1.5-0.4,2.3-0.4
			s1.6,0.1,2.3,0.4c0.7,0.3,1.3,0.7,1.8,1.2c0.5,0.5,0.9,1.1,1.2,1.8c0.3,0.7,0.4,1.5,0.4,2.3v0.3c0,0.9-0.1,1.6-0.4,2.3
			c-0.3,0.7-0.7,1.3-1.2,1.8c-0.5,0.5-1.1,0.9-1.8,1.2C100.4,65,99.6,65.2,98.7,65.2z M98.7,62.1c0.6,0,1.1-0.2,1.5-0.6
			c0.4-0.4,0.5-1.1,0.5-2v-0.3c0-0.9-0.2-1.6-0.5-2c-0.4-0.4-0.9-0.6-1.5-0.6s-1.1,0.2-1.5,0.6c-0.4,0.4-0.5,1.1-0.5,2v0.3
			c0,0.9,0.2,1.6,0.5,2C97.7,61.9,98.2,62.1,98.7,62.1z"/>
		<path d="M121.8,65.2c-1.3,0-2.4-0.2-3.4-0.6c-1.1-0.4-1.9-0.9-2.7-1.7c-0.8-0.8-1.4-1.7-1.8-2.9c-0.5-1.2-0.7-2.5-0.7-4.1v-0.7
			c0-1.5,0.2-2.8,0.7-3.9c0.5-1.1,1.1-2,1.9-2.8c0.8-0.7,1.7-1.3,2.7-1.7c1.1-0.4,2.1-0.6,3.3-0.6s2.2,0.1,3.2,0.5
			c0.9,0.3,1.7,0.7,2.4,1.3c0.7,0.5,1.2,1.2,1.6,2c0.4,0.7,0.7,1.6,0.8,2.4h-3.8c-0.2-0.9-0.7-1.5-1.3-2.1c-0.6-0.5-1.5-0.8-2.8-0.8
			c-0.7,0-1.3,0.1-1.8,0.3c-0.6,0.2-1.1,0.5-1.5,1s-0.8,1.1-1.1,1.8c-0.3,0.7-0.4,1.6-0.4,2.6v0.7c0,1.1,0.1,2,0.4,2.8
			s0.6,1.4,1.1,1.8c0.5,0.5,0.9,0.9,1.5,1.1c0.6,0.2,1.2,0.3,1.8,0.3c2.1,0,3.5-1,4-2.9h3.8c-0.2,1-0.5,1.8-0.9,2.6
			c-0.5,0.8-1,1.4-1.7,2c-0.7,0.5-1.5,0.9-2.4,1.3C123.7,65.1,122.8,65.2,121.8,65.2z"/>
		<path d="M132.4,40.9h3.8v8.7c0.2-0.4,0.5-0.8,0.8-1.2c0.3-0.4,0.7-0.7,1.2-1.1c0.5-0.3,1-0.5,1.6-0.7c0.6-0.2,1.3-0.3,2.1-0.3
			c2.2,0,3.9,0.6,5,1.8s1.7,3,1.7,5.3v11.5h-3.8V54.3c0-1.5-0.3-2.7-1-3.4c-0.7-0.8-1.7-1.2-3.2-1.2c-0.8,0-1.5,0.1-2.1,0.4
			c-0.5,0.3-1,0.6-1.4,1.1c-0.3,0.4-0.6,0.9-0.8,1.5c-0.2,0.5-0.3,1.1-0.3,1.7v10.6h-3.6V40.9z"/>
		<path d="M160.2,65.2c-1.2,0-2.4-0.2-3.4-0.6c-1.1-0.4-2.1-0.9-2.8-1.7c-0.8-0.8-1.5-1.7-1.9-2.9c-0.5-1.2-0.7-2.5-0.7-4.1v-0.7
			c0-1.5,0.2-2.8,0.7-4c0.5-1.1,1.1-2,1.9-2.8c0.8-0.7,1.7-1.3,2.7-1.7c1.1-0.4,2.1-0.5,3.3-0.5c2.8,0,4.9,0.7,6.3,2.2
			c1.5,1.5,2.2,3.6,2.2,6.3v1.9H155c0,0.9,0.2,1.7,0.5,2.4s0.7,1.2,1.1,1.6c0.5,0.4,1,0.7,1.6,0.9c0.6,0.2,1.3,0.3,1.9,0.3
			c1.3,0,2.2-0.2,2.8-0.6c0.6-0.4,1-0.9,1.3-1.6h3.8c-0.4,1.8-1.3,3.2-2.7,4.1C163.9,64.8,162.2,65.2,160.2,65.2z M160,49.6
			c-0.7,0-1.3,0.1-1.9,0.3c-0.6,0.1-1.1,0.4-1.5,0.8c-0.5,0.3-0.8,0.8-1.1,1.4c-0.3,0.5-0.4,1.3-0.5,2h9.5c0-0.9-0.1-1.6-0.4-2.1
			c-0.3-0.5-0.6-1.1-1-1.4s-0.9-0.6-1.5-0.7C161.2,49.7,160.7,49.6,160,49.6z"/>
		<path d="M178.8,65.2c-1.3,0-2.4-0.2-3.4-0.6c-1.1-0.4-1.9-0.9-2.7-1.7c-0.8-0.8-1.4-1.7-1.8-2.9c-0.5-1.2-0.7-2.5-0.7-4.1v-0.7
			c0-1.5,0.2-2.8,0.7-3.9c0.5-1.1,1.1-2,1.9-2.8c0.8-0.7,1.7-1.3,2.7-1.7c1.1-0.4,2.1-0.6,3.3-0.6s2.2,0.1,3.2,0.5s1.7,0.7,2.4,1.3
			c0.7,0.5,1.2,1.2,1.6,2c0.4,0.7,0.7,1.6,0.8,2.4h-3.8c-0.2-0.9-0.7-1.5-1.3-2.1c-0.6-0.5-1.5-0.8-2.8-0.8c-0.7,0-1.3,0.1-1.8,0.3
			c-0.6,0.2-1.1,0.5-1.5,1c-0.5,0.5-0.8,1.1-1.1,1.8s-0.4,1.6-0.4,2.6v0.7c0,1.1,0.1,2,0.4,2.8s0.6,1.4,1.1,1.8
			c0.5,0.5,0.9,0.9,1.5,1.1s1.2,0.3,1.8,0.3c2.1,0,3.5-1,4-2.9h3.8c-0.2,1-0.5,1.8-0.9,2.6c-0.5,0.8-1,1.4-1.7,2
			c-0.7,0.5-1.5,0.9-2.4,1.3C180.8,65.1,179.9,65.2,178.8,65.2z"/>
		<path d="M189.5,40.9h3.8v13.7l7.5-7.9h4.4l-7.3,7.7l8,10.4h-4.5l-6-8.1l-2.2,2.2v5.9h-3.8L189.5,40.9L189.5,40.9z"/>
		<path d="M215.5,46.7h3.5v3.1c0.4-0.9,1-1.7,1.8-2.4c0.9-0.7,1.9-1.1,3.1-1.1c0.6,0,1,0,1.3,0.1s0.5,0.1,0.6,0.1v3.4
			c-0.4-0.1-0.7-0.2-1.1-0.3c-0.3-0.1-0.7-0.1-1.2-0.1c-0.7,0-1.4,0.1-1.9,0.4c-0.5,0.3-1,0.6-1.3,1.1c-0.3,0.5-0.6,0.9-0.8,1.5
			c-0.2,0.5-0.3,1.1-0.3,1.7v10.6h-3.8L215.5,46.7L215.5,46.7z"/>
		<path d="M235.6,65.2c-1.2,0-2.4-0.2-3.4-0.6c-1.1-0.4-2.1-0.9-2.8-1.7c-0.8-0.8-1.5-1.7-1.9-2.9c-0.5-1.2-0.7-2.5-0.7-4.1v-0.7
			c0-1.5,0.2-2.8,0.7-4c0.5-1.1,1.1-2,1.9-2.8c0.8-0.7,1.7-1.3,2.7-1.7c1.1-0.4,2.1-0.5,3.3-0.5c2.8,0,4.9,0.7,6.3,2.2
			c1.5,1.5,2.2,3.6,2.2,6.3v1.9h-13.3c0,0.9,0.2,1.7,0.5,2.4c0.3,0.7,0.7,1.2,1.1,1.6c0.5,0.4,1,0.7,1.6,0.9
			c0.6,0.2,1.3,0.3,1.9,0.3c1.3,0,2.2-0.2,2.8-0.6s1-0.9,1.3-1.6h3.8c-0.4,1.8-1.3,3.2-2.7,4.1C239.4,64.8,237.6,65.2,235.6,65.2z
			 M235.5,49.6c-0.7,0-1.3,0.1-1.9,0.3c-0.6,0.1-1.1,0.4-1.5,0.8c-0.5,0.3-0.8,0.8-1.1,1.4c-0.3,0.5-0.4,1.3-0.5,2h9.5
			c0-0.9-0.1-1.6-0.4-2.1c-0.3-0.5-0.6-1.1-1-1.4c-0.4-0.3-0.9-0.6-1.5-0.7C236.6,49.7,236.1,49.6,235.5,49.6z"/>
		<path d="M244.3,46.7h4.1l5.6,14.1l5-14.1h3.8l-7,18.2h-3.8L244.3,46.7z"/>
		<path d="M267.3,44.6c-0.7,0-1.3-0.2-1.7-0.7s-0.7-1-0.7-1.7s0.2-1.3,0.7-1.7s1-0.7,1.7-0.7s1.3,0.2,1.7,0.7s0.7,1,0.7,1.7
			s-0.2,1.3-0.7,1.7S268.1,44.6,267.3,44.6z M265.4,46.7h3.8v18.2h-3.8V46.7z"/>
		<path d="M281.4,65.2c-1.2,0-2.4-0.2-3.4-0.6c-1.1-0.4-2.1-0.9-2.8-1.7c-0.8-0.8-1.5-1.7-1.9-2.9c-0.5-1.2-0.7-2.5-0.7-4.1v-0.7
			c0-1.5,0.2-2.8,0.7-4c0.5-1.1,1.1-2,1.9-2.8c0.8-0.7,1.7-1.3,2.7-1.7c1.1-0.4,2.1-0.5,3.3-0.5c2.8,0,4.9,0.7,6.3,2.2
			c1.5,1.5,2.2,3.6,2.2,6.3v1.9h-13.3c0,0.9,0.2,1.7,0.5,2.4c0.3,0.7,0.7,1.2,1.1,1.6s1,0.7,1.6,0.9c0.6,0.2,1.3,0.3,1.9,0.3
			c1.3,0,2.2-0.2,2.8-0.6s1-0.9,1.3-1.6h3.8c-0.4,1.8-1.3,3.2-2.7,4.1C285.1,64.8,283.4,65.2,281.4,65.2z M281.2,49.6
			c-0.7,0-1.3,0.1-1.9,0.3c-0.6,0.1-1.1,0.4-1.5,0.8c-0.5,0.3-0.8,0.8-1.1,1.4c-0.3,0.5-0.4,1.3-0.5,2h9.5c0-0.9-0.1-1.6-0.4-2.1
			c-0.3-0.5-0.6-1.1-1-1.4c-0.4-0.3-0.9-0.6-1.5-0.7C282.5,49.7,281.8,49.6,281.2,49.6z"/>
		<path d="M290.8,46.7h4l3.3,13.3l4.2-13.3h3.4l4.4,13.3l3.3-13.3h3.7l-5,18.2h-3.8l-4.5-13.3l-4.4,13.3h-3.8L290.8,46.7z"/>
		<path d="M326.3,65.2c-1.3,0-2.5-0.1-3.4-0.5c-0.9-0.3-1.7-0.7-2.4-1.2c-0.7-0.5-1.1-1.1-1.5-1.8c-0.3-0.7-0.5-1.4-0.7-2.1h3.8
			c0.1,0.7,0.5,1.2,1.2,1.6c0.7,0.4,1.6,0.7,3,0.7c1.5,0,2.6-0.2,3.2-0.6s0.9-0.9,0.9-1.6c0-0.3-0.1-0.6-0.3-0.9
			c-0.1-0.3-0.4-0.5-0.8-0.7c-0.3-0.2-0.9-0.4-1.5-0.6c-0.6-0.2-1.3-0.3-2.2-0.5c-1.1-0.1-2-0.3-2.8-0.6c-0.9-0.3-1.6-0.6-2.2-1.1
			c-0.6-0.5-1.1-1-1.4-1.6c-0.3-0.6-0.5-1.4-0.5-2.2c0-0.7,0.1-1.5,0.5-2c0.3-0.6,0.7-1.2,1.4-1.7c0.6-0.5,1.4-0.9,2.3-1.1
			c0.9-0.3,2-0.4,3.2-0.4c1.2,0,2.2,0.1,3.1,0.5c0.9,0.3,1.6,0.7,2.2,1.2c0.6,0.5,1.1,1.1,1.3,1.8c0.3,0.7,0.5,1.4,0.6,2.1h-3.8
			c-0.2-0.7-0.5-1.3-1.1-1.7c-0.5-0.4-1.3-0.6-2.3-0.6c-1.3,0-2.3,0.2-2.8,0.6c-0.5,0.4-0.8,0.9-0.8,1.5c0,0.3,0.1,0.6,0.2,0.9
			c0.1,0.3,0.4,0.5,0.7,0.7c0.3,0.2,0.7,0.4,1.3,0.5c0.5,0.1,1.3,0.3,2.1,0.4c1.1,0.1,2.1,0.3,2.9,0.6s1.7,0.7,2.2,1.1
			c0.7,0.5,1.1,1,1.5,1.7s0.5,1.4,0.5,2.2c0,0.8-0.2,1.5-0.5,2.2s-0.8,1.3-1.5,1.7c-0.7,0.5-1.5,0.9-2.4,1.2
			C328.8,65.1,327.6,65.2,326.3,65.2z"/>
		<path d="M354.2,65.2c-1.5,0-2.8-0.3-3.9-1.1c-1.1-0.7-1.9-1.5-2.2-2.4v3h-3.5v-24h3.8v8.7c0.6-0.9,1.3-1.7,2.4-2.3
			c1-0.6,2.2-0.9,3.6-0.9c2.4,0,4.2,0.7,5.6,2.2c1.4,1.5,2.1,3.7,2.1,6.7V56c0,1.6-0.2,2.9-0.5,4.1c-0.4,1.2-0.9,2.1-1.6,2.9
			c-0.7,0.8-1.5,1.3-2.4,1.7C356.4,65,355.3,65.2,354.2,65.2z M353.3,61.9c1.4,0,2.5-0.5,3.4-1.5s1.3-2.5,1.3-4.5v-0.7
			c0-1.9-0.4-3.4-1.3-4.3c-0.9-0.9-2-1.4-3.4-1.4c-0.7,0-1.3,0.1-1.9,0.3c-0.6,0.2-1.1,0.5-1.6,0.9c-0.5,0.4-0.9,0.9-1.1,1.5
			c-0.3,0.6-0.4,1.3-0.4,2v2.4c0,0.9,0.1,1.7,0.4,2.2c0.3,0.7,0.7,1.2,1.1,1.6c0.5,0.5,1,0.7,1.6,1
			C351.9,61.8,352.6,61.9,353.3,61.9z"/>
		<path d="M372.6,65.2c-1.2,0-2.4-0.2-3.4-0.6c-1.1-0.4-2.1-0.9-2.8-1.7c-0.8-0.8-1.5-1.7-1.9-2.9c-0.5-1.2-0.7-2.5-0.7-4.1v-0.7
			c0-1.5,0.2-2.8,0.7-4c0.5-1.1,1.1-2,1.9-2.8c0.8-0.7,1.7-1.3,2.7-1.7c1.1-0.4,2.1-0.5,3.3-0.5c2.8,0,4.9,0.7,6.3,2.2
			c1.5,1.5,2.2,3.6,2.2,6.3v1.9h-13.3c0,0.9,0.2,1.7,0.5,2.4c0.3,0.7,0.7,1.2,1.1,1.6s1,0.7,1.6,0.9c0.6,0.2,1.3,0.3,1.9,0.3
			c1.3,0,2.2-0.2,2.8-0.6c0.6-0.4,1-0.9,1.3-1.6h3.8c-0.4,1.8-1.3,3.2-2.7,4.1C376.3,64.8,374.6,65.2,372.6,65.2z M372.4,49.6
			c-0.7,0-1.3,0.1-1.9,0.3c-0.6,0.1-1.1,0.4-1.5,0.8s-0.8,0.8-1.1,1.4c-0.3,0.5-0.4,1.3-0.5,2h9.5c0-0.9-0.1-1.6-0.4-2.1
			c-0.3-0.6-0.6-1.1-1-1.4s-0.9-0.6-1.5-0.7C373.7,49.7,373.1,49.6,372.4,49.6z"/>
		<path d="M384.4,49.9H382v-3.2h2.4v-0.5c0-1.8,0.5-3.2,1.4-4.1c0.9-0.9,2.4-1.4,4.6-1.4c0.7,0,1.5,0.1,2.6,0.1v3.3
			c-0.3-0.1-0.7-0.1-1.1-0.1c-0.4,0-0.8,0-1.1,0c-1,0-1.7,0.2-2,0.5c-0.4,0.3-0.6,1-0.6,1.8v0.3h4.4v3.2h-4.4v14.9h-3.8V49.9z"/>
		<path d="M402.6,65.2c-1.3,0-2.4-0.2-3.5-0.6c-1.1-0.4-2.1-1-2.8-1.8s-1.5-1.7-1.9-2.9c-0.5-1.1-0.7-2.5-0.7-4v-0.7
			c0-1.5,0.2-2.7,0.7-3.8c0.5-1.1,1.1-2,1.9-2.8c0.8-0.8,1.7-1.3,2.8-1.7c1.1-0.4,2.2-0.6,3.5-0.6c1.3,0,2.4,0.2,3.5,0.6
			c1.1,0.4,2.1,1,2.8,1.7c0.8,0.7,1.5,1.7,1.9,2.8c0.5,1.1,0.7,2.4,0.7,3.8v0.7c0,1.5-0.2,2.8-0.7,4c-0.5,1.1-1.1,2.1-1.9,2.9
			c-0.9,0.8-1.7,1.4-2.8,1.8C405,65,403.8,65.2,402.6,65.2z M402.6,61.9c0.7,0,1.3-0.1,1.9-0.3s1.1-0.6,1.6-1.1s0.9-1.1,1.1-1.8
			c0.3-0.7,0.4-1.7,0.4-2.7v-0.7c0-1-0.1-1.8-0.4-2.5c-0.3-0.7-0.7-1.3-1.1-1.7c-0.5-0.5-1-0.8-1.6-1.1c-0.6-0.2-1.3-0.3-1.9-0.3
			c-0.7,0-1.3,0.1-1.9,0.3s-1.1,0.6-1.6,1.1s-0.9,1.1-1.1,1.7c-0.3,0.7-0.4,1.6-0.4,2.5V56c0,1.1,0.1,2,0.4,2.7
			c0.3,0.7,0.7,1.4,1.1,1.8c0.5,0.5,1,0.9,1.6,1.1C401.3,61.8,401.9,61.9,402.6,61.9z"/>
		<path d="M414.4,46.7h3.5v3.1c0.4-0.9,1-1.7,1.8-2.4c0.9-0.7,1.9-1.1,3.1-1.1c0.6,0,1,0,1.3,0.1c0.3,0.1,0.5,0.1,0.6,0.1v3.4
			c-0.4-0.1-0.7-0.2-1.1-0.3c-0.3-0.1-0.7-0.1-1.2-0.1c-0.7,0-1.4,0.1-1.9,0.4c-0.5,0.3-1,0.6-1.3,1.1c-0.3,0.5-0.6,0.9-0.8,1.5
			c-0.2,0.5-0.3,1.1-0.3,1.7v10.6h-3.8L414.4,46.7L414.4,46.7z"/>
		<path d="M434.5,65.2c-1.2,0-2.4-0.2-3.4-0.6c-1.1-0.4-2.1-0.9-2.8-1.7s-1.5-1.7-1.9-2.9c-0.5-1.2-0.7-2.5-0.7-4.1v-0.7
			c0-1.5,0.2-2.8,0.7-4c0.5-1.1,1.1-2,1.9-2.8c0.8-0.7,1.7-1.3,2.7-1.7c1.1-0.4,2.1-0.5,3.3-0.5c2.8,0,4.9,0.7,6.3,2.2
			c1.5,1.5,2.2,3.6,2.2,6.3v1.9h-13.3c0,0.9,0.2,1.7,0.5,2.4c0.3,0.7,0.7,1.2,1.1,1.6s1,0.7,1.6,0.9c0.6,0.2,1.3,0.3,1.9,0.3
			c1.3,0,2.2-0.2,2.8-0.6s1-0.9,1.3-1.6h3.8c-0.4,1.8-1.3,3.2-2.7,4.1C438.2,64.8,436.5,65.2,434.5,65.2z M434.3,49.6
			c-0.7,0-1.3,0.1-1.9,0.3c-0.6,0.1-1.1,0.4-1.5,0.8s-0.8,0.8-1.1,1.4c-0.3,0.5-0.4,1.3-0.5,2h9.5c0-0.9-0.1-1.6-0.4-2.1
			c-0.3-0.6-0.6-1.1-1-1.4s-0.9-0.6-1.5-0.7C435.6,49.7,434.9,49.6,434.3,49.6z"/>
		<path d="M460.5,65.2c-1.3,0-2.4-0.2-3.4-0.6c-1.1-0.4-1.9-0.9-2.7-1.7c-0.8-0.8-1.4-1.7-1.8-2.9c-0.4-1.2-0.7-2.5-0.7-4.1v-0.7
			c0-1.5,0.2-2.8,0.7-3.9c0.5-1.1,1.1-2,1.9-2.8c0.8-0.7,1.7-1.3,2.7-1.7c1.1-0.4,2.1-0.6,3.3-0.6c1.2,0,2.2,0.1,3.2,0.5
			c0.9,0.3,1.7,0.7,2.4,1.3c0.7,0.5,1.2,1.2,1.6,2c0.4,0.8,0.7,1.6,0.8,2.4h-3.8c-0.2-0.9-0.7-1.5-1.3-2.1c-0.6-0.5-1.5-0.8-2.8-0.8
			c-0.7,0-1.3,0.1-1.8,0.3c-0.6,0.2-1.1,0.5-1.5,1s-0.8,1.1-1.1,1.8c-0.3,0.7-0.4,1.6-0.4,2.6v0.7c0,1.1,0.1,2,0.4,2.8
			c0.3,0.8,0.6,1.4,1.1,1.8c0.5,0.5,0.9,0.9,1.5,1.1c0.6,0.2,1.2,0.3,1.8,0.3c2.1,0,3.5-1,4-2.9h3.8c-0.2,1-0.5,1.8-0.9,2.6
			c-0.5,0.8-1,1.4-1.7,2c-0.7,0.5-1.5,0.9-2.4,1.3C462.5,65.1,461.6,65.2,460.5,65.2z"/>
		<path d="M471.2,40.9h3.8v8.7c0.2-0.4,0.5-0.8,0.8-1.2c0.3-0.4,0.7-0.7,1.2-1.1c0.5-0.3,1-0.5,1.6-0.7c0.6-0.2,1.3-0.3,2.1-0.3
			c2.2,0,3.9,0.6,5,1.8s1.7,3,1.7,5.3v11.5h-3.8V54.3c0-1.5-0.3-2.7-1-3.4c-0.7-0.7-1.7-1.2-3.2-1.2c-0.8,0-1.5,0.1-2.1,0.4
			c-0.5,0.3-1,0.6-1.4,1.1c-0.3,0.4-0.6,0.9-0.8,1.5c-0.2,0.5-0.3,1.1-0.3,1.7v10.6H471v-24H471.2z"/>
		<path d="M499,65.2c-1.3,0-2.4-0.2-3.5-0.6c-1.1-0.4-2.1-1-2.8-1.8c-0.8-0.8-1.5-1.7-1.9-2.9c-0.5-1.1-0.7-2.5-0.7-4v-0.7
			c0-1.5,0.2-2.7,0.7-3.8c0.5-1.1,1.1-2,1.9-2.8c0.8-0.8,1.7-1.3,2.8-1.7c1.1-0.4,2.2-0.6,3.5-0.6c1.3,0,2.4,0.2,3.5,0.6
			c1.1,0.4,2.1,1,2.8,1.7s1.5,1.7,1.9,2.8c0.5,1.1,0.7,2.4,0.7,3.8v0.7c0,1.5-0.2,2.8-0.7,4c-0.5,1.1-1.1,2.1-1.9,2.9
			c-0.9,0.8-1.7,1.4-2.8,1.8C501.4,65,500.2,65.2,499,65.2z M499,61.9c0.7,0,1.3-0.1,1.9-0.3s1.1-0.6,1.6-1.1
			c0.5-0.5,0.9-1.1,1.1-1.8c0.3-0.7,0.4-1.7,0.4-2.7v-0.7c0-1-0.1-1.8-0.4-2.5c-0.3-0.7-0.7-1.3-1.1-1.7c-0.5-0.5-1-0.8-1.6-1.1
			c-0.6-0.2-1.3-0.3-1.9-0.3c-0.7,0-1.3,0.1-1.9,0.3s-1.1,0.6-1.6,1.1s-0.9,1.1-1.1,1.7c-0.3,0.7-0.4,1.6-0.4,2.5V56
			c0,1.1,0.1,2,0.4,2.7c0.3,0.7,0.7,1.4,1.1,1.8c0.5,0.5,1,0.9,1.6,1.1C497.7,61.8,498.3,61.9,499,61.9z"/>
		<path d="M518.7,65.2c-1.3,0-2.4-0.2-3.5-0.6s-2.1-1-2.8-1.8c-0.8-0.8-1.5-1.7-1.9-2.9c-0.5-1.1-0.7-2.5-0.7-4v-0.7
			c0-1.5,0.2-2.7,0.7-3.8c0.5-1.1,1.1-2,1.9-2.8c0.8-0.8,1.7-1.3,2.8-1.7c1.1-0.4,2.2-0.6,3.5-0.6c1.3,0,2.4,0.2,3.5,0.6
			c1.1,0.4,2.1,1,2.8,1.7c0.8,0.7,1.5,1.7,1.9,2.8c0.5,1.1,0.7,2.4,0.7,3.8v0.7c0,1.5-0.2,2.8-0.7,4c-0.5,1.1-1.1,2.1-1.9,2.9
			c-0.9,0.8-1.7,1.4-2.8,1.8C521.1,65,519.9,65.2,518.7,65.2z M518.7,61.9c0.7,0,1.3-0.1,1.9-0.3s1.1-0.6,1.6-1.1
			c0.5-0.5,0.9-1.1,1.1-1.8c0.3-0.7,0.4-1.7,0.4-2.7v-0.7c0-1-0.1-1.8-0.4-2.5c-0.3-0.7-0.7-1.3-1.1-1.7c-0.5-0.5-1-0.8-1.6-1.1
			c-0.6-0.2-1.3-0.3-1.9-0.3s-1.3,0.1-1.9,0.3s-1.1,0.6-1.6,1.1c-0.5,0.5-0.9,1.1-1.1,1.7c-0.3,0.7-0.4,1.6-0.4,2.5V56
			c0,1.1,0.1,2,0.4,2.7c0.3,0.7,0.7,1.4,1.1,1.8c0.5,0.5,1,0.9,1.6,1.1C517.4,61.8,518,61.9,518.7,61.9z"/>
		<path d="M537.4,65.2c-1.3,0-2.5-0.1-3.4-0.5c-0.9-0.3-1.7-0.7-2.4-1.2c-0.7-0.5-1.1-1.1-1.5-1.8s-0.5-1.4-0.7-2.1h3.8
			c0.1,0.7,0.5,1.2,1.2,1.6c0.7,0.4,1.6,0.7,3,0.7c1.5,0,2.6-0.2,3.2-0.6c0.6-0.4,0.9-0.9,0.9-1.6c0-0.3-0.1-0.6-0.3-0.9
			c-0.1-0.3-0.4-0.5-0.8-0.7c-0.3-0.2-0.9-0.4-1.5-0.6c-0.6-0.2-1.3-0.3-2.2-0.5c-1.1-0.1-2-0.3-2.8-0.6s-1.6-0.6-2.2-1.1
			c-0.6-0.5-1.1-1-1.4-1.6c-0.3-0.6-0.5-1.4-0.5-2.2c0-0.7,0.1-1.5,0.5-2c0.3-0.6,0.7-1.2,1.4-1.7c0.6-0.5,1.4-0.9,2.3-1.1
			c0.9-0.3,2-0.4,3.2-0.4c1.2,0,2.2,0.1,3.1,0.5c0.9,0.3,1.6,0.7,2.2,1.2c0.6,0.5,1.1,1.1,1.3,1.8c0.3,0.7,0.5,1.4,0.6,2.1h-3.8
			c-0.2-0.7-0.5-1.3-1.1-1.7c-0.5-0.4-1.3-0.6-2.3-0.6c-1.3,0-2.3,0.2-2.8,0.6c-0.5,0.4-0.8,0.9-0.8,1.5c0,0.3,0.1,0.6,0.2,0.9
			c0.1,0.3,0.4,0.5,0.7,0.7c0.3,0.2,0.7,0.4,1.3,0.5c0.5,0.1,1.3,0.3,2.1,0.4c1.1,0.1,2.1,0.3,2.9,0.6c0.9,0.3,1.7,0.7,2.2,1.1
			c0.7,0.5,1.1,1,1.5,1.7c0.3,0.7,0.5,1.4,0.5,2.2c0,0.8-0.2,1.5-0.5,2.2c-0.3,0.7-0.8,1.3-1.5,1.7c-0.7,0.5-1.5,0.9-2.4,1.2
			C539.8,65.1,538.7,65.2,537.4,65.2z"/>
		<path d="M550.4,44.6c-0.7,0-1.3-0.2-1.7-0.7c-0.5-0.5-0.7-1-0.7-1.7s0.2-1.3,0.7-1.7c0.5-0.5,1-0.7,1.7-0.7s1.3,0.2,1.7,0.7
			c0.5,0.5,0.7,1,0.7,1.7s-0.2,1.3-0.7,1.7C551.7,44.4,551.1,44.6,550.4,44.6z M548.5,46.7h3.8v18.2h-3.8V46.7z"/>
		<path d="M556.6,46.7h3.5v3c0.5-0.9,1.1-1.7,2.1-2.4c1-0.7,2.2-1.1,3.8-1.1c2.2,0,3.9,0.6,5,1.8c1.1,1.2,1.7,3,1.7,5.3v11.5h-3.8
			V54.2c0-1.5-0.3-2.7-1-3.4c-0.7-0.7-1.7-1.2-3.2-1.2c-0.8,0-1.5,0.1-2.1,0.4c-0.5,0.3-1,0.6-1.4,1.1c-0.3,0.4-0.6,0.9-0.8,1.5
			c-0.2,0.5-0.3,1.1-0.3,1.7v10.6h-3.8L556.6,46.7L556.6,46.7z"/>
		<path d="M584,72c-1.4,0-2.6-0.1-3.6-0.4c-1-0.3-1.7-0.7-2.4-1.1c-0.6-0.5-1.1-1.1-1.4-1.7c-0.3-0.7-0.5-1.4-0.6-2.1h3.8
			c0.1,0.3,0.2,0.5,0.4,0.8c0.2,0.3,0.4,0.5,0.7,0.7c0.3,0.2,0.7,0.4,1.2,0.5c0.5,0.1,1.1,0.2,1.7,0.2c1.7,0,3-0.4,3.8-1.3
			c0.8-0.8,1.2-2,1.2-3.5v-2.6c-0.6,1-1.3,1.7-2.3,2.4c-1,0.6-2.2,0.9-3.5,0.9c-1.2,0-2.2-0.2-3.2-0.6c-0.9-0.4-1.7-1-2.4-1.7
			s-1.2-1.7-1.6-2.8c-0.4-1.1-0.5-2.4-0.5-4v-0.7c0-1.4,0.2-2.6,0.5-3.8c0.3-1.1,0.9-2,1.6-2.7c0.7-0.7,1.5-1.3,2.4-1.7
			c0.9-0.4,2-0.6,3.1-0.6c1.5,0,2.8,0.3,3.9,1.1c1.1,0.7,1.9,1.5,2.2,2.4v-3.1h3.5V64c0,2.6-0.7,4.6-2.2,5.9
			C589.1,71.4,586.9,72,584,72z M583.9,61.6c0.7,0,1.3-0.1,1.9-0.3c0.6-0.2,1.1-0.5,1.6-0.9c0.5-0.4,0.8-0.9,1.1-1.6
			c0.3-0.7,0.4-1.3,0.4-2.2v-2.4c0-0.7-0.1-1.4-0.4-2c-0.3-0.6-0.7-1.1-1.1-1.5c-0.5-0.4-1-0.7-1.6-0.9c-0.6-0.2-1.3-0.3-1.9-0.3
			c-1.5,0-2.6,0.5-3.4,1.3c-0.9,0.9-1.3,2.2-1.3,4.1v0.7c0,1.9,0.5,3.4,1.3,4.4C581.4,61.1,582.6,61.6,583.9,61.6z"/>
		<path d="M609.4,65.2c-1,0-1.9-0.1-2.6-0.4s-1.4-0.7-1.9-1.2c-0.5-0.5-0.9-1.1-1.2-1.8c-0.3-0.7-0.4-1.5-0.4-2.2
			c0-1.8,0.5-3.2,1.6-4s2.6-1.3,4.8-1.3h5.7v-1c0-1.4-0.3-2.3-0.9-2.8s-1.6-0.8-2.8-0.8c-1.2,0-2.1,0.2-2.6,0.5
			c-0.5,0.4-0.9,0.9-1,1.5h-3.6c0.1-0.8,0.3-1.5,0.6-2.1c0.3-0.7,0.9-1.2,1.5-1.7c0.7-0.5,1.4-0.9,2.2-1.1c0.9-0.3,1.9-0.4,3-0.4
			c1.1,0,2.1,0.1,3,0.4c0.9,0.3,1.7,0.7,2.3,1.2c0.7,0.5,1.1,1.3,1.5,2c0.3,0.9,0.5,1.8,0.5,3v7.2c0,1,0,1.8,0.1,2.5
			c0,0.7,0.1,1.5,0.2,2.1h-3.4c-0.1-0.5-0.1-1-0.1-1.3c-0.1-0.4-0.1-0.8-0.1-1.4c-0.5,0.9-1.2,1.6-2.2,2.2
			C612.4,64.9,610.9,65.2,609.4,65.2z M610.4,61.9c0.7,0,1.3-0.1,1.9-0.3c0.6-0.2,1.1-0.4,1.5-0.7c0.5-0.3,0.8-0.7,1.1-1.3
			c0.3-0.5,0.4-1.1,0.4-1.7v-1h-5c-1,0-1.7,0.2-2.3,0.6c-0.6,0.4-0.9,1-0.9,1.8c0,0.7,0.3,1.4,0.8,1.8
			C608.4,61.7,609.3,61.9,610.4,61.9z"/>
		<path d="M630.1,46.7h3.5v3.1c0.4-0.9,1-1.7,1.8-2.4c0.9-0.7,1.9-1.1,3.1-1.1c0.6,0,1,0,1.3,0.1s0.5,0.1,0.6,0.1v3.4
			c-0.4-0.1-0.7-0.2-1.1-0.3c-0.3-0.1-0.7-0.1-1.2-0.1c-0.7,0-1.4,0.1-1.9,0.4c-0.5,0.3-1,0.6-1.3,1.1c-0.3,0.5-0.6,0.9-0.8,1.5
			s-0.3,1.1-0.3,1.7v10.6H630L630.1,46.7L630.1,46.7z"/>
		<path d="M650.2,65.2c-1.2,0-2.4-0.2-3.4-0.6c-1.1-0.4-2.1-0.9-2.8-1.7c-0.8-0.8-1.5-1.7-1.9-2.9c-0.5-1.2-0.7-2.5-0.7-4.1v-0.7
			c0-1.5,0.2-2.8,0.7-4c0.5-1.1,1.1-2,1.9-2.8c0.8-0.7,1.7-1.3,2.7-1.7c1.1-0.4,2.1-0.5,3.3-0.5c2.8,0,4.9,0.7,6.3,2.2
			c1.5,1.5,2.2,3.6,2.2,6.3v1.9h-13.3c0,0.9,0.2,1.7,0.5,2.4s0.7,1.2,1.1,1.6s1,0.7,1.6,0.9c0.6,0.2,1.3,0.3,1.9,0.3
			c1.3,0,2.2-0.2,2.8-0.6s1-0.9,1.3-1.6h3.8c-0.4,1.8-1.3,3.2-2.7,4.1C654,64.8,652.2,65.2,650.2,65.2z M650,49.6
			c-0.7,0-1.3,0.1-1.9,0.3c-0.6,0.1-1.1,0.4-1.5,0.8c-0.4,0.4-0.8,0.8-1.1,1.4c-0.3,0.5-0.4,1.3-0.5,2h9.5c0-0.9-0.1-1.6-0.4-2.1
			c-0.3-0.6-0.6-1.1-1-1.4c-0.4-0.3-0.9-0.6-1.5-0.7C651.3,49.7,650.7,49.6,650,49.6z"/>
		<path d="M668.2,65.2c-1.3,0-2.5-0.1-3.4-0.5c-0.9-0.3-1.7-0.7-2.4-1.2c-0.7-0.5-1.1-1.1-1.5-1.8c-0.3-0.7-0.5-1.4-0.7-2.1h3.8
			c0.1,0.7,0.5,1.2,1.2,1.6c0.7,0.4,1.6,0.7,3,0.7c1.5,0,2.6-0.2,3.2-0.6c0.6-0.4,0.9-0.9,0.9-1.6c0-0.3-0.1-0.6-0.3-0.9
			c-0.1-0.3-0.4-0.5-0.8-0.7c-0.3-0.2-0.9-0.4-1.5-0.6c-0.6-0.2-1.3-0.3-2.2-0.5c-1.1-0.1-2-0.3-2.8-0.6s-1.6-0.6-2.2-1.1
			c-0.6-0.5-1.1-1-1.4-1.6c-0.3-0.6-0.5-1.4-0.5-2.2c0-0.7,0.1-1.5,0.5-2c0.3-0.6,0.7-1.2,1.4-1.7c0.6-0.5,1.4-0.9,2.3-1.1
			s2-0.4,3.2-0.4c1.2,0,2.2,0.1,3.1,0.5c0.9,0.3,1.6,0.7,2.2,1.2c0.6,0.5,1.1,1.1,1.3,1.8c0.3,0.7,0.5,1.4,0.6,2.1h-3.8
			c-0.2-0.7-0.5-1.3-1.1-1.7c-0.5-0.4-1.3-0.6-2.3-0.6c-1.3,0-2.3,0.2-2.8,0.6c-0.5,0.4-0.8,0.9-0.8,1.5c0,0.3,0.1,0.6,0.2,0.9
			c0.1,0.3,0.4,0.5,0.7,0.7c0.3,0.2,0.7,0.4,1.3,0.5c0.5,0.1,1.3,0.3,2.1,0.4c1.1,0.1,2.1,0.3,2.9,0.6s1.7,0.7,2.2,1.1
			c0.7,0.5,1.1,1,1.5,1.7s0.5,1.4,0.5,2.2c0,0.8-0.2,1.5-0.5,2.2s-0.8,1.3-1.5,1.7c-0.7,0.5-1.5,0.9-2.4,1.2
			C670.7,65.1,669.5,65.2,668.2,65.2z"/>
		<path d="M686,65c-2.1,0-3.6-0.5-4.5-1.3c-0.9-0.9-1.3-2.3-1.3-4.3v-9.5h-2.6v-3.2h2.6v-4.1h3.8v4.1h4.6v3.2h-4.6v8.9
			c0,1.1,0.2,1.8,0.6,2.2c0.4,0.4,1.2,0.7,2.3,0.7c0.7,0,1.4-0.1,2.1-0.1v3.2c-0.5,0.1-0.9,0.1-1.3,0.1C687.1,65,686.6,65,686,65z"
			/>
		<path d="M697.2,65.2c-1,0-1.9-0.1-2.6-0.4s-1.4-0.7-1.9-1.2c-0.5-0.5-0.9-1.1-1.2-1.8s-0.4-1.5-0.4-2.2c0-1.8,0.5-3.2,1.6-4
			s2.6-1.3,4.8-1.3h5.7v-1c0-1.4-0.3-2.3-0.9-2.8c-0.6-0.5-1.6-0.8-2.8-0.8c-1.2,0-2.1,0.2-2.6,0.5c-0.5,0.4-0.9,0.9-1,1.5h-3.6
			c0.1-0.8,0.3-1.5,0.6-2.1c0.3-0.7,0.9-1.2,1.5-1.7c0.7-0.5,1.4-0.9,2.2-1.1c0.9-0.3,1.9-0.4,3-0.4s2.1,0.1,3,0.4s1.7,0.7,2.3,1.2
			c0.7,0.5,1.1,1.3,1.5,2c0.3,0.9,0.5,1.8,0.5,3v7.2c0,1,0,1.8,0.1,2.5c0,0.7,0.1,1.5,0.2,2.1h-3.4c-0.1-0.5-0.1-1-0.1-1.3
			c-0.1-0.4-0.1-0.8-0.1-1.4c-0.5,0.9-1.2,1.6-2.2,2.2C700.2,64.9,698.7,65.2,697.2,65.2z M698.2,61.9c0.7,0,1.3-0.1,1.9-0.3
			c0.6-0.2,1.1-0.4,1.5-0.7c0.5-0.3,0.8-0.7,1.1-1.3c0.3-0.5,0.4-1.1,0.4-1.7v-1h-5c-1,0-1.7,0.2-2.3,0.6s-0.9,1-0.9,1.8
			c0,0.7,0.3,1.4,0.8,1.8C696.2,61.7,697,61.9,698.2,61.9z"/>
		<path d="M716.9,65.2c-2.1,0-3.8-0.6-4.9-1.8c-1.1-1.3-1.7-3.2-1.7-5.7v-11h3.8v10.6c0,1.5,0.3,2.7,0.9,3.4c0.7,0.8,1.7,1.2,3,1.2
			c0.7,0,1.4-0.1,1.9-0.4s1-0.6,1.3-1.1c0.3-0.5,0.6-0.9,0.8-1.5c0.2-0.5,0.3-1.1,0.3-1.7V46.7h3.8v18.2h-3.5v-3.1
			c-0.5,0.9-1.1,1.7-2.1,2.4C719.6,64.9,718.3,65.2,716.9,65.2z"/>
		<path d="M730.1,46.7h3.5v3.1c0.4-0.9,1-1.7,1.8-2.4c0.9-0.7,1.9-1.1,3.1-1.1c0.6,0,1,0,1.3,0.1c0.3,0.1,0.5,0.1,0.6,0.1v3.4
			c-0.4-0.1-0.7-0.2-1.1-0.3c-0.3-0.1-0.7-0.1-1.2-0.1c-0.7,0-1.4,0.1-1.9,0.4c-0.5,0.3-1,0.6-1.3,1.1c-0.3,0.5-0.6,0.9-0.8,1.5
			c-0.2,0.5-0.3,1.1-0.3,1.7v10.6H730L730.1,46.7L730.1,46.7z"/>
		<path d="M747.2,65.2c-1,0-1.9-0.1-2.6-0.4s-1.4-0.7-1.9-1.2c-0.5-0.5-0.9-1.1-1.2-1.8c-0.3-0.7-0.4-1.5-0.4-2.2
			c0-1.8,0.5-3.2,1.6-4c1.1-0.9,2.6-1.3,4.8-1.3h5.7v-1c0-1.4-0.3-2.3-0.9-2.8s-1.6-0.8-2.8-0.8c-1.2,0-2.1,0.2-2.6,0.5
			c-0.5,0.4-0.9,0.9-1,1.5h-3.6c0.1-0.8,0.3-1.5,0.6-2.1c0.3-0.7,0.9-1.2,1.5-1.7c0.7-0.5,1.4-0.9,2.2-1.1c0.9-0.3,1.9-0.4,3-0.4
			s2.1,0.1,3,0.4s1.7,0.7,2.3,1.2c0.7,0.5,1.1,1.3,1.5,2c0.3,0.9,0.5,1.8,0.5,3v7.2c0,1,0,1.8,0.1,2.5c0,0.7,0.1,1.5,0.2,2.1h-3.4
			c-0.1-0.5-0.1-1-0.1-1.3c-0.1-0.4-0.1-0.8-0.1-1.4c-0.5,0.9-1.2,1.6-2.2,2.2C750.2,64.9,748.8,65.2,747.2,65.2z M748.2,61.9
			c0.7,0,1.3-0.1,1.9-0.3c0.6-0.2,1.1-0.4,1.5-0.7c0.5-0.3,0.8-0.7,1.1-1.3c0.3-0.5,0.4-1.1,0.4-1.7v-1h-5c-1,0-1.7,0.2-2.3,0.6
			s-0.9,1-0.9,1.8c0,0.7,0.3,1.4,0.8,1.8C746.3,61.7,747.1,61.9,748.2,61.9z"/>
		<path d="M760.6,46.7h3.5v3c0.5-0.9,1.1-1.7,2.1-2.4c1-0.7,2.2-1.1,3.8-1.1c2.2,0,3.9,0.6,5,1.8c1.1,1.2,1.7,3,1.7,5.3v11.5H773
			V54.2c0-1.5-0.3-2.7-1-3.4s-1.7-1.2-3.2-1.2c-0.8,0-1.5,0.1-2.1,0.4c-0.5,0.3-1,0.6-1.4,1.1c-0.3,0.4-0.6,0.9-0.8,1.5
			c-0.2,0.5-0.3,1.1-0.3,1.7v10.6h-3.8L760.6,46.7L760.6,46.7z"/>
		<path d="M787.5,65c-2.1,0-3.6-0.5-4.5-1.3c-0.9-0.9-1.3-2.3-1.3-4.3v-9.5h-2.6v-3.2h2.6v-4.1h3.8v4.1h4.6v3.2h-4.6v8.9
			c0,1.1,0.2,1.8,0.6,2.2c0.4,0.4,1.2,0.7,2.3,0.7c0.7,0,1.4-0.1,2.1-0.1v3.2c-0.5,0.1-0.9,0.1-1.3,0.1C788.6,65,788.1,65,787.5,65z
			"/>
	</g>
</g>
</svg>
