<?xml version="1.0" encoding="utf-8"?>
<!-- Generator: Adobe Illustrator 27.0.0, SVG Export Plug-In . SVG Version: 6.00 Build 0)  -->
<svg version="1.1" id="Layer_1" xmlns="http://www.w3.org/2000/svg" xmlns:xlink="http://www.w3.org/1999/xlink" x="0px" y="0px"
	 viewBox="0 0 2048 310" style="enable-background:new 0 0 2048 310;" xml:space="preserve">
<style type="text/css">
	.st0{fill:#F4F4B0;}
</style>
<g>
	<path class="st0" d="M155.2,0h1737.7c85.8,0,155.2,69.3,155.2,155l0,0c0,85.7-69.4,155-155.2,155H155.2C69.4,310,0,240.7,0,155l0,0
		C-0.2,69.5,69.4,0,155.2,0z"/>
	<g>
		<path d="M138.2,192.9c-6.2,0-11.4-1.4-15.4-4c-4-2.6-6.6-7-7.6-12.9h12.2c0.8,2.2,2,3.8,3.8,4.6c1.8,1,4,1.4,7,1.4
			c2.2,0,4.2-0.4,6.2-1c2-0.8,3.6-2,5-3.8s2.6-4.2,3.6-7.2c0.8-3,1.4-6.8,1.4-11.4c-0.8,1.4-2,2.8-3.4,3.8s-2.8,2-4.4,2.6
			c-1.6,0.6-3.2,1.2-5,1.4c-1.8,0.4-3.4,0.4-5,0.4c-7.2,0-12.8-2-16.8-6c-4-4-6-9.6-6-16.7v-1c0-3.6,0.6-6.8,1.8-9.6
			c1.2-3,3-5.4,5.2-7.6c2.2-2.2,4.8-3.8,8-4.8c3-1.2,6.4-1.8,9.8-1.8c4.2,0,8,0.6,11.4,2c3.4,1.2,6.2,3.2,8.4,6
			c2.4,2.6,4,6.2,5.4,10.4c1.2,4.2,1.8,9.2,1.8,14.9v2c0,7-0.8,12.8-2.2,17.5s-3.4,8.8-5.8,11.8c-2.4,3-5.4,5.2-8.8,6.6
			C145.8,192.1,142.2,192.9,138.2,192.9z M139.6,157.2c4,0,7.4-1.2,9.8-3.6c2.4-2.4,3.8-5.6,3.8-9.4v-1c0-1.8-0.4-3.6-1-5.2
			s-1.6-3-2.8-4.2s-2.6-2.2-4.2-2.8c-1.6-0.6-3.4-1-5.4-1c-4,0-7.4,1.2-9.8,3.6s-3.8,5.6-3.8,9.4v1c0,3.8,1.2,7,3.8,9.4
			C132.2,156,135.4,157.2,139.6,157.2z"/>
		<path d="M205.8,175.5h-35.1v-9l34.5-46H218V165h8.6v10.6H218v16.1h-12.2C205.8,191.7,205.8,175.5,205.8,175.5z M205.8,165v-30.5
			L182.9,165C182.9,165,205.8,165,205.8,165z"/>
		<path d="M248.1,154.2c-2.6,0-4.8-0.4-6.8-1.2s-3.8-2-5.4-3.4c-1.4-1.4-2.6-3.2-3.4-5.4c-0.8-2-1.2-4.4-1.2-6.8v-1
			c0-2.6,0.4-4.8,1.2-6.8c0.8-2,2-3.8,3.4-5.4c1.4-1.4,3.2-2.6,5.4-3.4c2-0.8,4.4-1.2,6.8-1.2c2.6,0,4.8,0.4,6.8,1.2
			c2,0.8,3.8,2,5.4,3.4c1.4,1.4,2.6,3.2,3.4,5.4c0.8,2,1.2,4.4,1.2,6.8v1c0,2.6-0.4,4.8-1.2,6.8c-0.8,2-2,3.8-3.4,5.4
			c-1.4,1.4-3.2,2.6-5.4,3.4C252.9,153.8,250.7,154.2,248.1,154.2z M289.8,120.5h12.2l-48.9,71.1h-12.2L289.8,120.5z M248.1,145
			c1.8,0,3.2-0.6,4.4-1.8c1-1.2,1.6-3.2,1.6-6v-1c0-2.8-0.6-4.6-1.6-6c-1-1.2-2.6-1.8-4.4-1.8c-1.8,0-3.2,0.6-4.4,1.8
			c-1,1.2-1.6,3.2-1.6,6v1c0,2.8,0.6,4.6,1.6,6C244.7,144.4,246.3,145,248.1,145z M295,192.7c-2.6,0-4.8-0.4-6.8-1.2
			c-2-0.8-3.8-2-5.4-3.4c-1.4-1.4-2.6-3.2-3.4-5.4c-0.8-2-1.2-4.4-1.2-6.8v-1.2c0-2.6,0.4-4.8,1.2-6.8c0.8-2,2-3.8,3.4-5.4
			c1.4-1.4,3.2-2.6,5.4-3.4c2-0.8,4.4-1.2,6.8-1.2c2.6,0,4.8,0.4,6.8,1.2s3.8,2,5.4,3.4c1.4,1.4,2.6,3.2,3.4,5.4
			c0.8,2,1.2,4.4,1.2,6.8v1c0,2.6-0.4,4.8-1.2,6.8c-0.8,2-2,3.8-3.4,5.4c-1.4,1.4-3.2,2.6-5.4,3.4
			C299.8,192.3,297.4,192.7,295,192.7z M295,183.5c1.8,0,3.2-0.6,4.4-1.8c1-1.2,1.6-3.2,1.6-6v-1c0-2.8-0.6-4.6-1.6-6
			c-1-1.2-2.6-1.8-4.4-1.8c-1.8,0-3.2,0.6-4.4,1.8c-1,1.2-1.6,3.2-1.6,6v1c0,2.8,0.6,4.6,1.6,6C291.6,182.9,293,183.5,295,183.5z"/>
		<path d="M356.4,192.9c-3,0-5.6-0.4-7.8-1.2c-2.2-0.8-4.2-2-5.8-3.6c-1.6-1.6-2.8-3.4-3.6-5.4c-0.8-2-1.2-4.2-1.2-6.8
			c0-5.4,1.6-9.4,4.8-12c3.2-2.6,7.8-4,14-4h16.8v-3c0-4-1-6.8-2.8-8.4c-1.8-1.6-4.6-2.2-8.6-2.2c-3.4,0-6,0.6-7.6,1.6
			c-1.6,1-2.6,2.6-2.8,4.4h-11c0.2-2.4,0.8-4.4,1.8-6.4c1-2,2.6-3.6,4.4-5c1.8-1.4,4.2-2.6,6.8-3.4c2.6-0.8,5.6-1.2,9-1.2
			c3.4,0,6.4,0.4,9,1.2c2.6,0.8,5,2,6.8,3.6c2,1.6,3.4,3.6,4.4,6.2c1,2.6,1.6,5.6,1.6,9v21.5c0,2.8,0,5.4,0.2,7.4
			c0,2.2,0.2,4.2,0.6,6.2h-10.2c-0.2-1.6-0.4-2.8-0.4-4c-0.2-1-0.2-2.4-0.2-4c-1.2,2.6-3.6,4.6-6.6,6.4
			C365,191.9,361,192.9,356.4,192.9z M359.4,183.1c2,0,3.8-0.2,5.4-0.8c1.8-0.6,3.2-1.2,4.6-2.2c1.2-1,2.4-2.2,3.2-3.6
			c0.8-1.4,1.2-3.2,1.2-5v-3H359c-2.8,0-5.2,0.6-6.8,1.8c-1.8,1.2-2.6,3-2.6,5.4c0,2.2,0.8,4,2.4,5.4
			C353.4,182.3,356,183.1,359.4,183.1z"/>
		<path d="M389.5,137.9h12.2l16.6,41.6l14.8-41.6h11.4l-20.9,53.8h-11.2L389.5,137.9z"/>
		<path d="M472.5,192.9c-3.8,0-7.2-0.6-10.4-1.8c-3.2-1.2-6-3-8.4-5.2c-2.4-2.4-4.2-5.2-5.6-8.6c-1.4-3.4-2-7.4-2-12v-2
			c0-4.2,0.6-8,2-11.4c1.4-3.2,3.2-6,5.6-8.4c2.4-2.2,5.2-4,8.4-5.2c3.2-1.2,6.8-1.8,10.4-1.8c3.8,0,7.2,0.6,10.4,1.8
			c3.2,1.2,6,2.8,8.4,5.2c2.4,2.2,4.2,5,5.6,8.4c1.4,3.2,2,7,2,11.4v2c0,4.6-0.6,8.6-2,12c-1.4,3.4-3.2,6.4-5.6,8.6
			c-2.4,2.4-5.2,4-8.4,5.2C479.6,192.3,476.1,192.9,472.5,192.9z M472.5,183.1c2,0,3.8-0.4,5.6-1c1.8-0.6,3.4-1.8,4.8-3.2
			c1.4-1.4,2.6-3.2,3.4-5.6c0.8-2.2,1.2-5,1.2-8.2v-2c0-3-0.4-5.4-1.2-7.6c-0.8-2.2-2-3.8-3.4-5.2s-3-2.4-4.8-3
			c-1.8-0.6-3.6-1-5.6-1c-2,0-3.8,0.4-5.6,1s-3.4,1.6-4.8,3c-1.4,1.4-2.6,3-3.4,5.2s-1.2,4.6-1.2,7.6v2c0,3.2,0.4,6,1.2,8.2
			c0.8,2.2,2,4,3.4,5.6c1.4,1.4,3,2.4,4.8,3.2C468.5,182.7,470.5,183.1,472.5,183.1z"/>
		<path d="M514.1,131.7c-2.2,0-3.8-0.6-5.2-2c-1.4-1.4-2-3-2-5.2s0.6-3.8,2-5.2c1.4-1.4,3-2,5.2-2s3.8,0.6,5.2,2c1.4,1.4,2,3,2,5.2
			s-0.6,3.8-2,5.2C517.9,131.1,516.1,131.7,514.1,131.7z M508.6,137.9h11.2v53.8h-11.2V137.9z"/>
		<path d="M552,192.9c-3.4,0-6.6-0.6-9.4-1.8s-5.2-2.8-7.2-5.2c-2-2.2-3.6-5.2-4.6-8.6c-1-3.4-1.6-7.6-1.6-12.2v-2
			c0-4.4,0.6-8.2,1.6-11.4c1-3.2,2.6-6,4.6-8.4c2-2.4,4.4-4,7.2-5.2c2.8-1.2,5.8-1.8,9.2-1.8c4,0,7.6,1,10.6,2.8c3,1.8,5.2,4.2,7,7
			v-25.9h11.2v71.1h-10.4v-8.8c-0.6,1.4-1.4,2.6-2.6,3.8c-1.2,1.2-2.6,2.4-4.2,3.2c-1.6,1-3.4,1.6-5.4,2.2
			C556.4,192.5,554.2,192.9,552,192.9z M554.6,183.1c2,0,3.8-0.4,5.6-1c1.8-0.6,3.4-1.6,4.8-2.8c1.4-1.2,2.4-2.8,3.2-4.8
			s1.2-4.2,1.2-6.8v-7.2c0-2.4-0.4-4.4-1.2-6.2s-2-3.2-3.4-4.4c-1.4-1.2-3-2-4.8-2.8c-1.8-0.6-3.6-1-5.6-1c-4.2,0-7.6,1.4-10.2,4.2
			c-2.6,2.8-3.8,7-3.8,12.8v2c0,6,1.2,10.4,3.8,13.3C547.3,181.5,550.4,183.1,554.6,183.1z"/>
		<path d="M643,192.9c-4.4,0-8.4-1-11.6-3c-3.2-2-5.4-4.4-6.8-7.2v9h-10.4v-71.1h11.2v25.9c1.6-2.8,4-5,7-7c3-2,6.4-2.8,10.6-2.8
			c7,0,12.6,2.2,16.6,6.6c4,4.4,6.2,11,6.2,19.9v2c0,4.6-0.6,8.6-1.6,12.2c-1,3.4-2.6,6.4-4.6,8.6c-2,2.2-4.4,4-7.2,5.2
			C649.4,192.3,646.4,192.9,643,192.9z M640.2,183.1c4.2,0,7.6-1.4,10-4.4c2.6-3,3.8-7.4,3.8-13.3v-2c0-5.8-1.2-10-3.8-12.8
			c-2.6-2.8-6-4.2-10.2-4.2c-2,0-3.8,0.4-5.6,1c-1.8,0.6-3.4,1.6-4.8,2.8c-1.4,1.2-2.4,2.6-3.4,4.4c-0.8,1.8-1.2,3.8-1.2,6.2v7.2
			c0,2.6,0.4,4.8,1.2,6.8c0.8,2,2,3.6,3.2,4.8c1.4,1.2,3,2.2,4.8,2.8C636.4,182.7,638.4,183.1,640.2,183.1z"/>
		<path d="M693,192.9c-6.4,0-11.2-1.8-14.4-5.6c-3.2-3.8-4.8-9.4-4.8-16.9v-32.5h11.2v31.5c0,4.6,1,8,2.8,10.4
			c1.8,2.4,4.8,3.4,9,3.4c2.2,0,4.2-0.4,5.8-1.2s3-1.8,4-3c1-1.2,1.8-2.8,2.2-4.4c0.6-1.6,0.8-3.4,0.8-5.2v-31.5h11.2v53.8h-10.4
			v-9.2c-1.2,2.8-3.4,5.2-6.2,7.2C701,191.7,697.4,192.9,693,192.9z"/>
		<path d="M752.7,192.9c-4,0-7.4-0.4-10.2-1.4c-2.8-0.8-5.2-2-7-3.6c-1.8-1.4-3.2-3.2-4.2-5.2c-1-2-1.6-4-1.8-6.2h11.2
			c0.4,2,1.6,3.4,3.4,4.8c1.8,1.4,4.8,1.8,8.8,1.8c4.4,0,7.6-0.6,9.4-1.8c1.8-1.2,2.8-2.8,2.8-4.8c0-0.8-0.2-1.8-0.8-2.4
			c-0.4-0.8-1.2-1.4-2.2-2.2c-1-0.6-2.4-1.2-4.2-1.8c-1.8-0.6-4-1-6.6-1.4c-3-0.4-5.8-1-8.4-1.8c-2.6-0.8-4.6-1.8-6.4-3.2
			c-1.8-1.2-3.2-2.8-4-4.6c-1-1.8-1.4-4-1.4-6.6c0-2.2,0.4-4.2,1.4-6.2c1-2,2.2-3.6,4-5c1.8-1.4,4.2-2.6,6.8-3.4
			c2.8-0.8,6-1.2,9.6-1.2c3.6,0,6.6,0.4,9.2,1.4c2.6,0.8,4.8,2,6.4,3.6c1.8,1.4,3,3.2,4,5.2c1,2,1.6,4,1.8,6.2H763
			c-0.6-2.2-1.6-3.8-3.4-4.8c-1.6-1.2-4-1.8-6.8-1.8c-4,0-6.8,0.6-8.4,1.8c-1.6,1.2-2.4,2.6-2.4,4.2c0,1,0.2,1.8,0.6,2.6s1,1.4,2,2
			c1,0.6,2.2,1.2,4,1.6c1.6,0.4,3.8,0.8,6.4,1.2c3.2,0.4,6,1,8.6,1.8s4.8,1.8,6.8,3.2c1.8,1.4,3.4,3,4.4,4.8c1,2,1.6,4.2,1.6,6.8
			c0,2.4-0.4,4.4-1.4,6.4c-1,2-2.4,3.8-4.4,5.2s-4.4,2.6-7.4,3.4C760.2,192.3,756.5,192.9,752.7,192.9z"/>
		<path d="M791.2,131.7c-2.2,0-3.8-0.6-5.2-2c-1.4-1.4-2-3-2-5.2s0.6-3.8,2-5.2c1.4-1.4,3-2,5.2-2s3.8,0.6,5.2,2c1.4,1.4,2,3,2,5.2
			s-0.6,3.8-2,5.2S793.4,131.7,791.2,131.7z M785.6,137.9h11.2v53.8h-11.2V137.9z"/>
		<path d="M809.5,137.9h10.4v9c1.2-2.8,3.4-5,6.4-7.2s6.6-3,11.4-3c6.6,0,11.6,1.8,14.8,5.4c3.4,3.6,5,8.8,5,15.5v34.1h-11.2v-31.5
			c0-4.6-1-8-2.8-10.4c-2-2.4-5-3.4-9.4-3.4c-2.4,0-4.4,0.4-6,1.2c-1.6,0.8-3,1.8-4,3s-1.8,2.8-2.4,4.4c-0.6,1.6-0.8,3.4-0.8,5.2
			v31.5h-11.2v-53.8H809.5z"/>
		<path d="M891.9,192.9c-3.6,0-7-0.6-10.2-1.6c-3.2-1.2-6-2.8-8.4-5s-4.4-5.2-5.8-8.6c-1.4-3.4-2.2-7.6-2.2-12.2v-2
			c0-4.4,0.6-8.4,2-11.8c1.4-3.4,3.2-6.2,5.6-8.4s5-3.8,8.2-5c3-1,6.4-1.6,9.8-1.6c8.2,0,14.6,2.2,18.9,6.6
			c4.4,4.4,6.6,10.8,6.6,18.9v5.8h-39.5c0,2.8,0.6,5.2,1.4,7c0.8,2,2,3.6,3.4,4.6c1.4,1.2,3,2,4.8,2.6c1.8,0.6,3.6,0.8,5.6,0.8
			c3.8,0,6.8-0.6,8.6-1.8c1.8-1.2,3-2.8,3.8-4.8h11.2c-1,5.4-3.8,9.4-8,12.2C903,191.5,897.9,192.9,891.9,192.9z M891.5,146.4
			c-2,0-3.8,0.2-5.4,0.8c-1.8,0.4-3.2,1.2-4.6,2.2c-1.4,1-2.4,2.4-3.2,4c-0.8,1.6-1.2,3.6-1.4,6h28.3c0-2.6-0.4-4.6-1.2-6.4
			c-0.8-1.6-1.6-3-3-4c-1.2-1-2.6-1.8-4.4-2.2C895.1,146.6,893.3,146.4,891.5,146.4z"/>
		<path d="M945.3,192.9c-4,0-7.4-0.4-10.2-1.4c-2.8-0.8-5.2-2-7-3.6c-1.8-1.4-3.4-3.2-4.2-5.2c-1-2-1.6-4-1.8-6.2h11.2
			c0.4,2,1.6,3.4,3.4,4.8c1.8,1.4,4.8,1.8,8.8,1.8c4.4,0,7.6-0.6,9.4-1.8c1.8-1.2,2.8-2.8,2.8-4.8c0-0.8-0.2-1.8-0.8-2.4
			c-0.4-0.8-1.2-1.4-2.2-2.2c-1-0.6-2.4-1.2-4.2-1.8c-1.8-0.6-4-1-6.6-1.4c-3-0.4-5.8-1-8.4-1.8s-4.6-1.8-6.4-3.2
			c-1.8-1.4-3.2-2.8-4-4.6s-1.4-4-1.4-6.6c0-2.2,0.4-4.2,1.4-6.2c0.8-2,2.2-3.6,4-5s4.2-2.6,6.8-3.4c2.8-0.8,6-1.2,9.6-1.2
			s6.6,0.4,9.2,1.4c2.6,0.8,4.8,2,6.4,3.6c1.8,1.4,3,3.2,4,5.2s1.6,4,1.8,6.2h-11.2c-0.6-2.2-1.6-3.8-3.4-4.8
			c-1.6-1.2-4-1.8-6.8-1.8c-4,0-6.8,0.6-8.4,1.8c-1.6,1.2-2.4,2.6-2.4,4.2c0,1,0.2,1.8,0.6,2.6s1,1.4,2,2c1,0.6,2.2,1.2,4,1.6
			c1.6,0.4,3.8,0.8,6.4,1.2c3.2,0.4,6,1,8.6,1.8c2.6,0.8,4.8,1.8,6.8,3.2c1.8,1.4,3.4,3,4.4,4.8c1,2,1.6,4.2,1.6,6.8
			c0,2.4-0.4,4.4-1.4,6.4c-1,2-2.4,3.8-4.4,5.2c-2,1.4-4.4,2.6-7.4,3.4C952.5,192.3,949.1,192.9,945.3,192.9z"/>
		<path d="M997.8,192.9c-4,0-7.4-0.4-10.2-1.4c-2.8-0.8-5.2-2-7-3.6c-1.8-1.4-3.4-3.2-4.2-5.2c-1-2-1.6-4-1.8-6.2h11.2
			c0.4,2,1.6,3.4,3.4,4.8c1.8,1.4,4.8,1.8,8.8,1.8c4.4,0,7.6-0.6,9.4-1.8c1.8-1.2,2.8-2.8,2.8-4.8c0-0.8-0.2-1.8-0.8-2.4
			c-0.4-0.8-1.2-1.4-2.2-2.2c-1-0.6-2.4-1.2-4.2-1.8c-1.8-0.6-4-1-6.6-1.4c-3-0.4-5.8-1-8.4-1.8c-2.6-0.8-4.6-1.8-6.4-3.2
			c-1.8-1.4-3.2-2.8-4-4.6s-1.4-4-1.4-6.6c0-2.2,0.4-4.2,1.4-6.2c0.8-2,2.2-3.6,4-5c1.8-1.4,4.2-2.6,6.8-3.4c2.8-0.8,6-1.2,9.6-1.2
			s6.6,0.4,9.2,1.4c2.6,0.8,4.8,2,6.4,3.6c1.8,1.4,3,3.2,4,5.2s1.6,4,1.8,6.2h-11.2c-0.6-2.2-1.6-3.8-3.4-4.8
			c-1.6-1.2-4-1.8-6.8-1.8c-4,0-6.8,0.6-8.4,1.8s-2.4,2.6-2.4,4.2c0,1,0.2,1.8,0.6,2.6c0.4,0.8,1,1.4,2,2c1,0.6,2.2,1.2,4,1.6
			c1.6,0.4,3.8,0.8,6.4,1.2c3.2,0.4,6,1,8.6,1.8c2.6,0.8,4.8,1.8,6.8,3.2c1.8,1.4,3.4,3,4.4,4.8c1,2,1.6,4.2,1.6,6.8
			c0,2.4-0.4,4.4-1.4,6.4c-1,2-2.4,3.8-4.4,5.2c-2,1.4-4.4,2.6-7.4,3.4C1005,192.3,1001.6,192.9,997.8,192.9z"/>
		<path d="M1053.2,192.9c-3.6,0-7-0.6-10.2-1.6c-3.2-1.2-6-2.8-8.4-5c-2.4-2.2-4.4-5.2-5.8-8.6c-1.4-3.4-2.2-7.6-2.2-12.2v-2
			c0-4.4,0.6-8.4,2-11.8c1.4-3.4,3.2-6.2,5.6-8.4c2.4-2.2,5-3.8,8.2-5c3-1,6.4-1.6,9.8-1.6c8.2,0,14.6,2.2,18.9,6.6
			c4.4,4.4,6.6,10.8,6.6,18.9v5.8h-39.5c0,2.8,0.6,5.2,1.4,7c0.8,2,2,3.6,3.4,4.6c1.4,1.2,3,2,4.8,2.6c1.8,0.6,3.6,0.8,5.6,0.8
			c3.8,0,6.8-0.6,8.6-1.8c1.8-1.2,3-2.8,3.8-4.8h11.2c-1,5.4-3.8,9.4-8,12.2C1064.4,191.5,1059.2,192.9,1053.2,192.9z M1052.6,146.4
			c-2,0-3.8,0.2-5.4,0.8c-1.8,0.4-3.2,1.2-4.6,2.2c-1.4,1-2.4,2.4-3.2,4c-0.8,1.6-1.2,3.6-1.4,6h28.3c0-2.6-0.4-4.6-1.2-6.4
			c-0.8-1.6-1.6-3-3-4c-1.2-1-2.6-1.8-4.4-2.2C1056.2,146.6,1054.6,146.4,1052.6,146.4z"/>
		<path d="M1106.5,192.9c-4,0-7.4-0.4-10.2-1.4c-2.8-0.8-5.2-2-7-3.6c-1.8-1.4-3.4-3.2-4.2-5.2c-1-2-1.6-4-1.8-6.2h11.2
			c0.4,2,1.6,3.4,3.4,4.8c1.8,1.4,4.8,1.8,8.8,1.8c4.4,0,7.6-0.6,9.4-1.8c1.8-1.2,2.8-2.8,2.8-4.8c0-0.8-0.2-1.8-0.8-2.4
			c-0.4-0.8-1.2-1.4-2.2-2.2c-1-0.6-2.4-1.2-4.2-1.8c-1.8-0.6-4-1-6.6-1.4c-3-0.4-5.8-1-8.4-1.8c-2.6-0.8-4.6-1.8-6.4-3.2
			c-1.8-1.4-3.2-2.8-4-4.6c-0.8-1.8-1.4-4-1.4-6.6c0-2.2,0.4-4.2,1.4-6.2c0.8-2,2.2-3.6,4-5c1.8-1.4,4.2-2.6,6.8-3.4
			c2.8-0.8,6-1.2,9.6-1.2c3.6,0,6.6,0.4,9.2,1.4c2.6,0.8,4.8,2,6.4,3.6c1.8,1.4,3,3.2,4,5.2s1.6,4,1.8,6.2h-11.2
			c-0.6-2.2-1.6-3.8-3.4-4.8c-1.6-1.2-4-1.8-6.8-1.8c-4,0-6.8,0.6-8.4,1.8s-2.4,2.6-2.4,4.2c0,1,0.2,1.8,0.6,2.6s1,1.4,2,2
			c1,0.6,2.2,1.2,4,1.6c1.6,0.4,3.8,0.8,6.4,1.2c3.2,0.4,6,1,8.6,1.8c2.6,0.8,4.8,1.8,6.8,3.2c1.8,1.4,3.4,3,4.4,4.8
			c1,2,1.6,4.2,1.6,6.8c0,2.4-0.4,4.4-1.4,6.4c-1,2-2.4,3.8-4.4,5.2c-2,1.4-4.4,2.6-7.4,3.4C1113.8,192.3,1110.5,192.9,1106.5,192.9
			z"/>
		<path d="M1156.3,137.9h11.8l9.8,39.6l12.4-39.6h10.2l13.2,39.6l9.8-39.6h11l-14.8,53.8h-11.2L1195,152l-13,39.6h-11.2
			L1156.3,137.9z"/>
		<path d="M1248.9,131.7c-2.2,0-3.8-0.6-5.2-2c-1.4-1.4-2-3-2-5.2s0.6-3.8,2-5.2c1.4-1.4,3-2,5.2-2s3.8,0.6,5.2,2c1.4,1.4,2,3,2,5.2
			s-0.6,3.8-2,5.2S1251.1,131.7,1248.9,131.7z M1243.3,137.9h11.2v53.8h-11.2V137.9z"/>
		<path d="M1288.2,192.1c-6.2,0-10.6-1.4-13.4-4c-2.6-2.6-4-7-4-12.8v-27.9h-7.6v-9.6h7.6v-12.2h11.2v12.2h13.8v9.6H1282v26.5
			c0,3.2,0.6,5.4,1.8,6.6c1.2,1.2,3.4,1.8,6.8,1.8c2,0,4-0.2,6.2-0.4v9.6c-1.2,0.2-2.6,0.2-4,0.4
			C1291.3,192.1,1289.7,192.1,1288.2,192.1z"/>
		<path d="M1305.3,120.5h11.2v25.9c0.6-1.2,1.4-2.4,2.4-3.6c1-1.2,2.2-2.2,3.6-3.2c1.4-0.8,3-1.6,4.8-2.2c1.8-0.6,3.8-0.8,6.2-0.8
			c6.6,0,11.6,1.8,14.8,5.4c3.4,3.6,5,8.8,5,15.5v34.1H1342v-31.5c0-4.6-1-8-2.8-10.4c-2-2.4-5-3.4-9.4-3.4c-2.4,0-4.4,0.4-6,1.2
			c-1.6,0.8-3,1.8-4,3s-1.8,2.8-2.4,4.4c-0.6,1.6-0.8,3.4-0.8,5.2v31.5h-11.2v-71.1H1305.3z"/>
		<path d="M1415,192.9c-4.4,0-8.4-1-11.6-3c-3.2-2-5.4-4.4-6.8-7.2v9h-10.4v-71.1h11.2v25.9c1.6-2.8,4-5,7-7c3-1.8,6.4-2.8,10.6-2.8
			c7,0,12.6,2.2,16.6,6.6c4,4.4,6.2,11,6.2,19.9v2c0,4.6-0.6,8.6-1.6,12.2c-1,3.4-2.6,6.4-4.6,8.6c-2,2.2-4.4,4-7.2,5.2
			C1421.4,192.3,1418.4,192.9,1415,192.9z M1412.2,183.1c4.2,0,7.6-1.4,10-4.4c2.6-3,3.8-7.4,3.8-13.3v-2c0-5.8-1.2-10-3.8-12.8
			c-2.6-2.8-6-4.2-10.2-4.2c-2,0-3.8,0.4-5.6,1c-1.8,0.6-3.4,1.6-4.8,2.8c-1.4,1.2-2.4,2.6-3.4,4.4c-0.8,1.8-1.2,3.8-1.2,6.2v7.2
			c0,2.6,0.4,4.8,1.2,6.8c0.8,2,2,3.6,3.2,4.8c1.4,1.2,3,2.2,4.8,2.8C1408.4,182.7,1410.2,183.1,1412.2,183.1z"/>
		<path d="M1462.1,192.9c-3,0-5.6-0.4-7.8-1.2c-2.2-0.8-4.2-2-5.8-3.6c-1.6-1.6-2.8-3.4-3.6-5.4c-0.8-2-1.2-4.2-1.2-6.8
			c0-5.4,1.6-9.4,4.8-12c3.2-2.6,7.8-4,14-4h16.8v-3c0-4-1-6.8-2.8-8.4c-1.8-1.6-4.6-2.2-8.6-2.2c-3.4,0-6,0.6-7.6,1.6
			c-1.6,1-2.6,2.6-2.8,4.4h-11c0.2-2.4,0.8-4.4,1.8-6.4c1-2,2.6-3.6,4.4-5s4.2-2.6,6.8-3.4c2.6-0.8,5.6-1.2,9-1.2
			c3.4,0,6.4,0.4,9,1.2c2.6,0.8,5,2,6.8,3.6c2,1.6,3.4,3.6,4.4,6.2c1,2.6,1.6,5.6,1.6,9v21.5c0,2.8,0,5.4,0.2,7.4
			c0,2.2,0.2,4.2,0.6,6.2h-10.2c-0.2-1.6-0.4-2.8-0.4-4c-0.2-1-0.2-2.4-0.2-4c-1.2,2.6-3.6,4.6-6.6,6.4
			C1470.4,191.9,1466.6,192.9,1462.1,192.9z M1465.1,183.1c2,0,3.8-0.2,5.4-0.8s3.2-1.2,4.6-2.2c1.2-1,2.4-2.2,3.2-3.6
			s1.2-3.2,1.2-5v-3h-14.8c-2.8,0-5.2,0.6-6.8,1.8c-1.8,1.2-2.6,3-2.6,5.4c0,2.2,0.8,4,2.4,5.4
			C1459.1,182.3,1461.7,183.1,1465.1,183.1z"/>
		<path d="M1521.5,192.9c-3.4,0-6.6-0.6-9.4-1.8s-5.2-2.8-7.2-5.2c-2-2.2-3.6-5.2-4.6-8.6c-1-3.4-1.6-7.6-1.6-12.2v-2
			c0-4.4,0.6-8.2,1.6-11.4s2.6-6,4.6-8.4c2-2.2,4.4-4,7.2-5.2c2.8-1.2,5.8-1.8,9.2-1.8c4,0,7.6,1,10.6,2.8c3,1.8,5.2,4.2,7,7v-25.9
			h11.2v71.1h-10.4v-8.8c-0.6,1.4-1.4,2.6-2.6,3.8c-1.2,1.2-2.6,2.4-4.2,3.2c-1.6,1-3.4,1.6-5.4,2.2
			C1525.7,192.5,1523.5,192.9,1521.5,192.9z M1523.9,183.1c2,0,3.8-0.4,5.6-1c1.8-0.6,3.4-1.6,4.8-2.8c1.4-1.2,2.4-2.8,3.2-4.8
			s1.2-4.2,1.2-6.8v-7.2c0-2.4-0.4-4.4-1.2-6.2c-0.8-1.8-2-3.2-3.4-4.4c-1.4-1.2-3-2-4.8-2.8c-1.8-0.6-3.6-1-5.6-1
			c-4.2,0-7.6,1.4-10.2,4.2c-2.6,2.8-3.8,7-3.8,12.8v2c0,6,1.2,10.4,3.8,13.3C1516.5,181.5,1519.9,183.1,1523.9,183.1z"/>
		<path d="M1583.5,137.9h10.4v9.2c1-2.8,2.8-5.2,5.4-7.2c2.6-2,5.6-3,9.2-3c1.6,0,3,0,3.8,0.2c0.8,0.2,1.4,0.2,1.8,0.4v10.2
			c-1.2-0.4-2.2-0.6-3.2-0.8c-1-0.2-2.2-0.2-3.4-0.2c-2.2,0-4.2,0.4-5.8,1.2c-1.6,0.8-3,1.8-4,3c-1,1.2-1.8,2.8-2.2,4.4
			c-0.6,1.6-0.8,3.4-0.8,5.2v31.5h-11.2L1583.5,137.9L1583.5,137.9z"/>
		<path d="M1642.9,192.9c-3.6,0-7-0.6-10.2-1.6c-3.2-1.2-6-2.8-8.4-5c-2.4-2.2-4.4-5.2-5.8-8.6c-1.4-3.4-2.2-7.6-2.2-12.2v-2
			c0-4.4,0.6-8.4,2-11.8s3.2-6.2,5.6-8.4c2.4-2.2,5-3.8,8.2-5c3-1,6.4-1.6,9.8-1.6c8.2,0,14.6,2.2,18.9,6.6
			c4.4,4.4,6.6,10.8,6.6,18.9v5.8H1628c0,2.8,0.6,5.2,1.4,7c0.8,2,2,3.6,3.4,4.6c1.4,1.2,3,2,4.8,2.6c1.8,0.6,3.6,0.8,5.6,0.8
			c3.8,0,6.8-0.6,8.6-1.8c1.8-1.2,3-2.8,3.8-4.8h11.2c-1,5.4-3.8,9.4-8,12.2C1654.3,191.5,1649.1,192.9,1642.9,192.9z M1642.5,146.4
			c-2,0-3.8,0.2-5.4,0.8c-1.8,0.4-3.2,1.2-4.6,2.2c-1.4,1-2.4,2.4-3.2,4c-0.8,1.6-1.2,3.6-1.4,6h28.3c0-2.6-0.4-4.6-1.2-6.4
			c-0.8-1.6-1.6-3-3-4c-1.2-1-2.6-1.8-4.4-2.2C1646.1,146.6,1644.3,146.4,1642.5,146.4z"/>
		<path d="M1669.1,137.9h12.2l16.6,41.6l14.8-41.6h11.4l-20.9,53.8h-11.2L1669.1,137.9z"/>
		<path d="M1737.1,131.7c-2.2,0-3.8-0.6-5.2-2s-2-3-2-5.2s0.6-3.8,2-5.2c1.4-1.4,3-2,5.2-2s3.8,0.6,5.2,2c1.4,1.4,2,3,2,5.2
			s-0.6,3.8-2,5.2C1740.9,131.1,1739.3,131.7,1737.1,131.7z M1731.5,137.9h11.2v53.8h-11.2V137.9z"/>
		<path d="M1778.8,192.9c-3.6,0-7-0.6-10.2-1.6c-3.2-1.2-6-2.8-8.4-5s-4.4-5.2-5.8-8.6c-1.4-3.4-2.2-7.6-2.2-12.2v-2
			c0-4.4,0.6-8.4,2-11.8c1.4-3.4,3.2-6.2,5.6-8.4c2.4-2.2,5-3.8,8.2-5c3-1,6.4-1.6,9.8-1.6c8.2,0,14.6,2.2,18.9,6.6
			c4.4,4.4,6.6,10.8,6.6,18.9v5.8h-39.5c0,2.8,0.6,5.2,1.4,7c0.8,2,2,3.6,3.4,4.6c1.4,1.2,3,2,4.8,2.6c1.8,0.6,3.6,0.8,5.6,0.8
			c3.8,0,6.8-0.6,8.6-1.8c1.8-1.2,3-2.8,3.8-4.8h11.2c-1,5.4-3.8,9.4-8,12.2C1789.9,191.5,1784.9,192.9,1778.8,192.9z M1778.4,146.4
			c-2,0-3.8,0.2-5.4,0.8c-1.8,0.4-3.2,1.2-4.6,2.2c-1.4,1-2.4,2.4-3.2,4c-0.8,1.6-1.2,3.6-1.4,6h28.3c0-2.6-0.4-4.6-1.2-6.4
			c-0.8-1.6-1.6-3-3-4c-1.2-1-2.6-1.8-4.4-2.2C1782,146.6,1780.2,146.4,1778.4,146.4z"/>
		<path d="M1806.9,137.9h11.8l9.8,39.6l12.4-39.6h10.2l13.2,39.6l9.8-39.6h11l-14.8,53.8h-11.2l-13.4-39.6l-13,39.6h-11.2
			L1806.9,137.9z"/>
		<path d="M1912,192.9c-4,0-7.4-0.4-10.2-1.4c-2.8-0.8-5.2-2-7-3.6c-1.8-1.4-3.4-3.2-4.2-5.2c-1-2-1.6-4-1.8-6.2h11.2
			c0.4,2,1.6,3.4,3.4,4.8c1.8,1.4,4.8,1.8,8.8,1.8c4.4,0,7.6-0.6,9.4-1.8c1.8-1.2,2.8-2.8,2.8-4.8c0-0.8-0.2-1.8-0.8-2.4
			c-0.4-0.8-1.2-1.4-2.2-2.2c-1-0.6-2.4-1.2-4.2-1.8s-4-1-6.6-1.4c-3-0.4-5.8-1-8.4-1.8c-2.6-0.8-4.6-1.8-6.4-3.2
			c-1.8-1.4-3.2-2.8-4-4.6c-0.8-1.8-1.4-4-1.4-6.6c0-2.2,0.4-4.2,1.4-6.2c0.8-2,2.2-3.6,4-5c1.8-1.4,4.2-2.6,6.8-3.4
			c2.8-0.8,6-1.2,9.6-1.2s6.6,0.4,9.2,1.4c2.6,0.8,4.8,2,6.4,3.6c1.8,1.4,3,3.2,4,5.2c1,2,1.6,4,1.8,6.2h-11.2
			c-0.6-2.2-1.6-3.8-3.4-4.8c-1.6-1.2-4-1.8-6.8-1.8c-4,0-6.8,0.6-8.4,1.8s-2.4,2.6-2.4,4.2c0,1,0.2,1.8,0.6,2.6s1,1.4,2,2
			c1,0.6,2.2,1.2,4,1.6c1.6,0.4,3.8,0.8,6.4,1.2c3.2,0.4,6,1,8.6,1.8s4.8,1.8,6.8,3.2c1.8,1.4,3.4,3,4.4,4.8c1,2,1.6,4.2,1.6,6.8
			c0,2.4-0.4,4.4-1.4,6.4c-1,2-2.4,3.8-4.4,5.2c-2,1.4-4.4,2.6-7.4,3.4C1919.4,192.3,1916,192.9,1912,192.9z"/>
	</g>
</g>
</svg>
