<?xml version="1.0" encoding="utf-8"?>
<!-- Generator: Adobe Illustrator 27.0.0, SVG Export Plug-In . SVG Version: 6.00 Build 0)  -->
<svg version="1.1" id="Layer_1" xmlns="http://www.w3.org/2000/svg" xmlns:xlink="http://www.w3.org/1999/xlink" x="0px" y="0px"
	 viewBox="0 0 640 97" style="enable-background:new 0 0 640 97;" xml:space="preserve">
<style type="text/css">
	.st0{fill:#F4F4B0;}
</style>
<g>
	<path class="st0" d="M48.5,0h543C618.3,0,640,21.7,640,48.5l0,0c0,26.8-21.7,48.5-48.5,48.5h-543C21.7,97,0,75.3,0,48.5l0,0
		C-0.1,21.8,21.7,0,48.5,0z"/>
	<g>
		<path d="M43.2,60.3c-1.9,0-3.6-0.4-4.8-1.2c-1.2-0.8-2.1-2.2-2.4-4.1h3.8c0.2,0.7,0.6,1.2,1.2,1.4c0.6,0.3,1.2,0.4,2.2,0.4
			c0.7,0,1.3-0.1,1.9-0.3c0.6-0.2,1.1-0.6,1.6-1.2c0.4-0.6,0.8-1.3,1.1-2.2c0.2-0.9,0.4-2.1,0.4-3.6c-0.2,0.4-0.6,0.9-1.1,1.2
			c-0.4,0.3-0.9,0.6-1.4,0.8c-0.5,0.2-1,0.4-1.6,0.4c-0.6,0.1-1.1,0.1-1.6,0.1c-2.2,0-4-0.6-5.2-1.9c-1.2-1.2-1.9-3-1.9-5.2v-0.3
			c0-1.1,0.2-2.1,0.6-3c0.4-0.9,0.9-1.7,1.6-2.4c0.7-0.7,1.5-1.2,2.5-1.5c0.9-0.4,2-0.6,3.1-0.6c1.3,0,2.5,0.2,3.6,0.6
			c1.1,0.4,1.9,1,2.6,1.9c0.7,0.8,1.2,1.9,1.7,3.2c0.4,1.3,0.6,2.9,0.6,4.7v0.6c0,2.2-0.2,4-0.7,5.5c-0.4,1.5-1.1,2.7-1.8,3.7
			c-0.7,0.9-1.7,1.6-2.7,2.1C45.6,60.1,44.4,60.3,43.2,60.3z M43.6,49.2c1.2,0,2.3-0.4,3.1-1.1c0.7-0.7,1.2-1.7,1.2-2.9v-0.3
			c0-0.6-0.1-1.1-0.3-1.6c-0.2-0.5-0.5-0.9-0.9-1.3s-0.8-0.7-1.3-0.9c-0.5-0.2-1.1-0.3-1.7-0.3c-1.2,0-2.3,0.4-3.1,1.1
			c-0.7,0.7-1.2,1.7-1.2,2.9v0.3c0,1.2,0.4,2.2,1.2,2.9C41.3,48.8,42.3,49.2,43.6,49.2z"/>
		<path d="M64.3,54.9h-11v-2.8l10.8-14.4h4v13.9h2.7v3.3h-2.7v5h-3.8C64.3,60,64.3,54.9,64.3,54.9z M64.3,51.6v-9.5l-7.2,9.5
			C57.2,51.6,64.3,51.6,64.3,51.6z"/>
		<path d="M77.5,48.3c-0.8,0-1.5-0.1-2.1-0.4c-0.6-0.2-1.2-0.6-1.7-1.1c-0.4-0.4-0.8-1-1.1-1.7c-0.2-0.6-0.4-1.4-0.4-2.1v-0.3
			c0-0.8,0.1-1.5,0.4-2.1c0.2-0.6,0.6-1.2,1.1-1.7c0.4-0.4,1-0.8,1.7-1.1c0.6-0.2,1.4-0.4,2.1-0.4c0.8,0,1.5,0.1,2.1,0.4
			c0.6,0.2,1.2,0.6,1.7,1.1c0.4,0.4,0.8,1,1.1,1.7c0.2,0.6,0.4,1.4,0.4,2.1V43c0,0.8-0.1,1.5-0.4,2.1c-0.2,0.6-0.6,1.2-1.1,1.7
			c-0.4,0.4-1,0.8-1.7,1.1C79,48.1,78.3,48.3,77.5,48.3z M90.6,37.7h3.8L79.1,60h-3.8L90.6,37.7z M77.5,45.4c0.6,0,1-0.2,1.4-0.6
			c0.3-0.4,0.5-1,0.5-1.9v-0.3c0-0.9-0.2-1.4-0.5-1.9c-0.3-0.4-0.8-0.6-1.4-0.6c-0.6,0-1,0.2-1.4,0.6c-0.3,0.4-0.5,1-0.5,1.9V43
			c0,0.9,0.2,1.4,0.5,1.9C76.5,45.2,77,45.4,77.5,45.4z M92.2,60.3c-0.8,0-1.5-0.1-2.1-0.4c-0.6-0.2-1.2-0.6-1.7-1.1
			c-0.4-0.4-0.8-1-1.1-1.7c-0.2-0.6-0.4-1.4-0.4-2.1v-0.4c0-0.8,0.1-1.5,0.4-2.1c0.2-0.6,0.6-1.2,1.1-1.7c0.4-0.4,1-0.8,1.7-1.1
			c0.6-0.2,1.4-0.4,2.1-0.4c0.8,0,1.5,0.1,2.1,0.4c0.6,0.2,1.2,0.6,1.7,1.1c0.4,0.4,0.8,1,1.1,1.7c0.2,0.6,0.4,1.4,0.4,2.1V55
			c0,0.8-0.1,1.5-0.4,2.1c-0.2,0.6-0.6,1.2-1.1,1.7c-0.4,0.4-1,0.8-1.7,1.1C93.7,60.2,92.9,60.3,92.2,60.3z M92.2,57.4
			c0.6,0,1-0.2,1.4-0.6c0.3-0.4,0.5-1,0.5-1.9v-0.3c0-0.9-0.2-1.4-0.5-1.9c-0.3-0.4-0.8-0.6-1.4-0.6c-0.6,0-1,0.2-1.4,0.6
			c-0.3,0.4-0.5,1-0.5,1.9V55c0,0.9,0.2,1.4,0.5,1.9C91.1,57.2,91.6,57.4,92.2,57.4z"/>
		<path d="M111.4,60.3c-0.9,0-1.7-0.1-2.4-0.4c-0.7-0.2-1.3-0.6-1.8-1.1c-0.5-0.5-0.9-1.1-1.1-1.7c-0.2-0.6-0.4-1.3-0.4-2.1
			c0-1.7,0.5-2.9,1.5-3.7c1-0.8,2.4-1.2,4.4-1.2h5.2v-0.9c0-1.2-0.3-2.1-0.9-2.6s-1.4-0.7-2.7-0.7c-1.1,0-1.9,0.2-2.4,0.5
			c-0.5,0.3-0.8,0.8-0.9,1.4h-3.4c0.1-0.7,0.2-1.4,0.6-2c0.3-0.6,0.8-1.1,1.4-1.6c0.6-0.4,1.3-0.8,2.1-1.1c0.8-0.2,1.7-0.4,2.8-0.4
			c1.1,0,2,0.1,2.8,0.4c0.8,0.2,1.6,0.6,2.1,1.1c0.6,0.5,1.1,1.1,1.4,1.9c0.3,0.8,0.5,1.7,0.5,2.8v6.7c0,0.9,0,1.7,0.1,2.3
			c0,0.7,0.1,1.3,0.2,1.9h-3.2c-0.1-0.5-0.1-0.9-0.1-1.2c-0.1-0.3-0.1-0.7-0.1-1.2c-0.4,0.8-1.1,1.4-2.1,2
			C114.1,60,112.8,60.3,111.4,60.3z M112.3,57.3c0.6,0,1.2-0.1,1.7-0.2c0.6-0.2,1-0.4,1.4-0.7c0.4-0.3,0.7-0.7,1-1.1
			c0.2-0.4,0.4-1,0.4-1.6v-0.9h-4.6c-0.9,0-1.6,0.2-2.1,0.6c-0.6,0.4-0.8,0.9-0.8,1.7c0,0.7,0.2,1.2,0.7,1.7
			C110.4,57,111.2,57.3,112.3,57.3z"/>
		<path d="M121.7,43.1h3.8l5.2,13l4.6-13h3.6L132.3,60h-3.5L121.7,43.1z"/>
		<path d="M147.6,60.3c-1.2,0-2.2-0.2-3.2-0.6c-1-0.4-1.9-0.9-2.6-1.6c-0.7-0.7-1.3-1.6-1.7-2.7c-0.4-1.1-0.6-2.3-0.6-3.7v-0.6
			c0-1.3,0.2-2.5,0.6-3.6c0.4-1,1-1.9,1.7-2.6c0.7-0.7,1.6-1.2,2.6-1.6s2.1-0.6,3.2-0.6c1.2,0,2.2,0.2,3.2,0.6s1.9,0.9,2.6,1.6
			c0.7,0.7,1.3,1.6,1.7,2.6c0.4,1,0.6,2.2,0.6,3.6v0.6c0,1.4-0.2,2.7-0.6,3.7c-0.4,1.1-1,2-1.7,2.7c-0.7,0.7-1.6,1.2-2.6,1.6
			C149.9,60.2,148.8,60.3,147.6,60.3z M147.6,57.3c0.6,0,1.2-0.1,1.7-0.3c0.6-0.2,1.1-0.6,1.5-1c0.4-0.4,0.8-1,1.1-1.7
			c0.2-0.7,0.4-1.6,0.4-2.6v-0.6c0-0.9-0.1-1.7-0.4-2.4c-0.2-0.7-0.6-1.2-1.1-1.6c-0.4-0.4-0.9-0.7-1.5-0.9
			c-0.6-0.2-1.1-0.3-1.7-0.3s-1.2,0.1-1.7,0.3s-1.1,0.5-1.5,0.9c-0.4,0.4-0.8,0.9-1.1,1.6c-0.2,0.7-0.4,1.4-0.4,2.4v0.6
			c0,1,0.1,1.9,0.4,2.6c0.2,0.7,0.6,1.2,1.1,1.7c0.4,0.4,0.9,0.7,1.5,1C146.4,57.2,147,57.3,147.6,57.3z"/>
		<path d="M160.7,41.2c-0.7,0-1.2-0.2-1.6-0.6c-0.4-0.4-0.6-0.9-0.6-1.6c0-0.7,0.2-1.2,0.6-1.6c0.4-0.4,0.9-0.6,1.6-0.6
			s1.2,0.2,1.6,0.6c0.4,0.4,0.6,0.9,0.6,1.6c0,0.7-0.2,1.2-0.6,1.6C161.9,41,161.3,41.2,160.7,41.2z M158.9,43.1h3.5V60h-3.5V43.1z"
			/>
		<path d="M172.5,60.3c-1.1,0-2.1-0.2-2.9-0.6c-0.9-0.4-1.6-0.9-2.2-1.6c-0.6-0.7-1.1-1.6-1.4-2.7c-0.3-1.1-0.5-2.4-0.5-3.8v-0.6
			c0-1.4,0.2-2.6,0.5-3.6s0.8-1.9,1.4-2.6c0.6-0.7,1.4-1.2,2.2-1.6c0.9-0.4,1.8-0.6,2.9-0.6c1.2,0,2.4,0.3,3.3,0.9
			c0.9,0.6,1.6,1.3,2.2,2.2v-8.1h3.5v22.3h-3.2v-2.7c-0.2,0.4-0.4,0.8-0.8,1.2s-0.8,0.7-1.3,1c-0.5,0.3-1.1,0.5-1.7,0.7
			C173.9,60.2,173.2,60.3,172.5,60.3z M173.3,57.3c0.6,0,1.2-0.1,1.7-0.3c0.6-0.2,1.1-0.5,1.5-0.9c0.4-0.4,0.7-0.9,1-1.5
			c0.2-0.6,0.4-1.3,0.4-2.1v-2.2c0-0.7-0.1-1.4-0.4-1.9c-0.2-0.6-0.6-1-1.1-1.4c-0.4-0.4-0.9-0.6-1.5-0.9c-0.6-0.2-1.1-0.3-1.7-0.3
			c-1.3,0-2.4,0.4-3.2,1.3c-0.8,0.9-1.2,2.2-1.2,4v0.6c0,1.9,0.4,3.2,1.2,4.2C171,56.8,172,57.3,173.3,57.3z"/>
		<path d="M200.9,60.3c-1.4,0-2.6-0.3-3.6-0.9c-1-0.6-1.7-1.4-2.1-2.2V60H192V37.7h3.5v8.1c0.5-0.9,1.2-1.6,2.2-2.2
			c0.9-0.6,2-0.9,3.3-0.9c2.2,0,3.9,0.7,5.2,2.1c1.2,1.4,1.9,3.4,1.9,6.2v0.6c0,1.4-0.2,2.7-0.5,3.8c-0.3,1.1-0.8,2-1.4,2.7
			c-0.6,0.7-1.4,1.2-2.2,1.6C202.9,60.2,202,60.3,200.9,60.3z M200.1,57.3c1.3,0,2.4-0.4,3.1-1.4c0.8-0.9,1.2-2.3,1.2-4.2v-0.6
			c0-1.8-0.4-3.1-1.2-4c-0.8-0.9-1.9-1.3-3.2-1.3c-0.6,0-1.2,0.1-1.7,0.3c-0.6,0.2-1.1,0.5-1.5,0.9c-0.4,0.4-0.7,0.8-1.1,1.4
			c-0.2,0.6-0.4,1.2-0.4,1.9v2.2c0,0.8,0.1,1.5,0.4,2.1c0.2,0.6,0.6,1.1,1,1.5c0.4,0.4,0.9,0.7,1.5,0.9
			C198.9,57.2,199.5,57.3,200.1,57.3z"/>
		<path d="M216.6,60.3c-2,0-3.5-0.6-4.5-1.7s-1.5-2.9-1.5-5.3V43.1h3.5V53c0,1.4,0.3,2.5,0.9,3.2c0.6,0.7,1.5,1.1,2.8,1.1
			c0.7,0,1.3-0.1,1.8-0.4s0.9-0.6,1.2-0.9s0.6-0.9,0.7-1.4c0.2-0.5,0.2-1.1,0.2-1.6v-9.8h3.5V60H222v-2.9c-0.4,0.9-1.1,1.6-1.9,2.2
			C219.1,60,217.9,60.3,216.6,60.3z"/>
		<path d="M235.2,60.3c-1.2,0-2.3-0.1-3.2-0.4c-0.9-0.2-1.6-0.6-2.2-1.1c-0.6-0.4-1-1-1.3-1.6c-0.3-0.6-0.5-1.2-0.6-1.9h3.5
			c0.1,0.6,0.5,1.1,1.1,1.5s1.5,0.6,2.7,0.6c1.4,0,2.4-0.2,2.9-0.6c0.6-0.4,0.9-0.9,0.9-1.5c0-0.2-0.1-0.6-0.2-0.7
			c-0.1-0.2-0.4-0.4-0.7-0.7c-0.3-0.2-0.7-0.4-1.3-0.6c-0.6-0.2-1.2-0.3-2.1-0.4c-0.9-0.1-1.8-0.3-2.6-0.6c-0.8-0.2-1.4-0.6-2-1
			c-0.6-0.4-1-0.9-1.2-1.4c-0.3-0.6-0.4-1.2-0.4-2.1c0-0.7,0.1-1.3,0.4-1.9s0.7-1.1,1.2-1.6s1.3-0.8,2.1-1.1c0.9-0.2,1.9-0.4,3-0.4
			c1.1,0,2.1,0.1,2.9,0.4c0.8,0.2,1.5,0.6,2,1.1c0.6,0.4,0.9,1,1.2,1.6c0.3,0.6,0.5,1.2,0.6,1.9h-3.5c-0.2-0.7-0.5-1.2-1.1-1.5
			c-0.5-0.4-1.2-0.6-2.1-0.6c-1.2,0-2.1,0.2-2.6,0.6c-0.5,0.4-0.7,0.8-0.7,1.3c0,0.3,0.1,0.6,0.2,0.8c0.1,0.2,0.3,0.4,0.6,0.6
			c0.3,0.2,0.7,0.4,1.2,0.5c0.5,0.1,1.2,0.2,2,0.4c1,0.1,1.9,0.3,2.7,0.6c0.8,0.2,1.5,0.6,2.1,1c0.6,0.4,1.1,0.9,1.4,1.5
			c0.3,0.6,0.5,1.3,0.5,2.1c0,0.7-0.1,1.4-0.4,2c-0.3,0.6-0.7,1.2-1.4,1.6c-0.6,0.4-1.4,0.8-2.3,1.1
			C237.6,60.2,236.4,60.3,235.2,60.3z"/>
		<path d="M247.2,41.2c-0.7,0-1.2-0.2-1.6-0.6c-0.4-0.4-0.6-0.9-0.6-1.6c0-0.7,0.2-1.2,0.6-1.6c0.4-0.4,0.9-0.6,1.6-0.6
			s1.2,0.2,1.6,0.6c0.4,0.4,0.6,0.9,0.6,1.6c0,0.7-0.2,1.2-0.6,1.6C248.4,41,247.9,41.2,247.2,41.2z M245.5,43.1h3.5V60h-3.5V43.1z"
			/>
		<path d="M253,43.1h3.2v2.8c0.4-0.9,1.1-1.6,2-2.2c0.9-0.7,2.1-0.9,3.6-0.9c2.1,0,3.6,0.6,4.6,1.7c1.1,1.1,1.6,2.7,1.6,4.9V60h-3.5
			v-9.8c0-1.4-0.3-2.5-0.9-3.2c-0.6-0.7-1.6-1.1-2.9-1.1c-0.7,0-1.4,0.1-1.9,0.4c-0.5,0.2-0.9,0.6-1.2,0.9s-0.6,0.9-0.7,1.4
			c-0.2,0.5-0.2,1.1-0.2,1.6V60H253L253,43.1L253,43.1z"/>
		<path d="M278.7,60.3c-1.1,0-2.2-0.2-3.2-0.5c-1-0.4-1.9-0.9-2.6-1.6c-0.7-0.7-1.4-1.6-1.8-2.7c-0.4-1.1-0.7-2.4-0.7-3.8v-0.6
			c0-1.4,0.2-2.6,0.6-3.7c0.4-1.1,1-1.9,1.7-2.6c0.7-0.7,1.6-1.2,2.6-1.6c0.9-0.3,2-0.5,3.1-0.5c2.6,0,4.5,0.7,5.9,2.1
			c1.4,1.4,2.1,3.4,2.1,5.9v1.8H274c0,0.9,0.2,1.6,0.4,2.2c0.2,0.6,0.6,1.1,1.1,1.4c0.4,0.4,0.9,0.6,1.5,0.8
			c0.6,0.2,1.1,0.2,1.7,0.2c1.2,0,2.1-0.2,2.7-0.6s0.9-0.9,1.2-1.5h3.5c-0.3,1.7-1.2,2.9-2.5,3.8C282.2,59.9,280.6,60.3,278.7,60.3z
			 M278.6,45.8c-0.6,0-1.2,0.1-1.7,0.2c-0.6,0.1-1,0.4-1.4,0.7c-0.4,0.3-0.7,0.7-1,1.2c-0.2,0.5-0.4,1.1-0.4,1.9h8.8
			c0-0.8-0.1-1.4-0.4-2c-0.2-0.5-0.5-0.9-0.9-1.2c-0.4-0.3-0.8-0.6-1.4-0.7C279.7,45.9,279.1,45.8,278.6,45.8z"/>
		<path d="M295.4,60.3c-1.2,0-2.3-0.1-3.2-0.4c-0.9-0.2-1.6-0.6-2.2-1.1c-0.6-0.4-1.1-1-1.3-1.6c-0.3-0.6-0.5-1.2-0.6-1.9h3.5
			c0.1,0.6,0.5,1.1,1.1,1.5c0.6,0.4,1.5,0.6,2.7,0.6c1.4,0,2.4-0.2,2.9-0.6s0.9-0.9,0.9-1.5c0-0.2-0.1-0.6-0.2-0.7
			c-0.1-0.2-0.4-0.4-0.7-0.7c-0.3-0.2-0.7-0.4-1.3-0.6s-1.2-0.3-2.1-0.4c-0.9-0.1-1.8-0.3-2.6-0.6s-1.4-0.6-2-1
			c-0.6-0.4-1-0.9-1.2-1.4c-0.2-0.6-0.4-1.2-0.4-2.1c0-0.7,0.1-1.3,0.4-1.9c0.2-0.6,0.7-1.1,1.2-1.6c0.6-0.4,1.3-0.8,2.1-1.1
			c0.9-0.2,1.9-0.4,3-0.4s2.1,0.1,2.9,0.4c0.8,0.2,1.5,0.6,2,1.1c0.6,0.4,0.9,1,1.2,1.6c0.3,0.6,0.5,1.2,0.6,1.9h-3.5
			c-0.2-0.7-0.5-1.2-1.1-1.5c-0.5-0.4-1.2-0.6-2.1-0.6c-1.2,0-2.1,0.2-2.6,0.6s-0.7,0.8-0.7,1.3c0,0.3,0.1,0.6,0.2,0.8
			c0.1,0.2,0.3,0.4,0.6,0.6s0.7,0.4,1.2,0.5c0.5,0.1,1.2,0.2,2,0.4c1,0.1,1.9,0.3,2.7,0.6c0.8,0.2,1.5,0.6,2.1,1
			c0.6,0.4,1.1,0.9,1.4,1.5c0.3,0.6,0.5,1.3,0.5,2.1c0,0.7-0.1,1.4-0.4,2c-0.3,0.6-0.7,1.2-1.4,1.6c-0.6,0.4-1.4,0.8-2.3,1.1
			C297.7,60.2,296.6,60.3,295.4,60.3z"/>
		<path d="M311.8,60.3c-1.2,0-2.3-0.1-3.2-0.4c-0.9-0.2-1.6-0.6-2.2-1.1c-0.6-0.4-1.1-1-1.3-1.6c-0.3-0.6-0.5-1.2-0.6-1.9h3.5
			c0.1,0.6,0.5,1.1,1.1,1.5c0.6,0.4,1.5,0.6,2.7,0.6c1.4,0,2.4-0.2,2.9-0.6c0.6-0.4,0.9-0.9,0.9-1.5c0-0.2-0.1-0.6-0.2-0.7
			c-0.1-0.2-0.4-0.4-0.7-0.7c-0.3-0.2-0.7-0.4-1.3-0.6s-1.2-0.3-2.1-0.4c-0.9-0.1-1.8-0.3-2.6-0.6c-0.8-0.2-1.4-0.6-2-1
			c-0.6-0.4-1-0.9-1.2-1.4c-0.2-0.6-0.4-1.2-0.4-2.1c0-0.7,0.1-1.3,0.4-1.9c0.2-0.6,0.7-1.1,1.2-1.6c0.6-0.4,1.3-0.8,2.1-1.1
			c0.9-0.2,1.9-0.4,3-0.4s2.1,0.1,2.9,0.4c0.8,0.2,1.5,0.6,2,1.1c0.6,0.4,0.9,1,1.2,1.6s0.5,1.2,0.6,1.9H315
			c-0.2-0.7-0.5-1.2-1.1-1.5c-0.5-0.4-1.2-0.6-2.1-0.6c-1.2,0-2.1,0.2-2.6,0.6c-0.5,0.4-0.7,0.8-0.7,1.3c0,0.3,0.1,0.6,0.2,0.8
			c0.1,0.2,0.3,0.4,0.6,0.6c0.3,0.2,0.7,0.4,1.2,0.5c0.5,0.1,1.2,0.2,2,0.4c1,0.1,1.9,0.3,2.7,0.6c0.8,0.2,1.5,0.6,2.1,1
			c0.6,0.4,1.1,0.9,1.4,1.5c0.3,0.6,0.5,1.3,0.5,2.1c0,0.7-0.1,1.4-0.4,2c-0.3,0.6-0.7,1.2-1.4,1.6c-0.6,0.4-1.4,0.8-2.3,1.1
			C314,60.2,313,60.3,311.8,60.3z"/>
		<path d="M329.1,60.3c-1.1,0-2.2-0.2-3.2-0.5c-1-0.4-1.9-0.9-2.6-1.6c-0.7-0.7-1.4-1.6-1.8-2.7c-0.4-1.1-0.7-2.4-0.7-3.8v-0.6
			c0-1.4,0.2-2.6,0.6-3.7c0.4-1.1,1-1.9,1.7-2.6c0.7-0.7,1.6-1.2,2.6-1.6c0.9-0.3,2-0.5,3.1-0.5c2.6,0,4.5,0.7,5.9,2.1
			c1.4,1.4,2.1,3.4,2.1,5.9v1.8h-12.3c0,0.9,0.2,1.6,0.4,2.2c0.2,0.6,0.6,1.1,1.1,1.4c0.4,0.4,0.9,0.6,1.5,0.8
			c0.6,0.2,1.1,0.2,1.7,0.2c1.2,0,2.1-0.2,2.7-0.6c0.6-0.4,0.9-0.9,1.2-1.5h3.5c-0.3,1.7-1.2,2.9-2.5,3.8
			C332.6,59.9,331,60.3,329.1,60.3z M328.9,45.8c-0.6,0-1.2,0.1-1.7,0.2c-0.6,0.1-1,0.4-1.4,0.7c-0.4,0.3-0.7,0.7-1,1.2
			c-0.2,0.5-0.4,1.1-0.4,1.9h8.8c0-0.8-0.1-1.4-0.4-2c-0.2-0.5-0.5-0.9-0.9-1.2c-0.4-0.3-0.8-0.6-1.4-0.7
			C330.1,45.9,329.6,45.8,328.9,45.8z"/>
		<path d="M345.8,60.3c-1.2,0-2.3-0.1-3.2-0.4c-0.9-0.2-1.6-0.6-2.2-1.1c-0.6-0.4-1.1-1-1.3-1.6c-0.3-0.6-0.5-1.2-0.6-1.9h3.5
			c0.1,0.6,0.5,1.1,1.1,1.5c0.6,0.4,1.5,0.6,2.7,0.6c1.4,0,2.4-0.2,2.9-0.6c0.6-0.4,0.9-0.9,0.9-1.5c0-0.2-0.1-0.6-0.2-0.7
			c-0.1-0.2-0.4-0.4-0.7-0.7c-0.3-0.2-0.7-0.4-1.3-0.6c-0.6-0.2-1.2-0.3-2.1-0.4c-0.9-0.1-1.8-0.3-2.6-0.6s-1.4-0.6-2-1
			c-0.6-0.4-1-0.9-1.2-1.4c-0.2-0.6-0.4-1.2-0.4-2.1c0-0.7,0.1-1.3,0.4-1.9c0.2-0.6,0.7-1.1,1.2-1.6c0.6-0.4,1.3-0.8,2.1-1.1
			c0.9-0.2,1.9-0.4,3-0.4c1.1,0,2.1,0.1,2.9,0.4c0.8,0.2,1.5,0.6,2,1.1c0.6,0.4,0.9,1,1.2,1.6s0.5,1.2,0.6,1.9H349
			c-0.2-0.7-0.5-1.2-1.1-1.5c-0.5-0.4-1.2-0.6-2.1-0.6c-1.2,0-2.1,0.2-2.6,0.6c-0.5,0.4-0.7,0.8-0.7,1.3c0,0.3,0.1,0.6,0.2,0.8
			s0.3,0.4,0.6,0.6s0.7,0.4,1.2,0.5c0.5,0.1,1.2,0.2,2,0.4c1,0.1,1.9,0.3,2.7,0.6c0.8,0.2,1.5,0.6,2.1,1c0.6,0.4,1.1,0.9,1.4,1.5
			c0.3,0.6,0.5,1.3,0.5,2.1c0,0.7-0.1,1.4-0.4,2c-0.3,0.6-0.7,1.2-1.4,1.6c-0.6,0.4-1.4,0.8-2.3,1.1C348.1,60.2,347,60.3,345.8,60.3
			z"/>
		<path d="M361.4,43.1h3.7l3.1,12.4l3.9-12.4h3.2l4.1,12.4l3.1-12.4h3.4L381.1,60h-3.5l-4.2-12.4L369.4,60h-3.5L361.4,43.1z"/>
		<path d="M390.3,41.2c-0.7,0-1.2-0.2-1.6-0.6c-0.4-0.4-0.6-0.9-0.6-1.6c0-0.7,0.2-1.2,0.6-1.6c0.4-0.4,0.9-0.6,1.6-0.6
			s1.2,0.2,1.6,0.6c0.4,0.4,0.6,0.9,0.6,1.6c0,0.7-0.2,1.2-0.6,1.6C391.5,41,391,41.2,390.3,41.2z M388.5,43.1h3.5V60h-3.5V43.1z"/>
		<path d="M402.5,60.1c-1.9,0-3.3-0.4-4.2-1.2c-0.8-0.8-1.2-2.2-1.2-4v-8.7h-2.4v-3h2.4v-3.8h3.5v3.8h4.3v3h-4.3v8.3
			c0,1,0.2,1.7,0.6,2.1c0.4,0.4,1.1,0.6,2.1,0.6c0.6,0,1.2-0.1,1.9-0.1v3c-0.4,0.1-0.8,0.1-1.2,0.1C403.5,60.1,403,60.1,402.5,60.1z
			"/>
		<path d="M407.9,37.7h3.5v8.1c0.2-0.4,0.4-0.7,0.7-1.1c0.3-0.4,0.7-0.7,1.1-1c0.4-0.2,0.9-0.5,1.5-0.7c0.6-0.2,1.2-0.2,1.9-0.2
			c2.1,0,3.6,0.6,4.6,1.7c1.1,1.1,1.6,2.7,1.6,4.9V60h-3.5v-9.8c0-1.4-0.3-2.5-0.9-3.2c-0.6-0.7-1.6-1.1-2.9-1.1
			c-0.7,0-1.4,0.1-1.9,0.4c-0.5,0.2-0.9,0.6-1.2,0.9s-0.6,0.9-0.7,1.4c-0.2,0.5-0.2,1.1-0.2,1.6V60H408L407.9,37.7L407.9,37.7z"/>
		<path d="M442.2,60.3c-1.4,0-2.6-0.3-3.6-0.9s-1.7-1.4-2.1-2.2V60h-3.2V37.7h3.5v8.1c0.5-0.9,1.2-1.6,2.2-2.2
			c0.9-0.6,2-0.9,3.3-0.9c2.2,0,3.9,0.7,5.2,2.1c1.2,1.4,1.9,3.4,1.9,6.2v0.6c0,1.4-0.2,2.7-0.5,3.8c-0.3,1.1-0.8,2-1.4,2.7
			c-0.6,0.7-1.4,1.2-2.2,1.6C444.2,60.2,443.2,60.3,442.2,60.3z M441.3,57.3c1.3,0,2.4-0.4,3.1-1.4c0.8-0.9,1.2-2.3,1.2-4.2v-0.6
			c0-1.8-0.4-3.1-1.2-4c-0.8-0.9-1.9-1.3-3.2-1.3c-0.6,0-1.2,0.1-1.7,0.3c-0.6,0.2-1.1,0.5-1.5,0.9c-0.4,0.4-0.7,0.8-1.1,1.4
			c-0.2,0.6-0.4,1.2-0.4,1.9v2.2c0,0.8,0.1,1.5,0.4,2.1c0.2,0.6,0.6,1.1,1,1.5c0.4,0.4,0.9,0.7,1.5,0.9
			C440.1,57.2,440.7,57.3,441.3,57.3z"/>
		<path d="M456.9,60.3c-0.9,0-1.7-0.1-2.4-0.4c-0.7-0.2-1.3-0.6-1.8-1.1c-0.5-0.5-0.9-1.1-1.1-1.7s-0.4-1.3-0.4-2.1
			c0-1.7,0.5-2.9,1.5-3.7c1-0.8,2.4-1.2,4.4-1.2h5.2v-0.9c0-1.2-0.3-2.1-0.9-2.6c-0.6-0.5-1.4-0.7-2.7-0.7c-1.1,0-1.9,0.2-2.4,0.5
			c-0.5,0.3-0.8,0.8-0.9,1.4H452c0.1-0.7,0.2-1.4,0.6-2c0.3-0.6,0.8-1.1,1.4-1.6c0.6-0.4,1.3-0.8,2.1-1.1c0.8-0.2,1.7-0.4,2.8-0.4
			s2,0.1,2.8,0.4c0.8,0.2,1.6,0.6,2.1,1.1c0.6,0.5,1.1,1.1,1.4,1.9c0.3,0.8,0.5,1.7,0.5,2.8v6.7c0,0.9,0,1.7,0.1,2.3
			c0,0.7,0.1,1.3,0.2,1.9h-3.2c-0.1-0.5-0.1-0.9-0.1-1.2c-0.1-0.3-0.1-0.7-0.1-1.2c-0.4,0.8-1.1,1.4-2.1,2
			C459.5,60,458.3,60.3,456.9,60.3z M457.8,57.3c0.6,0,1.2-0.1,1.7-0.2c0.5-0.2,1-0.4,1.4-0.7c0.4-0.3,0.7-0.7,1-1.1
			c0.2-0.4,0.4-1,0.4-1.6v-0.9h-4.6c-0.9,0-1.6,0.2-2.1,0.6c-0.6,0.4-0.8,0.9-0.8,1.7c0,0.7,0.2,1.2,0.7,1.7
			C456,57,456.8,57.3,457.8,57.3z"/>
		<path d="M475.5,60.3c-1.1,0-2.1-0.2-2.9-0.6c-0.9-0.4-1.6-0.9-2.2-1.6c-0.6-0.7-1.1-1.6-1.4-2.7c-0.3-1.1-0.5-2.4-0.5-3.8v-0.6
			c0-1.4,0.2-2.6,0.5-3.6c0.3-1,0.8-1.9,1.4-2.6c0.6-0.7,1.4-1.2,2.2-1.6c0.9-0.4,1.8-0.6,2.9-0.6c1.2,0,2.4,0.3,3.3,0.9
			c0.9,0.6,1.6,1.3,2.2,2.2v-8.1h3.5v22.3h-3.2v-2.7c-0.2,0.4-0.4,0.8-0.8,1.2s-0.8,0.7-1.3,1c-0.5,0.3-1.1,0.5-1.7,0.7
			C476.8,60.2,476.1,60.3,475.5,60.3z M476.2,57.3c0.6,0,1.2-0.1,1.7-0.3c0.6-0.2,1.1-0.5,1.5-0.9s0.7-0.9,1-1.5
			c0.2-0.6,0.4-1.3,0.4-2.1v-2.2c0-0.7-0.1-1.4-0.4-1.9c-0.2-0.6-0.6-1-1.1-1.4s-0.9-0.6-1.5-0.9c-0.6-0.2-1.1-0.3-1.7-0.3
			c-1.3,0-2.4,0.4-3.2,1.3c-0.8,0.9-1.2,2.2-1.2,4v0.6c0,1.9,0.4,3.2,1.2,4.2C473.9,56.8,475,57.3,476.2,57.3z"/>
		<path d="M494.8,43.1h3.2V46c0.3-0.9,0.9-1.6,1.7-2.2c0.8-0.6,1.7-0.9,2.9-0.9c0.5,0,0.9,0,1.2,0.1c0.2,0.1,0.4,0.1,0.6,0.1v3.2
			c-0.4-0.1-0.7-0.2-1-0.2s-0.7-0.1-1.1-0.1c-0.7,0-1.3,0.1-1.8,0.4c-0.5,0.2-0.9,0.6-1.2,0.9s-0.6,0.9-0.7,1.4
			c-0.2,0.5-0.2,1.1-0.2,1.6V60h-3.5L494.8,43.1L494.8,43.1z"/>
		<path d="M513.4,60.3c-1.1,0-2.2-0.2-3.2-0.5c-1-0.4-1.9-0.9-2.6-1.6c-0.7-0.7-1.4-1.6-1.8-2.7c-0.4-1.1-0.7-2.4-0.7-3.8v-0.6
			c0-1.4,0.2-2.6,0.6-3.7c0.4-1.1,1-1.9,1.7-2.6c0.7-0.7,1.6-1.2,2.6-1.6c0.9-0.3,2-0.5,3.1-0.5c2.6,0,4.5,0.7,5.9,2.1
			c1.4,1.4,2.1,3.4,2.1,5.9v1.8h-12.3c0,0.9,0.2,1.6,0.4,2.2c0.2,0.6,0.6,1.1,1.1,1.4c0.4,0.4,0.9,0.6,1.5,0.8
			c0.6,0.2,1.1,0.2,1.7,0.2c1.2,0,2.1-0.2,2.7-0.6s0.9-0.9,1.2-1.5h3.5c-0.3,1.7-1.2,2.9-2.5,3.8C517,59.9,515.4,60.3,513.4,60.3z
			 M513.3,45.8c-0.6,0-1.2,0.1-1.7,0.2c-0.6,0.1-1,0.4-1.4,0.7c-0.4,0.3-0.7,0.7-1,1.2c-0.2,0.5-0.4,1.1-0.4,1.9h8.8
			c0-0.8-0.1-1.4-0.4-2c-0.2-0.5-0.5-0.9-0.9-1.2c-0.4-0.3-0.8-0.6-1.4-0.7C514.4,45.9,513.9,45.8,513.3,45.8z"/>
		<path d="M521.6,43.1h3.8l5.2,13l4.6-13h3.6L532.2,60h-3.5L521.6,43.1z"/>
		<path d="M542.8,41.2c-0.7,0-1.2-0.2-1.6-0.6c-0.4-0.4-0.6-0.9-0.6-1.6c0-0.7,0.2-1.2,0.6-1.6c0.4-0.4,0.9-0.6,1.6-0.6
			s1.2,0.2,1.6,0.6c0.4,0.4,0.6,0.9,0.6,1.6c0,0.7-0.2,1.2-0.6,1.6C544,41,543.5,41.2,542.8,41.2z M541.1,43.1h3.5V60h-3.5V43.1z"/>
		<path d="M555.9,60.3c-1.1,0-2.2-0.2-3.2-0.5c-1-0.4-1.9-0.9-2.6-1.6c-0.7-0.7-1.4-1.6-1.8-2.7c-0.4-1.1-0.7-2.4-0.7-3.8v-0.6
			c0-1.4,0.2-2.6,0.6-3.7s1-1.9,1.7-2.6c0.7-0.7,1.6-1.2,2.6-1.6c0.9-0.3,2-0.5,3.1-0.5c2.6,0,4.5,0.7,5.9,2.1
			c1.4,1.4,2.1,3.4,2.1,5.9v1.8h-12.3c0,0.9,0.2,1.6,0.4,2.2c0.2,0.6,0.6,1.1,1.1,1.4c0.4,0.4,0.9,0.6,1.5,0.8
			c0.6,0.2,1.1,0.2,1.7,0.2c1.2,0,2.1-0.2,2.7-0.6s0.9-0.9,1.2-1.5h3.5c-0.3,1.7-1.2,2.9-2.5,3.8C559.4,59.9,557.8,60.3,555.9,60.3z
			 M555.7,45.8c-0.6,0-1.2,0.1-1.7,0.2c-0.6,0.1-1,0.4-1.4,0.7c-0.4,0.3-0.7,0.7-1,1.2c-0.2,0.5-0.4,1.1-0.4,1.9h8.8
			c0-0.8-0.1-1.4-0.4-2c-0.2-0.5-0.5-0.9-0.9-1.2c-0.4-0.3-0.8-0.6-1.4-0.7C556.9,45.9,556.3,45.8,555.7,45.8z"/>
		<path d="M564.7,43.1h3.7l3.1,12.4l3.9-12.4h3.2l4.1,12.4l3.1-12.4h3.4L584.4,60h-3.5l-4.2-12.4L572.7,60h-3.5L564.7,43.1z"/>
		<path d="M597.5,60.3c-1.2,0-2.3-0.1-3.2-0.4c-0.9-0.2-1.6-0.6-2.2-1.1c-0.6-0.4-1.1-1-1.3-1.6c-0.3-0.6-0.5-1.2-0.6-1.9h3.5
			c0.1,0.6,0.5,1.1,1.1,1.5c0.6,0.4,1.5,0.6,2.7,0.6c1.4,0,2.4-0.2,2.9-0.6c0.6-0.4,0.9-0.9,0.9-1.5c0-0.2-0.1-0.6-0.2-0.7
			c-0.1-0.2-0.4-0.4-0.7-0.7c-0.3-0.2-0.7-0.4-1.3-0.6c-0.6-0.2-1.2-0.3-2.1-0.4c-0.9-0.1-1.8-0.3-2.6-0.6c-0.8-0.2-1.4-0.6-2-1
			c-0.6-0.4-1-0.9-1.2-1.4c-0.2-0.6-0.4-1.2-0.4-2.1c0-0.7,0.1-1.3,0.4-1.9c0.2-0.6,0.7-1.1,1.2-1.6s1.3-0.8,2.1-1.1
			c0.9-0.2,1.9-0.4,3-0.4s2.1,0.1,2.9,0.4c0.8,0.2,1.5,0.6,2,1.1c0.6,0.4,0.9,1,1.2,1.6c0.3,0.6,0.5,1.2,0.6,1.9h-3.5
			c-0.2-0.7-0.5-1.2-1.1-1.5c-0.5-0.4-1.2-0.6-2.1-0.6c-1.2,0-2.1,0.2-2.6,0.6c-0.5,0.4-0.7,0.8-0.7,1.3c0,0.3,0.1,0.6,0.2,0.8
			s0.3,0.4,0.6,0.6c0.3,0.2,0.7,0.4,1.2,0.5c0.5,0.1,1.2,0.2,2,0.4c1,0.1,1.9,0.3,2.7,0.6c0.8,0.2,1.5,0.6,2.1,1
			c0.6,0.4,1.1,0.9,1.4,1.5c0.3,0.6,0.5,1.3,0.5,2.1c0,0.7-0.1,1.4-0.4,2c-0.3,0.6-0.7,1.2-1.4,1.6c-0.6,0.4-1.4,0.8-2.3,1.1
			C599.8,60.2,598.7,60.3,597.5,60.3z"/>
	</g>
</g>
</svg>
