<?xml version="1.0" encoding="utf-8"?>
<!-- Generator: Adobe Illustrator 27.0.0, SVG Export Plug-In . SVG Version: 6.00 Build 0)  -->
<svg version="1.1" id="Layer_1" xmlns="http://www.w3.org/2000/svg" xmlns:xlink="http://www.w3.org/1999/xlink" x="0px" y="0px"
	 viewBox="0 0 3840 667.5" style="enable-background:new 0 0 3840 667.5;" xml:space="preserve">
<style type="text/css">
	.st0{fill:#F4DAFF;}
</style>
<g>
	<path class="st0" d="M331.6,0.2h3176.9c183.1,0,331.6,149.3,331.6,333.5l0,0c0,184.2-148.4,333.5-331.6,333.5H331.6
		C148.4,667.2,0,517.9,0,333.8l0,0C0,149.6,148.4,0.2,331.6,0.2z"/>
	<g>
		<path d="M238.3,238.2H264v62h72.7v-62h25.7v150.6h-25.7v-66.3H264v66.3h-25.7V238.2z"/>
		<path d="M424.4,391.4c-6,0-11.6-0.9-16.3-2.6c-4.7-1.7-9-4.3-12-7.7c-3.4-3.4-6-6.9-7.7-11.2c-1.7-4.3-2.6-9-2.6-14.2
			c0-11.2,3.4-19.8,10.3-25.4s16.7-8.2,29.5-8.2h35.1v-6.5c0-8.6-1.7-14.6-5.6-17.6c-3.9-3.4-9.8-4.7-18-4.7
			c-7.3,0-12.8,1.3-16.3,3.4c-3.4,2.2-5.6,5.6-6,9.5h-23.1c0.4-4.7,1.7-9.5,3.9-13.3c2.1-4.3,5.1-7.7,9-10.8c3.9-3,8.6-5.2,14.1-6.9
			c5.6-1.7,12-2.6,18.8-2.6s13.3,0.9,18.8,2.2c5.6,1.7,10.3,3.9,14.5,7.3c3.9,3.4,7.3,7.7,9.4,12.9c2.1,5.2,3.4,11.6,3.4,19.4V360
			c0,6,0,11.2,0,15.9c0,4.7,0.4,9,0.9,13.3h-21.4c-0.4-3.4-0.9-6-0.9-8.6c-0.4-2.2-0.4-5.2-0.4-8.6c-2.6,5.2-7.3,9.9-14.1,13.8
			C442.4,389.3,434.2,391.4,424.4,391.4z M430.8,370.8c3.9,0,7.7-0.4,11.6-1.7c3.9-0.9,6.8-2.6,9.4-4.7c2.6-2.2,4.7-4.7,6.4-7.7
			c1.7-3,2.6-6.5,2.6-10.8v-6.5h-30.8c-6,0-10.7,1.3-14.5,3.9s-5.6,6.5-5.6,11.2s1.7,8.6,5.1,11.6
			C418.4,369,423.5,370.8,430.8,370.8z"/>
		<path d="M507.8,274.8h21.8v19.4c3.4-6.5,8.6-12,15.4-15.9c6.8-3.9,14.5-5.6,23.1-5.6c15,0,26.5,4.7,35.1,13.8
			c8.6,9.5,12.8,23.2,12.8,42.2v4.3c0,9.9-1.3,18.1-3.4,25.8c-2.1,7.3-5.6,13.3-9.8,18.1c-4.3,4.7-9.4,8.6-15,10.8
			c-6,2.6-12.4,3.4-19.7,3.4c-8.1,0-15.4-1.7-22.2-5.2c-6.8-3.4-11.6-8.6-14.5-15.1v61.1h-23.5V274.8z M562.6,370.8
			c9,0,15.8-3,21.4-9.5c5.6-6,8.1-15.5,8.1-28.4v-4.3c0-12-2.6-21.1-8.1-26.7c-5.1-6-12.4-8.6-21.4-8.6c-3.9,0-7.7,0.4-11.6,2.2
			c-3.9,1.3-6.8,3-9.8,5.6s-5.1,5.6-6.8,9.5s-2.6,8.2-2.6,12.9v15.1c0,5.6,0.9,10.3,2.6,14.2c1.7,3.9,3.9,7.3,6.8,10.3
			c3,2.6,6,4.7,9.8,6C554.4,369.9,558.3,370.8,562.6,370.8z"/>
		<path d="M634,274.8h21.8v19.4c3.4-6.5,8.6-12,15.4-15.9c6.8-3.9,14.5-5.6,23.1-5.6c15,0,26.5,4.7,35.1,13.8
			c8.6,9.5,12.8,23.2,12.8,42.2v4.3c0,9.9-1.3,18.1-3.4,25.8c-2.1,7.3-5.6,13.3-9.8,18.1c-4.3,4.7-9.4,8.6-15,10.8
			c-6,2.6-12.4,3.4-19.7,3.4c-8.1,0-15.4-1.7-22.2-5.2c-6.8-3.4-11.6-8.6-14.5-15.1v61.1H634V274.8z M688.8,370.8
			c9,0,15.8-3,21.4-9.5c5.6-6,8.1-15.5,8.1-28.4v-4.3c0-12-2.6-21.1-8.1-26.7c-5.1-6-12.4-8.6-21.4-8.6c-3.9,0-7.7,0.4-11.6,2.2
			c-3.9,1.3-6.8,3-9.8,5.6s-5.1,5.6-6.8,9.5c-1.7,3.9-2.6,8.2-2.6,12.9v15.1c0,5.6,0.9,10.3,2.6,14.2c1.7,3.9,3.9,7.3,6.8,10.3
			c3,2.6,6,4.7,9.8,6C680.6,369.9,684.5,370.8,688.8,370.8z"/>
		<path d="M774.3,434.4c-2.1,0-4.3,0-6.4-0.4v-20.7c2.1,0.4,4.3,0.9,6.4,0.9c2.6,0,4.3-0.4,6-1.3c1.7-0.9,3-2.2,4.7-3.9
			c1.3-2.2,2.6-4.3,3.9-7.7c1.3-3,3-7.3,4.7-12l-47.9-114h25.7l34.7,88.2l31.2-88.2h24l-43.6,114c-3,8.2-6,15.1-8.6,20.7
			s-5.6,10.3-9,14.2c-3.4,3.4-6.8,6.5-10.7,8.2C784.6,433.6,779.9,434.4,774.3,434.4z"/>
		<path d="M967.7,391.4c-7.7,0-15-1.3-21.4-3.4s-12-6-16.7-10.8c-4.7-4.7-8.6-10.8-11.1-18.1c-2.6-7.3-4.3-15.9-4.3-25.8V329
			c0-9,1.3-17.2,4.3-24.1s6.8-12.9,11.6-17.6c4.7-4.7,10.7-8.2,17.1-10.8c6.4-2.2,13.3-3.4,20.5-3.4s14.1,0.9,19.7,3
			c6,2.2,10.7,4.7,15,8.2c3.9,3.4,7.3,7.7,9.8,12.5s3.9,9.9,4.7,15.1h-24c-1.3-5.2-3.9-9.5-7.7-12.9c-3.9-3.4-9.4-5.2-17.5-5.2
			c-3.9,0-7.7,0.9-11.1,2.2s-6.8,3.4-9.4,6.5c-2.6,3-4.7,6.5-6.4,11.2s-2.1,9.9-2.1,15.9v4.3c0,6.9,0.9,12.5,2.1,17.2
			c1.7,4.7,3.9,8.6,6.4,11.6c2.6,3,6,5.2,9.4,6.5s7.3,2.2,11.1,2.2c13.3,0,21.8-6,25.2-18.1h24c-1.3,6-3,11.6-6,16.4
			c-3,4.7-6.4,9-10.7,12c-4.3,3-9,6-14.5,7.7C980.1,390.6,974.1,391.4,967.7,391.4z"/>
		<path d="M1073.8,391.4c-13.3,0-23.5-3.9-30.4-11.6c-6.8-7.7-10.3-19.8-10.3-35.7v-68.9h23.5v66.7c0,9.5,2.1,16.8,6,21.5
			s10.3,7.3,18.8,7.3c4.7,0,8.6-0.9,12-2.2c3.4-1.7,6-3.9,8.1-6.5s3.9-6,4.7-9.5c0.9-3.4,1.7-7.3,1.7-10.8v-67.1h23.5v114h-21.8
			v-19.4c-2.6,6-7.3,10.8-13.3,15.1C1090.5,389.3,1082.8,391.4,1073.8,391.4z"/>
		<path d="M1198.7,391.4c-8.6,0-15.4-0.9-21.4-2.6c-6-1.7-10.7-4.3-15-7.7c-3.9-3-6.8-6.9-9-11.2s-3.4-8.6-3.9-13.3h23.5
			c0.9,3.9,3.4,7.3,7.3,9.9c3.9,2.6,9.8,3.9,18.4,3.9c9.4,0,16.3-1.3,19.7-3.9c3.9-2.6,6-6,6-9.9c0-1.7-0.4-3.4-1.7-5.2
			c-0.9-1.7-2.6-3-4.7-4.7c-2.1-1.3-5.1-2.6-9-3.9c-3.9-1.3-8.6-2.2-13.7-2.6c-6.4-0.9-12.4-2.2-17.5-3.9c-5.1-1.7-9.8-3.9-13.3-6.5
			c-3.9-2.6-6.4-6-8.6-9.9c-2.1-3.9-3-8.6-3-13.8c0-4.7,0.9-9,2.6-12.9c1.7-4.3,4.7-7.7,8.6-10.8c3.9-3,8.6-5.6,14.5-7.3
			c6-1.7,12.4-2.6,20.1-2.6c7.3,0,13.7,0.9,19.3,2.6c5.6,1.7,9.8,4.3,13.7,7.7c3.9,3,6.4,6.9,8.6,11.2c2.1,4.3,3,8.6,3.9,13.3h-23.5
			c-1.3-4.3-3.4-7.7-6.8-10.3c-3.4-2.6-8.1-3.9-14.5-3.9c-8.6,0-14.1,1.3-17.5,3.9c-3.4,2.6-4.7,5.6-4.7,9c0,2.2,0.4,3.9,1.3,5.2
			c0.9,1.7,2.1,3,4.3,4.3s4.7,2.2,8.1,3.4c3.4,0.9,8.1,1.7,13.3,2.2c6.4,0.9,12.4,2.2,18,3.9c5.6,1.7,10.3,3.9,14.1,6.9
			c3.9,3,6.8,6.5,9,10.3c2.1,3.9,3.4,9,3.4,14.2c0,4.7-0.9,9.5-3,13.8s-5.1,7.7-9,10.8c-4.3,3-9,5.6-15.4,7.3
			C1214.1,390.6,1206.8,391.4,1198.7,391.4z"/>
		<path d="M1309.9,390.1c-12.8,0-22.2-3-27.8-8.6c-5.6-5.6-8.6-14.6-8.6-27.1V295h-16.3v-20.2h16.3V249h23.5v25.8h29.1V295h-29.1
			V351c0,6.9,1.3,11.6,3.9,14.2c2.6,2.6,7.3,3.9,14.5,3.9c4.3,0,8.6,0,12.8-0.9v20.2c-2.6,0.4-5.6,0.4-8.6,0.9
			C1317.2,389.7,1313.8,390.1,1309.9,390.1z"/>
		<path d="M1394.7,391.4c-7.7,0-15-1.3-21.8-3.9c-6.8-2.6-12.8-6-17.5-11.2c-5.1-4.7-9-10.8-12-18.1c-3-7.3-4.3-15.5-4.3-25.4v-4.3
			c0-9,1.3-17.2,4.3-24.1c3-6.9,6.8-12.9,12-17.6s10.7-8.6,17.5-10.8c6.8-2.6,14.1-3.4,21.8-3.4s15,1.3,21.8,3.4
			c6.8,2.6,12.8,6,17.5,10.8c5.1,4.7,9,10.8,12,17.6c3,6.9,4.3,15.1,4.3,24.1v4.3c0,9.5-1.3,18.1-4.3,25.4c-3,7.3-6.8,13.3-12,18.1
			c-5.1,4.7-10.7,8.6-17.5,11.2S1402.4,391.4,1394.7,391.4z M1394.7,370.8c4.3,0,8.1-0.9,12-2.2s7.3-3.4,10.3-6.5
			c3-3,5.1-6.9,6.8-11.6c1.7-4.7,2.6-10.3,2.6-17.2V329c0-6-0.9-11.6-2.6-15.9c-1.7-4.3-4.3-8.2-6.8-10.8c-3-3-6.4-5.2-10.3-6.5
			s-7.7-2.2-12-2.2s-8.1,0.9-12,2.2s-7.3,3.4-10.3,6.5c-3,3-5.1,6.5-6.8,10.8c-1.7,4.3-2.6,9.9-2.6,15.9v4.3
			c0,6.9,0.9,12.5,2.6,17.2c1.7,4.7,4.3,8.6,6.8,11.6c3,3,6.4,5.2,10.3,6.5S1390.4,370.8,1394.7,370.8z"/>
		<path d="M1468.2,274.8h21.8v19.4c1.3-3,3-5.6,5.1-8.2c2.1-2.6,4.7-5.2,7.3-6.9c2.6-1.7,6-3.4,9-4.7c3.4-1.3,6.8-1.7,10.3-1.7
			c9.4,0,16.7,2.2,22.2,6c5.1,3.9,9,9,10.7,15.5c3.4-6.5,7.7-11.6,13.7-15.5c6-3.9,12.8-6,20.5-6c12,0,21,3.4,27.4,10.3
			c6.4,6.9,9.4,18.1,9.4,32.7v73.2h-23.5v-67.6c0-10.3-1.7-17.2-5.6-21.5c-3.9-4.3-9-6.5-15.4-6.5c-7.7,0-13.3,2.6-17.1,7.7
			s-5.6,12-5.6,20.2v68H1535v-68c0-10.3-1.7-17.2-5.6-21.5c-3.9-4.3-9-6.5-15.4-6.5c-7.7,0-13.3,2.6-17.1,7.7
			c-3.9,5.2-5.6,12-5.6,20.2v68h-23.5V274.8H1468.2z"/>
		<path d="M1699.3,391.4c-7.7,0-14.5-1.3-21.4-3.4c-6.8-2.2-12.4-6-17.5-10.8c-5.1-4.7-9-10.8-12-18.1c-3-7.3-4.3-15.9-4.3-25.8V329
			c0-9.5,1.3-17.6,4.3-25c3-6.9,6.8-12.9,11.6-17.6c5.1-4.7,10.7-8.2,17.1-10.3s13.3-3.4,20.5-3.4c17.1,0,30.4,4.7,39.8,13.8
			c9,9.5,13.7,22.8,13.7,40v12h-83c0,6,1.3,10.8,3,15.1c1.7,3.9,4.3,7.3,6.8,9.9c3,2.6,6.4,4.3,10.3,5.6c3.9,1.3,7.7,1.7,11.6,1.7
			c8.1,0,14.1-1.3,18-3.9c3.9-2.6,6.4-6,7.7-9.9h23.5c-2.1,11.2-7.7,19.8-16.7,25.8C1722.8,388.4,1712.1,391.4,1699.3,391.4z
			 M1698.4,293.3c-3.9,0-7.7,0.4-11.6,1.7c-3.9,0.9-6.8,2.6-9.4,4.7c-3,2.2-5.1,5.2-6.8,8.6s-2.6,7.7-3,12.9h59.5
			c0-5.2-0.9-9.9-2.6-13.3c-1.3-3.4-3.4-6.5-6-8.6s-5.6-3.9-9-4.7C1706.1,293.7,1702.2,293.3,1698.4,293.3z"/>
		<path d="M1769,274.8h21.8v19.4c2.1-6,6-10.8,11.1-15.1c5.1-4.3,11.6-6.5,19.3-6.5c3.4,0,6.4,0,8.1,0.4c1.7,0.4,3,0.4,3.9,0.9v21.5
			c-2.6-0.9-4.7-1.3-6.4-1.7c-2.1-0.4-4.3-0.4-7.3-0.4c-4.7,0-8.6,0.9-12,2.6c-3.4,1.7-6,3.9-8.1,6.5s-3.9,5.6-4.7,9
			c-0.9,3.4-1.7,7.3-1.7,10.8v66.7h-23.5v-114H1769z"/>
		<path d="M1889.6,391.4c-8.6,0-15.4-0.9-21.4-2.6c-6-1.7-10.7-4.3-14.5-7.7c-3.9-3-6.8-6.9-9-11.2s-3.4-8.6-3.9-13.3h23.5
			c0.9,3.9,3.4,7.3,7.3,9.9c3.9,2.6,9.8,3.9,18.4,3.9c9.4,0,16.3-1.3,20.1-3.9c3.9-2.6,5.6-6,5.6-9.9c0-1.7-0.4-3.4-1.3-5.2
			c-0.9-1.7-2.6-3-4.7-4.7c-2.1-1.3-5.1-2.6-9-3.9c-3.9-1.3-8.6-2.2-13.7-2.6c-6.4-0.9-12.4-2.2-17.5-3.9c-5.1-1.7-9.8-3.9-13.3-6.5
			c-3.9-2.6-6.4-6-8.6-9.9c-2.1-3.9-3-8.6-3-13.8c0-4.7,0.9-9,3-12.9c1.7-4.3,4.7-7.7,8.6-10.8c3.9-3,8.6-5.6,14.5-7.3
			c5.6-1.7,12.4-2.6,20.1-2.6c7.3,0,13.7,0.9,19.3,2.6c5.6,1.7,9.8,4.3,13.7,7.7c3.9,3,6.4,6.9,8.6,11.2c2.1,4.3,3,8.6,3.9,13.3
			h-23.5c-1.3-4.3-3.4-7.7-6.8-10.3c-3.4-2.6-8.1-3.9-14.5-3.9c-8.6,0-14.1,1.3-17.5,3.9c-3.4,2.6-5.1,5.6-5.1,9
			c0,2.2,0.4,3.9,1.3,5.2c0.9,1.7,2.1,3,4.3,4.3s4.7,2.2,8.1,3.4c3.4,0.9,8.1,1.7,13.3,2.2c6.4,0.9,12.4,2.2,18,3.9
			c5.6,1.7,10.3,3.9,14.1,6.9c3.9,3,6.8,6.5,9,10.3c2.1,3.9,3.4,9,3.4,14.2c0,4.7-0.9,9.5-3,13.8s-5.1,7.7-9.4,10.8
			s-9.4,5.6-15.4,7.3C1905,390.6,1897.8,391.4,1889.6,391.4z"/>
		<path d="M2045.8,391.4c-8.6,0-15.4-0.9-21.4-2.6c-6-1.7-10.7-4.3-14.5-7.7c-3.9-3-6.8-6.9-9-11.2s-3.4-8.6-3.9-13.3h23.5
			c0.9,3.9,3.4,7.3,7.3,9.9c3.9,2.6,9.8,3.9,18.4,3.9c9.4,0,16.3-1.3,20.1-3.9c3.9-2.6,5.6-6,5.6-9.9c0-1.7-0.4-3.4-1.3-5.2
			c-0.9-1.7-2.6-3-4.7-4.7c-2.1-1.3-5.1-2.6-9-3.9c-3.9-1.3-8.6-2.2-13.7-2.6c-6.4-0.9-12.4-2.2-17.5-3.9c-5.1-1.7-9.8-3.9-13.3-6.5
			c-3.9-2.6-6.4-6-8.6-9.9c-2.1-3.9-3-8.6-3-13.8c0-4.7,0.9-9,3-12.9c1.7-4.3,4.7-7.7,8.6-10.8s8.6-5.6,14.5-7.3
			c5.6-1.7,12.4-2.6,20.1-2.6c7.3,0,13.7,0.9,19.3,2.6c5.6,1.7,9.8,4.3,13.7,7.7c3.9,3,6.4,6.9,8.6,11.2c2.1,4.3,3,8.6,3.9,13.3
			h-23.5c-1.3-4.3-3.4-7.7-6.8-10.3c-3.4-2.6-8.1-3.9-14.5-3.9c-8.6,0-14.1,1.3-17.5,3.9c-3.4,2.6-5.1,5.6-5.1,9
			c0,2.2,0.4,3.9,1.3,5.2c0.9,1.7,2.1,3,4.3,4.3s4.7,2.2,8.1,3.4c3.4,0.9,8.1,1.7,13.3,2.2c6.4,0.9,12.4,2.2,18,3.9
			c5.6,1.7,10.3,3.9,14.1,6.9c3.9,3,6.8,6.5,9,10.3c2.1,3.9,3.4,9,3.4,14.2c0,4.7-0.9,9.5-3,13.8c-2.1,4.3-5.1,7.7-9.4,10.8
			s-9.4,5.6-15.4,7.3C2061.2,390.6,2053.9,391.4,2045.8,391.4z"/>
		<path d="M2113.4,274.8h21.8v19.4c3.4-6.5,8.6-12,15.4-15.9c6.8-3.9,14.5-5.6,23.1-5.6c15,0,26.5,4.7,35.1,13.8
			c8.6,9.5,12.8,23.2,12.8,42.2v4.3c0,9.9-1.3,18.1-3.4,25.8c-2.1,7.3-5.6,13.3-9.8,18.1c-4.3,4.7-9.4,8.6-15,10.8
			c-6,2.6-12.4,3.4-19.7,3.4c-8.1,0-15.4-1.7-22.2-5.2c-6.8-3.4-11.6-8.6-14.1-15.1v61.1h-23.5V274.8H2113.4z M2167.7,370.8
			c9,0,15.8-3,21.4-9.5c5.6-6,8.1-15.5,8.1-28.4v-4.3c0-12-2.6-21.1-8.1-26.7c-5.6-5.6-12.4-8.6-21.4-8.6c-3.9,0-7.7,0.4-11.6,2.2
			c-3.9,1.3-6.8,3-9.8,5.6c-3,2.6-5.1,5.6-6.8,9.5s-2.6,8.2-2.6,12.9v15.1c0,5.6,0.9,10.3,2.6,14.2c1.7,3.9,3.9,7.3,6.8,10.3
			c3,2.6,6,4.7,9.8,6C2159.6,369.9,2163.4,370.8,2167.7,370.8z"/>
		<path d="M2288.8,391.4c-7.7,0-14.5-1.3-21.4-3.4c-6.8-2.2-12.4-6-17.5-10.8c-5.1-4.7-9-10.8-12-18.1c-3-7.3-4.3-15.9-4.3-25.8V329
			c0-9.5,1.3-17.6,4.3-25c3-6.9,6.8-12.9,11.6-17.6c5.1-4.7,10.7-8.2,17.1-10.3c6.4-2.2,13.3-3.4,20.5-3.4
			c17.1,0,30.4,4.7,39.8,13.8c9,9.5,13.7,22.8,13.7,40v12h-83c0,6,1.3,10.8,3,15.1c1.7,3.9,4.3,7.3,6.8,9.9c3,2.6,6.4,4.3,10.3,5.6
			s7.7,1.7,11.6,1.7c8.1,0,14.1-1.3,18-3.9c3.9-2.6,6.4-6,7.7-9.9h23.5c-2.1,11.2-7.7,19.8-16.7,25.8
			C2312.3,388.4,2301.2,391.4,2288.8,391.4z M2287.5,293.3c-3.9,0-7.7,0.4-11.6,1.7c-3.9,0.9-6.8,2.6-9.4,4.7
			c-3,2.2-5.1,5.2-6.8,8.6c-1.7,3.4-2.6,7.7-3,12.9h59.5c0-5.2-0.9-9.9-2.6-13.3c-1.3-3.4-3.4-6.5-6-8.6c-2.6-2.2-5.6-3.9-9-4.7
			C2295.2,293.7,2291.3,293.3,2287.5,293.3z"/>
		<path d="M2358.1,274.8h21.8v19.4c2.6-5.6,7.3-10.8,13.3-15.1s14.1-6.5,23.5-6.5c13.7,0,24.4,3.9,31.2,11.2
			c6.8,7.7,10.7,18.5,10.7,33.1v72.3h-23.5v-67.1c0-9.5-2.1-16.8-6-21.5c-3.9-4.7-10.7-7.3-19.7-7.3c-5.1,0-9.4,0.9-12.8,2.6
			c-3.4,1.7-6.4,3.9-8.6,6.5c-2.1,2.6-3.9,5.6-5.1,9c-0.9,3.4-1.7,7.3-1.7,10.8v66.7h-23.5v-114H2358.1z"/>
		<path d="M2523.6,391.4c-7.3,0-13.7-1.3-19.7-3.4c-6-2.2-10.7-6-15-10.8c-4.3-4.7-7.3-10.8-9.8-18.1c-2.6-7.3-3.4-15.9-3.4-25.8
			V329c0-9,1.3-17.2,3.4-24.1c2.1-6.9,5.6-12.9,9.8-17.6c4.3-4.7,9.4-8.2,15-10.8c6-2.6,12.4-3.4,19.7-3.4c8.6,0,15.8,1.7,22.2,5.6
			c6.4,3.9,11.1,9,14.5,15.1v-55.5h23.5v150.6h-21.8v-19.4c-1.3,3-3,5.6-5.6,8.2c-2.6,2.6-5.1,4.7-8.6,6.9
			c-3.4,2.2-7.3,3.4-11.1,4.7C2532.6,390.6,2528.3,391.4,2523.6,391.4z M2529.2,370.8c4.3,0,8.1-0.9,12-2.2s7.3-3.4,9.8-6
			c2.6-2.6,5.1-6,6.8-10.3c1.7-3.9,2.6-8.6,2.6-14.2V323c0-4.7-0.9-9-2.6-12.9c-1.7-3.9-3.9-6.9-6.8-9.5c-3-2.6-6.4-4.3-10.3-5.6
			c-3.9-1.3-7.7-2.2-11.6-2.2c-9,0-16.3,3-21.4,8.6c-5.1,6-8.1,14.6-8.1,26.7v4.3c0,12.5,2.6,21.9,8.1,28.4
			C2513.4,367.3,2520.2,370.8,2529.2,370.8z"/>
		<path d="M2701.6,391.4c-8.6,0-16.3-1.3-23.1-3.4c-6.4-2.2-12-5.2-16.7-9.5c-4.3-3.9-7.7-8.6-10.3-14.2s-3.4-11.6-3.4-18.5h25.7
			c0,7.3,2.1,12.9,6.8,16.8c4.3,3.9,11.6,6,21,6s16.3-2.2,21-6c4.7-3.9,6.8-9.5,6.8-16.8s-2.1-12.9-6.4-17.2s-11.6-6.5-21.4-6.5h-15
			v-21.5h15c8.6,0,15-1.7,19.3-5.6c4.3-3.9,6.4-9,6.4-15.9s-2.1-12-6-15.5c-4.3-3.4-10.7-5.2-19.7-5.2s-15.4,1.7-19.7,5.2
			c-4.3,3.4-6.4,8.6-6.4,15.1h-25.7c0-12.9,4.3-23.7,13.3-31.4c8.6-7.7,21.4-12,38.5-12c8.6,0,15.8,0.9,22.2,3.4
			c6.4,2.6,12,5.2,16.3,8.6c4.3,3.4,7.7,7.7,9.8,12.9c2.1,4.7,3.4,9.9,3.4,15.5c0,8.6-2.1,15.9-6.8,21.5c-4.7,6-10.7,9.9-18.8,12.5
			c8.6,2.6,15.4,6.9,20.5,12.9c4.7,6,7.3,14.2,7.3,24.5c0,6-1.3,11.6-3.4,17.2c-2.1,5.2-5.6,9.9-10.3,13.8c-4.3,3.9-10.3,6.9-16.7,9
			C2717.9,390.1,2710.2,391.4,2701.6,391.4z"/>
		<path d="M2772.2,366.5h35.1V265.8l-35.1,25.4v-26.7l36.4-25.8h24.8v128.2h29.1v22.4h-89.8v-22.8H2772.2z"/>
		<path d="M2902.7,309.7c-5.1,0-10.3-0.9-14.5-2.6c-4.3-1.7-8.1-4.3-11.1-7.3c-3-3-5.6-6.9-7.3-11.2c-1.7-4.3-2.6-9-2.6-14.6v-2.2
			c0-5.2,0.9-10.3,2.6-14.6s4.3-8.2,7.3-11.2c3-3,6.8-5.6,11.1-7.3c4.3-1.7,9-2.6,14.5-2.6c5.1,0,9.8,0.9,14.1,2.6
			c4.3,1.7,8.1,4.3,11.1,7.3c3,3,5.6,6.9,7.3,11.2c1.7,4.3,2.6,9,2.6,14.6v2.2c0,5.2-0.9,10.3-2.6,14.6c-1.7,4.3-4.3,8.2-7.3,11.2
			c-3,3-6.8,5.6-11.1,7.3C2912.5,308.8,2907.8,309.7,2902.7,309.7z M2990.4,238.2h25.7l-102.7,150.6h-25.7L2990.4,238.2z
			 M2902.7,290.3c3.9,0,6.8-1.3,9.4-3.9c2.1-2.6,3.4-6.9,3.4-12.5v-2.2c0-5.6-1.3-9.9-3.4-12.5c-2.1-2.6-5.1-3.9-9.4-3.9
			s-6.8,1.3-9.4,3.9c-2.6,2.6-3.4,6.9-3.4,12.5v2.2c0,5.6,1.3,9.9,3.4,12.5C2895.4,289,2898.8,290.3,2902.7,290.3z M3001.1,391
			c-5.1,0-10.3-0.9-14.5-2.6c-4.3-1.7-8.1-4.3-11.1-7.3c-3-3-5.6-6.9-7.3-11.2c-1.7-4.3-2.6-9-2.6-14.6v-2.2
			c0-5.2,0.9-10.3,2.6-14.6s4.3-8.2,7.3-11.2c3-3,6.8-5.6,11.1-7.3s9-2.6,14.5-2.6c5.1,0,9.8,0.9,14.1,2.6c4.3,1.7,8.1,4.3,11.1,7.3
			c3,3,5.6,6.9,7.3,11.2c1.7,4.3,2.6,9,2.6,14.6v2.2c0,5.2-0.9,10.3-2.6,14.6s-4.3,8.2-7.3,11.2s-6.8,5.6-11.1,7.3
			C3010.9,390.1,3006.2,391,3001.1,391z M3001.1,371.6c3.9,0,6.8-1.3,9.4-3.9c2.1-2.6,3.4-6.9,3.4-12.5v-2.2c0-5.6-1.3-9.9-3.4-12.5
			c-2.1-2.6-5.1-3.9-9.4-3.9s-6.8,1.3-9.4,3.9c-2.1,2.6-3.4,6.9-3.4,12.5v2.2c0,5.6,1.3,9.9,3.4,12.5
			C2993.8,370.3,2997.2,371.6,3001.1,371.6z"/>
		<path d="M3097.3,274.8h21.8v19.4c1.3-3,3-5.6,5.1-8.2c2.1-2.6,4.7-5.2,7.3-6.9c2.6-2.2,6-3.4,9-4.7c3.4-1.3,6.8-1.7,10.3-1.7
			c9.4,0,16.7,2.2,22.2,6c5.1,3.9,9,9,10.7,15.5c3.4-6.5,7.7-11.6,13.7-15.5c6-3.9,12.8-6,20.5-6c12,0,21,3.4,27.4,10.3
			c6.4,6.9,9.4,18.1,9.4,32.7v73.2h-23.5v-67.6c0-10.3-1.7-17.2-5.6-21.5c-3.9-4.3-9-6.5-15.4-6.5c-7.7,0-13.3,2.6-17.1,7.7
			s-5.6,12-5.6,20.2v68h-23.5v-68c0-10.3-1.7-17.2-5.6-21.5c-3.9-4.3-9-6.5-15.4-6.5c-7.7,0-13.3,2.6-17.1,7.7s-5.6,12-5.6,20.2v68
			h-23.5V274.8H3097.3z"/>
		<path d="M3328.3,391.4c-7.7,0-15-1.3-21.8-3.9c-6.8-2.6-12.8-6-17.5-11.2c-5.1-4.7-9-10.8-12-18.1c-3-7.3-4.3-15.5-4.3-25.4v-4.3
			c0-9,1.3-17.2,4.3-24.1c3-6.9,6.8-12.9,12-17.6c5.1-4.7,10.7-8.6,17.5-10.8c6.8-2.6,14.1-3.4,21.8-3.4s15,1.3,21.8,3.4
			c6.8,2.6,12.8,6,17.5,10.8c5.1,4.7,9,10.8,12,17.6s4.3,15.1,4.3,24.1v4.3c0,9.5-1.3,18.1-4.3,25.4c-3,7.3-6.8,13.3-12,18.1
			s-10.7,8.6-17.5,11.2S3336,391.4,3328.3,391.4z M3328.3,370.8c4.3,0,8.1-0.9,12-2.2c3.9-1.3,7.3-3.4,9.8-6.5c3-3,5.1-6.9,7.3-11.6
			c1.7-4.7,2.6-10.3,2.6-17.2V329c0-6-0.9-11.6-2.6-15.9c-1.7-4.3-4.3-8.2-7.3-10.8c-3-3-6.4-5.2-9.8-6.5c-3.9-1.3-7.7-2.2-12-2.2
			s-8.1,0.9-12,2.2c-3.9,1.3-7.3,3.4-9.8,6.5c-3,3-5.1,6.5-7.3,10.8c-1.7,4.3-2.6,9.9-2.6,15.9v4.3c0,6.9,0.9,12.5,2.6,17.2
			c1.7,4.7,4.3,8.6,7.3,11.6c3,3,6.4,5.2,9.8,6.5C3320.2,369.9,3324.1,370.8,3328.3,370.8z"/>
		<path d="M3401.9,274.8h21.8v19.4c2.1-6,6-10.8,11.1-15.1s11.6-6.5,19.3-6.5c3.4,0,6.4,0,8.1,0.4c1.7,0.4,3,0.4,3.9,0.9v21.5
			c-2.6-0.9-4.7-1.3-6.4-1.7c-2.1-0.4-4.3-0.4-7.3-0.4c-4.7,0-8.6,0.9-12,2.6c-3.4,1.7-6,3.9-8.1,6.5c-2.1,2.6-3.9,5.6-4.7,9
			c-0.9,3.4-1.7,7.3-1.7,10.8v66.7h-23.5v-114H3401.9z"/>
		<path d="M3527.3,391.4c-7.7,0-14.5-1.3-21.4-3.4c-6.8-2.2-12.4-6-17.5-10.8c-5.1-4.7-9-10.8-12-18.1c-3-7.3-4.3-15.9-4.3-25.8V329
			c0-9.5,1.3-17.6,4.3-25c3-6.9,6.8-12.9,11.6-17.6c5.1-4.7,10.7-8.2,17.1-10.3c6.4-2.2,13.3-3.4,20.5-3.4
			c17.1,0,30.4,4.7,39.8,13.8c9,9.5,13.7,22.8,13.7,40v12h-83c0,6,1.3,10.8,3,15.1c1.7,3.9,4.3,7.3,6.8,9.9c3,2.6,6.4,4.3,10.3,5.6
			s7.7,1.7,11.6,1.7c8.1,0,14.1-1.3,18-3.9c3.9-2.6,6.4-6,7.7-9.9h23.5c-2.1,11.2-7.7,19.8-16.7,25.8
			C3550.8,388.4,3539.7,391.4,3527.3,391.4z M3526,293.3c-3.9,0-7.7,0.4-11.6,1.7c-3.9,0.9-6.8,2.6-9.4,4.7c-3,2.2-5.1,5.2-6.8,8.6
			s-2.6,7.7-3,12.9h59.5c0-5.2-0.9-9.9-2.6-13.3c-1.3-3.4-3.4-6.5-6-8.6s-5.6-3.9-9-4.7C3533.7,293.7,3529.8,293.3,3526,293.3z"/>
	</g>
</g>
</svg>
