<?xml version="1.0" encoding="utf-8"?>
<!-- Generator: Adobe Illustrator 27.0.0, SVG Export Plug-In . SVG Version: 6.00 Build 0)  -->
<svg version="1.1" id="Layer_1" xmlns="http://www.w3.org/2000/svg" xmlns:xlink="http://www.w3.org/1999/xlink" x="0px" y="0px"
	 viewBox="0 0 1200 209" style="enable-background:new 0 0 1200 209;" xml:space="preserve">
<style type="text/css">
	.st0{fill:#F4DAFF;}
</style>
<g>
	<path class="st0" d="M103.6,0h992.8c57.2,0,103.6,46.8,103.6,104.5l0,0c0,57.7-46.4,104.5-103.6,104.5H103.6
		C46.4,209,0,162.2,0,104.5l0,0C0,46.8,46.4,0,103.6,0z"/>
	<g>
		<path d="M74.5,74.6h8V94h22.7V74.6h8v47.2h-8V101H82.5v20.8h-8V74.6z"/>
		<path d="M132.6,122.6c-1.9,0-3.6-0.3-5.1-0.8c-1.5-0.5-2.8-1.3-3.7-2.4c-1.1-1.1-1.9-2.2-2.4-3.5s-0.8-2.8-0.8-4.4
			c0-3.5,1.1-6.2,3.2-8c2.1-1.8,5.2-2.6,9.2-2.6h11v-2c0-2.7-0.5-4.6-1.7-5.5c-1.2-1.1-3.1-1.5-5.6-1.5c-2.3,0-4,0.4-5.1,1.1
			c-1.1,0.7-1.7,1.8-1.9,3h-7.2c0.1-1.5,0.5-3,1.2-4.2c0.7-1.3,1.6-2.4,2.8-3.4c1.2-0.9,2.7-1.6,4.4-2.2c1.7-0.5,3.7-0.8,5.9-0.8
			s4.1,0.3,5.9,0.7c1.7,0.5,3.2,1.2,4.5,2.3c1.2,1.1,2.3,2.4,2.9,4c0.7,1.6,1.1,3.6,1.1,6.1v14.3c0,1.9,0,3.5,0,5s0.1,2.8,0.3,4.2
			h-6.7c-0.1-1.1-0.3-1.9-0.3-2.7c-0.1-0.7-0.1-1.6-0.1-2.7c-0.8,1.6-2.3,3.1-4.4,4.3C138.2,121.9,135.7,122.6,132.6,122.6z
			 M134.6,116.1c1.2,0,2.4-0.1,3.6-0.5c1.2-0.3,2.1-0.8,2.9-1.5c0.8-0.7,1.5-1.5,2-2.4c0.5-0.9,0.8-2,0.8-3.4v-2h-9.6
			c-1.9,0-3.3,0.4-4.5,1.2c-1.2,0.8-1.7,2-1.7,3.5s0.5,2.7,1.6,3.6C130.7,115.6,132.4,116.1,134.6,116.1z"/>
		<path d="M158.7,86h6.8v6.1c1.1-2,2.7-3.8,4.8-5c2.1-1.2,4.5-1.8,7.2-1.8c4.7,0,8.3,1.5,11,4.3c2.7,3,4,7.3,4,13.2v1.3
			c0,3.1-0.4,5.7-1.1,8.1c-0.7,2.3-1.7,4.2-3.1,5.7c-1.3,1.5-2.9,2.7-4.7,3.4c-1.9,0.8-3.9,1.1-6.1,1.1c-2.5,0-4.8-0.5-7-1.6
			c-2.1-1.1-3.6-2.7-4.5-4.7v19.1h-7.4V86z M175.8,116.1c2.8,0,4.9-0.9,6.7-3c1.7-1.9,2.5-4.9,2.5-8.9v-1.3c0-3.8-0.8-6.6-2.5-8.4
			c-1.6-1.9-3.9-2.7-6.7-2.7c-1.2,0-2.4,0.1-3.6,0.7c-1.2,0.4-2.1,0.9-3.1,1.8c-0.9,0.8-1.6,1.8-2.1,3c-0.5,1.2-0.8,2.6-0.8,4v4.7
			c0,1.8,0.3,3.2,0.8,4.4c0.5,1.2,1.2,2.3,2.1,3.2c0.9,0.8,1.9,1.5,3.1,1.9C173.3,115.8,174.5,116.1,175.8,116.1z"/>
		<path d="M198.1,86h6.8v6.1c1.1-2,2.7-3.8,4.8-5c2.1-1.2,4.5-1.8,7.2-1.8c4.7,0,8.3,1.5,11,4.3c2.7,3,4,7.3,4,13.2v1.3
			c0,3.1-0.4,5.7-1.1,8.1c-0.7,2.3-1.7,4.2-3.1,5.7c-1.3,1.5-2.9,2.7-4.7,3.4c-1.9,0.8-3.9,1.1-6.1,1.1c-2.5,0-4.8-0.5-7-1.6
			c-2.1-1.1-3.6-2.7-4.5-4.7v19.1h-7.4V86z M215.2,116.1c2.8,0,4.9-0.9,6.7-3c1.7-1.9,2.5-4.9,2.5-8.9v-1.3c0-3.8-0.8-6.6-2.5-8.4
			c-1.6-1.9-3.9-2.7-6.7-2.7c-1.2,0-2.4,0.1-3.6,0.7c-1.2,0.4-2.1,0.9-3.1,1.8s-1.6,1.8-2.1,3c-0.5,1.2-0.8,2.6-0.8,4v4.7
			c0,1.8,0.3,3.2,0.8,4.4c0.5,1.2,1.2,2.3,2.1,3.2c0.9,0.8,1.9,1.5,3.1,1.9C212.7,115.8,213.9,116.1,215.2,116.1z"/>
		<path d="M242,136.1c-0.7,0-1.3,0-2-0.1v-6.5c0.7,0.1,1.3,0.3,2,0.3c0.8,0,1.3-0.1,1.9-0.4c0.5-0.3,0.9-0.7,1.5-1.2
			c0.4-0.7,0.8-1.3,1.2-2.4c0.4-0.9,0.9-2.3,1.5-3.8l-15-35.7h8l10.8,27.6l9.8-27.6h7.5l-13.6,35.7c-0.9,2.6-1.9,4.7-2.7,6.5
			c-0.8,1.8-1.7,3.2-2.8,4.4c-1.1,1.1-2.1,2-3.3,2.6C245.2,135.8,243.7,136.1,242,136.1z"/>
		<path d="M302.4,122.6c-2.4,0-4.7-0.4-6.7-1.1s-3.7-1.9-5.2-3.4c-1.5-1.5-2.7-3.4-3.5-5.7c-0.8-2.3-1.3-5-1.3-8.1V103
			c0-2.8,0.4-5.4,1.3-7.6s2.1-4,3.6-5.5s3.3-2.6,5.3-3.4c2-0.7,4.1-1.1,6.4-1.1c2.3,0,4.4,0.3,6.1,0.9c1.9,0.7,3.3,1.5,4.7,2.6
			c1.2,1.1,2.3,2.4,3.1,3.9c0.8,1.5,1.2,3.1,1.5,4.7h-7.5c-0.4-1.6-1.2-3-2.4-4c-1.2-1.1-2.9-1.6-5.5-1.6c-1.2,0-2.4,0.3-3.5,0.7
			c-1.1,0.4-2.1,1.1-2.9,2c-0.8,0.9-1.5,2-2,3.5s-0.7,3.1-0.7,5v1.3c0,2.2,0.3,3.9,0.7,5.4c0.5,1.5,1.2,2.7,2,3.6
			c0.8,0.9,1.9,1.6,2.9,2c1.1,0.4,2.3,0.7,3.5,0.7c4.1,0,6.8-1.9,7.9-5.7h7.5c-0.4,1.9-0.9,3.6-1.9,5.1c-0.9,1.5-2,2.8-3.3,3.8
			c-1.3,0.9-2.8,1.9-4.5,2.4C306.3,122.3,304.4,122.6,302.4,122.6z"/>
		<path d="M335.6,122.6c-4.1,0-7.4-1.2-9.5-3.6c-2.1-2.4-3.2-6.2-3.2-11.2V86.2h7.4v20.9c0,3,0.7,5.3,1.9,6.7
			c1.2,1.5,3.2,2.3,5.9,2.3c1.5,0,2.7-0.3,3.7-0.7c1.1-0.5,1.9-1.2,2.5-2c0.7-0.8,1.2-1.9,1.5-3c0.3-1.1,0.5-2.3,0.5-3.4V86h7.4
			v35.7h-6.8v-6.1c-0.8,1.9-2.3,3.4-4.1,4.7C340.8,121.9,338.4,122.6,335.6,122.6z"/>
		<path d="M374.6,122.6c-2.7,0-4.8-0.3-6.7-0.8c-1.9-0.5-3.3-1.3-4.7-2.4c-1.2-0.9-2.1-2.2-2.8-3.5c-0.7-1.3-1.1-2.7-1.2-4.2h7.4
			c0.3,1.2,1.1,2.3,2.3,3.1c1.2,0.8,3.1,1.2,5.7,1.2c2.9,0,5.1-0.4,6.1-1.2c1.2-0.8,1.9-1.9,1.9-3.1c0-0.5-0.1-1.1-0.5-1.6
			c-0.3-0.5-0.8-0.9-1.5-1.5c-0.7-0.4-1.6-0.8-2.8-1.2c-1.2-0.4-2.7-0.7-4.3-0.8c-2-0.3-3.9-0.7-5.5-1.2c-1.6-0.5-3.1-1.2-4.1-2
			c-1.2-0.8-2-1.9-2.7-3.1c-0.7-1.2-0.9-2.7-0.9-4.3c0-1.5,0.3-2.8,0.8-4c0.5-1.3,1.5-2.4,2.7-3.4c1.2-0.9,2.7-1.8,4.5-2.3
			c1.9-0.5,3.9-0.8,6.3-0.8c2.3,0,4.3,0.3,6,0.8c1.7,0.5,3.1,1.3,4.3,2.4c1.2,0.9,2,2.2,2.7,3.5c0.7,1.3,0.9,2.7,1.2,4.2h-7.4
			c-0.4-1.3-1.1-2.4-2.1-3.2c-1.1-0.8-2.5-1.2-4.5-1.2c-2.7,0-4.4,0.4-5.5,1.2s-1.5,1.8-1.5,2.8c0,0.7,0.1,1.2,0.4,1.6
			c0.3,0.5,0.7,0.9,1.3,1.3c0.7,0.4,1.5,0.7,2.5,1.1c1.1,0.3,2.5,0.5,4.1,0.7c2,0.3,3.9,0.7,5.6,1.2c1.7,0.5,3.2,1.2,4.4,2.2
			c1.2,0.9,2.1,2,2.8,3.2c0.7,1.2,1.1,2.8,1.1,4.4c0,1.5-0.3,3-0.9,4.3c-0.7,1.3-1.6,2.4-2.8,3.4c-1.3,0.9-2.8,1.8-4.8,2.3
			C379.4,122.3,377.1,122.6,374.6,122.6z"/>
		<path d="M409.4,122.2c-4,0-7-0.9-8.7-2.7s-2.7-4.6-2.7-8.5V92.4h-5.1V86h5.1v-8.1h7.4V86h9.1v6.3h-9.1v17.5c0,2.2,0.4,3.6,1.2,4.4
			c0.8,0.8,2.3,1.2,4.5,1.2c1.3,0,2.7,0,4-0.3v6.3c-0.8,0.1-1.7,0.1-2.7,0.3C411.6,122,410.6,122.2,409.4,122.2z"/>
		<path d="M435.8,122.6c-2.4,0-4.7-0.4-6.8-1.2c-2.1-0.8-4-1.9-5.5-3.5c-1.6-1.5-2.8-3.4-3.7-5.7c-0.9-2.3-1.3-4.9-1.3-8v-1.3
			c0-2.8,0.4-5.4,1.3-7.6s2.1-4,3.7-5.5c1.6-1.5,3.3-2.7,5.5-3.4c2.1-0.8,4.4-1.1,6.8-1.1c2.4,0,4.7,0.4,6.8,1.1
			c2.1,0.8,4,1.9,5.5,3.4c1.6,1.5,2.8,3.4,3.7,5.5s1.3,4.7,1.3,7.6v1.3c0,3-0.4,5.7-1.3,8c-0.9,2.3-2.1,4.2-3.7,5.7
			c-1.6,1.5-3.3,2.7-5.5,3.5C440.5,122.2,438.2,122.6,435.8,122.6z M435.8,116.1c1.3,0,2.5-0.3,3.7-0.7c1.2-0.4,2.3-1.1,3.2-2
			c0.9-0.9,1.6-2.2,2.1-3.6s0.8-3.2,0.8-5.4V103c0-1.9-0.3-3.6-0.8-5s-1.3-2.6-2.1-3.4c-0.9-0.9-2-1.6-3.2-2
			c-1.2-0.4-2.4-0.7-3.7-0.7c-1.3,0-2.5,0.3-3.7,0.7c-1.2,0.4-2.3,1.1-3.2,2c-0.9,0.9-1.6,2-2.1,3.4c-0.5,1.3-0.8,3.1-0.8,5v1.3
			c0,2.2,0.3,3.9,0.8,5.4c0.5,1.5,1.3,2.7,2.1,3.6c0.9,0.9,2,1.6,3.2,2C433.3,115.8,434.5,116.1,435.8,116.1z"/>
		<path d="M458.8,86h6.8v6.1c0.4-0.9,0.9-1.8,1.6-2.6c0.7-0.8,1.5-1.6,2.3-2.2c0.8-0.5,1.9-1.1,2.8-1.5c1.1-0.4,2.1-0.5,3.2-0.5
			c2.9,0,5.2,0.7,7,1.9c1.6,1.2,2.8,2.8,3.3,4.9c1.1-2,2.4-3.6,4.3-4.9c1.9-1.2,4-1.9,6.4-1.9c3.7,0,6.6,1.1,8.6,3.2
			c2,2.2,2.9,5.7,2.9,10.2v22.9h-7.4v-21.2c0-3.2-0.5-5.4-1.7-6.7c-1.2-1.3-2.8-2-4.8-2c-2.4,0-4.1,0.8-5.3,2.4
			c-1.2,1.6-1.7,3.8-1.7,6.3v21.3h-7.4v-21.3c0-3.2-0.5-5.4-1.7-6.7c-1.2-1.3-2.8-2-4.8-2c-2.4,0-4.1,0.8-5.3,2.4
			c-1.2,1.6-1.7,3.8-1.7,6.3v21.3h-7.4V86H458.8z"/>
		<path d="M531,122.6c-2.4,0-4.5-0.4-6.7-1.1s-3.9-1.9-5.5-3.4s-2.8-3.4-3.7-5.7c-0.9-2.3-1.3-5-1.3-8.1V103c0-3,0.4-5.5,1.3-7.8
			c0.9-2.2,2.1-4,3.6-5.5c1.6-1.5,3.3-2.6,5.3-3.2s4.1-1.1,6.4-1.1c5.3,0,9.5,1.5,12.4,4.3c2.8,3,4.3,7.1,4.3,12.5v3.8h-25.9
			c0,1.9,0.4,3.4,0.9,4.7c0.5,1.2,1.3,2.3,2.1,3.1c0.9,0.8,2,1.3,3.2,1.8s2.4,0.5,3.6,0.5c2.5,0,4.4-0.4,5.6-1.2
			c1.2-0.8,2-1.9,2.4-3.1h7.4c-0.7,3.5-2.4,6.2-5.2,8.1C538.4,121.6,535,122.6,531,122.6z M530.7,91.8c-1.2,0-2.4,0.1-3.6,0.5
			c-1.2,0.3-2.1,0.8-2.9,1.5c-0.9,0.7-1.6,1.6-2.1,2.7c-0.5,1.1-0.8,2.4-0.9,4h18.6c0-1.6-0.3-3.1-0.8-4.2c-0.4-1.1-1.1-2-1.9-2.7
			c-0.8-0.7-1.7-1.2-2.8-1.5C533.2,92,532,91.8,530.7,91.8z"/>
		<path d="M552.8,86h6.8v6.1c0.7-1.9,1.9-3.4,3.5-4.7c1.6-1.3,3.6-2,6-2c1.1,0,2,0,2.5,0.1c0.5,0.1,0.9,0.1,1.2,0.3v6.7
			c-0.8-0.3-1.5-0.4-2-0.5c-0.7-0.1-1.3-0.1-2.3-0.1c-1.5,0-2.7,0.3-3.7,0.8s-1.9,1.2-2.5,2c-0.7,0.8-1.2,1.8-1.5,2.8
			c-0.3,1.1-0.5,2.3-0.5,3.4v20.9h-7.4V86H552.8z"/>
		<path d="M590.5,122.6c-2.7,0-4.8-0.3-6.7-0.8c-1.9-0.5-3.3-1.3-4.5-2.4c-1.2-0.9-2.1-2.2-2.8-3.5c-0.7-1.3-1.1-2.7-1.2-4.2h7.4
			c0.3,1.2,1.1,2.3,2.3,3.1c1.2,0.8,3.1,1.2,5.7,1.2c2.9,0,5.1-0.4,6.3-1.2c1.2-0.8,1.7-1.9,1.7-3.1c0-0.5-0.1-1.1-0.4-1.6
			c-0.3-0.5-0.8-0.9-1.5-1.5c-0.7-0.4-1.6-0.8-2.8-1.2c-1.2-0.4-2.7-0.7-4.3-0.8c-2-0.3-3.9-0.7-5.5-1.2c-1.6-0.5-3.1-1.2-4.1-2
			c-1.2-0.8-2-1.9-2.7-3.1c-0.7-1.2-0.9-2.7-0.9-4.3c0-1.5,0.3-2.8,0.9-4c0.5-1.3,1.5-2.4,2.7-3.4c1.2-0.9,2.7-1.8,4.5-2.3
			c1.7-0.5,3.9-0.8,6.3-0.8c2.3,0,4.3,0.3,6,0.8c1.7,0.5,3.1,1.3,4.3,2.4c1.2,0.9,2,2.2,2.7,3.5c0.7,1.3,0.9,2.7,1.2,4.2h-7.4
			c-0.4-1.3-1.1-2.4-2.1-3.2s-2.5-1.2-4.5-1.2c-2.7,0-4.4,0.4-5.5,1.2s-1.6,1.8-1.6,2.8c0,0.7,0.1,1.2,0.4,1.6
			c0.3,0.5,0.7,0.9,1.3,1.3c0.7,0.4,1.5,0.7,2.5,1.1c1.1,0.3,2.5,0.5,4.1,0.7c2,0.3,3.9,0.7,5.6,1.2c1.7,0.5,3.2,1.2,4.4,2.2
			c1.2,0.9,2.1,2,2.8,3.2c0.7,1.2,1.1,2.8,1.1,4.4c0,1.5-0.3,3-0.9,4.3c-0.7,1.3-1.6,2.4-2.9,3.4c-1.3,0.9-2.9,1.8-4.8,2.3
			C595.3,122.3,593,122.6,590.5,122.6z"/>
		<path d="M639.3,122.6c-2.7,0-4.8-0.3-6.7-0.8c-1.9-0.5-3.3-1.3-4.5-2.4c-1.2-0.9-2.1-2.2-2.8-3.5s-1.1-2.7-1.2-4.2h7.4
			c0.3,1.2,1.1,2.3,2.3,3.1c1.2,0.8,3.1,1.2,5.7,1.2c2.9,0,5.1-0.4,6.3-1.2c1.2-0.8,1.7-1.9,1.7-3.1c0-0.5-0.1-1.1-0.4-1.6
			c-0.3-0.5-0.8-0.9-1.5-1.5c-0.7-0.4-1.6-0.8-2.8-1.2s-2.7-0.7-4.3-0.8c-2-0.3-3.9-0.7-5.5-1.2c-1.6-0.5-3.1-1.2-4.1-2
			c-1.2-0.8-2-1.9-2.7-3.1c-0.7-1.2-0.9-2.7-0.9-4.3c0-1.5,0.3-2.8,0.9-4c0.5-1.3,1.5-2.4,2.7-3.4c1.2-0.9,2.7-1.8,4.5-2.3
			c1.7-0.5,3.9-0.8,6.3-0.8c2.3,0,4.3,0.3,6,0.8c1.7,0.5,3.1,1.3,4.3,2.4c1.2,0.9,2,2.2,2.7,3.5c0.7,1.3,0.9,2.7,1.2,4.2h-7.4
			c-0.4-1.3-1.1-2.4-2.1-3.2c-1.1-0.8-2.5-1.2-4.5-1.2c-2.7,0-4.4,0.4-5.5,1.2c-1.1,0.8-1.6,1.8-1.6,2.8c0,0.7,0.1,1.2,0.4,1.6
			c0.3,0.5,0.7,0.9,1.3,1.3s1.5,0.7,2.5,1.1c1.1,0.3,2.5,0.5,4.1,0.7c2,0.3,3.9,0.7,5.6,1.2c1.7,0.5,3.2,1.2,4.4,2.2
			c1.2,0.9,2.1,2,2.8,3.2c0.7,1.2,1.1,2.8,1.1,4.4c0,1.5-0.3,3-0.9,4.3c-0.7,1.3-1.6,2.4-2.9,3.4s-2.9,1.8-4.8,2.3
			C644.1,122.3,641.8,122.6,639.3,122.6z"/>
		<path d="M660.4,86h6.8v6.1c1.1-2,2.7-3.8,4.8-5c2.1-1.2,4.5-1.8,7.2-1.8c4.7,0,8.3,1.5,11,4.3c2.7,3,4,7.3,4,13.2v1.3
			c0,3.1-0.4,5.7-1.1,8.1c-0.7,2.3-1.7,4.2-3.1,5.7c-1.3,1.5-2.9,2.7-4.7,3.4c-1.9,0.8-3.9,1.1-6.1,1.1c-2.5,0-4.8-0.5-7-1.6
			s-3.6-2.7-4.4-4.7v19.1h-7.4V86H660.4z M677.4,116.1c2.8,0,4.9-0.9,6.7-3c1.7-1.9,2.5-4.9,2.5-8.9v-1.3c0-3.8-0.8-6.6-2.5-8.4
			s-3.9-2.7-6.7-2.7c-1.2,0-2.4,0.1-3.6,0.7c-1.2,0.4-2.1,0.9-3.1,1.8s-1.6,1.8-2.1,3c-0.5,1.2-0.8,2.6-0.8,4v4.7
			c0,1.8,0.3,3.2,0.8,4.4c0.5,1.2,1.2,2.3,2.1,3.2c0.9,0.8,1.9,1.5,3.1,1.9C674.9,115.8,676.1,116.1,677.4,116.1z"/>
		<path d="M715.2,122.6c-2.4,0-4.5-0.4-6.7-1.1c-2.1-0.7-3.9-1.9-5.5-3.4c-1.6-1.5-2.8-3.4-3.7-5.7c-0.9-2.3-1.3-5-1.3-8.1V103
			c0-3,0.4-5.5,1.3-7.8c0.9-2.2,2.1-4,3.6-5.5c1.6-1.5,3.3-2.6,5.3-3.2c2-0.7,4.1-1.1,6.4-1.1c5.3,0,9.5,1.5,12.4,4.3
			c2.8,3,4.3,7.1,4.3,12.5v3.8h-25.9c0,1.9,0.4,3.4,0.9,4.7c0.5,1.2,1.3,2.3,2.1,3.1c0.9,0.8,2,1.3,3.2,1.8c1.2,0.4,2.4,0.5,3.6,0.5
			c2.5,0,4.4-0.4,5.6-1.2c1.2-0.8,2-1.9,2.4-3.1h7.4c-0.7,3.5-2.4,6.2-5.2,8.1C722.6,121.6,719.1,122.6,715.2,122.6z M714.8,91.8
			c-1.2,0-2.4,0.1-3.6,0.5c-1.2,0.3-2.1,0.8-2.9,1.5c-0.9,0.7-1.6,1.6-2.1,2.7c-0.5,1.1-0.8,2.4-0.9,4h18.6c0-1.6-0.3-3.1-0.8-4.2
			c-0.4-1.1-1.1-2-1.9-2.7c-0.8-0.7-1.7-1.2-2.8-1.5C717.2,92,716,91.8,714.8,91.8z"/>
		<path d="M736.9,86h6.8v6.1c0.8-1.8,2.3-3.4,4.1-4.7c1.9-1.3,4.4-2,7.4-2c4.3,0,7.6,1.2,9.8,3.5c2.1,2.4,3.3,5.8,3.3,10.4v22.7H761
			v-21c0-3-0.7-5.3-1.9-6.7s-3.3-2.3-6.1-2.3c-1.6,0-2.9,0.3-4,0.8c-1.1,0.5-2,1.2-2.7,2c-0.7,0.8-1.2,1.8-1.6,2.8
			c-0.3,1.1-0.5,2.3-0.5,3.4v20.9h-7.4V86H736.9z"/>
		<path d="M788.6,122.6c-2.3,0-4.3-0.4-6.1-1.1c-1.9-0.7-3.3-1.9-4.7-3.4s-2.3-3.4-3.1-5.7c-0.8-2.3-1.1-5-1.1-8.1V103
			c0-2.8,0.4-5.4,1.1-7.6s1.7-4,3.1-5.5s2.9-2.6,4.7-3.4c1.9-0.8,3.9-1.1,6.1-1.1c2.7,0,4.9,0.5,7,1.8c2,1.2,3.5,2.8,4.5,4.7V74.6
			h7.4v47.2h-6.8v-6.1c-0.4,0.9-0.9,1.8-1.7,2.6c-0.8,0.8-1.6,1.5-2.7,2.2c-1.1,0.7-2.3,1.1-3.5,1.5
			C791.4,122.3,790.1,122.6,788.6,122.6z M790.4,116.1c1.3,0,2.5-0.3,3.7-0.7c1.2-0.4,2.3-1.1,3.1-1.9s1.6-1.9,2.1-3.2
			c0.5-1.2,0.8-2.7,0.8-4.4v-4.7c0-1.5-0.3-2.8-0.8-4c-0.5-1.2-1.2-2.2-2.1-3c-0.9-0.8-2-1.3-3.2-1.8c-1.2-0.4-2.4-0.7-3.6-0.7
			c-2.8,0-5.1,0.9-6.7,2.7c-1.6,1.9-2.5,4.6-2.5,8.4v1.3c0,3.9,0.8,6.9,2.5,8.9C785.4,115,787.6,116.1,790.4,116.1z"/>
		<path d="M844.3,122.6c-2.7,0-5.1-0.4-7.2-1.1c-2-0.7-3.7-1.6-5.2-3c-1.3-1.2-2.4-2.7-3.2-4.4s-1.1-3.6-1.1-5.8h8
			c0,2.3,0.7,4,2.1,5.3c1.3,1.2,3.6,1.9,6.6,1.9c2.9,0,5.1-0.7,6.6-1.9c1.5-1.2,2.1-3,2.1-5.3c0-2.3-0.7-4-2-5.4
			c-1.3-1.3-3.6-2-6.7-2h-4.7v-6.7h4.7c2.7,0,4.7-0.5,6-1.8c1.3-1.2,2-2.8,2-5s-0.7-3.8-1.9-4.9c-1.3-1.1-3.3-1.6-6.1-1.6
			c-2.8,0-4.8,0.5-6.1,1.6c-1.3,1.1-2,2.7-2,4.7h-8c0-4,1.3-7.4,4.1-9.8c2.7-2.4,6.7-3.8,12-3.8c2.7,0,4.9,0.3,7,1.1
			c2,0.8,3.7,1.6,5.1,2.7c1.3,1.1,2.4,2.4,3.1,4c0.7,1.5,1.1,3.1,1.1,4.9c0,2.7-0.7,5-2.1,6.7c-1.5,1.9-3.3,3.1-5.9,3.9
			c2.7,0.8,4.8,2.2,6.4,4c1.5,1.9,2.3,4.4,2.3,7.7c0,1.9-0.4,3.6-1.1,5.4c-0.7,1.6-1.7,3.1-3.2,4.3c-1.3,1.2-3.2,2.2-5.2,2.8
			C849.3,122.2,846.9,122.6,844.3,122.6z"/>
		<path d="M866.3,114.7h11V83.2l-11,8v-8.4l11.4-8.1h7.8v40.2h9.1v7h-28.1v-7.1H866.3z"/>
		<path d="M907.1,96.9c-1.6,0-3.2-0.3-4.5-0.8c-1.3-0.5-2.5-1.3-3.5-2.3c-0.9-0.9-1.7-2.2-2.3-3.5s-0.8-2.8-0.8-4.6v-0.7
			c0-1.6,0.3-3.2,0.8-4.6c0.5-1.3,1.3-2.6,2.3-3.5c0.9-0.9,2.1-1.8,3.5-2.3s2.8-0.8,4.5-0.8c1.6,0,3.1,0.3,4.4,0.8
			c1.3,0.5,2.5,1.3,3.5,2.3c0.9,0.9,1.7,2.2,2.3,3.5c0.5,1.3,0.8,2.8,0.8,4.6v0.7c0,1.6-0.3,3.2-0.8,4.6c-0.5,1.3-1.3,2.6-2.3,3.5
			c-0.9,0.9-2.1,1.8-3.5,2.3C910.2,96.7,908.7,96.9,907.1,96.9z M934.5,74.6h8l-32.1,47.2h-8L934.5,74.6z M907.1,90.9
			c1.2,0,2.1-0.4,2.9-1.2c0.7-0.8,1.1-2.2,1.1-3.9v-0.7c0-1.8-0.4-3.1-1.1-3.9c-0.7-0.8-1.6-1.2-2.9-1.2s-2.1,0.4-2.9,1.2
			s-1.1,2.2-1.1,3.9v0.7c0,1.8,0.4,3.1,1.1,3.9C904.8,90.5,905.9,90.9,907.1,90.9z M937.8,122.4c-1.6,0-3.2-0.3-4.5-0.8
			s-2.5-1.3-3.5-2.3c-0.9-0.9-1.7-2.2-2.3-3.5s-0.8-2.8-0.8-4.6v-0.7c0-1.6,0.3-3.2,0.8-4.6c0.5-1.3,1.3-2.6,2.3-3.5
			c0.9-0.9,2.1-1.8,3.5-2.3c1.3-0.5,2.8-0.8,4.5-0.8c1.6,0,3.1,0.3,4.4,0.8c1.3,0.5,2.5,1.3,3.5,2.3c0.9,0.9,1.7,2.2,2.3,3.5
			s0.8,2.8,0.8,4.6v0.7c0,1.6-0.3,3.2-0.8,4.6c-0.5,1.3-1.3,2.6-2.3,3.5c-0.9,0.9-2.1,1.8-3.5,2.3
			C940.9,122.2,939.4,122.4,937.8,122.4z M937.8,116.4c1.2,0,2.1-0.4,2.9-1.2c0.7-0.8,1.1-2.2,1.1-3.9v-0.7c0-1.8-0.4-3.1-1.1-3.9
			c-0.7-0.8-1.6-1.2-2.9-1.2s-2.1,0.4-2.9,1.2c-0.7,0.8-1.1,2.2-1.1,3.9v0.7c0,1.8,0.4,3.1,1.1,3.9
			C935.6,116,936.6,116.4,937.8,116.4z"/>
		<path d="M967.9,86h6.8v6.1c0.4-0.9,0.9-1.8,1.6-2.6c0.7-0.8,1.5-1.6,2.3-2.2c0.8-0.7,1.9-1.1,2.8-1.5c1.1-0.4,2.1-0.5,3.2-0.5
			c2.9,0,5.2,0.7,7,1.9c1.6,1.2,2.8,2.8,3.3,4.9c1.1-2,2.4-3.6,4.3-4.9c1.9-1.2,4-1.9,6.4-1.9c3.7,0,6.6,1.1,8.6,3.2
			c2,2.2,2.9,5.7,2.9,10.2v22.9h-7.4v-21.2c0-3.2-0.5-5.4-1.7-6.7c-1.2-1.3-2.8-2-4.8-2c-2.4,0-4.1,0.8-5.3,2.4
			c-1.2,1.6-1.7,3.8-1.7,6.3v21.3h-7.4v-21.3c0-3.2-0.5-5.4-1.7-6.7s-2.8-2-4.8-2c-2.4,0-4.1,0.8-5.3,2.4c-1.2,1.6-1.7,3.8-1.7,6.3
			v21.3h-7.4V86H967.9z"/>
		<path d="M1040.1,122.6c-2.4,0-4.7-0.4-6.8-1.2c-2.1-0.8-4-1.9-5.5-3.5c-1.6-1.5-2.8-3.4-3.7-5.7c-0.9-2.3-1.3-4.9-1.3-8v-1.3
			c0-2.8,0.4-5.4,1.3-7.6c0.9-2.2,2.1-4,3.7-5.5c1.6-1.5,3.3-2.7,5.5-3.4c2.1-0.8,4.4-1.1,6.8-1.1c2.4,0,4.7,0.4,6.8,1.1
			c2.1,0.8,4,1.9,5.5,3.4c1.6,1.5,2.8,3.4,3.7,5.5c0.9,2.2,1.3,4.7,1.3,7.6v1.3c0,3-0.4,5.7-1.3,8c-0.9,2.3-2.1,4.2-3.7,5.7
			c-1.6,1.5-3.3,2.7-5.5,3.5C1044.8,122.2,1042.5,122.6,1040.1,122.6z M1040.1,116.1c1.3,0,2.5-0.3,3.7-0.7c1.2-0.4,2.3-1.1,3.1-2
			c0.9-0.9,1.6-2.2,2.3-3.6c0.5-1.5,0.8-3.2,0.8-5.4V103c0-1.9-0.3-3.6-0.8-5c-0.5-1.3-1.3-2.6-2.3-3.4c-0.9-0.9-2-1.6-3.1-2
			c-1.2-0.4-2.4-0.7-3.7-0.7s-2.5,0.3-3.7,0.7c-1.2,0.4-2.3,1.1-3.1,2c-0.9,0.9-1.6,2-2.3,3.4c-0.5,1.3-0.8,3.1-0.8,5v1.3
			c0,2.2,0.3,3.9,0.8,5.4c0.5,1.5,1.3,2.7,2.3,3.6c0.9,0.9,2,1.6,3.1,2C1037.6,115.8,1038.8,116.1,1040.1,116.1z"/>
		<path d="M1063.1,86h6.8v6.1c0.7-1.9,1.9-3.4,3.5-4.7c1.6-1.3,3.6-2,6-2c1.1,0,2,0,2.5,0.1s0.9,0.1,1.2,0.3v6.7
			c-0.8-0.3-1.5-0.4-2-0.5c-0.7-0.1-1.3-0.1-2.3-0.1c-1.5,0-2.7,0.3-3.7,0.8c-1.1,0.5-1.9,1.2-2.5,2c-0.7,0.8-1.2,1.8-1.5,2.8
			c-0.3,1.1-0.5,2.3-0.5,3.4v20.9h-7.4V86H1063.1z"/>
		<path d="M1102.3,122.6c-2.4,0-4.5-0.4-6.7-1.1s-3.9-1.9-5.5-3.4c-1.6-1.5-2.8-3.4-3.7-5.7c-0.9-2.3-1.3-5-1.3-8.1V103
			c0-3,0.4-5.5,1.3-7.8c0.9-2.2,2.1-4,3.6-5.5c1.6-1.5,3.3-2.6,5.3-3.2s4.1-1.1,6.4-1.1c5.3,0,9.5,1.5,12.4,4.3
			c2.8,3,4.3,7.1,4.3,12.5v3.8h-25.9c0,1.9,0.4,3.4,0.9,4.7c0.5,1.2,1.3,2.3,2.1,3.1c0.9,0.8,2,1.3,3.2,1.8s2.4,0.5,3.6,0.5
			c2.5,0,4.4-0.4,5.6-1.2c1.2-0.8,2-1.9,2.4-3.1h7.4c-0.7,3.5-2.4,6.2-5.2,8.1C1109.6,121.6,1106.1,122.6,1102.3,122.6z
			 M1101.9,91.8c-1.2,0-2.4,0.1-3.6,0.5c-1.2,0.3-2.1,0.8-2.9,1.5c-0.9,0.7-1.6,1.6-2.1,2.7c-0.5,1.1-0.8,2.4-0.9,4h18.6
			c0-1.6-0.3-3.1-0.8-4.2c-0.4-1.1-1.1-2-1.9-2.7c-0.8-0.7-1.7-1.2-2.8-1.5C1104.3,92,1103.1,91.8,1101.9,91.8z"/>
	</g>
</g>
</svg>
