<?xml version="1.0" encoding="utf-8"?>
<!-- Generator: Adobe Illustrator 27.0.0, SVG Export Plug-In . SVG Version: 6.00 Build 0)  -->
<svg version="1.1" id="Layer_1" xmlns="http://www.w3.org/2000/svg" xmlns:xlink="http://www.w3.org/1999/xlink" x="0px" y="0px"
	 viewBox="0 0 900 206.8" style="enable-background:new 0 0 900 206.8;" xml:space="preserve">
<style type="text/css">
	.st0{fill:#F4DAFF;}
</style>
<path class="st0" d="M95.8,24l707.8-0.1c43.8,0,79.3,35.5,79.3,79.3l0,0c0,43.8-35.5,79.3-79.3,79.3l-707.8,0.1
	c-43.8,0-79.3-35.5-79.3-79.3l0,0C16.5,59.5,52,24,95.8,24z"/>
<g>
	<path d="M74.8,114.1H83V90.7l-8.2,5.9v-6.2l8.5-6H89v29.8h6.8v5.2h-21V114.1z"/>
	<path d="M145.5,89.8c-1,0-1.9-0.3-2.5-1s-1-1.5-1-2.5c0-1,0.3-1.9,1-2.5s1.5-1,2.5-1c1,0,1.9,0.3,2.5,1s1,1.5,1,2.5
		c0,1-0.3,1.9-1,2.5S146.5,89.8,145.5,89.8z M142.8,92.8h5.5v26.5h-5.5V92.8z"/>
	<path d="M154.5,92.8h5.1v4.5c0.6-1.3,1.7-2.5,3.1-3.5c1.4-1,3.3-1.5,5.5-1.5c3.2,0,5.7,0.9,7.3,2.6c1.6,1.8,2.5,4.3,2.5,7.7v16.7
		h-5.5v-15.5c0-2.2-0.5-3.9-1.4-5c-0.9-1.1-2.5-1.7-4.6-1.7c-1.2,0-2.2,0.2-3,0.6c-0.8,0.4-1.5,0.9-2,1.5c-0.5,0.6-0.9,1.3-1.1,2.1
		c-0.2,0.8-0.4,1.7-0.4,2.5v15.5h-5.5V92.8z"/>
	<path d="M194.5,119.9c-1.8,0-3.5-0.3-5-0.8c-1.5-0.5-2.8-1.4-3.9-2.5c-1.1-1.1-2-2.5-2.6-4.2c-0.6-1.7-1-3.7-1-6v-1
		c0-2.1,0.3-4,1-5.6c0.7-1.6,1.6-3,2.7-4.1s2.5-1.9,4-2.5c1.5-0.5,3.1-0.8,4.8-0.8c1.7,0,3.3,0.2,4.6,0.7c1.4,0.5,2.5,1.1,3.5,1.9
		c0.9,0.8,1.7,1.8,2.3,2.9c0.6,1.1,0.9,2.3,1.1,3.5h-5.6c-0.3-1.2-0.9-2.2-1.8-3c-0.9-0.8-2.2-1.2-4.1-1.2c-0.9,0-1.8,0.2-2.6,0.5
		c-0.8,0.3-1.6,0.8-2.2,1.5c-0.6,0.7-1.1,1.5-1.5,2.6c-0.4,1.1-0.5,2.3-0.5,3.7v1c0,1.6,0.2,2.9,0.5,4c0.4,1.1,0.9,2,1.5,2.7
		c0.6,0.7,1.4,1.2,2.2,1.5c0.8,0.3,1.7,0.5,2.6,0.5c3.1,0,5.1-1.4,5.9-4.2h5.6c-0.3,1.4-0.7,2.7-1.4,3.8s-1.5,2.1-2.5,2.8
		s-2.1,1.4-3.4,1.8C197.4,119.7,196,119.9,194.5,119.9z"/>
	<path d="M210,92.8h5.1v4.5c0.5-1.4,1.4-2.5,2.6-3.5c1.2-1,2.7-1.5,4.5-1.5c0.8,0,1.5,0,1.9,0.1c0.4,0.1,0.7,0.1,0.9,0.2v5
		c-0.6-0.2-1.1-0.3-1.5-0.4c-0.5-0.1-1-0.1-1.7-0.1c-1.1,0-2,0.2-2.8,0.6c-0.8,0.4-1.4,0.9-1.9,1.5c-0.5,0.6-0.9,1.3-1.1,2.1
		c-0.2,0.8-0.4,1.7-0.4,2.5v15.5H210V92.8z"/>
	<path d="M239.3,119.9c-1.8,0-3.4-0.3-5-0.8c-1.6-0.5-2.9-1.4-4.1-2.5c-1.2-1.1-2.1-2.5-2.8-4.2c-0.7-1.7-1-3.7-1-6v-1
		c0-2.2,0.3-4.1,1-5.7c0.7-1.6,1.6-3,2.7-4.1c1.1-1.1,2.5-1.9,4-2.4c1.5-0.5,3.1-0.8,4.8-0.8c4,0,7.1,1.1,9.3,3.2
		c2.1,2.2,3.2,5.3,3.2,9.3v2.8h-19.4c0,1.4,0.3,2.5,0.7,3.5c0.4,0.9,1,1.7,1.6,2.3c0.7,0.6,1.5,1,2.4,1.3c0.9,0.3,1.8,0.4,2.7,0.4
		c1.9,0,3.3-0.3,4.2-0.9c0.9-0.6,1.5-1.4,1.8-2.3h5.5c-0.5,2.6-1.8,4.6-3.9,6C244.7,119.2,242.2,119.9,239.3,119.9z M239,97.1
		c-0.9,0-1.8,0.1-2.7,0.4c-0.9,0.2-1.6,0.6-2.2,1.1c-0.7,0.5-1.2,1.2-1.6,2c-0.4,0.8-0.6,1.8-0.6,3h13.9c0-1.2-0.2-2.3-0.6-3.1
		c-0.3-0.8-0.8-1.5-1.4-2s-1.3-0.9-2.1-1.1C240.8,97.2,239.9,97.1,239,97.1z"/>
	<path d="M263.3,119.9c-1.4,0-2.7-0.2-3.8-0.6c-1.1-0.4-2.1-1-2.8-1.8c-0.8-0.8-1.4-1.6-1.7-2.6s-0.6-2.1-0.6-3.3
		c0-2.6,0.8-4.6,2.4-5.9c1.6-1.3,3.9-1.9,6.9-1.9h8.2v-1.4c0-2-0.4-3.4-1.3-4.1c-0.9-0.8-2.3-1.1-4.2-1.1c-1.7,0-3,0.3-3.8,0.8
		c-0.8,0.5-1.3,1.3-1.4,2.2h-5.4c0.1-1.1,0.4-2.2,0.9-3.1c0.5-1,1.2-1.8,2.1-2.5c0.9-0.7,2-1.2,3.3-1.6c1.3-0.4,2.8-0.6,4.4-0.6
		c1.6,0,3.1,0.2,4.4,0.5c1.3,0.4,2.4,0.9,3.4,1.7c0.9,0.8,1.7,1.8,2.2,3c0.5,1.2,0.8,2.7,0.8,4.5v10.5c0,1.4,0,2.6,0,3.7
		s0.1,2.1,0.2,3.1h-5c-0.1-0.8-0.2-1.4-0.2-2c-0.1-0.5-0.1-1.2-0.1-2c-0.6,1.2-1.7,2.3-3.3,3.2C267.4,119.4,265.5,119.9,263.3,119.9
		z M264.8,115.1c0.9,0,1.8-0.1,2.7-0.4c0.9-0.2,1.6-0.6,2.2-1.1c0.6-0.5,1.1-1.1,1.5-1.8c0.4-0.7,0.6-1.5,0.6-2.5v-1.5h-7.2
		c-1.4,0-2.5,0.3-3.4,0.9c-0.9,0.6-1.3,1.5-1.3,2.6c0,1.1,0.4,2,1.2,2.7C261.8,114.8,263.1,115.1,264.8,115.1z"/>
	<path d="M292.8,119.9c-2,0-3.6-0.2-5-0.6c-1.4-0.4-2.5-1-3.5-1.8c-0.9-0.7-1.6-1.6-2.1-2.6c-0.5-1-0.8-2-0.9-3.1h5.5
		c0.2,0.9,0.8,1.7,1.7,2.3c0.9,0.6,2.3,0.9,4.3,0.9c2.2,0,3.8-0.3,4.6-0.9c0.9-0.6,1.4-1.4,1.4-2.3c0-0.4-0.1-0.8-0.4-1.2
		c-0.2-0.4-0.6-0.7-1.1-1.1c-0.5-0.3-1.2-0.6-2.1-0.9c-0.9-0.3-2-0.5-3.2-0.6c-1.5-0.2-2.9-0.5-4.1-0.9c-1.2-0.4-2.3-0.9-3.1-1.5
		c-0.9-0.6-1.5-1.4-2-2.3c-0.5-0.9-0.7-2-0.7-3.2c0-1.1,0.2-2.1,0.6-3c0.4-1,1.1-1.8,2-2.5s2-1.3,3.4-1.7c1.4-0.4,2.9-0.6,4.7-0.6
		c1.7,0,3.2,0.2,4.5,0.6c1.3,0.4,2.3,1,3.2,1.8c0.9,0.7,1.5,1.6,2,2.6c0.5,1,0.7,2,0.9,3.1h-5.5c-0.3-1-0.8-1.8-1.6-2.4
		c-0.8-0.6-1.9-0.9-3.4-0.9c-2,0-3.3,0.3-4.1,0.9c-0.8,0.6-1.1,1.3-1.1,2.1c0,0.5,0.1,0.9,0.3,1.2c0.2,0.4,0.5,0.7,1,1
		c0.5,0.3,1.1,0.5,1.9,0.8c0.8,0.2,1.9,0.4,3.1,0.5c1.5,0.2,2.9,0.5,4.2,0.9c1.3,0.4,2.4,0.9,3.3,1.6c0.9,0.6,1.6,1.4,2.1,2.4
		s0.8,2.1,0.8,3.3c0,1.1-0.2,2.2-0.7,3.2c-0.5,1-1.2,1.8-2.1,2.5c-1,0.7-2.1,1.3-3.6,1.7C296.3,119.7,294.7,119.9,292.8,119.9z"/>
	<path d="M320,119.9c-1.8,0-3.4-0.3-5-0.8c-1.6-0.5-2.9-1.4-4.1-2.5c-1.2-1.1-2.1-2.5-2.8-4.2c-0.7-1.7-1-3.7-1-6v-1
		c0-2.2,0.3-4.1,1-5.7c0.7-1.6,1.6-3,2.7-4.1c1.1-1.1,2.5-1.9,4-2.4c1.5-0.5,3.1-0.8,4.8-0.8c4,0,7.1,1.1,9.3,3.2
		c2.1,2.2,3.2,5.3,3.2,9.3v2.8h-19.4c0,1.4,0.3,2.5,0.7,3.5c0.4,0.9,1,1.7,1.6,2.3c0.7,0.6,1.5,1,2.4,1.3c0.9,0.3,1.8,0.4,2.7,0.4
		c1.9,0,3.3-0.3,4.2-0.9c0.9-0.6,1.5-1.4,1.8-2.3h5.5c-0.5,2.6-1.8,4.6-3.9,6C325.5,119.2,323,119.9,320,119.9z M319.8,97.1
		c-0.9,0-1.8,0.1-2.7,0.4c-0.9,0.2-1.6,0.6-2.2,1.1c-0.7,0.5-1.2,1.2-1.6,2c-0.4,0.8-0.6,1.8-0.6,3h13.9c0-1.2-0.2-2.3-0.6-3.1
		c-0.3-0.8-0.8-1.5-1.4-2s-1.3-0.9-2.1-1.1C321.6,97.2,320.7,97.1,319.8,97.1z"/>
	<path d="M345.8,93.2h23.5v5.2h-23.5V93.2z M345.8,104.2h23.5v5.2h-23.5V104.2z"/>
	<path d="M395.8,119.9c-2.1,0-3.8-0.3-5.3-0.8c-1.5-0.5-2.7-1.2-3.7-2.2c-1-0.9-1.7-1.9-2.2-3.1c-0.5-1.2-0.8-2.3-0.8-3.5h6
		c0.2,1.2,0.8,2.2,1.8,3c1,0.8,2.4,1.2,4.2,1.2c2,0,3.6-0.6,4.8-1.8s1.7-3,1.7-5.2c0-1.3-0.2-2.4-0.6-3.3c-0.4-0.9-0.9-1.6-1.5-2.1
		c-0.6-0.5-1.3-0.9-2.1-1.2c-0.8-0.2-1.6-0.4-2.4-0.4c-1.4,0-2.6,0.2-3.6,0.8c-0.9,0.5-1.7,1.2-2.3,2h-5.4v-19h21.8v5.2h-15.9v8.1
		c0.8-0.7,1.7-1.3,2.7-1.8c1-0.5,2.3-0.7,3.9-0.7c1.7,0,3.2,0.3,4.6,0.8c1.4,0.5,2.6,1.3,3.5,2.3c1,1,1.7,2.3,2.3,3.8
		c0.5,1.5,0.8,3.3,0.8,5.3c0,1.9-0.3,3.6-0.9,5.1c-0.6,1.5-1.4,2.8-2.5,3.9c-1.1,1.1-2.4,1.9-3.9,2.5
		C399.3,119.6,397.6,119.9,395.8,119.9z"/>
	<path d="M411,102.7h23v5.2h-23V102.7z"/>
	<path d="M449,119.9c-3.1,0-5.6-0.7-7.5-2c-2-1.3-3.2-3.4-3.7-6.3h6c0.4,1.1,1,1.8,1.8,2.3c0.9,0.5,2,0.7,3.4,0.7
		c1.1,0,2.1-0.2,3-0.5c0.9-0.3,1.8-1,2.5-1.8s1.3-2,1.7-3.5c0.4-1.5,0.7-3.4,0.7-5.6c-0.4,0.7-1,1.4-1.6,1.9
		c-0.7,0.5-1.4,0.9-2.2,1.2c-0.8,0.3-1.6,0.5-2.4,0.7c-0.8,0.1-1.7,0.2-2.5,0.2c-3.5,0-6.3-1-8.3-2.9c-2-1.9-3-4.7-3-8.2v-0.5
		c0-1.7,0.3-3.3,0.9-4.8c0.6-1.4,1.5-2.7,2.6-3.7s2.4-1.8,3.9-2.4c1.5-0.6,3.1-0.8,4.8-0.8c2.1,0,4,0.3,5.6,0.9
		c1.6,0.6,3,1.6,4.2,2.9c1.1,1.3,2,3,2.6,5.1c0.6,2.1,0.9,4.5,0.9,7.4v1c0,3.4-0.3,6.3-1,8.7c-0.7,2.4-1.7,4.3-2.9,5.8
		c-1.2,1.5-2.6,2.6-4.3,3.3C452.7,119.5,450.9,119.9,449,119.9z M449.7,102.3c2,0,3.6-0.6,4.8-1.8c1.2-1.2,1.8-2.7,1.8-4.6v-0.5
		c0-0.9-0.2-1.7-0.5-2.5c-0.3-0.8-0.8-1.5-1.4-2c-0.6-0.6-1.3-1-2.1-1.4c-0.8-0.3-1.7-0.5-2.7-0.5c-2,0-3.6,0.6-4.8,1.8
		c-1.2,1.2-1.8,2.7-1.8,4.6V96c0,1.9,0.6,3.4,1.8,4.6C446,101.8,447.7,102.3,449.7,102.3z"/>
	<path d="M473.5,100.9c-1.2,0-2.4-0.2-3.4-0.6c-1-0.4-1.9-1-2.6-1.7c-0.7-0.7-1.3-1.6-1.7-2.6c-0.4-1-0.6-2.1-0.6-3.4v-0.5
		c0-1.2,0.2-2.4,0.6-3.4c0.4-1,1-1.9,1.7-2.6c0.7-0.7,1.6-1.3,2.6-1.7c1-0.4,2.1-0.6,3.4-0.6c1.2,0,2.3,0.2,3.3,0.6
		c1,0.4,1.9,1,2.6,1.7c0.7,0.7,1.3,1.6,1.7,2.6c0.4,1,0.6,2.1,0.6,3.4v0.5c0,1.2-0.2,2.4-0.6,3.4c-0.4,1-1,1.9-1.7,2.6
		c-0.7,0.7-1.6,1.3-2.6,1.7C475.8,100.7,474.7,100.9,473.5,100.9z M494,84.3h6l-24,35h-6L494,84.3z M473.5,96.4
		c0.9,0,1.6-0.3,2.2-0.9c0.5-0.6,0.8-1.6,0.8-2.9v-0.5c0-1.3-0.3-2.3-0.8-2.9c-0.5-0.6-1.2-0.9-2.2-0.9s-1.6,0.3-2.2,0.9
		s-0.8,1.6-0.8,2.9v0.5c0,1.3,0.3,2.3,0.8,2.9S472.6,96.4,473.5,96.4z M496.5,119.8c-1.2,0-2.4-0.2-3.4-0.6c-1-0.4-1.9-1-2.6-1.7
		c-0.7-0.7-1.3-1.6-1.7-2.6c-0.4-1-0.6-2.1-0.6-3.4V111c0-1.2,0.2-2.4,0.6-3.4c0.4-1,1-1.9,1.7-2.6c0.7-0.7,1.6-1.3,2.6-1.7
		c1-0.4,2.1-0.6,3.4-0.6c1.2,0,2.3,0.2,3.3,0.6s1.9,1,2.6,1.7c0.7,0.7,1.3,1.6,1.7,2.6c0.4,1,0.6,2.1,0.6,3.4v0.5
		c0,1.2-0.2,2.4-0.6,3.4c-0.4,1-1,1.9-1.7,2.6c-0.7,0.7-1.6,1.3-2.6,1.7C498.8,119.6,497.7,119.8,496.5,119.8z M496.5,115.3
		c0.9,0,1.6-0.3,2.2-0.9c0.5-0.6,0.8-1.6,0.8-2.9V111c0-1.3-0.3-2.3-0.8-2.9c-0.5-0.6-1.2-0.9-2.2-0.9s-1.6,0.3-2.2,0.9
		c-0.5,0.6-0.8,1.6-0.8,2.9v0.5c0,1.3,0.3,2.3,0.8,2.9C494.9,115,495.6,115.3,496.5,115.3z"/>
	<path d="M519,92.8h5.1v4.5c0.3-0.7,0.7-1.3,1.2-1.9c0.5-0.6,1.1-1.2,1.7-1.6c0.6-0.5,1.4-0.8,2.1-1.1c0.8-0.3,1.6-0.4,2.4-0.4
		c2.2,0,3.9,0.5,5.2,1.4c1.2,0.9,2.1,2.1,2.5,3.6c0.8-1.5,1.8-2.7,3.2-3.6c1.4-0.9,3-1.4,4.8-1.4c2.8,0,4.9,0.8,6.4,2.4
		c1.5,1.6,2.2,4.2,2.2,7.6v17h-5.5v-15.7c0-2.4-0.4-4-1.3-5c-0.9-1-2.1-1.5-3.6-1.5c-1.8,0-3.1,0.6-4,1.8c-0.9,1.2-1.3,2.8-1.3,4.7
		v15.7h-5.5v-15.7c0-2.4-0.4-4-1.3-5c-0.9-1-2.1-1.5-3.6-1.5c-1.8,0-3.1,0.6-4,1.8c-0.9,1.2-1.3,2.8-1.3,4.7v15.7H519V92.8z"/>
	<path d="M573,119.9c-1.8,0-3.5-0.3-5.1-0.9c-1.6-0.6-3-1.4-4.1-2.6c-1.2-1.1-2.1-2.5-2.8-4.2c-0.7-1.7-1-3.6-1-5.9v-1
		c0-2.1,0.3-4,1-5.6c0.7-1.6,1.6-3,2.8-4.1c1.2-1.1,2.5-2,4.1-2.5c1.6-0.6,3.3-0.8,5.1-0.8c1.8,0,3.5,0.3,5.1,0.8
		c1.6,0.6,3,1.4,4.1,2.5c1.2,1.1,2.1,2.5,2.8,4.1c0.7,1.6,1,3.5,1,5.6v1c0,2.2-0.3,4.2-1,5.9c-0.7,1.7-1.6,3.1-2.8,4.2
		c-1.2,1.1-2.5,2-4.1,2.6C576.5,119.6,574.8,119.9,573,119.9z M573,115.1c1,0,1.9-0.2,2.8-0.5c0.9-0.3,1.7-0.8,2.3-1.5
		c0.7-0.7,1.2-1.6,1.7-2.7c0.4-1.1,0.6-2.4,0.6-4v-1c0-1.4-0.2-2.7-0.6-3.7c-0.4-1-1-1.9-1.7-2.5c-0.7-0.7-1.5-1.2-2.3-1.5
		c-0.9-0.3-1.8-0.5-2.8-0.5s-1.9,0.2-2.8,0.5c-0.9,0.3-1.7,0.8-2.3,1.5c-0.7,0.7-1.2,1.5-1.7,2.5c-0.4,1-0.6,2.3-0.6,3.7v1
		c0,1.6,0.2,2.9,0.6,4s1,2,1.7,2.7c0.7,0.7,1.5,1.2,2.3,1.5C571.1,114.9,572,115.1,573,115.1z"/>
	<path d="M590.2,92.8h5.1v4.5c0.5-1.4,1.4-2.5,2.6-3.5s2.7-1.5,4.5-1.5c0.8,0,1.5,0,1.9,0.1c0.4,0.1,0.7,0.1,0.9,0.2v5
		c-0.6-0.2-1.1-0.3-1.5-0.4c-0.5-0.1-1-0.1-1.7-0.1c-1.1,0-2,0.2-2.8,0.6c-0.8,0.4-1.4,0.9-1.9,1.5c-0.5,0.6-0.9,1.3-1.1,2.1
		c-0.2,0.8-0.4,1.7-0.4,2.5v15.5h-5.5V92.8z"/>
	<path d="M619.5,119.9c-1.8,0-3.4-0.3-5-0.8c-1.6-0.5-2.9-1.4-4.1-2.5c-1.2-1.1-2.1-2.5-2.8-4.2s-1-3.7-1-6v-1c0-2.2,0.3-4.1,1-5.7
		c0.7-1.6,1.6-3,2.7-4.1c1.2-1.1,2.5-1.9,4-2.4c1.5-0.5,3.1-0.8,4.8-0.8c4,0,7.1,1.1,9.3,3.2c2.1,2.2,3.2,5.3,3.2,9.3v2.8h-19.4
		c0,1.4,0.3,2.5,0.7,3.5c0.4,0.9,1,1.7,1.6,2.3c0.7,0.6,1.5,1,2.4,1.3c0.9,0.3,1.8,0.4,2.7,0.4c1.9,0,3.3-0.3,4.2-0.9
		c0.9-0.6,1.5-1.4,1.8-2.3h5.5c-0.5,2.6-1.8,4.6-3.9,6C625,119.2,622.5,119.9,619.5,119.9z M619.2,97.1c-0.9,0-1.8,0.1-2.7,0.4
		c-0.9,0.2-1.6,0.6-2.2,1.1c-0.7,0.5-1.2,1.2-1.6,2c-0.4,0.8-0.6,1.8-0.7,3H626c0-1.2-0.2-2.3-0.6-3.1c-0.3-0.8-0.8-1.5-1.4-2
		s-1.3-0.9-2.1-1.1C621.1,97.2,620.2,97.1,619.2,97.1z"/>
	<path d="M646.5,92.8h5.1v4.5c0.5-1.4,1.4-2.5,2.6-3.5s2.7-1.5,4.5-1.5c0.8,0,1.5,0,1.9,0.1c0.4,0.1,0.7,0.1,0.9,0.2v5
		c-0.6-0.2-1.1-0.3-1.5-0.4c-0.5-0.1-1-0.1-1.7-0.1c-1.1,0-2,0.2-2.8,0.6c-0.8,0.4-1.4,0.9-1.9,1.5c-0.5,0.6-0.9,1.3-1.1,2.1
		c-0.2,0.8-0.4,1.7-0.4,2.5v15.5h-5.5V92.8z"/>
	<path d="M675.7,119.9c-1.8,0-3.4-0.3-5-0.8c-1.6-0.5-2.9-1.4-4.1-2.5c-1.2-1.1-2.1-2.5-2.8-4.2s-1-3.7-1-6v-1c0-2.2,0.3-4.1,1-5.7
		c0.7-1.6,1.6-3,2.7-4.1c1.2-1.1,2.5-1.9,4-2.4c1.5-0.5,3.1-0.8,4.8-0.8c4,0,7.1,1.1,9.3,3.2c2.1,2.2,3.2,5.3,3.2,9.3v2.8h-19.4
		c0,1.4,0.3,2.5,0.7,3.5c0.4,0.9,1,1.7,1.6,2.3c0.7,0.6,1.5,1,2.4,1.3c0.9,0.3,1.8,0.4,2.7,0.4c1.9,0,3.3-0.3,4.2-0.9
		c0.9-0.6,1.5-1.4,1.8-2.3h5.5c-0.5,2.6-1.8,4.6-3.9,6C681.2,119.2,678.7,119.9,675.7,119.9z M675.5,97.1c-0.9,0-1.8,0.1-2.7,0.4
		c-0.9,0.2-1.6,0.6-2.2,1.1c-0.7,0.5-1.2,1.2-1.6,2c-0.4,0.8-0.6,1.8-0.7,3h13.9c0-1.2-0.2-2.3-0.6-3.1c-0.3-0.8-0.8-1.5-1.4-2
		s-1.3-0.9-2.1-1.1C677.3,97.2,676.4,97.1,675.5,97.1z"/>
	<path d="M688.5,92.8h6l8.1,20.5l7.3-20.5h5.6l-10.2,26.5h-5.5L688.5,92.8z"/>
	<path d="M729.2,119.9c-1.8,0-3.4-0.3-5-0.8c-1.6-0.5-2.9-1.4-4.1-2.5c-1.2-1.1-2.1-2.5-2.8-4.2s-1-3.7-1-6v-1c0-2.2,0.3-4.1,1-5.7
		c0.7-1.6,1.6-3,2.7-4.1c1.2-1.1,2.5-1.9,4-2.4c1.5-0.5,3.1-0.8,4.8-0.8c4,0,7.1,1.1,9.3,3.2c2.1,2.2,3.2,5.3,3.2,9.3v2.8h-19.4
		c0,1.4,0.3,2.5,0.7,3.5c0.4,0.9,1,1.7,1.6,2.3c0.7,0.6,1.5,1,2.4,1.3c0.9,0.3,1.8,0.4,2.7,0.4c1.9,0,3.3-0.3,4.2-0.9
		c0.9-0.6,1.5-1.4,1.8-2.3h5.5c-0.5,2.6-1.8,4.6-3.9,6C734.7,119.2,732.2,119.9,729.2,119.9z M729,97.1c-0.9,0-1.8,0.1-2.7,0.4
		c-0.9,0.2-1.6,0.6-2.2,1.1c-0.7,0.5-1.2,1.2-1.6,2c-0.4,0.8-0.6,1.8-0.7,3h13.9c0-1.2-0.2-2.3-0.6-3.1c-0.3-0.8-0.8-1.5-1.4-2
		s-1.3-0.9-2.1-1.1C730.8,97.2,729.9,97.1,729,97.1z"/>
	<path d="M745.5,92.8h5.1v4.5c0.6-1.3,1.7-2.5,3.1-3.5c1.4-1,3.3-1.5,5.5-1.5c3.2,0,5.7,0.9,7.3,2.6c1.6,1.8,2.5,4.3,2.5,7.7v16.7
		h-5.5v-15.5c0-2.2-0.5-3.9-1.4-5c-0.9-1.1-2.5-1.7-4.6-1.7c-1.2,0-2.2,0.2-3,0.6c-0.8,0.4-1.5,0.9-2,1.5c-0.5,0.6-0.9,1.3-1.2,2.1
		c-0.2,0.8-0.4,1.7-0.4,2.5v15.5h-5.5V92.8z"/>
	<path d="M783.7,119.9c-3.1,0-5.5-0.9-7.1-2.7c-1.6-1.8-2.4-4.6-2.4-8.3v-16h5.5v15.5c0,2.2,0.5,3.9,1.4,5c0.9,1.1,2.4,1.7,4.4,1.7
		c1.1,0,2-0.2,2.8-0.5c0.8-0.4,1.4-0.9,1.9-1.5c0.5-0.6,0.9-1.4,1.1-2.2s0.4-1.7,0.4-2.5V92.8h5.5v26.5h-5.1v-4.5
		c-0.6,1.4-1.7,2.5-3.1,3.5C787.7,119.4,785.9,119.9,783.7,119.9z"/>
	<path d="M814.5,119.9c-1.8,0-3.4-0.3-5-0.8c-1.6-0.5-2.9-1.4-4.1-2.5c-1.2-1.1-2.1-2.5-2.8-4.2s-1-3.7-1-6v-1c0-2.2,0.3-4.1,1-5.7
		c0.7-1.6,1.6-3,2.7-4.1c1.2-1.1,2.5-1.9,4-2.4c1.5-0.5,3.1-0.8,4.8-0.8c4,0,7.1,1.1,9.3,3.2c2.1,2.2,3.2,5.3,3.2,9.3v2.8h-19.4
		c0,1.4,0.3,2.5,0.7,3.5c0.4,0.9,1,1.7,1.6,2.3c0.7,0.6,1.5,1,2.4,1.3c0.9,0.3,1.8,0.4,2.7,0.4c1.9,0,3.3-0.3,4.2-0.9
		c0.9-0.6,1.5-1.4,1.8-2.3h5.5c-0.5,2.6-1.8,4.6-3.9,6C820,119.2,817.5,119.9,814.5,119.9z M814.2,97.1c-0.9,0-1.8,0.1-2.7,0.4
		c-0.9,0.2-1.6,0.6-2.2,1.1c-0.7,0.5-1.2,1.2-1.6,2c-0.4,0.8-0.6,1.8-0.7,3H821c0-1.2-0.2-2.3-0.6-3.1c-0.3-0.8-0.8-1.5-1.4-2
		s-1.3-0.9-2.1-1.1C816.1,97.2,815.2,97.1,814.2,97.1z"/>
</g>
<polygon points="117,85.8 121.8,95.4 132.4,96.9 124.7,104.3 126.5,114.8 117,109.9 107.5,114.8 109.3,104.3 101.6,96.9 112.3,95.4 
	"/>
</svg>
