<?xml version="1.0" encoding="utf-8"?>
<!-- Generator: Adobe Illustrator 27.0.0, SVG Export Plug-In . SVG Version: 6.00 Build 0)  -->
<svg version="1.1" id="Layer_1" xmlns="http://www.w3.org/2000/svg" xmlns:xlink="http://www.w3.org/1999/xlink" x="0px" y="0px"
	 viewBox="0 0 3840 486" style="enable-background:new 0 0 3840 486;" xml:space="preserve">
<style type="text/css">
	.st0{fill:#F4F4B0;}
</style>
<g>
	<path class="st0" d="M243.9,0h3352.3C3730.8,0,3840,108.8,3840,243l0,0c0,134.2-109.2,243-243.9,243H243.9C109.2,486,0,377.2,0,243
		l0,0C-0.3,108.8,108.9,0,243.9,0z"/>
	<g>
		<path d="M212.3,302c-9.8,0-17.8-2.1-23.9-6.1c-6.1-4.3-10.1-11-11.7-20.2h19c1.2,3.4,3.1,5.8,5.8,7.3c2.8,1.5,6.4,2.1,10.7,2.1
			c3.4,0,6.4-0.6,9.5-1.5c3.1-1.2,5.5-3.1,8-5.8c2.1-2.8,4-6.4,5.5-11.3c1.2-4.6,2.1-10.7,2.1-17.7c-1.2,2.4-3.1,4.3-5.2,5.8
			c-2.1,1.5-4.3,3.1-6.7,4c-2.5,0.9-5.2,1.8-7.7,2.1c-2.8,0.6-5.2,0.6-7.7,0.6c-11.3,0-19.9-3.1-26.4-9.2c-6.4-6.1-9.5-15-9.5-26
			v-1.5c0-5.5,0.9-10.4,3.1-15c1.8-4.6,4.6-8.6,8.3-11.6c3.4-3.4,7.7-5.8,12.3-7.6c4.9-1.8,9.8-2.8,15.3-2.8
			c6.7,0,12.6,0.9,17.8,3.1c5.2,2.1,9.5,5.2,13.2,9.2c3.7,4.3,6.4,9.5,8.3,16.2c1.8,6.4,2.8,14.4,2.8,23.2v3.1
			c0,10.7-1.2,19.9-3.4,27.5s-5.2,13.8-9.2,18.3c-4,4.9-8.3,8.3-13.5,10.4C223.9,300.8,218.4,302,212.3,302z M214.4,246.4
			c6.4,0,11.3-1.8,15.3-5.5c4-3.7,5.8-8.6,5.8-14.4V225c0-2.8-0.6-5.5-1.5-7.9c-0.9-2.4-2.5-4.6-4.3-6.4c-1.8-1.8-4-3.4-6.7-4.3
			c-2.5-0.9-5.5-1.5-8.6-1.5c-6.4,0-11.3,1.8-15.3,5.5c-4,3.7-5.8,8.6-5.8,14.7v1.5c0,5.8,1.8,10.7,5.8,14.4
			C203.1,244.5,208,246.4,214.4,246.4z"/>
		<path d="M309.5,302c-6.7,0-12.6-0.9-17.8-2.4s-9.5-3.7-12.9-6.4s-6.1-6.1-8-10.1c-1.8-4-2.8-8.3-2.8-12.8c0-6.4,1.8-11.9,5.8-16.8
			c4-4.9,9.8-8.6,17.5-10.4c-2.8-0.9-5.5-2.1-8-3.7c-2.5-1.5-4.6-3.4-6.4-5.8c-1.8-2.1-3.4-4.6-4.3-7.3s-1.5-5.5-1.5-8.9
			c0-4.3,0.9-8.3,2.5-11.9c1.8-3.7,4.3-6.7,7.4-9.5c3.4-2.8,7.4-4.9,12-6.1c4.6-1.5,10.1-2.1,16.3-2.1s11.7,0.6,16.3,2.1
			c4.9,1.5,8.9,3.7,12,6.1c3.4,2.8,5.5,5.8,7.4,9.5c1.5,3.7,2.5,7.6,2.5,11.9c0,6.4-1.8,11.6-5.8,15.9c-3.7,4.3-8.6,7.6-14.4,9.8
			c7.7,2.4,13.5,5.8,17.5,10.4c4,4.6,5.8,10.1,5.8,17.1c0,4.6-0.9,8.9-2.8,12.8c-1.8,4-4.6,7.3-8,10.1c-3.4,2.8-7.7,4.9-12.9,6.4
			C322.1,301.1,315.9,302,309.5,302z M309.5,285.2c7.7,0,13.2-1.5,16.9-4.6c3.7-3.1,5.5-7,5.5-11.6c0-5.5-2.1-9.8-6.4-12.8
			c-4.3-3.4-9.5-5.2-16-6.1c-6.4,0.9-11.7,2.8-16,6.1c-4.3,3.4-6.4,7.6-6.4,12.8c0,4.9,1.8,8.6,5.5,11.6
			C296.6,283.7,302.1,285.2,309.5,285.2z M309.5,236.3c5.5-0.9,10.1-2.8,13.8-5.5c3.7-2.8,5.2-6.7,5.2-12.2c0-4.9-1.8-8.3-5.2-10.7
			c-3.4-2.4-8-3.7-13.8-3.7s-10.4,1.2-13.8,3.7c-3.4,2.4-5.2,6.1-5.2,11c0,5.5,1.8,9.5,5.5,12.2C299.4,233.5,304,235.4,309.5,236.3z
			"/>
		<path d="M385,241.8c-4,0-7.4-0.6-10.7-1.8c-3.4-1.2-6.1-3.1-8.3-5.5c-2.1-2.4-4-5.2-5.2-8.3c-1.2-3.4-1.8-6.7-1.8-10.7V214
			c0-4,0.6-7.3,1.8-10.7c1.2-3.4,3.1-6.1,5.2-8.3c2.1-2.4,4.9-4,8.3-5.5c3.4-1.2,6.7-1.8,10.7-1.8s7.4,0.6,10.7,1.8
			c3.1,1.2,5.8,3.1,8.3,5.5c2.5,2.4,4,5.2,5.5,8.3c1.2,3.4,1.8,6.7,1.8,10.7v1.5c0,4-0.6,7.3-1.8,10.7c-1.2,3.4-3.1,6.1-5.5,8.3
			c-2.5,2.4-5.2,4-8.3,5.5C392.3,241.2,388.9,241.8,385,241.8z M450.3,189.2h19l-76.4,111h-19L450.3,189.2z M385,227.4
			c2.8,0,5.2-0.9,6.7-2.8c1.8-1.8,2.5-4.9,2.5-9.2V214c0-4.3-0.9-7.3-2.5-9.2c-1.8-1.8-4-2.8-6.7-2.8s-5.2,0.9-6.7,2.8
			c-1.8,1.8-2.5,4.9-2.5,9.2v1.5c0,4.3,0.9,7.3,2.5,9.2C379.7,226.5,382.2,227.4,385,227.4z M458,301.7c-4,0-7.4-0.6-10.7-1.8
			c-3.4-1.2-6.1-3.1-8.3-5.5c-2.1-2.4-4-5.2-5.2-8.3c-1.2-3.4-1.8-6.7-1.8-10.7v-1.5c0-4,0.6-7.3,1.8-10.7c1.2-3.4,3.1-6.1,5.2-8.3
			c2.1-2.4,4.9-4,8.3-5.5c3.4-1.2,6.7-1.8,10.7-1.8s7.4,0.6,10.7,1.8c3.1,1.2,5.8,3.1,8.3,5.5c2.5,2.4,4,5.2,5.5,8.3
			c1.2,3.4,1.8,6.7,1.8,10.7v1.5c0,4-0.6,7.3-1.8,10.7c-1.2,3.4-3.1,6.1-5.5,8.3c-2.5,2.4-5.2,4-8.3,5.5
			C465.6,301.1,461.9,301.7,458,301.7z M458,287.6c2.8,0,5.2-0.9,6.7-2.8c1.8-1.8,2.5-4.9,2.5-9.2v-1.5c0-4.3-0.9-7.3-2.5-9.2
			c-1.8-1.8-4-2.8-6.7-2.8s-5.2,0.9-6.7,2.8c-1.8,1.8-2.5,4.9-2.5,9.2v1.5c0,4.3,0.9,7.3,2.5,9.2C453,286.4,455.2,287.6,458,287.6z"
			/>
		<path d="M564.7,302c-5.8,0-11-0.9-16-2.8c-4.9-1.8-8.9-4.3-12.6-7.9c-3.7-3.7-6.4-7.9-8.3-13.4c-2.1-5.5-3.1-11.6-3.1-19v-3.1
			c0-6.7,0.9-12.8,3.1-18c2.1-5.2,4.9-9.5,8.6-13.1c3.7-3.4,8-6.1,12.6-7.9c4.9-1.8,9.8-2.8,15.3-2.8c5.5,0,10.4,0.6,14.7,2.1
			c4.3,1.5,8,3.4,11,6.1c3.1,2.4,5.5,5.5,7.4,9.2c1.8,3.4,3.1,7.3,3.7,11.3h-17.8c-0.9-4-3.1-7-5.8-9.8c-2.8-2.4-7.1-3.7-13.2-3.7
			c-3.1,0-5.8,0.6-8.3,1.5c-2.8,0.9-4.9,2.4-7.1,4.6c-2.1,2.1-3.7,4.9-4.9,8.3s-1.8,7.3-1.8,11.9v3.1c0,4.9,0.6,9.2,1.8,12.8
			c1.2,3.7,2.8,6.4,4.9,8.6c2.1,2.1,4.3,4,7.1,4.9c2.8,0.9,5.5,1.5,8.3,1.5c9.8,0,16.3-4.6,18.7-13.4h17.8
			c-0.9,4.6-2.5,8.6-4.3,11.9c-2.1,3.7-4.6,6.4-8,9.2c-3.1,2.4-6.7,4.3-11,5.8C573.9,301.4,569.3,302,564.7,302z"/>
		<path d="M614.1,189.2h17.5v40.3c0.9-1.8,2.1-3.7,3.7-5.5c1.5-1.8,3.4-3.4,5.5-4.9c2.1-1.2,4.6-2.4,7.4-3.4
			c2.8-0.9,6.1-1.2,9.5-1.2c10.4,0,18.1,2.8,23.3,8.3c5.2,5.5,7.7,13.8,7.7,24.5v53.2h-17.5v-49.2c0-7-1.5-12.5-4.6-15.9
			c-3.1-3.7-8-5.5-14.7-5.5c-3.7,0-6.7,0.6-9.5,1.8c-2.5,1.2-4.6,2.8-6.4,4.9c-1.5,1.8-2.8,4.3-3.7,6.7c-0.9,2.4-1.2,5.2-1.2,7.9
			v49.2h-16.9V189.2z"/>
		<path d="M742.9,302c-5.5,0-11-0.9-16-2.8c-4.9-1.8-9.5-4.3-13.2-7.9c-3.7-3.7-6.7-7.9-8.9-13.4c-2.1-5.5-3.4-11.6-3.4-19v-3.1
			c0-7,0.9-13.1,3.1-18.3c2.1-5.2,4.9-9.5,8.6-12.8s8-6.1,12.6-7.6c4.9-1.8,9.8-2.4,15.3-2.4c12.9,0,22.7,3.4,29.4,10.4
			c6.7,6.7,10.1,16.8,10.1,29.3v8.9H719c0,4.3,0.9,7.9,2.1,11c1.2,3.1,3.1,5.5,5.2,7.3c2.1,1.8,4.6,3.1,7.4,4
			c2.8,0.9,5.8,1.2,8.6,1.2c6.1,0,10.4-0.9,13.2-2.8c2.8-1.8,4.6-4.3,5.8-7.3h17.5c-1.8,8.3-5.8,14.7-12.6,19
			C760.1,299.9,752.1,302,742.9,302z M742,229.6c-3.1,0-5.8,0.3-8.6,1.2c-2.8,0.6-5.2,1.8-7.1,3.7c-2.1,1.5-3.7,3.7-4.9,6.4
			c-1.2,2.4-1.8,5.8-2.1,9.5h44.2c0-4-0.6-7.3-1.8-9.8s-2.8-4.9-4.6-6.4s-4.3-2.8-6.7-3.4C747.8,229.9,745.1,229.6,742,229.6z"/>
		<path d="M829.4,302c-5.8,0-11-0.9-16-2.8s-8.9-4.3-12.6-7.9c-3.7-3.7-6.4-7.9-8.3-13.4c-2.1-5.5-3.1-11.6-3.1-19v-3.1
			c0-6.7,0.9-12.8,3.1-18c2.1-5.2,4.9-9.5,8.6-13.1c3.7-3.4,8-6.1,12.6-7.9c4.9-1.8,9.8-2.8,15.3-2.8c5.5,0,10.4,0.6,14.7,2.1
			c4.3,1.5,8,3.4,11,6.1c3.1,2.4,5.5,5.5,7.4,9.2c1.8,3.4,3.1,7.3,3.7,11.3h-17.8c-0.9-4-3.1-7-5.8-9.8c-2.8-2.4-7.1-3.7-13.2-3.7
			c-3.1,0-5.8,0.6-8.3,1.5c-2.8,0.9-4.9,2.4-7.1,4.6c-2.1,2.1-3.7,4.9-4.9,8.3s-1.8,7.3-1.8,11.9v3.1c0,4.9,0.6,9.2,1.8,12.8
			c1.2,3.7,2.8,6.4,4.9,8.6c2.1,2.1,4.3,4,7.1,4.9c2.8,0.9,5.5,1.5,8.3,1.5c9.8,0,16.3-4.6,18.7-13.4h17.8
			c-0.9,4.6-2.5,8.6-4.3,11.9c-2.1,3.7-4.6,6.4-8,9.2c-3.1,2.4-6.7,4.3-11,5.8C838.6,301.4,834.3,302,829.4,302z"/>
		<path d="M878.8,189.2h17.5v63.6l35-36.7h20.6l-34,35.8l37.1,48.3H934l-27.9-37.3L896,273v27.2h-17.5v-111H878.8z"/>
		<path d="M999.6,216.1h16.3v14.4c1.8-4.3,4.6-7.9,8.3-11.3c4-3.1,8.6-4.9,14.4-4.9c2.8,0,4.6,0,5.8,0.3c1.2,0.3,2.1,0.3,2.8,0.6
			v15.9c-1.8-0.6-3.4-0.9-4.9-1.2c-1.5-0.3-3.4-0.3-5.5-0.3c-3.4,0-6.4,0.6-8.9,1.8c-2.5,1.2-4.6,2.8-6.1,4.9
			c-1.5,2.1-2.8,4.3-3.7,6.7c-0.9,2.4-1.2,5.2-1.2,7.9v49.2h-17.5v-84.1H999.6z"/>
		<path d="M1092.6,302c-5.5,0-11-0.9-16-2.8c-4.9-1.8-9.5-4.3-13.2-7.9c-3.7-3.7-6.7-7.9-8.9-13.4c-2.1-5.5-3.4-11.6-3.4-19v-3.1
			c0-7,0.9-13.1,3.1-18.3s4.9-9.5,8.6-12.8c3.7-3.4,8-6.1,12.6-7.6c4.9-1.8,9.8-2.4,15.3-2.4c12.9,0,22.7,3.4,29.4,10.4
			c6.7,6.7,10.1,16.8,10.1,29.3v8.9h-61.7c0,4.3,0.9,7.9,2.1,11c1.2,3.1,3.1,5.5,5.2,7.3c2.1,1.8,4.6,3.1,7.4,4
			c2.8,0.9,5.8,1.2,8.6,1.2c6.1,0,10.4-0.9,13.2-2.8s4.6-4.3,5.8-7.3h17.5c-1.8,8.3-5.8,14.7-12.6,19
			C1110.1,299.9,1102.1,302,1092.6,302z M1092,229.6c-3.1,0-5.8,0.3-8.6,1.2c-2.8,0.6-5.2,1.8-7.1,3.7c-2.1,1.5-3.7,3.7-4.9,6.4
			c-1.2,2.4-1.8,5.8-2.1,9.5h44.2c0-4-0.6-7.3-1.8-9.8s-2.8-4.9-4.6-6.4c-1.8-1.5-4.3-2.8-6.7-3.4
			C1097.5,229.9,1094.7,229.6,1092,229.6z"/>
		<path d="M1133.1,216.1h19l25.8,65.1l23.3-65.1h17.8l-32.5,84.1H1169L1133.1,216.1z"/>
		<path d="M1239.8,206.6c-3.4,0-5.8-0.9-8-3.1c-2.1-2.1-3.1-4.6-3.1-7.9s0.9-5.8,3.1-7.9c2.1-2.1,4.6-3.1,8-3.1c3.4,0,5.8,0.9,8,3.1
			c2.1,2.1,3.1,4.6,3.1,7.9s-0.9,5.8-3.1,7.9C1245.6,205.7,1243.2,206.6,1239.8,206.6z M1230.9,216.1h17.5v84.1h-17.5V216.1z"/>
		<path d="M1304.8,302c-5.5,0-11-0.9-16-2.8c-4.9-1.8-9.5-4.3-13.2-7.9c-3.7-3.7-6.7-7.9-8.9-13.4c-2.1-5.5-3.4-11.6-3.4-19v-3.1
			c0-7,0.9-13.1,3.1-18.3s4.9-9.5,8.6-12.8s8-6.1,12.6-7.6c4.9-1.8,9.8-2.4,15.3-2.4c12.9,0,22.7,3.4,29.4,10.4
			c6.7,6.7,10.1,16.8,10.1,29.3v8.9h-61.7c0,4.3,0.9,7.9,2.1,11c1.2,3.1,3.1,5.5,5.2,7.3c2.1,1.8,4.6,3.1,7.4,4
			c2.8,0.9,5.8,1.2,8.6,1.2c6.1,0,10.4-0.9,13.2-2.8s4.6-4.3,5.8-7.3h17.5c-1.8,8.3-5.8,14.7-12.6,19
			C1322.3,299.9,1314.4,302,1304.8,302z M1304.2,229.6c-3.1,0-5.8,0.3-8.6,1.2c-2.8,0.6-5.2,1.8-7.1,3.7c-2.1,1.5-3.7,3.7-4.9,6.4
			c-1.2,2.4-1.8,5.8-2.1,9.5h44.2c0-4-0.6-7.3-1.8-9.8s-2.8-4.9-4.6-6.4c-1.8-1.5-4.3-2.8-6.7-3.4
			C1310.1,229.9,1307,229.6,1304.2,229.6z"/>
		<path d="M1348.7,216.1h18.4l15.3,61.7l19.3-61.7h16l20.6,61.7l15.3-61.7h17.2l-23,84.1h-17.5l-20.9-61.7l-20.2,61.7h-17.5
			L1348.7,216.1z"/>
		<path d="M1513.4,302c-6.1,0-11.7-0.6-16-2.1c-4.3-1.2-8-3.4-11-5.5c-3.1-2.4-5.2-5.2-6.7-8.3s-2.5-6.4-3.1-9.8h17.5
			c0.6,3.1,2.5,5.5,5.5,7.3c3.1,1.8,7.4,3.1,13.8,3.1c7.1,0,12-0.9,14.7-2.8c2.8-1.8,4.3-4.3,4.3-7.3c0-1.2-0.3-2.8-1.2-4
			c-0.6-1.2-1.8-2.4-3.7-3.4c-1.5-0.9-4-1.8-6.7-2.8c-2.8-0.9-6.1-1.5-10.4-2.1c-4.9-0.6-9.2-1.5-13.2-2.8c-4-1.2-7.4-2.8-10.1-4.9
			c-2.8-2.1-4.9-4.6-6.4-7.3s-2.1-6.4-2.1-10.4c0-3.4,0.6-6.7,2.1-9.5s3.4-5.5,6.4-7.9c2.8-2.1,6.4-4,10.7-5.2
			c4.3-1.2,9.2-1.8,15-1.8c5.5,0,10.4,0.6,14.4,2.1c4,1.2,7.4,3.4,10.1,5.5c2.8,2.4,4.9,5.2,6.1,8.3c1.5,3.1,2.5,6.4,2.8,9.8h-17.5
			c-0.9-3.4-2.5-5.8-5.2-7.6c-2.5-1.8-6.1-2.8-10.7-2.8c-6.1,0-10.7,0.9-13.2,2.8c-2.5,1.8-3.7,4-3.7,6.7c0,1.5,0.3,2.8,0.9,4
			c0.6,1.2,1.8,2.1,3.1,3.1c1.5,0.9,3.4,1.8,6.1,2.4c2.5,0.6,5.8,1.2,9.8,1.8c4.9,0.6,9.5,1.5,13.5,2.8c4,1.2,7.7,3.1,10.4,4.9
			c3.1,2.1,5.2,4.6,6.7,7.6s2.5,6.4,2.5,10.4c0,3.7-0.9,7-2.5,10.1c-1.5,3.1-3.7,5.8-6.7,7.9c-3.1,2.1-6.7,4-11.3,5.5
			C1524.8,301.4,1519.3,302,1513.4,302z"/>
		<path d="M1642.6,302c-7.1,0-12.9-1.5-18.1-4.9c-4.9-3.1-8.6-6.7-10.4-11v14.1h-16.3v-111h17.5v40.3c2.8-4.3,6.1-7.9,11-10.7
			c4.6-2.8,10.1-4.3,16.6-4.3c11,0,19.6,3.4,26.1,10.4c6.4,6.7,9.5,17.1,9.5,31.2v3.1c0,7.3-0.9,13.4-2.5,19
			c-1.8,5.5-4,9.8-7.4,13.4c-3.1,3.7-6.7,6.1-11.3,7.9C1652.7,301.1,1647.8,302,1642.6,302z M1638.3,286.7c6.4,0,11.7-2.1,15.6-6.7
			c4-4.6,6.1-11.6,6.1-20.8v-3.1c0-8.9-1.8-15.6-5.8-19.9c-4-4.3-9.2-6.4-16-6.4c-3.1,0-6.1,0.6-8.9,1.5c-2.8,0.9-5.2,2.4-7.4,4.3
			c-2.1,1.8-4,4.3-5.2,7s-1.8,6.1-1.8,9.5v11c0,4,0.6,7.6,1.8,10.4c1.2,3.1,3.1,5.5,5.2,7.3c2.1,2.1,4.6,3.4,7.4,4.6
			C1632.1,286.1,1635.2,286.7,1638.3,286.7z"/>
		<path d="M1728.1,302c-5.5,0-11-0.9-16-2.8c-4.9-1.8-9.5-4.3-13.2-7.9c-3.7-3.7-6.7-7.9-8.9-13.4c-2.1-5.5-3.4-11.6-3.4-19v-3.1
			c0-7,0.9-13.1,3.1-18.3c2.1-5.2,4.9-9.5,8.6-12.8c3.7-3.4,8-6.1,12.6-7.6c4.9-1.8,9.8-2.4,15.3-2.4c12.9,0,22.7,3.4,29.4,10.4
			c6.7,6.7,10.1,16.8,10.1,29.3v8.9h-61.7c0,4.3,0.9,7.9,2.1,11c1.2,3.1,3.1,5.5,5.2,7.3c2.1,1.8,4.6,3.1,7.4,4
			c2.8,0.9,5.8,1.2,8.6,1.2c6.1,0,10.4-0.9,13.2-2.8c2.8-1.8,4.6-4.3,5.8-7.3h17.5c-1.8,8.3-5.8,14.7-12.6,19
			C1745.3,299.9,1737.3,302,1728.1,302z M1727.2,229.6c-3.1,0-5.8,0.3-8.6,1.2c-2.8,0.6-5.2,1.8-7.1,3.7c-1.8,1.8-3.7,3.7-4.9,6.4
			c-1.2,2.4-1.8,5.8-2.1,9.5h44.2c0-4-0.6-7.3-1.8-9.8c-1.2-2.8-2.8-4.9-4.6-6.4s-4.3-2.8-6.7-3.4
			C1733,229.9,1730.3,229.6,1727.2,229.6z"/>
		<path d="M1782.7,231.1h-11v-15h11v-2.4c0-8.3,2.1-14.7,6.4-19c4.3-4.3,11.3-6.4,21.5-6.4c3.1,0,7.1,0.3,12,0.6v15.3
			c-1.5-0.3-3.4-0.3-5.2-0.3c-1.8,0-3.7,0-5.2,0c-4.6,0-7.7,0.9-9.2,2.4c-1.8,1.5-2.8,4.6-2.8,8.6v1.2h20.6v15h-20.6v69.1h-17.5
			V231.1z"/>
		<path d="M1867.1,302c-5.8,0-11.3-0.9-16.3-2.8c-4.9-1.8-9.5-4.6-13.2-8.3c-3.7-3.7-6.7-7.9-8.9-13.4c-2.1-5.2-3.1-11.6-3.1-18.6
			v-3.1c0-6.7,0.9-12.5,3.1-17.7c2.1-5.2,4.9-9.5,8.9-13.1c3.7-3.7,8-6.1,13.2-7.9c4.9-1.8,10.4-2.8,16.3-2.8
			c5.8,0,11.3,0.9,16.3,2.8c4.9,1.8,9.5,4.6,13.2,7.9c3.7,3.4,6.7,7.9,8.9,13.1c2.1,5.2,3.1,11,3.1,17.7v3.1c0,7-0.9,13.1-3.1,18.6
			c-2.1,5.2-4.9,9.8-8.9,13.4s-8,6.4-13.2,8.3C1878.4,301.1,1872.9,302,1867.1,302z M1867.1,286.7c3.1,0,6.1-0.6,8.9-1.5
			c2.8-0.9,5.2-2.8,7.4-4.9c2.1-2.1,4-5.2,5.2-8.6c1.2-3.4,1.8-7.6,1.8-12.5v-3.1c0-4.6-0.6-8.6-1.8-11.6c-1.2-3.4-3.1-6.1-5.2-7.9
			c-2.1-2.1-4.6-3.7-7.4-4.9c-2.8-0.9-5.8-1.5-8.9-1.5c-3.1,0-6.1,0.6-8.9,1.5c-2.8,0.9-5.2,2.8-7.4,4.9c-2.1,2.1-4,4.9-5.2,7.9
			c-1.2,3.4-1.8,7.3-1.8,11.6v3.1c0,4.9,0.6,9.2,1.8,12.5c1.2,3.4,3.1,6.4,5.2,8.6s4.6,4,7.4,4.9
			C1861.3,286.1,1864,286.7,1867.1,286.7z"/>
		<path d="M1922,216.1h16.3v14.4c1.8-4.3,4.6-7.9,8.3-11.3c4-3.1,8.6-4.9,14.4-4.9c2.8,0,4.6,0,5.8,0.3c1.2,0.3,2.1,0.3,2.8,0.6
			v15.9c-1.8-0.6-3.4-0.9-4.9-1.2c-1.5-0.3-3.4-0.3-5.5-0.3c-3.4,0-6.4,0.6-8.9,1.8c-2.5,1.2-4.6,2.8-6.1,4.9
			c-1.5,2.1-2.8,4.3-3.7,6.7c-0.9,2.4-1.2,5.2-1.2,7.9v49.2h-17.5v-84.1H1922z"/>
		<path d="M2014.9,302c-5.5,0-11-0.9-16-2.8c-4.9-1.8-9.5-4.3-13.2-7.9c-3.7-3.7-6.7-7.9-8.9-13.4c-2.1-5.5-3.4-11.6-3.4-19v-3.1
			c0-7,0.9-13.1,3.1-18.3c2.1-5.2,4.9-9.5,8.6-12.8c3.7-3.4,8-6.1,12.6-7.6c4.9-1.8,9.8-2.4,15.3-2.4c12.9,0,22.7,3.4,29.4,10.4
			c6.7,6.7,10.1,16.8,10.1,29.3v8.9H1991c0,4.3,0.9,7.9,2.1,11c1.2,3.1,3.1,5.5,5.2,7.3c2.1,1.8,4.6,3.1,7.4,4
			c2.8,0.9,5.8,1.2,8.6,1.2c6.1,0,10.4-0.9,13.2-2.8c2.8-1.8,4.6-4.3,5.8-7.3h17.5c-1.8,8.3-5.8,14.7-12.6,19
			C2032.4,299.9,2024.4,302,2014.9,302z M2014.3,229.6c-3.1,0-5.8,0.3-8.6,1.2c-2.8,0.6-5.2,1.8-7.1,3.7c-1.8,1.8-3.7,3.7-4.9,6.4
			c-1.2,2.4-1.8,5.8-2.1,9.5h44.2c0-4-0.6-7.3-1.8-9.8c-1.2-2.8-2.8-4.9-4.6-6.4s-4.3-2.8-6.7-3.4
			C2020.1,229.9,2017.1,229.6,2014.3,229.6z"/>
		<path d="M2135.8,302c-5.8,0-11-0.9-16-2.8s-8.9-4.3-12.6-7.9c-3.7-3.7-6.4-7.9-8.3-13.4s-3.1-11.6-3.1-19v-3.1
			c0-6.7,0.9-12.8,3.1-18s4.9-9.5,8.6-13.1c3.7-3.4,8-6.1,12.6-7.9c4.9-1.8,9.8-2.8,15.3-2.8c5.5,0,10.4,0.6,14.7,2.1
			c4.3,1.5,8,3.4,11,6.1c3.1,2.4,5.5,5.5,7.4,9.2c1.8,3.7,3.1,7.3,3.7,11.3h-17.8c-0.9-4-3.1-7-5.8-9.8c-2.8-2.4-7.1-3.7-13.2-3.7
			c-3.1,0-5.8,0.6-8.3,1.5c-2.8,0.9-4.9,2.4-7.1,4.6c-2.1,2.1-3.7,4.9-4.9,8.3c-1.2,3.4-1.8,7.3-1.8,11.9v3.1
			c0,4.9,0.6,9.2,1.8,12.8c1.2,3.7,2.8,6.4,4.9,8.6c2.1,2.1,4.3,4,7.1,4.9c2.8,0.9,5.5,1.5,8.3,1.5c9.8,0,16.3-4.6,18.7-13.4h17.8
			c-0.9,4.6-2.5,8.6-4.3,11.9c-2.1,3.7-4.6,6.4-8,9.2c-3.1,2.4-6.7,4.3-11,5.8C2145,301.4,2140.7,302,2135.8,302z"/>
		<path d="M2185.2,189.2h17.5v40.3c0.9-1.8,2.1-3.7,3.7-5.5c1.5-1.8,3.4-3.4,5.5-4.9c2.1-1.2,4.6-2.4,7.4-3.4
			c2.8-0.9,6.1-1.2,9.5-1.2c10.4,0,18.1,2.8,23.3,8.3c5.2,5.5,7.7,13.8,7.7,24.5v53.2h-17.5v-49.2c0-7-1.5-12.5-4.6-15.9
			s-8-5.5-14.7-5.5c-3.7,0-6.7,0.6-9.5,1.8c-2.5,1.2-4.6,2.8-6.4,4.9c-1.5,1.8-2.8,4.3-3.7,6.7c-0.9,2.4-1.2,5.2-1.2,7.9v49.2h-17.5
			V189.2H2185.2z"/>
		<path d="M2314,302c-5.8,0-11.3-0.9-16.3-2.8c-4.9-1.8-9.5-4.6-13.2-8.3s-6.7-7.9-8.9-13.4c-2.1-5.2-3.1-11.6-3.1-18.6v-3.1
			c0-6.7,0.9-12.5,3.1-17.7c2.1-5.2,4.9-9.5,8.9-13.1c3.7-3.7,8-6.1,13.2-7.9c4.9-1.8,10.4-2.8,16.3-2.8s11.3,0.9,16.3,2.8
			c4.9,1.8,9.5,4.6,13.2,7.9s6.7,7.9,8.9,13.1c2.1,5.2,3.1,11,3.1,17.7v3.1c0,7-0.9,13.1-3.1,18.6c-2.1,5.2-4.9,9.8-8.9,13.4
			c-4,3.7-8,6.4-13.2,8.3C2325.3,301.1,2319.8,302,2314,302z M2314,286.7c3.1,0,6.1-0.6,8.9-1.5s5.2-2.8,7.4-4.9
			c2.1-2.1,4-5.2,5.2-8.6c1.2-3.4,1.8-7.6,1.8-12.5v-3.1c0-4.6-0.6-8.6-1.8-11.6c-1.2-3.4-3.1-6.1-5.2-7.9c-2.1-2.1-4.6-3.7-7.4-4.9
			c-2.8-0.9-5.8-1.5-8.9-1.5c-3.1,0-6.1,0.6-8.9,1.5c-2.8,0.9-5.2,2.8-7.4,4.9c-2.1,2.1-4,4.9-5.2,7.9c-1.2,3.4-1.8,7.3-1.8,11.6
			v3.1c0,4.9,0.6,9.2,1.8,12.5c1.2,3.4,3.1,6.4,5.2,8.6s4.6,4,7.4,4.9C2308.2,286.1,2310.9,286.7,2314,286.7z"/>
		<path d="M2405.4,302c-5.8,0-11.3-0.9-16.3-2.8s-9.5-4.6-13.2-8.3c-3.7-3.7-6.7-7.9-8.9-13.4c-2.1-5.2-3.1-11.6-3.1-18.6v-3.1
			c0-6.7,0.9-12.5,3.1-17.7c2.1-5.2,4.9-9.5,8.9-13.1c3.7-3.7,8-6.1,13.2-7.9c4.9-1.8,10.4-2.8,16.3-2.8c5.8,0,11.3,0.9,16.3,2.8
			c4.9,1.8,9.5,4.6,13.2,7.9c3.7,3.4,6.7,7.9,8.9,13.1c2.1,5.2,3.1,11,3.1,17.7v3.1c0,7-0.9,13.1-3.1,18.6
			c-2.1,5.2-4.9,9.8-8.9,13.4c-4,3.7-8,6.4-13.2,8.3C2416.8,301.1,2411.2,302,2405.4,302z M2405.4,286.7c3.1,0,6.1-0.6,8.9-1.5
			c2.8-0.9,5.2-2.8,7.4-4.9s4-5.2,5.2-8.6c1.2-3.4,1.8-7.6,1.8-12.5v-3.1c0-4.6-0.6-8.6-1.8-11.6c-1.2-3.4-3.1-6.1-5.2-7.9
			c-2.1-2.1-4.6-3.7-7.4-4.9c-2.8-0.9-5.8-1.5-8.9-1.5s-6.1,0.6-8.9,1.5c-2.8,0.9-5.2,2.8-7.4,4.9c-2.1,2.1-4,4.9-5.2,7.9
			c-1.2,3.4-1.8,7.3-1.8,11.6v3.1c0,4.9,0.6,9.2,1.8,12.5c1.2,3.4,3.1,6.4,5.2,8.6s4.6,4,7.4,4.9
			C2399.6,286.1,2402.3,286.7,2405.4,286.7z"/>
		<path d="M2492.2,302c-6.1,0-11.7-0.6-16-2.1c-4.3-1.2-8-3.4-11-5.5c-3.1-2.4-5.2-5.2-6.7-8.3s-2.5-6.4-3.1-9.8h17.5
			c0.6,3.1,2.5,5.5,5.5,7.3c3.1,1.8,7.4,3.1,13.8,3.1c7.1,0,12-0.9,14.7-2.8c2.8-1.8,4.3-4.3,4.3-7.3c0-1.2-0.3-2.8-1.2-4
			c-0.6-1.2-1.8-2.4-3.7-3.4c-1.5-0.9-4-1.8-6.7-2.8c-2.8-0.9-6.1-1.5-10.4-2.1c-4.9-0.6-9.2-1.5-13.2-2.8c-4-1.2-7.4-2.8-10.1-4.9
			s-4.9-4.6-6.4-7.3s-2.1-6.4-2.1-10.4c0-3.4,0.6-6.7,2.1-9.5s3.4-5.5,6.4-7.9c2.8-2.1,6.4-4,10.7-5.2c4.3-1.2,9.2-1.8,15-1.8
			c5.5,0,10.4,0.6,14.4,2.1c4,1.2,7.4,3.4,10.1,5.5c2.8,2.4,4.9,5.2,6.1,8.3c1.5,3.1,2.5,6.4,2.8,9.8h-17.5
			c-0.9-3.4-2.5-5.8-5.2-7.6c-2.5-1.8-6.1-2.8-10.7-2.8c-6.1,0-10.7,0.9-13.2,2.8c-2.5,1.8-3.7,4-3.7,6.7c0,1.5,0.3,2.8,0.9,4
			c0.6,1.2,1.8,2.1,3.1,3.1c1.5,0.9,3.4,1.8,6.1,2.4c2.5,0.6,5.8,1.2,9.8,1.8c4.9,0.6,9.5,1.5,13.5,2.8c4,1.2,7.7,3.1,10.4,4.9
			c3.1,2.1,5.2,4.6,6.7,7.6c1.5,3.1,2.5,6.4,2.5,10.4c0,3.7-0.9,7-2.5,10.1c-1.5,3.1-3.7,5.8-6.7,7.9s-6.7,4-11.3,5.5
			C2503.6,301.4,2498.3,302,2492.2,302z"/>
		<path d="M2552.6,206.6c-3.4,0-5.8-0.9-8-3.1c-2.1-2.1-3.1-4.6-3.1-7.9s0.9-5.8,3.1-7.9c2.1-2.1,4.6-3.1,8-3.1s5.8,0.9,8,3.1
			c2.1,2.1,3.1,4.6,3.1,7.9s-0.9,5.8-3.1,7.9C2558.5,205.7,2556,206.6,2552.6,206.6z M2543.7,216.1h17.5v84.1h-17.5V216.1z"/>
		<path d="M2581.2,216.1h16.3v14.1c2.1-4.3,5.2-7.9,9.8-11c4.6-3.1,10.4-4.9,17.8-4.9c10.4,0,18.1,2.8,23.3,8.3
			c5.2,5.5,7.7,13.8,7.7,24.5v53.2h-17.5v-49.2c0-7-1.5-12.5-4.6-15.9s-8-5.5-14.7-5.5c-3.7,0-6.7,0.6-9.5,1.8
			c-2.5,1.2-4.6,2.8-6.4,4.9c-1.5,1.8-2.8,4.3-3.7,6.7c-0.9,2.4-1.2,5.2-1.2,7.9v49.2h-17.5v-84.1H2581.2z"/>
		<path d="M2708.5,333.5c-6.4,0-12-0.6-16.6-1.8c-4.6-1.2-8-3.1-11-5.2c-2.8-2.1-4.9-4.9-6.4-7.9c-1.2-3.1-2.1-6.4-2.8-9.8h17.8
			c0.3,1.2,0.9,2.4,1.8,3.7s1.8,2.4,3.4,3.4c1.5,0.9,3.4,1.8,5.5,2.4c2.1,0.6,4.9,0.9,8,0.9c8,0,13.8-1.8,17.5-5.8
			c3.7-3.7,5.5-9.2,5.5-16.2v-11.9c-2.8,4.6-6.1,7.9-10.7,11c-4.6,2.8-10.1,4.3-16.3,4.3c-5.5,0-10.4-0.9-14.7-2.8
			c-4.3-1.8-8-4.6-11.3-7.9c-3.4-3.4-5.5-7.9-7.4-13.1c-1.8-5.2-2.5-11.3-2.5-18.3v-3.1c0-6.4,0.9-12.2,2.5-17.4s4-9.2,7.4-12.5
			c3.1-3.4,6.7-6.1,11.3-7.9c4.3-1.8,9.2-2.8,14.4-2.8c7.1,0,12.9,1.5,18.1,4.9c4.9,3.1,8.6,6.7,10.4,11v-14.4h16.3v80.1
			c0,11.9-3.4,21.1-10.1,27.5C2732.1,330.4,2722,333.5,2708.5,333.5z M2708.2,285.2c3.1,0,6.1-0.6,8.9-1.5s5.2-2.4,7.4-4.3
			s3.7-4.3,5.2-7.3c1.2-3.1,1.8-6.1,1.8-10.1v-11c0-3.4-0.6-6.4-1.8-9.2c-1.2-2.8-3.1-4.9-5.2-6.7c-2.1-1.8-4.6-3.1-7.4-4
			s-5.8-1.5-8.6-1.5c-6.7,0-12,2.1-16,6.1c-4,4.3-5.8,10.4-5.8,19v3.1c0,8.9,2.1,15.6,6.1,20.2
			C2696.5,282.7,2701.7,285.2,2708.2,285.2z"/>
		<path d="M2826.2,302c-4.6,0-8.6-0.6-12.3-1.8c-3.7-1.2-6.4-3.1-8.9-5.5s-4.3-5.2-5.5-8.3c-1.2-3.1-1.8-6.7-1.8-10.4
			c0-8.3,2.5-14.7,7.4-18.6c4.9-4,12.3-6.1,22.1-6.1h26.4v-4.6c0-6.4-1.5-10.7-4.3-13.1c-2.8-2.4-7.4-3.7-13.2-3.7
			c-5.5,0-9.5,0.9-12,2.4c-2.5,1.8-4,4-4.6,7h-16.9c0.3-3.7,1.2-7,2.8-9.8c1.5-3.1,4-5.5,6.7-7.9c3.1-2.1,6.4-4,10.4-5.2
			c4-1.2,8.9-1.8,14.1-1.8c5.2,0,9.8,0.6,14.1,1.8c4.3,1.2,7.7,3.1,10.7,5.5s5.2,5.8,7.1,9.5c1.5,4,2.5,8.6,2.5,14.1v33.3
			c0,4.6,0,8.3,0.3,11.6c0,3.4,0.3,6.7,0.9,9.8h-16c-0.3-2.4-0.6-4.6-0.6-6.1c-0.3-1.8-0.3-3.7-0.3-6.4c-2.1,4-5.5,7.3-10.4,10.1
			C2840,300.5,2833.3,302,2826.2,302z M2830.8,286.7c3.1,0,5.8-0.3,8.6-1.2c2.8-0.9,5.2-1.8,7.1-3.4c2.1-1.5,3.7-3.4,4.9-5.8
			c1.2-2.1,1.8-4.9,1.8-7.9v-4.6h-23c-4.6,0-8,0.9-10.7,2.8c-2.8,1.8-4,4.6-4,8.3c0,3.4,1.2,6.4,3.7,8.3
			C2821.6,285.8,2825.6,286.7,2830.8,286.7z"/>
		<path d="M2922.3,216.1h16.3v14.4c1.8-4.3,4.6-7.9,8.3-11.3c4-3.1,8.6-4.9,14.4-4.9c2.8,0,4.6,0,5.8,0.3c1.2,0.3,2.1,0.3,2.8,0.6
			v15.9c-1.8-0.6-3.4-0.9-4.9-1.2c-1.5-0.3-3.4-0.3-5.5-0.3c-3.4,0-6.4,0.6-8.9,1.8c-2.5,1.2-4.6,2.8-6.1,4.9
			c-1.5,2.1-2.8,4.3-3.7,6.7c-0.9,2.4-1.2,5.2-1.2,7.9v49.2h-17.5v-84.1H2922.3z"/>
		<path d="M3015.5,302c-5.5,0-11-0.9-16-2.8s-9.5-4.3-13.2-7.9c-3.7-3.7-6.7-7.9-8.9-13.4s-3.4-11.6-3.4-19v-3.1
			c0-7,0.9-13.1,3.1-18.3s4.9-9.5,8.6-12.8c3.7-3.4,8-6.1,12.6-7.6c4.9-1.8,9.8-2.4,15.3-2.4c12.9,0,22.7,3.4,29.4,10.4
			c6.7,6.7,10.1,16.8,10.1,29.3v8.9h-61.7c0,4.3,0.9,7.9,2.1,11c1.2,3.1,3.1,5.5,5.2,7.3s4.6,3.1,7.4,4c2.8,0.9,5.8,1.2,8.6,1.2
			c6.1,0,10.4-0.9,13.2-2.8c2.8-1.8,4.6-4.3,5.8-7.3h17.5c-1.8,8.3-5.8,14.7-12.6,19C3033,299.9,3024.7,302,3015.5,302z
			 M3014.6,229.6c-3.1,0-5.8,0.3-8.6,1.2c-2.8,0.6-5.2,1.8-7.1,3.7c-1.8,1.8-3.7,3.7-4.9,6.4c-1.2,2.4-1.8,5.8-2.1,9.5h44.2
			c0-4-0.6-7.3-1.8-9.8c-1.2-2.8-2.8-4.9-4.6-6.4s-4.3-2.8-6.7-3.4C3020.4,229.9,3017.6,229.6,3014.6,229.6z"/>
		<path d="M3098.9,302c-6.1,0-11.7-0.6-16-2.1c-4.3-1.2-8-3.4-11-5.5c-3.1-2.4-5.2-5.2-6.7-8.3s-2.5-6.4-3.1-9.8h17.5
			c0.6,3.1,2.5,5.5,5.5,7.3c3.1,1.8,7.4,3.1,13.8,3.1c7.1,0,12-0.9,14.7-2.8c2.8-1.8,4.3-4.3,4.3-7.3c0-1.2-0.3-2.8-1.2-4
			c-0.6-1.2-1.8-2.4-3.7-3.4c-1.5-0.9-4-1.8-6.7-2.8c-2.8-0.9-6.1-1.5-10.4-2.1c-4.9-0.6-9.2-1.5-13.2-2.8c-4-1.2-7.4-2.8-10.1-4.9
			c-2.8-2.1-4.9-4.6-6.4-7.3s-2.1-6.4-2.1-10.4c0-3.4,0.6-6.7,2.1-9.5s3.4-5.5,6.4-7.9c2.8-2.1,6.4-4,10.7-5.2
			c4.3-1.2,9.2-1.8,15-1.8c5.5,0,10.4,0.6,14.4,2.1c4,1.2,7.4,3.4,10.1,5.5c2.8,2.4,4.9,5.2,6.1,8.3c1.5,3.1,2.5,6.4,2.8,9.8h-17.5
			c-0.9-3.4-2.5-5.8-5.2-7.6c-2.5-1.8-6.1-2.8-10.7-2.8c-6.1,0-10.7,0.9-13.2,2.8c-2.5,1.8-3.7,4-3.7,6.7c0,1.5,0.3,2.8,0.9,4
			c0.6,1.2,1.8,2.1,3.1,3.1c1.5,0.9,3.4,1.8,6.1,2.4c2.5,0.6,5.8,1.2,9.8,1.8c4.9,0.6,9.5,1.5,13.5,2.8c4,1.2,7.7,3.1,10.4,4.9
			c3.1,2.1,5.2,4.6,6.7,7.6c1.5,3.1,2.5,6.4,2.5,10.4c0,3.7-0.9,7-2.5,10.1c-1.5,3.1-3.7,5.8-6.7,7.9s-6.7,4-11.3,5.5
			C3110.3,301.4,3105.1,302,3098.9,302z"/>
		<path d="M3181.4,301.1c-9.5,0-16.6-2.1-20.9-6.1c-4.3-4-6.1-10.7-6.1-19.9v-44h-12v-15h12v-19h17.5v19h21.5v15h-21.5v41.3
			c0,4.9,0.9,8.6,2.8,10.4c1.8,1.8,5.5,3.1,10.7,3.1c3.1,0,6.4-0.3,9.5-0.6v15c-2.1,0.3-4,0.3-6.1,0.6
			C3186.7,300.8,3184.2,301.1,3181.4,301.1z"/>
		<path d="M3233.3,302c-4.6,0-8.6-0.6-12.3-1.8c-3.7-1.2-6.4-3.1-8.9-5.5c-2.5-2.4-4.3-5.2-5.5-8.3c-1.2-3.1-1.8-6.7-1.8-10.4
			c0-8.3,2.5-14.7,7.4-18.6c4.9-4,12.3-6.1,22.1-6.1h26.4v-4.6c0-6.4-1.5-10.7-4.3-13.1c-2.8-2.4-7.4-3.7-13.2-3.7
			c-5.5,0-9.5,0.9-12,2.4c-2.5,1.8-4,4-4.6,7h-16.9c0.3-3.7,1.2-7,2.8-9.8c1.5-3.1,4-5.5,6.7-7.9c3.1-2.1,6.4-4,10.4-5.2
			c4-1.2,8.9-1.8,14.1-1.8c5.2,0,9.8,0.6,14.1,1.8c4.3,1.2,7.7,3.1,10.7,5.5s5.2,5.8,7.1,9.5c1.5,4,2.5,8.6,2.5,14.1v33.3
			c0,4.6,0,8.3,0.3,11.6c0,3.4,0.3,6.7,0.9,9.8h-15.9c-0.3-2.4-0.6-4.6-0.6-6.1c-0.3-1.8-0.3-3.7-0.3-6.4c-2.1,4-5.5,7.3-10.4,10.1
			S3240.3,302,3233.3,302z M3238.2,286.7c3.1,0,5.8-0.3,8.6-1.2c2.8-0.9,5.2-1.8,7.1-3.4c2.1-1.5,3.7-3.4,4.9-5.8
			c1.2-2.1,1.8-4.9,1.8-7.9v-4.6h-23c-4.6,0-8,0.9-10.7,2.8c-2.8,1.8-4,4.6-4,8.3c0,3.4,1.2,6.4,3.7,8.3
			C3228.7,285.8,3232.7,286.7,3238.2,286.7z"/>
		<path d="M3324.7,302c-9.8,0-17.5-2.8-22.7-8.6c-5.2-5.8-7.7-14.7-7.7-26.3v-51h17.5v49.2c0,7,1.5,12.5,4.3,15.9
			c3.1,3.7,7.7,5.5,13.8,5.5c3.4,0,6.4-0.6,8.9-1.8c2.5-1.2,4.6-2.8,6.1-4.9c1.5-2.1,2.8-4.3,3.7-7c0.9-2.4,1.2-5.2,1.2-7.9v-48.9
			h17.5v84.1h-16.3v-14.4c-2.1,4.3-5.2,7.9-9.8,11.3C3337.3,300.5,3331.4,302,3324.7,302z"/>
		<path d="M3386,216.1h16.3v14.4c1.8-4.3,4.6-7.9,8.3-11.3c4-3.1,8.6-4.9,14.4-4.9c2.8,0,4.6,0,5.8,0.3c1.2,0.3,2.1,0.3,2.8,0.6
			v15.9c-1.8-0.6-3.4-0.9-4.9-1.2c-1.5-0.3-3.4-0.3-5.5-0.3c-3.4,0-6.4,0.6-8.9,1.8c-2.5,1.2-4.6,2.8-6.1,4.9
			c-1.5,2.1-2.8,4.3-3.7,6.7c-0.9,2.4-1.2,5.2-1.2,7.9v49.2h-17.5v-84.1H3386z"/>
		<path d="M3465.5,302c-4.6,0-8.6-0.6-12.3-1.8c-3.7-1.2-6.4-3.1-8.9-5.5c-2.5-2.4-4.3-5.2-5.5-8.3c-1.2-3.1-1.8-6.7-1.8-10.4
			c0-8.3,2.5-14.7,7.4-18.6c4.9-4,12.3-6.1,22.1-6.1h26.4v-4.6c0-6.4-1.5-10.7-4.3-13.1c-2.8-2.4-7.4-3.7-13.2-3.7
			c-5.5,0-9.5,0.9-12,2.4c-2.5,1.8-4,4-4.6,7h-16.9c0.3-3.7,1.2-7,2.8-9.8c1.5-3.1,4-5.5,6.7-7.9c3.1-2.1,6.4-4,10.4-5.2
			c4-1.2,8.9-1.8,14.1-1.8c5.2,0,9.8,0.6,14.1,1.8c4.3,1.2,7.7,3.1,10.7,5.5s5.2,5.8,7.1,9.5c1.5,4,2.5,8.6,2.5,14.1v33.3
			c0,4.6,0,8.3,0.3,11.6c0,3.4,0.3,6.7,0.9,9.8h-15.9c-0.3-2.4-0.6-4.6-0.6-6.1c-0.3-1.8-0.3-3.7-0.3-6.4c-2.1,4-5.5,7.3-10.4,10.1
			S3472.5,302,3465.5,302z M3470.1,286.7c3.1,0,5.8-0.3,8.6-1.2c2.8-0.9,5.2-1.8,7.1-3.4c2.1-1.5,3.7-3.4,4.9-5.8
			c1.2-2.1,1.8-4.9,1.8-7.9v-4.6h-23c-4.6,0-8,0.9-10.7,2.8c-2.8,1.8-4,4.6-4,8.3c0,3.4,1.2,6.4,3.7,8.3
			C3460.9,285.8,3464.9,286.7,3470.1,286.7z"/>
		<path d="M3527.4,216.1h16.3v14.1c2.1-4.3,5.2-7.9,9.8-11c4.6-3.1,10.4-4.9,17.8-4.9c10.4,0,18.1,2.8,23.3,8.3
			c5.2,5.5,7.7,13.8,7.7,24.5v53.2h-17.5v-49.2c0-7-1.5-12.5-4.6-15.9s-8-5.5-14.7-5.5c-3.7,0-6.7,0.6-9.5,1.8
			c-2.5,1.2-4.6,2.8-6.4,4.9c-1.5,1.8-2.8,4.3-3.7,6.7c-0.9,2.4-1.2,5.2-1.2,7.9v49.2h-17.5v-84.1H3527.4z"/>
		<path d="M3652.3,301.1c-9.5,0-16.6-2.1-20.9-6.1c-4.3-4-6.1-10.7-6.1-19.9v-44h-12v-15h12v-19h17.5v19h21.5v15h-21.5v41.3
			c0,4.9,0.9,8.6,2.8,10.4c1.8,1.8,5.5,3.1,10.7,3.1c3.1,0,6.4-0.3,9.5-0.6v15c-2.1,0.3-4,0.3-6.1,0.6
			C3657.5,300.8,3655,301.1,3652.3,301.1z"/>
	</g>
</g>
</svg>
