<?xml version="1.0" encoding="utf-8"?>
<!-- Generator: Adobe Illustrator 27.0.0, SVG Export Plug-In . SVG Version: 6.00 Build 0)  -->
<svg version="1.1" id="Layer_1" xmlns="http://www.w3.org/2000/svg" xmlns:xlink="http://www.w3.org/1999/xlink" x="0px" y="0px"
	 viewBox="0 0 2048 356" style="enable-background:new 0 0 2048 356;" xml:space="preserve">
<style type="text/css">
	.st0{fill:#F4DAFF;}
</style>
<g>
	<path class="st0" d="M176.8,0h1694.3c97.7,0,176.8,79.7,176.8,178l0,0c0,98.3-79.2,178-176.8,178H176.8C79.2,356,0,276.3,0,178l0,0
		C0,79.7,79.2,0,176.8,0z"/>
	<g>
		<path d="M127.1,127h13.7v33.1h38.8V127h13.7v80.4h-13.7V172h-38.8v35.4h-13.7V127z"/>
		<path d="M226.3,208.8c-3.2,0-6.2-0.5-8.7-1.4c-2.5-0.9-4.8-2.3-6.4-4.1c-1.8-1.8-3.2-3.7-4.1-6c-0.9-2.3-1.4-4.8-1.4-7.6
			c0-6,1.8-10.6,5.5-13.6s8.9-4.4,15.7-4.4h18.7v-3.4c0-4.6-0.9-7.8-3-9.4c-2.1-1.8-5.2-2.5-9.6-2.5c-3.9,0-6.8,0.7-8.7,1.8
			s-3,3-3.2,5.1H209c0.2-2.5,0.9-5.1,2.1-7.1c1.1-2.3,2.7-4.1,4.8-5.7c2.1-1.6,4.6-2.8,7.5-3.7s6.4-1.4,10-1.4c3.7,0,7.1,0.5,10,1.1
			c3,0.9,5.5,2.1,7.8,3.9c2.1,1.8,3.9,4.1,5,6.9c1.1,2.8,1.8,6.2,1.8,10.3V192c0,3.2,0,6,0,8.5c0,2.5,0.2,4.8,0.5,7.1h-11.4
			c-0.2-1.8-0.5-3.2-0.5-4.6c-0.2-1.1-0.2-2.8-0.2-4.6c-1.4,2.8-3.9,5.3-7.5,7.3C235.9,207.6,231.6,208.8,226.3,208.8z M229.8,197.8
			c2.1,0,4.1-0.2,6.2-0.9c2.1-0.5,3.7-1.4,5-2.5c1.4-1.1,2.5-2.5,3.4-4.1c0.9-1.6,1.4-3.4,1.4-5.7V181h-16.4c-3.2,0-5.7,0.7-7.8,2.1
			c-2.1,1.4-3,3.4-3,6c0,2.5,0.9,4.6,2.7,6.2C223.1,196.8,225.9,197.8,229.8,197.8z"/>
		<path d="M270.8,146.5h11.6v10.3c1.8-3.4,4.6-6.4,8.2-8.5s7.8-3,12.3-3c8,0,14.1,2.5,18.7,7.3c4.6,5.1,6.8,12.4,6.8,22.5v2.3
			c0,5.3-0.7,9.6-1.8,13.8c-1.1,3.9-3,7.1-5.2,9.6c-2.3,2.5-5,4.6-8,5.7c-3.2,1.4-6.6,1.8-10.5,1.8c-4.3,0-8.2-0.9-11.9-2.8
			c-3.7-1.8-6.2-4.6-7.8-8v32.6h-12.5V146.5z M300,197.8c4.8,0,8.4-1.6,11.4-5.1c3-3.2,4.3-8.3,4.3-15.2v-2.3
			c0-6.4-1.4-11.3-4.3-14.2c-2.7-3.2-6.6-4.6-11.4-4.6c-2.1,0-4.1,0.2-6.2,1.1c-2.1,0.7-3.7,1.6-5.2,3c-1.6,1.4-2.7,3-3.7,5.1
			c-0.9,2.1-1.4,4.4-1.4,6.9v8c0,3,0.5,5.5,1.4,7.6c0.9,2.1,2.1,3.9,3.7,5.5c1.6,1.4,3.2,2.5,5.2,3.2
			C295.7,197.3,297.8,197.8,300,197.8z"/>
		<path d="M338.1,146.5h11.6v10.3c1.8-3.4,4.6-6.4,8.2-8.5c3.7-2.1,7.8-3,12.3-3c8,0,14.1,2.5,18.7,7.3c4.6,5.1,6.8,12.4,6.8,22.5
			v2.3c0,5.3-0.7,9.6-1.8,13.8c-1.1,3.9-3,7.1-5.2,9.6c-2.3,2.5-5,4.6-8,5.7c-3.2,1.4-6.6,1.8-10.5,1.8c-4.3,0-8.2-0.9-11.9-2.8
			c-3.7-1.8-6.2-4.6-7.8-8v32.6h-12.5V146.5z M367.3,197.8c4.8,0,8.4-1.6,11.4-5.1c3-3.2,4.3-8.3,4.3-15.2v-2.3
			c0-6.4-1.4-11.3-4.3-14.2c-2.7-3.2-6.6-4.6-11.4-4.6c-2.1,0-4.1,0.2-6.2,1.1c-2.1,0.7-3.7,1.6-5.2,3c-1.6,1.4-2.7,3-3.7,5.1
			c-0.9,2.1-1.4,4.4-1.4,6.9v8c0,3,0.5,5.5,1.4,7.6c0.9,2.1,2.1,3.9,3.7,5.5c1.6,1.4,3.2,2.5,5.2,3.2
			C363,197.3,365.1,197.8,367.3,197.8z"/>
		<path d="M413,231.7c-1.1,0-2.3,0-3.4-0.2v-11c1.1,0.2,2.3,0.5,3.4,0.5c1.4,0,2.3-0.2,3.2-0.7c0.9-0.5,1.6-1.1,2.5-2.1
			c0.7-1.1,1.4-2.3,2.1-4.1c0.7-1.6,1.6-3.9,2.5-6.4l-25.6-60.9h13.7l18.5,47.1l16.7-47.1h12.8L436,207.6c-1.6,4.4-3.2,8-4.6,11
			c-1.4,3-3,5.5-4.8,7.6c-1.8,1.8-3.7,3.4-5.7,4.4C418.5,231.3,415.9,231.7,413,231.7z"/>
		<path d="M516.1,208.8c-4.1,0-8-0.7-11.4-1.8s-6.4-3.2-8.9-5.7c-2.5-2.5-4.6-5.7-5.9-9.6s-2.3-8.5-2.3-13.8v-2.3
			c0-4.8,0.7-9.2,2.3-12.9s3.7-6.9,6.2-9.4c2.5-2.5,5.7-4.4,9.1-5.7c3.4-1.1,7.1-1.8,11-1.8s7.5,0.5,10.5,1.6c3.2,1.1,5.7,2.5,8,4.4
			c2.1,1.8,3.9,4.1,5.2,6.7s2.1,5.3,2.5,8h-12.8c-0.7-2.8-2.1-5.1-4.1-6.9c-2.1-1.8-5-2.8-9.4-2.8c-2.1,0-4.1,0.5-5.9,1.1
			c-1.8,0.7-3.7,1.8-5,3.4c-1.4,1.6-2.5,3.4-3.4,6c-0.9,2.5-1.1,5.3-1.1,8.5v2.3c0,3.7,0.5,6.7,1.1,9.2c0.9,2.5,2.1,4.6,3.4,6.2
			c1.4,1.6,3.2,2.8,5,3.4c1.8,0.7,3.9,1.1,5.9,1.1c7.1,0,11.6-3.2,13.5-9.6h12.8c-0.7,3.2-1.6,6.2-3.2,8.7c-1.6,2.5-3.4,4.8-5.7,6.4
			c-2.3,1.6-4.8,3.2-7.8,4.1C522.7,208.3,519.5,208.8,516.1,208.8z"/>
		<path d="M572.7,208.8c-7.1,0-12.5-2.1-16.2-6.2c-3.7-4.1-5.5-10.6-5.5-19.1v-36.7h12.5v35.6c0,5.1,1.1,9,3.2,11.5
			c2.1,2.5,5.5,3.9,10,3.9c2.5,0,4.6-0.5,6.4-1.1c1.8-0.9,3.2-2.1,4.3-3.4c1.1-1.4,2.1-3.2,2.5-5.1c0.5-1.8,0.9-3.9,0.9-5.7v-35.8
			h12.5v60.9h-11.6v-10.3c-1.4,3.2-3.9,5.7-7.1,8C581.6,207.6,577.5,208.8,572.7,208.8z"/>
		<path d="M639.3,208.8c-4.6,0-8.2-0.5-11.4-1.4c-3.2-0.9-5.7-2.3-8-4.1c-2.1-1.6-3.7-3.7-4.8-6c-1.1-2.3-1.8-4.6-2.1-7.1h12.5
			c0.5,2.1,1.8,3.9,3.9,5.3c2.1,1.4,5.2,2.1,9.8,2.1c5,0,8.7-0.7,10.5-2.1c2.1-1.4,3.2-3.2,3.2-5.3c0-0.9-0.2-1.8-0.9-2.8
			c-0.5-0.9-1.4-1.6-2.5-2.5c-1.1-0.7-2.7-1.4-4.8-2.1c-2.1-0.7-4.6-1.1-7.3-1.4c-3.4-0.5-6.6-1.1-9.4-2.1c-2.7-0.9-5.2-2.1-7.1-3.4
			c-2.1-1.4-3.4-3.2-4.6-5.3c-1.1-2.1-1.6-4.6-1.6-7.3c0-2.5,0.5-4.8,1.4-6.9c0.9-2.3,2.5-4.1,4.6-5.7s4.6-3,7.8-3.9
			c3.2-0.9,6.6-1.4,10.7-1.4c3.9,0,7.3,0.5,10.3,1.4s5.2,2.3,7.3,4.1c2.1,1.6,3.4,3.7,4.6,6c1.1,2.3,1.6,4.6,2.1,7.1H651
			c-0.7-2.3-1.8-4.1-3.7-5.5s-4.3-2.1-7.8-2.1c-4.6,0-7.5,0.7-9.4,2.1s-2.5,3-2.5,4.8c0,1.1,0.2,2.1,0.7,2.8
			c0.5,0.9,1.1,1.6,2.3,2.3c1.1,0.7,2.5,1.1,4.3,1.8c1.8,0.5,4.3,0.9,7.1,1.1c3.4,0.5,6.6,1.1,9.6,2.1c3,0.9,5.5,2.1,7.5,3.7
			c2.1,1.6,3.7,3.4,4.8,5.5c1.1,2.1,1.8,4.8,1.8,7.6c0,2.5-0.5,5.1-1.6,7.3c-1.1,2.3-2.7,4.1-4.8,5.7c-2.3,1.6-4.8,3-8.2,3.9
			C647.5,208.3,643.7,208.8,639.3,208.8z"/>
		<path d="M698.6,208.1c-6.8,0-11.9-1.6-14.8-4.6s-4.6-7.8-4.6-14.5v-31.7h-8.7v-10.8h8.7v-13.8h12.5v13.8h15.5v10.8h-15.5v29.9
			c0,3.7,0.7,6.2,2.1,7.6c1.4,1.4,3.9,2.1,7.8,2.1c2.3,0,4.6,0,6.8-0.5v10.8c-1.4,0.2-3,0.2-4.6,0.5
			C702.5,207.9,700.7,208.1,698.6,208.1z"/>
		<path d="M743.8,208.8c-4.1,0-8-0.7-11.6-2.1c-3.7-1.4-6.8-3.2-9.4-6c-2.7-2.5-4.8-5.7-6.4-9.6c-1.6-3.9-2.3-8.3-2.3-13.6v-2.3
			c0-4.8,0.7-9.2,2.3-12.9s3.7-6.9,6.4-9.4c2.7-2.5,5.7-4.6,9.4-5.7c3.7-1.4,7.5-1.8,11.6-1.8c4.1,0,8,0.7,11.6,1.8
			c3.7,1.4,6.8,3.2,9.4,5.7c2.7,2.5,4.8,5.7,6.4,9.4c1.6,3.7,2.3,8,2.3,12.9v2.3c0,5.1-0.7,9.6-2.3,13.6c-1.6,3.9-3.7,7.1-6.4,9.6
			c-2.7,2.5-5.7,4.6-9.4,6C751.8,208.1,747.9,208.8,743.8,208.8z M743.8,197.8c2.3,0,4.3-0.5,6.4-1.1s3.9-1.8,5.5-3.4
			c1.6-1.6,2.7-3.7,3.7-6.2c0.9-2.5,1.4-5.5,1.4-9.2v-2.3c0-3.2-0.5-6.2-1.4-8.5c-0.9-2.3-2.3-4.4-3.7-5.7c-1.6-1.6-3.4-2.8-5.5-3.4
			s-4.1-1.1-6.4-1.1c-2.3,0-4.3,0.5-6.4,1.1s-3.9,1.8-5.5,3.4c-1.6,1.6-2.7,3.4-3.7,5.7c-0.9,2.3-1.4,5.3-1.4,8.5v2.3
			c0,3.7,0.5,6.7,1.4,9.2c0.9,2.5,2.3,4.6,3.7,6.2c1.6,1.6,3.4,2.8,5.5,3.4S741.5,197.8,743.8,197.8z"/>
		<path d="M783.1,146.5h11.6v10.3c0.7-1.6,1.6-3,2.7-4.4c1.1-1.4,2.5-2.8,3.9-3.7c1.4-0.9,3.2-1.8,4.8-2.5c1.8-0.7,3.7-0.9,5.5-0.9
			c5,0,8.9,1.1,11.9,3.2c2.7,2.1,4.8,4.8,5.7,8.3c1.8-3.4,4.1-6.2,7.3-8.3c3.2-2.1,6.8-3.2,11-3.2c6.4,0,11.2,1.8,14.6,5.5
			c3.4,3.7,5,9.6,5,17.5v39h-12.5v-36.1c0-5.5-0.9-9.2-3-11.5c-2.1-2.3-4.8-3.4-8.2-3.4c-4.1,0-7.1,1.4-9.1,4.1s-3,6.4-3,10.8v36.3
			h-12.5v-36.3c0-5.5-0.9-9.2-3-11.5c-2.1-2.3-4.8-3.4-8.2-3.4c-4.1,0-7.1,1.4-9.1,4.1s-3,6.4-3,10.8v36.3h-12.5v-61.1H783.1z"/>
		<path d="M906.3,208.8c-4.1,0-7.8-0.7-11.4-1.8s-6.6-3.2-9.4-5.7c-2.7-2.5-4.8-5.7-6.4-9.6s-2.3-8.5-2.3-13.8v-2.3
			c0-5.1,0.7-9.4,2.3-13.3c1.6-3.7,3.7-6.9,6.2-9.4c2.7-2.5,5.7-4.4,9.1-5.5c3.4-1.1,7.1-1.8,11-1.8c9.1,0,16.2,2.5,21.2,7.3
			c4.8,5.1,7.3,12.2,7.3,21.4v6.4h-44.3c0,3.2,0.7,5.7,1.6,8c0.9,2.1,2.3,3.9,3.7,5.3c1.6,1.4,3.4,2.3,5.5,3s4.1,0.9,6.2,0.9
			c4.3,0,7.5-0.7,9.6-2.1c2.1-1.4,3.4-3.2,4.1-5.3h12.5c-1.1,6-4.1,10.6-8.9,13.8C918.8,207.2,913.1,208.8,906.3,208.8z
			 M905.8,156.4c-2.1,0-4.1,0.2-6.2,0.9c-2.1,0.5-3.7,1.4-5,2.5c-1.6,1.1-2.7,2.8-3.7,4.6c-0.9,1.8-1.4,4.1-1.6,6.9h31.7
			c0-2.8-0.5-5.3-1.4-7.1c-0.7-1.8-1.8-3.4-3.2-4.6c-1.4-1.1-3-2.1-4.8-2.5C909.9,156.6,907.9,156.4,905.8,156.4z"/>
		<path d="M943.5,146.5h11.6v10.3c1.1-3.2,3.2-5.7,5.9-8c2.7-2.3,6.2-3.4,10.3-3.4c1.8,0,3.4,0,4.3,0.2c0.9,0.2,1.6,0.2,2.1,0.5
			v11.5c-1.4-0.5-2.5-0.7-3.4-0.9c-1.1-0.2-2.3-0.2-3.9-0.2c-2.5,0-4.6,0.5-6.4,1.4c-1.8,0.9-3.2,2.1-4.3,3.4s-2.1,3-2.5,4.8
			s-0.9,3.9-0.9,5.7v35.6h-12.5v-60.9H943.5z"/>
		<path d="M1007.8,208.8c-4.6,0-8.2-0.5-11.4-1.4c-3.2-0.9-5.7-2.3-7.8-4.1c-2.1-1.6-3.7-3.7-4.8-6c-1.1-2.3-1.8-4.6-2.1-7.1h12.5
			c0.5,2.1,1.8,3.9,3.9,5.3c2.1,1.4,5.2,2.1,9.8,2.1c5,0,8.7-0.7,10.7-2.1c2.1-1.4,3-3.2,3-5.3c0-0.9-0.2-1.8-0.7-2.8
			c-0.5-0.9-1.4-1.6-2.5-2.5c-1.1-0.7-2.7-1.4-4.8-2.1c-2.1-0.7-4.6-1.1-7.3-1.4c-3.4-0.5-6.6-1.1-9.4-2.1c-2.7-0.9-5.2-2.1-7.1-3.4
			c-2.1-1.4-3.4-3.2-4.6-5.3c-1.1-2.1-1.6-4.6-1.6-7.3c0-2.5,0.5-4.8,1.6-6.9c0.9-2.3,2.5-4.1,4.6-5.7s4.6-3,7.8-3.9
			c3-0.9,6.6-1.4,10.7-1.4c3.9,0,7.3,0.5,10.3,1.4c3,0.9,5.2,2.3,7.3,4.1c2.1,1.6,3.4,3.7,4.6,6c1.1,2.3,1.6,4.6,2.1,7.1h-12.5
			c-0.7-2.3-1.8-4.1-3.7-5.5c-1.8-1.4-4.3-2.1-7.8-2.1c-4.6,0-7.5,0.7-9.4,2.1c-1.8,1.4-2.7,3-2.7,4.8c0,1.1,0.2,2.1,0.7,2.8
			c0.5,0.9,1.1,1.6,2.3,2.3c1.1,0.7,2.5,1.1,4.3,1.8c1.8,0.5,4.3,0.9,7.1,1.1c3.4,0.5,6.6,1.1,9.6,2.1c3,0.9,5.5,2.1,7.5,3.7
			c2.1,1.6,3.7,3.4,4.8,5.5c1.1,2.1,1.8,4.8,1.8,7.6c0,2.5-0.5,5.1-1.6,7.3c-1.1,2.3-2.7,4.1-5,5.7c-2.3,1.6-5,3-8.2,3.9
			C1016,208.3,1012.1,208.8,1007.8,208.8z"/>
		<path d="M1091.1,208.8c-4.6,0-8.2-0.5-11.4-1.4c-3.2-0.9-5.7-2.3-7.8-4.1c-2.1-1.6-3.7-3.7-4.8-6c-1.1-2.3-1.8-4.6-2.1-7.1h12.5
			c0.5,2.1,1.8,3.9,3.9,5.3c2.1,1.4,5.2,2.1,9.8,2.1c5,0,8.7-0.7,10.7-2.1c2.1-1.4,3-3.2,3-5.3c0-0.9-0.2-1.8-0.7-2.8
			c-0.5-0.9-1.4-1.6-2.5-2.5c-1.1-0.7-2.7-1.4-4.8-2.1c-2.1-0.7-4.6-1.1-7.3-1.4c-3.4-0.5-6.6-1.1-9.4-2.1c-2.7-0.9-5.2-2.1-7.1-3.4
			c-2.1-1.4-3.4-3.2-4.6-5.3c-1.1-2.1-1.6-4.6-1.6-7.3c0-2.5,0.5-4.8,1.6-6.9c0.9-2.3,2.5-4.1,4.6-5.7s4.6-3,7.8-3.9
			c3-0.9,6.6-1.4,10.7-1.4c3.9,0,7.3,0.5,10.3,1.4s5.2,2.3,7.3,4.1c2.1,1.6,3.4,3.7,4.6,6c1.1,2.3,1.6,4.6,2.1,7.1h-12.5
			c-0.7-2.3-1.8-4.1-3.7-5.5s-4.3-2.1-7.8-2.1c-4.6,0-7.5,0.7-9.4,2.1s-2.7,3-2.7,4.8c0,1.1,0.2,2.1,0.7,2.8
			c0.5,0.9,1.1,1.6,2.3,2.3c1.1,0.7,2.5,1.1,4.3,1.8c1.8,0.5,4.3,0.9,7.1,1.1c3.4,0.5,6.6,1.1,9.6,2.1c3,0.9,5.5,2.1,7.5,3.7
			c2.1,1.6,3.7,3.4,4.8,5.5c1.1,2.1,1.8,4.8,1.8,7.6c0,2.5-0.5,5.1-1.6,7.3c-1.1,2.3-2.7,4.1-5,5.7c-2.3,1.6-5,3-8.2,3.9
			C1099.3,208.3,1095.4,208.8,1091.1,208.8z"/>
		<path d="M1127.1,146.5h11.6v10.3c1.8-3.4,4.6-6.4,8.2-8.5c3.7-2.1,7.8-3,12.3-3c8,0,14.1,2.5,18.7,7.3c4.6,5.1,6.8,12.4,6.8,22.5
			v2.3c0,5.3-0.7,9.6-1.8,13.8c-1.1,3.9-3,7.1-5.2,9.6c-2.3,2.5-5,4.6-8,5.7c-3.2,1.4-6.6,1.8-10.5,1.8c-4.3,0-8.2-0.9-11.9-2.8
			c-3.7-1.8-6.2-4.6-7.5-8v32.6h-12.5v-83.8H1127.1z M1156.1,197.8c4.8,0,8.4-1.6,11.4-5.1c3-3.2,4.3-8.3,4.3-15.2v-2.3
			c0-6.4-1.4-11.3-4.3-14.2c-3-3-6.6-4.6-11.4-4.6c-2.1,0-4.1,0.2-6.2,1.1c-2.1,0.7-3.7,1.6-5.2,3c-1.6,1.4-2.7,3-3.7,5.1
			c-0.9,2.1-1.4,4.4-1.4,6.9v8c0,3,0.5,5.5,1.4,7.6c0.9,2.1,2.1,3.9,3.7,5.5c1.6,1.4,3.2,2.5,5.2,3.2
			C1151.8,197.3,1153.8,197.8,1156.1,197.8z"/>
		<path d="M1220.7,208.8c-4.1,0-7.8-0.7-11.4-1.8c-3.7-1.1-6.6-3.2-9.4-5.7c-2.7-2.5-4.8-5.7-6.4-9.6c-1.6-3.9-2.3-8.5-2.3-13.8
			v-2.3c0-5.1,0.7-9.4,2.3-13.3c1.6-3.7,3.7-6.9,6.2-9.4c2.7-2.5,5.7-4.4,9.1-5.5c3.4-1.1,7.1-1.8,11-1.8c9.1,0,16.2,2.5,21.2,7.3
			c4.8,5.1,7.3,12.2,7.3,21.4v6.4H1204c0,3.2,0.7,5.7,1.6,8c0.9,2.1,2.3,3.9,3.7,5.3c1.6,1.4,3.4,2.3,5.5,3c2.1,0.7,4.1,0.9,6.2,0.9
			c4.3,0,7.5-0.7,9.6-2.1c2.1-1.4,3.4-3.2,4.1-5.3h12.5c-1.1,6-4.1,10.6-8.9,13.8C1233.2,207.2,1227.3,208.8,1220.7,208.8z
			 M1220,156.4c-2.1,0-4.1,0.2-6.2,0.9c-2.1,0.5-3.7,1.4-5,2.5c-1.6,1.1-2.7,2.8-3.7,4.6c-0.9,1.8-1.4,4.1-1.6,6.9h31.7
			c0-2.8-0.5-5.3-1.4-7.1c-0.7-1.8-1.8-3.4-3.2-4.6c-1.4-1.1-3-2.1-4.8-2.5C1224.1,156.6,1222,156.4,1220,156.4z"/>
		<path d="M1257.6,146.5h11.6v10.3c1.4-3,3.9-5.7,7.1-8c3.2-2.3,7.5-3.4,12.5-3.4c7.3,0,13,2.1,16.7,6c3.7,4.1,5.7,9.9,5.7,17.7
			v38.6h-12.5v-35.8c0-5.1-1.1-9-3.2-11.5c-2.1-2.5-5.7-3.9-10.5-3.9c-2.7,0-5,0.5-6.8,1.4c-1.8,0.9-3.4,2.1-4.6,3.4
			c-1.1,1.4-2.1,3-2.7,4.8c-0.5,1.8-0.9,3.9-0.9,5.7v35.6h-12.5v-60.9H1257.6z"/>
		<path d="M1345.9,208.8c-3.9,0-7.3-0.7-10.5-1.8s-5.7-3.2-8-5.7c-2.3-2.5-3.9-5.7-5.2-9.6c-1.4-3.9-1.8-8.5-1.8-13.8v-2.3
			c0-4.8,0.7-9.2,1.8-12.9c1.1-3.7,3-6.9,5.2-9.4c2.3-2.5,5-4.4,8-5.7c3.2-1.4,6.6-1.8,10.5-1.8c4.6,0,8.4,0.9,11.9,3
			c3.4,2.1,5.9,4.8,7.8,8V127h12.5v80.4h-11.6v-10.3c-0.7,1.6-1.6,3-3,4.4c-1.4,1.4-2.7,2.5-4.6,3.7c-1.8,1.1-3.9,1.8-5.9,2.5
			C1350.7,208.3,1348.4,208.8,1345.9,208.8z M1348.9,197.8c2.3,0,4.3-0.5,6.4-1.1c2.1-0.7,3.9-1.8,5.2-3.2c1.4-1.4,2.7-3.2,3.7-5.5
			c0.9-2.1,1.4-4.6,1.4-7.6v-8c0-2.5-0.5-4.8-1.4-6.9c-0.9-2.1-2.1-3.7-3.7-5.1c-1.6-1.4-3.4-2.3-5.5-3c-2.1-0.7-4.1-1.1-6.2-1.1
			c-4.8,0-8.7,1.6-11.4,4.6c-2.7,3.2-4.3,7.8-4.3,14.2v2.3c0,6.7,1.4,11.7,4.3,15.2C1340.5,195.9,1344.1,197.8,1348.9,197.8z"/>
		<path d="M1440.9,208.8c-4.6,0-8.7-0.7-12.3-1.8c-3.4-1.1-6.4-2.8-8.9-5.1c-2.3-2.1-4.1-4.6-5.5-7.6c-1.4-3-1.8-6.2-1.8-9.9h13.7
			c0,3.9,1.1,6.9,3.7,9c2.3,2.1,6.2,3.2,11.2,3.2s8.7-1.1,11.2-3.2c2.5-2.1,3.7-5.1,3.7-9c0-3.9-1.1-6.9-3.4-9.2
			c-2.3-2.3-6.2-3.4-11.4-3.4h-8v-11.5h8c4.6,0,8-0.9,10.3-3c2.3-2.1,3.4-4.8,3.4-8.5s-1.1-6.4-3.2-8.3c-2.3-1.8-5.7-2.8-10.5-2.8
			s-8.2,0.9-10.5,2.8c-2.3,1.8-3.4,4.6-3.4,8h-13.7c0-6.9,2.3-12.6,7.1-16.8c4.6-4.1,11.4-6.4,20.5-6.4c4.6,0,8.4,0.5,11.9,1.8
			c3.4,1.4,6.4,2.8,8.7,4.6c2.3,1.8,4.1,4.1,5.2,6.9c1.1,2.5,1.8,5.3,1.8,8.3c0,4.6-1.1,8.5-3.7,11.5c-2.5,3.2-5.7,5.3-10,6.7
			c4.6,1.4,8.2,3.7,11,6.9c2.5,3.2,3.9,7.6,3.9,13.1c0,3.2-0.7,6.2-1.8,9.2c-1.1,2.8-3,5.3-5.5,7.3c-2.3,2.1-5.5,3.7-8.9,4.8
			C1449.5,208.1,1445.4,208.8,1440.9,208.8z"/>
		<path d="M1478.5,195.5h18.7v-53.7l-18.7,13.6V141l19.4-13.8h13.2v68.4h15.5v11.9h-47.9v-12.2H1478.5z"/>
		<path d="M1548.1,165.1c-2.7,0-5.5-0.5-7.8-1.4c-2.3-0.9-4.3-2.3-5.9-3.9c-1.6-1.6-3-3.7-3.9-6c-0.9-2.3-1.4-4.8-1.4-7.8v-1.1
			c0-2.8,0.5-5.5,1.4-7.8c0.9-2.3,2.3-4.4,3.9-6c1.6-1.6,3.7-3,5.9-3.9c2.3-0.9,4.8-1.4,7.8-1.4c2.7,0,5.2,0.5,7.5,1.4
			c2.3,0.9,4.3,2.3,5.9,3.9c1.6,1.6,3,3.7,3.9,6c0.9,2.3,1.4,4.8,1.4,7.8v1.1c0,2.8-0.5,5.5-1.4,7.8c-0.9,2.3-2.3,4.4-3.9,6
			c-1.6,1.6-3.7,3-5.9,3.9C1553.3,164.7,1550.8,165.1,1548.1,165.1z M1594.9,127h13.7l-54.8,80.4h-13.7L1594.9,127z M1548.1,154.8
			c2.1,0,3.7-0.7,5-2.1c1.1-1.4,1.8-3.7,1.8-6.7v-1.1c0-3-0.7-5.3-1.8-6.7c-1.1-1.4-2.7-2.1-5-2.1c-2.3,0-3.7,0.7-5,2.1
			c-1.4,1.4-1.8,3.7-1.8,6.7v1.1c0,3,0.7,5.3,1.8,6.7C1544.2,154.1,1546,154.8,1548.1,154.8z M1600.6,208.5c-2.7,0-5.5-0.5-7.8-1.4
			c-2.3-0.9-4.3-2.3-5.9-3.9c-1.6-1.6-3-3.7-3.9-6c-0.9-2.3-1.4-4.8-1.4-7.8v-1.1c0-2.8,0.5-5.5,1.4-7.8c0.9-2.3,2.3-4.4,3.9-6
			c1.6-1.6,3.7-3,5.9-3.9c2.3-0.9,4.8-1.4,7.8-1.4c2.7,0,5.2,0.5,7.5,1.4c2.3,0.9,4.3,2.3,5.9,3.9c1.6,1.6,3,3.7,3.9,6
			s1.4,4.8,1.4,7.8v1.1c0,2.8-0.5,5.5-1.4,7.8c-0.9,2.3-2.3,4.4-3.9,6c-1.6,1.6-3.7,3-5.9,3.9
			C1605.8,208.1,1603.3,208.5,1600.6,208.5z M1600.6,198.2c2.1,0,3.7-0.7,5-2.1c1.1-1.4,1.8-3.7,1.8-6.7v-1.1c0-3-0.7-5.3-1.8-6.7
			c-1.1-1.4-2.7-2.1-5-2.1s-3.7,0.7-5,2.1c-1.1,1.4-1.8,3.7-1.8,6.7v1.1c0,3,0.7,5.3,1.8,6.7
			C1596.7,197.5,1598.5,198.2,1600.6,198.2z"/>
		<path d="M1651.9,146.5h11.6v10.3c0.7-1.6,1.6-3,2.7-4.4c1.1-1.4,2.5-2.8,3.9-3.7c1.4-1.1,3.2-1.8,4.8-2.5c1.8-0.7,3.7-0.9,5.5-0.9
			c5,0,8.9,1.1,11.9,3.2c2.7,2.1,4.8,4.8,5.7,8.3c1.8-3.4,4.1-6.2,7.3-8.3c3.2-2.1,6.8-3.2,11-3.2c6.4,0,11.2,1.8,14.6,5.5
			s5,9.6,5,17.5v39h-12.5v-36.1c0-5.5-0.9-9.2-3-11.5c-2.1-2.3-4.8-3.4-8.2-3.4c-4.1,0-7.1,1.4-9.1,4.1c-2.1,2.8-3,6.4-3,10.8v36.3
			h-12.5v-36.3c0-5.5-0.9-9.2-3-11.5c-2.1-2.3-4.8-3.4-8.2-3.4c-4.1,0-7.1,1.4-9.1,4.1c-2.1,2.8-3,6.4-3,10.8v36.3h-12.5v-61.1
			H1651.9z"/>
		<path d="M1775.1,208.8c-4.1,0-8-0.7-11.6-2.1c-3.7-1.4-6.8-3.2-9.4-6c-2.7-2.5-4.8-5.7-6.4-9.6s-2.3-8.3-2.3-13.6v-2.3
			c0-4.8,0.7-9.2,2.3-12.9s3.7-6.9,6.4-9.4c2.7-2.5,5.7-4.6,9.4-5.7c3.7-1.4,7.5-1.8,11.6-1.8c4.1,0,8,0.7,11.6,1.8
			c3.7,1.4,6.8,3.2,9.4,5.7c2.7,2.5,4.8,5.7,6.4,9.4s2.3,8,2.3,12.9v2.3c0,5.1-0.7,9.6-2.3,13.6c-1.6,3.9-3.7,7.1-6.4,9.6
			c-2.7,2.5-5.7,4.6-9.4,6C1783.1,208.1,1779.2,208.8,1775.1,208.8z M1775.1,197.8c2.3,0,4.3-0.5,6.4-1.1s3.9-1.8,5.2-3.4
			c1.6-1.6,2.7-3.7,3.9-6.2c0.9-2.5,1.4-5.5,1.4-9.2v-2.3c0-3.2-0.5-6.2-1.4-8.5c-0.9-2.3-2.3-4.4-3.9-5.7c-1.6-1.6-3.4-2.8-5.2-3.4
			c-2.1-0.7-4.1-1.1-6.4-1.1c-2.3,0-4.3,0.5-6.4,1.1s-3.9,1.8-5.2,3.4c-1.6,1.6-2.7,3.4-3.9,5.7c-0.9,2.3-1.4,5.3-1.4,8.5v2.3
			c0,3.7,0.5,6.7,1.4,9.2c0.9,2.5,2.3,4.6,3.9,6.2c1.6,1.6,3.4,2.8,5.2,3.4C1770.8,197.3,1772.8,197.8,1775.1,197.8z"/>
		<path d="M1814.4,146.5h11.6v10.3c1.1-3.2,3.2-5.7,5.9-8c2.7-2.3,6.2-3.4,10.3-3.4c1.8,0,3.4,0,4.3,0.2s1.6,0.2,2.1,0.5v11.5
			c-1.4-0.5-2.5-0.7-3.4-0.9c-1.1-0.2-2.3-0.2-3.9-0.2c-2.5,0-4.6,0.5-6.4,1.4s-3.2,2.1-4.3,3.4c-1.1,1.4-2.1,3-2.5,4.8
			s-0.9,3.9-0.9,5.7v35.6h-12.5v-60.9H1814.4z"/>
		<path d="M1881.2,208.8c-4.1,0-7.8-0.7-11.4-1.8c-3.7-1.1-6.6-3.2-9.4-5.7c-2.7-2.5-4.8-5.7-6.4-9.6c-1.6-3.9-2.3-8.5-2.3-13.8
			v-2.3c0-5.1,0.7-9.4,2.3-13.3c1.6-3.7,3.7-6.9,6.2-9.4c2.7-2.5,5.7-4.4,9.1-5.5c3.4-1.1,7.1-1.8,11-1.8c9.1,0,16.2,2.5,21.2,7.3
			c4.8,5.1,7.3,12.2,7.3,21.4v6.4h-44.3c0,3.2,0.7,5.7,1.6,8c0.9,2.1,2.3,3.9,3.7,5.3c1.6,1.4,3.4,2.3,5.5,3
			c2.1,0.7,4.1,0.9,6.2,0.9c4.3,0,7.5-0.7,9.6-2.1c2.1-1.4,3.4-3.2,4.1-5.3h12.5c-1.1,6-4.1,10.6-8.9,13.8
			C1893.8,207.2,1887.8,208.8,1881.2,208.8z M1880.5,156.4c-2.1,0-4.1,0.2-6.2,0.9c-2.1,0.5-3.7,1.4-5,2.5c-1.6,1.1-2.7,2.8-3.7,4.6
			c-0.9,1.8-1.4,4.1-1.6,6.9h31.7c0-2.8-0.5-5.3-1.4-7.1c-0.7-1.8-1.8-3.4-3.2-4.6c-1.4-1.1-3-2.1-4.8-2.5
			C1884.6,156.6,1882.6,156.4,1880.5,156.4z"/>
	</g>
</g>
</svg>
