<svg width="28" height="28" viewBox="0 0 28 28" fill="none" xmlns="http://www.w3.org/2000/svg">
<path d="M0.998722 16.666L3.20013 11.6121L10.9117 18.1233L8.34266 21.3789" stroke="black" stroke-miterlimit="10"/>
<path d="M5.33928 18.8099C5.33928 18.8792 5.37577 18.9809 5.51203 19.0826C5.64835 19.1844 5.85987 19.2622 6.11495 19.2622C6.37004 19.2622 6.58156 19.1844 6.71788 19.0826C6.85414 18.9809 6.89062 18.8792 6.89062 18.8099C6.89062 18.7406 6.85413 18.6389 6.71788 18.5371C6.58155 18.4354 6.37003 18.3575 6.11495 18.3575C5.85987 18.3575 5.64835 18.4354 5.51203 18.5371C5.37577 18.6389 5.33928 18.7406 5.33928 18.8099Z" fill="#C18900" stroke="black"/>
<path d="M5.01634 13.0428C5.01634 13.0428 7.43037 9.95104 9.14455 9.03858C10.8587 8.12612 15.3147 6 15.3147 6C15.3147 6 17.0643 8.16598 13.7423 10.1282C13.4366 10.3098 12.1432 10.8989 12.0015 10.8989C14.8009 10.8414 17.7154 12.5865 17.7154 12.5865C17.7154 12.5865 24.5722 9.84474 25.4846 13.7293C18.1717 15.4435 16.3423 15.7846 16.3423 15.7846C16.3423 15.7846 11.5408 14.8721 9.60076 17.0425" stroke="black" stroke-miterlimit="10"/>
<path d="M21.0244 11.7228L23.7662 8.12163C23.7662 8.12163 22.0476 6.62449 20.5638 7.99761L19.0799 9.37073L14.9694 11.6652" stroke="black" stroke-miterlimit="10"/>
</svg>
