<?xml version="1.0" encoding="UTF-8"?>
<svg width="244px" height="57px" viewBox="0 0 244 57" version="1.1" xmlns="http://www.w3.org/2000/svg" xmlns:xlink="http://www.w3.org/1999/xlink">
    <title>cc_logo_grad 2 copy</title>
    <defs>
        <linearGradient x1="-11.0231321%" y1="50.6265884%" x2="108.871461%" y2="48.767443%" id="linearGradient-1">
            <stop stop-color="#A05617" offset="0%"></stop>
            <stop stop-color="#F9B43F" offset="24.7049825%"></stop>
            <stop stop-color="#FFD25B" offset="52.389739%"></stop>
            <stop stop-color="#D8902C" offset="77.6032561%"></stop>
            <stop stop-color="#9E5415" offset="100%"></stop>
        </linearGradient>
        <linearGradient x1="-2.76171875%" y1="50.1940453%" x2="88.4179688%" y2="49.877366%" id="linearGradient-2">
            <stop stop-color="#A05617" offset="0%"></stop>
            <stop stop-color="#F9B43F" offset="24.7049825%"></stop>
            <stop stop-color="#FFD25B" offset="52.389739%"></stop>
            <stop stop-color="#D8902C" offset="77.6032561%"></stop>
            <stop stop-color="#9E5415" offset="100%"></stop>
        </linearGradient>
        <linearGradient x1="-2.76171875%" y1="50.0018398%" x2="88.4179688%" y2="49.9988373%" id="linearGradient-3">
            <stop stop-color="#A05617" offset="0%"></stop>
            <stop stop-color="#F9B43F" offset="24.7049825%"></stop>
            <stop stop-color="#FFD25B" offset="52.389739%"></stop>
            <stop stop-color="#D8902C" offset="77.6032561%"></stop>
            <stop stop-color="#9E5415" offset="100%"></stop>
        </linearGradient>
        <linearGradient x1="-2.76171875%" y1="51.7392402%" x2="88.4179688%" y2="48.9008233%" id="linearGradient-4">
            <stop stop-color="#A05617" offset="0%"></stop>
            <stop stop-color="#F9B43F" offset="24.7049825%"></stop>
            <stop stop-color="#FFD25B" offset="52.389739%"></stop>
            <stop stop-color="#D8902C" offset="77.6032561%"></stop>
            <stop stop-color="#9E5415" offset="100%"></stop>
        </linearGradient>
    </defs>
    <g id="cc_logo_grad-2-copy" stroke="none" stroke-width="1" fill="none" fill-rule="evenodd">
        <g id="Group-23" transform="translate(26.273000, 44.305000)" fill-rule="nonzero">
            <g id="Group" transform="translate(71.639900, 5.766000)" fill="url(#linearGradient-1)">
                <path d="M17.8588,2.7743 C17.8588,3.7683 17.8778,4.5443 17.9538,5.3963 L17.9348,5.4063 C17.6318,4.7533 17.2618,4.0803 16.7888,3.3323 L14.7448,0.1043 L13.8448,0.1043 L13.8448,6.4853 L14.6218,6.4853 L14.6218,3.7593 C14.6218,2.6983 14.6028,1.9313 14.5548,1.1263 L14.5828,1.1183 C14.9058,1.8083 15.3308,2.5373 15.7758,3.2473 L17.8018,6.4853 L18.6348,6.4853 L18.6348,0.1043 L17.8588,0.1043 L17.8588,2.7743 Z M8.4318,5.917 C7.1348,5.917 6.3968,4.696 6.3968,3.332 C6.3968,1.931 7.0778,0.673 8.4408,0.673 C9.8138,0.673 10.4758,1.998 10.4758,3.267 C10.4758,4.714 9.7378,5.917 8.4318,5.917 M8.4798,0 C6.7758,0 5.5158,1.325 5.5158,3.352 C5.5158,5.283 6.6998,6.59 8.3838,6.59 C10.0118,6.59 11.3478,5.425 11.3478,3.229 C11.3478,1.336 10.2208,0 8.4798,0 M23.1578,5.8797 C22.8358,5.8797 22.5328,5.8697 22.3258,5.8317 L22.3258,0.7957 C22.5428,0.7477 22.8638,0.7107 23.2908,0.7107 C25.0318,0.7107 25.8848,1.6667 25.8758,3.1717 C25.8758,4.8947 24.9188,5.8797 23.1578,5.8797 M23.2518,0.0567 C22.5998,0.0567 22.0028,0.1137 21.5018,0.1897 L21.5018,6.4657 C21.9178,6.5137 22.4098,6.5427 22.9968,6.5427 C24.2368,6.5427 25.2218,6.2197 25.8188,5.6227 C26.4138,5.0367 26.7368,4.1847 26.7368,3.1427 C26.7368,2.1117 26.4048,1.3727 25.8368,0.8517 C25.2788,0.3317 24.4358,0.0567 23.2518,0.0567 M31.77,5.917 C30.473,5.917 29.734,4.696 29.734,3.332 C29.734,1.931 30.416,0.673 31.779,0.673 C33.152,0.673 33.814,1.998 33.814,3.267 C33.814,4.714 33.076,5.917 31.77,5.917 M31.818,0 C30.114,0 28.854,1.325 28.854,3.352 C28.854,5.283 30.037,6.59 31.722,6.59 C33.35,6.59 34.686,5.425 34.686,3.229 C34.686,1.336 33.559,0 31.818,0 M0.824,0.1045 L0,0.1045 L0,6.4855 L3.551,6.4855 L3.551,5.7945 L0.824,5.7945 L0.824,0.1045 Z M41.1967,2.7743 C41.1967,3.7683 41.2157,4.5443 41.2927,5.3963 L41.2727,5.4063 C40.9697,4.7533 40.5997,4.0803 40.1267,3.3323 L38.0827,0.1043 L37.1827,0.1043 L37.1827,6.4853 L37.9597,6.4853 L37.9597,3.7593 C37.9597,2.6983 37.9407,1.9313 37.8927,1.1263 L37.9217,1.1183 C38.2437,1.8083 38.6687,2.5373 39.1137,3.2473 L41.1397,6.4853 L41.9727,6.4853 L41.9727,0.1043 L41.1967,0.1043 L41.1967,2.7743 Z" id="Combined-Shape"></path>
            </g>
            <polygon id="Fill-16" fill="url(#linearGradient-2)" points="0 1.038 14.756 1.038 14.756 0 0 0"></polygon>
            <polygon id="Fill-18" fill="url(#linearGradient-3)" points="39.919 1.038 191.463 1.038 191.463 0 39.919 0"></polygon>
        </g>
        <g id="Caffé-Concerto" transform="translate(0.235840, 1.165039)" fill="url(#linearGradient-4)" fill-rule="nonzero">
            <path d="M82.4194336,5.84912109 C83.0639648,5.84912109 83.6077881,6.08276367 84.0509033,6.55004883 C84.4940186,7.01733398 84.7155762,7.57324219 84.7155762,8.21777344 C84.7155762,9.95800781 83.4949951,12.1333008 81.053833,14.7436523 C78.6126709,17.3540039 74.7817383,20.5605469 69.5610352,24.3632812 L63.7602539,36.1340332 L64.026123,36.1340332 C64.6867676,36.1340332 65.484375,35.8480225 66.4189453,35.276001 C67.3535156,34.7039795 68.3686523,33.8701172 69.4643555,32.7744141 C69.9638672,32.2587891 70.552002,31.6303711 71.2287598,30.8891602 C71.6210549,30.4478281 71.9178416,30.1408048 72.1191198,29.9680903 C72.1852789,29.875479 72.2681135,29.7663503 72.3647461,29.6444092 C72.703125,29.2174072 73.1784668,28.673584 73.7907715,28.0129395 C75.3054199,26.3532715 76.84021,25.0803223 78.3951416,24.1940918 C79.9500732,23.3078613 81.4284668,22.8647461 82.8303223,22.8647461 C83.6520996,22.8647461 84.3127441,23.0782471 84.8122559,23.505249 C85.3117676,23.932251 85.5615234,24.4841309 85.5615234,25.1608887 C85.5615234,26.5305176 84.6591797,27.8518066 82.8544922,29.1247559 C81.0498047,30.3977051 78.6328125,31.3806152 75.6035156,32.0734863 C75.5068359,32.6696777 75.4423828,33.1047363 75.4101562,33.3786621 C75.3779297,33.6525879 75.3618164,33.8781738 75.3618164,34.0554199 C75.3618164,34.7805176 75.5350342,35.3444824 75.8814697,35.7473145 C76.2279053,36.1501465 76.715332,36.3515625 77.34375,36.3515625 C78.1816406,36.3515625 79.0759277,36.0736084 80.0266113,35.5177002 C80.9772949,34.961792 82.1132812,34.03125 83.4345703,32.7260742 C83.9824219,32.1782227 84.5665283,31.553833 85.1868896,30.8529053 C85.807251,30.1519775 86.1818848,29.8015137 86.310791,29.8015137 C86.3913574,29.8015137 86.4598389,29.8256836 86.5162354,29.8740234 C86.5726318,29.9223633 86.6008301,29.9787598 86.6008301,30.0432129 C86.6008301,30.1882324 86.4477539,30.4460449 86.1416016,30.8166504 C85.8354492,31.1872559 85.1506348,31.9204102 84.0871582,33.0161133 C82.6369629,34.4663086 81.3640137,35.5056152 80.2683105,36.1340332 C79.1726074,36.7624512 78.1171875,37.0766602 77.1020508,37.0766602 C75.8774414,37.0766602 74.8703613,36.5731201 74.0808105,35.56604 C73.2912598,34.55896 72.8964844,33.2819824 72.8964844,31.7351074 C72.8964844,31.4128418 72.9206543,31.0784912 72.9689941,30.7320557 C73.017334,30.3856201 73.0898438,30.0270996 73.1865234,29.6564941 C72.9125977,30.0109863 72.69104,30.2647705 72.5218506,30.4178467 L72.5057933,30.4314062 C72.3450722,30.6791785 72.0724705,31.0210942 71.6879883,31.4571533 C71.0273438,32.2064209 70.1572266,33.088623 69.0776367,34.1037598 C67.9335938,35.1833496 66.8781738,35.9890137 65.911377,36.520752 C64.9445801,37.0524902 64.0825195,37.3183594 63.3251953,37.3183594 L63.1318359,37.3183594 L56.291748,50.9985352 L52.7871094,51.3852539 L60.642334,36.8349609 C60.3845215,36.609375 60.1911621,36.3797607 60.0622559,36.1461182 C59.9333496,35.9124756 59.8688965,35.6828613 59.8688965,35.4572754 C59.8688965,34.9899902 60.013916,34.5992432 60.3039551,34.2850342 C60.5939941,33.9708252 60.956543,33.8137207 61.3916016,33.8137207 C61.5043945,33.8137207 61.6212158,33.8338623 61.7420654,33.8741455 C61.862915,33.9144287 62.0119629,33.9748535 62.189209,34.0554199 L67.2407227,24.6049805 C65.8710938,25.8295898 64.553833,27.1508789 63.2889404,28.5688477 C62.5936981,29.3482276 62.0651841,29.9134163 61.7033987,30.2644137 C61.5743332,30.51334 61.2684181,30.9115557 60.7873535,31.4571533 C60.126709,32.2064209 59.2565918,33.088623 58.177002,34.1037598 C57.032959,35.1833496 55.9775391,35.9890137 55.0107422,36.520752 C54.0439453,37.0524902 53.1818848,37.3183594 52.4245605,37.3183594 L52.2312012,37.3183594 L45.3911133,50.9985352 L41.8864746,51.3852539 L49.7416992,36.8349609 C49.4838867,36.609375 49.2905273,36.3797607 49.1616211,36.1461182 C49.0327148,35.9124756 48.9682617,35.6828613 48.9682617,35.4572754 C48.9682617,34.9899902 49.1132812,34.5992432 49.4033203,34.2850342 C49.6933594,33.9708252 50.0559082,33.8137207 50.4909668,33.8137207 C50.6037598,33.8137207 50.7205811,33.8338623 50.8414307,33.8741455 C50.9622803,33.9144287 51.1113281,33.9748535 51.2885742,34.0554199 L56.3400879,24.6049805 C54.970459,25.8295898 53.6531982,27.1508789 52.3883057,28.5688477 C51.6080463,29.4435334 51.0377849,30.0484405 50.6775217,30.3835691 C50.5867634,30.535605 50.451485,30.7207465 50.2734375,30.9375 C49.902832,31.3886719 49.3308105,32.0009766 48.557373,32.7744141 C46.8171387,34.5629883 45.5321045,35.7271729 44.7022705,36.2669678 C43.8724365,36.8067627 43.0949707,37.0766602 42.369873,37.0766602 C41.7092285,37.0766602 41.2056885,36.8671875 40.8592529,36.4482422 C40.5128174,36.0292969 40.3395996,35.4169922 40.3395996,34.6113281 C40.3395996,34.4018555 40.3557129,34.1641846 40.3879395,33.8983154 C40.420166,33.6324463 40.4846191,33.2416992 40.5812988,32.7260742 C39.4533691,34.1601562 38.3616943,35.2437744 37.3062744,35.9769287 C36.2508545,36.710083 35.263916,37.0766602 34.345459,37.0766602 C33.4592285,37.0766602 32.7623291,36.6295166 32.2547607,35.7352295 C31.7471924,34.8409424 31.4934082,33.604248 31.4934082,32.0251465 C31.4934082,31.6384277 31.5216064,31.251709 31.5780029,30.8649902 C31.6343994,30.4782715 31.7109375,30.0996094 31.8076172,29.7290039 C31.6142578,30.0351562 31.4289551,30.2728271 31.251709,30.4420166 C31.0744629,30.6112061 30.9213867,30.6958008 30.7924805,30.6958008 C30.6796875,30.6958008 30.6031494,30.6796875 30.5628662,30.6474609 C30.522583,30.6152344 30.5024414,30.5668945 30.5024414,30.5024414 C30.5024414,30.3735352 30.7119141,30.0593262 31.1308594,29.5598145 C31.5498047,29.0603027 32.1137695,28.447998 32.8227539,27.7229004 C34.3696289,26.1760254 35.9205322,24.9796143 37.4754639,24.133667 C39.0303955,23.2877197 40.4523926,22.8647461 41.7414551,22.8647461 C42.5310059,22.8647461 43.1634521,23.0742188 43.6387939,23.4931641 C44.1141357,23.9121094 44.3518066,24.4680176 44.3518066,25.1608887 C44.3518066,25.3220215 44.3356934,25.4912109 44.3034668,25.668457 C44.2712402,25.8457031 44.2229004,26.0390625 44.1584473,26.2485352 L46.1887207,23.2756348 L49.4516602,23.0822754 L44.0134277,31.6384277 C43.2077637,32.8952637 42.7001953,33.7653809 42.4907227,34.2487793 C42.28125,34.7321777 42.1765137,35.151123 42.1765137,35.5056152 C42.1765137,35.779541 42.2329102,35.9769287 42.3457031,36.0977783 C42.4584961,36.2186279 42.6518555,36.2790527 42.9257812,36.2790527 C43.3447266,36.2790527 44.0013428,35.9285889 44.8956299,35.2276611 C45.789917,34.5267334 46.9138184,33.4753418 48.267334,32.0734863 C48.6540527,31.6867676 49.1011963,31.2114258 49.6087646,30.6474609 C49.9553062,30.2624148 50.2098364,30.0088134 50.3723551,29.886657 C50.7151115,29.3954511 51.3434597,28.6454167 52.2553711,27.6383057 C53.7216797,26.0189209 55.574707,24.1538086 57.8144531,22.0429688 C60.730957,16.4516602 63.2929688,12.3548584 65.5004883,9.75256348 C67.7080078,7.15026855 69.7141113,5.84912109 71.5187988,5.84912109 C72.1633301,5.84912109 72.7071533,6.08276367 73.1502686,6.55004883 C73.5933838,7.01733398 73.8149414,7.57324219 73.8149414,8.21777344 C73.8149414,9.95800781 72.5943604,12.1333008 70.1531982,14.7436523 C67.7120361,17.3540039 63.8811035,20.5605469 58.6604004,24.3632812 L52.8596191,36.1340332 L53.1254883,36.1340332 C53.7861328,36.1340332 54.5837402,35.8480225 55.5183105,35.276001 C56.4528809,34.7039795 57.4680176,33.8701172 58.5637207,32.7744141 C59.0632324,32.2587891 59.6513672,31.6303711 60.328125,30.8891602 C60.7165296,30.4522049 61.0113108,30.1469077 61.2124685,29.9732686 C61.5406768,29.4853571 62.1888661,28.7064105 63.1560059,27.6383057 C64.6223145,26.0189209 66.4753418,24.1538086 68.7150879,22.0429688 C71.6315918,16.4516602 74.1936035,12.3548584 76.401123,9.75256348 C78.6086426,7.15026855 80.6147461,5.84912109 82.4194336,5.84912109 Z M11.8916016,0 C14.2280273,0 16.3751221,0.447143555 18.3328857,1.34143066 C20.2906494,2.23571777 22.1960449,3.64160156 24.0490723,5.55908203 C26.4177246,4.25390625 28.6776123,3.24279785 30.8287354,2.52575684 C32.9798584,1.80871582 34.7805176,1.45019531 36.2307129,1.45019531 C37.4553223,1.45019531 38.4060059,1.74023438 39.0827637,2.3203125 C39.7595215,2.90039062 40.0979004,3.71411133 40.0979004,4.76147461 C40.0979004,6.58227539 38.9941406,8.51989746 36.7866211,10.5743408 C34.5791016,12.6287842 31.5095215,14.550293 27.5778809,16.3388672 C25.1447754,17.4506836 22.7358398,18.3208008 20.3510742,18.9492188 C17.9663086,19.5776367 15.557373,19.9804688 13.1242676,20.1577148 C12.3508301,21.8979492 11.7506104,23.6502686 11.3236084,25.4146729 C10.8966064,27.1790771 10.6831055,28.8105469 10.6831055,30.309082 C10.6831055,32.2426758 11.0859375,33.717041 11.8916016,34.7321777 C12.6972656,35.7473145 13.9138184,36.3112793 15.5412598,36.4240723 C15.4929199,35.9245605 15.456665,35.4572754 15.4324951,35.0222168 C15.4083252,34.5871582 15.3962402,34.2165527 15.3962402,33.9104004 C15.3962402,30.3171387 16.3630371,27.2596436 18.2966309,24.737915 C20.2302246,22.2161865 22.4458008,20.9553223 24.9433594,20.9553223 C26.2485352,20.9553223 27.2838135,21.3581543 28.0491943,22.1638184 C28.8145752,22.9694824 29.1972656,24.0490723 29.1972656,25.4025879 C29.1972656,27.8840332 27.9364014,30.3533936 25.4146729,32.8106689 C22.8929443,35.2679443 19.9160156,36.7463379 16.4838867,37.2458496 C16.5161133,38.0837402 16.6732178,38.9458008 16.9552002,39.8320312 C17.2371826,40.7182617 17.3781738,41.1694336 17.3781738,41.1855469 C17.3781738,41.2661133 17.3540039,41.3265381 17.3056641,41.3668213 C17.2573242,41.4071045 17.1848145,41.4272461 17.0881348,41.4272461 C16.8786621,41.4272461 16.6329346,41.0405273 16.3509521,40.2670898 C16.0689697,39.4936523 15.8312988,38.4946289 15.6379395,37.2700195 L14.6469727,37.2700195 C12.4555664,37.2700195 10.6468506,36.4522705 9.2208252,34.8167725 C7.7947998,33.1812744 7.08178711,31.0664062 7.08178711,28.472168 C7.08178711,27.1831055 7.24694824,25.8497314 7.57727051,24.4720459 C7.90759277,23.0943604 8.41918945,21.6079102 9.11206055,20.0126953 C6.26000977,19.4165039 4.02832031,18.2362061 2.41699219,16.4718018 C0.805664062,14.7073975 0,12.5683594 0,10.0546875 C0,7.23486328 1.14001465,4.85412598 3.42004395,2.91247559 C5.70007324,0.970825195 8.52392578,0 11.8916016,0 Z M25.5959473,22.1879883 C24.3391113,22.1879883 23.102417,22.6915283 21.8858643,23.6986084 C20.6693115,24.7056885 19.5454102,26.1679688 18.5141602,28.0854492 C17.8051758,29.4067383 17.2734375,30.6998291 16.9189453,31.9647217 C16.5644531,33.2296143 16.387207,34.4743652 16.387207,35.6989746 L16.387207,36.3999023 C19.5615234,36.09375 22.3612061,34.7926025 24.7862549,32.49646 C27.2113037,30.2003174 28.4238281,27.8679199 28.4238281,25.4992676 C28.4238281,24.5324707 28.1619873,23.7388916 27.6383057,23.1185303 C27.114624,22.4981689 26.4338379,22.1879883 25.5959473,22.1879883 Z M41.9348145,23.6140137 C41.1291504,23.6140137 40.2509766,23.9644775 39.300293,24.6654053 C38.3496094,25.366333 37.4069824,26.3532715 36.4724121,27.6262207 C35.5700684,28.8991699 34.861084,30.1721191 34.345459,31.4450684 C33.829834,32.7180176 33.5720215,33.7895508 33.5720215,34.659668 C33.5720215,35.1269531 33.6767578,35.4975586 33.8862305,35.7714844 C34.0957031,36.0454102 34.3857422,36.182373 34.7563477,36.182373 C35.3041992,36.182373 35.9849854,35.9084473 36.7987061,35.3605957 C37.6124268,34.8127441 38.4624023,34.0473633 39.3486328,33.0644531 C40.6860352,31.5981445 41.7213135,30.1680908 42.4544678,28.774292 C43.1876221,27.3804932 43.5541992,26.1760254 43.5541992,25.1608887 C43.5541992,24.7258301 43.3970947,24.3592529 43.0828857,24.0611572 C42.7686768,23.7630615 42.3859863,23.6140137 41.9348145,23.6140137 Z M83.0478516,23.4689941 C81.9682617,23.4689941 80.7033691,24.2263184 79.2531738,25.7409668 C77.8029785,27.2556152 76.6750488,29.1086426 75.8693848,31.3000488 C78.0769043,30.8166504 79.9702148,29.8659668 81.5493164,28.447998 C83.128418,27.0300293 83.9179688,25.7006836 83.9179688,24.4599609 C83.9179688,24.1860352 83.833374,23.9523926 83.6641846,23.7590332 C83.4949951,23.5656738 83.2895508,23.4689941 83.0478516,23.4689941 Z M71.3737793,6.55004883 C69.9719238,6.55004883 68.3525391,7.7947998 66.515625,10.2843018 C64.6787109,12.7738037 62.3422852,16.9189453 59.5063477,22.7197266 C63.3413086,20.1416016 66.50354,17.4063721 68.993042,14.5140381 C71.4825439,11.6217041 72.7272949,9.44238281 72.7272949,7.97607422 C72.7272949,7.52490234 72.6064453,7.17443848 72.3647461,6.92468262 C72.1230469,6.67492676 71.7927246,6.55004883 71.3737793,6.55004883 Z M82.2744141,6.55004883 C80.8725586,6.55004883 79.2531738,7.7947998 77.4162598,10.2843018 C75.5793457,12.7738037 73.2429199,16.9189453 70.4069824,22.7197266 C74.2419434,20.1416016 77.4041748,17.4063721 79.8936768,14.5140381 C82.3831787,11.6217041 83.6279297,9.44238281 83.6279297,7.97607422 C83.6279297,7.52490234 83.5070801,7.17443848 83.2653809,6.92468262 C83.0236816,6.67492676 82.6933594,6.55004883 82.2744141,6.55004883 Z M87.4467773,13.7768555 C87.8979492,13.7768555 88.2564697,13.90979 88.5223389,14.1756592 C88.788208,14.4415283 88.9211426,14.8000488 88.9211426,15.2512207 C88.9211426,16.072998 88.5303955,16.9390869 87.7489014,17.8494873 C86.9674072,18.7598877 85.8435059,19.6420898 84.3771973,20.4960938 C83.1687012,21.2050781 82.3308105,21.6643066 81.8635254,21.8737793 C81.3962402,22.083252 81.0336914,22.1879883 80.7758789,22.1879883 C80.6308594,22.1879883 80.5301514,22.1638184 80.4737549,22.1154785 C80.4173584,22.0671387 80.3811035,21.970459 80.3649902,21.8254395 C80.3649902,21.6804199 80.8765869,21.253418 81.8997803,20.5444336 C82.9229736,19.8354492 83.7648926,19.0136719 84.4255371,18.0791016 C84.6994629,17.6762695 85.0136719,17.015625 85.3681641,16.097168 C85.9804688,14.550293 86.6733398,13.7768555 87.4467773,13.7768555 Z M36.2790527,2.12695312 C34.8288574,2.12695312 33.1208496,2.50561523 31.1550293,3.26293945 C29.189209,4.02026367 27.1025391,5.1159668 24.8950195,6.55004883 C25.78125,7.9519043 26.4499512,9.04760742 26.901123,9.8371582 C27.3522949,10.626709 27.5778809,11.1101074 27.5778809,11.2873535 C27.5778809,11.3840332 27.5496826,11.4686279 27.4932861,11.5411377 C27.4368896,11.6136475 27.3845215,11.6499023 27.3361816,11.6499023 C27.1911621,11.6499023 26.8084717,11.1020508 26.1881104,10.0063477 C25.567749,8.91064453 24.9272461,7.90356445 24.2666016,6.98510742 C21.9301758,8.66088867 19.9401855,10.3809814 18.2966309,12.1453857 C16.6530762,13.90979 15.3237305,15.7507324 14.3085938,17.6682129 L15.2512207,17.6682129 C17.5554199,17.6682129 19.8596191,17.4144287 22.1638184,16.9068604 C24.4680176,16.399292 26.7641602,15.6298828 29.0522461,14.5986328 C32.1943359,13.2128906 34.6959229,11.6217041 36.5570068,9.82507324 C38.4180908,8.02844238 39.3486328,6.37280273 39.3486328,4.8581543 C39.3486328,3.98803711 39.0787354,3.31530762 38.5389404,2.83996582 C37.9991455,2.36462402 37.2458496,2.12695312 36.2790527,2.12695312 Z M12.0849609,0.700927734 C8.97509766,0.700927734 6.37280273,1.5065918 4.27807617,3.11791992 C2.18334961,4.72924805 1.13598633,6.69506836 1.13598633,9.01538086 C1.13598633,11.2229004 2.01013184,13.1000977 3.75842285,14.6469727 C5.50671387,16.1938477 7.81494141,17.1203613 10.6831055,17.4265137 C12.3266602,15.0739746 14.2159424,12.9309082 16.3509521,10.9973145 C18.4859619,9.0637207 20.8425293,7.36376953 23.4206543,5.89746094 C21.7287598,4.14111328 19.9522705,2.8359375 18.0911865,1.98193359 C16.2301025,1.12792969 14.2280273,0.700927734 12.0849609,0.700927734 Z M114.37207,0 C116.708496,0 118.855591,0.447143555 120.813354,1.34143066 C122.771118,2.23571777 124.676514,3.64160156 126.529541,5.55908203 C128.898193,4.25390625 131.158081,3.24279785 133.309204,2.52575684 C135.460327,1.80871582 137.260986,1.45019531 138.711182,1.45019531 C139.935791,1.45019531 140.886475,1.74023438 141.563232,2.3203125 C142.23999,2.90039062 142.578369,3.71411133 142.578369,4.76147461 C142.578369,6.58227539 141.474609,8.51989746 139.26709,10.5743408 C137.05957,12.6287842 133.98999,14.550293 130.05835,16.3388672 C127.625244,17.4506836 125.216309,18.3208008 122.831543,18.9492188 C120.446777,19.5776367 118.037842,19.9804688 115.604736,20.1577148 C114.831299,21.8979492 114.231079,23.6502686 113.804077,25.4146729 C113.377075,27.1790771 113.163574,28.8105469 113.163574,30.309082 C113.163574,32.2426758 113.566406,33.717041 114.37207,34.7321777 C115.177734,35.7473145 116.394287,36.3112793 118.021729,36.4240723 C117.973389,35.9245605 117.937134,35.4572754 117.912964,35.0222168 C117.888794,34.5871582 117.876709,34.2165527 117.876709,33.9104004 C117.876709,30.3171387 118.843506,27.2596436 120.7771,24.737915 C122.710693,22.2161865 124.92627,20.9553223 127.423828,20.9553223 C128.729004,20.9553223 129.764282,21.3581543 130.529663,22.1638184 C131.295044,22.9694824 131.677734,24.0490723 131.677734,25.4025879 C131.677734,27.8840332 130.41687,30.3533936 127.895142,32.8106689 C125.373413,35.2679443 122.396484,36.7463379 118.964355,37.2458496 C118.996582,38.0837402 119.153687,38.9458008 119.435669,39.8320312 C119.717651,40.7182617 119.858643,41.1694336 119.858643,41.1855469 C119.858643,41.2661133 119.834473,41.3265381 119.786133,41.3668213 C119.737793,41.4071045 119.665283,41.4272461 119.568604,41.4272461 C119.359131,41.4272461 119.113403,41.0405273 118.831421,40.2670898 C118.549438,39.4936523 118.311768,38.4946289 118.118408,37.2700195 L117.127441,37.2700195 C114.936035,37.2700195 113.127319,36.4522705 111.701294,34.8167725 C110.275269,33.1812744 109.562256,31.0664062 109.562256,28.472168 C109.562256,27.1831055 109.727417,25.8497314 110.057739,24.4720459 C110.388062,23.0943604 110.899658,21.6079102 111.592529,20.0126953 C108.740479,19.4165039 106.508789,18.2362061 104.897461,16.4718018 C103.286133,14.7073975 102.480469,12.5683594 102.480469,10.0546875 C102.480469,7.23486328 103.620483,4.85412598 105.900513,2.91247559 C108.180542,0.970825195 111.004395,0 114.37207,0 Z M231.354492,13.2209473 L228.188232,18.2724609 L233.868164,18.2724609 L233.481445,18.9733887 L227.753174,18.9733887 L220.357178,30.7924805 C219.567627,32.0493164 218.983521,33.0563965 218.604858,33.8137207 C218.226196,34.5710449 218.036865,35.1188965 218.036865,35.4572754 C218.036865,35.6989746 218.12146,35.9165039 218.290649,36.1098633 C218.459839,36.3032227 218.657227,36.3999023 218.882812,36.3999023 C219.479004,36.3999023 220.196045,36.09375 221.033936,35.4814453 C221.871826,34.8691406 223.088379,33.7331543 224.683594,32.0734863 C225.038086,31.7189941 225.448975,31.2678223 225.91626,30.7199707 C226.275325,30.3186629 226.54787,30.0488648 226.733896,29.9105763 C226.753243,29.8844452 226.775316,29.8555487 226.798462,29.8256836 C227.048218,29.503418 227.600098,28.8669434 228.454102,27.9162598 C229.936523,26.3049316 231.443115,25.0440674 232.973877,24.133667 C234.504639,23.2232666 235.898438,22.7680664 237.155273,22.7680664 C238.202637,22.7680664 239.032471,23.090332 239.644775,23.7348633 C240.25708,24.3793945 240.563232,25.2495117 240.563232,26.3452148 C240.563232,27.1992188 240.349731,28.1015625 239.922729,29.0522461 C239.495728,30.0029297 238.806885,31.0986328 237.856201,32.3393555 C237.888428,32.3393555 237.960938,32.3554688 238.07373,32.3876953 C238.31543,32.4521484 238.508789,32.484375 238.653809,32.484375 C239.29834,32.484375 239.987183,32.2910156 240.720337,31.9042969 C241.453491,31.5175781 242.134277,30.9858398 242.762695,30.309082 L243.391113,29.5598145 C243.42334,29.5275879 243.483765,29.4953613 243.572388,29.4631348 C243.661011,29.4309082 243.737549,29.4147949 243.802002,29.4147949 C243.866455,29.4147949 243.914795,29.4389648 243.947021,29.4873047 C243.979248,29.5356445 243.995361,29.6081543 243.995361,29.704834 C243.995361,29.7854004 243.991333,29.8417969 243.983276,29.8740234 C243.97522,29.90625 243.963135,29.9304199 243.947021,29.9465332 L243.391113,30.5991211 C242.714355,31.4208984 241.93689,32.0533447 241.058716,32.49646 C240.180542,32.9395752 239.27417,33.1611328 238.3396,33.1611328 C238.065674,33.1611328 237.844116,33.1530762 237.674927,33.1369629 C237.505737,33.1208496 237.356689,33.1047363 237.227783,33.088623 C236.051514,34.3615723 234.895386,35.3444824 233.759399,36.0373535 C232.623413,36.7302246 231.596191,37.0766602 230.677734,37.0766602 C229.614258,37.0766602 228.796509,36.6335449 228.224487,35.7473145 C227.652466,34.861084 227.366455,33.5881348 227.366455,31.9284668 C227.366455,31.6223145 227.398682,31.2839355 227.463135,30.9133301 C227.527588,30.5427246 227.624268,30.1237793 227.753174,29.6564941 C227.483352,30.0056756 227.264341,30.2571439 227.09614,30.410899 C227.031943,30.5130762 226.944287,30.632959 226.834717,30.7683105 C226.560791,31.1066895 225.94043,31.7753906 224.973633,32.7744141 C223.313965,34.4663086 222.057129,35.6063232 221.203125,36.194458 C220.349121,36.7825928 219.591797,37.0766602 218.931152,37.0766602 C218.125488,37.0766602 217.476929,36.7946777 216.985474,36.2307129 C216.494019,35.666748 216.248291,34.9094238 216.248291,33.9587402 C216.248291,32.7019043 217.392334,30.3493652 219.68042,26.901123 C219.938232,26.498291 220.131592,26.1921387 220.260498,25.982666 C219.358154,26.8850098 218.419556,27.8880615 217.444702,28.9918213 C217.005757,29.4888083 216.647666,29.8739068 216.370429,30.1471168 C216.26938,30.522898 215.805291,31.0322998 214.97937,31.6746826 C214.036743,32.4078369 213.194824,32.7744141 212.453613,32.7744141 C211.776855,32.7744141 211.26123,32.6092529 210.906738,32.2789307 C210.552246,31.9486084 210.375,31.4692383 210.375,30.8408203 C210.375,30.5991211 210.42334,30.2929688 210.52002,29.9223633 C210.616699,29.5517578 210.777832,29.0683594 211.003418,28.472168 C210.020508,29.2939453 208.93689,30.3533936 207.752563,31.6505127 C206.568237,32.9476318 205.210693,34.5629883 203.679932,36.496582 L200.223633,36.8349609 L206.652832,27.239502 L206.846191,26.925293 C207.764648,25.5717773 208.223877,24.6855469 208.223877,24.2666016 C208.223877,24.0410156 208.171509,23.8758545 208.066772,23.7711182 C207.962036,23.6663818 207.788818,23.6140137 207.547119,23.6140137 C207.015381,23.6140137 206.326538,23.9523926 205.480591,24.6291504 C204.634644,25.3059082 203.389893,26.5224609 201.746338,28.2788086 C201.407959,28.6333008 201.005127,29.0925293 200.537842,29.6564941 C200.282266,29.9704876 200.0664,30.2133336 199.890244,30.3850324 C199.81663,30.5045355 199.709489,30.6490604 199.571045,30.8166504 C199.264893,31.1872559 198.580078,31.9204102 197.516602,33.0161133 C196.066406,34.4663086 194.793457,35.5056152 193.697754,36.1340332 C192.602051,36.7624512 191.546631,37.0766602 190.531494,37.0766602 C189.306885,37.0766602 188.299805,36.5731201 187.510254,35.56604 C186.720703,34.55896 186.325928,33.2819824 186.325928,31.7351074 C186.325928,31.4128418 186.350098,31.0784912 186.398438,30.7320557 C186.446777,30.3856201 186.519287,30.0270996 186.615967,29.6564941 C186.369228,29.9758026 186.164979,30.2134018 186.003218,30.3692917 C185.929303,30.4904904 185.818537,30.6408853 185.67334,30.8166504 C185.367188,31.1872559 184.682373,31.9204102 183.618896,33.0161133 C182.168701,34.4663086 180.891724,35.5056152 179.787964,36.1340332 C178.684204,36.7624512 177.616699,37.0766602 176.585449,37.0766602 C175.36084,37.0766602 174.361816,36.5771484 173.588379,35.578125 C172.814941,34.5791016 172.428223,33.2980957 172.428223,31.7351074 C172.428223,31.4289551 172.452393,31.1107178 172.500732,30.7803955 C172.549072,30.4500732 172.613525,30.0996094 172.694092,29.7290039 C172.468506,30.0351562 172.26709,30.2647705 172.089844,30.4178467 L172.012324,30.4795145 C171.699425,30.9180832 171.056564,31.6347099 170.08374,32.6293945 L169.793701,32.9194336 C168.424072,34.3212891 167.280029,35.364624 166.361572,36.0494385 C165.443115,36.7342529 164.742188,37.0766602 164.258789,37.0766602 C163.549805,37.0766602 162.977783,36.7543945 162.542725,36.1098633 C162.107666,35.465332 161.890137,34.6193848 161.890137,33.5720215 C161.890137,32.8146973 162.087524,32.0251465 162.4823,31.2033691 C162.877075,30.3815918 163.735107,29.1408691 165.056396,27.4812012 C165.233643,27.2556152 165.483398,26.9494629 165.805664,26.5627441 C166.756348,25.3864746 167.231689,24.6049805 167.231689,24.2182617 C167.231689,24.0087891 167.191406,23.8637695 167.11084,23.7832031 C167.030273,23.7026367 166.885254,23.6623535 166.675781,23.6623535 C165.902344,23.6623535 164.37561,24.8144531 162.095581,27.1186523 C159.815552,29.4228516 157.104492,32.5649414 153.962402,36.5449219 L150.506104,36.8833008 L156.935303,27.239502 C156.999756,27.126709 157.104492,26.9736328 157.249512,26.7802734 C158.087402,25.5395508 158.506348,24.7016602 158.506348,24.2666016 C158.506348,24.0410156 158.453979,23.8758545 158.349243,23.7711182 C158.244507,23.6663818 158.071289,23.6140137 157.82959,23.6140137 C157.297852,23.6140137 156.609009,23.9523926 155.763062,24.6291504 C154.917114,25.3059082 153.672363,26.5224609 152.028809,28.2788086 C151.69043,28.6333008 151.287598,29.0925293 150.820312,29.6564941 C150.591614,29.9374661 150.394713,30.1614684 150.229609,30.3285011 L149.998535,30.5991211 C149.321777,31.4208984 148.544312,32.0533447 147.666138,32.49646 C146.787964,32.9395752 145.881592,33.1611328 144.947021,33.1611328 C144.673096,33.1611328 144.451538,33.1530762 144.282349,33.1369629 C144.113159,33.1208496 143.964111,33.1047363 143.835205,33.088623 C142.658936,34.3615723 141.502808,35.3444824 140.366821,36.0373535 C139.230835,36.7302246 138.203613,37.0766602 137.285156,37.0766602 C136.22168,37.0766602 135.403931,36.6335449 134.831909,35.7473145 C134.259888,34.861084 133.973877,33.5881348 133.973877,31.9284668 C133.973877,31.6223145 134.006104,31.2839355 134.070557,30.9133301 C134.13501,30.5427246 134.231689,30.1237793 134.360596,29.6564941 C134.08667,30.0109863 133.865112,30.2647705 133.695923,30.4178467 C133.526733,30.5709229 133.385742,30.6474609 133.272949,30.6474609 C133.192383,30.6474609 133.131958,30.635376 133.091675,30.6112061 C133.051392,30.5870361 133.03125,30.534668 133.03125,30.4541016 C133.03125,30.3574219 133.156128,30.1479492 133.405884,29.8256836 C133.65564,29.503418 134.20752,28.8669434 135.061523,27.9162598 C136.543945,26.3049316 138.050537,25.0440674 139.581299,24.133667 C141.112061,23.2232666 142.505859,22.7680664 143.762695,22.7680664 C144.810059,22.7680664 145.639893,23.090332 146.252197,23.7348633 C146.864502,24.3793945 147.170654,25.2495117 147.170654,26.3452148 C147.170654,27.1992188 146.957153,28.1015625 146.530151,29.0522461 C146.103149,30.0029297 145.414307,31.0986328 144.463623,32.3393555 C144.49585,32.3393555 144.568359,32.3554688 144.681152,32.3876953 C144.922852,32.4521484 145.116211,32.484375 145.26123,32.484375 C145.905762,32.484375 146.594604,32.2910156 147.327759,31.9042969 C148.060913,31.5175781 148.741699,30.9858398 149.370117,30.309082 L149.998535,29.5598145 L150.023595,29.541027 C150.177002,29.3522306 150.370065,29.1248505 150.602783,28.8588867 L152.173828,27.1428223 C153.769043,25.4348145 154.973511,24.2867432 155.787231,23.6986084 C156.600952,23.1104736 157.346191,22.8164062 158.022949,22.8164062 C158.619141,22.8164062 159.090454,23.0258789 159.43689,23.4448242 C159.783325,23.8637695 159.956543,24.435791 159.956543,25.1608887 C159.956543,25.9020996 159.799438,26.699707 159.485229,27.5537109 C159.171021,28.4077148 158.66748,29.390625 157.974609,30.5024414 C160.488281,27.6665039 162.417847,25.6845703 163.763306,24.5566406 C165.108765,23.4287109 166.184326,22.8647461 166.98999,22.8647461 C167.553955,22.8647461 168.005127,23.0822754 168.343506,23.517334 C168.681885,23.9523926 168.851074,24.5324707 168.851074,25.2575684 C168.851074,26.498291 168.037354,28.2304688 166.409912,30.4541016 C166.135986,30.824707 165.93457,31.1066895 165.805664,31.3000488 C164.90332,32.5246582 164.295044,33.4310303 163.980835,34.019165 C163.666626,34.6072998 163.509521,35.0866699 163.509521,35.4572754 C163.509521,35.7473145 163.573975,35.9688721 163.702881,36.1219482 C163.831787,36.2750244 164.033203,36.3515625 164.307129,36.3515625 C164.726074,36.3515625 165.394775,35.9890137 166.313232,35.263916 C167.231689,34.5388184 168.343506,33.4914551 169.648682,32.1218262 C170.0354,31.7351074 170.478516,31.251709 170.978027,30.6716309 C171.206849,30.4142066 171.396004,30.2139016 171.545494,30.0707159 C171.617661,29.9686772 171.710899,29.8461786 171.823975,29.704834 C172.14624,29.302002 172.645752,28.7380371 173.32251,28.0129395 C174.853271,26.3693848 176.39209,25.1004639 177.938965,24.2061768 C179.48584,23.3118896 180.927979,22.8647461 182.265381,22.8647461 C183.264404,22.8647461 184.049927,23.0983887 184.621948,23.5656738 C185.19397,24.032959 185.47998,24.661377 185.47998,25.4509277 C185.47998,26.095459 185.302734,26.6352539 184.948242,27.0703125 C184.59375,27.5053711 184.166748,27.7229004 183.667236,27.7229004 C183.199951,27.7229004 182.833374,27.6101074 182.567505,27.3845215 C182.301636,27.1589355 182.168701,26.8447266 182.168701,26.4418945 C182.168701,26.0229492 182.426514,25.6523438 182.942139,25.3300781 C183.457764,25.0078125 183.715576,24.7016602 183.715576,24.4116211 C183.715576,24.1699219 183.614868,23.9685059 183.413452,23.807373 C183.212036,23.6462402 182.966309,23.5656738 182.67627,23.5656738 C181.209961,23.5656738 179.538208,24.7338867 177.661011,27.0703125 C175.783813,29.4067383 174.845215,31.7351074 174.845215,34.0554199 C174.845215,34.7966309 175.022461,35.3726807 175.376953,35.7835693 C175.731445,36.194458 176.230957,36.3999023 176.875488,36.3999023 C177.729492,36.3999023 178.623779,36.1219482 179.55835,35.56604 C180.49292,35.0101318 181.628906,34.0634766 182.966309,32.7260742 C183.546387,32.1621094 184.13855,31.5336914 184.742798,30.8408203 C185.064881,30.4714981 185.319437,30.2006061 185.506465,30.0281443 C185.582452,29.9182031 185.678418,29.7905012 185.794189,29.6444092 C186.132568,29.2174072 186.60791,28.673584 187.220215,28.0129395 C188.734863,26.3532715 190.269653,25.0803223 191.824585,24.1940918 C193.379517,23.3078613 194.85791,22.8647461 196.259766,22.8647461 C197.081543,22.8647461 197.742188,23.0782471 198.241699,23.505249 C198.741211,23.932251 198.990967,24.4841309 198.990967,25.1608887 C198.990967,26.5305176 198.088623,27.8518066 196.283936,29.1247559 C194.479248,30.3977051 192.062256,31.3806152 189.032959,32.0734863 C188.936279,32.6696777 188.871826,33.1047363 188.8396,33.3786621 C188.807373,33.6525879 188.79126,33.8781738 188.79126,34.0554199 C188.79126,34.7805176 188.964478,35.3444824 189.310913,35.7473145 C189.657349,36.1501465 190.144775,36.3515625 190.773193,36.3515625 C191.611084,36.3515625 192.505371,36.0736084 193.456055,35.5177002 C194.406738,34.961792 195.542725,34.03125 196.864014,32.7260742 C197.411865,32.1782227 197.995972,31.553833 198.616333,30.8529053 C198.914381,30.51615 199.155709,30.2602905 199.340316,30.0853267 C199.36181,30.0495746 199.38666,30.0109066 199.41394,29.9707031 C199.567017,29.7451172 199.869141,29.3745117 200.320312,28.8588867 L201.891357,27.1428223 C203.486572,25.4348145 204.69104,24.2867432 205.504761,23.6986084 C206.318481,23.1104736 207.063721,22.8164062 207.740479,22.8164062 C208.304443,22.8164062 208.7677,23.0178223 209.130249,23.4206543 C209.492798,23.8234863 209.674072,24.3310547 209.674072,24.9433594 C209.674072,25.7329102 209.525024,26.5385742 209.226929,27.3603516 C208.928833,28.1821289 208.28833,29.4228516 207.30542,31.0825195 L207.35376,31.0341797 C209.142334,29.3100586 210.544189,28.0129395 211.559326,27.1428223 C212.187744,25.467041 212.796021,24.3270264 213.384155,23.7227783 C213.97229,23.1185303 214.717529,22.8164062 215.619873,22.8164062 C215.942139,22.8164062 216.212036,22.8929443 216.429565,23.0460205 C216.647095,23.1990967 216.755859,23.3884277 216.755859,23.6140137 C216.755859,24.1779785 215.797119,25.1689453 213.879639,26.5869141 C213.557373,26.8286133 213.307617,27.013916 213.130371,27.1428223 C212.405273,27.6745605 211.88562,28.2304688 211.571411,28.8105469 C211.257202,29.390625 211.100098,30.0512695 211.100098,30.7924805 C211.100098,31.1953125 211.216919,31.5175781 211.450562,31.7592773 C211.684204,32.0009766 211.978271,32.1218262 212.332764,32.1218262 C213.154541,32.1218262 213.984375,31.7270508 214.822266,30.9375 C215.184433,30.5962271 215.469834,30.3287095 215.67847,30.1349473 C216.02094,29.5824272 216.932039,28.5447642 218.411499,27.0219727 C220.337036,25.0400391 221.710693,23.4287109 222.532471,22.1879883 L224.683594,18.9733887 L222.290771,18.9733887 L222.70166,18.2724609 L225.118652,18.2724609 L228.139893,13.4626465 L231.354492,13.2209473 Z M128.076416,22.1879883 C126.81958,22.1879883 125.582886,22.6915283 124.366333,23.6986084 C123.14978,24.7056885 122.025879,26.1679688 120.994629,28.0854492 C120.285645,29.4067383 119.753906,30.6998291 119.399414,31.9647217 C119.044922,33.2296143 118.867676,34.4743652 118.867676,35.6989746 L118.867676,36.3999023 C122.041992,36.09375 124.841675,34.7926025 127.266724,32.49646 C129.691772,30.2003174 130.904297,27.8679199 130.904297,25.4992676 C130.904297,24.5324707 130.642456,23.7388916 130.118774,23.1185303 C129.595093,22.4981689 128.914307,22.1879883 128.076416,22.1879883 Z M143.956055,23.6140137 C143.214844,23.6140137 142.425293,23.9483643 141.587402,24.6170654 C140.749512,25.2857666 139.855225,26.2888184 138.904541,27.6262207 C138.034424,28.8669434 137.357666,30.0996094 136.874268,31.3242188 C136.390869,32.5488281 136.14917,33.6123047 136.14917,34.5146484 C136.14917,35.1108398 136.274048,35.5539551 136.523804,35.8439941 C136.77356,36.1340332 137.15625,36.2790527 137.671875,36.2790527 C138.219727,36.2790527 138.924683,36.0091553 139.786743,35.4693604 C140.648804,34.9295654 141.498779,34.2165527 142.33667,33.3303223 C143.41626,32.170166 144.270264,30.9415283 144.898682,29.6444092 C145.5271,28.34729 145.841309,27.1669922 145.841309,26.1035156 C145.841309,25.3300781 145.676147,24.7218018 145.345825,24.2786865 C145.015503,23.8355713 144.552246,23.6140137 143.956055,23.6140137 Z M237.348633,23.6140137 C236.607422,23.6140137 235.817871,23.9483643 234.97998,24.6170654 C234.14209,25.2857666 233.247803,26.2888184 232.297119,27.6262207 C231.427002,28.8669434 230.750244,30.0996094 230.266846,31.3242188 C229.783447,32.5488281 229.541748,33.6123047 229.541748,34.5146484 C229.541748,35.1108398 229.666626,35.5539551 229.916382,35.8439941 C230.166138,36.1340332 230.548828,36.2790527 231.064453,36.2790527 C231.612305,36.2790527 232.317261,36.0091553 233.179321,35.4693604 C234.041382,34.9295654 234.891357,34.2165527 235.729248,33.3303223 C236.808838,32.170166 237.662842,30.9415283 238.29126,29.6444092 C238.919678,28.34729 239.233887,27.1669922 239.233887,26.1035156 C239.233887,25.3300781 239.068726,24.7218018 238.738403,24.2786865 C238.408081,23.8355713 237.944824,23.6140137 237.348633,23.6140137 Z M196.477295,23.4689941 C195.397705,23.4689941 194.132812,24.2263184 192.682617,25.7409668 C191.232422,27.2556152 190.104492,29.1086426 189.298828,31.3000488 C191.506348,30.8166504 193.399658,29.8659668 194.97876,28.447998 C196.557861,27.0300293 197.347412,25.7006836 197.347412,24.4599609 C197.347412,24.1860352 197.262817,23.9523926 197.093628,23.7590332 C196.924438,23.5656738 196.718994,23.4689941 196.477295,23.4689941 Z M138.759521,2.12695312 C137.309326,2.12695312 135.601318,2.50561523 133.635498,3.26293945 C131.669678,4.02026367 129.583008,5.1159668 127.375488,6.55004883 C128.261719,7.9519043 128.93042,9.04760742 129.381592,9.8371582 C129.832764,10.626709 130.05835,11.1101074 130.05835,11.2873535 C130.05835,11.3840332 130.030151,11.4686279 129.973755,11.5411377 C129.917358,11.6136475 129.86499,11.6499023 129.81665,11.6499023 C129.671631,11.6499023 129.28894,11.1020508 128.668579,10.0063477 C128.048218,8.91064453 127.407715,7.90356445 126.74707,6.98510742 C124.410645,8.66088867 122.420654,10.3809814 120.7771,12.1453857 C119.133545,13.90979 117.804199,15.7507324 116.789062,17.6682129 L117.731689,17.6682129 C120.035889,17.6682129 122.340088,17.4144287 124.644287,16.9068604 C126.948486,16.399292 129.244629,15.6298828 131.532715,14.5986328 C134.674805,13.2128906 137.176392,11.6217041 139.037476,9.82507324 C140.89856,8.02844238 141.829102,6.37280273 141.829102,4.8581543 C141.829102,3.98803711 141.559204,3.31530762 141.019409,2.83996582 C140.479614,2.36462402 139.726318,2.12695312 138.759521,2.12695312 Z M114.56543,0.700927734 C111.455566,0.700927734 108.853271,1.5065918 106.758545,3.11791992 C104.663818,4.72924805 103.616455,6.69506836 103.616455,9.01538086 C103.616455,11.2229004 104.490601,13.1000977 106.238892,14.6469727 C107.987183,16.1938477 110.29541,17.1203613 113.163574,17.4265137 C114.807129,15.0739746 116.696411,12.9309082 118.831421,10.9973145 C120.966431,9.0637207 123.322998,7.36376953 125.901123,5.89746094 C124.209229,4.14111328 122.432739,2.8359375 120.571655,1.98193359 C118.710571,1.12792969 116.708496,0.700927734 114.56543,0.700927734 Z" id="Combined-Shape"></path>
        </g>
    </g>
</svg>