<svg width="270" height="270" viewBox="0 0 270 270" fill="none" xmlns="http://www.w3.org/2000/svg">
<g clip-path="url(#clip0_1709_17184)">
<path d="M235.225 79.619L188.762 82.0617L187.655 61.1875C187.52 58.4376 186.844 55.7416 185.666 53.2534C184.488 50.7651 182.83 48.5332 180.788 46.6865C178.746 44.8399 176.36 43.4141 173.767 42.491C171.173 41.568 168.422 41.166 165.673 41.3075L100.893 44.8859C98.1414 45.0241 95.4446 45.7029 92.9561 46.8842C90.4677 48.0654 88.2365 49.7261 86.3902 51.7703C84.5438 53.8144 83.1185 56.202 82.1958 58.7975C81.273 61.3929 80.871 64.145 81.0125 66.8959L82.1201 87.7702L35.6294 90.2122C32.877 90.3467 30.1783 91.0235 27.6881 92.2035C25.1979 93.3835 22.9653 95.0433 21.1182 97.0882C19.2712 99.1332 17.8461 101.523 16.9248 104.12C16.0034 106.717 15.604 109.47 15.7494 112.222L22.0258 231.275C22.1603 234.027 22.8369 236.726 24.0169 239.217C25.1969 241.707 26.857 243.939 28.902 245.786C30.9469 247.633 33.3365 249.058 35.9335 249.98C38.5306 250.901 41.284 251.3 44.0358 251.155L243.546 240.647C246.297 240.509 248.994 239.83 251.482 238.649C253.971 237.467 256.202 235.807 258.048 233.763C259.894 231.719 261.32 229.331 262.242 226.735C263.165 224.14 263.567 221.388 263.426 218.637L257.149 99.5559C257.026 96.805 256.359 94.1055 255.189 91.6128C254.019 89.1201 252.368 86.8833 250.331 85.0307C248.293 83.1781 245.91 81.7466 243.318 80.8179C240.725 79.8892 237.975 79.4816 235.225 79.619Z" fill="#C18900"/>
<path d="M187.086 32.7598H80.3584V74.5646H187.086V32.7598Z" stroke="black" stroke-width="3" stroke-miterlimit="10"/>
<path d="M12.8799 129.973L133.722 152.296L254.535 129.973" stroke="black" stroke-width="3" stroke-miterlimit="10"/>
<path d="M254.535 74.5645H12.8799V235.678H254.535V74.5645Z" stroke="black" stroke-width="3" stroke-miterlimit="10"/>
</g>
<defs>
<clipPath id="clip0_1709_17184">
<rect width="270" height="270" fill="white"/>
</clipPath>
</defs>
</svg>
