<svg width="131" height="28" viewBox="0 0 131 28" fill="none" xmlns="http://www.w3.org/2000/svg">
<g clip-path="url(#clip0_4235_22101)">
<path d="M20.1051 19.9492C21.1351 21.7365 22.1537 23.5036 23.1714 25.2688C18.6647 28.7191 11.653 29.1361 6.46239 25.1627C0.489134 20.5867 -0.492623 12.7786 2.70536 7.15797C6.38351 0.693079 13.2665 -0.736672 17.6982 0.31171C17.5784 0.572082 14.9241 6.07858 14.9241 6.07858C14.9241 6.07858 14.7143 6.09236 14.5956 6.09466C13.2857 6.15018 12.31 6.45497 11.2643 6.99562C10.1171 7.59429 9.13387 8.46484 8.40072 9.53121C7.66756 10.5976 7.20675 11.8273 7.05856 13.1128C6.90394 14.4166 7.08422 15.7382 7.58237 16.953C8.00356 17.9799 8.59935 18.892 9.39808 19.662C10.6234 20.8444 12.0815 21.5765 13.7716 21.8189C15.3721 22.0486 16.9114 21.8212 18.3537 21.0963C18.8948 20.8249 19.355 20.525 19.893 20.1138C19.9615 20.0694 20.0224 20.0131 20.1051 19.9492Z" fill="#FF492C"/>
<path d="M20.1151 4.27348C19.8535 4.01617 19.6112 3.77877 19.3699 3.53984C19.226 3.3974 19.0874 3.24922 18.9399 3.11023C18.8871 3.06007 18.8251 2.99153 18.8251 2.99153C18.8251 2.99153 18.8752 2.88508 18.8967 2.84143C19.1789 2.27512 19.6211 1.86121 20.1457 1.53191C20.7258 1.16501 21.4016 0.978331 22.0878 0.995467C22.9658 1.0127 23.7821 1.23133 24.4709 1.82024C24.9794 2.25483 25.2402 2.8062 25.2861 3.46441C25.3627 4.57482 24.9032 5.42525 23.9908 6.01874C23.4547 6.36795 22.8765 6.63789 22.2968 6.95761C21.9771 7.13413 21.7037 7.28921 21.3913 7.60855C21.1164 7.92903 21.103 8.23114 21.103 8.23114L25.2563 8.22578V10.0756H18.8454C18.8454 10.0756 18.8454 9.94922 18.8454 9.89676C18.8209 8.98775 18.9269 8.13235 19.3431 7.30682C19.726 6.54944 20.3211 5.995 21.0359 5.56807C21.5866 5.23916 22.1663 4.95926 22.718 4.63188C23.0584 4.43009 23.2989 4.1341 23.297 3.70487C23.297 3.33652 23.0289 3.00914 22.646 2.90691C21.7432 2.66338 20.8242 3.05203 20.3463 3.87833C20.2766 3.99894 20.2054 4.11879 20.1151 4.27348Z" fill="#FF492C"/>
<path d="M28.1488 17.9829L24.6487 11.9385H17.7224L14.1997 18.0454H21.1769L24.62 24.0611L28.1488 17.9829Z" fill="#FF492C"/>
</g>
<path d="M68.7466 2.52119H66.1798L62.7139 7.69397V9.55722H66.9355V11.3814H68.7466V9.55722H69.6717V7.90245H68.7466V2.52119ZM64.4729 7.90245L66.9355 4.21505V7.90245H64.4729Z" fill="black"/>
<path d="M72.9371 11.3814H74.9436V9.24451H72.9371V11.3814Z" fill="black"/>
<path d="M79.1471 2.52119L78.665 7.19884L80.398 7.707C80.6586 7.42035 81.2058 7.14673 81.8052 7.14673C82.6261 7.14673 83.1212 7.65488 83.1212 8.47575C83.1212 9.29662 82.587 9.81781 81.7661 9.81781C80.9583 9.81781 80.4501 9.38783 80.2547 8.69726L78.3263 9.10118C78.665 10.6517 79.8377 11.5117 81.7661 11.5117C83.7987 11.5117 85.0887 10.326 85.0887 8.44969C85.0887 6.58645 83.9681 5.60922 82.3003 5.60922C81.5185 5.60922 80.841 5.8177 80.4371 6.14344L80.6195 4.28019H84.5805V2.52119H79.1471Z" fill="black"/>
<path d="M87.012 13.9091H88.0283L91.5984 2H90.5691L87.012 13.9091Z" fill="black"/>
<path d="M94.512 2.52119L94.0299 7.19884L95.7628 7.707C96.0234 7.42035 96.5707 7.14673 97.17 7.14673C97.9909 7.14673 98.486 7.65488 98.486 8.47575C98.486 9.29662 97.9518 9.81781 97.131 9.81781C96.3231 9.81781 95.815 9.38783 95.6195 8.69726L93.6911 9.10118C94.0299 10.6517 95.2026 11.5117 97.131 11.5117C99.1636 11.5117 100.454 10.326 100.454 8.44969C100.454 6.58645 99.333 5.60922 97.6652 5.60922C96.8834 5.60922 96.2058 5.8177 95.8019 6.14344L95.9843 4.28019H99.9454V2.52119H94.512Z" fill="black"/>
<path d="M40.1487 23.5244C40.4484 25.2312 41.5298 26 43.2888 26C44.9827 26 46.2726 25.1661 46.2726 23.5244C46.2726 22.1953 45.6733 21.4396 44.2791 21.1139L42.8849 20.7881C41.9077 20.5666 41.5689 20.1236 41.5689 19.3679C41.5689 18.5079 42.1422 17.8434 43.2367 17.8434C44.4224 17.8434 44.9697 18.547 45.1521 19.4461L46.2075 19.2767C45.9599 17.8043 44.9957 16.8792 43.2628 16.8792C41.6341 16.8792 40.4744 17.8825 40.4744 19.42C40.4744 20.8793 41.2823 21.5178 42.5722 21.8175L43.9924 22.1432C44.8785 22.3517 45.1781 22.7686 45.1781 23.5634C45.1781 24.5016 44.4354 25.0358 43.3149 25.0358C42.064 25.0358 41.4777 24.4364 41.2301 23.3419L40.1487 23.5244Z" fill="black"/>
<path d="M47.7008 18.0519H50.3328V25.8697H51.4534V18.0519H54.0854V17.0095H47.7008V18.0519Z" fill="black"/>
<path d="M59.2791 17.0095H57.8458L55.1226 25.8697H56.2562L56.9598 23.4462H60.1651L60.8687 25.8697H62.0284L59.2791 17.0095ZM57.2334 22.4559L58.5494 17.9216L59.8654 22.4559H57.2334Z" fill="black"/>
<path d="M63.5217 25.8697H64.6423V22.495H66.5185L68.3427 25.8697H69.5805L67.6782 22.3387C68.7336 21.9738 69.2808 21.0618 69.2808 19.7327C69.2808 17.8825 68.3427 17.0095 66.6488 17.0095H63.5217V25.8697ZM64.6423 21.4657V18.0389H66.5576C67.587 18.0389 68.1733 18.4298 68.1733 19.7458C68.1733 20.8402 67.6912 21.4657 66.5576 21.4657H64.6423Z" fill="black"/>
<path d="M70.8784 23.5244C71.1781 25.2312 72.2595 26 74.0185 26C75.7124 26 77.0023 25.1661 77.0023 23.5244C77.0023 22.1953 76.403 21.4396 75.0088 21.1139L73.6146 20.7881C72.6374 20.5666 72.2986 20.1236 72.2986 19.3679C72.2986 18.5079 72.8719 17.8434 73.9664 17.8434C75.1521 17.8434 75.6994 18.547 75.8818 19.4461L76.9372 19.2767C76.6896 17.8043 75.7254 16.8792 73.9925 16.8792C72.3638 16.8792 71.2041 17.8825 71.2041 19.42C71.2041 20.8793 72.012 21.5178 73.3019 21.8175L74.7221 22.1432C75.6082 22.3517 75.9078 22.7686 75.9078 23.5634C75.9078 24.5016 75.1651 25.0358 74.0446 25.0358C72.7937 25.0358 72.2074 24.4364 71.9598 23.3419L70.8784 23.5244Z" fill="black"/>
<path d="M86.569 25.8697H87.6895V22.495H89.5658L91.39 25.8697H92.6278L90.7254 22.3387C91.7808 21.9738 92.3281 21.0618 92.3281 19.7327C92.3281 17.8825 91.39 17.0095 89.6961 17.0095H86.569V25.8697ZM87.6895 21.4657V18.0389H89.6049C90.6342 18.0389 91.2206 18.4298 91.2206 19.7458C91.2206 20.8402 90.7385 21.4657 89.6049 21.4657H87.6895Z" fill="black"/>
<path d="M97.6912 17.0095H96.258L93.5348 25.8697H94.6683L95.3719 23.4462H98.5773L99.2809 25.8697H100.44L97.6912 17.0095ZM95.6456 22.4559L96.9616 17.9216L98.2776 22.4559H95.6456Z" fill="black"/>
<path d="M101.478 18.0519H104.11V25.8697H105.23V18.0519H107.862V17.0095H101.478V18.0519Z" fill="black"/>
<path d="M109.747 25.8697H114.958V24.8534H112.9V18.0258H114.958V17.0095H109.747V18.0258H111.805V24.8534H109.747V25.8697Z" fill="black"/>
<path d="M122.771 25.8697V17.0095H121.742V24.2931L118.654 17.0095H117.299V25.8697H118.341V18.5991L121.416 25.8697H122.771Z" fill="black"/>
<path d="M130.701 21.6872H127.913V22.6514H129.711V23.0032C129.711 24.1237 129.098 25.0228 127.822 25.0228C126.427 25.0228 125.62 23.5765 125.62 21.4396C125.62 19.3027 126.466 17.8564 127.769 17.8564C128.903 17.8564 129.411 18.7425 129.659 19.876L130.714 19.7067C130.427 17.8825 129.359 16.8792 127.769 16.8792C125.867 16.8792 124.525 18.56 124.525 21.4396C124.525 24.3192 125.828 26 127.73 26C128.629 26 129.333 25.6091 129.711 24.9316V25.8697H130.701V21.6872Z" fill="black"/>
<defs>
<clipPath id="clip0_4235_22101">
<rect width="27.2353" height="28" fill="white" transform="translate(0.91333)"/>
</clipPath>
</defs>
</svg>
