<?xml version="1.0" encoding="utf-8"?>
<!-- Generator: Adobe Illustrator 27.0.0, SVG Export Plug-In . SVG Version: 6.00 Build 0)  -->
<svg version="1.1" id="Layer_1" xmlns="http://www.w3.org/2000/svg" xmlns:xlink="http://www.w3.org/1999/xlink" x="0px" y="0px"
	 viewBox="0 0 1200 1200" style="enable-background:new 0 0 1200 1200;" xml:space="preserve">
<style type="text/css">
	.st0{fill:#FBBC05;}
	.st1{fill:#EA4335;}
	.st2{fill:#4285F4;}
	.st3{fill:#34A853;}
</style>
<g>
	<g>
		<path class="st0" d="M244.4,633.4c-2.1-39.4,2.4-77.5,12.3-113.5l-206-143C14.1,458.6-4.2,550.1,0.8,645.8
			c5,95.8,32.9,185.1,77.9,262.8l192.8-156C256.1,715.8,246.6,675.6,244.4,633.4z"/>
		<path class="st1" d="M571.8,264.9c86.7-4.4,175.7,23,240.1,73.1l157.9-170.9C860.8,76,703.9,25.8,551.2,33.6
			C325.8,45,137,183.7,50.6,376.9l205.9,143C295.5,378.9,419.6,272.7,571.8,264.9z"/>
		<path class="st2" d="M1163.2,587c-2-35.8-6.3-70.7-13.1-104.6l-232.3,11.8c0,0.1,0.1,0.3,0.1,0.5l-328,16.5l11.7,223.4l325.1-16.4
			c-14.4,63.6-44.5,120.3-91.7,163.1c-6,5.3-12.3,10.5-18.8,15.4l198.9,139C1126.1,922.5,1172.4,759.7,1163.2,587z"/>
		<path class="st3" d="M608.8,966.8c-149.4,7.5-281.7-82-337.2-214.1L78.8,908.6c106.4,183.2,308.5,302,533.9,290.7
			c137.7-7,284.9-57,380.3-142.2c7.7-6.8,15.1-13.9,22.2-21.2L816.2,896.7C760,938.6,682.1,963.1,608.8,966.8z"/>
	</g>
	<g>
		<path d="M618,12.4c73.5,0,149.3,13.9,219.4,40.3c65.5,24.6,125.2,59.9,173.5,102.3L861.6,300.6c-63.1-50.8-150.1-80.9-235.2-80.9
			c-197.9,0-358.8,163.2-358.8,363.8s161,363.8,358.8,363.8c90.4,0,179.4-28.7,238.3-76.7c49.7-40.5,84.8-95.8,104.3-164.4l4.5-15.8
			H957H643.9V491.4h316h12.4v-0.5h209.3c3.9,30.2,5.9,61.3,5.9,92.7c0,45.5-3.9,90.1-11.6,132.4c-7.8,43.1-19.6,84.2-35.1,122.2
			c-32.5,79.9-80.8,146-143.4,196.5c-46.5,37.5-107.1,68.4-175.1,89.3c-65.3,20.1-135.9,30.7-204.4,30.7h-0.3
			c-76.8,0-151.4-15.1-221.6-44.9c-33.7-14.3-66.3-32-96.7-52.6c-30.2-20.4-58.5-43.9-84.3-69.7c-25.8-25.8-49.2-54.3-69.5-84.5
			c-20.6-30.5-38.2-63.2-52.5-97c-29.7-70.4-44.8-145.2-44.8-222.3c0-77.1,15.1-151.9,44.8-222.4c14.3-33.8,32-66.5,52.5-97
			c20.4-30.2,43.8-58.7,69.6-84.5c25.8-25.8,54.2-49.3,84.3-69.8c30.5-20.6,63-38.3,96.8-52.7C466.5,27.5,541.1,12.4,618,12.4
			 M618,0C296.6,0,36,261.2,36,583.6c0,322.3,260.5,583.5,581.8,583.5c0.1,0,0.2,0,0.3,0c138,0,287.6-42.4,387.3-122.8
			C1138,937.4,1200,767.6,1200,583.6c0-35.8-2.5-71-7.5-105.1H959.8c0,0.1,0.1,0.4,0.1,0.5H631.5v223.7H957
			c-17.8,62.8-50.7,117.8-100.2,158.2c-59.2,48.4-148.3,74-230.4,74c-191.3,0-346.4-157.2-346.4-351.4
			c0-194,155.2-351.4,346.4-351.4c86.7,0,174.3,31.7,235.9,85.2L1029,154.6C924.8,57.9,770.8,0,618,0L618,0z"/>
	</g>
</g>
</svg>
