<?xml version="1.0" encoding="utf-8"?>
<!-- Generator: Adobe Illustrator 27.0.0, SVG Export Plug-In . SVG Version: 6.00 Build 0)  -->
<svg version="1.1" id="Layer_1" xmlns="http://www.w3.org/2000/svg" xmlns:xlink="http://www.w3.org/1999/xlink" x="0px" y="0px"
	 viewBox="0 0 828 828" style="enable-background:new 0 0 828 828;" xml:space="preserve">
<style type="text/css">
	.st0{fill:#FBBC05;}
	.st1{fill:#EA4335;}
	.st2{fill:#4285F4;}
	.st3{fill:#34A853;}
</style>
<g>
	<g>
		<path class="st0" d="M168.6,437c-1.4-27.2,1.6-53.5,8.5-78.3L34.9,260C9.7,316.5-2.9,379.6,0.6,445.6
			C4,511.7,23.3,573.3,54.3,626.9l133-107.6C176.7,493.9,170.2,466.2,168.6,437z"/>
		<path class="st1" d="M394.6,182.8c59.8-3,121.2,15.8,165.6,50.5l109-117.9C594,52.4,485.7,17.8,380.3,23.2
			C224.8,31,94.5,126.8,34.9,260L177,358.7C203.9,261.5,289.5,188.2,394.6,182.8z"/>
		<path class="st2" d="M802.6,405c-1.3-24.7-4.3-48.8-9-72.2L633.3,341c0,0.1,0.1,0.2,0.1,0.4l-226.3,11.4l8.1,154.1l224.3-11.3
			c-9.9,43.9-30.7,83-63.3,112.5c-4.1,3.7-8.5,7.3-13,10.7l137.3,95.9C777,636.5,809,524.2,802.6,405z"/>
		<path class="st3" d="M420.1,667.1c-103.1,5.2-194.4-56.6-232.7-147.7l-133,107.5c73.4,126.4,212.9,208.4,368.4,200.6
			c95-4.8,196.6-39.3,262.4-98.1c5.3-4.7,10.4-9.6,15.3-14.6l-137.3-96C524.4,647.7,470.7,664.5,420.1,667.1z"/>
	</g>
	<g>
		<path d="M426.4,8.5c50.7,0,103,9.6,151.4,27.8c45.2,17,86.4,41.3,119.7,70.6l-103,100.5c-43.5-35.1-103.6-55.8-162.3-55.8
			c-136.5,0-247.6,112.6-247.6,251s111.1,251,247.6,251c62.4,0,123.8-19.8,164.4-53c34.3-28,58.5-66.1,72-113.4l3.1-10.9h-11.3
			H444.3V339.1h218.1h8.6v-0.4h144.4c2.7,20.8,4.1,42.3,4.1,64c0,64.1-10.8,123.2-32.2,175.7c-22.5,55.1-55.8,100.7-99,135.6
			c-32.1,25.9-73.9,47.2-120.8,61.6c-45,13.9-93.8,21.2-141,21.2h-0.2c-53,0-104.5-10.4-152.9-31c-46.8-19.8-88.8-48.3-124.9-84.4
			C112.4,645.1,84,603,64.2,556.1c-20.5-48.6-30.9-100.2-30.9-153.4c0-53.2,10.4-104.8,30.9-153.4c19.8-46.9,48.2-89.1,84.3-125.3
			c36.1-36.2,78.1-64.6,124.9-84.5C321.9,18.9,373.4,8.5,426.4,8.5 M426.4,0C204.7,0,24.8,180.2,24.8,402.7
			c0,222.4,179.8,402.6,401.4,402.6c0.1,0,0.1,0,0.2,0c95.2,0,198.4-29.2,267.2-84.7C785.2,646.8,828,529.7,828,402.7
			c0-24.7-1.7-49-5.2-72.5H662.3c0,0.1,0.1,0.3,0.1,0.4H435.7v154.3h224.6c-12.3,43.3-35,81.3-69.2,109.1
			c-40.9,33.4-102.3,51-159,51c-132,0-239-108.5-239-242.4c0-133.9,107.1-242.4,239-242.4c59.8,0,120.2,21.9,162.8,58.8l115-112.3
			C638.1,40,531.8,0,426.4,0L426.4,0z"/>
	</g>
</g>
</svg>
