<?xml version="1.0" encoding="utf-8"?>
<!-- Generator: Adobe Illustrator 27.0.0, SVG Export Plug-In . SVG Version: 6.00 Build 0)  -->
<svg version="1.1" id="Layer_1" xmlns="http://www.w3.org/2000/svg" xmlns:xlink="http://www.w3.org/1999/xlink" x="0px" y="0px"
	 viewBox="0 0 750 750" style="enable-background:new 0 0 750 750;" xml:space="preserve">
<style type="text/css">
	.st0{fill:#FBBC05;}
	.st1{fill:#EA4335;}
	.st2{fill:#4285F4;}
	.st3{fill:#34A853;}
</style>
<g>
	<g>
		<path class="st0" d="M152.7,395.8c-1.3-24.6,1.5-48.4,7.7-70.9L31.6,235.5C8.8,286.6-2.6,343.8,0.5,403.6
			c3.1,59.9,20.6,115.7,48.7,164.2l120.5-97.5C160.1,447.4,154.1,422.2,152.7,395.8z"/>
		<path class="st1" d="M357.4,165.6c54.2-2.7,109.8,14.4,150,45.7l98.7-106.8C538,47.5,439.9,16.1,344.5,21
			C203.6,28.1,85.6,114.8,31.6,235.5l128.7,89.4C184.7,236.8,262.3,170.4,357.4,165.6z"/>
		<path class="st2" d="M727,366.9c-1.2-22.4-3.9-44.2-8.2-65.4l-145.2,7.3c0,0.1,0.1,0.2,0.1,0.3l-205,10.3l7.3,139.6l203.2-10.3
			c-9,39.7-27.8,75.2-57.3,101.9c-3.7,3.3-7.7,6.6-11.8,9.7l124.3,86.9C703.8,576.6,732.8,474.8,727,366.9z"/>
		<path class="st3" d="M380.5,604.2c-93.4,4.7-176.1-51.3-210.8-133.8L49.2,567.8C115.7,682.3,242,756.6,382.9,749.5
			c86.1-4.4,178.1-35.6,237.7-88.9c4.8-4.3,9.4-8.7,13.9-13.2l-124.3-87C475,586.6,426.3,601.9,380.5,604.2z"/>
	</g>
	<g>
		<path d="M386.2,7.7c45.9,0,93.3,8.7,137.1,25.2c40.9,15.4,78.2,37.4,108.4,63.9l-93.3,91c-39.4-31.8-93.8-50.5-147-50.5
			c-123.7,0-224.3,102-224.3,227.3S267.8,592,391.5,592c56.5,0,112.2-17.9,148.9-48c31.1-25.3,53-59.9,65.2-102.7l2.8-9.9h-10.3
			H402.4V307.1H600h7.7v-0.3h130.8c2.5,18.8,3.7,38.3,3.7,58c0,58-9.8,111.6-29.2,159.1c-20.3,49.9-50.5,91.3-89.7,122.8
			c-29.1,23.4-66.9,42.7-109.5,55.8c-40.8,12.5-85,19.2-127.7,19.2h-0.2c-48,0-94.6-9.4-138.5-28c-42.4-18-80.4-43.7-113.1-76.5
			c-32.7-32.8-58.4-71-76.3-113.5c-18.6-44-28-90.8-28-138.9c0-48.2,9.4-95,28-139c17.9-42.5,43.6-80.7,76.3-113.5
			c32.7-32.8,70.8-58.5,113.2-76.5C291.6,17.2,338.2,7.7,386.2,7.7 M386.2,0C185.4,0,22.5,163.3,22.5,364.7
			c0,201.4,162.8,364.7,363.6,364.7c0,0,0.1,0,0.2,0c86.3,0,179.7-26.5,242-76.7c82.9-66.8,121.7-172.9,121.7-288
			c0-22.4-1.6-44.3-4.7-65.7H599.9c0,0.1,0.1,0.3,0.1,0.3H394.7v139.8h203.4c-11.2,39.2-31.7,73.7-62.6,98.9
			c-37,30.2-92.7,46.2-144,46.2C271.9,584.3,175,486,175,364.7c0-121.2,97-219.6,216.5-219.6c54.2,0,108.9,19.8,147.4,53.2
			L643.1,96.6C578,36.2,481.7,0,386.2,0L386.2,0z"/>
	</g>
</g>
</svg>
