<?xml version="1.0" encoding="utf-8"?>
<!-- Generator: Adobe Illustrator 27.0.0, SVG Export Plug-In . SVG Version: 6.00 Build 0)  -->
<svg version="1.1" id="Layer_1" xmlns="http://www.w3.org/2000/svg" xmlns:xlink="http://www.w3.org/1999/xlink" x="0px" y="0px"
	 viewBox="0 0 3840 3840" style="enable-background:new 0 0 3840 3840;" xml:space="preserve">
<style type="text/css">
	.st0{fill:#FBBC05;}
	.st1{fill:#EA4335;}
	.st2{fill:#4285F4;}
	.st3{fill:#34A853;}
</style>
<g>
	<g>
		<path class="st0" d="M782,2026.8c-6.7-126,7.6-248.1,39.3-363.1l-659.3-457.6C45,1467.7-13.4,1760.4,2.6,2066.6
			C18.7,2373.3,107.9,2659,252,2907.5l617-499.2C819.4,2290.6,789.1,2162,782,2026.8z"/>
		<path class="st1" d="M1829.9,847.8c277.5-14,562.1,73.5,768.2,234.1L3103.5,535c-348.9-291.8-851.2-452.4-1339.6-427.4
			C1042.5,143.9,438.5,588,161.9,1206.1l658.9,457.6C945.7,1212.7,1342.7,872.8,1829.9,847.8z"/>
		<path class="st2" d="M3722.2,1878.5c-6.2-114.6-20.1-226.2-41.9-334.7l-743.2,37.6c0,0.4,0.4,0.9,0.4,1.7l-1049.7,52.9l37.5,714.8
			l1040.3-52.5c-45.9,203.4-142.3,385-293.5,521.9c-19.2,17.1-39.3,33.7-60.2,49.4l636.6,444.9
			C3603.6,2952.1,3751.7,2431.1,3722.2,1878.5z"/>
		<path class="st3" d="M1948.1,3093.9c-478.2,24.1-901.6-262.5-1079.1-685.1l-617,498.7c340.4,586.2,987.2,966.4,1708.6,930.1
			c440.8-22.3,911.8-182.4,1217-455c24.5-21.9,48.2-44.6,70.9-67.8l-636.6-445.4C2432.1,3003.7,2182.7,3082,1948.1,3093.9z"/>
	</g>
	<g>
		<path d="M1977.5,39.6c118.4,0,238.7,11.2,357.7,33.2c117.3,21.7,233.2,53.9,344.3,95.7c111.1,41.8,217.1,93.1,315.3,152.4
			c86.8,52.5,167.4,111.2,239.9,175L2757,962c-202-162.6-480.4-258.8-752.7-258.8c-633.1,0-1148.2,522.2-1148.2,1164
			s515.1,1164,1148.2,1164c289.2,0,574.2-91.8,762.5-245.6c159.1-129.7,271.5-306.7,333.8-526.1l14.4-50.5h-52.5h-1002v-636.4
			h1011.3h39.7v-1.8h669.9c12.6,96.5,19,196.1,19,296.8c0,145.8-12.5,288.3-37,423.6c-25,137.8-62.8,269.4-112.4,391.1
			c-50.9,124.9-114.7,240.8-189.7,344.5c-77.5,107.1-168.1,202.7-269.3,284.3c-75.7,61.1-162.9,116.7-259.1,165.4
			c-93,47-194.3,87.6-301.3,120.5c-208.9,64.3-435,98.2-654,98.2h-0.8c-123.6,0-247.1-12.5-367.1-37.1
			c-116.9-24-232-59.8-341.9-106.4c-107.9-45.8-212.1-102.5-309.5-168.5c-96.5-65.4-187.2-140.5-269.7-223.2
			c-82.5-82.7-157.3-173.7-222.5-270.5c-65.8-97.7-122.4-202.1-168-310.4c-46.5-110.3-82.2-225.7-106.2-343
			c-24.6-120.4-37-244.4-37-368.4c0-124.1,12.5-248,37.1-368.5c24-117.4,59.7-232.8,106.2-343.1c45.7-108.3,102.3-212.8,168.1-310.5
			c65.2-96.8,140.1-187.8,222.7-270.5c82.5-82.7,173.3-157.8,269.8-223.2c97.4-66,201.6-122.7,309.6-168.5
			c110-46.6,225.1-82.5,342-106.5C1730.3,52.1,1853.9,39.6,1977.5,39.6 M1977.5,0C949.3,0,115,836,115,1867.6
			c0,1031.3,833.8,1867.2,1861.7,1867.2c0.3,0,0.6,0,0.8,0c441.6,0,920.3-135.6,1239.3-392.9c424.7-342.1,623.2-885.5,623.2-1474.3
			c0-114.6-8-227.1-24.1-336.4h-744.5c0,0.4,0.4,1.3,0.4,1.8h-1051v715.7h1041.7c-57.1,200.8-162.4,377.1-320.7,506.2
			c-189.6,154.9-474.7,236.7-737.4,236.7c-612.1,0-1108.6-503.1-1108.6-1124.3c0-620.8,496.5-1124.3,1108.6-1124.3
			c277.5,0,557.6,101.5,754.8,272.6l533.5-520.6C2959.4,185.5,2466.5,0,1977.5,0L1977.5,0z"/>
	</g>
</g>
</svg>
