<?xml version="1.0" encoding="utf-8"?>
<!-- Generator: Adobe Illustrator 27.0.0, SVG Export Plug-In . SVG Version: 6.00 Build 0)  -->
<svg version="1.1" id="Layer_1" xmlns="http://www.w3.org/2000/svg" xmlns:xlink="http://www.w3.org/1999/xlink" x="0px" y="0px"
	 viewBox="0 0 1920 1920" style="enable-background:new 0 0 1920 1920;" xml:space="preserve">
<style type="text/css">
	.st0{fill:#FBBC05;}
	.st1{fill:#EA4335;}
	.st2{fill:#4285F4;}
	.st3{fill:#34A853;}
</style>
<g>
	<g>
		<path class="st0" d="M391,1013.4c-3.3-63,3.8-124,19.6-181.6L80.9,603C22.5,733.9-6.7,880.2,1.3,1033.3
			c8,153.3,52.6,296.2,124.7,420.4l308.5-249.6C409.7,1145.3,394.6,1081,391,1013.4z"/>
		<path class="st1" d="M914.9,423.9c138.7-7,281,36.7,384.1,117l252.7-273.4C1377.3,121.6,1126.2,41.3,881.9,53.8
			C521.2,71.9,219.2,294,80.9,603l329.4,228.8C472.8,606.3,671.4,436.4,914.9,423.9z"/>
		<path class="st2" d="M1861.1,939.3c-3.1-57.3-10-113.1-21-167.3l-371.6,18.8c0,0.2,0.2,0.4,0.2,0.9l-524.8,26.5l18.7,357.4
			l520.2-26.2c-23,101.7-71.2,192.5-146.8,261c-9.6,8.5-19.6,16.8-30.1,24.7l318.3,222.5C1801.8,1476,1875.8,1215.5,1861.1,939.3z"
			/>
		<path class="st3" d="M974,1546.9c-239.1,12-450.8-131.2-539.6-342.5L126,1453.7c170.2,293.1,493.6,483.2,854.3,465
			c220.4-11.2,455.9-91.2,608.5-227.5c12.3-10.9,24.1-22.3,35.5-33.9l-318.3-222.7C1216.1,1501.9,1091.4,1541,974,1546.9z"/>
	</g>
	<g>
		<path d="M988.8,19.8c59.2,0,119.4,5.6,178.8,16.6c58.7,10.8,116.6,26.9,172.1,47.9c55.5,20.9,108.6,46.5,157.7,76.2
			c43.4,26.2,83.7,55.6,119.9,87.5l-238.8,233c-101-81.3-240.2-129.4-376.4-129.4c-316.6,0-574.1,261.1-574.1,582
			s257.5,582,574.1,582c144.6,0,287.1-45.9,381.2-122.8c79.6-64.8,135.7-153.3,166.9-263l7.2-25.3h-26.3h-501V786.3h505.7h19.8v-0.9
			h334.9c6.3,48.2,9.5,98.1,9.5,148.4c0,72.9-6.2,144.1-18.5,211.8c-12.5,68.9-31.4,134.7-56.2,195.6
			c-25.4,62.4-57.3,120.4-94.9,172.2c-38.8,53.6-84.1,101.4-134.7,142.1c-37.9,30.5-81.5,58.4-129.5,82.7
			c-46.5,23.5-97.2,43.8-150.6,60.2c-104.4,32.1-217.5,49.1-327,49.1h-0.4c-61.8,0-123.6-6.2-183.6-18.6c-58.5-12-116-29.9-171-53.2
			c-54-22.9-106-51.2-154.7-84.2c-48.2-32.7-93.6-70.2-134.8-111.6c-41.2-41.4-78.7-86.9-111.3-135.2
			c-32.9-48.8-61.2-101.1-84-155.2c-23.3-55.1-41.1-112.8-53.1-171.5c-12.3-60.2-18.5-122.2-18.5-184.2c0-62,6.2-124,18.5-184.2
			c12-58.7,29.9-116.4,53.1-171.6c22.8-54.2,51.1-106.4,84.1-155.2c32.6-48.4,70.1-93.9,111.3-135.3
			c41.3-41.4,86.6-78.9,134.9-111.6c48.7-33,100.8-61.3,154.8-84.3c55-23.3,112.5-41.2,171-53.2C865.2,26.1,926.9,19.8,988.8,19.8
			 M988.8,0C474.6,0,57.5,418,57.5,933.8c0,515.7,416.9,933.6,930.8,933.6c0.1,0,0.3,0,0.4,0c220.8,0,460.2-67.8,619.6-196.4
			c212.3-171.1,311.6-442.7,311.6-737.2c0-57.3-4-113.5-12-168.2h-372.3c0,0.2,0.2,0.7,0.2,0.9h-525.5v357.9h520.8
			c-28.6,100.4-81.2,188.6-160.4,253.1c-94.8,77.4-237.3,118.3-368.7,118.3c-306,0-554.3-251.6-554.3-562.2
			c0-310.4,248.3-562.2,554.3-562.2c138.7,0,278.8,50.7,377.4,136.3l266.8-260.3C1479.7,92.7,1233.2,0,988.8,0L988.8,0z"/>
	</g>
</g>
</svg>
