<?xml version="1.0" encoding="utf-8"?>
<!-- Generator: Adobe Illustrator 27.0.0, SVG Export Plug-In . SVG Version: 6.00 Build 0)  -->
<svg version="1.1" id="Layer_1" xmlns="http://www.w3.org/2000/svg" xmlns:xlink="http://www.w3.org/1999/xlink" x="0px" y="0px"
	 viewBox="0 0 1000 1000" style="enable-background:new 0 0 1000 1000;" xml:space="preserve">
<style type="text/css">
	.st0{fill:#FBBC05;}
	.st1{fill:#EA4335;}
	.st2{fill:#4285F4;}
	.st3{fill:#34A853;}
	.st4{fill:none;stroke:#000000;stroke-width:8.9801;stroke-miterlimit:10;}
</style>
<g>
	<g>
		<path class="st0" d="M244.9,524.4c-1.5-28.8,1.7-56.7,8.8-83L105.9,336.8c-26.2,59.8-39.3,126.7-35.7,196.7
			c3.6,70.1,23.6,135.4,55.9,192.2l138.3-114.1C253.3,584.7,246.5,555.3,244.9,524.4z"/>
		<path class="st1" d="M479.8,254.9c62.2-3.2,126,16.8,172.2,53.5l113.3-125C687.1,116.7,574.5,80,465,85.7
			C303.3,94,167.9,195.5,105.9,336.8l147.7,104.6C281.6,338.3,370.6,260.6,479.8,254.9z"/>
		<path class="st2" d="M904,490.5c-1.4-26.2-4.5-51.7-9.4-76.5L728,422.6c0,0.1,0.1,0.2,0.1,0.4l-235.3,12.1l8.4,163.4l233.2-12
			c-10.3,46.5-31.9,88-65.8,119.3c-4.3,3.9-8.8,7.7-13.5,11.3l142.7,101.7C877.4,735.9,910.6,616.8,904,490.5z"/>
		<path class="st3" d="M506.3,768.3c-107.2,5.5-202.1-60-241.9-156.6l-138.3,114c76.3,134,221.3,220.9,383,212.6
			c98.8-5.1,204.4-41.7,272.8-104c5.5-5,10.8-10.2,15.9-15.5L655.1,717C614.8,747.7,558.9,765.6,506.3,768.3z"/>
	</g>
	<path class="st4" d="M930.4,488c0,134.6-44.5,258.8-139.7,337c-71.5,58.8-178.8,89.8-277.8,89.8C282.4,914.9,95.4,723.8,95.4,488
		s187-426.9,417.5-426.9c109.6,0,220.1,42.4,294.8,113.1l-119.6,119c-44.2-39.1-107-62.3-169.2-62.3c-137.2,0-248.5,115.1-248.5,257
		c0,142,111.3,257,248.5,257c58.9,0,122.8-18.7,165.3-54.1c35.5-29.5,59.1-69.8,71.9-115.7H522.6V411.5h235.6c0-0.1-0.1-0.3-0.1-0.4
		H925C928.6,436.1,930.4,461.8,930.4,488z"/>
</g>
</svg>
