<?xml version="1.0" encoding="utf-8"?>
<!-- Generator: Adobe Illustrator 27.0.0, SVG Export Plug-In . SVG Version: 6.00 Build 0)  -->
<svg version="1.1" id="Layer_1" xmlns="http://www.w3.org/2000/svg" xmlns:xlink="http://www.w3.org/1999/xlink" x="0px" y="0px"
	 viewBox="0 0 2048 2048" style="enable-background:new 0 0 2048 2048;" xml:space="preserve">
<style type="text/css">
	.st0{fill:#FBBC05;}
	.st1{fill:#EA4335;}
	.st2{fill:#4285F4;}
	.st3{fill:#34A853;}
</style>
<g>
	<g>
		<path class="st0" d="M417.1,1081c-3.6-67.2,4-132.3,20.9-193.7L86.3,643.2C24,782.8-7.2,938.9,1.4,1102.2
			c8.6,163.6,56.1,315.9,133,448.5l329-266.2C437,1221.7,420.9,1153.1,417.1,1081z"/>
		<path class="st1" d="M975.9,452.2c148-7.5,299.8,39.2,409.7,124.8l269.6-291.7c-186.1-155.6-454-241.3-714.5-228
			C556,76.7,233.9,313.6,86.3,643.2l351.4,244.1C504.4,646.7,716.1,465.5,975.9,452.2z"/>
		<path class="st2" d="M1985.2,1001.9c-3.3-61.1-10.7-120.6-22.4-178.5l-396.4,20.1c0,0.2,0.2,0.5,0.2,0.9l-559.8,28.2l20,381.3
			l554.8-28c-24.5,108.5-75.9,205.3-156.6,278.4c-10.2,9.1-20.9,18-32.1,26.4l339.5,237.3
			C1921.9,1574.4,2000.9,1296.6,1985.2,1001.9z"/>
		<path class="st3" d="M1039,1650c-255.1,12.8-480.8-140-575.5-365.4l-329,266c181.5,312.7,526.5,515.4,911.2,496
			c235.1-11.9,486.3-97.3,649.1-242.7c13.1-11.7,25.7-23.8,37.8-36.2L1393,1530.4C1297.1,1602,1164.1,1643.7,1039,1650z"/>
	</g>
	<g>
		<path d="M1054.7,21.1c63.1,0,127.3,5.9,190.8,17.7c62.6,11.6,124.3,28.7,183.6,51c59.2,22.3,115.8,49.6,168.2,81.3
			c46.3,28,89.3,59.3,127.9,93.3L1470.4,513c-107.7-86.7-256.2-138-401.5-138c-337.7,0-612.4,278.5-612.4,620.8
			s274.7,620.8,612.4,620.8c154.2,0,306.2-49,406.7-131c84.9-69.2,144.8-163.6,178.1-280.6l7.7-26.9h-28h-534.4V838.7h539.4h21.2
			v-0.9h357.3c6.7,51.5,10.1,104.6,10.1,158.3c0,77.7-6.6,153.7-19.7,225.9c-13.3,73.5-33.5,143.7-59.9,208.6
			c-27.1,66.6-61.2,128.4-101.2,183.7c-41.3,57.1-89.7,108.1-143.6,151.6c-40.4,32.6-86.9,62.3-138.2,88.2
			c-49.6,25.1-103.6,46.7-160.7,64.2c-111.4,34.3-232,52.4-348.8,52.4h-0.4c-65.9,0-131.8-6.7-195.8-19.8
			c-62.4-12.8-123.7-31.9-182.3-56.8c-57.6-24.4-113.1-54.6-165-89.8c-51.5-34.9-99.9-74.9-143.8-119
			c-44-44.1-83.9-92.6-118.7-144.3c-35.1-52.1-65.3-107.8-89.6-165.6c-24.8-58.8-43.9-120.4-56.6-182.9
			c-13.1-64.2-19.8-130.3-19.8-196.5c0-66.2,6.6-132.3,19.8-196.5c12.8-62.6,31.8-124.2,56.7-183c24.4-57.8,54.5-113.5,89.7-165.6
			c34.8-51.6,74.7-100.2,118.7-144.3c44-44.1,92.4-84.2,143.9-119c52-35.2,107.5-65.4,165.1-89.9c58.7-24.9,120-44,182.4-56.8
			C922.8,27.8,988.7,21.1,1054.7,21.1 M1054.7,0C506.3,0,61.4,445.9,61.4,996c0,550,444.7,995.8,992.9,995.8c0.1,0,0.3,0,0.4,0
			c235.5,0,490.8-72.3,660.9-209.5C1942.1,1599.9,2048,1310.1,2048,996c0-61.1-4.3-121.1-12.8-179.4h-397.1c0,0.2,0.2,0.7,0.2,0.9
			h-560.5v381.7h555.5c-30.5,107.1-86.6,201.1-171.1,270c-101.1,82.6-253.1,126.2-393.3,126.2c-326.4,0-591.2-268.3-591.2-599.6
			c0-331.1,264.8-599.6,591.2-599.6c148,0,297.4,54.1,402.6,145.4l284.6-277.7C1578.3,98.9,1315.4,0,1054.7,0L1054.7,0z"/>
	</g>
</g>
</svg>
