<?xml version="1.0" encoding="utf-8"?>
<!-- Generator: Adobe Illustrator 27.0.0, SVG Export Plug-In . SVG Version: 6.00 Build 0)  -->
<svg version="1.1" id="Layer_1" xmlns="http://www.w3.org/2000/svg" xmlns:xlink="http://www.w3.org/1999/xlink" x="0px" y="0px"
	 viewBox="0 0 640 640" style="enable-background:new 0 0 640 640;" xml:space="preserve">
<style type="text/css">
	.st0{fill:#FBBC05;}
	.st1{fill:#EA4335;}
	.st2{fill:#4285F4;}
	.st3{fill:#34A853;}
</style>
<g>
	<g>
		<path class="st0" d="M130.3,337.8c-1.1-21,1.3-41.3,6.5-60.5L27,201C7.5,244.6-2.2,293.4,0.4,344.4C3.1,395.5,18,443.1,42,484.6
			l102.8-83.2C136.6,381.8,131.5,360.3,130.3,337.8z"/>
		<path class="st1" d="M305,141.3c46.2-2.3,93.7,12.2,128,39l84.2-91.1C459.1,40.5,375.4,13.8,294,17.9C173.8,24,73.1,98,27,201
			l109.8,76.3C157.6,202.1,223.8,145.4,305,141.3z"/>
		<path class="st2" d="M620.4,313.1c-1-19.1-3.3-37.7-7-55.8l-123.9,6.3c0,0.1,0.1,0.1,0.1,0.3l-174.9,8.8l6.2,119.1l173.4-8.7
			c-7.7,33.9-23.7,64.2-48.9,87c-3.2,2.8-6.5,5.6-10,8.2l106.1,74.2C600.6,492,625.3,405.2,620.4,313.1z"/>
		<path class="st3" d="M324.7,515.6c-79.7,4-150.3-43.7-179.9-114.2L42,484.6c56.7,97.7,164.5,161.1,284.8,155
			c73.5-3.7,152-30.4,202.8-75.8c4.1-3.6,8-7.4,11.8-11.3l-106.1-74.2C405.4,500.6,363.8,513.7,324.7,515.6z"/>
	</g>
	<g>
		<path d="M329.6,6.6c77.5,0,155.2,28.3,209.5,76l-79.6,77.7c-33.7-27.1-80.1-43.1-125.5-43.1c-105.5,0-191.4,87-191.4,194
			s85.8,194,191.4,194c48.2,0,95.7-15.3,127.1-40.9c26.5-21.6,45.2-51.1,55.6-87.7l2.4-8.4h-8.8h-167V262.1H512h6.6v-0.3h111.6
			c2.1,16.1,3.2,32.7,3.2,49.5c0,102.5-36,187.9-101.4,240.6c-24.8,20-57.1,36.5-93.4,47.6c-34.8,10.7-72.5,16.4-109,16.4h-0.1
			c-41,0-80.7-8.1-118.2-23.9c-36.2-15.3-68.6-37.3-96.5-65.3c-27.9-28-49.8-60.5-65.1-96.8c-15.8-37.6-23.9-77.4-23.9-118.6
			c0-41.1,8-81,23.9-118.6c15.3-36.3,37.2-68.9,65.1-96.8c27.9-28,60.4-49.9,96.6-65.3C248.8,14.6,288.6,6.6,329.6,6.6 M329.6,0
			C158.2,0,19.2,139.3,19.2,311.2c0,171.9,139,311.2,310.3,311.2c0,0,0.1,0,0.1,0c73.6,0,153.4-22.6,206.5-65.5
			c70.8-57,103.9-147.6,103.9-245.7c0-19.1-1.3-37.8-4-56.1H511.9c0,0.1,0.1,0.2,0.1,0.3H336.8v119.3h173.6
			c-9.5,33.5-27.1,62.9-53.5,84.4c-31.6,25.8-79.1,39.4-122.9,39.4c-102,0-184.8-83.9-184.8-187.4c0-103.5,82.8-187.4,184.8-187.4
			c46.2,0,92.9,16.9,125.8,45.4l88.9-86.8C493.2,30.9,411.1,0,329.6,0L329.6,0z"/>
	</g>
</g>
</svg>
