<?xml version="1.0" encoding="utf-8"?>
<!-- Generator: Adobe Illustrator 27.0.0, SVG Export Plug-In . SVG Version: 6.00 Build 0)  -->
<svg version="1.1" id="Layer_1" xmlns="http://www.w3.org/2000/svg" xmlns:xlink="http://www.w3.org/1999/xlink" x="0px" y="0px"
	 viewBox="0 0 3840 1611" style="enable-background:new 0 0 3840 1611;" xml:space="preserve">
<style type="text/css">
	.st0{fill:#833AB4;}
	.st1{fill:#EFBF04;}
</style>
<g>
	<path class="st0" d="M3840,703.1v80.8c0,388.4-314.3,703.1-702.2,703.1H702.6c-20.8,0-41.5-0.8-61.9-2.8L71.5,1611l82.3-388
		C57.5,1102.7,0,950.3,0,784.3v-80.8C0,314.8,314.7,0,702.6,0h2435.2C3525.7,0,3840,314.8,3840,703.1z"/>
	<g>
		<polygon class="st1" points="697,501.5 775.3,661.1 951,686.7 824,810.7 854,985.9 697,903.1 539.6,985.9 569.6,810.7 
			442.6,686.7 618.3,661.1 		"/>
		<polygon class="st1" points="1308.5,501.5 1387.2,661.1 1562.5,686.7 1435.5,810.7 1465.5,985.9 1308.5,903.1 1151.5,985.9 
			1181.5,810.7 1054.1,686.7 1229.8,661.1 		"/>
		<polygon class="st1" points="1920,501.5 1998.7,661.1 2174.4,686.7 2047.4,810.7 2077.4,985.9 1920,903.1 1763,985.9 1793,810.7 
			1666,686.7 1841.7,661.1 		"/>
		<polygon class="st1" points="2531.9,501.5 2610.2,661.1 2785.9,686.7 2658.9,810.7 2688.9,985.9 2531.9,903.1 2374.5,985.9 
			2404.5,810.7 2277.5,686.7 2453.2,661.1 		"/>
		<polygon class="st1" points="3143.4,501.5 3222.1,661.1 3397.8,686.7 3270.4,810.7 3300.8,985.9 3143.4,903.1 2986.4,985.9 
			3016.4,810.7 2889.4,686.7 3064.7,661.1 		"/>
	</g>
</g>
</svg>
