<?xml version="1.0" encoding="utf-8"?>
<!-- Generator: Adobe Illustrator 27.0.0, SVG Export Plug-In . SVG Version: 6.00 Build 0)  -->
<svg version="1.1" id="Layer_1" xmlns="http://www.w3.org/2000/svg" xmlns:xlink="http://www.w3.org/1999/xlink" x="0px" y="0px"
	 viewBox="0 0 828 347" style="enable-background:new 0 0 828 347;" xml:space="preserve">
<style type="text/css">
	.st0{fill:#833AB4;}
	.st1{fill:#EFBF04;}
</style>
<g>
	<path class="st0" d="M828,151.4v17.4c0,83.6-67.8,151.4-151.4,151.4H151.5c-4.5,0-9-0.2-13.3-0.6L15.4,347l17.7-83.6
		C12.4,237.5,0,204.7,0,168.9v-17.4C0,67.8,67.9,0,151.5,0h525.1C760.2,0,828,67.8,828,151.4z"/>
	<g>
		<polygon class="st1" points="150.3,108 167.2,142.4 205.1,147.9 177.7,174.6 184.1,212.4 150.3,194.5 116.4,212.4 122.8,174.6 
			95.4,147.9 133.3,142.4 		"/>
		<polygon class="st1" points="282.1,108 299.1,142.4 336.9,147.9 309.5,174.6 316,212.4 282.1,194.5 248.3,212.4 254.8,174.6 
			227.3,147.9 265.2,142.4 		"/>
		<polygon class="st1" points="414,108 431,142.4 468.9,147.9 441.5,174.6 447.9,212.4 414,194.5 380.2,212.4 386.6,174.6 
			359.2,147.9 397.1,142.4 		"/>
		<polygon class="st1" points="545.9,108 562.8,142.4 600.7,147.9 573.3,174.6 579.8,212.4 545.9,194.5 512,212.4 518.5,174.6 
			491.1,147.9 529,142.4 		"/>
		<polygon class="st1" points="677.8,108 694.8,142.4 732.7,147.9 705.2,174.6 711.7,212.4 677.8,194.5 644,212.4 650.4,174.6 
			623,147.9 660.8,142.4 		"/>
	</g>
</g>
</svg>
