<?xml version="1.0" encoding="utf-8"?>
<!-- Generator: Adobe Illustrator 27.0.0, SVG Export Plug-In . SVG Version: 6.00 Build 0)  -->
<svg version="1.1" id="Layer_1" xmlns="http://www.w3.org/2000/svg" xmlns:xlink="http://www.w3.org/1999/xlink" x="0px" y="0px"
	 viewBox="0 0 2048 859" style="enable-background:new 0 0 2048 859;" xml:space="preserve">
<style type="text/css">
	.st0{fill:#833AB4;}
	.st1{fill:#EFBF04;}
</style>
<g>
	<path class="st0" d="M2048,374.9V418c0,207.1-167.6,374.9-374.5,374.9H374.7c-11.1,0-22.2-0.4-33-1.5L38.1,859L82,652.1
		C30.7,588,0,506.7,0,418.2v-43.1C0,167.8,167.9,0,374.7,0h1298.8C1880.4,0,2048,167.8,2048,374.9z"/>
	<g>
		<polygon class="st1" points="371.7,267.4 413.5,352.5 507.2,366.2 439.5,432.3 455.4,525.7 371.7,481.5 287.8,525.7 303.8,432.3 
			236,366.2 329.8,352.5 		"/>
		<polygon class="st1" points="697.9,267.4 739.8,352.5 833.3,366.2 765.6,432.3 781.6,525.7 697.9,481.5 614.1,525.7 630.1,432.3 
			562.2,366.2 655.9,352.5 		"/>
		<polygon class="st1" points="1024,267.4 1066,352.5 1159.7,366.2 1092,432.3 1107.9,525.7 1024,481.5 940.3,525.7 956.3,432.3 
			888.5,366.2 982.2,352.5 		"/>
		<polygon class="st1" points="1350.4,267.4 1392.1,352.5 1485.8,366.2 1418.1,432.3 1434.1,525.7 1350.4,481.5 1266.4,525.7 
			1282.4,432.3 1214.7,366.2 1308.4,352.5 		"/>
		<polygon class="st1" points="1676.5,267.4 1718.5,352.5 1812.2,366.2 1744.2,432.3 1760.4,525.7 1676.5,481.5 1592.8,525.7 
			1608.7,432.3 1541,366.2 1634.5,352.5 		"/>
	</g>
</g>
</svg>
