<?xml version="1.0" encoding="utf-8"?>
<!-- Generator: Adobe Illustrator 27.0.0, SVG Export Plug-In . SVG Version: 6.00 Build 0)  -->
<svg version="1.1" id="Layer_1" xmlns="http://www.w3.org/2000/svg" xmlns:xlink="http://www.w3.org/1999/xlink" x="0px" y="0px"
	 viewBox="0 0 1920 805" style="enable-background:new 0 0 1920 805;" xml:space="preserve">
<style type="text/css">
	.st0{fill:#833AB4;}
	.st1{fill:#EFBF04;}
</style>
<g>
	<path class="st0" d="M1920,351.3v40.4c0,194.1-157.2,351.3-351.1,351.3H351.3c-10.4,0-20.8-0.4-31-1.4L35.7,805l41.1-193.9
		C28.8,551,0,474.8,0,391.9v-40.4C0,157.3,157.4,0,351.3,0h1217.6C1762.8,0,1920,157.3,1920,351.3z"/>
	<g>
		<polygon class="st1" points="348.5,250.6 387.6,330.4 475.5,343.1 412,405.1 427,492.6 348.5,451.3 269.8,492.6 284.8,405.1 
			221.3,343.1 309.1,330.4 		"/>
		<polygon class="st1" points="654.2,250.6 693.6,330.4 781.3,343.1 717.8,405.1 732.7,492.6 654.2,451.3 575.8,492.6 590.7,405.1 
			527,343.1 614.9,330.4 		"/>
		<polygon class="st1" points="960,250.6 999.3,330.4 1087.2,343.1 1023.7,405.1 1038.7,492.6 960,451.3 881.5,492.6 896.5,405.1 
			833,343.1 920.9,330.4 		"/>
		<polygon class="st1" points="1266,250.6 1305.1,330.4 1393,343.1 1329.5,405.1 1344.4,492.6 1266,451.3 1187.3,492.6 
			1202.2,405.1 1138.7,343.1 1226.6,330.4 		"/>
		<polygon class="st1" points="1571.7,250.6 1611.1,330.4 1698.9,343.1 1635.2,405.1 1650.4,492.6 1571.7,451.3 1493.2,492.6 
			1508.2,405.1 1444.7,343.1 1532.4,330.4 		"/>
	</g>
</g>
</svg>
