<svg width="270" height="270" viewBox="0 0 270 270" fill="none" xmlns="http://www.w3.org/2000/svg">
<g clip-path="url(#clip0_1709_17160)">
<path d="M188.338 39.4174L55.7453 49.0209C35.8775 50.4599 20.938 67.7323 22.377 87.6001L31.9805 220.193C33.4194 240.06 50.6921 255 70.5598 253.561L203.153 243.958C223.021 242.519 237.96 225.246 236.521 205.378L226.918 72.7856C225.479 52.9178 208.206 37.9785 188.338 39.4174Z" fill="#FF4B00"/>
<path d="M201.768 237.836H68.8278C59.262 237.836 50.0879 234.036 43.3239 227.272C36.5598 220.508 32.7598 211.334 32.7598 201.768V68.7992C32.7598 64.064 33.6929 59.3757 35.5058 55.0014C37.3188 50.627 39.976 46.6527 43.3256 43.3058C46.6752 39.9588 50.6515 37.3046 55.0273 35.4951C59.4032 33.6856 64.0926 32.756 68.8278 32.7598H201.768C206.503 32.756 211.193 33.6856 215.569 35.4951C219.944 37.3046 223.921 39.9588 227.27 43.3058C230.62 46.6527 233.277 50.627 235.09 55.0014C236.903 59.3757 237.836 64.064 237.836 68.7992V201.768C237.836 211.334 234.036 220.508 227.272 227.272C220.508 234.036 211.334 237.836 201.768 237.836ZM181.888 135.596C181.888 144.909 179.127 154.013 173.953 161.757C168.779 169.5 161.425 175.535 152.82 179.099C144.216 182.663 134.749 183.596 125.615 181.779C116.481 179.962 108.091 175.477 101.505 168.892C94.92 162.307 90.4354 153.916 88.6185 144.782C86.8017 135.648 87.7342 126.181 91.2981 117.577C94.862 108.973 100.897 101.619 108.641 96.4448C116.384 91.2708 125.488 88.5093 134.801 88.5093C140.985 88.4944 147.111 89.6971 152.829 92.0496C158.548 94.4022 163.747 97.8586 168.13 102.221C172.513 106.582 175.994 111.764 178.374 117.472C180.754 123.179 181.987 129.299 182.002 135.482L181.888 135.596Z" stroke="black" stroke-width="3" stroke-miterlimit="10"/>
<path d="M195.691 88.14C203.267 88.14 209.408 81.9986 209.408 74.4228C209.408 66.847 203.267 60.7056 195.691 60.7056C188.115 60.7056 181.974 66.847 181.974 74.4228C181.974 81.9986 188.115 88.14 195.691 88.14Z" stroke="black" stroke-width="3" stroke-miterlimit="10"/>
</g>
<defs>
<clipPath id="clip0_1709_17160">
<rect width="270" height="270" fill="white"/>
</clipPath>
</defs>
</svg>
