<?xml version="1.0" encoding="utf-8"?>
<!-- Generator: Adobe Illustrator 27.0.0, SVG Export Plug-In . SVG Version: 6.00 Build 0)  -->
<svg version="1.1" id="Layer_1" xmlns="http://www.w3.org/2000/svg" xmlns:xlink="http://www.w3.org/1999/xlink" x="0px" y="0px"
	 viewBox="0 0 1200 503" style="enable-background:new 0 0 1200 503;" xml:space="preserve">
<style type="text/css">
	.st0{fill:#833AB4;}
	.st1{fill:#EFBF04;}
</style>
<g>
	<path class="st0" d="M1200,219.5v25.2c0,121.3-98.2,219.5-219.4,219.5h-761c-6.5,0-13-0.2-19.3-0.9L22.3,503l25.7-121.1
		C18,344.3,0,296.7,0,244.9v-25.2C0,98.3,98.4,0,219.6,0h761C1101.8,0,1200,98.3,1200,219.5z"/>
	<g>
		<polygon class="st1" points="217.8,156.6 242.3,206.4 297.2,214.4 257.5,253.1 266.9,307.8 217.8,282 168.6,307.8 178,253.1 
			138.3,214.4 193.2,206.4 		"/>
		<polygon class="st1" points="408.9,156.6 433.5,206.4 488.3,214.4 448.6,253.1 458,307.8 408.9,282 359.9,307.8 369.2,253.1 
			329.4,214.4 384.3,206.4 		"/>
		<polygon class="st1" points="600,156.6 624.6,206.4 679.5,214.4 639.8,253.1 649.2,307.8 600,282 550.9,307.8 560.3,253.1 
			520.6,214.4 575.5,206.4 		"/>
		<polygon class="st1" points="791.2,156.6 815.7,206.4 870.6,214.4 830.9,253.1 840.3,307.8 791.2,282 742,307.8 751.4,253.1 
			711.7,214.4 766.6,206.4 		"/>
		<polygon class="st1" points="982.3,156.6 1006.9,206.4 1061.8,214.4 1022,253.1 1031.5,307.8 982.3,282 933.3,307.8 942.6,253.1 
			902.9,214.4 957.7,206.4 		"/>
	</g>
</g>
</svg>
