<?xml version="1.0" encoding="utf-8"?>
<!-- Generator: Adobe Illustrator 27.0.0, SVG Export Plug-In . SVG Version: 6.00 Build 0)  -->
<svg version="1.1" id="Layer_1" xmlns="http://www.w3.org/2000/svg" xmlns:xlink="http://www.w3.org/1999/xlink" x="0px" y="0px"
	 viewBox="0 0 640 268" style="enable-background:new 0 0 640 268;" xml:space="preserve">
<style type="text/css">
	.st0{fill:#833AB4;}
	.st1{fill:#EFBF04;}
</style>
<g>
	<path class="st0" d="M640,117v13.4c0,64.6-52.4,117-117,117H117.1c-3.5,0-6.9-0.1-10.3-0.5L11.9,268l13.7-64.5
		c-16-20-25.6-45.4-25.6-73V117C0,52.4,52.5,0,117.1,0H523C587.6,0,640,52.4,640,117z"/>
	<g>
		<polygon class="st1" points="116.2,83.4 129.2,110 158.5,114.2 137.3,134.9 142.3,164 116.2,150.2 89.9,164 94.9,134.9 
			73.8,114.2 103,110 		"/>
		<polygon class="st1" points="218.1,83.4 231.2,110 260.4,114.2 239.3,134.9 244.2,164 218.1,150.2 191.9,164 196.9,134.9 
			175.7,114.2 205,110 		"/>
		<polygon class="st1" points="320,83.4 333.1,110 362.4,114.2 341.2,134.9 346.2,164 320,150.2 293.8,164 298.8,134.9 277.7,114.2 
			307,110 		"/>
		<polygon class="st1" points="422,83.4 435,110 464.3,114.2 443.2,134.9 448.1,164 422,150.2 395.8,164 400.7,134.9 379.6,114.2 
			408.9,110 		"/>
		<polygon class="st1" points="523.9,83.4 537,110 566.3,114.2 545.1,134.9 550.1,164 523.9,150.2 497.7,164 502.7,134.9 
			481.6,114.2 510.8,110 		"/>
	</g>
</g>
</svg>
