<?xml version="1.0" encoding="utf-8"?>
<!-- Generator: Adobe Illustrator 27.0.0, SVG Export Plug-In . SVG Version: 6.00 Build 0)  -->
<svg version="1.1" id="Layer_1" xmlns="http://www.w3.org/2000/svg" xmlns:xlink="http://www.w3.org/1999/xlink" x="0px" y="0px"
	 viewBox="0 0 750 314" style="enable-background:new 0 0 750 314;" xml:space="preserve">
<style type="text/css">
	.st0{fill:#833AB4;}
	.st1{fill:#EFBF04;}
</style>
<g>
	<path class="st0" d="M750,137v15.7c0,75.7-61.4,137-137.1,137H137.2c-4.1,0-8.1-0.2-12.1-0.5L14,314L30,238.4
		c-18.8-23.5-30-53.2-30-85.5v-15.7C0,61.4,61.5,0,137.2,0h475.6C688.6,0,750,61.4,750,137z"/>
	<g>
		<polygon class="st1" points="136.1,97.8 151.4,128.9 185.7,133.8 160.9,158 166.8,192.2 136.1,176 105.4,192.2 111.2,158 
			86.4,133.8 120.8,128.9 		"/>
		<polygon class="st1" points="255.6,97.8 270.9,128.9 305.2,133.8 280.4,158 286.2,192.2 255.6,176 224.9,192.2 230.8,158 
			205.9,133.8 240.2,128.9 		"/>
		<polygon class="st1" points="375,97.8 390.4,128.9 424.7,133.8 399.9,158 405.7,192.2 375,176 344.3,192.2 350.2,158 325.4,133.8 
			359.7,128.9 		"/>
		<polygon class="st1" points="494.5,97.8 509.8,128.9 544.1,133.8 519.3,158 525.2,192.2 494.5,176 463.8,192.2 469.6,158 
			444.8,133.8 479.1,128.9 		"/>
		<polygon class="st1" points="613.9,97.8 629.3,128.9 663.6,133.8 638.8,158 644.7,192.2 613.9,176 583.3,192.2 589.1,158 
			564.3,133.8 598.6,128.9 		"/>
	</g>
</g>
</svg>
