<?xml version="1.0" encoding="utf-8"?>
<!-- Generator: Adobe Illustrator 27.0.0, SVG Export Plug-In . SVG Version: 6.00 Build 0)  -->
<svg version="1.1" id="Layer_1" xmlns="http://www.w3.org/2000/svg" xmlns:xlink="http://www.w3.org/1999/xlink" x="0px" y="0px"
	 viewBox="0 0 1920 1965" style="enable-background:new 0 0 1920 1965;" xml:space="preserve">
<style type="text/css">
	.st0{fill:url(#SVGID_1_);}
	.st1{fill:#00F6FF;}
	.st2{fill:none;stroke:#000000;stroke-width:18.5931;stroke-linecap:round;stroke-linejoin:round;stroke-miterlimit:10;}
</style>
<g>
	
		<linearGradient id="SVGID_1_" gradientUnits="userSpaceOnUse" x1="960" y1="1971.577" x2="960" y2="91.1428" gradientTransform="matrix(1 0 0 -1 0 1965)">
		<stop  offset="0" style="stop-color:#00B1FF"/>
		<stop  offset="1" style="stop-color:#006FFF"/>
	</linearGradient>
	<path class="st0" d="M1914.8,1025.1c-55.2,509.8-483.3,951.3-1012.2,904.4c-120.8-10.6-235.4-42.8-340.2-91.9
		c-29.4,25.1-61.3,46.9-95.7,65.1c-66.7,35.5-140.1,56.7-215.4,62.3c37.5-56.2,63-119.2,74.9-185.4c5.2-29.6,7.8-59.7,7.6-89.6
		C111.5,1499.7-22.3,1217,3.1,914.4C49.8,348.1,473.8-42.8,1003.2,3.7C1531.9,50.7,1973.4,476.6,1914.8,1025.1z"/>
	<path class="st1" d="M1771.8,698.5c0.9,8-8.2,13.4-14.7,8.4L1603,591.5c-3.5-2.6-6.9-5-10.4-7.4l-234.1,453.6
		c-8.2,16-25.8,25.1-43.7,22.7l-419.2-58c-16.5-2.4-32.9,5.4-41.8,19.5L526.6,1540c-12.6,19.9-38.8,25.7-58.7,13.2l-3-1.9
		c-19.9-12.5-25.8-38.7-13.2-58.6l357.7-566.5c8.9-14.1,25.3-21.6,41.8-19.5l413.6,57.1c18,2.6,35.5-6.7,43.7-22.7l203.1-393.9
		c-6.1-1.7-12.3-3-18.6-4.3l-202-38.7c-8-1.5-10.2-11.7-3.7-16.7l412.5-304.3c5.8-4.3,13.9-0.6,14.7,6.5L1771.8,698.5z"/>
	<path class="st2" d="M1806.5,722.8l-166.7-134.3c-3.2-2.6-6.7-5.2-10.2-7.8l-249.7,444.9c-8.9,15.8-26.6,24.2-44.4,21.2l-417-72.5
		c-16.5-2.8-33.1,4.1-42.4,18l-345.4,506.6c-13.2,19.5-39.8,24.4-59.1,11.2l-3-1.9c-19.5-13.2-24.5-39.8-11.3-59.1l377.4-553.7
		c9.3-13.8,26-20.8,42.4-18l411.4,71.6c17.8,3,35.7-5.4,44.4-21.2l216.7-386.8c-6.1-1.9-12.1-3.5-18.4-5L1310,485.7l453.6-310.8
		L1806.5,722.8z"/>
</g>
</svg>
