<?xml version="1.0" encoding="utf-8"?>
<!-- Generator: Adobe Illustrator 27.0.0, SVG Export Plug-In . SVG Version: 6.00 Build 0)  -->
<svg version="1.1" id="Layer_1" xmlns="http://www.w3.org/2000/svg" xmlns:xlink="http://www.w3.org/1999/xlink" x="0px" y="0px"
	 viewBox="0 0 828 828" style="enable-background:new 0 0 828 828;" xml:space="preserve">
<style type="text/css">
	.st0{fill:#00F6FF;}
	.st1{fill:none;stroke:#000000;stroke-width:9.3187;stroke-linecap:round;stroke-linejoin:round;stroke-miterlimit:10;}
	
		.st2{clip-path:url(#SVGID_00000150802006080668671700000003209698729644706740_);fill:none;stroke:#000000;stroke-width:23.2875;stroke-miterlimit:10;}
</style>
<g>
	<path class="st0" d="M730.7,297.3c0.8,3.9-3.4,7-6.9,5L641,252.5c-1.9-1.1-3.7-2.2-5.6-3.2l-93.3,238.3
		c-3.3,8.4-11.6,13.9-20.6,13.6l-211.9-7.4c-8.4-0.3-16.2,4.4-19.9,11.8L153.4,780.9c-5.3,10.6-18,14.9-28.6,9.6l-1.7-0.8
		c-10.6-5.3-14.9-18-9.6-28.6l149.2-300.9c3.7-7.5,11.5-12.1,19.9-11.8l209,7.3c9,0.3,17.3-5.1,20.6-13.6l80.9-206.9
		c-3.1-0.5-6.3-0.9-9.4-1.1L481,225.1c-4-0.3-5.7-5.4-2.7-8.1L668.3,44.1c2.7-2.4,6.9-1,7.7,2.5L730.7,297.3z"/>
	<path class="st1" d="M749.2,307.5l-90-58.4c-1.8-1.1-3.6-2.3-5.5-3.4L552.1,480.6c-3.6,8.3-12,13.5-21,12.8l-211.5-14.7
		c-8.4-0.6-16.3,3.7-20.3,11.2L153.4,760.2c-5.6,10.4-18.5,14.2-28.9,8.6l-1.6-0.8c-10.4-5.6-14.2-18.5-8.6-28.9l159.6-295.6
		c3.9-7.4,11.9-11.7,20.3-11.2l208.7,14.5c9,0.6,17.5-4.6,21-12.8l88.2-204c-3.1-0.6-6.2-1.1-9.4-1.6l-112.8-13.8l210-178.1
		L749.2,307.5z"/>
	<g>
		<defs>
			<rect id="SVGID_1_" width="828" height="828"/>
		</defs>
		<clipPath id="SVGID_00000137818068689633262780000005651580834722474430_">
			<use xlink:href="#SVGID_1_"  style="overflow:visible;"/>
		</clipPath>
		
			<polyline style="clip-path:url(#SVGID_00000137818068689633262780000005651580834722474430_);fill:none;stroke:#000000;stroke-width:23.2875;stroke-miterlimit:10;" points="
			828,828 0,828 0,0 		"/>
	</g>
</g>
</svg>
