<?xml version="1.0" encoding="utf-8"?>
<!-- Generator: Adobe Illustrator 27.0.0, SVG Export Plug-In . SVG Version: 6.00 Build 0)  -->
<svg version="1.1" id="Layer_1" xmlns="http://www.w3.org/2000/svg" xmlns:xlink="http://www.w3.org/1999/xlink" x="0px" y="0px"
	 viewBox="0 0 828 847" style="enable-background:new 0 0 828 847;" xml:space="preserve">
<style type="text/css">
	.st0{fill:url(#SVGID_1_);}
	.st1{fill:#00F6FF;}
	.st2{fill:none;stroke:#000000;stroke-width:8.0163;stroke-linecap:round;stroke-linejoin:round;stroke-miterlimit:10;}
</style>
<g>
	
		<linearGradient id="SVGID_1_" gradientUnits="userSpaceOnUse" x1="414" y1="849.835" x2="414" y2="39.2865" gradientTransform="matrix(1 0 0 -1 0 847)">
		<stop  offset="0" style="stop-color:#00B1FF"/>
		<stop  offset="1" style="stop-color:#006FFF"/>
	</linearGradient>
	<path class="st0" d="M825.7,441.9c-23.8,219.8-208.4,410.1-436.5,389.8c-52.1-4.6-101.5-18.5-146.7-39.6
		c-12.7,10.8-26.4,20.2-41.3,28.1c-28.8,15.3-60.4,24.4-92.9,26.9c16.2-24.2,27.2-51.4,32.3-79.9c2.2-12.8,3.4-25.7,3.3-38.6
		C48.1,646.4-9.6,524.6,1.3,394.1C21.5,150.1,204.3-18.4,432.6,1.6C660.6,21.8,851,205.4,825.7,441.9z"/>
	<path class="st1" d="M764.1,301.1c0.4,3.4-3.5,5.8-6.3,3.6l-66.5-49.8c-1.5-1.1-3-2.1-4.5-3.2L585.9,447.3
		c-3.5,6.9-11.1,10.8-18.9,9.8l-180.8-25c-7.1-1-14.2,2.3-18,8.4L227.1,663.8c-5.4,8.6-16.7,11.1-25.3,5.7l-1.3-0.8
		c-8.6-5.4-11.1-16.7-5.7-25.3l154.3-244.2c3.8-6.1,10.9-9.3,18-8.4l178.3,24.6c7.8,1.1,15.3-2.9,18.9-9.8l87.6-169.8
		c-2.6-0.7-5.3-1.3-8-1.9l-87.1-16.7c-3.5-0.7-4.4-5-1.6-7.2L733,78.9c2.5-1.9,6-0.3,6.3,2.8L764.1,301.1z"/>
	<path class="st2" d="M779,311.5l-71.9-57.9c-1.4-1.1-2.9-2.2-4.4-3.4L595.1,442.1c-3.8,6.8-11.5,10.4-19.1,9.1L396.1,420
		c-7.1-1.2-14.3,1.8-18.3,7.7L228.9,646.1c-5.7,8.4-17.2,10.5-25.5,4.8l-1.3-0.8c-8.4-5.7-10.6-17.2-4.9-25.5L360,385.9
		c4-6,11.2-9,18.3-7.7l177.4,30.9c7.7,1.3,15.4-2.3,19.1-9.1l93.5-166.7c-2.6-0.8-5.2-1.5-7.9-2.1l-95.4-21.7l195.6-134L779,311.5z"
		/>
</g>
</svg>
