<?xml version="1.0" encoding="utf-8"?>
<!-- Generator: Adobe Illustrator 27.0.0, SVG Export Plug-In . SVG Version: 6.00 Build 0)  -->
<svg version="1.1" id="Layer_1" xmlns="http://www.w3.org/2000/svg" xmlns:xlink="http://www.w3.org/1999/xlink" x="0px" y="0px"
	 viewBox="0 0 2048 2096" style="enable-background:new 0 0 2048 2096;" xml:space="preserve">
<style type="text/css">
	.st0{fill:url(#SVGID_1_);}
	.st1{fill:#00F6FF;}
	.st2{fill:none;stroke:#000000;stroke-width:19.8326;stroke-linecap:round;stroke-linejoin:round;stroke-miterlimit:10;}
</style>
<g>
	
		<linearGradient id="SVGID_1_" gradientUnits="userSpaceOnUse" x1="1024" y1="2103.0154" x2="1024" y2="97.219" gradientTransform="matrix(1 0 0 -1 0 2096)">
		<stop  offset="0" style="stop-color:#00B1FF"/>
		<stop  offset="1" style="stop-color:#006FFF"/>
	</linearGradient>
	<path class="st0" d="M2042.4,1093.5c-58.9,543.8-515.5,1014.7-1079.7,964.7c-128.9-11.3-251.1-45.7-362.8-98.1
		c-31.4,26.8-65.4,50.1-102.1,69.4c-71.1,37.8-149.4,60.5-229.8,66.4c40-60,67.2-127.1,79.9-197.7c5.5-31.6,8.3-63.7,8.1-95.5
		c-237-203-379.7-504.6-352.7-827.4C53.2,371.3,505.4-45.6,1070.1,4C1634.1,54.1,2105,508.4,2042.4,1093.5z"/>
	<path class="st1" d="M1890,745.1c0.9,8.5-8.8,14.3-15.7,9l-164.4-123.2c-3.7-2.8-7.4-5.3-11.1-7.8l-249.7,483.8
		c-8.8,17.1-27.5,26.8-46.7,24.2l-447.1-61.8c-17.6-2.5-35.1,5.8-44.6,20.8l-349,552.6c-13.4,21.2-41.3,27.5-62.6,14.1l-3.2-2.1
		c-21.2-13.4-27.5-41.3-14.1-62.5l381.5-604.3c9.5-15,27-23.1,44.6-20.8l441.1,60.9c19.2,2.8,37.9-7.2,46.7-24.2l216.6-420.2
		c-6.5-1.8-13.2-3.2-19.9-4.6L1377,537.7c-8.5-1.6-10.9-12.5-3.9-17.8l440-324.6c6.2-4.6,14.8-0.7,15.7,6.9L1890,745.1z"/>
	<path class="st2" d="M1926.9,770.9l-177.8-143.3c-3.5-2.8-7.2-5.5-10.9-8.3L1471.9,1094c-9.5,16.8-28.4,25.8-47.3,22.6l-444.8-77.3
		c-17.6-3-35.3,4.4-45.3,19.2l-368.4,540.4c-14.1,20.8-42.5,26.1-63.1,12l-3.2-2.1c-20.8-14.1-26.1-42.5-12-63l402.6-590.7
		c9.9-14.8,27.7-22.1,45.3-19.2l438.8,76.4c18.9,3.2,38.1-5.8,47.3-22.6L1653,577.1c-6.5-2.1-12.9-3.7-19.6-5.3l-236-53.8
		l483.9-331.6L1926.9,770.9z"/>
</g>
</svg>
