<?xml version="1.0" encoding="utf-8"?>
<!-- Generator: Adobe Illustrator 27.0.0, SVG Export Plug-In . SVG Version: 6.00 Build 0)  -->
<svg version="1.1" id="Layer_1" xmlns="http://www.w3.org/2000/svg" xmlns:xlink="http://www.w3.org/1999/xlink" x="0px" y="0px"
	 viewBox="0 0 750 767" style="enable-background:new 0 0 750 767;" xml:space="preserve">
<style type="text/css">
	.st0{fill:url(#SVGID_1_);}
	.st1{fill:#00F6FF;}
	.st2{fill:none;stroke:#000000;stroke-width:7.2602;stroke-linecap:round;stroke-linejoin:round;stroke-miterlimit:10;}
</style>
<g>
	
		<linearGradient id="SVGID_1_" gradientUnits="userSpaceOnUse" x1="375" y1="769.5672" x2="375" y2="35.5758" gradientTransform="matrix(1 0 0 -1 0 767)">
		<stop  offset="0" style="stop-color:#00B1FF"/>
		<stop  offset="1" style="stop-color:#006FFF"/>
	</linearGradient>
	<path class="st0" d="M747.9,400.1c-21.6,199-188.8,371.3-395.4,353c-47.2-4.1-91.9-16.7-132.9-35.9c-11.5,9.8-23.9,18.3-37.4,25.4
		c-26.1,13.8-54.7,22.1-84.2,24.3c14.6-22,24.6-46.5,29.3-72.4c2-11.6,3-23.3,3-35C43.6,585.4-8.7,475,1.2,356.9
		C19.5,135.9,185.1-16.7,391.9,1.5C598.4,19.8,770.9,186,747.9,400.1z"/>
	<path class="st1" d="M692.1,272.7c0.3,3.1-3.2,5.2-5.8,3.3l-60.2-45.1c-1.4-1-2.7-1.9-4.1-2.9L530.7,405
		c-3.2,6.2-10.1,9.8-17.1,8.9l-163.7-22.6c-6.4-0.9-12.9,2.1-16.3,7.6L205.7,601.1c-4.9,7.8-15.1,10-22.9,5.2l-1.2-0.8
		c-7.8-4.9-10.1-15.1-5.2-22.9l139.7-221.1c3.5-5.5,9.9-8.4,16.3-7.6L494,376.2c7,1,13.9-2.6,17.1-8.9l79.3-153.7
		c-2.4-0.7-4.8-1.2-7.3-1.7l-78.9-15.1c-3.1-0.6-4-4.6-1.4-6.5L664,71.5c2.3-1.7,5.4-0.3,5.8,2.5L692.1,272.7z"/>
	<path class="st2" d="M705.7,282.1l-65.1-52.4c-1.3-1-2.6-2-4-3L539,400.3c-3.5,6.2-10.4,9.5-17.3,8.3l-162.9-28.3
		c-6.4-1.1-12.9,1.6-16.6,7L207.3,585.1c-5.2,7.6-15.6,9.5-23.1,4.4l-1.2-0.8c-7.6-5.2-9.6-15.5-4.4-23l147.4-216.1
		c3.6-5.4,10.1-8.1,16.6-7l160.7,27.9c6.9,1.2,14-2.1,17.3-8.3l84.7-151c-2.4-0.8-4.7-1.4-7.2-1.9l-86.4-19.7L688.9,68.2
		L705.7,282.1z"/>
</g>
</svg>
