<?xml version="1.0" encoding="utf-8"?>
<!-- Generator: Adobe Illustrator 27.0.0, SVG Export Plug-In . SVG Version: 6.00 Build 0)  -->
<svg version="1.1" id="Layer_1" xmlns="http://www.w3.org/2000/svg" xmlns:xlink="http://www.w3.org/1999/xlink" x="0px" y="0px"
	 viewBox="0 0 3480 3562" style="enable-background:new 0 0 3480 3562;" xml:space="preserve">
<style type="text/css">
	.st0{fill:url(#SVGID_1_);}
	.st1{fill:#00F6FF;}
	.st2{fill:none;stroke:#000000;stroke-width:33.702;stroke-linecap:round;stroke-linejoin:round;stroke-miterlimit:10;}
</style>
<g>
	
		<linearGradient id="SVGID_1_" gradientUnits="userSpaceOnUse" x1="1740" y1="3573.9221" x2="1740" y2="165.2166" gradientTransform="matrix(1 0 0 -1 0 3562)">
		<stop  offset="0" style="stop-color:#00B1FF"/>
		<stop  offset="1" style="stop-color:#006FFF"/>
	</linearGradient>
	<path class="st0" d="M3470.5,1858.3c-100.1,924.2-875.9,1724.5-1834.7,1639.4c-219-19.2-426.6-77.6-616.5-166.6
		c-53.4,45.5-111.1,85.1-173.5,118c-120.9,64.3-253.9,102.7-390.5,112.9c67.9-101.9,114.2-216,135.8-336
		c9.4-53.7,14.1-108.2,13.7-162.3C202.2,2718.6-40.4,2206.1,5.5,1657.6C90.3,631,858.7-77.5,1818.3,6.8
		C2776.6,91.9,3576.8,863.9,3470.5,1858.3z"/>
	<path class="st1" d="M3211.5,1266.2c1.6,14.5-14.9,24.3-26.7,15.3l-279.4-209.4c-6.3-4.7-12.6-9-18.8-13.3l-424.2,822.2
		c-14.9,29-46.7,45.5-79.3,41.2l-759.8-105.1c-29.8-4.3-59.7,9.8-75.7,35.3l-593,939.1c-22.8,36.1-70.2,46.7-106.4,23.9l-5.5-3.5
		c-36.1-22.7-46.7-70.2-23.9-106.3L1467,1678.7c16.1-25.5,45.9-39.2,75.7-35.3l749.6,103.5c32.6,4.7,64.4-12.2,79.3-41.2l368.1-714
		c-11-3.1-22.4-5.5-33.8-7.8l-366.2-70.2c-14.5-2.7-18.4-21.2-6.7-30.2l747.6-551.7c10.6-7.8,25.1-1.2,26.7,11.8L3211.5,1266.2z"/>
	<path class="st2" d="M3274.3,1310.1l-302.2-243.5c-5.9-4.7-12.2-9.4-18.4-14.1l-452.5,806.6c-16.1,28.6-48.3,43.9-80.5,38.4
		l-755.9-131.4c-29.8-5.1-60,7.4-76.9,32.5l-626,918.3c-23.9,35.3-72.2,44.3-107.1,20.4l-5.5-3.5c-35.3-23.9-44.3-72.1-20.4-107
		l684-1003.8c16.9-25.1,47.1-37.6,76.9-32.5l745.7,129.8c32.2,5.5,64.8-9.8,80.5-38.4l392.8-701.1c-11-3.5-22-6.3-33.4-9
		l-401.1-91.4L3196.6,317L3274.3,1310.1z"/>
</g>
</svg>
