<svg width="270" height="270" viewBox="0 0 270 270" fill="none" xmlns="http://www.w3.org/2000/svg">
<g clip-path="url(#clip0_1709_17154)">
<path fill-rule="evenodd" clip-rule="evenodd" d="M108.213 25.5578C49.8792 34.3618 11.0848 83.9486 19.7752 141.686C21.7091 155.704 26.6137 169.147 34.161 181.117C41.7084 193.087 51.7246 203.308 63.5397 211.095C64.4926 211.71 65.3094 212.513 65.9395 213.456C66.5697 214.399 66.9998 215.461 67.2033 216.576L70.5545 234.951C70.7797 236.313 71.3392 237.598 72.1828 238.691C73.0264 239.784 74.1278 240.65 75.3884 241.213C76.649 241.775 78.0295 242.017 79.4063 241.916C80.7831 241.814 82.1132 241.373 83.2776 240.631L102.476 228.476C104.102 227.434 106.04 226.992 107.957 227.226C118.142 228.39 128.435 228.209 138.572 226.687C196.906 217.883 235.7 168.268 227.01 110.559C218.32 52.85 166.575 16.7538 108.213 25.5578Z" fill="#00F6FF"/>
<path fill-rule="evenodd" clip-rule="evenodd" d="M134.696 29.9199C75.6808 29.9199 29.9284 73.1448 29.9284 131.535C29.7434 145.685 32.5816 159.71 38.2531 172.674C43.9246 185.638 52.2988 197.242 62.8156 206.71C63.6745 207.461 64.3698 208.38 64.8583 209.411C65.3469 210.442 65.6183 211.562 65.6556 212.703L66.2236 231.332C66.2976 232.691 66.6961 234.013 67.3857 235.186C68.0753 236.36 69.036 237.351 70.1873 238.077C71.3386 238.803 72.647 239.242 74.003 239.358C75.359 239.474 76.7231 239.264 77.9812 238.745L98.7984 229.6C100.581 228.787 102.595 228.636 104.478 229.174C114.364 231.863 124.565 233.22 134.81 233.207C193.825 233.207 239.577 189.954 239.577 131.564C239.577 73.1732 193.711 29.9199 134.696 29.9199Z" stroke="black" stroke-width="3" stroke-miterlimit="10"/>
<path fill-rule="evenodd" clip-rule="evenodd" d="M71.7898 161.27L102.547 112.451C103.709 110.619 105.236 109.047 107.033 107.833C108.83 106.619 110.858 105.788 112.99 105.394C115.123 104.999 117.314 105.049 119.426 105.54C121.539 106.031 123.527 106.953 125.267 108.248L149.748 126.622C150.841 127.445 152.171 127.89 153.539 127.89C154.907 127.89 156.238 127.445 157.331 126.622L190.388 101.517C191.323 100.833 192.465 100.495 193.622 100.56C194.778 100.625 195.875 101.09 196.727 101.874C197.579 102.659 198.131 103.714 198.291 104.861C198.45 106.008 198.207 107.175 197.602 108.162L166.731 156.925C165.569 158.756 164.042 160.328 162.245 161.543C160.449 162.757 158.42 163.587 156.288 163.982C154.155 164.376 151.964 164.327 149.852 163.836C147.739 163.345 145.751 162.423 144.011 161.128L119.53 142.753C118.437 141.931 117.107 141.486 115.739 141.486C114.371 141.486 113.04 141.931 111.947 142.753L78.8898 167.859C77.9596 168.49 76.8429 168.788 75.722 168.702C74.6011 168.617 73.5422 168.155 72.7182 167.39C71.8942 166.625 71.3538 165.604 71.1851 164.492C71.0165 163.381 71.2297 162.245 71.7898 161.27V161.27Z" stroke="black" stroke-width="3" stroke-miterlimit="10"/>
</g>
<defs>
<clipPath id="clip0_1709_17154">
<rect width="270" height="270" fill="white"/>
</clipPath>
</defs>
</svg>
