<?xml version="1.0" encoding="utf-8"?>
<!-- Generator: Adobe Illustrator 27.0.0, SVG Export Plug-In . SVG Version: 6.00 Build 0)  -->
<svg version="1.1" id="Layer_1" xmlns="http://www.w3.org/2000/svg" xmlns:xlink="http://www.w3.org/1999/xlink" x="0px" y="0px"
	 viewBox="0 0 640 655" style="enable-background:new 0 0 640 655;" xml:space="preserve">
<style type="text/css">
	.st0{fill:url(#SVGID_1_);}
	.st1{fill:#00F6FF;}
	.st2{fill:none;stroke:#000000;stroke-width:6.1977;stroke-linecap:round;stroke-linejoin:round;stroke-miterlimit:10;}
</style>
<g>
	
		<linearGradient id="SVGID_1_" gradientUnits="userSpaceOnUse" x1="320" y1="657.1923" x2="320" y2="30.3809" gradientTransform="matrix(1 0 0 -1 0 655)">
		<stop  offset="0" style="stop-color:#00B1FF"/>
		<stop  offset="1" style="stop-color:#006FFF"/>
	</linearGradient>
	<path class="st0" d="M638.3,341.7c-18.4,169.9-161.1,317.1-337.4,301.5c-40.3-3.5-78.5-14.3-113.4-30.6
		c-9.8,8.4-20.4,15.6-31.9,21.7c-22.2,11.8-46.7,18.9-71.8,20.8c12.5-18.7,21-39.7,25-61.8c1.7-9.9,2.6-19.9,2.5-29.9
		C37.2,499.9-7.4,405.7,1,304.8C16.6,116,157.9-14.3,334.4,1.2C510.6,16.9,657.8,158.9,638.3,341.7z"/>
	<path class="st1" d="M590.6,232.8c0.3,2.7-2.7,4.5-4.9,2.8l-51.4-38.5c-1.2-0.9-2.3-1.7-3.5-2.5l-78,151.2
		c-2.7,5.3-8.6,8.4-14.6,7.6l-139.7-19.3c-5.5-0.8-11,1.8-13.9,6.5L175.5,513.3c-4.2,6.6-12.9,8.6-19.6,4.4l-1-0.6
		c-6.6-4.2-8.6-12.9-4.4-19.5l119.2-188.8c3-4.7,8.4-7.2,13.9-6.5l137.9,19c6,0.9,11.8-2.2,14.6-7.6l67.7-131.3
		c-2-0.6-4.1-1-6.2-1.4L430.3,168c-2.7-0.5-3.4-3.9-1.2-5.6L566.6,61c1.9-1.4,4.6-0.2,4.9,2.2L590.6,232.8z"/>
	<path class="st2" d="M602.2,240.9l-55.6-44.8c-1.1-0.9-2.2-1.7-3.4-2.6L460,341.9c-3,5.3-8.9,8.1-14.8,7.1l-139-24.2
		c-5.5-0.9-11,1.4-14.1,6L176.9,499.6c-4.4,6.5-13.3,8.1-19.7,3.7l-1-0.6c-6.5-4.4-8.2-13.3-3.8-19.7l125.8-184.6
		c3.1-4.6,8.7-6.9,14.1-6l137.1,23.9c5.9,1,11.9-1.8,14.8-7.1l72.2-128.9c-2-0.6-4-1.2-6.1-1.7l-73.8-16.8L587.9,58.3L602.2,240.9z"
		/>
</g>
</svg>
