<?xml version="1.0" encoding="utf-8"?>
<!-- Generator: Adobe Illustrator 27.0.0, SVG Export Plug-In . SVG Version: 6.00 Build 0)  -->
<svg version="1.1" id="Layer_1" xmlns="http://www.w3.org/2000/svg" xmlns:xlink="http://www.w3.org/1999/xlink" x="0px" y="0px"
	 viewBox="0 0 640 640" style="enable-background:new 0 0 640 640;" xml:space="preserve">
<style type="text/css">
	.st0{fill:#00F6FF;}
	.st1{fill:none;stroke:#000000;stroke-width:7.2028;stroke-linecap:round;stroke-linejoin:round;stroke-miterlimit:10;}
	
		.st2{clip-path:url(#SVGID_00000070119734252107899070000014845080700646750650_);fill:none;stroke:#000000;stroke-width:18;stroke-miterlimit:10;}
</style>
<path class="st0" d="M564.8,229.8c0.6,3-2.6,5.4-5.4,3.8l-64-38.4c-1.4-0.9-2.9-1.7-4.3-2.5l-72.1,184.2c-2.6,6.5-9,10.7-15.9,10.5
	l-163.8-5.7c-6.5-0.2-12.5,3.4-15.4,9.1L118.6,603.6c-4.1,8.2-13.9,11.5-22.1,7.4l-1.3-0.6c-8.2-4.1-11.5-13.9-7.4-22.1l115.3-232.6
	c2.9-5.8,8.9-9.4,15.4-9.1l161.5,5.6c7,0.2,13.4-3.9,15.9-10.5l62.6-159.9c-2.4-0.4-4.9-0.7-7.3-0.9l-79.4-6.9
	c-3.1-0.2-4.4-4.2-2.1-6.2L516.5,34.1c2.1-1.8,5.4-0.8,5.9,1.9L564.8,229.8z"/>
<path class="st1" d="M579.1,237.7l-69.6-45.2c-1.4-0.9-2.8-1.8-4.2-2.6l-78.5,181.6c-2.8,6.4-9.3,10.4-16.3,9.9L247,370
	c-6.5-0.5-12.6,2.9-15.7,8.6l-112.8,209c-4.3,8-14.3,11-22.3,6.6l-1.2-0.6c-8-4.3-11-14.3-6.6-22.3l123.3-228.5
	c3-5.7,9.2-9.1,15.7-8.6l161.3,11.2c7,0.5,13.5-3.5,16.3-9.9l68.2-157.7c-2.4-0.5-4.8-0.9-7.3-1.2l-87.2-10.7L541,28.2L579.1,237.7z
	"/>
<g>
	<defs>
		<rect id="SVGID_1_" width="640" height="640"/>
	</defs>
	<clipPath id="SVGID_00000010308475929038648550000015969308574029146027_">
		<use xlink:href="#SVGID_1_"  style="overflow:visible;"/>
	</clipPath>
	
		<polyline style="clip-path:url(#SVGID_00000010308475929038648550000015969308574029146027_);fill:none;stroke:#000000;stroke-width:18;stroke-miterlimit:10;" points="
		640,640 0,640 0,0 	"/>
</g>
</svg>
