<?xml version="1.0" encoding="utf-8"?>
<!-- Generator: Adobe Illustrator 27.0.0, SVG Export Plug-In . SVG Version: 6.00 Build 0)  -->
<svg version="1.1" id="Layer_1" xmlns="http://www.w3.org/2000/svg" xmlns:xlink="http://www.w3.org/1999/xlink" x="0px" y="0px"
	 viewBox="0 0 1000 1000" style="enable-background:new 0 0 1000 1000;" xml:space="preserve">
<style type="text/css">
	.st0{fill:#00F6FF;}
	.st1{fill:none;stroke:#000000;stroke-width:8.9934;stroke-linecap:round;stroke-linejoin:round;stroke-miterlimit:10;}
	.st2{fill:none;stroke:#000000;stroke-width:8.9934;stroke-miterlimit:10;}
</style>
<g>
	<path class="st0" d="M805.7,387.7c0.8,3.8-3.3,6.8-6.7,4.8l-79.9-48c-1.8-1.1-3.6-2.1-5.4-3.1l-90,230
		c-3.2,8.1-11.2,13.4-19.9,13.1l-204.5-7.1c-8.1-0.3-15.6,4.2-19.2,11.4L248.5,854.5c-5.1,10.2-17.4,14.4-27.6,9.3l-1.6-0.8
		c-10.2-5.1-14.4-17.4-9.3-27.6L354,545c3.6-7.2,11.1-11.7,19.2-11.4l201.7,7c8.7,0.3,16.7-4.9,19.9-13.1l78.1-199.7
		c-3-0.5-6.1-0.9-9.1-1.1l-99.1-8.6c-3.9-0.3-5.5-5.2-2.6-7.8l183.3-166.9c2.6-2.3,6.7-1,7.4,2.4L805.7,387.7z"/>
	<path class="st1" d="M823.5,397.6l-86.9-56.4c-1.7-1.1-3.5-2.2-5.3-3.3l-98,226.7c-3.5,8-11.6,13-20.3,12.4l-204.1-14.2
		c-8.1-0.6-15.7,3.6-19.6,10.8L248.5,834.5c-5.4,10-17.9,13.7-27.9,8.3l-1.5-0.8c-10-5.4-13.7-17.9-8.3-27.9l154-285.3
		c3.8-7.1,11.5-11.3,19.6-10.8l201.4,14c8.7,0.6,16.9-4.4,20.3-12.4l85.1-196.9c-3-0.6-6-1.1-9.1-1.5l-108.9-13.3L775.9,136
		L823.5,397.6z"/>
	<g>
		<line class="st2" x1="104.3" y1="99" x2="104.3" y2="898.1"/>
		<line class="st2" x1="899.5" y1="896.9" x2="100.4" y2="896.9"/>
	</g>
</g>
</svg>
