<?xml version="1.0" encoding="utf-8"?>
<!-- Generator: Adobe Illustrator 27.0.0, SVG Export Plug-In . SVG Version: 6.00 Build 0)  -->
<svg version="1.1" id="Layer_1" xmlns="http://www.w3.org/2000/svg" xmlns:xlink="http://www.w3.org/1999/xlink" x="0px" y="0px"
	 viewBox="0 0 1200 1228" style="enable-background:new 0 0 1200 1228;" xml:space="preserve">
<style type="text/css">
	.st0{fill:url(#SVGID_1_);}
	.st1{fill:#00F6FF;}
	.st2{fill:none;stroke:#000000;stroke-width:11.6201;stroke-linecap:round;stroke-linejoin:round;stroke-miterlimit:10;}
</style>
<g>
	
		<linearGradient id="SVGID_1_" gradientUnits="userSpaceOnUse" x1="600" y1="1232.1102" x2="600" y2="56.9585" gradientTransform="matrix(1 0 0 -1 0 1228)">
		<stop  offset="0" style="stop-color:#00B1FF"/>
		<stop  offset="1" style="stop-color:#006FFF"/>
	</linearGradient>
	<path class="st0" d="M1196.7,640.7c-34.5,318.6-302.1,594.5-632.7,565.2c-75.5-6.6-147.1-26.8-212.6-57.5
		c-18.4,15.7-38.3,29.3-59.8,40.7c-41.7,22.2-87.6,35.4-134.7,38.9c23.4-35.1,39.4-74.5,46.8-115.8c3.2-18.5,4.9-37.3,4.7-56
		C69.7,937.2-13.9,760.6,1.9,571.4C31.1,217.5,296.1-26.7,627,2.3C957.5,31.7,1233.4,297.8,1196.7,640.7z"/>
	<path class="st1" d="M1107.4,436.5c0.5,5-5.1,8.4-9.2,5.3l-96.4-72.2c-2.2-1.6-4.3-3.1-6.5-4.6L849.1,648.5
		c-5.1,10-16.1,15.7-27.3,14.2l-262-36.2c-10.3-1.5-20.6,3.4-26.1,12.2L329.1,962.4c-7.8,12.4-24.2,16.1-36.7,8.2l-1.9-1.2
		c-12.5-7.8-16.1-24.2-8.3-36.6l223.6-354c5.5-8.8,15.8-13.5,26.1-12.2l258.5,35.7c11.2,1.6,22.2-4.2,27.3-14.2l126.9-246.2
		c-3.8-1.1-7.7-1.9-11.6-2.7L806.8,315c-5-0.9-6.4-7.3-2.3-10.4l257.8-190.2c3.7-2.7,8.7-0.4,9.2,4.1L1107.4,436.5z"/>
	<path class="st2" d="M1129.1,451.7l-104.2-83.9c-2-1.6-4.2-3.2-6.4-4.9l-156,278.1c-5.5,9.9-16.6,15.1-27.7,13.2l-260.6-45.3
		c-10.3-1.8-20.7,2.6-26.5,11.2L331.7,936.7c-8.3,12.2-24.9,15.3-36.9,7l-1.9-1.2c-12.2-8.2-15.3-24.9-7-36.9l235.9-346.1
		c5.8-8.7,16.2-13,26.5-11.2l257.1,44.7c11.1,1.9,22.3-3.4,27.7-13.2l135.5-241.7c-3.8-1.2-7.6-2.2-11.5-3.1l-138.3-31.5
		l283.5-194.3L1129.1,451.7z"/>
</g>
</svg>
