<?xml version="1.0" encoding="utf-8"?>
<!-- Generator: Adobe Illustrator 27.0.0, SVG Export Plug-In . SVG Version: 6.00 Build 0)  -->
<svg version="1.1" id="Layer_1" xmlns="http://www.w3.org/2000/svg" xmlns:xlink="http://www.w3.org/1999/xlink" x="0px" y="0px"
	 viewBox="0 0 2048 2048" style="enable-background:new 0 0 2048 2048;" xml:space="preserve">
<style type="text/css">
	.st0{fill:#00F6FF;}
	.st1{fill:none;stroke:#000000;stroke-width:23.049;stroke-linecap:round;stroke-linejoin:round;stroke-miterlimit:10;}
	
		.st2{clip-path:url(#SVGID_00000105408878953477111630000001138382186499203216_);fill:none;stroke:#000000;stroke-width:57.6;stroke-miterlimit:10;}
</style>
<g>
	<path class="st0" d="M1807.4,735.3c2.1,9.7-8.5,17.4-17.2,12.3l-204.8-123c-4.6-2.8-9.2-5.4-13.8-7.9L1341,1206.1
		c-8.2,20.8-28.7,34.3-51,33.6l-524.1-18.2c-20.8-0.8-40,10.8-49.2,29.2l-337.3,681c-13.1,26.1-44.6,36.9-70.7,23.8l-4.1-2.1
		c-26.1-13.1-36.9-44.6-23.8-70.7l369.1-744.3c9.2-18.5,28.4-30,49.2-29.2l516.9,17.9c22.3,0.8,42.8-12.6,51-33.6l200.2-511.8
		c-7.7-1.3-15.6-2.3-23.3-2.8l-254-22c-10-0.8-14.1-13.3-6.7-20l469.8-427.7c6.7-5.9,17.2-2.6,19,6.2L1807.4,735.3z"/>
	<path class="st1" d="M1853.1,760.6l-222.7-144.5c-4.4-2.8-9-5.6-13.6-8.5l-251.2,581c-9,20.5-29.7,33.3-52,31.8L790.5,1184
		c-20.8-1.5-40.2,9.2-50.2,27.7l-360.9,668.7c-13.8,25.6-45.9,35.1-71.5,21.3l-3.8-2.1c-25.6-13.8-35.1-45.9-21.3-71.5l394.7-731.2
		c9.7-18.2,29.5-29,50.2-27.7l516.2,35.9c22.3,1.5,43.3-11.3,52-31.8L1514,568.7c-7.7-1.5-15.4-2.8-23.3-3.8l-279.1-34.1
		l519.5-440.6L1853.1,760.6z"/>
	<g>
		<defs>
			<rect id="SVGID_1_" width="2048" height="2048"/>
		</defs>
		<clipPath id="SVGID_00000119834046876781690520000010846096285713122945_">
			<use xlink:href="#SVGID_1_"  style="overflow:visible;"/>
		</clipPath>
		
			<polyline style="clip-path:url(#SVGID_00000119834046876781690520000010846096285713122945_);fill:none;stroke:#000000;stroke-width:57.6;stroke-miterlimit:10;" points="
			2048,2048 0,2048 0,0 		"/>
	</g>
</g>
</svg>
