<svg width="118" height="24" viewBox="0 0 118 24" fill="none" xmlns="http://www.w3.org/2000/svg">
<g clip-path="url(#clip0_4235_22059)">
<path d="M19.9084 0.443359H21.9614L25.4554 6.76625L28.9493 0.443359H30.959V10.8337H29.2819V2.87228L26.2168 8.38553H24.6457L21.5807 2.87228V10.8337H19.9036V0.443359H19.9084Z" fill="#1C2B33"/>
<path d="M36.371 11.0166C35.5951 11.0166 34.9107 10.8431 34.3228 10.5009C33.7396 10.1636 33.2625 9.66721 32.9444 9.07444C32.6167 8.46721 32.4529 7.76841 32.4529 6.98287C32.4529 6.18769 32.6119 5.47926 32.9348 4.86721C33.2577 4.25516 33.7011 3.77323 34.2746 3.42624C34.8481 3.07926 35.5035 2.90576 36.2457 2.90576C36.983 2.90576 37.6192 3.07926 38.1493 3.43106C38.6794 3.77805 39.089 4.26962 39.3782 4.89612C39.6625 5.52263 39.8071 6.25998 39.8071 7.10817V7.566H34.1155C34.2216 8.19733 34.477 8.69853 34.8818 9.05998C35.2914 9.42142 35.8071 9.60456 36.4288 9.60456C36.93 9.60456 37.3589 9.53227 37.7204 9.38287C38.0818 9.23347 38.4191 9.00697 38.7372 8.70817L39.6288 9.79733C38.742 10.607 37.6577 11.0118 36.371 11.0118V11.0166ZM37.5951 4.85275C37.2432 4.49612 36.7854 4.31299 36.2167 4.31299C35.6625 4.31299 35.1999 4.49612 34.824 4.86239C34.4529 5.22865 34.2119 5.72022 34.1155 6.33709H38.1975C38.1493 5.70576 37.9469 5.20938 37.5951 4.84793V4.85275Z" fill="#1C2B33"/>
<path d="M41.8361 4.46759H40.2939V3.0941H41.8361V0.824219H43.4554V3.0941H45.7976V4.46759H43.4554V7.94711C43.4554 8.52542 43.5566 8.93988 43.7542 9.18566C43.9518 9.43145 44.2891 9.55675 44.7711 9.55675C44.9542 9.55675 45.1325 9.55193 45.3108 9.53265C45.4602 9.51338 45.6241 9.4941 45.8024 9.46036V10.8194C45.6 10.8772 45.3927 10.9206 45.1807 10.9543C44.9397 10.9881 44.6988 11.0074 44.4578 11.0074C42.7132 11.0074 41.8409 10.0531 41.8409 8.1447V4.47241L41.8361 4.46759Z" fill="#1C2B33"/>
<path d="M54.2265 10.8339H52.641V9.74956C52.3663 10.1496 51.9952 10.4725 51.5663 10.6893C51.1325 10.911 50.6361 11.017 50.0819 11.017C49.3976 11.017 48.7952 10.8435 48.2699 10.4917C47.7446 10.1447 47.3301 9.66281 47.0265 9.05077C46.7229 8.43872 46.5735 7.73992 46.5735 6.95438C46.5735 6.16402 46.7277 5.46522 47.0313 4.85317C47.3397 4.24595 47.7638 3.76884 48.3036 3.42185C48.8434 3.07486 49.4651 2.90137 50.1687 2.90137C50.6988 2.90137 51.1711 3.00257 51.5952 3.2098C52.0096 3.41221 52.3711 3.71101 52.641 4.08209V3.08932H54.2265V10.8339ZM52.6072 5.80257C52.4337 5.36402 52.159 5.01703 51.7879 4.76161C51.4169 4.50619 50.9831 4.38089 50.4916 4.38089C49.7976 4.38089 49.2482 4.61221 48.8385 5.07968C48.4289 5.54233 48.2217 6.17366 48.2217 6.96402C48.2217 7.7592 48.4193 8.39052 48.8145 8.85799C49.2096 9.32546 49.7446 9.55679 50.4241 9.55679C50.9253 9.55679 51.3687 9.42667 51.759 9.17125C52.1446 8.92064 52.4385 8.5592 52.6024 8.13028V5.80739L52.6072 5.80257Z" fill="#1C2B33"/>
<path d="M58.1687 0.443359H62.4193C63.6 0.443359 64.4964 0.684323 65.1036 1.16143C65.7109 1.63854 66.0145 2.29396 66.0145 3.13252C66.0145 4.2795 65.4603 5.05059 64.3518 5.44577C65.7976 5.81203 66.5205 6.65541 66.5205 7.98071C66.5205 8.87709 66.1976 9.57589 65.5518 10.0771C64.9061 10.5783 63.9808 10.8289 62.7711 10.8289H58.1735V0.443359H58.1687ZM62.2217 4.88673C63.6 4.88673 64.294 4.38553 64.294 3.38312C64.294 2.88191 64.1301 2.51565 63.8073 2.28432C63.4844 2.053 62.9832 1.93734 62.3036 1.93734H59.8458V4.89155H62.2217V4.88673ZM62.7181 9.33974C64.1012 9.33974 64.7952 8.81926 64.7952 7.78312C64.7952 7.30119 64.6313 6.93974 64.3036 6.69878C63.9759 6.453 63.4121 6.33252 62.6121 6.33252H59.8458V9.34456H62.7181V9.33974Z" fill="#1C2B33"/>
<path d="M74.5349 10.8338H72.9398V9.7205C72.347 10.588 71.5229 11.0169 70.4771 11.0169C69.5663 11.0169 68.8675 10.7277 68.3807 10.1542C67.894 9.58074 67.6482 8.76146 67.6482 7.69158V3.09399H69.2675V7.49881C69.2675 8.21689 69.3928 8.74701 69.6482 9.08917C69.8988 9.43134 70.294 9.60484 70.8337 9.60484C71.2964 9.60484 71.7108 9.48435 72.0723 9.23857C72.4337 8.99279 72.7133 8.65062 72.9157 8.21207V3.09399H74.5349V10.8338Z" fill="#1C2B33"/>
<path d="M81.6048 10.3615C81.0313 10.8 80.2603 11.0169 79.2964 11.0169C78.4819 11.0169 77.7687 10.8723 77.1615 10.588C76.5542 10.2988 76.106 9.9133 75.8073 9.43137L76.8964 8.48197C77.1229 8.82896 77.4362 9.10366 77.841 9.30607C78.241 9.50848 78.7181 9.60968 79.2723 9.60968C80.3036 9.60968 80.8241 9.30607 80.8241 8.70366C80.8241 8.44824 80.7374 8.24101 80.5687 8.08197C80.4 7.92776 80.1157 7.81691 79.7253 7.75426L78.2362 7.49402C77.5325 7.36872 76.9976 7.12294 76.6265 6.74703C76.2554 6.37113 76.0723 5.88438 76.0723 5.29161C76.0723 4.57354 76.3566 4.00005 76.9301 3.56149C77.5036 3.12776 78.2747 2.91089 79.2482 2.91089C79.9566 2.91089 80.588 3.05547 81.1518 3.34462C81.7109 3.63378 82.1301 4.00968 82.4 4.46752L81.282 5.31089C81.094 5.00246 80.8145 4.76149 80.4434 4.58318C80.0723 4.40486 79.6434 4.31812 79.1518 4.31812C78.694 4.31812 78.3374 4.39523 78.0868 4.55426C77.8362 4.7133 77.7109 4.93499 77.7109 5.2145C77.7109 5.45547 77.788 5.64342 77.9422 5.77836C78.0964 5.9133 78.3518 6.00968 78.7133 6.07715L80.3904 6.37595C81.0651 6.49643 81.5759 6.74703 81.9325 7.1374C82.2892 7.52776 82.4675 8.0145 82.4675 8.60246C82.4675 9.33981 82.1783 9.92776 81.6048 10.3663V10.3615Z" fill="#1C2B33"/>
<path d="M83.9325 1.78313C83.7349 1.58554 83.6337 1.33976 83.6337 1.03614C83.6337 0.727711 83.7349 0.481928 83.9325 0.289157C84.1301 0.0963855 84.3855 0 84.6987 0C85.0072 0 85.2626 0.0963855 85.4602 0.289157C85.6578 0.481928 85.759 0.73253 85.759 1.03614C85.759 1.33976 85.6578 1.58554 85.4602 1.78313C85.2626 1.98072 85.0072 2.07711 84.6939 2.07711C84.3807 2.07711 84.1252 1.98072 83.9276 1.78313H83.9325ZM83.8891 3.09398H85.5084V10.8337H83.8891V3.09398Z" fill="#1C2B33"/>
<path d="M87.2868 3.09402H88.882V4.22173C89.4796 3.34462 90.3133 2.91089 91.3832 2.91089C92.3037 2.91089 93.0121 3.20005 93.5037 3.77354C94.0001 4.34703 94.2458 5.16631 94.2458 6.23619V10.8338H92.6266V6.42414C92.6266 5.70125 92.4964 5.17113 92.241 4.82896C91.9856 4.48679 91.5808 4.31812 91.0314 4.31812C90.5495 4.31812 90.1302 4.44342 89.7639 4.6892C89.3976 4.93498 89.1133 5.28197 88.9013 5.73017V10.8338H87.282V3.09402H87.2868Z" fill="#1C2B33"/>
<path d="M99.4072 11.0166C98.6313 11.0166 97.947 10.8431 97.359 10.5009C96.7759 10.1636 96.2988 9.66721 95.9807 9.07444C95.653 8.46721 95.4891 7.76841 95.4891 6.98287C95.4891 6.18769 95.6482 5.47926 95.9711 4.86721C96.294 4.25516 96.7373 3.77323 97.3108 3.42624C97.8843 3.07926 98.5397 2.90576 99.2819 2.90576C100.019 2.90576 100.655 3.07926 101.186 3.43106C101.716 3.77805 102.125 4.26962 102.414 4.89612C102.699 5.52263 102.843 6.25998 102.843 7.10817V7.566H97.1518C97.2578 8.19733 97.5132 8.69853 97.918 9.05998C98.3277 9.42142 98.8434 9.60456 99.465 9.60456C99.9662 9.60456 100.395 9.53227 100.757 9.38287C101.118 9.23347 101.455 9.00697 101.773 8.70817L102.665 9.79733C101.778 10.607 100.694 11.0118 99.4072 11.0118V11.0166ZM100.631 4.85275C100.279 4.49612 99.8217 4.31299 99.253 4.31299C98.6988 4.31299 98.2361 4.49612 97.8602 4.86239C97.4891 5.22865 97.2482 5.72022 97.1518 6.33709H101.234C101.186 5.70576 100.983 5.20938 100.631 4.84793V4.85275Z" fill="#1C2B33"/>
<path d="M109.479 10.3615C108.906 10.8 108.135 11.0169 107.171 11.0169C106.357 11.0169 105.643 10.8723 105.036 10.588C104.429 10.2988 103.981 9.9133 103.682 9.43137L104.771 8.48197C104.998 8.82896 105.311 9.10366 105.716 9.30607C106.116 9.50848 106.593 9.60968 107.147 9.60968C108.178 9.60968 108.699 9.30607 108.699 8.70366C108.699 8.44824 108.612 8.24101 108.443 8.08197C108.275 7.92776 107.99 7.81691 107.6 7.75426L106.111 7.49402C105.407 7.36872 104.872 7.12294 104.501 6.74703C104.13 6.37113 103.947 5.88438 103.947 5.29161C103.947 4.57354 104.231 4.00005 104.805 3.56149C105.378 3.12776 106.149 2.91089 107.123 2.91089C107.831 2.91089 108.463 3.05547 109.026 3.34462C109.585 3.63378 110.005 4.00968 110.275 4.46752L109.157 5.31089C108.969 5.00246 108.689 4.76149 108.318 4.58318C107.947 4.40486 107.518 4.31812 107.026 4.31812C106.569 4.31812 106.212 4.39523 105.961 4.55426C105.711 4.7133 105.585 4.93499 105.585 5.2145C105.585 5.45547 105.663 5.64342 105.817 5.77836C105.971 5.9133 106.226 6.00968 106.588 6.07715L108.265 6.37595C108.94 6.49643 109.451 6.74703 109.807 7.1374C110.164 7.52776 110.342 8.0145 110.342 8.60246C110.342 9.33981 110.053 9.92776 109.479 10.3663V10.3615Z" fill="#1C2B33"/>
<path d="M116.798 10.4506C116.224 10.8892 115.453 11.106 114.489 11.106C113.675 11.106 112.961 10.9614 112.354 10.6771C111.747 10.388 111.299 10.0024 111 9.52048L112.089 8.57108C112.316 8.91807 112.629 9.19277 113.034 9.39518C113.434 9.59759 113.911 9.6988 114.465 9.6988C115.496 9.6988 116.017 9.39518 116.017 8.79277C116.017 8.53735 115.93 8.33012 115.761 8.17108C115.593 8.01687 115.308 7.90602 114.918 7.84337L113.429 7.58313C112.725 7.45783 112.19 7.21205 111.819 6.83614C111.448 6.46024 111.265 5.97349 111.265 5.38072C111.265 4.66265 111.549 4.08916 112.123 3.6506C112.696 3.21687 113.467 3 114.441 3C115.149 3 115.781 3.14458 116.345 3.43374C116.904 3.72289 117.323 4.0988 117.593 4.55663L116.475 5.4C116.287 5.09157 116.007 4.8506 115.636 4.67229C115.265 4.49398 114.836 4.40723 114.345 4.40723C113.887 4.40723 113.53 4.48434 113.28 4.64337C113.029 4.80241 112.904 5.0241 112.904 5.30361C112.904 5.54458 112.981 5.73253 113.135 5.86747C113.289 6.00241 113.545 6.0988 113.906 6.16627L115.583 6.46506C116.258 6.58554 116.769 6.83615 117.125 7.22651C117.482 7.61687 117.66 8.10362 117.66 8.69157C117.66 9.42892 117.371 10.0169 116.798 10.4554V10.4506Z" fill="#1C2B33"/>
<path d="M19.9084 13.4314H23.8458C25.1711 13.4314 26.1928 13.7302 26.9157 14.3326C27.6337 14.935 27.9952 15.7977 27.9952 16.9157C27.9952 18.0338 27.6386 18.8965 26.9205 19.4989C26.2024 20.1013 25.1807 20.4049 23.8506 20.4049H21.6097V23.8169H19.9084V13.4314ZM23.706 18.8772C24.5783 18.8772 25.2193 18.7181 25.6337 18.3953C26.0482 18.0724 26.2554 17.5856 26.2554 16.9254C26.2554 16.2459 26.0482 15.7495 25.6289 15.4362C25.2097 15.1181 24.5687 14.9591 23.706 14.9591H21.6048V18.8772H23.706Z" fill="#1C2B33"/>
<path d="M36.2361 23.8166H34.6506V22.7322C34.3759 23.1322 34.0048 23.4551 33.5759 23.672C33.1422 23.8937 32.6458 23.9997 32.0916 23.9997C31.4072 23.9997 30.8048 23.8262 30.2795 23.4744C29.7542 23.1274 29.3398 22.6455 29.0361 22.0334C28.7325 21.4214 28.5831 20.7226 28.5831 19.937C28.5831 19.1467 28.7373 18.4479 29.041 17.8358C29.3494 17.2286 29.7735 16.7515 30.3133 16.4045C30.853 16.0575 31.4747 15.884 32.1783 15.884C32.7084 15.884 33.1807 15.9852 33.6048 16.1925C34.0193 16.3949 34.3807 16.6937 34.6506 17.0648V16.072H36.2361V23.8117V23.8166ZM34.6169 18.7852C34.4434 18.3467 34.1687 17.9997 33.7976 17.7443C33.4265 17.4889 32.9928 17.3636 32.5012 17.3636C31.8072 17.3636 31.2578 17.5949 30.8482 18.0623C30.4386 18.525 30.2313 19.1563 30.2313 19.9467C30.2313 20.7419 30.4289 21.3732 30.8241 21.8407C31.2193 22.3081 31.7542 22.5395 32.4337 22.5395C32.9349 22.5395 33.3783 22.4093 33.7687 22.1539C34.1542 21.9033 34.4482 21.5419 34.612 21.113V18.7901L34.6169 18.7852Z" fill="#1C2B33"/>
<path d="M37.8698 16.0769H39.4649V17.2335C39.9228 16.3902 40.5685 15.9661 41.3926 15.9661C41.5517 15.9661 41.7107 15.9805 41.8697 16.0046V17.5034C41.7059 17.489 41.542 17.4793 41.3734 17.4793C40.4336 17.4793 39.8071 17.9323 39.489 18.8432V23.8118H37.8698V16.0721V16.0769Z" fill="#1C2B33"/>
<path d="M43.8795 17.4507H42.7759V16.0773H43.8795V13.8074H45.4988V16.0773H47.8409V17.4507H45.4988V20.9303C45.4988 21.5086 45.6 21.923 45.7976 22.1688C45.9952 22.4146 46.3325 22.5399 46.8144 22.5399C46.9976 22.5399 47.1759 22.5351 47.3542 22.5158C47.5036 22.4965 47.6674 22.4773 47.8458 22.4435V23.8026C47.6433 23.8604 47.4361 23.9038 47.2241 23.9375C46.9831 23.9712 46.7421 23.9905 46.5012 23.9905C44.7566 23.9905 43.8843 23.0363 43.8843 21.1279V17.4556L43.8795 17.4507Z" fill="#1C2B33"/>
<path d="M49.1469 16.0774H50.7421V17.2051C51.3397 16.328 52.1734 15.8943 53.2433 15.8943C54.1638 15.8943 54.8722 16.1834 55.3638 16.7569C55.8602 17.3304 56.1059 18.1497 56.1059 19.2196V23.8172H54.4867V19.4124C54.4867 18.6895 54.3565 18.1593 54.1011 17.8172C53.8457 17.475 53.4409 17.3063 52.8915 17.3063C52.4096 17.3063 51.9903 17.4316 51.624 17.6774C51.2578 17.9232 50.9734 18.2702 50.7614 18.7184V23.822H49.1421V16.0822L49.1469 16.0774Z" fill="#1C2B33"/>
<path d="M61.2674 24C60.4915 24 59.8072 23.8265 59.2192 23.4843C58.6361 23.147 58.159 22.6506 57.8409 22.0578C57.5132 21.4506 57.3494 20.7518 57.3494 19.9663C57.3494 19.1711 57.5084 18.4627 57.8313 17.8506C58.1542 17.2386 58.5976 16.7566 59.1711 16.4096C59.7445 16.0627 60.4 15.8892 61.1421 15.8892C61.8795 15.8892 62.5156 16.0627 63.0458 16.4145C63.5759 16.7614 63.9855 17.253 64.2747 17.8795C64.559 18.506 64.7036 19.2434 64.7036 20.0916V20.5494H59.012C59.118 21.1807 59.3735 21.6819 59.7783 22.0434C60.1879 22.4048 60.7036 22.588 61.3253 22.588C61.8265 22.588 62.2554 22.5157 62.6168 22.3663C62.9783 22.2169 63.3156 21.9904 63.6337 21.6916L64.5253 22.7807C63.6385 23.5904 62.5542 23.9952 61.2674 23.9952V24ZM62.4915 17.8361C62.1397 17.4795 61.6819 17.2964 61.1132 17.2964C60.559 17.2964 60.0964 17.4795 59.7204 17.8458C59.3494 18.2121 59.1084 18.7036 59.012 19.3205H63.0939C63.0458 18.6892 62.8433 18.1928 62.4915 17.8313V17.8361Z" fill="#1C2B33"/>
<path d="M66.0674 16.0769H67.6626V17.2624C68.1638 16.395 68.8433 15.9661 69.7108 15.9661C69.9951 15.9661 70.2216 15.9902 70.3999 16.0384V17.5275C70.159 17.4938 69.9132 17.4745 69.6674 17.4745C68.6987 17.4745 68.0385 17.9082 67.6867 18.7805V23.8118H66.0674V16.0721V16.0769Z" fill="#1C2B33"/>
<path d="M76.6457 23.3449C76.0722 23.7834 75.3012 24.0003 74.3373 24.0003C73.5228 24.0003 72.8096 23.8557 72.2024 23.5714C71.5951 23.2822 71.1469 22.8967 70.8481 22.4148L71.9373 21.4654C72.1638 21.8124 72.4771 22.0871 72.8771 22.2895C73.2771 22.4919 73.7542 22.5931 74.3084 22.5931C75.3397 22.5931 75.8602 22.2895 75.8602 21.6871C75.8602 21.4316 75.7735 21.2244 75.6048 21.0654C75.4361 20.9112 75.1518 20.8003 74.7614 20.7377L73.2722 20.4774C72.5686 20.3521 72.0337 20.1063 71.6626 19.7304C71.2915 19.3545 71.1084 18.8678 71.1084 18.275C71.1084 17.5569 71.3927 16.9834 71.9662 16.5449C72.5397 16.1112 73.3108 15.8943 74.2843 15.8943C74.9927 15.8943 75.6241 16.0389 76.1879 16.328C76.7469 16.6172 77.1662 16.9931 77.4361 17.4509L76.318 18.2943C76.1301 17.9859 75.8506 17.7449 75.4795 17.5666C75.1084 17.3883 74.6795 17.3015 74.1879 17.3015C73.7301 17.3015 73.3734 17.3786 73.1228 17.5377C72.8722 17.6967 72.7469 17.9184 72.7469 18.1979C72.7469 18.4389 72.824 18.6268 72.9783 18.7618C73.1325 18.8967 73.3879 18.9931 73.7494 19.0606L75.4265 19.3593C76.1012 19.4798 76.612 19.7304 76.9686 20.1208C77.3253 20.5112 77.5036 20.9979 77.5036 21.5859C77.5036 22.3232 77.2144 22.9112 76.6409 23.3497L76.6457 23.3449Z" fill="#1C2B33"/>
<path d="M4.7277 0.0915527H4.71325L4.69397 1.8795H4.70843C5.88433 1.8795 6.79517 2.80481 8.7759 6.14456L8.89638 6.34697L8.90602 6.36143L10.0145 4.69878L10.0048 4.68432C9.74457 4.26023 9.49397 3.86987 9.25301 3.51324C8.97349 3.09878 8.70843 2.73252 8.44819 2.39999C7.13252 0.727697 6.03855 0.0915527 4.7277 0.0915527Z" fill="url(#paint0_linear_4235_22059)"/>
<path d="M4.70848 0.0915527C3.38799 0.096372 2.22173 0.949384 1.38317 2.25541L1.37354 2.26505L2.92052 3.10842L2.93016 3.09878C3.42173 2.35661 4.03378 1.88432 4.6892 1.8795H4.70366L4.72775 0.0915527C4.72775 0.0915527 4.71811 0.0915527 4.71329 0.0915527H4.70848Z" fill="url(#paint1_linear_4235_22059)"/>
<path d="M1.38317 2.25513L1.37353 2.26477C0.824133 3.12742 0.409675 4.18284 0.187988 5.32501V5.33946L1.92293 5.7491V5.73465C2.11088 4.73224 2.46269 3.80212 2.92534 3.10814L2.93498 3.0985L1.38799 2.25513H1.38317Z" fill="url(#paint2_linear_4235_22059)"/>
<path d="M1.92289 5.73459L0.187952 5.32495V5.33941C0.0626506 5.96592 0 6.60206 0 7.24302V7.25748L1.77831 7.41652V7.40206C1.77831 7.36351 1.77831 7.32977 1.77831 7.29122C1.77831 6.77555 1.82651 6.25989 1.91807 5.75387V5.73941L1.92289 5.73459Z" fill="url(#paint3_linear_4235_22059)"/>
<path d="M1.83614 7.97112C1.80241 7.78799 1.78795 7.60004 1.78313 7.4169V7.40244L0 7.24341C0 7.24341 0 7.25305 0 7.25787C0 7.63377 0.0289157 8.00485 0.0963855 8.37112V8.38558L1.83614 7.98558V7.97112Z" fill="url(#paint4_linear_4235_22059)"/>
<path d="M2.24101 8.89656C2.04824 8.68451 1.90848 8.38089 1.83619 7.99053V7.97607L0.0964355 8.37607V8.39053C0.231375 9.07969 0.486797 9.65318 0.857881 10.0869L0.86752 10.0966L2.25065 8.90619L2.24101 8.89656Z" fill="url(#paint5_linear_4235_22059)"/>
<path d="M7.38797 3.95184C6.34219 5.55666 5.70604 6.56389 5.70604 6.56389C4.31327 8.75184 3.83135 9.23859 3.05544 9.23859C2.73255 9.23859 2.46267 9.12293 2.25544 8.90124L2.2458 8.8916L0.862671 10.082L0.872309 10.0916C1.38315 10.6844 2.10123 11.0121 2.98797 11.0121C4.33255 11.0121 5.30123 10.3759 7.02171 7.37353C7.02171 7.37353 7.73978 6.10606 8.23135 5.23377C7.92773 4.7422 7.64821 4.31329 7.39279 3.94702L7.38797 3.95184Z" fill="#0082FB"/>
<path d="M9.25306 1.4165L9.24342 1.42614C8.95909 1.73458 8.69403 2.05747 8.44824 2.39482C8.70848 2.72253 8.97354 3.09361 9.25306 3.50807C9.58077 3.00205 9.88921 2.58759 10.188 2.27434L10.1976 2.2647L9.25306 1.4165Z" fill="url(#paint6_linear_4235_22059)"/>
<path d="M14.3326 1.26264C13.6049 0.525288 12.7326 0.0915527 11.8024 0.0915527C10.8193 0.0915527 9.99522 0.631312 9.25305 1.41685L9.24341 1.42649L10.188 2.27469L10.1976 2.26505C10.6892 1.7542 11.1615 1.49878 11.6868 1.49878C12.2506 1.49878 12.7808 1.76384 13.2434 2.23131L13.253 2.24095L14.3422 1.26746L14.3326 1.25782V1.26264Z" fill="#0082FB"/>
<path d="M16.4434 7.00752C16.4049 4.64125 15.5759 2.52077 14.3422 1.27258L14.3326 1.26294L13.2434 2.23643L13.253 2.24607C14.1783 3.19547 14.8145 4.96414 14.8723 7.00752V7.02198H16.4434V7.00752Z" fill="url(#paint7_linear_4235_22059)"/>
<path d="M16.4435 7.02154V7.00708H14.8724V7.02154C14.8724 7.11792 14.8724 7.21431 14.8724 7.31069C14.8724 7.86973 14.7905 8.31792 14.6218 8.64082L14.6122 8.65527L15.7833 9.87455L15.7929 9.86009C16.217 9.20467 16.4387 8.29383 16.4387 7.19021C16.4387 7.13238 16.4387 7.07937 16.4387 7.02154H16.4435Z" fill="url(#paint8_linear_4235_22059)"/>
<path d="M14.6265 8.64593L14.6169 8.66039C14.4723 8.93509 14.2602 9.11822 13.9904 9.19533L14.5253 10.8773C14.5976 10.8532 14.6651 10.8242 14.7325 10.7953C14.7518 10.7857 14.7711 10.7761 14.7904 10.7664L14.8241 10.752C15.1807 10.5736 15.4843 10.3086 15.7157 9.98087C15.7301 9.96159 15.7446 9.9375 15.759 9.91822C15.7687 9.90376 15.7783 9.88931 15.7879 9.87485L15.7976 9.86039L14.6265 8.64111V8.64593Z" fill="url(#paint9_linear_4235_22059)"/>
<path d="M13.6482 9.24336C13.4795 9.24336 13.3109 9.21444 13.1566 9.14697L12.6121 10.8675C12.9205 10.9735 13.2482 11.0217 13.6145 11.0217C13.9277 11.0217 14.241 10.9735 14.5398 10.8723L14.0048 9.19035C13.8892 9.22408 13.7687 9.24336 13.6482 9.23854V9.24336Z" fill="url(#paint10_linear_4235_22059)"/>
<path d="M12.5542 8.65075L12.5446 8.64111L11.2867 9.94714L11.2964 9.95678C11.7349 10.4242 12.1494 10.7134 12.6217 10.8676L13.1663 9.14714C12.9687 9.06039 12.7759 8.90617 12.5494 8.64593L12.5542 8.65075Z" fill="url(#paint11_linear_4235_22059)"/>
<path d="M12.5447 8.64089C12.1688 8.20234 11.7013 7.46981 10.9688 6.28908L10.0146 4.6939L10.0049 4.67944L8.89648 6.34209L8.90612 6.35655L9.58564 7.49872C10.2411 8.59752 10.776 9.3927 11.2965 9.94691L11.3061 9.95655L12.564 8.65053L12.5543 8.64089H12.5447Z" fill="url(#paint12_linear_4235_22059)"/>
</g>
<defs>
<linearGradient id="paint0_linear_4235_22059" x1="9.27228" y1="5.68191" x2="5.59036" y2="0.852997" gradientUnits="userSpaceOnUse">
<stop stop-color="#0867DF"/>
<stop offset="0.45" stop-color="#0668E1"/>
<stop offset="0.86" stop-color="#0064E0"/>
</linearGradient>
<linearGradient id="paint1_linear_4235_22059" x1="2.10125" y1="2.5542" x2="4.62655" y2="0.636131" gradientUnits="userSpaceOnUse">
<stop offset="0.13" stop-color="#0064DF"/>
<stop offset="1" stop-color="#0064E0"/>
</linearGradient>
<linearGradient id="paint2_linear_4235_22059" x1="1.03136" y1="5.36838" x2="2.04341" y2="2.81898" gradientUnits="userSpaceOnUse">
<stop offset="0.01" stop-color="#0072EC"/>
<stop offset="0.69" stop-color="#0064DF"/>
</linearGradient>
<linearGradient id="paint3_linear_4235_22059" x1="0.891566" y1="7.20929" x2="1.01205" y2="5.65266" gradientUnits="userSpaceOnUse">
<stop offset="0.07" stop-color="#007CF6"/>
<stop offset="0.99" stop-color="#0072EC"/>
</linearGradient>
<linearGradient id="paint4_linear_4235_22059" x1="0.959036" y1="8.05787" x2="0.872289" y2="7.43136" gradientUnits="userSpaceOnUse">
<stop offset="0.07" stop-color="#007FF9"/>
<stop offset="1" stop-color="#007CF6"/>
</linearGradient>
<linearGradient id="paint5_linear_4235_22059" x1="0.910894" y1="8.22186" x2="1.43138" y2="9.33029" gradientUnits="userSpaceOnUse">
<stop offset="0.07" stop-color="#007FF9"/>
<stop offset="1" stop-color="#0082FB"/>
</linearGradient>
<linearGradient id="paint6_linear_4235_22059" x1="8.93981" y1="2.85747" x2="9.62897" y2="1.90325" gradientUnits="userSpaceOnUse">
<stop offset="0.28" stop-color="#007FF8"/>
<stop offset="0.91" stop-color="#0082FB"/>
</linearGradient>
<linearGradient id="paint7_linear_4235_22059" x1="14.1928" y1="1.61957" x2="15.6386" y2="6.93523" gradientUnits="userSpaceOnUse">
<stop stop-color="#0082FB"/>
<stop offset="1" stop-color="#0081FA"/>
</linearGradient>
<linearGradient id="paint8_linear_4235_22059" x1="15.9857" y1="7.1372" x2="15.07" y2="8.9878" gradientUnits="userSpaceOnUse">
<stop offset="0.06" stop-color="#0081FA"/>
<stop offset="1" stop-color="#0080F9"/>
</linearGradient>
<linearGradient id="paint9_linear_4235_22059" x1="14.347" y1="9.96641" x2="15.2" y2="9.38328" gradientUnits="userSpaceOnUse">
<stop stop-color="#027AF3"/>
<stop offset="1" stop-color="#0080F9"/>
</linearGradient>
<linearGradient id="paint10_linear_4235_22059" x1="13.0024" y1="10.0819" x2="14.1928" y2="10.0819" gradientUnits="userSpaceOnUse">
<stop stop-color="#0377EF"/>
<stop offset="1" stop-color="#0279F1"/>
</linearGradient>
<linearGradient id="paint11_linear_4235_22059" x1="11.9711" y1="9.42666" x2="12.8241" y2="9.92786" gradientUnits="userSpaceOnUse">
<stop stop-color="#0471E9"/>
<stop offset="1" stop-color="#0377EF"/>
</linearGradient>
<linearGradient id="paint12_linear_4235_22059" x1="9.36395" y1="5.72041" x2="12.1013" y2="9.16137" gradientUnits="userSpaceOnUse">
<stop offset="0.28" stop-color="#0867DF"/>
<stop offset="1" stop-color="#0471E9"/>
</linearGradient>
<clipPath id="clip0_4235_22059">
<rect width="117.913" height="24" fill="white"/>
</clipPath>
</defs>
</svg>
