<svg width="28" height="28" viewBox="0 0 28 28" fill="none" xmlns="http://www.w3.org/2000/svg">
<g clip-path="url(#clip0_2018_9812)">
<path d="M19.8708 2.84757L19.8598 2.74817L19.7604 2.75917L19.0759 2.83493L18.9765 2.84593L18.9875 2.94533L19.29 5.67796L19.301 5.77735L19.4004 5.76635L20.0848 5.6906L20.1842 5.67959L20.1732 5.5802L19.8708 2.84757Z" fill="black" stroke="black" stroke-width="0.2"/>
<path d="M25.5025 4.67979L25.4829 4.50243L25.3418 4.61175L22.9873 6.43693L22.9083 6.4981L22.9694 6.57711L23.3908 7.12238L23.452 7.20162L23.5312 7.14027L25.5533 5.5731L25.5976 5.53876L25.5914 5.48306L25.5025 4.67979Z" fill="black" stroke="black" stroke-width="0.2"/>
<path d="M26.3627 12.4513L26.3823 12.6287L26.2208 12.5528L23.5508 11.2992L23.4605 11.2568L23.5028 11.1663L23.7947 10.5421L23.8371 10.4514L23.9278 10.4939L26.2169 11.5685L26.2676 11.5923L26.2738 11.648L26.3627 12.4513Z" fill="black" stroke="black" stroke-width="0.2"/>
<path d="M23.0904 3.56508L23.1305 3.4735L23.039 3.43333L22.4083 3.15671L22.3168 3.11654L22.2766 3.20812L21.1722 5.72588L21.132 5.81746L21.2236 5.85763L21.8543 6.13425L21.9458 6.17442L21.986 6.08284L23.0904 3.56508Z" fill="black" stroke="black" stroke-width="0.2"/>
<path d="M27.0516 7.9677L27.1232 7.80429L26.9464 7.82845L23.9947 8.23181L23.8958 8.24533L23.9092 8.34428L24.0015 9.0272L24.0149 9.12644L24.1141 9.11289L26.6489 8.76671L26.7044 8.75913L26.7269 8.7078L27.0516 7.9677Z" fill="black" stroke="black" stroke-width="0.2"/>
<path d="M16.3789 3.28627L16.4505 3.12286L16.5525 3.26929L18.2549 5.71411L18.312 5.79606L18.2301 5.85324L17.6651 6.24786L17.583 6.3052L17.5258 6.22303L16.0637 4.12369L16.0317 4.0777L16.0542 4.02637L16.3789 3.28627Z" fill="black" stroke="black" stroke-width="0.2"/>
<path d="M23.9108 15.1282L23.8391 15.2916L23.7372 15.1451L22.0518 12.7245L21.9947 12.6425L22.0766 12.5854L22.6415 12.1907L22.7236 12.1334L22.7808 12.2156L24.2259 14.2907L24.258 14.3367L24.2355 14.388L23.9108 15.1282Z" fill="black" stroke="black" stroke-width="0.2"/>
<mask id="path-8-inside-1_2018_9812" fill="white">
<path fill-rule="evenodd" clip-rule="evenodd" d="M5.63158 10.1376L20.1459 9.26643L20.146 9.26642L20.1458 9.26653L12.1342 21.4007L11.2484 16.5488L4.1803 20.6295L2.32237 17.4115L9.39057 13.3307L5.63158 10.1376Z"/>
</mask>
<path d="M20.1459 9.26643L20.1378 8.26646L20.1119 8.26667L20.086 8.26822L20.1459 9.26643ZM5.63158 10.1376L5.57166 9.13942L3.08737 9.28854L4.98418 10.8998L5.63158 10.1376ZM20.146 9.26642L20.646 10.1325L23.9311 8.23583L20.1379 8.26646L20.146 9.26642ZM20.1458 9.26653L19.6458 8.40051L19.4414 8.51854L19.3113 8.71554L20.1458 9.26653ZM12.1342 21.4007L11.1505 21.5803L11.5974 24.0286L12.9687 21.9517L12.1342 21.4007ZM11.2484 16.5488L12.2322 16.3692L11.9773 14.9732L10.7484 15.6827L11.2484 16.5488ZM4.1803 20.6295L3.31427 21.1295L3.81427 21.9956L4.6803 21.4956L4.1803 20.6295ZM2.32237 17.4115L1.82237 16.5455L0.956346 17.0455L1.45635 17.9115L2.32237 17.4115ZM9.39057 13.3307L9.89057 14.1967L11.1195 13.4872L10.038 12.5685L9.39057 13.3307ZM20.086 8.26822L5.57166 9.13942L5.6915 11.1358L20.2058 10.2646L20.086 8.26822ZM20.1379 8.26646L20.1378 8.26646L20.154 10.2664L20.1541 10.2664L20.1379 8.26646ZM20.6458 10.1326L20.646 10.1325L19.646 8.4004L19.6458 8.40051L20.6458 10.1326ZM12.9687 21.9517L20.9804 9.81752L19.3113 8.71554L11.2997 20.8497L12.9687 21.9517ZM10.2647 16.7284L11.1505 21.5803L13.1179 21.2211L12.2322 16.3692L10.2647 16.7284ZM10.7484 15.6827L3.6803 19.7635L4.6803 21.4956L11.7484 17.4148L10.7484 15.6827ZM5.04632 20.1295L3.1884 16.9115L1.45635 17.9115L3.31427 21.1295L5.04632 20.1295ZM2.82237 18.2775L9.89057 14.1967L8.89057 12.4647L1.82237 16.5455L2.82237 18.2775ZM4.98418 10.8998L8.74316 14.0928L10.038 12.5685L6.27898 9.37548L4.98418 10.8998Z" fill="black" mask="url(#path-8-inside-1_2018_9812)"/>
</g>
<defs>
<clipPath id="clip0_2018_9812">
<rect width="28" height="28" fill="white"/>
</clipPath>
</defs>
</svg>
