<?xml version="1.0" encoding="utf-8"?>
<!-- Generator: Adobe Illustrator 27.0.0, SVG Export Plug-In . SVG Version: 6.00 Build 0)  -->
<svg version="1.1" id="Layer_1" xmlns="http://www.w3.org/2000/svg" xmlns:xlink="http://www.w3.org/1999/xlink" x="0px" y="0px"
	 viewBox="0 0 1000 924" style="enable-background:new 0 0 1000 924;" xml:space="preserve">
<style type="text/css">
	.st0{fill:none;stroke:#000000;stroke-width:2.4336;stroke-miterlimit:10;}
	.st1{fill:#00F6FF;}
	.st2{fill:#98E891;}
	.st3{fill:none;stroke:#000000;stroke-width:2.87;stroke-miterlimit:10;}
</style>
<line class="st0" x1="66.9" y1="609.3" x2="926.2" y2="609.3"/>
<path class="st1" d="M619.8,482.7c-20.6,8.1-43.3,14.2-66.5,17.7c-5.2,0.8-10.5,1.7-15.7,2.2c-0.3,0.1-0.6,0.1-0.8,0.1
	c-1.1,0.1-2.2,0.2-3.4,0.3c-1.7,0.2-3.3,0.3-5,0.5c-2.9,0.2-5.8,0.4-8.7,0.6c-6.2,0.3-12.3,0.5-18.4,0.5c-2.9,0-5.8,0-8.7-0.1
	c-2.3-0.1-4.6-0.1-6.9-0.2c-1,0-1.9-0.1-2.8-0.1c-2.7-0.1-5.4-0.3-8.1-0.6c-1.8-0.1-3.6-0.3-5.4-0.5c-3.4-0.3-6.8-0.7-10.1-1.2
	c-1.6-0.2-3.1-0.5-4.6-0.7c0,0-0.1,0-0.1-0.1c-0.3-0.1-0.6-0.2-0.9-0.3c-2.4-0.3-4.8-0.8-7.2-1.2c-1.5-0.3-3.1-0.6-4.6-0.9l-0.2,0.2
	c-25.8-5.2-49.7-14.2-69.1-27.3l-6.7,3.8l-0.3-0.3l-82.8,46.5l42.7-89.4c-13.1-14.8-21.8-32.5-20.9-52.8
	c1.5-38.4,26.2-64.9,59.1-82.6c4.2-2.2,8.5-4.3,12.9-6.3c5.1-2.3,10.3-4.4,15.6-6.4c14.2-5.2,29-9.3,43.3-12.2
	c7.5-1.4,14.6-2.6,21.8-3.7v-0.1c14.8-2,28.7-3.2,40.7-3.5c11-0.3,23.8-0.3,37.7,0.3c8.4,0.3,17.7,0.9,27,1.7
	c11.6,1.2,23.5,2.6,35.1,4.9c4.5,0.9,9,1.9,13.5,3c8,2,15.9,4.3,23.6,7.1c40,14.4,72.8,40.4,77.9,86.6
	C718.5,420.3,677.3,460.1,619.8,482.7z"/>
<g>
	<path d="M72.5,687.7c0-8.4,2.8-15.5,14-15.5c9.7,0,13.6,5.7,13.6,12h-3.8c-0.1-5-2.9-9-9.8-9c-8.3,0-10.2,5.5-10.2,12.4
		S78.2,700,86.4,700c6.9,0,9.6-3.9,9.8-9h3.8c0,6.8-3.8,12.1-13.6,12.1C75.2,703.3,72.5,696.1,72.5,687.7z"/>
	<path d="M108,669.4h3.5v13.4c1-2.5,3.3-4.4,8.5-4.4c8.1,0,9.8,4.4,9.8,11.5V703h-3.5v-13.4c0-5.5-1-8.1-7.2-8.1s-7.5,2.4-7.5,8.1
		V703h-3.5L108,669.4L108,669.4z"/>
	<path d="M136.9,690.8c0-6.3,2.4-12.5,11.7-12.5s11.7,6.1,11.7,12.5s-2.4,12.5-11.7,12.5S136.9,697.2,136.9,690.8z M156.6,690.8
		c0-5.1-1.6-9.5-8-9.5s-8,4.2-8,9.5c0,5.2,1.6,9.5,8,9.5C155,700.4,156.6,696.1,156.6,690.8z"/>
	<path d="M166.4,690.8c0-6.3,2.4-12.5,11.7-12.5s11.7,6.1,11.7,12.5s-2.4,12.5-11.7,12.5C168.7,703.3,166.4,697.2,166.4,690.8z
		 M186.1,690.8c0-5.1-1.6-9.5-8-9.5s-8,4.2-8,9.5c0,5.2,1.6,9.5,8,9.5C184.5,700.4,186.1,696.1,186.1,690.8z"/>
	<path d="M195.8,694.6h3.5c0,3.3,2.3,5.7,8,5.7c5.2,0,6.9-1.9,6.9-3.9c0.2-6.3-17.8-2.5-18-11.2c-0.1-4.1,2.9-7,10.3-7
		c7.6,0,10.4,4,10.4,8.3h-3.3c0-2.8-1.9-5.5-7.3-5.5c-5.1,0-6.8,1.7-6.7,4c0.1,5.6,17.8,2.3,17.8,11.2c0,3.5-2.9,6.9-10.4,6.9
		C199.3,703.3,195.8,699.7,195.8,694.6z"/>
	<path d="M224,690.6c0-6.3,2.4-12.3,12.1-12.3c8.5,0,11,5.3,11,12.1c0,0.6,0,1.1,0,1.8h-19.3c0.2,4.9,2.4,8.1,8.4,8.1
		c5.1,0,6.9-2.5,7.4-4.4h3.8c-0.4,3-3.2,7.2-10.9,7.2C226.1,703.3,224,697.2,224,690.6z M243.4,689.4c0-4.6-2.1-8.3-7.6-8.3
		c-6.2,0-7.9,3.9-8.1,8.3H243.4z"/>
	<path d="M268.6,705.1h3.5c0.1,2.7,1.2,4.9,7.5,4.9c6.6,0,7.6-3.2,7.6-6.7v-4.1c-1.1,2.5-3.5,4.1-8.5,4.1c-8.3,0-9.8-4.5-9.8-11.5
		v-13.1h3.5V692c0,5.2,1.1,8.3,7.3,8.3c6.3,0,7.6-3,7.6-8.4v-13.2h3.5V703c0,4.7-1.7,9.7-11.2,9.7
		C270.9,712.7,268.6,709,268.6,705.1z"/>
	<path d="M298.2,690.8c0-6.3,2.4-12.5,11.7-12.5s11.7,6.1,11.7,12.5s-2.4,12.5-11.7,12.5S298.2,697.2,298.2,690.8z M317.9,690.8
		c0-5.1-1.6-9.5-8-9.5s-8,4.2-8,9.5c0,5.2,1.6,9.5,8,9.5C316.3,700.4,317.9,696.1,317.9,690.8z"/>
	<path d="M328.6,691.7v-13.1h3.5V692c0,5.2,1.1,8.3,7.3,8.3s7.6-3,7.6-8.4v-13.2h3.5V703h-1.9l-0.7-4.4c-1,2.4-3.5,4.6-9.5,4.6
		C330.2,703.3,328.6,698.8,328.6,691.7z"/>
	<path d="M359.1,678.6h1.6l1.1,4.1c1-2.4,3.5-4.6,9.2-4.6v3.3c-7-0.4-8.4,2.8-8.4,8.1v13.4h-3.5L359.1,678.6L359.1,678.6z"/>
	<path d="M390.6,690.8c0-6.4,2.4-12.5,11.8-12.5c7.4,0,10.8,3.9,10.8,9.8h-3.6c-0.2-4.4-2.2-6.8-7.3-6.8c-6.4,0-8.1,4.1-8.1,9.3
		s1.7,9.5,8.1,9.5c5.1,0,7-2.5,7.3-6.8h3.6c0,6.1-3.3,9.8-10.7,9.8C392.9,703.3,390.6,697.3,390.6,690.8z"/>
	<path d="M420.9,691.7v-13.1h3.5V692c0,5.2,1.1,8.3,7.3,8.3s7.6-3,7.6-8.4v-13.2h3.5V703h-1.9l-0.7-4.4c-1,2.4-3.5,4.6-9.5,4.6
		C422.4,703.3,420.9,698.8,420.9,691.7z"/>
	<path d="M450.1,694.6h3.5c0,3.3,2.3,5.7,8,5.7c5.2,0,6.9-1.9,6.9-3.9c0.2-6.3-17.8-2.5-18-11.2c-0.1-4.1,2.9-7,10.3-7
		c7.6,0,10.4,4,10.4,8.3h-3.3c0-2.8-1.9-5.5-7.3-5.5c-5.1,0-6.8,1.7-6.7,4c0.1,5.6,17.8,2.3,17.8,11.2c0,3.5-2.9,6.9-10.4,6.9
		C453.5,703.3,450.1,699.7,450.1,694.6z"/>
	<path d="M481.3,695.9v-14.2H478v-2.2l3.3-0.8v-5.9h3.5v6.1h7.6v2.9h-7.5V696c0,3,1.2,4.4,5.9,4.4c0.5,0,1.1,0,1.7,0v2.9
		c-0.7,0-1.5,0.1-2.2,0.1C484,703.3,481.3,701.1,481.3,695.9z"/>
	<path d="M496.7,690.8c0-6.3,2.4-12.5,11.7-12.5c9.2,0,11.7,6.1,11.7,12.5s-2.4,12.5-11.7,12.5C499,703.3,496.7,697.2,496.7,690.8z
		 M516.4,690.8c0-5.1-1.6-9.5-8-9.5c-6.4,0-8,4.2-8,9.5c0,5.2,1.6,9.5,8,9.5C514.8,700.4,516.4,696.1,516.4,690.8z"/>
	<path d="M527.3,678.6h1.6l1.1,3.8c0.8-2.2,3.3-4.1,7.8-4.1c4.1,0,6.3,1.7,7.3,4.7c0.7-2.5,3-4.7,7.9-4.7c6.7,0,8.3,4.5,8.3,10.6
		V703h-3.6v-14.3c0-4.4-1-7.3-5.6-7.3s-5.9,2.7-5.9,7.3V703h-3.6v-14.3c0-4.4-1.1-7.3-5.7-7.3s-5.9,2.7-5.9,7.3V703h-3.5v-24.4
		H527.3z"/>
	<path d="M584.7,672.6h4.7l18.7,25.9v-25.9h3.8V703h-4.6l-18.9-26.2V703h-3.8L584.7,672.6L584.7,672.6L584.7,672.6z"/>
	<path d="M621.6,672.6h20.2v3h-16.4v10.3h15.4v3h-15.4V703h-3.8V672.6z"/>
	<path d="M648.6,687.7c0-8.4,2.8-15.5,14-15.5c9.7,0,13.6,5.7,13.6,12h-3.8c-0.1-5-2.9-9-9.8-9c-8.3,0-10.2,5.5-10.2,12.4
		s1.9,12.4,10.2,12.4c6.9,0,9.6-3.9,9.8-9h3.8c0,6.8-3.8,12.1-13.6,12.1C651.4,703.3,648.6,696.1,648.6,687.7z"/>
	<path d="M700.4,695.9v-14.2h-3.3v-2.2l3.3-0.8v-5.9h3.5v6.1h7.6v2.9H704V696c0,3,1.2,4.4,5.9,4.4c0.5,0,1.1,0,1.7,0v2.9
		c-0.7,0-1.5,0.1-2.2,0.1C703.1,703.3,700.4,701.1,700.4,695.9z"/>
	<path d="M716.1,696.1c0-4.4,3-6.3,10-7l8.9-1.1c0-4.4-1.5-6.7-7.6-6.7c-5.6,0-7,2.4-7,5.2H717c0-3.8,2.2-8,10.6-8
		c9.8,0,11.2,4.1,11.2,10.7V703h-1.9l-0.7-5c-1.3,3-5.2,5.2-10.3,5.2C720.3,703.3,716.1,701.1,716.1,696.1z M734.9,692.3v-1.7
		l-8.4,1.1c-5,0.7-6.8,1.7-6.8,4.2c0,2.9,2.4,4.4,6.4,4.4C731.1,700.5,734.9,697.7,734.9,692.3z"/>
	<path d="M749.5,698.4l-0.7,4.6h-1.9v-33.6h3.5v13.5c1-2.4,3.5-4.5,9-4.5c8.4,0,10.6,5.5,10.6,12.3c0,6.9-2.2,12.6-10.7,12.6
		C753.2,703.3,750.4,701,749.5,698.4z M766.2,690.6c0-5.6-1.3-9.2-8-9.2c-6.8,0-8,3.8-8,9.2c0,5.8,1.5,9.6,8.1,9.6
		C764.9,700.4,766.2,696.5,766.2,690.6z"/>
	<path d="M777.6,669.4h3.5V703h-3.5V669.4z"/>
	<path d="M788.4,690.6c0-6.3,2.4-12.3,12.1-12.3c8.5,0,11,5.3,11,12.1c0,0.6,0,1.1,0,1.8h-19.3c0.2,4.9,2.4,8.1,8.4,8.1
		c5.1,0,6.9-2.5,7.4-4.4h3.8c-0.4,3-3.2,7.2-10.9,7.2C790.6,703.3,788.4,697.2,788.4,690.6z M807.9,689.4c0-4.6-2.1-8.3-7.6-8.3
		c-6.2,0-7.9,3.9-8.1,8.3H807.9z"/>
	<path d="M832.3,690.8c0-6.4,2.4-12.5,11.8-12.5c7.4,0,10.8,3.9,10.8,9.8h-3.6c-0.2-4.4-2.2-6.8-7.3-6.8c-6.4,0-8.1,4.1-8.1,9.3
		s1.7,9.5,8.1,9.5c5.1,0,7-2.5,7.3-6.8h3.6c0,6.1-3.3,9.8-10.7,9.8C834.6,703.3,832.3,697.3,832.3,690.8z"/>
	<path d="M862.7,669.4h3.5v13.4c1-2.5,3.3-4.4,8.5-4.4c8.1,0,9.8,4.4,9.8,11.5V703H881v-13.4c0-5.5-1-8.1-7.2-8.1s-7.5,2.4-7.5,8.1
		V703h-3.5L862.7,669.4L862.7,669.4z"/>
	<path d="M892,672.7c0-1.8,1.1-2.2,2.7-2.2c1.6,0,2.7,0.4,2.7,2.2c0,1.7-1.1,2.2-2.7,2.2S892,674.4,892,672.7z M892.9,678.6h3.5
		v24.3h-3.5V678.6z"/>
	<path d="M905,678.6h1.9l0.7,4.4c1-2.5,3.8-4.7,9.7-4.7c8.4,0,10.7,5.6,10.7,12.5c0,6.8-2.2,12.4-10.6,12.4c-5.5,0-8-2.1-9-4.5v13.7
		H905V678.6z M924.5,690.9c0-5.7-1.3-9.6-7.9-9.6c-6.8,0-8.1,3.9-8.1,9.6c0,5.5,1.2,9.3,8,9.3C923.1,700.2,924.5,696.5,924.5,690.9z
		"/>
	<path d="M72,761.4c0-4.4,3-6.3,10-7l8.9-1.1c0-4.4-1.5-6.7-7.6-6.7c-5.6,0-7,2.4-7,5.2h-3.5c0-3.8,2.2-8,10.6-8
		c9.8,0,11.2,4.1,11.2,10.7v13.8h-1.9l-0.7-5c-1.3,3-5.2,5.2-10.3,5.2C76.1,768.6,72,766.4,72,761.4z M90.8,757.6v-1.7l-8.4,1.1
		c-5,0.7-6.8,1.7-6.8,4.2c0,2.9,2.4,4.4,6.4,4.4C86.9,765.8,90.8,763,90.8,757.6z"/>
	<path d="M102.6,743.9h1.7l1.1,4.4c1-2.5,3.5-4.7,9.5-4.7c8.3,0,9.8,4.6,9.8,11.7v13.1h-3.5V755c0-5.2-1-8.4-7.3-8.4
		c-6.2,0-7.6,3-7.6,8.4v13.4h-3.6L102.6,743.9L102.6,743.9z"/>
	<path d="M131.7,756.1c0-6.8,2.2-12.4,10.6-12.4c5.5,0,8,1.9,9,4.4v-13.4h3.5v33.6h-2.1l-0.7-4.6c-1,2.5-3.8,4.9-9.7,4.9
		C133.9,768.6,131.7,763,131.7,756.1z M151.4,756.1c0-5.3-1.2-9.3-8-9.3c-6.7,0-8,3.8-8,9.3c0,5.7,1.5,9.5,7.9,9.5
		C149.9,765.5,151.4,761.9,151.4,756.1z"/>
	<path d="M177.8,734.7h3.5v33.6h-3.5V734.7z"/>
	<path d="M189,738c0-1.8,1.1-2.2,2.7-2.2s2.7,0.4,2.7,2.2c0,1.7-1.1,2.2-2.7,2.2C190.1,740.1,189,739.7,189,738z M190,743.9h3.5
		v24.3H190V743.9z"/>
	<path d="M202,743.9h1.7l1.1,4.4c1-2.5,3.5-4.7,9.5-4.7c8.3,0,9.8,4.6,9.8,11.7v13.1h-3.5V755c0-5.2-1-8.4-7.3-8.4
		c-6.2,0-7.6,3-7.6,8.4v13.4h-3.5V744L202,743.9L202,743.9z"/>
	<path d="M232.2,734.7h3.5V754l11.2-10.1h5.2l-13.5,11.5l14.7,12.7h-5.1l-12.5-11.3v11.3h-3.5L232.2,734.7L232.2,734.7z"/>
	<path d="M273.6,753c0-8.4,2.8-15.5,14-15.5c9.7,0,13.5,4.4,13.5,10h-3.8c-0.2-4.1-2.7-6.9-9.7-6.9c-8.3,0-10.2,5.5-10.2,12.4
		s2.3,12.4,10.2,12.4c7.2,0,10-4.4,10-10.7h-11.2v-3H301v16.8h-2.2l-0.8-6.2c-1.6,3.9-4.6,6.4-10.8,6.4
		C276.9,768.6,273.6,761.4,273.6,753z"/>
	<path d="M308.8,756.1c0-6.3,2.4-12.5,11.7-12.5c9.2,0,11.7,6.1,11.7,12.5s-2.4,12.5-11.7,12.5C311.1,768.6,308.8,762.5,308.8,756.1
		z M328.5,756.1c0-5.1-1.6-9.5-8-9.5s-8,4.2-8,9.5c0,5.2,1.6,9.5,8,9.5C326.8,765.6,328.5,761.4,328.5,756.1z"/>
	<path d="M338.2,756.1c0-6.3,2.4-12.5,11.7-12.5c9.2,0,11.7,6.1,11.7,12.5s-2.4,12.5-11.7,12.5S338.2,762.5,338.2,756.1z
		 M357.8,756.1c0-5.1-1.6-9.5-8-9.5s-8,4.2-8,9.5c0,5.2,1.6,9.5,8,9.5C356.3,765.6,357.8,761.4,357.8,756.1z"/>
	<path d="M367.3,770.1h3.6c0,2.9,1.6,5.5,8.5,5.5c6.7,0,8-1.3,8-3.3c0-5.8-19.7-1.9-19.7-9.5c0-1.9,1.5-3.2,3.9-3.8
		c-2.7-1.5-3.4-4-3.4-6.6c0-5,2.2-8.6,11.4-8.6h10.6v1.8l-4,0.6c2.4,0.8,3.5,3,3.5,6.2c0,5.1-1.9,8.7-10.8,8.7c-2.2,0-3.8-0.1-5-0.6
		c-2.2,0.2-2.7,1.1-2.7,1.8c0,4.4,19.8,0.8,19.8,9.6c0,3.4-2.7,6.3-11.8,6.3C369.7,778.5,367.3,774.5,367.3,770.1z M385.9,752.5
		c0-3.3-1.1-5.7-7-5.7c-5.7,0-7,2.2-7,5.7s1.2,6.2,7.2,6.2C384.6,758.7,385.9,756.2,385.9,752.5z"/>
	<path d="M397.7,734.7h3.5v33.6h-3.5V734.7z"/>
	<path d="M408.5,755.9c0-6.3,2.4-12.3,12.1-12.3c8.5,0,11,5.3,11,12.1c0,0.6,0,1.1,0,1.8h-19.3c0.2,4.9,2.4,8.1,8.4,8.1
		c5.1,0,6.9-2.5,7.4-4.4h3.8c-0.4,3-3.2,7.2-10.9,7.2C410.7,768.6,408.5,762.5,408.5,755.9z M427.9,754.7c0-4.6-2.1-8.3-7.6-8.3
		c-6.2,0-7.9,3.9-8.1,8.3H427.9z"/>
	<path d="M452.7,738c0-1.8,1.1-2.2,2.7-2.2s2.7,0.4,2.7,2.2c0,1.7-1.1,2.2-2.7,2.2C453.6,740.1,452.7,739.7,452.7,738z M453.5,743.9
		h3.5v24.3h-3.5V743.9z"/>
	<path d="M465.5,743.9h1.7l1.1,4.4c1-2.5,3.5-4.7,9.5-4.7c8.3,0,9.8,4.6,9.8,11.7v13.1h-3.5V755c0-5.2-1-8.4-7.3-8.4
		c-6.2,0-7.6,3-7.6,8.4v13.4h-3.6v-24.5H465.5z"/>
	<path d="M510.3,743.9h1.6l1.1,3.8c0.8-2.2,3.3-4.1,7.8-4.1c4.1,0,6.3,1.7,7.3,4.7c0.7-2.5,3-4.7,7.9-4.7c6.7,0,8.3,4.5,8.3,10.6
		v14.2h-3.6V754c0-4.4-1-7.3-5.6-7.3s-5.9,2.7-5.9,7.3v14.3h-3.6V754c0-4.4-1.1-7.3-5.7-7.3c-4.6,0-5.9,2.7-5.9,7.3v14.3h-3.5v-24.4
		L510.3,743.9L510.3,743.9z"/>
	<path d="M551.6,738c0-1.8,1.1-2.2,2.7-2.2s2.7,0.4,2.7,2.2c0,1.7-1.1,2.2-2.7,2.2S551.6,739.7,551.6,738z M552.4,743.9h3.5v24.3
		h-3.5V743.9z"/>
	<path d="M564.6,743.9h1.7l1.1,4.4c1-2.5,3.5-4.7,9.5-4.7c8.3,0,9.8,4.6,9.8,11.7v13.1h-3.5V755c0-5.2-1-8.4-7.3-8.4s-7.6,3-7.6,8.4
		v13.4h-3.5V744L564.6,743.9L564.6,743.9z"/>
	<path d="M594.6,757v-13.1h3.5v13.4c0,5.2,1.1,8.3,7.3,8.3s7.6-3,7.6-8.4V744h3.5v24.3h-1.9l-0.7-4.4c-1,2.4-3.5,4.6-9.5,4.6
		C596,768.6,594.6,764.1,594.6,757z"/>
	<path d="M626.9,761.2V747h-3.3v-2.2l3.3-0.8v-6h3.5v6.1h7.6v2.9h-7.5v14.2c0,3,1.2,4.4,5.9,4.4c0.5,0,1.1,0,1.7,0v2.9
		c-0.7,0-1.5,0.1-2.2,0.1C629.5,768.6,626.9,766.4,626.9,761.2z"/>
	<path d="M642.3,755.9c0-6.3,2.4-12.3,12.1-12.3c8.5,0,11,5.3,11,12.1c0,0.6,0,1.1,0,1.8h-19.3c0.2,4.9,2.4,8.1,8.4,8.1
		c5.1,0,6.9-2.5,7.4-4.4h3.8c-0.4,3-3.2,7.2-10.9,7.2C644.5,768.6,642.3,762.5,642.3,755.9z M661.7,754.7c0-4.6-2.1-8.3-7.6-8.3
		c-6.2,0-7.9,3.9-8.1,8.3H661.7z"/>
	<path d="M671.5,759.9h3.5c0,3.3,2.3,5.7,8,5.7c5.2,0,6.9-1.9,6.9-3.9c0.2-6.3-17.8-2.5-18-11.2c-0.1-4.1,2.9-7,10.3-7
		c7.6,0,10.4,4,10.4,8.3h-3.3c0-2.8-1.9-5.5-7.3-5.5c-5.1,0-6.8,1.7-6.7,4c0.1,5.6,17.8,2.3,17.8,11.2c0,3.5-2.9,6.9-10.4,6.9
		C675,768.6,671.5,765,671.5,759.9z"/>
</g>
<g>
	<path d="M370.6,148.3c-16.8,0-33.4,0-50.1,0c0-0.5-0.1-0.9-0.1-1.3c0-3.3,0-6.6,0-9.9c0-1,0.4-1.5,1.1-2.1
		c7.8-5.3,15.6-10.6,23.3-16c3.4-2.5,6.8-5,9.1-8.7c2.1-3.2,2.2-6.8,0.9-10.3c-0.9-2.5-2.9-3.8-5.4-4.4c-3.6-0.9-7.2-0.9-10.8,0.4
		c-3.4,1.1-5.6,4.3-5.8,8.1c-0.1,2.1-0.1,2.1-2.2,2.1c-3.3,0-6.8,0-10.2,0c-0.5,0-1.1,0-1.6,0c-1-8.1,2.5-17.1,12.6-20.7
		c6.8-2.3,13.8-2.2,20.9-1.3c3.7,0.5,7.2,1.5,10.3,3.6c4.5,2.9,6.8,7.5,7.3,12.9c0.6,6.3-0.6,12.1-4.9,16.8
		c-2.5,2.7-5.3,5.4-8.3,7.6c-5.2,3.7-10.6,7.1-16,10.5c-0.4,0.2-0.6,0.4-1.1,0.9c0.6,0.1,1,0.1,1.3,0.1c9.3,0,18.5,0,27.8,0
		c1.5,0,1.7,0.5,1.7,1.7C370.5,141.5,370.6,144.6,370.6,148.3z"/>
	<path d="M77.8,126.9c1.8,0,3.7,0.1,5.5,0c1.6-0.1,2,0.6,2.1,2c0.1,1.3,0.4,2.8,0.9,4c1.2,3.6,4.3,5.2,7.8,5.6
		c4.3,0.6,8.7,0.7,13-0.5c4.9-1.3,6-4.8,5.2-9.2c-0.4-2.3-2.2-3.6-4.3-4.2c-3.2-0.9-6.6-1.6-9.9-2.1c-5.8-1-11.7-1.6-17.1-3.9
		c-5.2-2.2-8.6-6-9.4-11.7c-0.9-5.8-0.4-11.4,3.7-16.2c2.7-3.3,6.4-5.2,10.5-6.1c9.8-2.3,19.4-2.5,28.9,0.7
		c7.2,2.3,10.6,7.8,11.5,15.1c0.5,4.2,0.4,4.2-3.8,4.2c-3.1,0-6.1,0-9.3,0c-0.9,0-1.5-0.1-1.5-1.2c-0.4-6-3.9-8.6-9.1-9.2
		c-4-0.5-8.2-0.5-12.1,1c-3.2,1.2-4.4,3.3-4.3,7.2c0.1,2.6,1.7,4.5,4.8,5.3c4.3,1,8.9,1.5,13.2,2.5c4.4,1,8.9,1.8,13.1,3.3
		c6.1,2.1,9.7,6.7,10.2,13.3c0.4,4.5,0,9.2-2.5,13.1c-2.7,4.3-6.8,7-11.6,8.4c-7.2,2.1-14.4,2.2-21.8,1.3c-3.9-0.5-7.8-1.3-11.4-3.3
		c-6.3-3.4-9.1-9.1-9.5-15.9c-0.2-3.8-0.1-3.8,3.6-3.8C75.3,126.9,76.5,126.9,77.8,126.9z"/>
	<path d="M252.8,98.6v6.3c0,0.5,0.5,0.6,0.9,0.2c1-1.2,2-2.3,2.9-3.3c4.9-4.5,10.9-5.6,17.1-4.4c8.8,1.7,14,7.3,15.7,16
		c1.3,7,1.5,13.7-0.1,20.6c-1.7,7.6-5.6,13.3-13.6,15.4c-8.6,2.2-16.7,0.4-22-7.5l0,0c-0.2-0.4-0.9-0.1-0.9,0.2v24.6
		c0,0.2-0.2,0.5-0.5,0.5h-13c-0.2,0-0.5-0.2-0.5-0.5c0-0.5,0-0.9,0-1.2c0-22.2,0-44.1,0-66.2c0-1,0.1-1.3,1.3-1.3
		c3.9,0.1,7.9,0,12.1,0C252.7,98.1,252.8,98.4,252.8,98.6z M276.1,127.3c0.2-2,0.4-4,0.1-6c-0.1-1.3-0.2-2.6-0.5-3.8
		c-0.7-5.3-3.4-8.4-8.8-9.2c-6-1-11.5,1.2-13.2,7.8c-1.2,4.8-1.2,9.7-0.2,14.3c0.5,2.3,1.5,4.5,3.4,6.3c2.9,2.6,6.4,2.6,10,2.3
		c4.3-0.4,7.1-2.8,8.2-7C275.6,130.5,275.8,128.7,276.1,127.3z"/>
	<path d="M227.8,126.8c-0.7,0-1.2,0-1.8,0c-10.9,0-21.9,0-32.7,0c-1.8,0-2,0.1-1.6,2c0.2,1.2,0.5,2.5,0.9,3.7c1,3.4,3.2,5.6,6.7,6.6
		c4,1,8.3,1.1,12.2-0.7c1.8-0.9,2.9-2.3,3.3-4.4c0.1-1.1,0.6-1.3,1.7-1.3c3.4,0.1,7,0,10.3,0c0.4,0,0.7,0.1,1.1,0.1
		c-0.4,6.7-3.6,12.7-10.5,15.3c-3.1,1.2-6.4,2-9.8,2.2c-4.9,0.5-10,0.2-14.8-1.5c-7.2-2.5-11.7-7.5-13.6-14.6
		c-2.1-7.7-2-15.4,0.6-23c2.8-8.1,8.9-12.2,17-13.6c5.5-1,11-0.9,16.5,0.6c7.8,2.2,12.2,7.5,14.1,15.1
		C228.3,117.7,228.5,122.1,227.8,126.8z M215.1,118.1c0.5-3.8-1.6-9.3-6.1-10.3c-2.1-0.5-4.3-0.7-6.6-0.7c-6.4,0.1-10.5,4.4-10.6,11
		C199.4,118.1,207.2,118.1,215.1,118.1z"/>
	<path d="M172.8,149.1c-0.7,0-1.2,0-1.7,0c-5.5,0-11,0-16.5,0c-6.4,0-10.9-4.4-10.9-11c0-9.1,0-18,0-27.1c0-1.3-0.4-1.7-1.7-1.7
		c-2.9,0.1-5.9,0-8.9,0c-1.2,0-1.6-0.4-1.6-1.6c0.1-2.7,0.1-5.4,0-8.2c0-1.2,0.2-1.7,1.6-1.6c3.2,0.1,6.4,0,9.7,0
		c1.2,0,1.8-0.4,2-1.6c0.5-3.6,1.1-7.1,1.6-10.6c0.1-1,0.6-1.3,1.6-1.3c2.7,0,5.4,0,8.2,0c1.1,0,1.5,0.4,1.5,1.5c0,3.4,0,7,0,10.5
		c0,1.2,0.5,1.6,1.6,1.6c3.9,0,7.9,0,11.9,0c0.5,0,1,0,1.6,0c0,3.6,0,7.1-0.1,10.5c0,0.2-0.9,0.7-1.5,0.7c-3.9,0.1-8.1,0.1-12,0
		c-1.3,0-1.7,0.4-1.7,1.7c0,7.8,0,15.7,0,23.5c0,2.8,0.5,3.3,3.3,3.3c3.4,0,7,0,10.3,0c1.1,0,1.5,0.4,1.5,1.5
		C172.8,142.6,172.8,145.8,172.8,149.1z"/>
	<path d="M395.1,148.1c-4.8,0-9.5,0-14.2,0c0-4.7,0-9.4,0-14.2c0.2,0,0.5-0.1,0.9-0.1c4,0,8.2,0,12.2,0c0.6,0,1.2,0,1.2,0.9
		C395.1,139.1,395.1,143.5,395.1,148.1z"/>
</g>
<g>
	<g>
		<g>
			<path class="st2" d="M628.3,371.9c5.9,6,5.9,15.6-0.1,21.5c-2.9,2.9-6.7,4.4-10.7,4.4c-4.1,0-7.9-1.6-10.8-4.5
				c-26.8-27-61.3-41.9-97.1-41.9c-35.9,0-70.4,14.9-97.1,41.9c-2.9,2.9-6.7,4.5-10.8,4.5c-4,0-7.9-1.6-10.7-4.4
				c-2.9-2.9-4.5-6.7-4.5-10.8s1.5-7.9,4.4-10.8c32.5-32.8,74.7-50.9,118.8-50.9C553.6,321,595.8,339.1,628.3,371.9z"/>
			<path class="st2" d="M533.4,503c-1.7,0.2-3.3,0.3-5,0.5c-2.9,0.2-5.8,0.4-8.7,0.6c-6.2,0.3-12.3,0.5-18.4,0.5
				c-2.9,0-5.8,0-8.7-0.1c-2.3-0.1-4.6-0.1-6.9-0.2c0-0.4,0-0.8,0-1.1c0-13.2,10.7-23.9,23.9-23.9
				C522.7,479.3,533.4,489.9,533.4,503z"/>
			<path class="st2" d="M676.2,338.8c-2.8,2.6-6.5,4.1-10.4,4.1c-4.2,0-8.3-1.8-11.1-4.9c-38.1-40.8-89.6-63.4-145.1-63.4
				S402.5,297.2,364.4,338c-2.9,3.1-6.9,4.9-11.1,4.9c-3.9,0-7.6-1.5-10.4-4.1c-6.2-5.7-6.5-15.4-0.8-21.5
				c6.8-7.3,14-14.2,21.6-20.5c4.2-2.2,8.5-4.3,12.9-6.3c5.1-2.3,10.3-4.4,15.6-6.4c14.2-5.2,29-9.3,43.3-12.2
				c7.5-1.4,14.6-2.6,21.8-3.7v-0.1c14.8-2,28.7-3.2,40.7-3.5c11-0.3,23.8-0.3,37.7,0.3c8.4,0.3,17.7,0.9,27,1.7
				c11.6,1.2,23.5,2.6,35.1,4.9c4.5,0.9,9,1.9,13.5,3c8,2,15.9,4.3,23.6,7.1c15.2,10,29.3,22,42.1,35.7
				C682.7,323.4,682.4,333.1,676.2,338.8z"/>
			<path class="st2" d="M575.9,426.8c2.9,2.9,4.5,6.7,4.5,10.8c0,4.1-1.5,7.9-4.4,10.8c-2.9,2.9-6.7,4.5-10.8,4.5
				c-4,0-7.8-1.6-10.7-4.4C542.5,436.6,525.1,429,510,429h-1c-15.1,0-32.5,7.6-44.4,19.4c-2.9,2.8-6.7,4.4-10.7,4.4
				c-4.1,0-7.9-1.6-10.8-4.5c-5.9-6-5.9-15.7,0.1-21.6c17.6-17.4,42.8-28.3,65.9-28.3h1C533.1,398.5,558.3,409.3,575.9,426.8z"/>
		</g>
	</g>
</g>
<g>
	<g>
		<g>
			<path class="st3" d="M628.3,371.9c5.9,6,5.9,15.6-0.1,21.5c-2.9,2.9-6.7,4.4-10.7,4.4c-4.1,0-7.9-1.6-10.8-4.5
				c-26.8-27-61.3-41.9-97.1-41.9c-35.9,0-70.4,14.9-97.1,41.9c-2.9,2.9-6.7,4.5-10.8,4.5c-4,0-7.9-1.6-10.7-4.4
				c-2.9-2.9-4.5-6.7-4.5-10.8s1.5-7.9,4.4-10.8c32.5-32.8,74.7-50.9,118.8-50.9C553.6,321,595.8,339.1,628.3,371.9z"/>
			<path class="st3" d="M533.4,503.2c0,13.1-10.7,23.8-23.8,23.8c-13.2,0-23.9-10.7-23.9-23.8c0-13.2,10.7-23.9,23.9-23.9
				C522.7,479.3,533.4,490,533.4,503.2z"/>
			<path class="st3" d="M676.2,338.8c-2.8,2.6-6.5,4.1-10.4,4.1c-4.2,0-8.3-1.8-11.1-4.9c-38.1-40.8-89.6-63.4-145.1-63.4
				S402.5,297.2,364.4,338c-2.9,3.1-6.9,4.9-11.1,4.9c-3.9,0-7.6-1.5-10.4-4.1c-6.2-5.7-6.5-15.4-0.8-21.5
				c43.9-47.1,103.4-73,167.4-73.1c64.1,0,123.5,26,167.4,73.1C682.7,323.4,682.4,333.1,676.2,338.8z"/>
			<path class="st3" d="M575.9,426.8c2.9,2.9,4.5,6.7,4.5,10.8c0,4.1-1.5,7.9-4.4,10.8c-2.9,2.9-6.7,4.5-10.8,4.5
				c-4,0-7.8-1.6-10.7-4.4C542.5,436.6,525.1,429,510,429h-1c-15.1,0-32.5,7.6-44.4,19.4c-2.9,2.8-6.7,4.4-10.7,4.4
				c-4.1,0-7.9-1.6-10.8-4.5c-5.9-6-5.9-15.7,0.1-21.6c17.6-17.4,42.8-28.3,65.9-28.3h1C533.1,398.5,558.3,409.3,575.9,426.8z"/>
		</g>
	</g>
</g>
</svg>
