<svg xmlns="http://www.w3.org/2000/svg" xmlns:xlink="http://www.w3.org/1999/xlink" version="1.1" id="Layer_1" x="0px" y="0px" viewBox="0 0 1000 924" style="enable-background:new 0 0 1000 924;" xml:space="preserve">
<style type="text/css">
	.st0{fill:none;stroke:#000000;stroke-width:2.4336;stroke-miterlimit:10;}
	.st1{fill:#00F6FF;}
	.st2{fill:#98E891;}
	.st3{fill:none;stroke:#000000;stroke-width:2.87;stroke-miterlimit:10;}
</style>

<path class="st1" d="M619.8,482.7c-20.6,8.1-43.3,14.2-66.5,17.7c-5.2,0.8-10.5,1.7-15.7,2.2c-0.3,0.1-0.6,0.1-0.8,0.1  c-1.1,0.1-2.2,0.2-3.4,0.3c-1.7,0.2-3.3,0.3-5,0.5c-2.9,0.2-5.8,0.4-8.7,0.6c-6.2,0.3-12.3,0.5-18.4,0.5c-2.9,0-5.8,0-8.7-0.1  c-2.3-0.1-4.6-0.1-6.9-0.2c-1,0-1.9-0.1-2.8-0.1c-2.7-0.1-5.4-0.3-8.1-0.6c-1.8-0.1-3.6-0.3-5.4-0.5c-3.4-0.3-6.8-0.7-10.1-1.2  c-1.6-0.2-3.1-0.5-4.6-0.7c0,0-0.1,0-0.1-0.1c-0.3-0.1-0.6-0.2-0.9-0.3c-2.4-0.3-4.8-0.8-7.2-1.2c-1.5-0.3-3.1-0.6-4.6-0.9l-0.2,0.2  c-25.8-5.2-49.7-14.2-69.1-27.3l-6.7,3.8l-0.3-0.3l-82.8,46.5l42.7-89.4c-13.1-14.8-21.8-32.5-20.9-52.8  c1.5-38.4,26.2-64.9,59.1-82.6c4.2-2.2,8.5-4.3,12.9-6.3c5.1-2.3,10.3-4.4,15.6-6.4c14.2-5.2,29-9.3,43.3-12.2  c7.5-1.4,14.6-2.6,21.8-3.7v-0.1c14.8-2,28.7-3.2,40.7-3.5c11-0.3,23.8-0.3,37.7,0.3c8.4,0.3,17.7,0.9,27,1.7  c11.6,1.2,23.5,2.6,35.1,4.9c4.5,0.9,9,1.9,13.5,3c8,2,15.9,4.3,23.6,7.1c40,14.4,72.8,40.4,77.9,86.6  C718.5,420.3,677.3,460.1,619.8,482.7z"/>


<g>
	<g>
		<g>
			<path class="st2" d="M628.3,371.9c5.9,6,5.9,15.6-0.1,21.5c-2.9,2.9-6.7,4.4-10.7,4.4c-4.1,0-7.9-1.6-10.8-4.5     c-26.8-27-61.3-41.9-97.1-41.9c-35.9,0-70.4,14.9-97.1,41.9c-2.9,2.9-6.7,4.5-10.8,4.5c-4,0-7.9-1.6-10.7-4.4     c-2.9-2.9-4.5-6.7-4.5-10.8s1.5-7.9,4.4-10.8c32.5-32.8,74.7-50.9,118.8-50.9C553.6,321,595.8,339.1,628.3,371.9z"/>
			<path class="st2" d="M533.4,503c-1.7,0.2-3.3,0.3-5,0.5c-2.9,0.2-5.8,0.4-8.7,0.6c-6.2,0.3-12.3,0.5-18.4,0.5     c-2.9,0-5.8,0-8.7-0.1c-2.3-0.1-4.6-0.1-6.9-0.2c0-0.4,0-0.8,0-1.1c0-13.2,10.7-23.9,23.9-23.9     C522.7,479.3,533.4,489.9,533.4,503z"/>
			<path class="st2" d="M676.2,338.8c-2.8,2.6-6.5,4.1-10.4,4.1c-4.2,0-8.3-1.8-11.1-4.9c-38.1-40.8-89.6-63.4-145.1-63.4     S402.5,297.2,364.4,338c-2.9,3.1-6.9,4.9-11.1,4.9c-3.9,0-7.6-1.5-10.4-4.1c-6.2-5.7-6.5-15.4-0.8-21.5     c6.8-7.3,14-14.2,21.6-20.5c4.2-2.2,8.5-4.3,12.9-6.3c5.1-2.3,10.3-4.4,15.6-6.4c14.2-5.2,29-9.3,43.3-12.2     c7.5-1.4,14.6-2.6,21.8-3.7v-0.1c14.8-2,28.7-3.2,40.7-3.5c11-0.3,23.8-0.3,37.7,0.3c8.4,0.3,17.7,0.9,27,1.7     c11.6,1.2,23.5,2.6,35.1,4.9c4.5,0.9,9,1.9,13.5,3c8,2,15.9,4.3,23.6,7.1c15.2,10,29.3,22,42.1,35.7     C682.7,323.4,682.4,333.1,676.2,338.8z"/>
			<path class="st2" d="M575.9,426.8c2.9,2.9,4.5,6.7,4.5,10.8c0,4.1-1.5,7.9-4.4,10.8c-2.9,2.9-6.7,4.5-10.8,4.5     c-4,0-7.8-1.6-10.7-4.4C542.5,436.6,525.1,429,510,429h-1c-15.1,0-32.5,7.6-44.4,19.4c-2.9,2.8-6.7,4.4-10.7,4.4     c-4.1,0-7.9-1.6-10.8-4.5c-5.9-6-5.9-15.7,0.1-21.6c17.6-17.4,42.8-28.3,65.9-28.3h1C533.1,398.5,558.3,409.3,575.9,426.8z"/>
		</g>
	</g>
</g>
<g>
	<g>
		<g>
			<path class="st3" d="M628.3,371.9c5.9,6,5.9,15.6-0.1,21.5c-2.9,2.9-6.7,4.4-10.7,4.4c-4.1,0-7.9-1.6-10.8-4.5     c-26.8-27-61.3-41.9-97.1-41.9c-35.9,0-70.4,14.9-97.1,41.9c-2.9,2.9-6.7,4.5-10.8,4.5c-4,0-7.9-1.6-10.7-4.4     c-2.9-2.9-4.5-6.7-4.5-10.8s1.5-7.9,4.4-10.8c32.5-32.8,74.7-50.9,118.8-50.9C553.6,321,595.8,339.1,628.3,371.9z"/>
			<path class="st3" d="M533.4,503.2c0,13.1-10.7,23.8-23.8,23.8c-13.2,0-23.9-10.7-23.9-23.8c0-13.2,10.7-23.9,23.9-23.9     C522.7,479.3,533.4,490,533.4,503.2z"/>
			<path class="st3" d="M676.2,338.8c-2.8,2.6-6.5,4.1-10.4,4.1c-4.2,0-8.3-1.8-11.1-4.9c-38.1-40.8-89.6-63.4-145.1-63.4     S402.5,297.2,364.4,338c-2.9,3.1-6.9,4.9-11.1,4.9c-3.9,0-7.6-1.5-10.4-4.1c-6.2-5.7-6.5-15.4-0.8-21.5     c43.9-47.1,103.4-73,167.4-73.1c64.1,0,123.5,26,167.4,73.1C682.7,323.4,682.4,333.1,676.2,338.8z"/>
			<path class="st3" d="M575.9,426.8c2.9,2.9,4.5,6.7,4.5,10.8c0,4.1-1.5,7.9-4.4,10.8c-2.9,2.9-6.7,4.5-10.8,4.5     c-4,0-7.8-1.6-10.7-4.4C542.5,436.6,525.1,429,510,429h-1c-15.1,0-32.5,7.6-44.4,19.4c-2.9,2.8-6.7,4.4-10.7,4.4     c-4.1,0-7.9-1.6-10.8-4.5c-5.9-6-5.9-15.7,0.1-21.6c17.6-17.4,42.8-28.3,65.9-28.3h1C533.1,398.5,558.3,409.3,575.9,426.8z"/>
		</g>
	</g>
</g>
</svg>