<?xml version="1.0" encoding="utf-8"?>
<!-- Generator: Adobe Illustrator 27.0.0, SVG Export Plug-In . SVG Version: 6.00 Build 0)  -->
<svg version="1.1" id="Layer_1" xmlns="http://www.w3.org/2000/svg" xmlns:xlink="http://www.w3.org/1999/xlink" x="0px" y="0px"
	 viewBox="0 0 750 692" style="enable-background:new 0 0 750 692;" xml:space="preserve">
<style type="text/css">
	.st0{fill:none;stroke:#000000;stroke-width:1.8239;stroke-miterlimit:10;}
	.st1{enable-background:new    ;}
	.st2{fill:#FA0CF7;}
	.st3{fill:#E5BDBE;}
	.st4{fill:none;stroke:#000000;stroke-width:2.7151;stroke-miterlimit:10;}
	.st5{fill:none;}
</style>
<g>
	
	<g>
		<g>
			<path class="st2" d="M500.2,327.4c-0.6,0.3-1.1,0.5-1.7,0.7c-22.5,8.2-34.5,9.1-37.5,9.2l-0.2,0.1c-0.4,0.1-0.8,0-1.1,0.1
				l-0.2,0.1c-0.8,0-1.5,0.1-2.2,0.1c0,0-0.3-0.1-0.5-0.1c-0.5-0.1-1,0.1-1.5,0.1c-0.2,0.1-0.3-0.1-0.5-0.1
				c-0.5-0.1-1.1-0.1-1.6-0.1c-5.4-1-13.3-11-19.3-25.7c-0.9-2.2-1.7-4.6-2.6-7.1c-1.1-3.3-2-6.8-2.8-10.5c-1.3-6-0.8-12.4-0.7-19.1
				c0-1,0.1-2.1,0.1-3.1c0-0.2,0-0.4,0-0.7c0-0.1-1.9-0.1,0,0c0,0-0.1,0.2-0.1,0.7c-0.1,0.6-0.5,1.6-1,3.1
				c-3.3,10.1-14.3,39.2-39.4,65.5c-7.4,7.9-16.1,15.4-26.2,22.2c-14.9,10-28.4,18.1-40.2,24.6c-33.2,18.3-53.3,23.9-54.8,24.4
				c-7.6,2.6-36.1-58.6-37.7-71.1c-0.5-4,53.5,0.5,98.9-26.2c1.5-0.8,2.9-1.7,4.3-2.5c2.8-1.7,5.5-3.5,8-5.4
				c35-25.3,46.3-58.8,50.2-62.4c-6.5,2.7-13.4,5.2-20.3,7.5c-0.3,0.1-0.6,0.2-0.9,0.3c-1.1,0.4-2,0.7-3.1,1
				c-7.7,2.5-15.4,4.6-22.7,6.2c-13.9,3.2-26.5,5.1-35.5,4.8c-6.3-0.1-11-1.4-12.8-3.7c-0.3-0.1-0.5-0.6-0.7-1
				c-0.1-0.2-0.1-0.2-0.1-0.2l-0.7-1.8c-3-10.8-1.5-44,1.9-61.7c3-15.3,173.9-22.3,182.3-16.5c11.2,7.6,43.6,130.1,44.1,136.6
				C521.9,320,512.5,323.2,500.2,327.4z"/>
		</g>
		<path class="st3" d="M427.8,271.9c-0.1,0.6-0.5,1.6-1,3.1c-3.3,10.1-14.3,39.2-39.4,65.5l-3.2-2.3c-0.1-0.1-0.2-0.1-0.2,0
			l-57,40.5c-0.2,0.1-0.4-0.1-0.3-0.2l21.8-65.5c0-0.1,0-0.1-0.1-0.2l-8.6-6.1c35-25.3,46.3-58.8,50.2-62.4
			c-6.5,2.7-13.4,5.2-20.3,7.5c-0.3,0.1-0.6,0.2-0.9,0.3l15.2-45.8c0.1-0.1,0.3-0.1,0.4,0l21.8,65.5c0,0.1,0.1,0.1,0.1,0.1
			L427.8,271.9L427.8,271.9z"/>
		<path class="st3" d="M476.8,272.2l-45.4,32.3c-1.1-3.3-2-6.8-2.8-10.5c-1.3-6-0.8-12.4-0.7-19.1c0-1,0.1-2.1,0.1-3.1h48.8
			C476.9,271.9,477,272.2,476.8,272.2z"/>
		<path class="st4" d="M384.3,206.2l21.8,65.5c0,0.1,0.1,0.1,0.1,0.1h70.5c0.2,0,0.3,0.2,0.2,0.4l-57,40.5c-0.1,0.1-0.1,0.1-0.1,0.2
			l21.8,65.5c0.1,0.1-0.1,0.3-0.3,0.2l-57-40.5c-0.1-0.1-0.2-0.1-0.2,0l-57,40.5c-0.2,0.1-0.4-0.1-0.3-0.2l21.8-65.5
			c0-0.1,0-0.1-0.1-0.2l-57-40.5c-0.2-0.1-0.1-0.4,0.1-0.4H362c0.1,0,0.1-0.1,0.1-0.1l21.8-65.5C384,206,384.2,206,384.3,206.2z"/>
	</g>
	<rect class="st5" width="750" height="692"/>
</g>
</svg>
