<?xml version="1.0" encoding="utf-8"?>
<!-- Generator: Adobe Illustrator 27.0.0, SVG Export Plug-In . SVG Version: 6.00 Build 0)  -->
<svg version="1.1" id="Layer_1" xmlns="http://www.w3.org/2000/svg" xmlns:xlink="http://www.w3.org/1999/xlink" x="0px" y="0px"
	 viewBox="0 0 640 591" style="enable-background:new 0 0 640 591;" xml:space="preserve">
<style type="text/css">
	.st0{fill:none;stroke:#000000;stroke-width:1.557;stroke-miterlimit:10;}
	.st1{fill:#00F6FF;}
	.st2{fill:#98E891;}
	.st3{fill:none;stroke:#000000;stroke-width:1.8362;stroke-miterlimit:10;}
	.st4{fill:none;}
</style>
<g>
	<path class="st1" d="M396.7,308.7c-13.2,5.2-27.7,9.1-42.6,11.3c-3.3,0.5-6.7,1.1-10,1.4c-0.2,0.1-0.4,0.1-0.5,0.1
		c-0.7,0.1-1.4,0.1-2.2,0.2c-1.1,0.1-2.1,0.2-3.2,0.3c-1.9,0.1-3.7,0.3-5.6,0.4c-4,0.2-7.9,0.3-11.8,0.3c-1.9,0-3.7,0-5.6-0.1
		c-1.5-0.1-2.9-0.1-4.4-0.1c-0.6,0-1.2-0.1-1.8-0.1c-1.7-0.1-3.5-0.2-5.2-0.4c-1.2-0.1-2.3-0.2-3.5-0.3c-2.2-0.2-4.4-0.4-6.5-0.8
		c-1-0.1-2-0.3-2.9-0.4c0,0-0.1,0-0.1-0.1c-0.2-0.1-0.4-0.1-0.6-0.2c-1.5-0.2-3.1-0.5-4.6-0.8c-1-0.2-2-0.4-2.9-0.6l-0.1,0.1
		c-16.5-3.3-31.8-9.1-44.2-17.5l-4.3,2.4l-0.2-0.2l-53,29.7l27.3-57.2c-8.4-9.5-14-20.8-13.4-33.8c1-24.6,16.8-41.5,37.8-52.8
		c2.7-1.4,5.4-2.8,8.3-4c3.3-1.5,6.6-2.8,10-4.1c9.1-3.3,18.6-5.9,27.7-7.8c4.8-0.9,9.3-1.7,14-2.4v-0.1c9.5-1.3,18.4-2,26-2.2
		c7-0.2,15.2-0.2,24.1,0.2c5.4,0.2,11.3,0.6,17.3,1.1c7.4,0.8,15,1.7,22.5,3.1c2.9,0.6,5.8,1.2,8.6,1.9c5.1,1.3,10.2,2.8,15.1,4.5
		c25.6,9.2,46.6,25.8,49.9,55.4C459.8,268.8,433.5,294.3,396.7,308.7z"/>
	
	
	<g>
		<g>
			<g>
				<path class="st2" d="M402.1,237.9c3.8,3.8,3.8,10-0.1,13.8c-1.9,1.9-4.3,2.8-6.8,2.8c-2.6,0-5.1-1-6.9-2.9
					c-17.2-17.3-39.2-26.8-62.1-26.8c-23,0-45.1,9.5-62.1,26.8c-1.9,1.9-4.3,2.9-6.9,2.9c-2.6,0-5.1-1-6.8-2.8
					c-1.9-1.9-2.9-4.3-2.9-6.9s1-5.1,2.8-6.9c20.8-21,47.8-32.6,76-32.6C354.3,205.3,381.3,216.9,402.1,237.9z"/>
				<path class="st2" d="M341.4,321.7c-1.1,0.1-2.1,0.2-3.2,0.3c-1.9,0.1-3.7,0.3-5.6,0.4c-4,0.2-7.9,0.3-11.8,0.3
					c-1.9,0-3.7,0-5.6-0.1c-1.5-0.1-2.9-0.1-4.4-0.1c0-0.3,0-0.5,0-0.7c0-8.4,6.8-15.3,15.3-15.3
					C334.5,306.6,341.4,313.3,341.4,321.7z"/>
				<path class="st2" d="M432.8,216.7c-1.8,1.7-4.2,2.6-6.7,2.6c-2.7,0-5.3-1.2-7.1-3.1c-24.4-26.1-57.3-40.6-92.9-40.6
					s-68.5,14.5-92.9,40.6c-1.9,2-4.4,3.1-7.1,3.1c-2.5,0-4.9-1-6.7-2.6c-4-3.6-4.2-9.9-0.5-13.8c4.4-4.7,9-9.1,13.8-13.1
					c2.7-1.4,5.4-2.8,8.3-4c3.3-1.5,6.6-2.8,10-4.1c9.1-3.3,18.6-5.9,27.7-7.8c4.8-0.9,9.3-1.7,14-2.4v-0.1c9.5-1.3,18.4-2,26-2.2
					c7-0.2,15.2-0.2,24.1,0.2c5.4,0.2,11.3,0.6,17.3,1.1c7.4,0.8,15,1.7,22.5,3.1c2.9,0.6,5.8,1.2,8.6,1.9
					c5.1,1.3,10.2,2.8,15.1,4.5c9.7,6.4,18.8,14.1,26.9,22.8C436.9,206.8,436.7,213.1,432.8,216.7z"/>
				<path class="st2" d="M368.6,273c1.9,1.9,2.9,4.3,2.9,6.9c0,2.6-1,5.1-2.8,6.9c-1.9,1.9-4.3,2.9-6.9,2.9c-2.6,0-5-1-6.8-2.8
					c-7.7-7.6-18.8-12.5-28.5-12.5h-0.6c-9.7,0-20.8,4.9-28.4,12.4c-1.9,1.8-4.3,2.8-6.8,2.8c-2.6,0-5.1-1-6.9-2.9
					c-3.8-3.8-3.8-10,0.1-13.8c11.3-11.1,27.4-18.1,42.2-18.1h0.6C341.2,254.9,357.3,261.8,368.6,273z"/>
			</g>
		</g>
	</g>
	<g>
		<g>
			<g>
				<path class="st3" d="M402.1,237.9c3.8,3.8,3.8,10-0.1,13.8c-1.9,1.9-4.3,2.8-6.8,2.8c-2.6,0-5.1-1-6.9-2.9
					c-17.2-17.3-39.2-26.8-62.1-26.8c-23,0-45.1,9.5-62.1,26.8c-1.9,1.9-4.3,2.9-6.9,2.9c-2.6,0-5.1-1-6.8-2.8
					c-1.9-1.9-2.9-4.3-2.9-6.9s1-5.1,2.8-6.9c20.8-21,47.8-32.6,76-32.6C354.3,205.3,381.3,216.9,402.1,237.9z"/>
				<path class="st3" d="M341.4,321.9c0,8.4-6.8,15.2-15.2,15.2c-8.4,0-15.3-6.8-15.3-15.2c0-8.4,6.8-15.3,15.3-15.3
					C334.5,306.6,341.4,313.4,341.4,321.9z"/>
				<path class="st3" d="M432.8,216.7c-1.8,1.7-4.2,2.6-6.7,2.6c-2.7,0-5.3-1.2-7.1-3.1c-24.4-26.1-57.3-40.6-92.9-40.6
					s-68.5,14.5-92.9,40.6c-1.9,2-4.4,3.1-7.1,3.1c-2.5,0-4.9-1-6.7-2.6c-4-3.6-4.2-9.9-0.5-13.8c28.1-30.1,66.2-46.7,107.1-46.8
					c41,0,79,16.6,107.1,46.8C436.9,206.8,436.7,213.1,432.8,216.7z"/>
				<path class="st3" d="M368.6,273c1.9,1.9,2.9,4.3,2.9,6.9c0,2.6-1,5.1-2.8,6.9c-1.9,1.9-4.3,2.9-6.9,2.9c-2.6,0-5-1-6.8-2.8
					c-7.7-7.6-18.8-12.5-28.5-12.5h-0.6c-9.7,0-20.8,4.9-28.4,12.4c-1.9,1.8-4.3,2.8-6.8,2.8c-2.6,0-5.1-1-6.9-2.9
					c-3.8-3.8-3.8-10,0.1-13.8c11.3-11.1,27.4-18.1,42.2-18.1h0.6C341.2,254.9,357.3,261.8,368.6,273z"/>
			</g>
		</g>
	</g>
	<rect class="st4" width="640" height="591"/>
</g>
</svg>
