<svg xmlns="http://www.w3.org/2000/svg" xmlns:xlink="http://www.w3.org/1999/xlink" version="1.1" id="Layer_1" x="0px" y="0px" viewBox="0 0 1000 924" style="enable-background:new 0 0 1000 924;" xml:space="preserve">
<style type="text/css">
	.st0{fill:none;stroke:#000000;stroke-width:2.4336;stroke-miterlimit:10;}
	.st1{enable-background:new    ;}
	.st2{fill:#FA0CF7;}
	.st3{fill:#E5BDBE;}
	.st4{fill:none;stroke:#000000;stroke-width:3.6227;stroke-miterlimit:10;}
</style>



<g>
	<g>
		<path class="st2" d="M667,437.2c-0.8,0.4-1.5,0.7-2.3,1c-30,10.9-46,12.2-50,12.3l-0.2,0.1c-0.5,0.1-1,0-1.5,0.1l-0.3,0.1    c-1,0-2,0.1-2.9,0.1c0,0-0.4-0.2-0.7-0.1c-0.7-0.1-1.3,0.1-2,0.1c-0.3,0.1-0.4-0.2-0.7-0.1c-0.7-0.1-1.4-0.2-2.1-0.2    c-7.2-1.4-17.8-14.7-25.7-34.3c-1.2-3-2.3-6.2-3.4-9.5c-1.4-4.4-2.7-9.1-3.7-14c-1.7-8-1.1-16.6-0.9-25.5c0-1.4,0.1-2.8,0.1-4.1    c0-0.3,0-0.6,0-0.9c0-0.1-2.5-0.1,0,0c0,0-0.1,0.3-0.2,0.9c-0.2,0.8-0.7,2.2-1.3,4.1c-4.4,13.5-19.1,52.3-52.5,87.5    c-9.9,10.5-21.5,20.6-35,29.7c-19.9,13.4-37.9,24.2-53.6,32.9c-44.3,24.4-71.1,31.9-73.1,32.6c-10.2,3.5-48.1-78.2-50.2-94.9    c-0.7-5.3,71.3,0.7,131.9-35c2-1.1,3.9-2.3,5.8-3.4c3.7-2.3,7.3-4.7,10.7-7.2c46.7-33.8,61.7-78.5,66.9-83.3    c-8.7,3.6-17.9,7-27.1,10c-0.4,0.1-0.8,0.3-1.2,0.4c-1.4,0.5-2.7,0.9-4.1,1.3c-10.3,3.3-20.5,6.1-30.3,8.3    c-18.5,4.3-35.4,6.8-47.3,6.4c-8.4-0.1-14.6-1.9-17-4.9c-0.4-0.2-0.6-0.8-0.9-1.4c-0.1-0.3-0.1-0.3-0.1-0.3l-0.9-2.4    c-4-14.4-2-58.8,2.5-82.4c4-20.4,231.9-29.8,243.1-22c15,10.1,58.1,173.7,58.8,182.4C695.9,427.3,683.4,431.5,667,437.2z"/>
	</g>
	<path class="st3" d="M570.4,363.1c-0.2,0.8-0.7,2.2-1.3,4.1c-4.4,13.5-19.1,52.3-52.5,87.5l-4.3-3.1c-0.1-0.1-0.2-0.1-0.3,0   l-76,54.1c-0.2,0.1-0.5-0.1-0.4-0.3l29-87.5c0-0.1,0-0.2-0.1-0.3l-11.5-8.2c46.7-33.8,61.7-78.5,66.9-83.3c-8.7,3.6-17.9,7-27.1,10   c-0.4,0.1-0.8,0.3-1.2,0.4l20.3-61.2c0.1-0.2,0.4-0.2,0.5,0l29,87.5c0,0.1,0.1,0.2,0.2,0.2H570.4z"/>
	<path class="st3" d="M635.8,363.5l-60.6,43.1c-1.4-4.4-2.7-9.1-3.7-14c-1.7-8-1.1-16.6-0.9-25.5c0-1.4,0.1-2.8,0.1-4.1h65   C635.9,363.1,636,363.4,635.8,363.5z"/>
	<path class="st4" d="M512.4,275.3l29,87.5c0,0.1,0.1,0.2,0.2,0.2h94c0.3,0,0.4,0.3,0.2,0.5l-76,54.1c-0.1,0.1-0.1,0.2-0.1,0.3   l29,87.5c0.1,0.2-0.2,0.4-0.4,0.3l-76-54.1c-0.1-0.1-0.2-0.1-0.3,0l-76,54.1c-0.2,0.1-0.5-0.1-0.4-0.3l29-87.5c0-0.1,0-0.2-0.1-0.3   l-76-54.1c-0.2-0.1-0.1-0.5,0.2-0.5h94c0.1,0,0.2-0.1,0.2-0.2l29-87.5C512,275.1,512.3,275.1,512.4,275.3z"/>
</g>
</svg>