<?xml version="1.0" encoding="utf-8"?>
<!-- Generator: Adobe Illustrator 27.0.0, SVG Export Plug-In . SVG Version: 6.00 Build 0)  -->
<svg version="1.1" id="Layer_1" xmlns="http://www.w3.org/2000/svg" xmlns:xlink="http://www.w3.org/1999/xlink" x="0px" y="0px"
	 viewBox="0 0 640 591" style="enable-background:new 0 0 640 591;" xml:space="preserve">
<style type="text/css">
	.st0{fill:none;stroke:#000000;stroke-width:1.557;stroke-miterlimit:10;}
	.st1{enable-background:new    ;}
	.st2{fill:#FA0CF7;}
	.st3{fill:#E5BDBE;}
	.st4{fill:none;stroke:#000000;stroke-width:2.3178;stroke-miterlimit:10;}
	.st5{fill:none;}
</style>
<g>
	

	<g>
		<g>
			<path class="st2" d="M426.9,279.6c-0.5,0.3-1,0.4-1.5,0.6c-19.2,7-29.4,7.8-32,7.9l-0.1,0.1c-0.3,0.1-0.6,0-1,0.1l-0.2,0.1
				c-0.6,0-1.3,0.1-1.9,0.1c0,0-0.3-0.1-0.4-0.1c-0.4-0.1-0.8,0.1-1.3,0.1c-0.2,0.1-0.3-0.1-0.4-0.1c-0.4-0.1-0.9-0.1-1.3-0.1
				c-4.6-0.9-11.4-9.4-16.4-21.9c-0.8-1.9-1.5-4-2.2-6.1c-0.9-2.8-1.7-5.8-2.4-9c-1.1-5.1-0.7-10.6-0.6-16.3c0-0.9,0.1-1.8,0.1-2.6
				c0-0.2,0-0.4,0-0.6c0-0.1-1.6-0.1,0,0c0,0-0.1,0.2-0.1,0.6c-0.1,0.5-0.4,1.4-0.8,2.6c-2.8,8.6-12.2,33.5-33.6,56
				c-6.3,6.7-13.8,13.2-22.4,19c-12.7,8.6-24.3,15.5-34.3,21c-28.4,15.6-45.5,20.4-46.8,20.9c-6.5,2.2-30.8-50-32.1-60.7
				c-0.4-3.4,45.6,0.4,84.4-22.4c1.3-0.7,2.5-1.5,3.7-2.2c2.4-1.5,4.7-3,6.8-4.6c29.9-21.6,39.5-50.2,42.8-53.3
				c-5.6,2.3-11.5,4.5-17.3,6.4c-0.3,0.1-0.5,0.2-0.8,0.3c-0.9,0.3-1.7,0.6-2.6,0.8c-6.6,2.1-13.1,3.9-19.4,5.3
				c-11.8,2.8-22.7,4.3-30.3,4.1c-5.4-0.1-9.3-1.2-10.9-3.1c-0.3-0.1-0.4-0.5-0.6-0.9c-0.1-0.2-0.1-0.2-0.1-0.2l-0.6-1.5
				c-2.6-9.2-1.3-37.6,1.6-52.7c2.6-13,148.4-19.1,155.6-14.1c9.6,6.5,37.2,111.1,37.6,116.7C445.4,273.3,437.4,276,426.9,279.6z"/>
		</g>
		<path class="st3" d="M365.1,232.2c-0.1,0.5-0.4,1.4-0.8,2.6c-2.8,8.6-12.2,33.5-33.6,56l-2.8-2c-0.1-0.1-0.1-0.1-0.2,0L279,323.5
			c-0.1,0.1-0.3-0.1-0.3-0.2l18.6-56c0-0.1,0-0.1-0.1-0.2l-7.4-5.2c29.9-21.6,39.5-50.2,42.8-53.3c-5.6,2.3-11.5,4.5-17.3,6.4
			c-0.3,0.1-0.5,0.2-0.8,0.3l13-39.1c0.1-0.1,0.3-0.1,0.3,0l18.6,56c0,0.1,0.1,0.1,0.1,0.1L365.1,232.2L365.1,232.2z"/>
		<path class="st3" d="M406.9,232.5l-38.8,27.6c-0.9-2.8-1.7-5.8-2.4-9c-1.1-5.1-0.7-10.6-0.6-16.3c0-0.9,0.1-1.8,0.1-2.6h41.6
			C407,232.2,407,232.4,406.9,232.5z"/>
		<path class="st4" d="M327.9,176.1l18.6,56c0,0.1,0.1,0.1,0.1,0.1h60.2c0.2,0,0.3,0.2,0.1,0.3l-48.6,34.6c-0.1,0.1-0.1,0.1-0.1,0.2
			l18.6,56c0.1,0.1-0.1,0.3-0.3,0.2l-48.6-34.6c-0.1-0.1-0.1-0.1-0.2,0L279,323.5c-0.1,0.1-0.3-0.1-0.3-0.2l18.6-56
			c0-0.1,0-0.1-0.1-0.2l-48.6-34.6c-0.1-0.1-0.1-0.3,0.1-0.3h60.2c0.1,0,0.1-0.1,0.1-0.1l18.6-56C327.7,176,327.9,176,327.9,176.1z"
			/>
	</g>
	<rect class="st5" width="640" height="591"/>
</g>
</svg>
