<?xml version="1.0" encoding="utf-8"?>
<!-- Generator: Adobe Illustrator 27.0.0, SVG Export Plug-In . SVG Version: 6.00 Build 0)  -->
<svg version="1.1" id="Layer_1" xmlns="http://www.w3.org/2000/svg" xmlns:xlink="http://www.w3.org/1999/xlink" x="0px" y="0px"
	 viewBox="0 0 2048 1892" style="enable-background:new 0 0 2048 1892;" xml:space="preserve">
<style type="text/css">
	.st0{fill:none;stroke:#000000;stroke-width:4.9835;stroke-miterlimit:10;}
	.st1{fill:#00F6FF;}
	.st2{fill:#98E891;}
	.st3{fill:none;stroke:#000000;stroke-width:5.8772;stroke-miterlimit:10;}
	.st4{fill:none;}
</style>
<g>
	<path class="st1" d="M1269.3,988.3c-42.2,16.6-88.6,29.1-136.2,36.3c-10.7,1.6-21.5,3.5-32.1,4.5c-0.6,0.2-1.3,0.2-1.6,0.2
		c-2.2,0.2-4.5,0.4-6.9,0.6c-3.5,0.4-6.7,0.6-10.2,1.1c-6,0.4-11.8,0.9-17.8,1.3c-12.7,0.6-25.2,1.1-37.7,1.1c-6,0-11.8,0-17.8-0.2
		c-4.7-0.2-9.4-0.2-14.1-0.4c-2,0-3.8-0.2-5.8-0.2c-5.5-0.2-11.1-0.6-16.6-1.3c-3.7-0.2-7.4-0.6-11.1-1.1c-6.9-0.6-14-1.4-20.7-2.5
		c-3.3-0.4-6.4-1.1-9.4-1.4c0,0-0.2,0-0.2-0.2c-0.6-0.2-1.3-0.4-1.8-0.6c-4.9-0.6-9.8-1.6-14.7-2.5c-3.1-0.6-6.4-1.3-9.4-1.8
		l-0.4,0.4c-52.8-10.7-101.8-29.1-141.5-55.9l-13.8,7.8l-0.6-0.6l-169.6,95.2l87.5-183c-26.9-30.3-44.7-66.6-42.8-108.1
		c3.1-78.6,53.7-132.9,121.1-169.1c8.6-4.5,17.4-8.9,26.5-12.9c10.5-4.7,21.1-9,32-13.1c29.1-10.7,59.4-19.1,88.6-25
		c15.4-2.9,29.9-5.3,44.7-7.6V549c30.3-4.1,58.8-6.5,83.3-7.1c22.5-0.6,48.7-0.6,77.2,0.6c17.2,0.6,36.3,1.8,55.3,3.5
		c23.8,2.5,48.1,5.3,71.9,10c9.2,1.8,18.5,3.8,27.6,6.2c16.4,4.1,32.5,8.9,48.3,14.5c81.9,29.4,149.1,82.8,159.6,177.4
		C1471.5,860.6,1387.1,942.2,1269.3,988.3z"/>


	<g>
		<g>
			<g>
				<path class="st2" d="M1286.7,761.5c12.1,12.3,12.1,32-0.2,44c-6,6-13.8,9-21.9,9c-8.4,0-16.2-3.3-22.1-9.2
					c-54.9-55.2-125.5-85.7-198.8-85.7c-73.5,0-144.2,30.5-198.8,85.7c-6,6-13.8,9.2-22.1,9.2c-8.2,0-16.2-3.3-21.9-9
					c-6-6-9.2-13.8-9.2-22.1c0-8.3,3.1-16.2,9-22.1c66.6-67.2,153-104.2,243.3-104.2C1133.8,657.3,1220.2,694.3,1286.7,761.5z"/>
				<path class="st2" d="M1092.4,1029.9c-3.5,0.4-6.7,0.6-10.2,1.1c-6,0.4-11.8,0.9-17.8,1.3c-12.7,0.6-25.2,1.1-37.7,1.1
					c-6,0-11.8,0-17.8-0.2c-4.7-0.2-9.4-0.2-14.1-0.4c0-0.9,0-1.6,0-2.2c0-27,21.9-49,49-49
					C1070.5,981.4,1092.4,1003.2,1092.4,1029.9z"/>
				<path class="st2" d="M1384.9,693.8c-5.8,5.3-13.3,8.4-21.3,8.4c-8.6,0-17-3.7-22.7-10c-78.1-83.5-183.5-129.8-297.2-129.8
					s-219.3,46.3-297.4,129.8c-6,6.4-14.1,10-22.7,10c-8,0-15.6-3.1-21.3-8.4c-12.7-11.6-13.3-31.6-1.6-44
					c14-14.9,28.7-29.1,44.3-42c8.6-4.5,17.4-8.9,26.5-12.9c10.5-4.7,21.1-9,32-13.1c29.1-10.7,59.4-19.1,88.6-25
					c15.4-2.9,29.9-5.3,44.7-7.6v-0.2c30.3-4.1,58.8-6.5,83.3-7.1c22.5-0.6,48.7-0.6,77.2,0.6c17.2,0.6,36.3,1.8,55.3,3.5
					c23.8,2.5,48.1,5.3,71.9,10c9.2,1.8,18.5,3.8,27.6,6.2c16.4,4.1,32.5,8.9,48.3,14.5c31.1,20.5,60.1,45,86.2,73.1
					C1398.2,662.2,1397.5,682,1384.9,693.8z"/>
				<path class="st2" d="M1179.4,873.9c6,6,9.2,13.8,9.2,22.1c0,8.4-3.1,16.2-9,22.1c-6,6-13.8,9.2-22.1,9.2c-8.2,0-16-3.3-21.9-9
					c-24.5-24.3-60.2-39.9-91.1-39.9h-2c-30.9,0-66.6,15.6-90.9,39.7c-6,5.8-13.8,9-21.9,9c-8.4,0-16.2-3.3-22.1-9.2
					c-12.1-12.3-12.1-32.1,0.2-44.3c36.1-35.6,87.7-57.9,134.9-57.9h2C1091.8,816,1143.4,838.1,1179.4,873.9z"/>
			</g>
		</g>
	</g>
	<g>
		<g>
			<g>
				<path class="st3" d="M1286.7,761.5c12.1,12.3,12.1,32-0.2,44c-6,6-13.8,9-21.9,9c-8.4,0-16.2-3.3-22.1-9.2
					c-54.9-55.2-125.5-85.7-198.8-85.7c-73.5,0-144.2,30.5-198.8,85.7c-6,6-13.8,9.2-22.1,9.2c-8.2,0-16.2-3.3-21.9-9
					c-6-6-9.2-13.8-9.2-22.1c0-8.3,3.1-16.2,9-22.1c66.6-67.2,153-104.2,243.3-104.2C1133.8,657.3,1220.2,694.3,1286.7,761.5z"/>
				<path class="st3" d="M1092.4,1030.4c0,26.9-21.9,48.7-48.7,48.7c-27,0-49-21.9-49-48.7c0-27,21.9-49,49-49
					C1070.5,981.4,1092.4,1003.4,1092.4,1030.4z"/>
				<path class="st3" d="M1384.9,693.8c-5.8,5.3-13.3,8.4-21.3,8.4c-8.6,0-17-3.7-22.7-10c-78.1-83.5-183.5-129.8-297.2-129.8
					s-219.3,46.3-297.4,129.8c-6,6.4-14.1,10-22.7,10c-8,0-15.6-3.1-21.3-8.4c-12.7-11.6-13.3-31.6-1.6-44
					c89.9-96.4,211.7-149.5,342.8-149.6c131.3,0,252.9,53.2,342.8,149.6C1398.2,662.2,1397.5,682,1384.9,693.8z"/>
				<path class="st3" d="M1179.4,873.9c6,6,9.2,13.8,9.2,22.1c0,8.4-3.1,16.2-9,22.1c-6,6-13.8,9.2-22.1,9.2c-8.2,0-16-3.3-21.9-9
					c-24.5-24.3-60.2-39.9-91.1-39.9h-2c-30.9,0-66.6,15.6-90.9,39.7c-6,5.8-13.8,9-21.9,9c-8.4,0-16.2-3.3-22.1-9.2
					c-12.1-12.3-12.1-32.1,0.2-44.3c36.1-35.6,87.7-57.9,134.9-57.9h2C1091.8,816,1143.4,838.1,1179.4,873.9z"/>
			</g>
		</g>
	</g>
	<rect class="st4" width="2048" height="1892"/>
</g>
</svg>
