<?xml version="1.0" encoding="utf-8"?>
<!-- Generator: Adobe Illustrator 27.0.0, SVG Export Plug-In . SVG Version: 6.00 Build 0)  -->
<svg version="1.1" id="Layer_1" xmlns="http://www.w3.org/2000/svg" xmlns:xlink="http://www.w3.org/1999/xlink" x="0px" y="0px"
	 viewBox="0 0 1000 924" style="enable-background:new 0 0 1000 924;" xml:space="preserve">
<style type="text/css">
	.st0{fill:none;stroke:#000000;stroke-width:2.4336;stroke-miterlimit:10;}
	.st1{enable-background:new    ;}
	.st2{fill:#FA0CF7;}
	.st3{fill:#E5BDBE;}
	.st4{fill:none;stroke:#000000;stroke-width:3.6227;stroke-miterlimit:10;}
</style>
<line class="st0" x1="66.9" y1="609.3" x2="926.2" y2="609.3"/>
<g>
	<path d="M78.1,126.5c1.9,0,3.7,0.1,5.6,0c1.6-0.1,2,0.6,2.1,2c0.1,1.4,0.4,2.8,0.9,4.1c1.2,3.6,4.3,5.2,7.8,5.7
		c4.3,0.6,8.6,0.7,13-0.5c4.9-1.4,6-4.8,5.2-9.1c-0.4-2.3-2.2-3.6-4.3-4.2c-3.2-0.9-6.5-1.6-9.9-2.1c-5.8-1-11.7-1.6-17.2-3.9
		c-5.2-2.2-8.5-6-9.4-11.7c-0.9-5.8-0.4-11.4,3.7-16.2c2.7-3.3,6.4-5.2,10.5-6.2c9.8-2.3,19.4-2.5,28.9,0.7
		c7.2,2.3,10.6,7.8,11.5,15.1c0.5,4.2,0.4,4.2-3.8,4.2c-3.1,0-6.2,0-9.3,0c-0.9,0-1.5-0.1-1.5-1.2c-0.4-6-3.9-8.5-9-9.1
		c-4.1-0.5-8.1-0.5-12.1,1c-3.2,1.2-4.4,3.3-4.3,7.2c0.1,2.6,1.7,4.6,4.8,5.3c4.3,1,8.9,1.5,13.2,2.5c4.4,1,8.9,1.9,13.1,3.3
		c6.2,2.1,9.6,6.7,10.1,13.3c0.4,4.6,0,9.1-2.5,13.1c-2.7,4.3-6.8,6.9-11.6,8.4c-7.2,2.1-14.4,2.2-21.7,1.4
		c-3.9-0.5-7.8-1.4-11.4-3.3c-6.3-3.5-9-9-9.5-15.9c-0.2-3.8-0.1-3.8,3.6-3.8C75.7,126.5,76.8,126.5,78.1,126.5z"/>
	<path d="M253,98.3v6.3c0,0.5,0.5,0.6,0.9,0.2c1-1.2,2-2.3,3-3.3c4.9-4.6,10.9-5.7,17.2-4.4c8.8,1.7,13.9,7.3,15.7,16
		c1.4,6.9,1.5,13.7-0.1,20.5c-1.7,7.5-5.7,13.3-13.6,15.4c-8.5,2.2-16.7,0.4-22-7.4l0,0c-0.2-0.4-0.9-0.1-0.9,0.2v24.6
		c0,0.2-0.2,0.5-0.5,0.5h-13c-0.2,0-0.5-0.2-0.5-0.5c0-0.5,0-0.9,0-1.2c0-22.1,0-44.1,0-66.2c0-1,0.1-1.4,1.4-1.4
		c3.9,0.1,7.9,0,12.1,0C252.7,97.8,253,98,253,98.3z M276.3,126.9c0.2-2,0.4-4.1,0.1-6c-0.1-1.4-0.2-2.6-0.5-3.8
		c-0.7-5.3-3.5-8.4-8.8-9.1c-6-1-11.5,1.2-13.2,7.8c-1.2,4.8-1.2,9.6-0.2,14.3c0.5,2.3,1.5,4.6,3.5,6.3c3,2.6,6.4,2.6,10,2.3
		c4.3-0.4,7-2.8,8.1-6.9C275.7,130.1,276,128.4,276.3,126.9z"/>
	<path d="M227.9,126.4c-0.7,0-1.2,0-1.9,0c-10.9,0-21.8,0-32.7,0c-1.9,0-2,0.1-1.6,2c0.2,1.2,0.5,2.5,0.9,3.7c1,3.5,3.2,5.7,6.7,6.5
		c4.1,1,8.3,1.1,12.2-0.7c1.9-0.9,3-2.3,3.3-4.4c0.1-1.1,0.6-1.4,1.7-1.4c3.5,0.1,6.9,0,10.2,0c0.4,0,0.7,0.1,1.1,0.1
		c-0.4,6.7-3.6,12.7-10.5,15.3c-3.1,1.2-6.4,2-9.8,2.2c-4.9,0.5-10,0.2-14.8-1.5c-7.2-2.5-11.7-7.4-13.6-14.6
		c-2.1-7.7-2-15.4,0.6-23c2.8-8,8.9-12.2,17-13.6c5.6-1,11-0.9,16.5,0.6c7.8,2.2,12.2,7.4,14.1,15.1
		C228.5,117.4,228.7,121.8,227.9,126.4z M215.2,117.8c0.5-3.8-1.6-9.3-6.2-10.2c-2.1-0.5-4.3-0.7-6.5-0.7c-6.4,0.1-10.5,4.4-10.6,11
		C199.6,117.8,207.4,117.8,215.2,117.8z"/>
	<path d="M173,148.7c-0.7,0-1.2,0-1.7,0c-5.6,0-11,0-16.5,0c-6.4,0-10.9-4.4-10.9-11c0-9,0-18,0-27c0-1.4-0.4-1.7-1.7-1.7
		c-3,0.1-5.9,0-8.9,0c-1.2,0-1.6-0.4-1.6-1.6c0.1-2.7,0.1-5.4,0-8.1c0-1.2,0.2-1.7,1.6-1.6c3.2,0.1,6.4,0,9.6,0c1.2,0,1.9-0.4,2-1.6
		c0.5-3.6,1.1-7,1.6-10.6c0.1-1,0.6-1.4,1.6-1.4c2.7,0,5.4,0,8.1,0c1.1,0,1.5,0.4,1.5,1.5c0,3.5,0,6.9,0,10.5c0,1.2,0.5,1.6,1.6,1.6
		c3.9,0,7.9,0,11.8,0c0.5,0,1,0,1.6,0c0,3.6,0,7-0.1,10.5c0,0.2-0.9,0.7-1.5,0.7c-3.9,0.1-8,0.1-12,0c-1.4,0-1.7,0.4-1.7,1.7
		c0,7.8,0,15.7,0,23.5c0,2.8,0.5,3.3,3.3,3.3c3.5,0,6.9,0,10.2,0c1.1,0,1.5,0.4,1.5,1.5C173,142.2,173,145.4,173,148.7z"/>
	<path d="M395.1,148.7c-4.8,0-9.5,0-14.2,0c0-4.7,0-9.4,0-14.2c0.2,0,0.5-0.1,0.9-0.1c4.1,0,8.1,0,12.2,0c0.6,0,1.2,0,1.2,0.9
		C395.1,139.7,395.1,144.2,395.1,148.7z"/>
	<path d="M317.8,128.1c4.3,0,8.4,0,12.6,0c0.2,0,0.9,0.5,0.9,0.7c0,5.8,4.3,8,9.1,8.3c3.5,0.2,6.8,0.2,10.1-0.7
		c4.6-1.4,5.7-4.1,5.7-7.3c0-3.8-2.5-6.5-6.3-7c-3.9-0.5-7.9-0.5-12-0.6c-1.5,0-1.9-0.5-1.7-1.9c0.1-2.6,0.1-5.2,0-7.8
		c0-1.2,0.4-1.6,1.6-1.6c2.8,0,5.8,0.1,8.6-0.1c1.6-0.1,3.2-0.5,4.7-1c2.7-1,4.1-3.1,4.2-5.9c0.1-3.1-1-5.6-3.9-6.7
		c-5.6-2.1-11-2.2-16.3,0.7c-2,1.1-2.8,3.1-3,5.3c-0.1,1.2-0.5,1.9-1.9,1.7c-3.5-0.1-6.8-0.1-10.2,0c-1.4,0-1.7-0.5-1.7-1.9
		c0.6-7.5,3.7-13.5,11.7-16.5c3.7-1.5,7.5-2.1,11.4-2.1c5.3-0.1,10.6,0,15.8,1.6c3.7,1.1,7,2.8,9.3,6.2c4.2,6.3,4.6,18.3-5.8,22.8
		c-0.5,0.2-0.9,0.5-1.5,0.7c0.7,0.4,1.4,0.6,2,0.9c5.8,2.2,8.9,6.8,9,13c0.1,5.2-1,9.8-4.8,13.3c-3,2.7-6.4,4.2-10.2,4.9
		c-7.8,1.6-15.6,1.7-23.3,0C321.8,145.3,317.2,137.9,317.8,128.1z"/>
</g>
<g class="st1">
	<path d="M70,670.4h3.8l7.9,25.7l8.2-25.7h4.3l8.2,25.7l7.8-25.7h3.7l-9.3,29.7h-4.3L92,674.9l-8.2,25.2h-4.3L70,670.4z"/>
	<path d="M115,693.4c0-4.3,3-6.2,9.7-6.9l8.6-1.1c0-4.3-1.4-6.5-7.5-6.5c-5.4,0-6.9,2.4-6.9,5.1h-3.4c0-3.7,2.1-7.8,10.3-7.8
		c9.6,0,10.9,4,10.9,10.4v13.5h-1.9l-0.7-4.9c-1.3,3-5.1,5.1-10.1,5.1C119,700.4,115,698.2,115,693.4z M133.3,689.7V688l-8.2,1.1
		c-4.9,0.7-6.6,1.7-6.6,4.1c0,2.8,2.4,4.3,6.3,4.3C129.5,697.7,133.3,694.9,133.3,689.7z"/>
	<path d="M143.5,693.2v-13.8h-3.3v-2.1l3.2-0.8v-5.8h3.4v5.9h7.5v2.8H147v13.8c0,3,1.2,4.3,5.8,4.3c0.5,0,1.1,0,1.7,0v2.8
		c-0.7,0-1.4,0.1-2.1,0.1C146.1,700.4,143.5,698.2,143.5,693.2z"/>
	<path d="M156.3,688.2c0-6.3,2.4-12.2,11.5-12.2c7.2,0,10.5,3.8,10.5,9.6h-3.5c-0.2-4.3-2.1-6.6-7.1-6.6c-6.3,0-7.9,4-7.9,9.1
		s1.7,9.2,7.9,9.2c5,0,6.9-2.5,7.1-6.6h3.5c0,5.9-3.2,9.6-10.4,9.6C158.5,700.4,156.3,694.6,156.3,688.2z"/>
	<path d="M183.6,667.4h3.4v13c0.9-2.5,3.2-4.3,8.3-4.3c7.9,0,9.6,4.3,9.6,11.2v12.8h-3.4v-13c0-5.3-0.9-7.9-7-7.9s-7.3,2.4-7.3,7.9
		v13h-3.4v-32.8L183.6,667.4L183.6,667.4z"/>
	<path d="M222.2,702.2h3.4c0.1,2.6,1.2,4.7,7.3,4.7c6.4,0,7.5-3.1,7.5-6.5v-4c-1.1,2.5-3.4,4-8.3,4c-8,0-9.6-4.4-9.6-11.2v-12.8h3.4
		v13c0,5.1,1.1,8,7.1,8c6.2,0,7.5-3,7.5-8.2v-12.9h3.4v23.8c0,4.6-1.7,9.5-10.9,9.5C224.4,709.6,222.2,705.9,222.2,702.2z"/>
	<path d="M248.7,688.2c0-6.2,2.4-12.2,11.4-12.2c9,0,11.4,5.9,11.4,12.2s-2.4,12.2-11.4,12.2C251,700.4,248.7,694.5,248.7,688.2z
		 M267.8,688.2c0-5-1.5-9.2-7.8-9.2s-7.8,4.1-7.8,9.2s1.5,9.2,7.8,9.2C266.3,697.5,267.8,693.4,267.8,688.2z"/>
	<path d="M276,689.1v-12.8h3.4v13c0,5.1,1.1,8,7.1,8s7.5-3,7.5-8.2v-12.9h3.4V700h-1.9l-0.7-4.3c-0.9,2.4-3.4,4.5-9.2,4.5
		C277.5,700.4,276,696,276,689.1z"/>
	<path d="M303.3,676.4h1.5l1.1,4c0.9-2.4,3.4-4.5,9-4.5v3.2c-6.9-0.4-8.2,2.7-8.2,7.9v13h-3.4V676.4L303.3,676.4z"/>
	<path d="M330.7,676.4h1.5l1.1,4c0.9-2.4,3.4-4.5,9-4.5v3.2c-6.9-0.4-8.2,2.7-8.2,7.9v13h-3.4V676.4z"/>
	<path d="M343.7,688.1c0-6.2,2.4-11.9,11.8-11.9c8.3,0,10.8,5.2,10.8,11.8c0,0.6,0,1.1,0,1.8h-18.8c0.2,4.7,2.4,7.9,8.2,7.9
		c5,0,6.7-2.5,7.2-4.3h3.7c-0.4,3-3.1,7-10.6,7C345.8,700.4,343.7,694.5,343.7,688.1z M362.6,686.9c0-4.5-2-8-7.5-8
		c-6,0-7.7,3.8-7.9,8H362.6z"/>
	<path d="M367.7,676.4h3.9l8.3,20.6l8.6-20.6h4L381.7,700H378L367.7,676.4z"/>
	<path d="M395.4,670.6c0-1.8,1.1-2.1,2.6-2.1s2.6,0.4,2.6,2.1c0,1.7-1.1,2.1-2.6,2.1C396.3,672.7,395.4,672.2,395.4,670.6z
		 M396.2,676.4h3.4V700h-3.4V676.4z"/>
	<path d="M404.5,688.1c0-6.2,2.4-11.9,11.8-11.9c8.3,0,10.8,5.2,10.8,11.8c0,0.6,0,1.1,0,1.8h-18.8c0.2,4.7,2.4,7.9,8.2,7.9
		c5,0,6.7-2.5,7.2-4.3h3.7c-0.4,3-3.1,7-10.6,7C406.7,700.4,404.5,694.5,404.5,688.1z M423.4,686.9c0-4.5-2-8-7.5-8
		c-6,0-7.7,3.8-7.9,8H423.4z"/>
	<path d="M429.3,676.4h3.8l5.7,19.9l6.5-19.9h3.4l6.6,20l6-20h3.8l-7.7,23.7h-4l-6.6-19.8l-6.4,19.8h-3.8L429.3,676.4z"/>
	<path d="M467.9,692h3.4c0,3.2,2.2,5.6,7.8,5.6c5.1,0,6.7-1.9,6.7-3.8c0.2-6.2-17.4-2.5-17.5-10.9c-0.1-4,2.8-6.9,10.1-6.9
		c7.5,0,10.2,3.9,10.2,8h-3.2c0-2.7-1.9-5.3-7.1-5.3c-5,0-6.6,1.7-6.5,3.9c0.1,5.4,17.4,2.2,17.4,10.9c0,3.4-2.8,6.7-10.2,6.7
		C471.3,700.4,467.9,696.9,467.9,692z"/>
	<path d="M504.8,692h3.4c0,3.2,2.2,5.6,7.8,5.6c5.1,0,6.7-1.9,6.7-3.8c0.2-6.2-17.4-2.5-17.5-10.9c-0.1-4,2.8-6.9,10.1-6.9
		c7.5,0,10.2,3.9,10.2,8h-3.2c0-2.7-1.9-5.3-7.1-5.3c-5,0-6.6,1.7-6.5,3.9c0.1,5.4,17.4,2.2,17.4,10.9c0,3.4-2.8,6.7-10.2,6.7
		C508.1,700.4,504.8,696.9,504.8,692z"/>
	<path d="M529.9,688.2c0-6.2,2.4-12.2,11.4-12.2s11.4,5.9,11.4,12.2s-2.4,12.2-11.4,12.2C532.1,700.4,529.9,694.5,529.9,688.2z
		 M549.1,688.2c0-5-1.5-9.2-7.8-9.2s-7.8,4.1-7.8,9.2s1.5,9.2,7.8,9.2C547.5,697.5,549.1,693.4,549.1,688.2z"/>
	<path d="M556.5,693.4c0-4.3,3-6.2,9.7-6.9l8.6-1.1c0-4.3-1.4-6.5-7.5-6.5c-5.4,0-6.9,2.4-6.9,5.1H557c0-3.7,2.1-7.8,10.3-7.8
		c9.6,0,10.9,4,10.9,10.4v13.5h-1.9l-0.7-4.9c-1.3,3-5.1,5.1-10.1,5.1C560.7,700.4,556.5,698.2,556.5,693.4z M574.9,689.7V688
		l-8.2,1.1c-4.9,0.7-6.6,1.7-6.6,4.1c0,2.8,2.4,4.3,6.3,4.3C571.2,697.7,574.9,694.9,574.9,689.7z"/>
	<path d="M584.1,676.4h1.5l1.1,4c0.9-2.4,3.4-4.5,9-4.5v3.2c-6.9-0.4-8.2,2.7-8.2,7.9v13h-3.4L584.1,676.4L584.1,676.4z"/>
	<path d="M597.3,700.4c-1.7,0-2.7-0.5-2.7-2.5c0-1.9,1.2-2.4,2.8-2.4c2.7,0,3.2,1.3,2.7,3.8l-1.3,6.9h-2.2L597.3,700.4z"/>
	<path d="M619.5,695.6l-0.7,4.5h-1.9v-32.8h3.4v13.1c0.9-2.4,3.4-4.4,8.8-4.4c8.2,0,10.3,5.3,10.3,11.9c0,6.7-2.1,12.3-10.4,12.3
		C623.1,700.4,620.4,698.1,619.5,695.6z M635.9,688.1c0-5.4-1.3-9-7.8-9c-6.6,0-7.8,3.7-7.8,9c0,5.7,1.4,9.3,7.9,9.3
		C634.5,697.5,635.9,693.8,635.9,688.1z"/>
	<path d="M643.4,688.2c0-6.2,2.4-12.2,11.4-12.2s11.4,5.9,11.4,12.2s-2.4,12.2-11.4,12.2S643.4,694.5,643.4,688.2z M662.5,688.2
		c0-5-1.5-9.2-7.8-9.2s-7.8,4.1-7.8,9.2s1.5,9.2,7.8,9.2C661,697.5,662.5,693.4,662.5,688.2z"/>
	<path d="M669.7,688.2c0-6.2,2.4-12.2,11.4-12.2s11.4,5.9,11.4,12.2s-2.4,12.2-11.4,12.2S669.7,694.5,669.7,688.2z M688.9,688.2
		c0-5-1.5-9.2-7.8-9.2s-7.8,4.1-7.8,9.2s1.5,9.2,7.8,9.2C687.4,697.5,688.9,693.4,688.9,688.2z"/>
	<path d="M696.1,692h3.4c0,3.2,2.2,5.6,7.8,5.6c5.1,0,6.7-1.9,6.7-3.8c0.2-6.2-17.4-2.5-17.5-10.9c-0.1-4,2.8-6.9,10.1-6.9
		c7.5,0,10.2,3.9,10.2,8h-3.2c0-2.7-1.9-5.3-7.1-5.3c-5,0-6.6,1.7-6.5,3.9c0.1,5.4,17.4,2.2,17.4,10.9c0,3.4-2.8,6.7-10.2,6.7
		C699.4,700.4,696.1,696.9,696.1,692z"/>
	<path d="M724.2,693.2v-13.8H721v-2.1l3.2-0.8v-5.8h3.4v5.9h7.5v2.8h-7.3v13.8c0,3,1.2,4.3,5.8,4.3c0.5,0,1.1,0,1.7,0v2.8
		c-0.7,0-1.4,0.1-2.1,0.1C726.8,700.4,724.2,698.2,724.2,693.2z"/>
	<path d="M749.1,676.4h3.9l8.3,20.6l8.6-20.6h4L763.1,700h-3.7L749.1,676.4z"/>
	<path d="M776.7,670.6c0-1.8,1.1-2.1,2.6-2.1s2.6,0.4,2.6,2.1c0,1.7-1.1,2.1-2.6,2.1C777.8,672.7,776.7,672.2,776.7,670.6z
		 M777.6,676.4h3.4V700h-3.4V676.4z"/>
	<path d="M785.9,692h3.4c0,3.2,2.2,5.6,7.8,5.6c5.1,0,6.7-1.9,6.7-3.8c0.2-6.2-17.4-2.5-17.5-10.9c-0.1-4,2.8-6.9,10.1-6.9
		c7.5,0,10.2,3.9,10.2,8h-3.2c0-2.7-1.9-5.3-7.1-5.3c-5,0-6.6,1.7-6.5,3.9c0.1,5.4,17.4,2.2,17.4,10.9c0,3.4-2.8,6.7-10.2,6.7
		C789.2,700.4,785.9,696.9,785.9,692z"/>
	<path d="M811.2,670.6c0-1.8,1.1-2.1,2.6-2.1s2.6,0.4,2.6,2.1c0,1.7-1.1,2.1-2.6,2.1C812.3,672.7,811.2,672.2,811.2,670.6z
		 M812.2,676.4h3.4V700h-3.4V676.4z"/>
	<path d="M824.3,695.6l-0.7,4.5h-1.9v-32.8h3.4v13.1c0.9-2.4,3.4-4.4,8.8-4.4c8.2,0,10.3,5.3,10.3,11.9c0,6.7-2.1,12.3-10.4,12.3
		C827.9,700.4,825.2,698.1,824.3,695.6z M840.6,688.1c0-5.4-1.3-9-7.8-9c-6.6,0-7.8,3.7-7.8,9c0,5.7,1.4,9.3,7.9,9.3
		C839.3,697.5,840.6,693.8,840.6,688.1z"/>
	<path d="M848.4,670.6c0-1.8,1.1-2.1,2.6-2.1s2.6,0.4,2.6,2.1c0,1.7-1.1,2.1-2.6,2.1C849.5,672.7,848.4,672.2,848.4,670.6z
		 M849.3,676.4h3.4V700h-3.4V676.4z"/>
	<path d="M858.8,667.4h3.4v32.8h-3.4V667.4z"/>
	<path d="M867.4,670.6c0-1.8,1.1-2.1,2.6-2.1s2.6,0.4,2.6,2.1c0,1.7-1.1,2.1-2.6,2.1C868.4,672.7,867.4,672.2,867.4,670.6z
		 M868.3,676.4h3.4V700h-3.4V676.4z"/>
	<path d="M879.5,693.2v-13.8h-3.2v-2.1l3.2-0.8v-5.8h3.4v5.9h7.5v2.8h-7.3v13.8c0,3,1.2,4.3,5.8,4.3c0.5,0,1.1,0,1.7,0v2.8
		c-0.7,0-1.4,0.1-2.1,0.1C882.1,700.4,879.5,698.2,879.5,693.2z"/>
	<path d="M894.7,702.2h3.4c0.1,2.6,1.2,4.7,7.3,4.7c6.4,0,7.5-3.1,7.5-6.5v-4c-1.1,2.5-3.4,4-8.3,4c-8,0-9.6-4.4-9.6-11.2v-12.8h3.4
		v13c0,5.1,1.1,8,7.1,8c6.2,0,7.5-3,7.5-8.2v-12.9h3.4v23.8c0,4.6-1.7,9.5-10.9,9.5C896.9,709.6,894.7,705.9,894.7,702.2z"/>
	<path d="M923.9,700.4c-1.7,0-2.7-0.5-2.7-2.5c0-1.9,1.2-2.4,2.8-2.4c2.7,0,3.2,1.3,2.7,3.8l-1.3,6.9h-2.2L923.9,700.4z"/>
	<path d="M71.3,763.9c0-4.3,3-6.2,9.7-6.9l8.6-1.1c0-4.3-1.4-6.5-7.5-6.5c-5.4,0-6.9,2.4-6.9,5.1h-3.4c0-3.7,2.1-7.8,10.3-7.8
		c9.6,0,10.9,4,10.9,10.4v13.6h-1.9l-0.7-4.9c-1.3,3-5.1,5.1-10.1,5.1C75.3,771,71.3,768.7,71.3,763.9z M89.7,760.2v-1.7l-8.2,1.1
		c-4.9,0.7-6.6,1.7-6.6,4.1c0,2.8,2.4,4.3,6.3,4.3C85.9,768.1,89.7,765.5,89.7,760.2z"/>
	<path d="M98.9,747h1.7l1.1,4.3c0.9-2.5,3.4-4.6,9.2-4.6c8,0,9.6,4.5,9.6,11.4v12.7H117v-12.9c0-5.1-0.9-8.2-7.1-8.2
		c-6,0-7.5,3-7.5,8.2v12.9H99L98.9,747L98.9,747z"/>
	<path d="M124.9,758.8c0-6.6,2.1-12.1,10.3-12.1c5.3,0,7.8,1.9,8.8,4.3v-13h3.4v32.8h-2l-0.7-4.5c-0.9,2.5-3.7,4.7-9.5,4.7
		C127,771,124.9,765.5,124.9,758.8z M144.1,758.8c0-5.2-1.2-9.1-7.8-9.1c-6.5,0-7.8,3.7-7.8,9.1c0,5.6,1.4,9.2,7.7,9.2
		C142.7,768,144.1,764.5,144.1,758.8z"/>
	<path d="M164.3,763.9c0-4.3,3-6.2,9.7-6.9l8.6-1.1c0-4.3-1.4-6.5-7.5-6.5c-5.4,0-6.9,2.4-6.9,5.1H165c0-3.7,2.1-7.8,10.3-7.8
		c9.6,0,10.9,4,10.9,10.4v13.6h-1.9l-0.7-4.9c-1.3,3-5.1,5.1-10.1,5.1C168.3,771,164.3,768.7,164.3,763.9z M182.7,760.2v-1.7
		l-8.2,1.1c-4.9,0.7-6.6,1.7-6.6,4.1c0,2.8,2.4,4.3,6.3,4.3C178.9,768.1,182.7,765.5,182.7,760.2z"/>
	<path d="M192.8,763.8V750h-3.2v-2.1l3.2-0.8v-5.8h3.4v5.9h7.5v2.8h-7.3v13.8c0,3,1.2,4.3,5.8,4.3c0.5,0,1.1,0,1.7,0v2.8
		c-0.7,0-1.4,0.1-2.1,0.1C195.5,770.9,192.8,768.9,192.8,763.8z"/>
	<path d="M210.1,763.8V750h-3.2v-2.1l3.2-0.8v-5.8h3.4v5.9h7.5v2.8h-7.3v13.8c0,3,1.2,4.3,5.8,4.3c0.5,0,1.1,0,1.7,0v2.8
		c-0.7,0-1.4,0.1-2.1,0.1C212.7,770.9,210.1,768.9,210.1,763.8z"/>
	<path d="M225.5,747h1.5l1.1,4c0.9-2.4,3.4-4.5,9-4.5v3.2c-6.9-0.4-8.2,2.7-8.2,7.9v13h-3.4L225.5,747L225.5,747z"/>
	<path d="M238.7,763.9c0-4.3,3-6.2,9.7-6.9l8.6-1.1c0-4.3-1.4-6.5-7.5-6.5c-5.4,0-6.9,2.4-6.9,5.1h-3.4c0-3.7,2.1-7.8,10.3-7.8
		c9.6,0,10.9,4,10.9,10.4v13.6h-1.9l-0.7-4.9c-1.3,3-5.1,5.1-10.1,5.1C242.9,771,238.7,768.7,238.7,763.9z M257.1,760.2v-1.7
		l-8.2,1.1c-4.9,0.7-6.6,1.7-6.6,4.1c0,2.8,2.4,4.3,6.3,4.3C253.3,768.1,257.1,765.5,257.1,760.2z"/>
	<path d="M265.1,758.8c0-6.3,2.4-12.2,11.5-12.2c7.2,0,10.5,3.8,10.5,9.6h-3.5c-0.2-4.3-2.1-6.6-7.1-6.6c-6.3,0-7.9,4-7.9,9.1
		s1.7,9.2,7.9,9.2c5,0,6.9-2.5,7.1-6.6h3.5c0,5.9-3.2,9.6-10.4,9.6C267.4,771,265.1,765.2,265.1,758.8z"/>
	<path d="M293.3,763.8V750h-3.2v-2.1l3.2-0.8v-5.8h3.4v5.9h7.5v2.8h-7.3v13.8c0,3,1.2,4.3,5.8,4.3c0.5,0,1.1,0,1.7,0v2.8
		c-0.7,0-1.4,0.1-2.1,0.1C295.9,770.9,293.3,768.9,293.3,763.8z"/>
	<path d="M320.5,747h1.5l1.1,3.7c0.8-2.1,3.2-4,7.6-4c4,0,6.2,1.7,7.1,4.6c0.7-2.5,3-4.6,7.7-4.6c6.5,0,8,4.4,8,10.3v13.7H350v-14
		c0-4.3-0.9-7.1-5.4-7.1s-5.8,2.6-5.8,7.1v14h-3.5v-14c0-4.3-1.1-7.1-5.6-7.1s-5.8,2.6-5.8,7.1v14h-3.4L320.5,747L320.5,747
		L320.5,747z"/>
	<path d="M358.1,758.8c0-6.2,2.4-12.2,11.4-12.2s11.4,5.9,11.4,12.2s-2.4,12.2-11.4,12.2S358.1,765.1,358.1,758.8z M377.3,758.8
		c0-5-1.5-9.2-7.8-9.2s-7.8,4.1-7.8,9.2c0,5.1,1.5,9.2,7.8,9.2C375.7,768.1,377.3,763.9,377.3,758.8z"/>
	<path d="M385.7,747h1.5l1.1,4c0.9-2.4,3.4-4.5,9-4.5v3.2c-6.9-0.4-8.2,2.7-8.2,7.9v13h-3.4V747z"/>
	<path d="M398.6,758.7c0-6.2,2.4-11.9,11.8-11.9c8.3,0,10.8,5.2,10.8,11.8c0,0.6,0,1.1,0,1.8h-18.8c0.2,4.7,2.4,7.9,8.2,7.9
		c5,0,6.7-2.5,7.2-4.3h3.7c-0.4,3-3.1,7-10.6,7C400.8,771,398.6,765.1,398.6,758.7z M417.6,757.5c0-4.5-2-8-7.5-8
		c-6,0-7.7,3.8-7.9,8H417.6z"/>
	<path d="M436.7,758.8c0-6.3,2.4-12.2,11.5-12.2c7.2,0,10.5,3.8,10.5,9.6h-3.5c-0.2-4.3-2.1-6.6-7.1-6.6c-6.3,0-7.9,4-7.9,9.1
		s1.7,9.2,7.9,9.2c5,0,6.9-2.5,7.1-6.6h3.5c0,5.9-3.2,9.6-10.4,9.6C438.9,771,436.7,765.2,436.7,758.8z"/>
	<path d="M463.9,759.7V747h3.4v13c0,5.1,1.1,8,7.1,8s7.5-3,7.5-8.2V747h3.4v23.7h-2l-0.7-4.3c-0.9,2.4-3.4,4.5-9.2,4.5
		C465.4,771,463.9,766.6,463.9,759.7z"/>
	<path d="M490,762.6h3.4c0,3.2,2.2,5.6,7.8,5.6c5.1,0,6.7-1.9,6.7-3.8c0.2-6.2-17.4-2.5-17.5-10.9c-0.1-4,2.8-6.9,10.1-6.9
		c7.5,0,10.2,3.9,10.2,8h-3.2c0-2.7-1.9-5.3-7.1-5.3c-5,0-6.6,1.7-6.5,3.9c0.1,5.4,17.4,2.2,17.4,10.9c0,3.4-2.8,6.7-10.2,6.7
		C493.3,771,490,767.4,490,762.6z"/>
	<path d="M518.1,763.8V750h-3.2v-2.1l3.2-0.8v-5.8h3.4v5.9h7.5v2.8h-7.3v13.8c0,3,1.2,4.3,5.8,4.3c0.5,0,1.1,0,1.7,0v2.8
		c-0.7,0-1.4,0.1-2.1,0.1C520.7,770.9,518.1,768.9,518.1,763.8z"/>
	<path d="M530.8,758.8c0-6.2,2.4-12.2,11.4-12.2s11.4,5.9,11.4,12.2s-2.4,12.2-11.4,12.2C533.1,771,530.8,765.1,530.8,758.8z
		 M550,758.8c0-5-1.5-9.2-7.8-9.2s-7.8,4.1-7.8,9.2c0,5.1,1.5,9.2,7.8,9.2C548.5,768.1,550,763.9,550,758.8z"/>
	<path d="M558.4,747h1.5l1.1,3.7c0.8-2.1,3.2-4,7.6-4c4,0,6.2,1.7,7.1,4.6c0.7-2.5,3-4.6,7.7-4.6c6.5,0,8,4.4,8,10.3v13.7h-3.5v-14
		c0-4.3-0.9-7.1-5.4-7.1s-5.8,2.6-5.8,7.1v14h-3.5v-14c0-4.3-1.1-7.1-5.6-7.1s-5.8,2.6-5.8,7.1v14h-3.4L558.4,747L558.4,747
		L558.4,747z"/>
	<path d="M596,758.7c0-6.2,2.4-11.9,11.8-11.9c8.3,0,10.8,5.2,10.8,11.8c0,0.6,0,1.1,0,1.8h-18.8c0.2,4.7,2.4,7.9,8.2,7.9
		c5,0,6.7-2.5,7.2-4.3h3.7c-0.4,3-3.1,7-10.6,7C598.2,771,596,765.1,596,758.7z M615,757.5c0-4.5-2-8-7.5-8c-6,0-7.7,3.8-7.9,8H615z
		"/>
	<path d="M623.4,747h1.5l1.1,4c0.9-2.4,3.4-4.5,9-4.5v3.2c-6.9-0.4-8.2,2.7-8.2,7.9v13h-3.4L623.4,747L623.4,747z"/>
	<path d="M637.7,762.6h3.4c0,3.2,2.2,5.6,7.8,5.6c5.1,0,6.7-1.9,6.7-3.8c0.2-6.2-17.4-2.5-17.5-10.9c-0.1-4,2.8-6.9,10.1-6.9
		c7.5,0,10.2,3.9,10.2,8h-3.2c0-2.7-1.9-5.3-7.1-5.3c-5,0-6.6,1.7-6.5,3.9c0.1,5.4,17.4,2.2,17.4,10.9c0,3.4-2.8,6.7-10.2,6.7
		C641.1,771,637.7,767.4,637.7,762.6z"/>
</g>
<g>
	<g>
		<path class="st2" d="M667,437.2c-0.8,0.4-1.5,0.7-2.3,1c-30,10.9-46,12.2-50,12.3l-0.2,0.1c-0.5,0.1-1,0-1.5,0.1l-0.3,0.1
			c-1,0-2,0.1-2.9,0.1c0,0-0.4-0.2-0.7-0.1c-0.7-0.1-1.3,0.1-2,0.1c-0.3,0.1-0.4-0.2-0.7-0.1c-0.7-0.1-1.4-0.2-2.1-0.2
			c-7.2-1.4-17.8-14.7-25.7-34.3c-1.2-3-2.3-6.2-3.4-9.5c-1.4-4.4-2.7-9.1-3.7-14c-1.7-8-1.1-16.6-0.9-25.5c0-1.4,0.1-2.8,0.1-4.1
			c0-0.3,0-0.6,0-0.9c0-0.1-2.5-0.1,0,0c0,0-0.1,0.3-0.2,0.9c-0.2,0.8-0.7,2.2-1.3,4.1c-4.4,13.5-19.1,52.3-52.5,87.5
			c-9.9,10.5-21.5,20.6-35,29.7c-19.9,13.4-37.9,24.2-53.6,32.9c-44.3,24.4-71.1,31.9-73.1,32.6c-10.2,3.5-48.1-78.2-50.2-94.9
			c-0.7-5.3,71.3,0.7,131.9-35c2-1.1,3.9-2.3,5.8-3.4c3.7-2.3,7.3-4.7,10.7-7.2c46.7-33.8,61.7-78.5,66.9-83.3
			c-8.7,3.6-17.9,7-27.1,10c-0.4,0.1-0.8,0.3-1.2,0.4c-1.4,0.5-2.7,0.9-4.1,1.3c-10.3,3.3-20.5,6.1-30.3,8.3
			c-18.5,4.3-35.4,6.8-47.3,6.4c-8.4-0.1-14.6-1.9-17-4.9c-0.4-0.2-0.6-0.8-0.9-1.4c-0.1-0.3-0.1-0.3-0.1-0.3l-0.9-2.4
			c-4-14.4-2-58.8,2.5-82.4c4-20.4,231.9-29.8,243.1-22c15,10.1,58.1,173.7,58.8,182.4C695.9,427.3,683.4,431.5,667,437.2z"/>
	</g>
	<path class="st3" d="M570.4,363.1c-0.2,0.8-0.7,2.2-1.3,4.1c-4.4,13.5-19.1,52.3-52.5,87.5l-4.3-3.1c-0.1-0.1-0.2-0.1-0.3,0
		l-76,54.1c-0.2,0.1-0.5-0.1-0.4-0.3l29-87.5c0-0.1,0-0.2-0.1-0.3l-11.5-8.2c46.7-33.8,61.7-78.5,66.9-83.3c-8.7,3.6-17.9,7-27.1,10
		c-0.4,0.1-0.8,0.3-1.2,0.4l20.3-61.2c0.1-0.2,0.4-0.2,0.5,0l29,87.5c0,0.1,0.1,0.2,0.2,0.2H570.4z"/>
	<path class="st3" d="M635.8,363.5l-60.6,43.1c-1.4-4.4-2.7-9.1-3.7-14c-1.7-8-1.1-16.6-0.9-25.5c0-1.4,0.1-2.8,0.1-4.1h65
		C635.9,363.1,636,363.4,635.8,363.5z"/>
	<path class="st4" d="M512.4,275.3l29,87.5c0,0.1,0.1,0.2,0.2,0.2h94c0.3,0,0.4,0.3,0.2,0.5l-76,54.1c-0.1,0.1-0.1,0.2-0.1,0.3
		l29,87.5c0.1,0.2-0.2,0.4-0.4,0.3l-76-54.1c-0.1-0.1-0.2-0.1-0.3,0l-76,54.1c-0.2,0.1-0.5-0.1-0.4-0.3l29-87.5c0-0.1,0-0.2-0.1-0.3
		l-76-54.1c-0.2-0.1-0.1-0.5,0.2-0.5h94c0.1,0,0.2-0.1,0.2-0.2l29-87.5C512,275.1,512.3,275.1,512.4,275.3z"/>
</g>
</svg>
