<?xml version="1.0" encoding="utf-8"?>
<!-- Generator: Adobe Illustrator 27.0.0, SVG Export Plug-In . SVG Version: 6.00 Build 0)  -->
<svg version="1.1" id="Layer_1" xmlns="http://www.w3.org/2000/svg" xmlns:xlink="http://www.w3.org/1999/xlink" x="0px" y="0px"
	 viewBox="0 0 828 765" style="enable-background:new 0 0 828 765;" xml:space="preserve">
<style type="text/css">
	.st0{fill:none;stroke:#000000;stroke-width:2.0149;stroke-miterlimit:10;}
	.st1{fill:#00F6FF;}
	.st2{fill:#98E891;}
	.st3{fill:none;stroke:#000000;stroke-width:2.3762;stroke-miterlimit:10;}
	.st4{fill:none;}
</style>
<g>
	<path class="st1" d="M513.2,399.6c-17.1,6.7-35.9,11.8-55.1,14.7c-4.3,0.7-8.7,1.4-13,1.8c-0.2,0.1-0.5,0.1-0.7,0.1
		c-0.9,0.1-1.8,0.2-2.8,0.2c-1.4,0.2-2.7,0.2-4.1,0.4c-2.4,0.2-4.8,0.3-7.2,0.5c-5.1,0.2-10.2,0.4-15.2,0.4c-2.4,0-4.8,0-7.2-0.1
		c-1.9-0.1-3.8-0.1-5.7-0.2c-0.8,0-1.6-0.1-2.3-0.1c-2.2-0.1-4.5-0.2-6.7-0.5c-1.5-0.1-3-0.2-4.5-0.4c-2.8-0.2-5.6-0.6-8.4-1
		c-1.3-0.2-2.6-0.4-3.8-0.6c0,0-0.1,0-0.1-0.1c-0.2-0.1-0.5-0.2-0.7-0.2c-2-0.2-4-0.7-6-1c-1.2-0.2-2.6-0.5-3.8-0.7l-0.2,0.2
		c-21.4-4.3-41.2-11.8-57.2-22.6l-5.5,3.1l-0.2-0.2l-68.6,38.5l35.4-74c-10.8-12.3-18.1-26.9-17.3-43.7
		c1.2-31.8,21.7-53.7,48.9-68.4c3.5-1.8,7-3.6,10.7-5.2c4.2-1.9,8.5-3.6,12.9-5.3c11.8-4.3,24-7.7,35.9-10.1
		c6.2-1.2,12.1-2.2,18.1-3.1V222c12.3-1.7,23.8-2.6,33.7-2.9c9.1-0.2,19.7-0.2,31.2,0.2c7,0.2,14.7,0.7,22.4,1.4
		c9.6,1,19.5,2.2,29.1,4.1c3.7,0.7,7.5,1.6,11.2,2.5c6.6,1.7,13.2,3.6,19.5,5.9c33.1,11.9,60.3,33.4,64.5,71.7
		C594.9,348,560.8,380.9,513.2,399.6z"/>

	
	<g>
		<g>
			<g>
				<path class="st2" d="M520.2,307.9c4.9,5,4.9,12.9-0.1,17.8c-2.4,2.4-5.5,3.6-8.9,3.6c-3.4,0-6.5-1.3-8.9-3.7
					c-22.2-22.4-50.8-34.7-80.4-34.7c-29.7,0-58.3,12.3-80.4,34.7c-2.4,2.4-5.5,3.7-8.9,3.7c-3.3,0-6.5-1.3-8.9-3.6
					c-2.4-2.4-3.7-5.5-3.7-8.9c0-3.4,1.2-6.5,3.6-8.9c26.9-27.2,61.9-42.1,98.4-42.1C458.4,265.8,493.3,280.7,520.2,307.9z"/>
				<path class="st2" d="M441.7,416.4c-1.4,0.2-2.7,0.2-4.1,0.4c-2.4,0.2-4.8,0.3-7.2,0.5c-5.1,0.2-10.2,0.4-15.2,0.4
					c-2.4,0-4.8,0-7.2-0.1c-1.9-0.1-3.8-0.1-5.7-0.2c0-0.3,0-0.7,0-0.9c0-10.9,8.9-19.8,19.8-19.8
					C432.8,396.8,441.7,405.6,441.7,416.4z"/>
				<path class="st2" d="M559.9,280.5c-2.3,2.2-5.4,3.4-8.6,3.4c-3.5,0-6.9-1.5-9.2-4.1c-31.5-33.8-74.2-52.5-120.1-52.5
					s-88.7,18.7-120.2,52.5c-2.4,2.6-5.7,4.1-9.2,4.1c-3.2,0-6.3-1.2-8.6-3.4c-5.1-4.7-5.4-12.8-0.7-17.8c5.6-6,11.6-11.8,17.9-17
					c3.5-1.8,7-3.6,10.7-5.2c4.2-1.9,8.5-3.6,12.9-5.3c11.8-4.3,24-7.7,35.9-10.1c6.2-1.2,12.1-2.2,18.1-3.1V222
					c12.3-1.7,23.8-2.6,33.7-2.9c9.1-0.2,19.7-0.2,31.2,0.2c7,0.2,14.7,0.7,22.4,1.4c9.6,1,19.5,2.2,29.1,4.1
					c3.7,0.7,7.5,1.6,11.2,2.5c6.6,1.7,13.2,3.6,19.5,5.9c12.6,8.3,24.3,18.2,34.9,29.6C565.3,267.8,565,275.8,559.9,280.5z"/>
				<path class="st2" d="M476.8,353.4c2.4,2.4,3.7,5.5,3.7,8.9c0,3.4-1.2,6.5-3.6,8.9s-5.5,3.7-8.9,3.7c-3.3,0-6.5-1.3-8.9-3.6
					c-9.9-9.9-24.3-16.1-36.8-16.1h-0.8c-12.5,0-26.9,6.3-36.8,16.1c-2.4,2.3-5.5,3.6-8.9,3.6c-3.4,0-6.5-1.3-8.9-3.7
					c-4.9-5-4.9-13,0.1-17.9c14.6-14.4,35.4-23.4,54.6-23.4h0.8C441.4,329.9,462.3,338.9,476.8,353.4z"/>
			</g>
		</g>
	</g>
	<g>
		<g>
			<g>
				<path class="st3" d="M520.2,307.9c4.9,5,4.9,12.9-0.1,17.8c-2.4,2.4-5.5,3.6-8.9,3.6c-3.4,0-6.5-1.3-8.9-3.7
					c-22.2-22.4-50.8-34.7-80.4-34.7c-29.7,0-58.3,12.3-80.4,34.7c-2.4,2.4-5.5,3.7-8.9,3.7c-3.3,0-6.5-1.3-8.9-3.6
					c-2.4-2.4-3.7-5.5-3.7-8.9c0-3.4,1.2-6.5,3.6-8.9c26.9-27.2,61.9-42.1,98.4-42.1C458.4,265.8,493.3,280.7,520.2,307.9z"/>
				<path class="st3" d="M441.7,416.6c0,10.8-8.9,19.7-19.7,19.7c-10.9,0-19.8-8.9-19.8-19.7c0-10.9,8.9-19.8,19.8-19.8
					C432.8,396.8,441.7,405.7,441.7,416.6z"/>
				<path class="st3" d="M559.9,280.5c-2.3,2.2-5.4,3.4-8.6,3.4c-3.5,0-6.9-1.5-9.2-4.1c-31.5-33.8-74.2-52.5-120.1-52.5
					s-88.7,18.7-120.2,52.5c-2.4,2.6-5.7,4.1-9.2,4.1c-3.2,0-6.3-1.2-8.6-3.4c-5.1-4.7-5.4-12.8-0.7-17.8
					c36.3-39,85.6-60.4,138.6-60.5c53.1,0,102.3,21.5,138.6,60.5C565.3,267.8,565,275.8,559.9,280.5z"/>
				<path class="st3" d="M476.8,353.4c2.4,2.4,3.7,5.5,3.7,8.9c0,3.4-1.2,6.5-3.6,8.9s-5.5,3.7-8.9,3.7c-3.3,0-6.5-1.3-8.9-3.6
					c-9.9-9.9-24.3-16.1-36.8-16.1h-0.8c-12.5,0-26.9,6.3-36.8,16.1c-2.4,2.3-5.5,3.6-8.9,3.6c-3.4,0-6.5-1.3-8.9-3.7
					c-4.9-5-4.9-13,0.1-17.9c14.6-14.4,35.4-23.4,54.6-23.4h0.8C441.4,329.9,462.3,338.9,476.8,353.4z"/>
			</g>
		</g>
	</g>
	<rect class="st4" width="828" height="765"/>
</g>
</svg>
