<?xml version="1.0" encoding="utf-8"?>
<!-- Generator: Adobe Illustrator 27.0.0, SVG Export Plug-In . SVG Version: 6.00 Build 0)  -->
<svg version="1.1" id="Layer_1" xmlns="http://www.w3.org/2000/svg" xmlns:xlink="http://www.w3.org/1999/xlink" x="0px" y="0px"
	 viewBox="0 0 1000 924" style="enable-background:new 0 0 1000 924;" xml:space="preserve">
<style type="text/css">
	.st0{fill:none;stroke:#000000;stroke-width:2.4336;stroke-miterlimit:10;}
	.st1{fill:#FF4B00;}
	.st2{display:none;fill:#FF4B00;}
	.st3{display:none;}
	.st4{display:inline;fill:#D2B6DE;}
	.st5{display:inline;}
	.st6{fill:#EAEAEA;}
	.st7{fill:#D2B6DE;}
	.st8{fill:none;stroke:#000000;stroke-width:3;stroke-miterlimit:10;}
</style>
<line class="st0" x1="66.9" y1="609.3" x2="926.2" y2="609.3"/>
<g>
	<path d="M71.4,687.8c0-8.4,2.8-15.6,14-15.6c9.7,0,13.5,4.4,13.5,10h-3.8c-0.2-4.1-2.7-6.9-9.7-6.9c-8.3,0-10.2,5.5-10.2,12.4
		s2.3,12.4,10.2,12.4c7.2,0,10-4.4,10-10.7H84.2v-3h14.7v16.5h-2.2l-0.9-6.2c-1.6,3.9-4.6,6.4-10.8,6.4
		C74.7,703.4,71.4,696.2,71.4,687.8z"/>
	<path d="M106.6,690.7c0-6.3,2.4-12.3,12.2-12.3c8.5,0,11.1,5.4,11.1,12.2c0,0.6,0,1.1,0,1.8h-19.5c0.2,4.9,2.4,8.2,8.4,8.2
		c5.1,0,6.9-2.6,7.4-4.4h3.8c-0.4,3-3.2,7.2-11,7.2C108.9,703.4,106.6,697.3,106.6,690.7z M126.1,689.5c0-4.6-2.1-8.3-7.7-8.3
		c-6.2,0-7.9,3.9-8.2,8.3H126.1z"/>
	<path d="M137.9,695.9v-14.2h-3.3v-2.2l3.3-0.9v-6h3.5v6.1h7.7v2.9h-7.5v14.2c0,3,1.2,4.4,6,4.4c0.5,0,1.1,0,1.7,0v2.9
		c-0.7,0-1.5,0.1-2.2,0.1C140.7,703.3,137.9,701.2,137.9,695.9z"/>
	<path d="M169.5,694.6h3.5c0,3.3,2.3,5.7,8,5.7c5.2,0,6.9-1.9,6.9-3.9c0.2-6.3-17.9-2.6-18-11.2c-0.1-4.1,2.9-7.1,10.3-7.1
		c7.7,0,10.5,4,10.5,8.3h-3.3c0-2.8-1.9-5.5-7.3-5.5c-5.1,0-6.8,1.7-6.7,4c0.1,5.6,17.9,2.3,17.9,11.2c0,3.5-2.9,6.9-10.5,6.9
		C172.9,703.4,169.5,699.7,169.5,694.6z"/>
	<path d="M200.7,695.9v-14.2h-3.3v-2.2l3.3-0.9v-6h3.5v6.1h7.7v2.9h-7.5v14.2c0,3,1.2,4.4,6,4.4c0.5,0,1.1,0,1.7,0v2.9
		c-0.7,0-1.5,0.1-2.2,0.1C203.5,703.3,200.7,701.2,200.7,695.9z"/>
	<path d="M216.5,696.1c0-4.4,3-6.3,10-7.1l8.9-1.1c0-4.4-1.5-6.7-7.7-6.7c-5.6,0-7.1,2.4-7.1,5.2h-3.5c0-3.8,2.2-8,10.6-8
		c9.9,0,11.2,4.1,11.2,10.7v14H237l-0.7-5c-1.3,3-5.2,5.2-10.3,5.2C220.6,703.4,216.5,701.1,216.5,696.1z M235.3,692.3v-1.7
		l-8.4,1.1c-5,0.7-6.8,1.7-6.8,4.3c0,2.9,2.4,4.4,6.4,4.4C231.4,700.5,235.3,697.7,235.3,692.3z"/>
	<path d="M247.1,678.7h1.6l1.1,4.1c1-2.4,3.5-4.6,9.2-4.6v3.3c-7.1-0.4-8.4,2.8-8.4,8.2V703h-3.5L247.1,678.7L247.1,678.7z"/>
	<path d="M268.1,695.9v-14.2h-3.3v-2.2l3.3-0.9v-6h3.5v6.1h7.7v2.9h-7.5v14.2c0,3,1.2,4.4,6,4.4c0.5,0,1.1,0,1.7,0v2.9
		c-0.7,0-1.5,0.1-2.2,0.1C270.7,703.3,268.1,701.2,268.1,695.9z"/>
	<path d="M283.5,690.7c0-6.3,2.4-12.3,12.2-12.3c8.5,0,11.1,5.4,11.1,12.2c0,0.6,0,1.1,0,1.8h-19.3c0.2,4.9,2.4,8.2,8.4,8.2
		c5.1,0,6.9-2.6,7.4-4.4h3.8c-0.4,3-3.2,7.2-11,7.2C285.8,703.4,283.5,697.3,283.5,690.7z M303,689.5c0-4.6-2.1-8.3-7.7-8.3
		c-6.2,0-7.9,3.9-8.2,8.3H303z"/>
	<path d="M313,690.9c0-6.8,2.2-12.4,10.6-12.4c5.5,0,8,1.9,9,4.4v-13.4h3.5v33.7H334l-0.7-4.6c-1,2.6-3.8,4.9-9.7,4.9
		C315.2,703.4,313,697.7,313,690.9z M332.7,690.9c0-5.4-1.2-9.4-8-9.4c-6.7,0-8,3.8-8,9.4c0,5.7,1.5,9.5,7.9,9.5
		C331.2,700.4,332.7,696.6,332.7,690.9z"/>
	<path d="M357.1,678.7h3.9l5.8,20.4l6.7-20.4h3.5l6.8,20.6l6.2-20.6h3.9L386,703h-4l-6.8-20.3l-6.6,20.3h-3.8L357.1,678.7z"/>
	<path d="M399.6,672.7c0-1.8,1.1-2.2,2.7-2.2s2.7,0.4,2.7,2.2c0,1.7-1.1,2.2-2.7,2.2C400.6,674.9,399.6,674.4,399.6,672.7z
		 M400.4,678.7h3.5V703h-3.5V678.7z"/>
	<path d="M414.4,695.9v-14.2H411v-2.2l3.3-0.9v-6h3.5v6.1h7.7v2.9H418v14.2c0,3,1.2,4.4,6,4.4c0.5,0,1.1,0,1.7,0v2.9
		c-0.7,0-1.5,0.1-2.2,0.1C417.1,703.3,414.4,701.2,414.4,695.9z"/>
	<path d="M432.7,669.3h3.5v13.4c1-2.6,3.3-4.4,8.5-4.4c8.2,0,9.9,4.4,9.9,11.6V703h-3.5v-13.4c0-5.5-1-8.2-7.2-8.2s-7.5,2.4-7.5,8.2
		V703h-3.5v-33.7H432.7z"/>
	<path d="M476.5,696.1c0-4.4,3-6.3,10-7.1l8.9-1.1c0-4.4-1.5-6.7-7.7-6.7c-5.6,0-7.1,2.4-7.1,5.2h-3.5c0-3.8,2.2-8,10.6-8
		c9.9,0,11.2,4.1,11.2,10.7v14H497l-0.7-5c-1.3,3-5.2,5.2-10.3,5.2C480.6,703.4,476.5,701.1,476.5,696.1z M495.4,692.3v-1.7
		l-8.4,1.1c-5,0.7-6.8,1.7-6.8,4.3c0,2.9,2.4,4.4,6.4,4.4C491.5,700.5,495.4,697.7,495.4,692.3z"/>
	<path d="M521.8,678.7h1.6l1.1,4.1c1-2.4,3.5-4.6,9.2-4.6v3.3c-7.1-0.4-8.4,2.8-8.4,8.2V703h-3.5L521.8,678.7L521.8,678.7z"/>
	<path d="M539.3,672.7c0-1.8,1.1-2.2,2.7-2.2c1.6,0,2.7,0.4,2.7,2.2c0,1.7-1.1,2.2-2.7,2.2C540.3,674.9,539.3,674.4,539.3,672.7z
		 M540.1,678.7h3.5V703h-3.5V678.7z"/>
	<path d="M551,694.6h3.5c0,3.3,2.3,5.7,8,5.7c5.2,0,6.9-1.9,6.9-3.9c0.2-6.3-17.9-2.6-18-11.2c-0.1-4.1,2.9-7.1,10.3-7.1
		c7.7,0,10.5,4,10.5,8.3H569c0-2.8-1.9-5.5-7.3-5.5c-5.1,0-6.8,1.7-6.7,4c0.1,5.6,17.9,2.3,17.9,11.2c0,3.5-2.9,6.9-10.5,6.9
		C554.5,703.4,551,699.7,551,694.6z"/>
	<path d="M580.4,669.3h3.5v19.5l11.2-10.1h5.2l-13.5,11.6l14.7,12.8h-5.1l-12.5-11.3V703h-3.5L580.4,669.3L580.4,669.3z"/>
	<path d="M603.6,689.3h13.6v3h-13.6V689.3z"/>
	<path d="M626.3,681.6H623v-2.2l3.3-0.7v-2.3c0-5.8,3.4-7.7,11.2-7.3v2.9c-6-0.4-7.7,1-7.7,4.4v2.2h7.7v2.9h-7.7v21.4h-3.5V681.6z"
		/>
	<path d="M644.2,678.7h1.6l1.1,4.1c1-2.4,3.5-4.6,9.2-4.6v3.3c-7.1-0.4-8.4,2.8-8.4,8.2V703h-3.5L644.2,678.7L644.2,678.7z"/>
	<path d="M659.9,690.7c0-6.3,2.4-12.3,12.2-12.3c8.5,0,11.1,5.4,11.1,12.2c0,0.6,0,1.1,0,1.8h-19.3c0.2,4.9,2.4,8.2,8.4,8.2
		c5.1,0,6.9-2.6,7.4-4.4h3.8c-0.4,3-3.2,7.2-11,7.2C662.1,703.4,659.9,697.3,659.9,690.7z M679.3,689.5c0-4.6-2.1-8.3-7.7-8.3
		c-6.2,0-7.9,3.9-8.2,8.3H679.3z"/>
	<path d="M689.2,690.7c0-6.3,2.4-12.3,12.2-12.3c8.5,0,11.1,5.4,11.1,12.2c0,0.6,0,1.1,0,1.8h-19.3c0.2,4.9,2.4,8.2,8.4,8.2
		c5.1,0,6.9-2.6,7.4-4.4h3.8c-0.4,3-3.2,7.2-11,7.2C691.5,703.4,689.2,697.3,689.2,690.7z M708.7,689.5c0-4.6-2.1-8.3-7.7-8.3
		c-6.2,0-7.9,3.9-8.2,8.3H708.7z"/>
	<path d="M736.2,695.9v-14.2h-3.3v-2.2l3.3-0.9v-6h3.5v6.1h7.7v2.9h-7.5v14.2c0,3,1.2,4.4,6,4.4c0.5,0,1.1,0,1.7,0v2.9
		c-0.7,0-1.5,0.1-2.2,0.1C739,703.3,736.2,701.2,736.2,695.9z"/>
	<path d="M754.4,678.7h1.6l1.1,4.1c1-2.4,3.5-4.6,9.2-4.6v3.3c-7.1-0.4-8.4,2.8-8.4,8.2V703h-3.5L754.4,678.7L754.4,678.7z"/>
	<path d="M771.9,672.7c0-1.8,1.1-2.2,2.7-2.2s2.7,0.4,2.7,2.2c0,1.7-1.1,2.2-2.7,2.2C772.9,674.9,771.9,674.4,771.9,672.7z
		 M772.8,678.7h3.5V703h-3.5V678.7z"/>
	<path d="M784,696.1c0-4.4,3-6.3,10-7.1l8.9-1.1c0-4.4-1.5-6.7-7.7-6.7c-5.6,0-7.1,2.4-7.1,5.2h-3.5c0-3.8,2.2-8,10.6-8
		c9.9,0,11.2,4.1,11.2,10.7v14h-1.9l-0.7-5c-1.3,3-5.2,5.2-10.3,5.2C788.2,703.4,784,701.1,784,696.1z M802.8,692.3v-1.7l-8.4,1.1
		c-5,0.7-6.8,1.7-6.8,4.3c0,2.9,2.4,4.4,6.4,4.4C799.1,700.5,802.8,697.7,802.8,692.3z"/>
	<path d="M814.8,669.3h3.5V703h-3.5V669.3z"/>
	<path d="M840.4,696.1c0-4.4,3-6.3,10-7.1l8.9-1.1c0-4.4-1.5-6.7-7.7-6.7c-5.6,0-7.1,2.4-7.1,5.2H841c0-3.8,2.2-8,10.6-8
		c9.9,0,11.2,4.1,11.2,10.7v14h-1.9l-0.7-5c-1.3,3-5.2,5.2-10.3,5.2S840.4,701.1,840.4,696.1z M859.3,692.3v-1.7l-8.4,1.1
		c-5,0.7-6.8,1.7-6.8,4.3c0,2.9,2.4,4.4,6.4,4.4C855.4,700.5,859.3,697.7,859.3,692.3z"/>
	<path d="M871.2,678.7h1.7l1.1,4.4c1-2.6,3.5-4.7,9.5-4.7c8.3,0,9.9,4.6,9.9,11.7v13h-3.5v-13.3c0-5.2-1-8.4-7.3-8.4s-7.7,3-7.7,8.4
		V703h-3.5L871.2,678.7L871.2,678.7z"/>
	<path d="M900.3,690.9c0-6.8,2.2-12.4,10.6-12.4c5.5,0,8,1.9,9,4.4v-13.4h3.5v33.7h-2.1l-0.7-4.6c-1,2.6-3.8,4.9-9.7,4.9
		C902.5,703.4,900.3,697.7,900.3,690.9z M920,690.9c0-5.4-1.2-9.4-8-9.4c-6.7,0-8,3.8-8,9.4c0,5.7,1.5,9.5,7.9,9.5
		C918.6,700.4,920,696.6,920,690.9z"/>
	<path d="M66.6,782v-3c0.7,0.1,1.5,0.2,1.9,0.2c2.6,0,3.3-1.2,3.3-3.5v-27.5h3.5v27.5c0,4.4-1.7,6.7-6.2,6.7
		C68.4,782.3,67.4,782.3,66.6,782z M70.9,742.2c0-1.8,1.1-2.2,2.7-2.2s2.7,0.4,2.7,2.2c0,1.7-1.1,2.2-2.7,2.2
		C71.9,744.4,70.9,743.9,70.9,742.2z"/>
	<path d="M82.5,760.4c0-6.3,2.4-12.5,11.7-12.5s11.7,6.1,11.7,12.5s-2.4,12.5-11.7,12.5S82.5,766.8,82.5,760.4z M102.2,760.4
		c0-5.1-1.6-9.5-8-9.5s-8,4.3-8,9.5s1.6,9.5,8,9.5C100.6,769.8,102.2,765.6,102.2,760.4z"/>
	<path d="M112.4,742.2c0-1.8,1.1-2.2,2.7-2.2s2.7,0.4,2.7,2.2c0,1.7-1.1,2.2-2.7,2.2C113.4,744.4,112.4,743.9,112.4,742.2z
		 M113.3,748.2h3.5v24.3h-3.5V748.2z"/>
	<path d="M125.3,748.2h1.7l1.1,4.4c1-2.6,3.5-4.7,9.5-4.7c8.3,0,9.9,4.6,9.9,11.7v13H144v-13.3c0-5.2-1-8.4-7.3-8.4
		c-6.2,0-7.7,3-7.7,8.4v13.3h-3.5L125.3,748.2L125.3,748.2z"/>
	<path d="M173.5,769.5h6.8v-24.3h-6.8v-2.6l7.1-0.5h3.4v27.5h6.2v3h-16.7V769.5L173.5,769.5z"/>
	<path d="M199.9,757.3c0-9.1,2.4-15.6,12.4-15.6c10.2,0,12.5,6.4,12.5,15.6c0,9-2.4,15.5-12.5,15.5
		C202.2,772.9,199.9,766.4,199.9,757.3z M221.1,757.3c0-7.7-1.5-12.5-8.9-12.5c-7.2,0-8.6,4.9-8.6,12.4s1.5,12.4,8.6,12.4
		C219.6,769.7,221.1,764.9,221.1,757.3z"/>
	<path d="M232.7,742.1h3.8v13.6l14.5-13.6h5l-16.2,14.5l16.9,15.9h-5l-15.2-14.7v14.7h-3.8L232.7,742.1L232.7,742.1z"/>
	<path d="M271.7,761.9h-11.3v-3h11.3v-10.7h3.3v10.7h11.3v3H275v10.7h-3.3V761.9z"/>
	<path d="M307,764.1h3.5c0,3.3,2.3,5.7,8,5.7c5.2,0,6.9-1.9,6.9-3.9c0.2-6.3-17.9-2.6-18-11.2c-0.1-4.1,2.9-7.1,10.3-7.1
		c7.7,0,10.5,4,10.5,8.3H325c0-2.8-1.9-5.5-7.3-5.5c-5.1,0-6.8,1.7-6.7,4c0.1,5.6,17.9,2.3,17.9,11.2c0,3.5-2.9,6.9-10.5,6.9
		C310.4,772.9,307,769.2,307,764.1z"/>
	<path d="M336.3,748.2h1.6l1.1,3.8c0.9-2.2,3.3-4.1,7.8-4.1c4.1,0,6.3,1.7,7.3,4.7c0.7-2.6,3-4.7,7.9-4.7c6.7,0,8.3,4.5,8.3,10.6
		v14.1h-3.7v-14.4c0-4.4-1-7.3-5.6-7.3s-6,2.7-6,7.3v14.4h-3.7v-14.4c0-4.4-1.1-7.3-5.7-7.3s-6,2.7-6,7.3v14.4h-3.5v-24.3
		L336.3,748.2L336.3,748.2z"/>
	<path d="M377.7,765.6c0-4.4,3-6.3,10-7.1l8.9-1.1c0-4.4-1.5-6.7-7.7-6.7c-5.6,0-7.1,2.4-7.1,5.2h-3.5c0-3.8,2.2-8,10.6-8
		c9.9,0,11.2,4.1,11.2,10.7v14h-1.9l-0.7-5c-1.3,3-5.2,5.2-10.3,5.2C382,772.9,377.7,770.6,377.7,765.6z M396.6,761.8v-1.7l-8.4,1.1
		c-5,0.7-6.8,1.7-6.8,4.3c0,2.9,2.4,4.4,6.4,4.4C392.7,770,396.6,767.2,396.6,761.8z"/>
	<path d="M408.5,748.2h1.6l1.1,4.1c1-2.4,3.5-4.6,9.2-4.6v3.3c-7.1-0.4-8.4,2.8-8.4,8.2v13.4h-3.5L408.5,748.2L408.5,748.2z"/>
	<path d="M429.3,765.3v-14.2H426v-2.2l3.3-0.9v-6h3.5v6.1h7.7v2.9H433v14.2c0,3,1.2,4.4,6,4.4c0.5,0,1.1,0,1.7,0v2.9
		c-0.7,0-1.5,0.1-2.2,0.1C432,772.8,429.3,770.7,429.3,765.3z"/>
	<path d="M464.8,768l-0.7,4.6h-1.9v-33.8h3.5v13.5c1-2.4,3.5-4.5,9-4.5c8.4,0,10.6,5.5,10.6,12.3c0,6.9-2.2,12.7-10.7,12.7
		C468.5,772.9,465.7,770.6,464.8,768z M481.6,760.2c0-5.6-1.3-9.2-8-9.2c-6.8,0-8,3.8-8,9.2c0,5.8,1.5,9.6,8.2,9.6
		C480.3,769.8,481.6,766.1,481.6,760.2z"/>
	<path d="M492.6,761.3v-13.1h3.5v13.4c0,5.2,1.1,8.3,7.3,8.3s7.7-3,7.7-8.4v-13.3h3.5v24.3h-1.9l-0.7-4.4c-1,2.4-3.5,4.6-9.5,4.6
		C494.1,772.9,492.6,768.3,492.6,761.3z"/>
	<path d="M521.9,764.1h3.5c0,3.3,2.3,5.7,8,5.7c5.2,0,6.9-1.9,6.9-3.9c0.2-6.3-17.9-2.6-18-11.2c-0.1-4.1,2.9-7.1,10.3-7.1
		c7.7,0,10.5,4,10.5,8.3h-3.3c0-2.8-1.9-5.5-7.3-5.5c-5.1,0-6.8,1.7-6.7,4c0.1,5.6,17.9,2.3,17.9,11.2c0,3.5-2.9,6.9-10.5,6.9
		C525.4,772.9,521.9,769.2,521.9,764.1z"/>
	<path d="M550.5,742.2c0-1.8,1.1-2.2,2.7-2.2c1.6,0,2.7,0.4,2.7,2.2c0,1.7-1.1,2.2-2.7,2.2C551.4,744.4,550.5,743.9,550.5,742.2z
		 M551.3,748.2h3.5v24.3h-3.5V748.2z"/>
	<path d="M563.4,748.2h1.7l1.1,4.4c1-2.6,3.5-4.7,9.5-4.7c8.3,0,9.9,4.6,9.9,11.7v13H582v-13.3c0-5.2-1-8.4-7.3-8.4s-7.7,3-7.7,8.4
		v13.3h-3.5v-24.3L563.4,748.2L563.4,748.2z"/>
	<path d="M592.6,760.2c0-6.3,2.4-12.3,12.2-12.3c8.5,0,11.1,5.4,11.1,12.2c0,0.6,0,1.1,0,1.8h-19.3c0.2,4.9,2.4,8.2,8.4,8.2
		c5.1,0,6.9-2.6,7.4-4.4h3.8c-0.4,3-3.2,7.2-11,7.2C594.8,772.9,592.6,766.8,592.6,760.2z M612,759c0-4.6-2.1-8.3-7.7-8.3
		c-6.2,0-7.9,3.9-8.2,8.3H612z"/>
	<path d="M621.9,764.1h3.5c0,3.3,2.3,5.7,8,5.7c5.2,0,6.9-1.9,6.9-3.9c0.2-6.3-17.9-2.6-18-11.2c-0.1-4.1,2.9-7.1,10.3-7.1
		c7.7,0,10.5,4,10.5,8.3h-3.3c0-2.8-1.9-5.5-7.3-5.5c-5.1,0-6.8,1.7-6.7,4c0.1,5.6,17.9,2.3,17.9,11.2c0,3.5-2.9,6.9-10.5,6.9
		C625.3,772.9,621.9,769.2,621.9,764.1z"/>
	<path d="M650,764.1h3.5c0,3.3,2.3,5.7,8,5.7c5.2,0,6.9-1.9,6.9-3.9c0.2-6.3-17.9-2.6-18-11.2c-0.1-4.1,2.9-7.1,10.3-7.1
		c7.7,0,10.5,4,10.5,8.3H668c0-2.8-1.9-5.5-7.3-5.5c-5.1,0-6.8,1.7-6.7,4c0.1,5.6,17.9,2.3,17.9,11.2c0,3.5-2.9,6.9-10.5,6.9
		C653.5,772.9,650,769.2,650,764.1z"/>
	<path d="M678.2,760.2c0-6.3,2.4-12.3,12.2-12.3c8.5,0,11.1,5.4,11.1,12.2c0,0.6,0,1.1,0,1.8h-19.3c0.2,4.9,2.4,8.2,8.4,8.2
		c5.1,0,6.9-2.6,7.4-4.4h3.8c-0.4,3-3.2,7.2-11,7.2C680.4,772.9,678.2,766.8,678.2,760.2z M697.7,759c0-4.6-2.1-8.3-7.7-8.3
		c-6.2,0-7.9,3.9-8.2,8.3H697.7z"/>
	<path d="M707.6,764.1h3.5c0,3.3,2.3,5.7,8,5.7c5.2,0,6.9-1.9,6.9-3.9c0.2-6.3-17.9-2.6-18-11.2c-0.1-4.1,2.9-7.1,10.3-7.1
		c7.7,0,10.5,4,10.5,8.3h-3.3c0-2.8-1.9-5.5-7.3-5.5c-5.1,0-6.8,1.7-6.7,4c0.1,5.6,17.9,2.3,17.9,11.2c0,3.5-2.9,6.9-10.5,6.9
		C711.1,772.9,707.6,769.2,707.6,764.1z"/>
</g>
<path class="st1" d="M399.1,432.9C399,433,399,433,399.1,432.9c-0.2,0.1-0.2,0.2-0.3,0.2c0,0,0-0.1-0.1-0.1c0.1,0,0.1,0,0.2-0.1
	C399,432.9,399,432.9,399.1,432.9z"/>
<path class="st1" d="M399.3,432.8v1.1c-0.3-0.3-0.3-0.5-0.5-0.8c0,0-0.1-0.1-0.1-0.1c0,0,0,0,0,0c0.1,0,0.1,0,0.2-0.1
	c0.1,0,0.1,0,0.2,0C399.2,432.9,399.3,432.9,399.3,432.8z"/>
<path class="st1" d="M399.1,432.9C399,433,399,433,399.1,432.9c-0.2,0.1-0.2,0.2-0.3,0.2c0,0,0-0.1-0.1-0.1c0.1,0,0.1,0,0.2-0.1
	C399,432.9,399,432.9,399.1,432.9z"/>
<path class="st1" d="M658.8,371.4c-9,20-21.6,40.6-36.5,61.1c-3.7,5.1-7.6,10.2-11.6,15.2c-17.1,21.5-36.7,42.5-57.3,61.8h0.3
	c-0.4,0.4-0.8,0.8-1.2,1.1c-20.9,19.5-42.4,37-63.7,51.7c-9.4-16.8-19.7-33.2-30.6-49.1c0,0,0,0,0-0.1c0,0,0,0-0.1,0
	c-0.5-0.8-1.1-1.6-1.7-2.5c-0.3-0.4-0.5-0.8-0.8-1.1h-0.4c-16.2-23.7-33.7-46.6-50.2-68.1c0,0,0,0,0.1-0.1c-1.3-1.6-2.5-3.2-3.8-4.8
	c-0.7-0.9-1.3-1.8-2-2.6v-1.1l-0.1,0.1c0,0-0.1,0-0.1,0.1c0,0,0,0,0,0c0,0-0.1,0-0.2,0c-0.1,0.1-0.1,0.1-0.2,0.1
	c-1.2-1.6-2.5-3.3-3.7-4.9c-1.3-1.7-2.5-3.4-3.8-5c-1.2-1.6-2.4-3.2-3.6-4.8c-4.9-6.5-9.6-12.9-14.2-19.2c-1.1-1.6-2.2-3.1-3.3-4.6
	c-1.7-2.3-3.3-4.7-4.9-7c-1-1.5-2-3-3-4.4c-1.1-1.6-2.1-3.1-3.1-4.7c-1-1.5-1.9-3-2.9-4.4c-1.4-2.2-2.8-4.4-4.2-6.6
	c-0.9-1.5-1.8-2.9-2.6-4.3c-0.2-0.3-0.3-0.5-0.5-0.8c-0.7-1.2-1.4-2.3-2-3.5c-2.4-4.2-4.6-8.3-6.6-12.4c-2-4.1-3.8-8.1-5.3-12
	c-11.9-30.1-10.1-56.2,15.9-77.7c31.7-26.4,70.9-24.9,102.4,4.5c4.3,4,8.4,8.4,12.4,13.4c0.2,0.5,0.4,0.9,0.6,1.3
	c-0.2-0.5-0.4-0.9-0.5-1.4c2.5,3.2,5,6.7,7.3,10.4c10.8,16.6,20,37.5,26.5,62.8c1.9,7.4,3.6,15.2,5,23.3c0,0,0,0,0,0
	c0.7,4.3,1.4,8.6,2,13.1c0-4.6,0.3-9.7,0.8-15c0,0,0-0.1,0-0.2c0.6-6.7,1.7-13.9,3.1-21.3c4.4-22.3,12.5-46.8,24.3-67.2
	c3.2-5.6,6.8-10.9,10.6-15.8l3.7-4.2l0.3-0.4l0.6-0.7c1-1.1,2-2.2,3.1-3.3c19.8-20.2,46.3-28.6,79.3-11
	c10.1,5.4,18.2,11.7,24.4,18.9c5.3,6.1,9.3,12.8,12,20c0.2,0.5,0.4,1,0.5,1.5c0.4,1.1,0.8,2.2,1.1,3.4c0.2,0.7,0.4,1.4,0.6,2.1
	c0.4,1.4,0.7,2.8,1,4.3C676.8,317.6,671.2,343.8,658.8,371.4z"/>
<path class="st1" d="M458.2,513.1C458.2,513.2,458.1,513.2,458.2,513.1c-0.1,0.1-0.1,0-0.2,0c-0.5-0.8-1.1-1.6-1.7-2.5
	c-0.3-0.4-0.5-0.8-0.8-1.1h0.1c0.3,0.4,0.6,0.8,0.8,1.1C457,511.5,457.5,512.3,458.2,513.1C458.1,513.1,458.2,513.1,458.2,513.1z"/>
<g>
	<path class="st2" d="M-249,410.8c-9,20-21.6,40.6-36.5,61.1c-19.6,26.8-43.5,53.1-68.9,77h0.3c-21.3,19.9-43.2,37.8-64.9,52.8
		c-9.4-16.8-19.7-33.2-30.6-49.1c0,0,0-0.1-0.1-0.1c-0.8-1.2-1.6-2.4-2.5-3.6h-0.3c-16.2-23.7-33.7-46.6-50.2-68.1
		c-2-2.5-3.9-5-5.8-7.5v-1.1l0,0c-0.1,0-0.2,0.1-0.3,0.2c-0.1,0-0.1,0.1-0.2,0.1c-20.2-26.8-38.9-51.6-51.9-74.4l0,0
		c-4.7-8.4-8.8-16.5-11.9-24.4c-11.9-30.1-10.1-56.2,15.9-77.7c36-30,81.6-24,114.8,17.9c0.2,0.5,0.4,0.9,0.6,1.3
		c-0.2-0.5-0.4-0.9-0.5-1.4c17.3,22.3,31.5,54.3,38.9,96.5c0.7,4.3,1.4,8.6,2,13.1c0-4.6,0.3-9.7,0.8-15
		c3.1-32.6,15.7-75.9,38.1-104.4l3.7-4.2l0.3-0.4l0.6-0.7c20.1-22.6,47.6-32.8,82.4-14.3c10.1,5.4,18.2,11.7,24.4,18.9
		C-227.2,330.4-230.2,369.1-249,410.8z"/>
	<path class="st2" d="M-508.5,472.2v1.1c-0.3-0.3-0.3-0.6-0.6-0.9c0.1,0,0.1,0,0.2-0.1C-508.6,472.4-508.5,472.3-508.5,472.2
		L-508.5,472.2z"/>
	<g class="st3">
		<path class="st4" d="M-449.5,552.4c-0.1,0-0.1,0.1-0.1,0.1c-0.8-1.2-1.6-2.4-2.5-3.6h-0.3c-16.2-23.7-33.7-46.6-50.2-68.1
			c-2-2.5-3.9-5-5.8-7.5v-1.1l0,0c-0.1,0-0.2,0.1-0.3,0.2c-0.1,0-0.1,0.1-0.2,0.1c-20.2-26.8-38.9-51.6-51.9-74.4l0,0
			c-4.7-8.4-8.8-16.5-11.9-24.4c7.3-4.6,15.5-6.8,23.6-6.8c14,0,27.8,6.6,36.5,18.9l48.1,68.1l25.7,36.4
			C-424.6,510.3-429.4,538.1-449.5,552.4z"/>
		<path class="st4" d="M-249,410.8l-200.4,141.6c-0.1,0.1-0.2,0.1-0.3,0.2c0,0,0-0.1-0.1-0.1c-0.8-1.2-1.6-2.4-2.5-3.6h-0.3
			c-16.2-23.7-33.7-46.6-50.2-68.1c0.6-0.5,1.1-0.9,1.7-1.3l36.4-25.7l61.4-43.4l2.8-2L-257,307c2-1.4,4-2.6,6.2-3.6
			C-227.2,330.4-230.2,369.1-249,410.8z"/>
	</g>
	<g class="st3">
		<g>
			<path class="st5" d="M-231,298.7v2.9c13.6,0,26.3,6.6,34.1,17.6c5,7.1,7.7,15.4,7.7,24c0,13.6-6.6,26.3-17.7,34.1l-244,172.5
				c-7.1,5-15.4,7.6-24,7.6c-0.9,0-1.8,0-2.8-0.1c-1.6-0.1-3.2-0.3-4.6-0.5l-0.3-0.1c-0.7-0.1-1.4-0.3-2.1-0.5
				c-10-2.3-18.7-8.2-24.6-16.5l-73.8-104.4c-6.4-9.1-8.9-20.2-7-31.2s7.9-20.6,17-27c7.1-5,15.4-7.7,24.1-7.7
				c13.6,0,26.3,6.6,34.1,17.6l48.1,68.1l1.7,2.4l2.4-1.7L-255,309c7.1-5,15.4-7.6,24-7.6V298.7 M-231,298.7
				c-8.9,0-17.9,2.7-25.7,8.2l-207.8,146.9l-48.1-68.1c-8.7-12.3-22.5-18.9-36.5-18.9c-8.9,0-17.9,2.7-25.8,8.2
				c-20.1,14.2-24.9,42.1-10.7,62.2l73.9,104.5c6.6,9.3,16,15.3,26.3,17.7c0.9,0.2,1.7,0.4,2.6,0.6c1.6,0.3,3.3,0.5,5,0.6
				c1,0.1,1.9,0.1,2.9,0.1c8.9,0,17.9-2.7,25.7-8.2l244-172.5c12.3-8.7,18.9-22.5,18.9-36.5c0-8.9-2.7-17.9-8.2-25.7
				C-203.2,305.3-217,298.7-231,298.7L-231,298.7z"/>
		</g>
	</g>
</g>
<g>
	<path d="M78.1,126.5c1.8,0,3.7,0.1,5.5,0c1.6-0.1,2,0.6,2.1,2c0.1,1.4,0.4,2.8,0.9,4c1.2,3.6,4.3,5.1,7.7,5.6
		c4.3,0.6,8.6,0.7,12.9-0.5c4.9-1.3,6-4.8,5.1-9.1c-0.4-2.3-2.2-3.6-4.3-4.2c-3.2-0.9-6.5-1.6-9.8-2.1c-5.8-1-11.6-1.6-17-3.9
		c-5.1-2.2-8.5-6-9.3-11.6c-0.9-5.8-0.4-11.3,3.7-16.1c2.7-3.3,6.4-5.1,10.4-6.1c9.7-2.3,19.2-2.5,28.7,0.7
		c7.1,2.3,10.5,7.7,11.4,15c0.5,4.2,0.4,4.2-3.8,4.2c-3.1,0-6.1,0-9.2,0c-0.9,0-1.5-0.1-1.5-1.2c-0.4-6-3.9-8.5-8.9-9.1
		c-4-0.5-8.1-0.5-12,1c-3.2,1.3-4.5,3.6-4.4,7.2c0.1,2.6,1.7,4.5,4.8,5.3c4.3,1,8.8,1.5,13.1,2.5c4.4,1,8.8,1.8,13,3.3
		c6.1,2.1,9.6,6.6,10.1,13.2c0.4,4.5,0,9.1-2.5,13c-2.7,4.3-6.7,6.9-11.5,8.3c-7.1,2.1-14.3,2.2-21.6,1.3c-3.9-0.5-7.7-1.3-11.3-3.3
		c-6.3-3.4-8.9-8.9-9.4-15.8c-0.2-3.8-0.1-3.8,3.6-3.8C75.7,126.5,76.9,126.5,78.1,126.5z"/>
	<path d="M251.7,98.4v6.3c0,0.5,0.5,0.6,0.9,0.2c1-1.2,2-2.3,2.9-3.3c4.9-4.5,10.8-5.6,17-4.4c8.7,1.7,13.9,7.2,15.6,15.9
		c1.3,6.9,1.5,13.6-0.1,20.3c-1.7,7.5-5.6,13.2-13.5,15.3c-8.5,2.2-16.5,0.4-21.8-7.4l0,0c-0.2-0.4-0.9-0.1-0.9,0.2v24.4
		c0,0.2-0.2,0.5-0.5,0.5h-12.9c-0.2,0-0.5-0.2-0.5-0.5c0-0.5,0-0.9,0-1.2c0-21.9,0-43.8,0-65.7c0-1,0.1-1.3,1.3-1.3
		c3.9,0.1,7.8,0,12,0C251.6,97.9,251.7,98.1,251.7,98.4z M274.9,126.7c0.2-2,0.4-4,0.1-6c-0.1-1.3-0.2-2.6-0.5-3.8
		c-0.7-5.3-3.4-8.3-8.7-9.1c-6-1-11.4,1.2-13.1,7.7c-1.2,4.8-1.2,9.6-0.2,14.2c0.5,2.3,1.5,4.5,3.4,6.3c2.9,2.6,6.4,2.6,9.9,2.3
		c4.3-0.4,7-2.8,8.1-6.9C274.4,130.1,274.6,128.3,274.9,126.7z"/>
	<path d="M227,126.4c-0.7,0-1.2,0-1.8,0c-10.8,0-21.7,0-32.5,0c-1.8,0-2,0.1-1.6,2c0.2,1.2,0.5,2.5,0.9,3.7c1,3.4,3.2,5.6,6.6,6.5
		c4,1,8.2,1.1,12.1-0.7c1.8-0.9,2.9-2.3,3.3-4.4c0.1-1.1,0.6-1.3,1.7-1.3c3.4,0.1,6.9,0,10.2,0c0.4,0,0.7,0.1,1.1,0.1
		c-0.4,6.6-3.6,12.6-10.4,15.2c-3.1,1.2-6.4,2-9.7,2.2c-4.9,0.5-9.9,0.2-14.7-1.5c-7.1-2.5-11.6-7.4-13.5-14.5
		c-2.1-7.6-2-15.3,0.6-22.8c2.8-8,8.8-12.1,16.9-13.5c5.5-1,10.9-0.9,16.4,0.6c7.7,2.2,12.1,7.4,14,15
		C227.5,117.4,227.6,121.7,227,126.4z M214.3,117.8c0.5-3.8-1.6-9.2-6.1-10.2c-2.1-0.5-4.3-0.7-6.5-0.7c-6.4,0.1-10.4,4.4-10.5,10.9
		C198.8,117.8,206.5,117.8,214.3,117.8z"/>
	<path d="M353.6,136.6c5.3,0,10.3,0,15.4,0c0,4,0,8,0,12c-0.4,0-0.7,0.1-1.1,0.1c-14.5,0-28.9,0-43.4,0c-1.3,0-1.8-0.2-1.8-1.7
		c0.1-2.9,0.1-5.8,0-8.7c0-1.3,0.5-1.7,1.7-1.7c4.5,0.1,9.1,0,13.5,0c0.5,0,1.1,0,1.7,0c0-13,0-25.9,0-39c-0.6,0.1-1.1,0.2-1.6,0.4
		c-4.2,1.3-8.3,2.8-12.5,4.2c-2,0.6-2.1,0.6-2.1-1.3c0-3.1,0-6.3,0-9.3c0-1,0.2-1.5,1.3-1.8c5.1-1.7,10.3-3.4,15.6-5.1
		c0.6-0.1,1.2-0.2,1.7-0.2c3.4,0,6.9,0,10.2,0c0.5,0,0.9,0.1,1.5,0.1C353.6,101.9,353.6,119.1,353.6,136.6z"/>
	<path d="M172.3,148.6c-0.7,0-1.2,0-1.7,0c-5.5,0-10.9,0-16.4,0c-6.4,0-10.8-4.4-10.8-10.9c0-8.9,0-17.9,0-26.8
		c0-1.3-0.4-1.7-1.7-1.7c-2.9,0.1-5.9,0-8.8,0c-1.2,0-1.6-0.4-1.6-1.6c0.1-2.7,0.1-5.4,0-8.1c0-1.2,0.2-1.7,1.6-1.6
		c3.2,0.1,6.4,0,9.6,0c1.2,0,1.8-0.4,2-1.6c0.5-3.6,1.1-7,1.6-10.5c0.1-1,0.6-1.3,1.6-1.3c2.7,0,5.4,0,8.1,0c1.1,0,1.5,0.4,1.5,1.5
		c0,3.4,0,6.9,0,10.4c0,1.2,0.5,1.6,1.6,1.6c3.9,0,7.8,0,11.8,0c0.5,0,1,0,1.6,0c0,3.6,0,7-0.1,10.4c0,0.2-0.9,0.7-1.5,0.7
		c-3.9,0.1-8,0.1-11.9,0c-1.3,0-1.7,0.4-1.7,1.7c0,7.7,0,15.6,0,23.3c0,2.8,0.5,3.3,3.3,3.3c3.4,0,6.9,0,10.2,0
		c1.1,0,1.5,0.4,1.5,1.5C172.3,142.1,172.3,145.1,172.3,148.6z"/>
	<path d="M395,148.6c-4.8,0-9.4,0-14.1,0c0-4.7,0-9.3,0-14.1c0.2,0,0.5-0.1,0.9-0.1c4,0,8.1,0,12.1,0c0.6,0,1.2,0,1.2,0.9
		C395,139.6,395,143.9,395,148.6z"/>
</g>
<path class="st6" d="M465.8,274.4c2.5,3.2,5,6.7,7.3,10.4c-0.9,1.1-1.7,2.3-2.5,3.6c-4.7,7.6-5.9,35.5-6.1,56.3h0
	c-0.8-0.1-1.6-0.1-2.4-0.2c-0.7-0.1-1.3-0.1-2-0.2c-3.5-0.4-6.9-0.8-10.2-1.3c-1.1-0.2-2.2-0.3-3.3-0.5c-2.2-0.3-4.3-0.7-6.3-1.1
	c-2.1-0.4-4.1-0.8-6.1-1.2h0c0-16.3,0-35.1,0.3-38.5c1.2-14.6,8.1-29.3,18.7-40.5C457.6,265,461.7,269.5,465.8,274.4
	c0.1,0.6,0.3,1,0.5,1.4C466.1,275.3,465.9,274.9,465.8,274.4z"/>
<path class="st6" d="M577.4,340.2L577.4,340.2c-1.2,0.3-2.4,0.5-3.6,0.8c-1.2,0.2-2.3,0.5-3.5,0.7c-4.6,0.9-9.1,1.6-13.5,2.2
	c-3.3,0.4-6.5,0.8-9.6,1.1c-0.1-21.7-1.2-48.8-6.3-56.9c-1.8-2.8-3.8-5.4-6-7.6c3.2-5.6,6.8-10.9,10.6-15.8l3.7-4.2l0.3-0.4l0.6-0.7
	c1-1.1,2-2.2,3.1-3.3c13.8,11.7,23.1,28.4,24.3,46.6C577.8,306.3,577.6,324.2,577.4,340.2z"/>
<path class="st7" d="M464.6,344.6v0.9c11.2,1.2,23,1.8,35.1,2c1.9,7.4,3.6,15.2,5,23.3c0,0,0,0,0,0c0.7,4.3,1.4,8.6,2,13.1
	c0-4.6,0.3-9.7,0.8-15c0,0,0-0.1,0-0.2c0.6-6.7,1.7-13.9,3.1-21.3c12.7-0.1,25-0.8,36.6-2v-0.6c0.6-0.1,1.2-0.1,1.8-0.2
	c0.6,0,1.1-0.1,1.7-0.2c0,0,0.1,0,0.1,0c0,0,0.1,0,0.1,0c0.1,0,0.1,0,0.2,0c0.8-0.1,1.6-0.2,2.5-0.3c1.1-0.1,2.2-0.3,3.2-0.4
	c1.1-0.1,2.2-0.3,3.3-0.5c1.1-0.2,2.2-0.3,3.3-0.5c1.1-0.2,2.2-0.4,3.4-0.6s2.3-0.4,3.4-0.6c1.2-0.2,2.3-0.5,3.5-0.7
	c1.2-0.3,2.4-0.5,3.6-0.8c0,0.2,0,0.5,0,0.7c5.8-1.2,10.8-2.4,15.9-4c1.3-0.4,2.6-0.6,3.9-0.6c2.9,0,5.7,0.9,8,2.5
	c3.4,2.4,5.5,6.3,5.5,10.4v98.3c-17.1,21.5-36.7,42.5-57.3,61.8h0.3c-0.4,0.4-0.8,0.8-1.2,1.1h-96.2c-0.3-0.4-0.5-0.8-0.8-1.1h-0.3
	c-16.2-23.7-33.7-46.6-50.2-68.1c0,0,0,0,0.1-0.1c-1.3-1.6-2.5-3.2-3.8-4.8v-87.2c0-4.1,2-8,5.5-10.4c2.3-1.7,5.1-2.5,8-2.5
	c1.3,0,2.6,0.2,3.9,0.6c4.9,1.4,10.1,2.7,15.7,3.9V340"/>
<path class="st8" d="M464.6,344.6c0.3-20.8,1.4-48.6,6.1-56.3c7.6-12.3,20.1-19.6,34.2-19.9c0.5,0,1,0,1.5,0
	c14.4,0.1,27,7.3,34.6,19.5c5.1,8.2,6.2,35.2,6.3,56.9c8.3-0.8,17.2-2,26.5-3.9c1.2-0.3,2.4-0.5,3.6-0.8c0.2-16,0.4-33.9,0.1-37.6
	c-2.1-32.7-30.3-60.5-64.2-63.2c-2.1-0.2-4.3-0.3-6.3-0.3c-18.5-0.2-34.8,5.6-48.5,17.2c-13.6,11.5-22.5,28.4-23.9,45.3
	c-0.3,3.4-0.3,22.2-0.3,38.5c8,1.7,16.6,3.2,25.9,4.2C461.7,344.4,463.1,344.5,464.6,344.6z"/>
<path class="st8" d="M610.7,349.3v148.3c0,7.2-6,13-13.5,13H414.8c-7.4,0-13.5-5.8-13.5-13V349.3c0-4.1,2-8,5.5-10.4
	c2.3-1.7,5.1-2.5,8-2.5c1.3,0,2.6,0.2,3.9,0.6c5.2,1.5,10.2,2.8,15.6,3.9l0,0c8,1.7,16.6,3.3,25.9,4.2c1.5,0.2,2.9,0.3,4.3,0.4l0,0
	c13.1,1.4,27.1,2.1,41.4,2.1c14.3,0,28.2-0.7,41.3-2.1l0,0c8.3-0.8,17.2-1.9,26.5-3.8c1.2-0.3,2.4-0.5,3.6-0.8c0,0.2,0-0.2,0,0
	c5.8-1.2,10.8-2.4,15.9-4c1.3-0.4,2.6-0.6,3.9-0.6c2.8,0,5.7,0.9,8,2.5C608.7,341.4,610.7,345.2,610.7,349.3z"/>
</svg>
