<svg width="270" height="270" viewBox="0 0 270 270" fill="none" xmlns="http://www.w3.org/2000/svg">
<ellipse cx="119.996" cy="122.124" rx="106.996" ry="107.124" fill="#08F6FF"/>
<ellipse cx="150.004" cy="147.875" rx="106.996" ry="107.124" fill="#FF4B00"/>
<ellipse cx="135.257" cy="133.026" rx="100.738" ry="100.858" fill="black"/>
<path d="M157.948 83.6696V82.0696H156.348H138.587H136.987V83.6696V150.908C136.987 157.968 130.942 163.901 123.255 163.901C115.567 163.901 109.522 157.968 109.522 150.908C109.522 143.989 115.429 138.174 122.855 137.915L124.399 137.861V136.316V119.435V117.809L122.774 117.835C103.92 118.134 88.5609 132.642 88.5609 150.908C88.5609 169.329 104.24 183.982 123.407 183.982C142.578 183.982 158.252 169.182 158.252 150.908V119.343C164.685 123.129 172.239 125.339 180.156 125.47L181.782 125.497V123.87V106.989V105.439L180.233 105.389C167.659 104.985 157.948 95.3186 157.948 83.6696Z" stroke="white" stroke-width="3.2"/>
</svg>
