<?xml version="1.0" encoding="utf-8"?>
<!-- Generator: Adobe Illustrator 27.0.0, SVG Export Plug-In . SVG Version: 6.00 Build 0)  -->
<svg version="1.1" id="Layer_1" xmlns="http://www.w3.org/2000/svg" xmlns:xlink="http://www.w3.org/1999/xlink" x="0px" y="0px"
	 viewBox="0 0 750 802" style="enable-background:new 0 0 750 802;" xml:space="preserve">
<style type="text/css">
	.st0{fill:#00F613;}
</style>
<g>
	<path class="st0" d="M343.4,26.5c0,0,59.6,7.7,189.3,31.6c122.6,22.6,165.7,32.1,165.7,32.1s28.4,120.2-10.5,348.7
		C656.4,623.4,519.9,750.1,397.6,802c-128.4-34.4-281.2-140.9-338-319.1C-10.7,262.1,0.7,139.1,0.7,139.1S42,123.7,160.3,84.2
		C285.4,42.4,343.4,26.5,343.4,26.5z"/>
	<path d="M580.6,274.3L359.7,495.1c-7.6,7.6-20.1,7.6-27.7,0l-3.9-3.9c-0.1-0.1-0.2-0.2-0.3-0.4c0,0-0.1,0-0.1-0.1L245.8,409
		c-8.7-8.7-8.7-22.9,0-31.6c4.4-4.4,10.1-6.5,15.8-6.5c5.8,0,11.5,2.2,15.8,6.5l68.4,68.4l203.1-203.1c7.6-7.6,20.1-7.6,27.7,0
		l3.9,3.9C588.2,254.2,588.2,266.7,580.6,274.3z"/>
	<g>
		<path d="M396.7,9.3c10.8,2.3,70.5,15,184.4,44.3c95.1,24.5,141.9,37.5,157,41.8c1.3,11.3,3.7,39.3,2.3,82.5
			c-1.7,52.9-9.7,140.2-37.7,255.3c-10.4,42.6-26.9,83.6-49.2,121.6c-20.5,35-45.8,67.6-75.3,97c-51.8,51.7-116.2,92.7-181.6,115.8
			c-65.4-23.1-129.7-64.1-181.5-115.8c-29.5-29.4-54.8-62-75.3-97c-22.3-38-38.8-79-49.2-121.6c-28-115.1-35.9-202.4-37.7-255.3
			c-1.4-43.2,1-71.2,2.3-82.5c15.2-4.3,61.9-17.3,157-41.8C326.2,24.3,385.9,11.6,396.7,9.3 M396.7,0c0,0-58.9,11.9-186.6,44.8
			C89.4,75.9,47,88.3,47,88.3S27.1,210.2,81.8,435.4C126.1,617.3,271,734,396.7,777.3C522.5,734,667.4,617.3,711.6,435.4
			c54.8-225.2,34.8-347.1,34.8-347.1s-42.3-12.4-163-43.5C455.5,11.9,396.7,0,396.7,0L396.7,0z"/>
	</g>
</g>
</svg>
