<?xml version="1.0" encoding="utf-8"?>
<!-- Generator: Adobe Illustrator 27.0.0, SVG Export Plug-In . SVG Version: 6.00 Build 0)  -->
<svg version="1.1" id="Layer_1" xmlns="http://www.w3.org/2000/svg" xmlns:xlink="http://www.w3.org/1999/xlink" x="0px" y="0px"
	 viewBox="0 0 2048 2122" style="enable-background:new 0 0 2048 2122;" xml:space="preserve">
<style type="text/css">
	.st0{fill:#00F613;}
	.st1{fill:#98E891;}
	.st2{fill:none;stroke:#000000;stroke-width:21.8894;stroke-miterlimit:10;}
</style>
<g>
	<g>
		<path class="st0" d="M1069.5,4.1C505.1-46.6,52.7,376.3,2.6,987.9c-11.4,157.7,14.8,315.7,76.3,461.3s156.3,274.9,277.1,377
			c0.5,105.1-30.1,208-87.9,295.7c122.2-9,238.4-56.7,331.6-136.4c114.1,54.4,236.8,88.2,362.7,99.4
			c564.7,50.7,1021-426.1,1079.9-977.3C2105.4,513.2,1634.2,54.6,1069.5,4.1z"/>
		<path class="st1" d="M1088.1,160.9c0,0,141,28.5,447.3,107.2c289.2,74.3,380.2,109.3,380.2,109.3s58,286.7-73.2,825.6
			c-106,435.2-453.1,714.7-754.3,818.2c-301.2-103.5-648.4-383.3-754.3-818.2c-131.3-538.9-83.5-830.7-83.5-830.7
			s101.3-29.9,390.5-104.2C947.1,189.4,1088.1,160.9,1088.1,160.9z"/>
	</g>
	<path d="M1510.8,828.6l-529.3,528.6c-18.3,18.3-48.2,18.3-66.6,0l-9.3-9.3c-0.2-0.2-0.5-0.5-0.7-0.9c0,0-0.2,0-0.2-0.2
		l-196.2-195.8c-20.9-20.8-20.9-54.9,0-75.8c10.4-10.4,24.1-15.5,37.8-15.5s27.6,5.1,37.8,15.5l163.7,163.8l486.8-486
		c18.3-18.3,48.2-18.3,66.6,0l9.3,9.3C1529.2,780.5,1529.2,810.3,1510.8,828.6z"/>
	<path class="st2" d="M1070.2,171.9c0,0,141,28.5,447.4,107.3c289.2,74.4,390.6,104.2,390.6,104.2s47.8,291.9-83.5,831
		c-106,435.3-453.2,714.9-754.5,818.5c-301.3-103.6-648.5-383.4-754.5-818.5c-131.3-539.1-83.5-831-83.5-831s101.4-29.9,390.6-104.2
		C929.1,200.4,1070.2,171.9,1070.2,171.9z"/>
</g>
</svg>
