<?xml version="1.0" encoding="utf-8"?>
<!-- Generator: Adobe Illustrator 27.0.0, SVG Export Plug-In . SVG Version: 6.00 Build 0)  -->
<svg version="1.1" id="Layer_1" xmlns="http://www.w3.org/2000/svg" xmlns:xlink="http://www.w3.org/1999/xlink" x="0px" y="0px"
	 viewBox="0 0 828 859" style="enable-background:new 0 0 828 859;" xml:space="preserve">
<style type="text/css">
	.st0{fill:#00F613;}
	.st1{fill:#98E891;}
	.st2{fill:none;stroke:#000000;stroke-width:8.8554;stroke-miterlimit:10;}
</style>
<g>
	<g>
		<path class="st0" d="M432.4,1.7C204.2-18.9,21.3,152.3,1,399.9c-4.6,63.8,6,127.8,30.8,186.7s63.2,111.3,112,152.6
			c0.2,42.6-12.2,84.2-35.5,119.7c49.4-3.7,96.4-23,134.1-55.2c46.1,22,95.7,35.7,146.6,40.2c228.3,20.5,412.8-172.5,436.6-395.6
			C851.2,207.7,660.7,22.1,432.4,1.7z"/>
		<path class="st1" d="M439.9,65.1c0,0,57,11.5,180.9,43.4c116.9,30.1,153.7,44.3,153.7,44.3S798,268.9,744.9,487
			c-42.8,176.2-183.2,289.3-305,331.2c-121.8-41.9-262.1-155.2-305-331.2c-53.1-218.2-33.8-336.3-33.8-336.3s41-12.1,157.9-42.2
			C382.9,76.7,439.9,65.1,439.9,65.1z"/>
	</g>
	<path d="M610.8,335.4l-214,214c-7.4,7.4-19.5,7.4-26.9,0l-3.8-3.8c-0.1-0.1-0.2-0.2-0.3-0.4c0,0-0.1,0-0.1-0.1L286.5,466
		c-8.4-8.4-8.4-22.2,0-30.7c4.2-4.2,9.8-6.3,15.3-6.3s11.2,2.1,15.3,6.3l66.2,66.3l196.8-196.7c7.4-7.4,19.5-7.4,26.9,0l3.8,3.8
		C618.2,315.9,618.2,328,610.8,335.4z"/>
	<path class="st2" d="M432.7,69.6c0,0,57,11.5,180.9,43.4c116.9,30.1,157.9,42.2,157.9,42.2s19.3,118.2-33.8,336.4
		c-42.9,176.2-183.2,289.4-305,331.3c-121.8-41.9-262.2-155.2-305-331.3C74.5,273.4,93.9,155.2,93.9,155.2s41-12.1,157.9-42.2
		C375.6,81.1,432.7,69.6,432.7,69.6z"/>
</g>
</svg>
