<svg width="270" height="270" viewBox="0 0 270 270" fill="none" xmlns="http://www.w3.org/2000/svg">
<g clip-path="url(#clip0_1709_17170)">
<path d="M225.34 74.9475C209.635 56.099 187.632 43.5804 163.405 39.7103C139.179 35.8402 114.371 40.8807 93.5755 53.8985C72.7803 66.9163 57.4073 87.0292 50.3037 110.512C43.2 133.995 44.8472 159.256 54.94 181.617L35.5996 232.539L90.44 223.593C104.465 233.119 120.654 238.978 137.527 240.633V240.633C157.495 242.535 177.578 238.474 195.238 228.963C212.897 219.451 227.34 204.918 236.739 187.198C246.138 169.479 250.072 149.37 248.043 129.414C246.014 109.459 238.113 90.5539 225.34 75.089V74.9475Z" fill="#00F613"/>
<path d="M185.694 157.253C182.854 155.862 169.279 149.16 166.751 148.222C164.223 147.285 162.349 146.831 160.503 149.614C158.657 152.397 153.346 158.645 151.727 160.491C150.108 162.337 148.49 162.565 145.706 161.173C137.539 157.956 129.987 153.354 123.384 147.569C117.322 141.957 112.126 135.478 107.963 128.342C106.344 125.502 107.792 124.082 109.184 122.662C110.576 121.242 112.024 119.425 113.331 117.806C114.491 116.405 115.447 114.846 116.171 113.177C116.535 112.41 116.702 111.564 116.657 110.717C116.612 109.869 116.357 109.045 115.915 108.32C115.233 106.929 109.695 93.2967 107.395 87.7303C105.094 82.1639 102.879 83.073 101.175 82.9878C99.4713 82.9026 97.7105 82.9878 95.8645 82.9878C94.4548 83.0274 93.0687 83.358 91.7931 83.9592C90.5174 84.5603 89.3799 85.4189 88.4521 86.4809C85.3144 89.4469 82.8299 93.0346 81.1575 97.0151C79.485 100.996 78.6616 105.281 78.7394 109.598C78.7394 123.23 88.6794 136.436 90.0994 138.282C91.5194 140.128 109.667 168.131 137.471 180.144C142.639 182.357 147.919 184.301 153.289 185.966C158.945 187.696 164.927 188.075 170.755 187.073C176.094 186.278 187.171 180.371 189.471 173.896C191.771 167.421 191.771 161.854 191.09 160.718C190.408 159.582 188.477 158.645 185.694 157.253ZM206.738 62.483C189.349 45.0847 166.229 34.5994 141.684 32.9799C117.139 31.3605 92.8415 38.7173 73.3171 53.6802C53.7928 68.643 40.3721 90.1923 35.5545 114.314C30.737 138.437 34.851 163.488 47.1302 184.802L32.7598 237.342L86.5209 223.142C101.387 231.235 118.045 235.472 134.971 235.467V235.467C155.028 235.472 174.636 229.53 191.315 218.392C207.995 207.254 220.997 191.42 228.679 172.892C236.36 154.365 238.376 133.976 234.47 114.303C230.565 94.6306 220.914 76.5576 206.738 62.3693V62.483Z" stroke="black" stroke-width="3" stroke-miterlimit="10"/>
</g>
<defs>
<clipPath id="clip0_1709_17170">
<rect width="270" height="270" fill="white"/>
</clipPath>
</defs>
</svg>
