<?xml version="1.0" encoding="utf-8"?>
<!-- Generator: Adobe Illustrator 27.0.0, SVG Export Plug-In . SVG Version: 6.00 Build 0)  -->
<svg version="1.1" id="Layer_1" xmlns="http://www.w3.org/2000/svg" xmlns:xlink="http://www.w3.org/1999/xlink" x="0px" y="0px"
	 viewBox="0 0 750 778" style="enable-background:new 0 0 750 778;" xml:space="preserve">
<style type="text/css">
	.st0{fill:#00F613;}
	.st1{fill:#98E891;}
	.st2{fill:none;stroke:#000000;stroke-width:8.0208;stroke-miterlimit:10;}
</style>
<g>
	<g>
		<path class="st0" d="M391.7,1.5C185-17.1,19.3,138,0.9,362.2C-3.2,420,6.4,477.9,28.9,531.3s57.2,100.8,101.5,138.2
			c0.2,38.5-11,76.2-32.2,108.4c44.8-3.3,87.3-20.8,121.4-50c41.8,20,86.7,32.4,132.8,36.4C559.2,783,726.4,608.2,747.9,406.1
			C771,188.1,598.5,20,391.7,1.5z"/>
		<path class="st1" d="M398.5,59c0,0,51.6,10.4,163.8,39.3c105.9,27.3,139.3,40.1,139.3,40.1s21.3,105.1-26.8,302.7
			c-38.8,159.5-165.9,262-276.3,300c-110.3-38-237.4-140.5-276.3-300C74.1,243.5,91.6,136.5,91.6,136.5s37.1-11,143-38.2
			C346.8,69.4,398.5,59,398.5,59z"/>
	</g>
	<path d="M553.3,303.8L359.5,497.6c-6.7,6.7-17.7,6.7-24.4,0l-3.4-3.4c-0.1-0.1-0.2-0.2-0.3-0.3c0,0-0.1,0-0.1-0.1L259.5,422
		c-7.6-7.6-7.6-20.1,0-27.8c3.8-3.8,8.8-5.7,13.8-5.7s10.1,1.9,13.8,5.7l60,60l178.3-178.2c6.7-6.7,17.7-6.7,24.4,0l3.4,3.4
		C560,286.1,560,297.1,553.3,303.8z"/>
	<path class="st2" d="M391.9,63c0,0,51.6,10.4,163.8,39.3c105.9,27.3,143,38.2,143,38.2s17.5,107-30.6,304.7
		c-38.8,159.6-166,262.1-276.3,300.1c-110.3-38-237.5-140.6-276.3-300.1C67.5,247.6,85,140.6,85,140.6s37.1-11,143-38.2
		C340.3,73.5,391.9,63,391.9,63z"/>
</g>
</svg>
