<?xml version="1.0" encoding="utf-8"?>
<!-- Generator: Adobe Illustrator 27.0.0, SVG Export Plug-In . SVG Version: 6.00 Build 0)  -->
<svg version="1.1" id="Layer_1" xmlns="http://www.w3.org/2000/svg" xmlns:xlink="http://www.w3.org/1999/xlink" x="0px" y="0px"
	 viewBox="0 0 1200 1282" style="enable-background:new 0 0 1200 1282;" xml:space="preserve">
<style type="text/css">
	.st0{fill:#00F613;}
</style>
<g>
	<path class="st0" d="M549.4,42.3c0,0,95.3,12.3,303,50.6c196.2,36.1,265.1,51.3,265.1,51.3s45.4,192.1-16.8,557.5
		C1050.3,996.5,831.9,1199,636.2,1282c-205.4-55.1-449.9-225.2-540.8-510.1C-17.2,418.9,1.1,222.3,1.1,222.3s66.2-24.5,255.4-87.7
		C456.7,67.8,549.4,42.3,549.4,42.3z"/>
	<path d="M929,438.5l-353.4,353c-12.2,12.2-32.2,12.2-44.4,0l-6.2-6.2c-0.1-0.1-0.3-0.3-0.4-0.6c0,0-0.1,0-0.1-0.1l-131-130.7
		c-13.9-13.9-13.9-36.7,0-50.6c7-7,16.1-10.4,25.2-10.4c9.3,0,18.4,3.5,25.2,10.4l109.4,109.3l325-324.6c12.2-12.2,32.2-12.2,44.4,0
		l6.2,6.2C941.1,406.3,941.1,426.3,929,438.5z"/>
	<g>
		<path d="M634.7,14.9c17.3,3.6,112.7,23.9,295.1,70.8c152.2,39.2,227,59.9,251.3,66.8c2.1,18,5.9,62.8,3.6,131.8
			c-1.8,53.8-6.8,111.7-15,172c-10.2,75.4-25.5,154.8-45.3,236.1c-16.6,68.2-43.1,133.6-78.7,194.4C1013,942.8,972.4,995,925.3,1042
			c-82.9,82.6-185.9,148.2-290.5,185.1c-104.6-36.9-207.5-102.5-290.4-185.1c-47.2-47-87.7-99.2-120.4-155.1
			c-35.6-60.8-62.1-126.2-78.7-194.4c-19.8-81.3-35-160.7-45.3-236.1c-8.2-60.3-13.2-118.2-15-172c-2.3-69.1,1.6-113.8,3.6-131.8
			c24.3-6.9,99-27.6,251.3-66.8C522,38.8,617.4,18.5,634.7,14.9 M634.7,0c0,0-94.2,19-298.6,71.6C143,121.3,75.2,141.1,75.2,141.1
			S43.3,336,131,696c70.8,290.7,302.7,477.3,503.8,546.6c201.2-69.3,433.1-255.9,503.9-546.6c87.6-360,55.7-554.9,55.7-554.9
			s-67.8-19.9-260.9-69.6C728.9,19,634.7,0,634.7,0L634.7,0z"/>
	</g>
</g>
</svg>
