<?xml version="1.0" encoding="utf-8"?>
<!-- Generator: Adobe Illustrator 27.0.0, SVG Export Plug-In . SVG Version: 6.00 Build 0)  -->
<svg version="1.1" id="Layer_1" xmlns="http://www.w3.org/2000/svg" xmlns:xlink="http://www.w3.org/1999/xlink" x="0px" y="0px"
	 viewBox="0 0 640 684" style="enable-background:new 0 0 640 684;" xml:space="preserve">
<style type="text/css">
	.st0{fill:#00F613;}
</style>
<g>
	<path class="st0" d="M293,22.6c0,0,50.8,6.6,161.6,27C559.2,68.8,596,76.9,596,76.9s24.2,102.5-9,297.4
		C560.1,531.7,443.7,639.7,339.3,684c-109.6-29.4-240-120.1-288.4-272.1C-9.2,223.5,0.6,118.6,0.6,118.6s35.3-13.1,136.2-46.8
		C243.6,36.2,293,22.6,293,22.6z"/>
	<path d="M495.4,234L306.9,422.3c-6.5,6.5-17.2,6.5-23.7,0l-3.3-3.3c-0.1-0.1-0.2-0.2-0.2-0.3c0,0-0.1,0-0.1-0.1l-69.9-69.7
		c-7.4-7.4-7.4-19.6,0-27c3.7-3.7,8.6-5.6,13.5-5.6c5,0,9.8,1.9,13.5,5.6l58.3,58.3L468.4,207c6.5-6.5,17.2-6.5,23.7,0l3.3,3.3
		C501.9,216.8,501.9,227.5,495.4,234z"/>
	<g>
		<path d="M338.5,8c9.2,1.9,60.1,12.8,157.4,37.8c81.2,20.9,121.1,32,134,35.6c1.1,9.6,3.1,33.5,1.9,70.3
			c-1.5,45.1-8.2,119.6-32.1,217.8c-8.9,36.4-23,71.3-42,103.7c-17.5,29.8-39.1,57.7-64.2,82.7c-44.2,44.1-99.2,79.1-155,98.8
			C282.7,635,227.8,600,183.6,555.9c-25.2-25.1-46.8-52.9-64.2-82.7c-19-32.4-33.1-67.3-42-103.7c-23.9-98.2-30.7-172.6-32.1-217.8
			c-1.2-36.9,0.8-60.7,1.9-70.3c12.9-3.7,52.8-14.7,134-35.6C278.4,20.7,329.3,9.9,338.5,8 M338.5,0c0,0-50.2,10.1-159.3,38.2
			C76.3,64.7,40.1,75.3,40.1,75.3s-17,104,29.7,296C107.6,526.4,231.3,626,338.5,663c107.3-37,231-136.5,268.7-291.6
			c46.7-192,29.7-296,29.7-296s-36.1-10.6-139.1-37.1C388.7,10.1,338.5,0,338.5,0L338.5,0z"/>
	</g>
</g>
</svg>
