<?xml version="1.0" encoding="utf-8"?>
<!-- Generator: Adobe Illustrator 27.0.0, SVG Export Plug-In . SVG Version: 6.00 Build 0)  -->
<svg version="1.1" id="Layer_1" xmlns="http://www.w3.org/2000/svg" xmlns:xlink="http://www.w3.org/1999/xlink" x="0px" y="0px"
	 viewBox="0 0 3840 4102" style="enable-background:new 0 0 3840 4102;" xml:space="preserve">
<style type="text/css">
	.st0{fill:#00F613;}
</style>
<g>
	<path class="st0" d="M1758.1,135.4c0,0,305,39.4,969.4,161.8c627.7,115.5,848.3,164.1,848.3,164.1s145.3,614.8-53.9,1783.7
		c-161.1,943.5-859.9,1591.3-1486.2,1857C1378.3,3925.8,596,3381.5,305.3,2469.9C-55,1340.4,3.5,711.3,3.5,711.3
		s211.7-78.4,817.2-280.5C1461.4,217,1758.1,135.4,1758.1,135.4z"/>
	<path d="M2972.7,1403l-1131,1129.5c-39,38.9-103.1,38.9-142.1,0l-20-19.9c-0.5-0.5-0.9-0.9-1.4-1.9c0,0-0.5,0-0.5-0.5L1258.5,2092
		c-44.6-44.5-44.6-117.3,0-161.8c22.3-22.3,51.5-33.4,80.8-33.4c29.7,0,59,11.1,80.8,33.4l350.1,349.6l1040-1038.6
		c39-38.9,103.1-38.9,142.1,0l20,19.9C3011.7,1300.1,3011.7,1364.1,2972.7,1403z"/>
	<g>
		<path d="M2031.1,47.8c55.4,11.5,360.8,76.6,944.3,226.6c487.2,125.4,726.5,191.8,804.1,213.8c2.2,19.1,5,47.7,7.5,85.2
			c4.6,69,9,183.4,4,336.7c-5.6,172.3-21.8,357.5-48,550.4c-32.8,241.3-81.5,495.5-144.9,755.5c-27.1,111.1-62.7,221-105.8,326.5
			c-41.3,101.1-90.5,200.5-146.1,295.4c-104.8,178.8-234.4,345.7-385.4,496.2c-139.3,138.8-294.9,262-462.7,366.2
			c-78.9,49-160.4,93.7-242.4,132.9c-74.5,35.6-150,66.9-224.7,93.3c-74.6-26.4-150.1-57.7-224.6-93.3
			c-81.9-39.2-163.4-83.9-242.2-132.9C1396.6,3596,1241,3472.7,1101.7,3334c-150.9-150.4-280.6-317.4-385.4-496.2
			c-55.6-95-104.8-194.4-146.1-295.4c-43.1-105.5-78.7-215.3-105.8-326.5c-63.3-260.1-112.1-514.3-144.9-755.5
			c-26.2-193-42.4-378.2-48-550.4c-5-153.2-0.6-267.7,4-336.7c2.5-37.5,5.3-66,7.5-85.2c77.6-22,316.9-88.4,804.1-213.8
			C1670.4,124.3,1975.6,59.3,2031.1,47.8 M2031.1,0c0,0-301.3,60.7-955.5,229c-618,159-834.8,222.6-834.8,222.6
			S138.6,1075.2,419.1,2227c226.6,930.1,968.5,1527.3,1612,1748.9c644-221.6,1385.9-818.8,1612.5-1748.9
			C3924,1075.2,3821.9,451.6,3821.9,451.6S3605,388.1,2987.1,229C2332.4,60.7,2031.1,0,2031.1,0L2031.1,0z"/>
	</g>
</g>
</svg>
