<?xml version="1.0" encoding="utf-8"?>
<!-- Generator: Adobe Illustrator 27.0.0, SVG Export Plug-In . SVG Version: 6.00 Build 0)  -->
<svg version="1.1" id="Layer_1" xmlns="http://www.w3.org/2000/svg" xmlns:xlink="http://www.w3.org/1999/xlink" x="0px" y="0px"
	 viewBox="0 0 1000 1000" style="enable-background:new 0 0 1000 1000;" xml:space="preserve">
<style type="text/css">
	.st0{fill:#00F613;}
	.st1{fill:none;stroke:#000000;stroke-width:10.08;stroke-miterlimit:10;}
</style>
<path class="st0" d="M462.7,88.5c0,0,65.7,8.5,208.8,34.9c135.2,24.9,182.7,35.4,182.7,35.4s31.3,132.6-11.6,384.7
	C807.9,747,657.4,886.7,522.5,944c-141.6-38-310.1-155.4-372.7-352c-77.6-243.6-65-379.3-65-379.3s45.6-16.9,176-60.5
	C398.8,106.1,462.7,88.5,462.7,88.5z"/>
<path d="M724.3,361.9L480.7,605.5c-8.4,8.4-22.2,8.4-30.6,0l-4.3-4.3c-0.1-0.1-0.2-0.2-0.3-0.4c0,0-0.1,0-0.1-0.1l-90.3-90.2
	c-9.6-9.6-9.6-25.3,0-34.9c4.8-4.8,11.1-7.2,17.4-7.2c6.4,0,12.7,2.4,17.4,7.2l75.4,75.4l224-224c8.4-8.4,22.2-8.4,30.6,0l4.3,4.3
	C732.7,339.7,732.7,353.5,724.3,361.9z"/>
<path class="st1" d="M521.5,59.3c0,0,64.9,13.1,205.9,49.4c133.1,34.3,179.8,48,179.8,48s22,134.5-38.4,382.9
	C820,740.2,660.2,869,521.5,916.8C382.9,869,223.1,740.2,174.3,539.6c-60.4-248.4-38.4-382.9-38.4-382.9s46.7-13.7,179.8-48
	C456.6,72.4,521.5,59.3,521.5,59.3z"/>
</svg>
