<?xml version="1.0" encoding="utf-8"?>
<!-- Generator: Adobe Illustrator 27.0.0, SVG Export Plug-In . SVG Version: 6.00 Build 0)  -->
<svg version="1.1" id="Layer_1" xmlns="http://www.w3.org/2000/svg" xmlns:xlink="http://www.w3.org/1999/xlink" x="0px" y="0px"
	 viewBox="0 0 1200 1244" style="enable-background:new 0 0 1200 1244;" xml:space="preserve">
<style type="text/css">
	.st0{fill:#00F613;}
	.st1{fill:#98E891;}
	.st2{fill:none;stroke:#000000;stroke-width:12.8291;stroke-miterlimit:10;}
</style>
<g>
	<g>
		<path class="st0" d="M626.7,2.4C296-27.3,30.9,220.6,1.5,579.2c-6.7,92.5,8.7,185,44.7,270.4s91.6,161.2,162.4,221
			c0.3,61.6-17.7,121.9-51.5,173.4c71.6-5.3,139.7-33.3,194.3-80c66.9,31.9,138.7,51.7,212.5,58.2
			c330.9,29.7,598.3-249.8,632.8-572.9C1233.6,300.8,957.5,32,626.7,2.4z"/>
		<path class="st1" d="M637.5,94.3c0,0,82.6,16.7,262.1,62.9c169.4,43.6,222.8,64.1,222.8,64.1s34,168.1-42.9,484
			c-62.1,255.1-265.5,419-442,479.7c-176.5-60.7-379.9-224.7-442-479.7c-76.9-315.9-48.9-487-48.9-487s59.4-17.5,228.8-61.1
			C554.9,111,637.5,94.3,637.5,94.3z"/>
	</g>
	<path d="M885.3,485.8L575.1,795.7c-10.7,10.7-28.3,10.7-39,0l-5.4-5.4c-0.1-0.1-0.3-0.3-0.4-0.5c0,0-0.1,0-0.1-0.1l-115-114.8
		c-12.2-12.2-12.2-32.2,0-44.4c6.1-6.1,14.1-9.1,22.2-9.1c8,0,16.2,3,22.2,9.1l95.9,96l285.3-284.9c10.7-10.7,28.3-10.7,39,0
		l5.4,5.4C896,457.5,896,475.1,885.3,485.8z"/>
	<path class="st2" d="M627,100.8c0,0,82.6,16.7,262.2,62.9c169.5,43.6,228.9,61.1,228.9,61.1s28,171.1-48.9,487.1
		C1007,967.1,803.6,1131,627,1191.7C450.5,1131,247.1,967,185,711.9C108,395.9,136,224.8,136,224.8s59.4-17.5,228.9-61.1
		C544.4,117.5,627,100.8,627,100.8z"/>
</g>
</svg>
