<?xml version="1.0" encoding="utf-8"?>
<!-- Generator: Adobe Illustrator 27.0.0, SVG Export Plug-In . SVG Version: 6.00 Build 0)  -->
<svg version="1.1" id="Layer_1" xmlns="http://www.w3.org/2000/svg" xmlns:xlink="http://www.w3.org/1999/xlink" x="0px" y="0px"
	 viewBox="0 0 640 664" style="enable-background:new 0 0 640 664;" xml:space="preserve">
<style type="text/css">
	.st0{fill:#00F613;}
	.st1{fill:#98E891;}
	.st2{fill:none;stroke:#000000;stroke-width:6.8449;stroke-miterlimit:10;}
</style>
<g>
	<g>
		<path class="st0" d="M334.2,1.3C157.8-14.6,16.5,117.7,0.8,309.1c-3.6,49.4,4.6,98.8,23.8,144.4s48.8,86,86.6,118
			c0.1,32.9-9.4,65.1-27.5,92.5c38.2-2.8,74.5-17.8,103.6-42.7c35.7,17,74,27.6,113.3,31.1c176.5,15.9,319.1-133.3,337.5-305.8
			C657.9,160.6,510.7,17.1,334.2,1.3z"/>
		<path class="st1" d="M340,50.3c0,0,44.1,8.9,139.8,33.6c90.4,23.3,118.8,34.2,118.8,34.2s18.1,89.7-22.9,258.3
			c-33.1,136.2-141.6,223.6-235.7,256c-94.1-32.4-202.6-119.9-235.7-256c-41-168.6-26.1-259.9-26.1-259.9s31.7-9.3,122-32.6
			C296,59.3,340,50.3,340,50.3z"/>
	</g>
	<path d="M472.1,259.3L306.7,424.7c-5.7,5.7-15.1,5.7-20.8,0l-2.9-2.9c-0.1-0.1-0.1-0.1-0.2-0.3c0,0-0.1,0-0.1-0.1l-61.3-61.3
		c-6.5-6.5-6.5-17.2,0-23.7c3.3-3.3,7.5-4.9,11.8-4.9c4.3,0,8.6,1.6,11.8,4.9l51.2,51.2l152.1-152.1c5.7-5.7,15.1-5.7,20.8,0
		l2.9,2.9C477.9,244.2,477.9,253.6,472.1,259.3z"/>
	<path class="st2" d="M334.4,53.8c0,0,44.1,8.9,139.8,33.6c90.4,23.3,122.1,32.6,122.1,32.6s14.9,91.3-26.1,260
		c-33.1,136.2-141.6,223.7-235.8,256.1c-94.2-32.4-202.7-120-235.8-256.1c-41-168.7-26.1-260-26.1-260s31.7-9.4,122.1-32.6
		C290.4,62.7,334.4,53.8,334.4,53.8z"/>
</g>
</svg>
