<?xml version="1.0" encoding="utf-8"?>
<!-- Generator: Adobe Illustrator 27.0.0, SVG Export Plug-In . SVG Version: 6.00 Build 0)  -->
<svg version="1.1" id="Layer_1" xmlns="http://www.w3.org/2000/svg" xmlns:xlink="http://www.w3.org/1999/xlink" x="0px" y="0px"
	 viewBox="0 0 3840 3979" style="enable-background:new 0 0 3840 3979;" xml:space="preserve">
<style type="text/css">
	.st0{fill:#00F613;}
	.st1{fill:#98E891;}
	.st2{fill:none;stroke:#000000;stroke-width:41.0439;stroke-miterlimit:10;}
</style>
<g>
	<g>
		<path class="st0" d="M2005.4,7.7C947.1-87.4,98.8,705.6,4.8,1852.4c-21.3,295.7,27.8,591.9,143,865s293.1,515.5,519.6,707
			c0.9,197.2-56.5,390-164.8,554.5c229.1-16.9,447-106.4,621.8-255.8c213.9,102.1,443.9,165.5,680,186.3
			c1058.7,95.1,1914.4-799,2024.9-1832.6C3947.6,962.2,3064.1,102.4,2005.4,7.7z"/>
		<path class="st1" d="M2040.1,301.7c0,0,264.4,53.4,838.7,201.1c542.2,139.4,713,205,713,205s108.8,537.6-137.3,1548.1
			c-198.7,816-849.6,1340.1-1414.4,1534.2C1475.3,3596,824.4,3071.4,625.7,2255.9C379.6,1245.4,469.2,698.2,469.2,698.2
			s190-56,732.2-195.4C1775.8,355.1,2040.1,301.7,2040.1,301.7z"/>
	</g>
	<path d="M2832.8,1553.8l-992.4,991.3c-34.4,34.3-90.5,34.3-124.8,0l-17.4-17.4c-0.4-0.4-0.9-0.9-1.3-1.7c0,0-0.4,0-0.4-0.4
		l-367.9-367.1c-39.1-39.1-39.1-103,0-142c19.6-19.5,45.2-29.1,70.9-29.1s51.8,9.6,70.9,29.1l307,307.1l912.8-911.3
		c34.4-34.3,90.5-34.3,124.8,0l17.4,17.4C2867.2,1463.5,2867.2,1519.5,2832.8,1553.8z"/>
	<path class="st2" d="M2006.5,322.3c0,0,264.4,53.4,838.9,201.1c542.3,139.4,732.3,195.5,732.3,195.5s89.6,547.3-156.6,1558.2
		c-198.7,816.2-849.8,1340.5-1414.7,1534.7c-564.9-194.2-1215.9-718.9-1414.7-1534.7C345.7,1266.2,435.3,718.9,435.3,718.9
		s190-56,732.3-195.5C1742.1,375.7,2006.5,322.3,2006.5,322.3z"/>
</g>
</svg>
