<?xml version="1.0" encoding="utf-8"?>
<!-- Generator: Adobe Illustrator 27.0.0, SVG Export Plug-In . SVG Version: 6.00 Build 0)  -->
<svg version="1.1" id="Layer_1" xmlns="http://www.w3.org/2000/svg" xmlns:xlink="http://www.w3.org/1999/xlink" x="0px" y="0px"
	 viewBox="0 0 828 885" style="enable-background:new 0 0 828 885;" xml:space="preserve">
<style type="text/css">
	.st0{fill:#00F613;}
</style>
<g>
	<path class="st0" d="M379.1,29.2c0,0,65.8,8.5,209,34.9C723.5,89,771,99.5,771,99.5s31.3,132.6-11.6,384.8
		C724.7,687.9,574,827.7,439,885C297.2,847,128.5,729.5,65.8,532.9C-11.9,289.2,0.8,153.5,0.8,153.5S46.4,136.5,177,92.9
		C315.1,46.8,379.1,29.2,379.1,29.2z"/>
	<path d="M641,302.7L397.1,546.4c-8.4,8.4-22.2,8.4-30.6,0l-4.3-4.3c-0.1-0.1-0.2-0.2-0.3-0.4c0,0-0.1,0-0.1-0.1l-90.4-90.2
		c-9.6-9.6-9.6-25.3,0-34.9c4.8-4.8,11.1-7.2,17.4-7.2c6.4,0,12.7,2.4,17.4,7.2l75.5,75.4l224.3-224.1c8.4-8.4,22.2-8.4,30.6,0
		l4.3,4.3C649.4,280.5,649.4,294.3,641,302.7z"/>
	<g>
		<path d="M438,10.3c12,2.5,77.8,16.5,203.6,48.9c105,27,156.6,41.4,173.4,46.1c1.4,12.5,4,43.3,2.5,91
			c-1.9,58.4-10.7,154.7-41.6,281.8c-11.5,47.1-29.7,92.2-54.3,134.2c-22.6,38.6-50.6,74.6-83.1,107
			c-57.2,57-128.3,102.3-200.5,127.8c-72.2-25.5-143.2-70.8-200.4-127.8c-32.5-32.5-60.5-68.5-83.1-107
			c-24.6-42-42.9-87.1-54.3-134.2C69.2,351,60.5,254.7,58.6,196.3c-1.6-47.7,1.1-78.6,2.5-91c16.7-4.7,68.3-19.1,173.4-46.1
			C360.2,26.8,426,12.8,438,10.3 M438,0c0,0-65,13.1-206,49.4c-133.3,34.3-180,48-180,48s-22,134.5,38.4,383
			C139.2,681.1,299.2,810,438,857.8C576.8,810,736.8,681.1,785.6,480.5c60.5-248.5,38.4-383,38.4-383s-46.8-13.7-180-48
			C502.9,13.1,438,0,438,0L438,0z"/>
	</g>
</g>
</svg>
