<?xml version="1.0" encoding="utf-8"?>
<!-- Generator: Adobe Illustrator 27.0.0, SVG Export Plug-In . SVG Version: 6.00 Build 0)  -->
<svg version="1.1" id="Layer_1" xmlns="http://www.w3.org/2000/svg" xmlns:xlink="http://www.w3.org/1999/xlink" x="0px" y="0px"
	 viewBox="0 0 1920 2051" style="enable-background:new 0 0 1920 2051;" xml:space="preserve">
<style type="text/css">
	.st0{fill:#00F613;}
</style>
<g>
	<path class="st0" d="M879,67.7c0,0,152.5,19.7,484.7,80.9c313.9,57.7,424.1,82.1,424.1,82.1s72.7,307.4-26.9,891.9
		c-80.6,471.8-429.9,795.6-743.1,928.5c-328.7-88.1-719.9-360.3-865.2-816C-27.5,670.2,1.8,355.6,1.8,355.6s105.9-39.2,408.6-140.3
		C730.7,108.5,879,67.7,879,67.7z"/>
	<path d="M1486.3,701.5l-565.5,564.7c-19.5,19.5-51.5,19.5-71,0l-10-10c-0.2-0.2-0.5-0.5-0.7-0.9c0,0-0.2,0-0.2-0.2L629.2,1046
		c-22.3-22.3-22.3-58.7,0-80.9c11.1-11.1,25.8-16.7,40.4-16.7c14.9,0,29.5,5.6,40.4,16.7l175,174.8l520-519.3
		c19.5-19.5,51.5-19.5,71,0l10,10C1505.8,650.1,1505.8,682,1486.3,701.5z"/>
	<g>
		<path d="M1015.5,23.9c27.7,5.8,180.4,38.3,472.2,113.3c243.5,62.7,363.2,95.9,402,106.9c3.3,28.9,9.4,100.4,5.8,210.9
			c-2.8,86.1-10.9,178.7-24,275.2c-16.4,120.6-40.8,247.7-72.4,377.8c-26.6,109.1-68.9,213.7-125.9,311
			c-52.4,89.4-117.2,172.9-192.7,248.1c-69.6,69.4-147.5,131-231.3,183.1c-75.9,47.2-154.5,85.2-233.5,113.1
			c-79-27.9-157.5-65.9-233.4-113.1c-83.8-52.1-161.7-113.7-231.3-183.1c-75.5-75.2-140.3-158.7-192.7-248.1
			c-57-97.3-99.4-201.9-125.9-311c-31.7-130-56-257.1-72.4-377.8c-13.1-96.5-21.2-189.1-24-275.2c-3.6-110.5,2.5-182.1,5.8-210.9
			c38.8-11,158.5-44.2,402-106.9C835.2,62.2,987.8,29.6,1015.5,23.9 M1015.5,0c0,0-150.7,30.4-477.8,114.5
			c-309,79.5-417.4,111.3-417.4,111.3s-51.1,311.8,89.1,887.7c113.3,465.1,484.3,763.6,806,874.5c322-110.8,693-409.4,806.2-874.5
			c140.2-575.9,89.1-887.7,89.1-887.7s-108.4-31.8-417.4-111.3C1166.2,30.4,1015.5,0,1015.5,0L1015.5,0z"/>
	</g>
</g>
</svg>
