<?xml version="1.0" encoding="utf-8"?>
<!-- Generator: Adobe Illustrator 27.0.0, SVG Export Plug-In . SVG Version: 6.00 Build 0)  -->
<svg version="1.1" id="Layer_1" xmlns="http://www.w3.org/2000/svg" xmlns:xlink="http://www.w3.org/1999/xlink" x="0px" y="0px"
	 viewBox="0 0 1920 1990" style="enable-background:new 0 0 1920 1990;" xml:space="preserve">
<style type="text/css">
	.st0{fill:#00F613;}
	.st1{fill:#98E891;}
	.st2{fill:none;stroke:#000000;stroke-width:20.5245;stroke-miterlimit:10;}
</style>
<g>
	<g>
		<path class="st0" d="M1002.7,3.9C473.5-43.7,49.4,352.9,2.4,926.5c-10.7,147.9,13.9,296,71.5,432.6s146.5,257.8,259.8,353.6
			c0.4,98.6-28.3,195-82.4,277.3c114.6-8.5,223.5-53.2,310.9-127.9c107,51,222,82.7,340,93.2c529.4,47.6,957.2-399.6,1012.4-916.5
			C1973.8,481.2,1532.1,51.2,1002.7,3.9z"/>
		<path class="st1" d="M1020.1,150.9c0,0,132.2,26.7,419.4,100.6c271.1,69.7,356.5,102.5,356.5,102.5s54.4,268.9-68.6,774.2
			c-99.4,408.1-424.8,670.2-707.2,767.3c-282.4-97.1-607.9-359.4-707.2-767.3c-123-505.4-78.3-779-78.3-779s95-28,366.1-97.7
			C887.9,177.6,1020.1,150.9,1020.1,150.9z"/>
	</g>
	<path d="M1416.4,777.1l-496.2,495.8c-17.2,17.2-45.2,17.2-62.4,0l-8.7-8.7c-0.2-0.2-0.4-0.4-0.7-0.9c0,0-0.2,0-0.2-0.2l-184-183.6
		c-19.6-19.6-19.6-51.5,0-71c9.8-9.8,22.6-14.6,35.4-14.6s25.9,4.8,35.4,14.6l153.5,153.6l456.4-455.8c17.2-17.2,45.2-17.2,62.4,0
		l8.7,8.7C1433.6,731.9,1433.6,759.9,1416.4,777.1z"/>
	<path class="st2" d="M1003.3,161.2c0,0,132.2,26.7,419.4,100.6c271.1,69.7,366.2,97.8,366.2,97.8s44.8,273.7-78.3,779.3
		c-99.4,408.2-424.9,670.4-707.3,767.5c-282.5-97.1-608-359.5-707.3-767.5c-123.1-505.5-78.3-779.3-78.3-779.3s95-28,366.2-97.8
		C871.1,187.9,1003.3,161.2,1003.3,161.2z"/>
</g>
</svg>
