<?xml version="1.0" encoding="utf-8"?>
<!-- Generator: Adobe Illustrator 27.0.0, SVG Export Plug-In . SVG Version: 6.00 Build 0)  -->
<svg version="1.1" id="Layer_1" xmlns="http://www.w3.org/2000/svg" xmlns:xlink="http://www.w3.org/1999/xlink" x="0px" y="0px"
	 viewBox="0 0 2048 2188" style="enable-background:new 0 0 2048 2188;" xml:space="preserve">
<style type="text/css">
	.st0{fill:#00F613;}
</style>
<g>
	<path class="st0" d="M937.6,72.2c0,0,162.7,21,517,86.3c334.8,61.6,452.4,87.5,452.4,87.5s77.5,327.9-28.7,951.4
		c-85.9,503.3-458.6,848.8-792.6,990.5c-350.6-94-767.9-384.3-922.9-870.6C-29.3,715,1.9,379.4,1.9,379.4s112.9-41.8,435.8-149.6
		C779.4,115.7,937.6,72.2,937.6,72.2z"/>
	<path d="M1585.4,748.4l-603.2,602.5c-20.8,20.8-55,20.8-75.8,0l-10.6-10.6c-0.2-0.2-0.5-0.5-0.7-1c0,0-0.2,0-0.2-0.2l-223.6-223.1
		c-23.8-23.7-23.8-62.6,0-86.3c11.9-11.9,27.5-17.8,43.1-17.8c15.8,0,31.4,5.9,43.1,17.8l186.7,186.5l554.7-554
		c20.8-20.8,55-20.8,75.8,0l10.6,10.6C1606.2,693.5,1606.2,727.6,1585.4,748.4z"/>
	<g>
		<path d="M1083.2,25.5c29.6,6.2,192.4,40.8,503.6,120.9c259.8,66.9,387.4,102.3,428.8,114c3.5,30.8,10,107.1,6.2,225
			c-3,91.9-11.6,190.7-25.6,293.6c-17.5,128.7-43.5,264.3-77.3,403c-28.3,116.3-73.5,228-134.3,331.7
			c-55.9,95.4-125,184.4-205.5,264.7c-74.3,74-157.3,139.7-246.8,195.3c-81,50.3-164.8,90.9-249.1,120.6
			c-84.3-29.7-168-70.3-249-120.6c-89.4-55.6-172.4-121.3-246.7-195.3c-80.5-80.2-149.6-169.3-205.5-264.7
			c-60.8-103.8-106-215.4-134.3-331.7C214,1043.2,188,907.7,170.5,779c-14-102.9-22.6-201.7-25.6-293.6
			c-3.9-117.9,2.7-194.2,6.2-225c41.4-11.7,169-47.2,428.8-114C890.9,66.3,1053.7,31.6,1083.2,25.5 M1083.2,0
			c0,0-160.7,32.4-509.6,122.2C244,207,128.4,240.9,128.4,240.9s-54.5,332.6,95.1,947c120.8,496.1,516.5,814.7,859.7,932.9
			c343.5-118.2,739.2-436.8,860-932.9c149.6-614.3,95.1-947,95.1-947s-115.6-33.9-445.2-118.7C1244,32.4,1083.2,0,1083.2,0L1083.2,0
			z"/>
	</g>
</g>
</svg>
